<?xml version="1.0" encoding="UTF-8" standalone="no"?>
<!DOCTYPE svg PUBLIC "-//W3C//DTD SVG 1.1//EN"
 "http://www.w3.org/Graphics/SVG/1.1/DTD/svg11.dtd">
<!-- Generated by graphviz version 2.43.0 (0)
 -->
<!-- Title: UToolbarSettings::GetSearchRoots Pages: 1 -->
<svg width="756pt" height="76pt"
 viewBox="0.00 0.00 756.00 75.50" xmlns="http://www.w3.org/2000/svg" xmlns:xlink="http://www.w3.org/1999/xlink">
<g id="graph0" class="graph" transform="scale(1 1) rotate(0) translate(4 71.5)">
<title>UToolbarSettings::GetSearchRoots</title>
<!-- Node1 -->
<g id="Node000001" class="node">
<title>Node1</title>
<g id="a_Node000001"><a xlink:title="레벨 선택 헬퍼가 사용할 검색 루트 경로를 수집합니다.">
<polygon fill="#999999" stroke="#666666" points="748,-45.5 593,-45.5 593,-15.5 748,-15.5 748,-45.5"/>
<text text-anchor="start" x="601" y="-33.5" font-family="Malgun Gothic" font-size="10.00">UToolbarSettings::GetSearch</text>
<text text-anchor="middle" x="670.5" y="-22.5" font-family="Malgun Gothic" font-size="10.00">Roots</text>
</a>
</g>
</g>
<!-- Node2 -->
<g id="Node000002" class="node">
<title>Node2</title>
<g id="a_Node000002"><a xlink:href="classFLevelFeature.html#aebe19d9a49173da8ced901d2f0b676cb" target="_top" xlink:title="설정된 검색 경로에서 발견 가능한 맵 에셋을 모두 수집합니다.">
<polygon fill="white" stroke="#666666" points="541,-60 383,-60 383,-41 541,-41 541,-60"/>
<text text-anchor="middle" x="462" y="-48" font-family="Malgun Gothic" font-size="10.00">FLevelFeature::CollectWorlds</text>
</a>
</g>
</g>
<!-- Node1&#45;&gt;Node2 -->
<g id="edge1_Node000001_Node000002" class="edge">
<title>Node1&#45;&gt;Node2</title>
<g id="a_edge1_Node000001_Node000002"><a xlink:title=" ">
<path fill="none" stroke="#63b8ff" d="M582.91,-38.89C569.08,-40.23 554.83,-41.61 541.2,-42.93"/>
<polygon fill="#63b8ff" stroke="#63b8ff" points="583.28,-42.37 592.9,-37.92 582.61,-35.4 583.28,-42.37"/>
</a>
</g>
</g>
<!-- Node4 -->
<g id="Node000004" class="node">
<title>Node4</title>
<g id="a_Node000004"><a xlink:href="classFLevelFeature.html#aff2925b502a52156786e925c1bd2af90" target="_top" xlink:title="레벨 선택 항목을 포함한 Slate 위젯을 구성합니다.">
<polygon fill="white" stroke="#666666" points="557,-22 367,-22 367,-3 557,-3 557,-22"/>
<text text-anchor="middle" x="462" y="-10" font-family="Malgun Gothic" font-size="10.00">FLevelFeature::GenerateLevelMenu</text>
</a>
</g>
</g>
<!-- Node1&#45;&gt;Node4 -->
<g id="edge3_Node000001_Node000004" class="edge">
<title>Node1&#45;&gt;Node4</title>
<g id="a_edge3_Node000001_Node000004"><a xlink:title=" ">
<path fill="none" stroke="#63b8ff" d="M582.74,-22.94C574.34,-22.21 565.79,-21.46 557.32,-20.72"/>
<polygon fill="#63b8ff" stroke="#63b8ff" points="582.63,-26.44 592.9,-23.82 583.24,-19.47 582.63,-26.44"/>
</a>
</g>
</g>
<!-- Node3 -->
<g id="Node000003" class="node">
<title>Node3</title>
<g id="a_Node000003"><a xlink:href="classFLevelFeature.html#abefcace2c5ea60b97089760e5c45ebb5" target="_top" xlink:title="시작 이후에도 유효한 기본 맵 선택이 존재하도록 보장합니다.">
<polygon fill="white" stroke="#666666" points="331,-67.5 170,-67.5 170,-37.5 331,-37.5 331,-67.5"/>
<text text-anchor="start" x="178" y="-55.5" font-family="Malgun Gothic" font-size="10.00">FLevelFeature::EnsureDefault</text>
<text text-anchor="middle" x="250.5" y="-44.5" font-family="Malgun Gothic" font-size="10.00">Selection</text>
</a>
</g>
</g>
<!-- Node2&#45;&gt;Node3 -->
<g id="edge2_Node000002_Node000003" class="edge">
<title>Node2&#45;&gt;Node3</title>
<g id="a_edge2_Node000002_Node000003"><a xlink:title=" ">
<path fill="none" stroke="#63b8ff" d="M372.6,-51.34C358.9,-51.47 344.82,-51.61 331.32,-51.74"/>
<polygon fill="#63b8ff" stroke="#63b8ff" points="373.02,-54.84 382.99,-51.24 372.96,-47.84 373.02,-54.84"/>
</a>
</g>
</g>
<!-- Node5 -->
<g id="Node000005" class="node">
<title>Node5</title>
<g id="a_Node000005"><a xlink:href="classFToolbar.html#a2df7b59ad21cce1d2f0437add0d4c6a7" target="_top" xlink:title="에디터 확장 프레임워크에 툴바 메뉴와 버튼을 등록합니다.">
<polygon fill="white" stroke="#666666" points="318.5,-19 182.5,-19 182.5,0 318.5,0 318.5,-19"/>
<text text-anchor="middle" x="250.5" y="-7" font-family="Malgun Gothic" font-size="10.00">FToolbar::RegisterMenus</text>
</a>
</g>
</g>
<!-- Node4&#45;&gt;Node5 -->
<g id="edge4_Node000004_Node000005" class="edge">
<title>Node4&#45;&gt;Node5</title>
<g id="a_edge4_Node000004_Node000005"><a xlink:title=" ">
<path fill="none" stroke="#63b8ff" d="M356.62,-11.01C343.68,-10.82 330.74,-10.63 318.58,-10.46"/>
<polygon fill="#63b8ff" stroke="#63b8ff" points="356.93,-14.51 366.97,-11.15 357.03,-7.51 356.93,-14.51"/>
</a>
</g>
</g>
<!-- Node6 -->
<g id="Node000006" class="node">
<title>Node6</title>
<g id="a_Node000006"><a xlink:href="classFToolbar.html#a29b321398a59346e3df4870366f89245" target="_top" xlink:title="툴바 기능을 초기화하고 Slate 메뉴 확장을 등록합니다.">
<polygon fill="white" stroke="#666666" points="134,-19 0,-19 0,0 134,0 134,-19"/>
<text text-anchor="middle" x="67" y="-7" font-family="Malgun Gothic" font-size="10.00">FToolbar::StartupModule</text>
</a>
</g>
</g>
<!-- Node5&#45;&gt;Node6 -->
<g id="edge5_Node000005_Node000006" class="edge">
<title>Node5&#45;&gt;Node6</title>
<g id="a_edge5_Node000005_Node000006"><a xlink:title=" ">
<path fill="none" stroke="#63b8ff" d="M172.35,-9.5C159.65,-9.5 146.59,-9.5 134.19,-9.5"/>
<polygon fill="#63b8ff" stroke="#63b8ff" points="172.43,-13 182.43,-9.5 172.43,-6 172.43,-13"/>
</a>
</g>
</g>
</g>
</svg>
