<?xml version="1.0" encoding="UTF-8" standalone="no"?>
<!DOCTYPE svg PUBLIC "-//W3C//DTD SVG 1.1//EN"
 "http://www.w3.org/Graphics/SVG/1.1/DTD/svg11.dtd">
<!-- Generated by graphviz version 2.43.0 (0)
 -->
<!-- Title: UToolbarSettings Pages: 1 -->
<svg width="166pt" height="382pt"
 viewBox="0.00 0.00 166.00 382.00" xmlns="http://www.w3.org/2000/svg" xmlns:xlink="http://www.w3.org/1999/xlink">

<svg id="main" version="1.1" xmlns="http://www.w3.org/2000/svg" xmlns:xlink="http://www.w3.org/1999/xlink" xml:space="preserve" onload="init(evt)">
<style type="text/css"><![CDATA[
.node, .edge {opacity: 0.7;}
.node.selected, .edge.selected {opacity: 1;}
.edge:hover path { stroke: red; }
.edge:hover polygon { stroke: red; fill: red; }
]]></style>
<script type="application/ecmascript" xlink:href="svg.min.js"/>
<svg id="graph" class="graph">
<g id="graph0" class="graph" transform="scale(1 1) rotate(0) translate(4 378)">
<title>UToolbarSettings</title>
<!-- Node1 -->
<g id="Node000001" class="node">
<title>Node1</title>
<g id="a_Node000001"><a xlink:title="툴바 버튼 배치와 기능 토글을 정의하는 개발자 설정입니다.">
<polygon fill="#999999" stroke="transparent" points="158,-289 0,-289 0,0 158,0 158,-289"/>
<text text-anchor="start" x="37.5" y="-276.5" font-family="Malgun Gothic" font-size="10.00">UToolbarSettings</text>
<text text-anchor="start" x="4" y="-261.5" font-family="Malgun Gothic" font-size="10.00">+</text>
<text text-anchor="start" x="17" y="-261.5" font-family="Malgun Gothic" font-size="10.00">bEnableCommandFeature</text>
<text text-anchor="start" x="4" y="-246.5" font-family="Malgun Gothic" font-size="10.00">+</text>
<text text-anchor="start" x="17" y="-246.5" font-family="Malgun Gothic" font-size="10.00">bEnableFolderFeature</text>
<text text-anchor="start" x="4" y="-231.5" font-family="Malgun Gothic" font-size="10.00">+</text>
<text text-anchor="start" x="17" y="-231.5" font-family="Malgun Gothic" font-size="10.00">bEnableLevelFeature</text>
<text text-anchor="start" x="4" y="-216.5" font-family="Malgun Gothic" font-size="10.00">+</text>
<text text-anchor="start" x="17" y="-216.5" font-family="Malgun Gothic" font-size="10.00">bEnableNetworkTestFeature</text>
<text text-anchor="start" x="4" y="-201.5" font-family="Malgun Gothic" font-size="10.00">+</text>
<text text-anchor="start" x="17" y="-201.5" font-family="Malgun Gothic" font-size="10.00">bEnableScreenshotFeature</text>
<text text-anchor="start" x="4" y="-186.5" font-family="Malgun Gothic" font-size="10.00">+</text>
<text text-anchor="start" x="17" y="-186.5" font-family="Malgun Gothic" font-size="10.00">ExtraSearchPaths</text>
<text text-anchor="start" x="4" y="-171.5" font-family="Malgun Gothic" font-size="10.00">+</text>
<text text-anchor="start" x="17" y="-171.5" font-family="Malgun Gothic" font-size="10.00">ExtraSearchPathsStrings</text>
<text text-anchor="start" x="4" y="-156.5" font-family="Malgun Gothic" font-size="10.00">+</text>
<text text-anchor="start" x="17" y="-156.5" font-family="Malgun Gothic" font-size="10.00">FoldersToOpen</text>
<text text-anchor="start" x="4" y="-141.5" font-family="Malgun Gothic" font-size="10.00">+</text>
<text text-anchor="start" x="17" y="-141.5" font-family="Malgun Gothic" font-size="10.00">NetworkTests</text>
<text text-anchor="start" x="4" y="-126.5" font-family="Malgun Gothic" font-size="10.00">+</text>
<text text-anchor="start" x="17" y="-126.5" font-family="Malgun Gothic" font-size="10.00">NetworkTestUrl</text>
<text text-anchor="start" x="4" y="-111.5" font-family="Malgun Gothic" font-size="10.00">+</text>
<text text-anchor="start" x="17" y="-111.5" font-family="Malgun Gothic" font-size="10.00">ToolbarButtons</text>
<text text-anchor="start" x="4" y="-96.5" font-family="Malgun Gothic" font-size="10.00">+</text>
<text text-anchor="start" x="17" y="-96.5" font-family="Malgun Gothic" font-size="10.00">UToolbarSettings()</text>
<text text-anchor="start" x="4" y="-81.5" font-family="Malgun Gothic" font-size="10.00">+</text>
<text text-anchor="start" x="17" y="-81.5" font-family="Malgun Gothic" font-size="10.00">GetCategoryName()</text>
<text text-anchor="start" x="4" y="-66.5" font-family="Malgun Gothic" font-size="10.00">+</text>
<text text-anchor="start" x="17" y="-66.5" font-family="Malgun Gothic" font-size="10.00">GetContainerName()</text>
<text text-anchor="start" x="4" y="-51.5" font-family="Malgun Gothic" font-size="10.00">+</text>
<text text-anchor="start" x="17" y="-51.5" font-family="Malgun Gothic" font-size="10.00">GetSectionName()</text>
<text text-anchor="start" x="4" y="-36.5" font-family="Malgun Gothic" font-size="10.00">+</text>
<text text-anchor="start" x="17" y="-36.5" font-family="Malgun Gothic" font-size="10.00">PostEditChangeProperty()</text>
<text text-anchor="start" x="4" y="-21.5" font-family="Malgun Gothic" font-size="10.00">+</text>
<text text-anchor="start" x="17" y="-21.5" font-family="Malgun Gothic" font-size="10.00">PostInitProperties()</text>
<text text-anchor="start" x="4" y="-6.5" font-family="Malgun Gothic" font-size="10.00">+</text>
<text text-anchor="start" x="17" y="-6.5" font-family="Malgun Gothic" font-size="10.00">GetSearchRoots()</text>
<polygon fill="#666666" stroke="#666666" points="0,-271.5 0,-271.5 158,-271.5 158,-271.5 0,-271.5"/>
<polygon fill="#666666" stroke="#666666" points="0,-106.5 0,-106.5 15,-106.5 15,-106.5 0,-106.5"/>
<polygon fill="#666666" stroke="#666666" points="15,-106.5 15,-106.5 158,-106.5 158,-106.5 15,-106.5"/>
<polygon fill="none" stroke="#666666" points="0,0 0,-289 158,-289 158,0 0,0"/>
</a>
</g>
</g>
<!-- Node2 -->
<g id="Node000002" class="node">
<title>Node2</title>
<g id="a_Node000002"><a xlink:title=" ">
<polygon fill="white" stroke="transparent" points="133,-374 25,-374 25,-325 133,-325 133,-374"/>
<text text-anchor="start" x="30" y="-361.5" font-family="Malgun Gothic" font-size="10.00">UDeveloperSettings</text>
<text text-anchor="start" x="77" y="-346.5" font-family="Malgun Gothic" font-size="10.00"> </text>
<text text-anchor="start" x="77" y="-331.5" font-family="Malgun Gothic" font-size="10.00"> </text>
<polygon fill="#666666" stroke="#666666" points="25,-356.5 25,-356.5 133,-356.5 133,-356.5 25,-356.5"/>
<polygon fill="#666666" stroke="#666666" points="25,-341.5 25,-341.5 133,-341.5 133,-341.5 25,-341.5"/>
<polygon fill="none" stroke="#666666" points="25,-325 25,-374 133,-374 133,-325 25,-325"/>
</a>
</g>
</g>
<!-- Node2&#45;&gt;Node1 -->
<g id="edge1_Node000001_Node000002" class="edge">
<title>Node2&#45;&gt;Node1</title>
<g id="a_edge1_Node000001_Node000002"><a xlink:title=" ">
<path fill="none" stroke="#63b8ff" d="M79,-314.66C79,-307 79,-298.4 79,-289.24"/>
<polygon fill="none" stroke="#63b8ff" points="75.5,-314.82 79,-324.82 82.5,-314.82 75.5,-314.82"/>
</a>
</g>
</g>
</g>
</svg>
</svg>

<style type='text/css'>
<![CDATA[
[data-mouse-over-selected='false'] { opacity: 0.7; }
[data-mouse-over-selected='true']  { opacity: 1.0; }
]]>
</style>
<script type="application/ecmascript"><![CDATA[
document.addEventListener('DOMContentLoaded', (event) => {
  highlightEdges();
  highlightAdjacentNodes();
});
]]></script>
</svg>
