<?xml version="1.0" encoding="UTF-8" standalone="no"?>
<!DOCTYPE svg PUBLIC "-//W3C//DTD SVG 1.1//EN"
 "http://www.w3.org/Graphics/SVG/1.1/DTD/svg11.dtd">
<!-- Generated by graphviz version 2.43.0 (0)
 -->
<!-- Title: FScreenshotFeature Pages: 1 -->
<svg width="145pt" height="87pt"
 viewBox="0.00 0.00 145.00 87.00" xmlns="http://www.w3.org/2000/svg" xmlns:xlink="http://www.w3.org/1999/xlink">
<g id="graph0" class="graph" transform="scale(1 1) rotate(0) translate(4 83)">
<title>FScreenshotFeature</title>
<!-- Node1 -->
<g id="Node000001" class="node">
<title>Node1</title>
<g id="a_Node000001"><a xlink:title="스크린샷 촬영과 폴더 탐색 동작을 제공합니다.">
<polygon fill="#999999" stroke="transparent" points="137,-79 0,-79 0,0 137,0 137,-79"/>
<text text-anchor="start" x="20.5" y="-66.5" font-family="Malgun Gothic" font-size="10.00">FScreenshotFeature</text>
<text text-anchor="start" x="67" y="-51.5" font-family="Malgun Gothic" font-size="10.00"> </text>
<text text-anchor="start" x="4.5" y="-36.5" font-family="Malgun Gothic" font-size="10.00">+</text>
<text text-anchor="start" x="17.5" y="-36.5" font-family="Malgun Gothic" font-size="10.00">FScreenshotFeature()</text>
<text text-anchor="start" x="4.5" y="-21.5" font-family="Malgun Gothic" font-size="10.00">+</text>
<text text-anchor="start" x="17.5" y="-21.5" font-family="Malgun Gothic" font-size="10.00">OnCaptureScreenshot()</text>
<text text-anchor="start" x="4.5" y="-6.5" font-family="Malgun Gothic" font-size="10.00">+</text>
<text text-anchor="start" x="17.5" y="-6.5" font-family="Malgun Gothic" font-size="10.00">OnOpenScreenShotDir()</text>
<polygon fill="#666666" stroke="#666666" points="0.5,-61.5 0.5,-61.5 137.5,-61.5 137.5,-61.5 0.5,-61.5"/>
<polygon fill="#666666" stroke="#666666" points="0.5,-46.5 0.5,-46.5 137.5,-46.5 137.5,-46.5 0.5,-46.5"/>
<polygon fill="none" stroke="#666666" points="0,0 0,-79 137,-79 137,0 0,0"/>
</a>
</g>
</g>
</g>
</svg>
