<?xml version="1.0" encoding="UTF-8" standalone="no"?>
<!DOCTYPE svg PUBLIC "-//W3C//DTD SVG 1.1//EN"
 "http://www.w3.org/Graphics/SVG/1.1/DTD/svg11.dtd">
<!-- Generated by graphviz version 2.43.0 (0)
 -->
<!-- Title: FToolbar Pages: 1 -->
<svg width="121pt" height="217pt"
 viewBox="0.00 0.00 121.00 217.00" xmlns="http://www.w3.org/2000/svg" xmlns:xlink="http://www.w3.org/1999/xlink">

<svg id="main" version="1.1" xmlns="http://www.w3.org/2000/svg" xmlns:xlink="http://www.w3.org/1999/xlink" xml:space="preserve" onload="init(evt)">
<style type="text/css"><![CDATA[
.node, .edge {opacity: 0.7;}
.node.selected, .edge.selected {opacity: 1;}
.edge:hover path { stroke: red; }
.edge:hover polygon { stroke: red; fill: red; }
]]></style>
<script type="application/ecmascript" xlink:href="svg.min.js"/>
<svg id="graph" class="graph">
<g id="graph0" class="graph" transform="scale(1 1) rotate(0) translate(4 213)">
<title>FToolbar</title>
<!-- Node1 -->
<g id="Node000001" class="node">
<title>Node1</title>
<g id="a_Node000001"><a xlink:title="Coffee Toolbar 기능을 에디터에 연결하는 모듈 구현입니다.">
<polygon fill="#999999" stroke="transparent" points="113,-124 0,-124 0,0 113,0 113,-124"/>
<text text-anchor="start" x="36.5" y="-112" font-family="Malgun Gothic" font-size="10.00">FToolbar</text>
<text text-anchor="start" x="7" y="-97" font-family="Malgun Gothic" font-size="10.00">&#45;</text>
<text text-anchor="start" x="17.5" y="-97" font-family="Malgun Gothic" font-size="10.00">CommandFeature</text>
<text text-anchor="start" x="7" y="-82" font-family="Malgun Gothic" font-size="10.00">&#45;</text>
<text text-anchor="start" x="17.5" y="-82" font-family="Malgun Gothic" font-size="10.00">FolderFeature</text>
<text text-anchor="start" x="7" y="-67" font-family="Malgun Gothic" font-size="10.00">&#45;</text>
<text text-anchor="start" x="17.5" y="-67" font-family="Malgun Gothic" font-size="10.00">LevelFeature</text>
<text text-anchor="start" x="7" y="-52" font-family="Malgun Gothic" font-size="10.00">&#45;</text>
<text text-anchor="start" x="17.5" y="-52" font-family="Malgun Gothic" font-size="10.00">ScreenshotFeature</text>
<text text-anchor="start" x="4.5" y="-37" font-family="Malgun Gothic" font-size="10.00">+</text>
<text text-anchor="start" x="17.5" y="-37" font-family="Malgun Gothic" font-size="10.00">ShutdownModule()</text>
<text text-anchor="start" x="4.5" y="-22" font-family="Malgun Gothic" font-size="10.00">+</text>
<text text-anchor="start" x="17.5" y="-22" font-family="Malgun Gothic" font-size="10.00">StartupModule()</text>
<text text-anchor="start" x="7" y="-7" font-family="Malgun Gothic" font-size="10.00">&#45;</text>
<text text-anchor="start" x="17.5" y="-7" font-family="Malgun Gothic" font-size="10.00">RegisterMenus()</text>
<polygon fill="#666666" stroke="#666666" points="0.5,-107 0.5,-107 113.5,-107 113.5,-107 0.5,-107"/>
<polygon fill="#666666" stroke="#666666" points="0.5,-47 0.5,-47 15.5,-47 15.5,-47 0.5,-47"/>
<polygon fill="#666666" stroke="#666666" points="15.5,-47 15.5,-47 113.5,-47 113.5,-47 15.5,-47"/>
<polygon fill="none" stroke="#666666" points="0,0 0,-124 113,-124 113,0 0,0"/>
</a>
</g>
</g>
<!-- Node2 -->
<g id="Node000002" class="node">
<title>Node2</title>
<g id="a_Node000002"><a xlink:title=" ">
<polygon fill="white" stroke="transparent" points="103,-209 10,-209 10,-160 103,-160 103,-209"/>
<text text-anchor="start" x="15.5" y="-196.5" font-family="Malgun Gothic" font-size="10.00">IModuleInterface</text>
<text text-anchor="start" x="55" y="-181.5" font-family="Malgun Gothic" font-size="10.00"> </text>
<text text-anchor="start" x="55" y="-166.5" font-family="Malgun Gothic" font-size="10.00"> </text>
<polygon fill="#666666" stroke="#666666" points="10.5,-191.5 10.5,-191.5 103.5,-191.5 103.5,-191.5 10.5,-191.5"/>
<polygon fill="#666666" stroke="#666666" points="10.5,-176.5 10.5,-176.5 103.5,-176.5 103.5,-176.5 10.5,-176.5"/>
<polygon fill="none" stroke="#666666" points="10,-160 10,-209 103,-209 103,-160 10,-160"/>
</a>
</g>
</g>
<!-- Node2&#45;&gt;Node1 -->
<g id="edge1_Node000001_Node000002" class="edge">
<title>Node2&#45;&gt;Node1</title>
<g id="a_edge1_Node000001_Node000002"><a xlink:title=" ">
<path fill="none" stroke="#63b8ff" d="M56.5,-149.94C56.5,-141.91 56.5,-133.08 56.5,-124.23"/>
<polygon fill="none" stroke="#63b8ff" points="53,-149.98 56.5,-159.98 60,-149.98 53,-149.98"/>
</a>
</g>
</g>
</g>
</svg>
</svg>

<style type='text/css'>
<![CDATA[
[data-mouse-over-selected='false'] { opacity: 0.7; }
[data-mouse-over-selected='true']  { opacity: 1.0; }
]]>
</style>
<script type="application/ecmascript"><![CDATA[
document.addEventListener('DOMContentLoaded', (event) => {
  highlightEdges();
  highlightAdjacentNodes();
});
]]></script>
</svg>
