<?xml version="1.0" encoding="UTF-8" standalone="no"?>
<!DOCTYPE svg PUBLIC "-//W3C//DTD SVG 1.1//EN"
 "http://www.w3.org/Graphics/SVG/1.1/DTD/svg11.dtd">
<!-- Generated by graphviz version 2.43.0 (0)
 -->
<!-- Title: FLevelFeature::OnSelectedMap Pages: 1 -->
<svg width="744pt" height="27pt"
 viewBox="0.00 0.00 744.00 27.00" xmlns="http://www.w3.org/2000/svg" xmlns:xlink="http://www.w3.org/1999/xlink">
<g id="graph0" class="graph" transform="scale(1 1) rotate(0) translate(4 23)">
<title>FLevelFeature::OnSelectedMap</title>
<!-- Node1 -->
<g id="Node000001" class="node">
<title>Node1</title>
<g id="a_Node000001"><a xlink:title="선택된 맵 패키지 이름을 저장합니다.">
<polygon fill="#999999" stroke="#666666" points="736,-19 568,-19 568,0 736,0 736,-19"/>
<text text-anchor="middle" x="652" y="-7" font-family="Malgun Gothic" font-size="10.00">FLevelFeature::OnSelectedMap</text>
</a>
</g>
</g>
<!-- Node2 -->
<g id="Node000002" class="node">
<title>Node2</title>
<g id="a_Node000002"><a xlink:href="classFLevelFeature.html#aff2925b502a52156786e925c1bd2af90" target="_top" xlink:title="레벨 선택 항목을 포함한 Slate 위젯을 구성합니다.">
<polygon fill="white" stroke="#666666" points="532,-19 342,-19 342,0 532,0 532,-19"/>
<text text-anchor="middle" x="437" y="-7" font-family="Malgun Gothic" font-size="10.00">FLevelFeature::GenerateLevelMenu</text>
</a>
</g>
</g>
<!-- Node1&#45;&gt;Node2 -->
<g id="edge1_Node000001_Node000002" class="edge">
<title>Node1&#45;&gt;Node2</title>
<g id="a_edge1_Node000001_Node000002"><a xlink:title=" ">
<path fill="none" stroke="#63b8ff" d="M557.53,-9.5C549.11,-9.5 540.58,-9.5 532.15,-9.5"/>
<polygon fill="#63b8ff" stroke="#63b8ff" points="557.73,-13 567.73,-9.5 557.73,-6 557.73,-13"/>
</a>
</g>
</g>
<!-- Node3 -->
<g id="Node000003" class="node">
<title>Node3</title>
<g id="a_Node000003"><a xlink:href="classFToolbar.html#a2df7b59ad21cce1d2f0437add0d4c6a7" target="_top" xlink:title="에디터 확장 프레임워크에 툴바 메뉴와 버튼을 등록합니다.">
<polygon fill="white" stroke="#666666" points="306,-19 170,-19 170,0 306,0 306,-19"/>
<text text-anchor="middle" x="238" y="-7" font-family="Malgun Gothic" font-size="10.00">FToolbar::RegisterMenus</text>
</a>
</g>
</g>
<!-- Node2&#45;&gt;Node3 -->
<g id="edge2_Node000002_Node000003" class="edge">
<title>Node2&#45;&gt;Node3</title>
<g id="a_edge2_Node000002_Node000003"><a xlink:title=" ">
<path fill="none" stroke="#63b8ff" d="M331.64,-9.5C322.97,-9.5 314.36,-9.5 306.09,-9.5"/>
<polygon fill="#63b8ff" stroke="#63b8ff" points="331.83,-13 341.83,-9.5 331.83,-6 331.83,-13"/>
</a>
</g>
</g>
<!-- Node4 -->
<g id="Node000004" class="node">
<title>Node4</title>
<g id="a_Node000004"><a xlink:href="classFToolbar.html#a29b321398a59346e3df4870366f89245" target="_top" xlink:title="툴바 기능을 초기화하고 Slate 메뉴 확장을 등록합니다.">
<polygon fill="white" stroke="#666666" points="134,-19 0,-19 0,0 134,0 134,-19"/>
<text text-anchor="middle" x="67" y="-7" font-family="Malgun Gothic" font-size="10.00">FToolbar::StartupModule</text>
</a>
</g>
</g>
<!-- Node3&#45;&gt;Node4 -->
<g id="edge3_Node000003_Node000004" class="edge">
<title>Node3&#45;&gt;Node4</title>
<g id="a_edge3_Node000003_Node000004"><a xlink:title=" ">
<path fill="none" stroke="#63b8ff" d="M159.49,-9.5C151.05,-9.5 142.51,-9.5 134.22,-9.5"/>
<polygon fill="#63b8ff" stroke="#63b8ff" points="159.72,-13 169.72,-9.5 159.72,-6 159.72,-13"/>
</a>
</g>
</g>
</g>
</svg>
