<?xml version="1.0" encoding="UTF-8" standalone="no"?>
<!DOCTYPE svg PUBLIC "-//W3C//DTD SVG 1.1//EN"
 "http://www.w3.org/Graphics/SVG/1.1/DTD/svg11.dtd">
<!-- Generated by graphviz version 2.43.0 (0)
 -->
<!-- Title: FToolbar::StartupModule Pages: 1 -->
<svg width="992pt" height="467pt"
 viewBox="0.00 0.00 992.00 466.50" xmlns="http://www.w3.org/2000/svg" xmlns:xlink="http://www.w3.org/1999/xlink">
<g id="graph0" class="graph" transform="scale(1 1) rotate(0) translate(4 462.5)">
<title>FToolbar::StartupModule</title>
<!-- Node1 -->
<g id="Node000001" class="node">
<title>Node1</title>
<g id="a_Node000001"><a xlink:title="툴바 기능을 초기화하고 Slate 메뉴 확장을 등록합니다.">
<polygon fill="#999999" stroke="#666666" points="134,-228.5 0,-228.5 0,-209.5 134,-209.5 134,-228.5"/>
<text text-anchor="middle" x="67" y="-216.5" font-family="Malgun Gothic" font-size="10.00">FToolbar::StartupModule</text>
</a>
</g>
</g>
<!-- Node2 -->
<g id="Node000002" class="node">
<title>Node2</title>
<g id="a_Node000002"><a xlink:href="classFToolbarStyle.html#a5b48d0a9f7254d082193b3932bbd55bb" target="_top" xlink:title="스타일 세트를 Slate 스타일 레지스트리에 등록합니다.">
<polygon fill="white" stroke="#666666" points="316.5,-368.5 186.5,-368.5 186.5,-349.5 316.5,-349.5 316.5,-368.5"/>
<text text-anchor="middle" x="251.5" y="-356.5" font-family="Malgun Gothic" font-size="10.00">FToolbarStyle::Initialize</text>
</a>
</g>
</g>
<!-- Node1&#45;&gt;Node2 -->
<g id="edge1_Node000001_Node000002" class="edge">
<title>Node1&#45;&gt;Node2</title>
<g id="a_edge1_Node000001_Node000002"><a xlink:title=" ">
<path fill="none" stroke="#63b8ff" d="M80.54,-228.62C111.41,-252.3 191.3,-313.59 229.53,-342.91"/>
<polygon fill="#63b8ff" stroke="#63b8ff" points="227.8,-346 237.87,-349.31 232.06,-340.45 227.8,-346"/>
</a>
</g>
</g>
<!-- Node5 -->
<g id="Node000005" class="node">
<title>Node5</title>
<g id="a_Node000005"><a xlink:href="classFToolbar.html#a2df7b59ad21cce1d2f0437add0d4c6a7" target="_top" xlink:title="에디터 확장 프레임워크에 툴바 메뉴와 버튼을 등록합니다.">
<polygon fill="white" stroke="#666666" points="319.5,-228.5 183.5,-228.5 183.5,-209.5 319.5,-209.5 319.5,-228.5"/>
<text text-anchor="middle" x="251.5" y="-216.5" font-family="Malgun Gothic" font-size="10.00">FToolbar::RegisterMenus</text>
</a>
</g>
</g>
<!-- Node1&#45;&gt;Node5 -->
<g id="edge4_Node000001_Node000005" class="edge">
<title>Node1&#45;&gt;Node5</title>
<g id="a_edge4_Node000001_Node000005"><a xlink:title=" ">
<path fill="none" stroke="#63b8ff" d="M134.14,-219C146.78,-219 160.12,-219 173.07,-219"/>
<polygon fill="#63b8ff" stroke="#63b8ff" points="173.36,-222.5 183.36,-219 173.36,-215.5 173.36,-222.5"/>
</a>
</g>
</g>
<!-- Node27 -->
<g id="Node000027" class="node">
<title>Node27</title>
<g id="a_Node000027"><a xlink:href="classFToolbarStyle.html#a25dc5cccc853a63c3a324728580732b4" target="_top" xlink:title="디스크상의 리소스가 변경된 경우 텍스처를 다시 로드합니다.">
<polygon fill="white" stroke="#666666" points="333,-191.5 170,-191.5 170,-172.5 333,-172.5 333,-191.5"/>
<text text-anchor="middle" x="251.5" y="-179.5" font-family="Malgun Gothic" font-size="10.00">FToolbarStyle::ReloadTextures</text>
</a>
</g>
</g>
<!-- Node1&#45;&gt;Node27 -->
<g id="edge29_Node000001_Node000027" class="edge">
<title>Node1&#45;&gt;Node27</title>
<g id="a_edge29_Node000001_Node000027"><a xlink:title=" ">
<path fill="none" stroke="#63b8ff" d="M115,-209.47C138.96,-204.61 168.29,-198.67 193.53,-193.55"/>
<polygon fill="#63b8ff" stroke="#63b8ff" points="194.24,-196.98 203.34,-191.56 192.85,-190.12 194.24,-196.98"/>
</a>
</g>
</g>
<!-- Node3 -->
<g id="Node000003" class="node">
<title>Node3</title>
<g id="a_Node000003"><a xlink:href="classFToolbarStyle.html#ac15dcbb37ede65f4c248c0f10b71893c" target="_top" xlink:title="기본 이미지와 아이콘 등록을 포함한 스타일 세트를 생성합니다.">
<polygon fill="white" stroke="#666666" points="524,-448.5 404,-448.5 404,-429.5 524,-429.5 524,-448.5"/>
<text text-anchor="middle" x="464" y="-436.5" font-family="Malgun Gothic" font-size="10.00">FToolbarStyle::Create</text>
</a>
</g>
</g>
<!-- Node2&#45;&gt;Node3 -->
<g id="edge2_Node000002_Node000003" class="edge">
<title>Node2&#45;&gt;Node3</title>
<g id="a_edge2_Node000002_Node000003"><a xlink:title=" ">
<path fill="none" stroke="#63b8ff" d="M273.77,-368.55C296.97,-378.82 335.3,-395.38 369,-408 386.19,-414.44 405.4,-420.9 421.96,-426.25"/>
<polygon fill="#63b8ff" stroke="#63b8ff" points="421.29,-429.71 431.88,-429.42 423.42,-423.04 421.29,-429.71"/>
</a>
</g>
</g>
<!-- Node4 -->
<g id="Node000004" class="node">
<title>Node4</title>
<g id="a_Node000004"><a xlink:href="FToolbarStyle_8cpp.html#a00bb33b9e673ad08782f7f01d6b75e7a" target="_top" xlink:title=" ">
<polygon fill="white" stroke="#666666" points="717.5,-458.5 650.5,-458.5 650.5,-439.5 717.5,-439.5 717.5,-458.5"/>
<text text-anchor="middle" x="684" y="-446.5" font-family="Malgun Gothic" font-size="10.00">Icon20x20</text>
</a>
</g>
</g>
<!-- Node3&#45;&gt;Node4 -->
<g id="edge3_Node000003_Node000004" class="edge">
<title>Node3&#45;&gt;Node4</title>
<g id="a_edge3_Node000003_Node000004"><a xlink:title=" ">
<path fill="none" stroke="#63b8ff" d="M524.28,-441.72C560.92,-443.4 607.08,-445.52 640.17,-447.04"/>
<polygon fill="#63b8ff" stroke="#63b8ff" points="640.27,-450.54 650.42,-447.51 640.59,-443.55 640.27,-450.54"/>
</a>
</g>
</g>
<!-- Node6 -->
<g id="Node000006" class="node">
<title>Node6</title>
<g id="a_Node000006"><a xlink:href="classFCommandFeature.html#ab546196898c4d540b74defb4fb9e2aed" target="_top" xlink:title="툴바용 명령 버튼 메뉴 위젯을 생성합니다.">
<polygon fill="white" stroke="#666666" points="544.5,-327 383.5,-327 383.5,-297 544.5,-297 544.5,-327"/>
<text text-anchor="start" x="391.5" y="-315" font-family="Malgun Gothic" font-size="10.00">FCommandFeature::Generate</text>
<text text-anchor="middle" x="464" y="-304" font-family="Malgun Gothic" font-size="10.00">CommandsMenu</text>
</a>
</g>
</g>
<!-- Node5&#45;&gt;Node6 -->
<g id="edge5_Node000005_Node000006" class="edge">
<title>Node5&#45;&gt;Node6</title>
<g id="a_edge5_Node000005_Node000006"><a xlink:title=" ">
<path fill="none" stroke="#63b8ff" d="M274.23,-228.6C308.39,-243.69 375.29,-273.25 419.57,-292.81"/>
<polygon fill="#63b8ff" stroke="#63b8ff" points="418.37,-296.11 428.93,-296.95 421.2,-289.71 418.37,-296.11"/>
</a>
</g>
</g>
<!-- Node12 -->
<g id="Node000012" class="node">
<title>Node12</title>
<g id="a_Node000012"><a xlink:href="classFFolderFeature.html#a0a8ef98284f119128a494f801928083a" target="_top" xlink:title=" ">
<polygon fill="white" stroke="#666666" points="534,-399 394,-399 394,-369 534,-369 534,-399"/>
<text text-anchor="start" x="402" y="-387" font-family="Malgun Gothic" font-size="10.00">FFolderFeature::Generate</text>
<text text-anchor="middle" x="464" y="-376" font-family="Malgun Gothic" font-size="10.00">FolderMenu</text>
</a>
</g>
</g>
<!-- Node5&#45;&gt;Node12 -->
<g id="edge11_Node000005_Node000012" class="edge">
<title>Node5&#45;&gt;Node12</title>
<g id="a_edge11_Node000005_Node000012"><a xlink:title=" ">
<path fill="none" stroke="#63b8ff" d="M260.4,-228.82C278.08,-250.34 322.9,-302.4 369,-336 383.98,-346.92 401.79,-356.7 417.87,-364.54"/>
<polygon fill="#63b8ff" stroke="#63b8ff" points="416.56,-367.8 427.1,-368.93 419.57,-361.47 416.56,-367.8"/>
</a>
</g>
</g>
<!-- Node15 -->
<g id="Node000015" class="node">
<title>Node15</title>
<g id="a_Node000015"><a xlink:href="classFLevelFeature.html#aff2925b502a52156786e925c1bd2af90" target="_top" xlink:title="레벨 선택 항목을 포함한 Slate 위젯을 구성합니다.">
<polygon fill="white" stroke="#666666" points="559,-65.5 369,-65.5 369,-46.5 559,-46.5 559,-65.5"/>
<text text-anchor="middle" x="464" y="-53.5" font-family="Malgun Gothic" font-size="10.00">FLevelFeature::GenerateLevelMenu</text>
</a>
</g>
</g>
<!-- Node5&#45;&gt;Node15 -->
<g id="edge14_Node000005_Node000015" class="edge">
<title>Node5&#45;&gt;Node15</title>
<g id="a_edge14_Node000005_Node000015"><a xlink:title=" ">
<path fill="none" stroke="#63b8ff" d="M319.59,-210.2C324.48,-207.76 329.04,-204.73 333,-201 375.37,-161.04 326.23,-114.53 369,-75 370.51,-73.6 372.1,-72.29 373.75,-71.07"/>
<polygon fill="#63b8ff" stroke="#63b8ff" points="375.83,-73.9 382.47,-65.65 372.13,-67.96 375.83,-73.9"/>
</a>
</g>
</g>
<!-- Node19 -->
<g id="Node000019" class="node">
<title>Node19</title>
<g id="a_Node000019"><a xlink:href="classFScreenshotFeature.html#a56fc11b5f6023d5492e26d9354807082" target="_top" xlink:title="스크린샷 옵션을 제공하는 메뉴 위젯을 생성합니다.">
<polygon fill="white" stroke="#666666" points="538.5,-258 389.5,-258 389.5,-228 538.5,-228 538.5,-258"/>
<text text-anchor="start" x="397.5" y="-246" font-family="Malgun Gothic" font-size="10.00">FScreenshotFeature</text>
<text text-anchor="middle" x="464" y="-235" font-family="Malgun Gothic" font-size="10.00">::GenerateScreenshotMenu</text>
</a>
</g>
</g>
<!-- Node5&#45;&gt;Node19 -->
<g id="edge18_Node000005_Node000019" class="edge">
<title>Node5&#45;&gt;Node19</title>
<g id="a_edge18_Node000005_Node000019"><a xlink:title=" ">
<path fill="none" stroke="#63b8ff" d="M319.68,-226.66C338.54,-228.81 359.27,-231.17 378.97,-233.42"/>
<polygon fill="#63b8ff" stroke="#63b8ff" points="378.83,-236.93 389.16,-234.58 379.63,-229.97 378.83,-236.93"/>
</a>
</g>
</g>
<!-- Node22 -->
<g id="Node000022" class="node">
<title>Node22</title>
<g id="a_Node000022"><a xlink:href="classFLevelFeature.html#a536602356f4e9dcdfcfbe85094782bdb" target="_top" xlink:title="선택된 맵 에셋을 에디터에서 엽니다.">
<polygon fill="white" stroke="#666666" points="537.5,-210 390.5,-210 390.5,-180 537.5,-180 537.5,-210"/>
<text text-anchor="start" x="398.5" y="-198" font-family="Malgun Gothic" font-size="10.00">FLevelFeature::OnSelected</text>
<text text-anchor="middle" x="464" y="-187" font-family="Malgun Gothic" font-size="10.00">Map_Open</text>
</a>
</g>
</g>
<!-- Node5&#45;&gt;Node22 -->
<g id="edge22_Node000005_Node000022" class="edge">
<title>Node5&#45;&gt;Node22</title>
<g id="a_edge22_Node000005_Node000022"><a xlink:title=" ">
<path fill="none" stroke="#63b8ff" d="M319.68,-211.34C338.93,-209.15 360.14,-206.73 380.21,-204.44"/>
<polygon fill="#63b8ff" stroke="#63b8ff" points="380.73,-207.9 390.27,-203.29 379.94,-200.95 380.73,-207.9"/>
</a>
</g>
</g>
<!-- Node25 -->
<g id="Node000025" class="node">
<title>Node25</title>
<g id="a_Node000025"><a xlink:href="classFLevelFeature.html#a31e8a2482aafbc4082a996e3a5a7a0d9" target="_top" xlink:title="선택된 맵으로 새로운 뷰포트에서 PIE를 실행합니다.">
<polygon fill="white" stroke="#666666" points="537.5,-114 390.5,-114 390.5,-84 537.5,-84 537.5,-114"/>
<text text-anchor="start" x="398.5" y="-102" font-family="Malgun Gothic" font-size="10.00">FLevelFeature::OnSelected</text>
<text text-anchor="middle" x="464" y="-91" font-family="Malgun Gothic" font-size="10.00">Map_PlayInEditor</text>
</a>
</g>
</g>
<!-- Node5&#45;&gt;Node25 -->
<g id="edge25_Node000005_Node000025" class="edge">
<title>Node5&#45;&gt;Node25</title>
<g id="a_edge25_Node000005_Node000025"><a xlink:title=" ">
<path fill="none" stroke="#63b8ff" d="M319.39,-209.33C324.26,-207.07 328.88,-204.33 333,-201 362.71,-177.02 339.66,-147.43 369,-123 372.77,-119.87 376.89,-117.13 381.24,-114.75"/>
<polygon fill="#63b8ff" stroke="#63b8ff" points="382.95,-117.82 390.45,-110.34 379.92,-111.5 382.95,-117.82"/>
</a>
</g>
</g>
<!-- Node26 -->
<g id="Node000026" class="node">
<title>Node26</title>
<g id="a_Node000026"><a xlink:href="classFLevelFeature.html#ad659ce46cd4d37948b219e9aa104c2b3" target="_top" xlink:title="선택된 맵으로 현재 뷰포트에서 PIE를 시작합니다.">
<polygon fill="white" stroke="#666666" points="538.5,-162 389.5,-162 389.5,-132 538.5,-132 538.5,-162"/>
<text text-anchor="start" x="397.5" y="-150" font-family="Malgun Gothic" font-size="10.00">FLevelFeature::OnSelected</text>
<text text-anchor="middle" x="464" y="-139" font-family="Malgun Gothic" font-size="10.00">Map_PlaySelectedViewport</text>
</a>
</g>
</g>
<!-- Node5&#45;&gt;Node26 -->
<g id="edge27_Node000005_Node000026" class="edge">
<title>Node5&#45;&gt;Node26</title>
<g id="a_edge27_Node000005_Node000026"><a xlink:title=" ">
<path fill="none" stroke="#63b8ff" d="M310.81,-209.44C318.47,-207.19 326.06,-204.41 333,-201 351.69,-191.8 350.45,-180.48 369,-171 372.8,-169.06 376.76,-167.27 380.82,-165.62"/>
<polygon fill="#63b8ff" stroke="#63b8ff" points="382.31,-168.8 390.45,-162.01 379.86,-162.24 382.31,-168.8"/>
</a>
</g>
</g>
<!-- Node7 -->
<g id="Node000007" class="node">
<title>Node7</title>
<g id="a_Node000007"><a xlink:href="classFCommon.html#a7f9a33df4cca4a9488e492d0043c284e" target="_top" xlink:title="전달된 이름으로 애플리케이션 스타일에서 Slate 아이콘을 조회합니다.">
<polygon fill="white" stroke="#666666" points="739,-384.5 629,-384.5 629,-365.5 739,-365.5 739,-384.5"/>
<text text-anchor="middle" x="684" y="-372.5" font-family="Malgun Gothic" font-size="10.00">FCommon::GetIcon</text>
</a>
</g>
</g>
<!-- Node6&#45;&gt;Node7 -->
<g id="edge6_Node000006_Node000007" class="edge">
<title>Node6&#45;&gt;Node7</title>
<g id="a_edge6_Node000006_Node000007"><a xlink:title=" ">
<path fill="none" stroke="#63b8ff" d="M505.62,-327.07C531.07,-336.19 564.68,-347.63 595,-356 604.28,-358.56 614.19,-360.99 623.89,-363.21"/>
<polygon fill="#63b8ff" stroke="#63b8ff" points="623.36,-366.67 633.88,-365.43 624.88,-359.84 623.36,-366.67"/>
</a>
</g>
</g>
<!-- Node9 -->
<g id="Node000009" class="node">
<title>Node9</title>
<g id="a_Node000009"><a xlink:href="classFCommandFeature.html#a08ab22cf9f7960c9b8f73c1f80eb981e" target="_top" xlink:title="지정된 툴바 버튼이 현재 토글되어 있는지 반환합니다.">
<polygon fill="white" stroke="#666666" points="762,-299 606,-299 606,-269 762,-269 762,-299"/>
<text text-anchor="start" x="614" y="-287" font-family="Malgun Gothic" font-size="10.00">FCommandFeature::IsButton</text>
<text text-anchor="middle" x="684" y="-276" font-family="Malgun Gothic" font-size="10.00">Toggled</text>
</a>
</g>
</g>
<!-- Node6&#45;&gt;Node9 -->
<g id="edge8_Node000006_Node000009" class="edge">
<title>Node6&#45;&gt;Node9</title>
<g id="a_edge8_Node000006_Node000009"><a xlink:title=" ">
<path fill="none" stroke="#63b8ff" d="M544.63,-301.77C561.15,-299.65 578.64,-297.4 595.42,-295.25"/>
<polygon fill="#63b8ff" stroke="#63b8ff" points="596.3,-298.66 605.77,-293.92 595.41,-291.72 596.3,-298.66"/>
</a>
</g>
</g>
<!-- Node10 -->
<g id="Node000010" class="node">
<title>Node10</title>
<g id="a_Node000010"><a xlink:href="classFCommandFeature.html#a3ff8a0398db30ce422496f2281dd3b60" target="_top" xlink:title="전달된 버튼 ID에 매핑된 명령을 실행합니다.">
<polygon fill="white" stroke="#666666" points="767.5,-347 600.5,-347 600.5,-317 767.5,-317 767.5,-347"/>
<text text-anchor="start" x="608.5" y="-335" font-family="Malgun Gothic" font-size="10.00">FCommandFeature::OnExecute</text>
<text text-anchor="middle" x="684" y="-324" font-family="Malgun Gothic" font-size="10.00">ButtonCommand</text>
</a>
</g>
</g>
<!-- Node6&#45;&gt;Node10 -->
<g id="edge9_Node000006_Node000010" class="edge">
<title>Node6&#45;&gt;Node10</title>
<g id="a_edge9_Node000006_Node000010"><a xlink:title=" ">
<path fill="none" stroke="#63b8ff" d="M544.63,-319.31C559.35,-320.66 574.85,-322.08 589.93,-323.46"/>
<polygon fill="#63b8ff" stroke="#63b8ff" points="590.01,-326.98 600.29,-324.41 590.65,-320.01 590.01,-326.98"/>
</a>
</g>
</g>
<!-- Node8 -->
<g id="Node000008" class="node">
<title>Node8</title>
<g id="a_Node000008"><a xlink:href="classFToolbarStyle.html#a3437f8f3e4dcd2c7b68de7b28fc2a95a" target="_top" xlink:title="Slate 스타일 세트를 참조할 때 사용할 이름을 반환합니다.">
<polygon fill="white" stroke="#666666" points="984,-384.5 809,-384.5 809,-365.5 984,-365.5 984,-384.5"/>
<text text-anchor="middle" x="896.5" y="-372.5" font-family="Malgun Gothic" font-size="10.00">FToolbarStyle::GetStyleSetName</text>
</a>
</g>
</g>
<!-- Node7&#45;&gt;Node8 -->
<g id="edge7_Node000007_Node000008" class="edge">
<title>Node7&#45;&gt;Node8</title>
<g id="a_edge7_Node000007_Node000008"><a xlink:title=" ">
<path fill="none" stroke="#63b8ff" d="M739.21,-375C757.42,-375 778.33,-375 798.8,-375"/>
<polygon fill="#63b8ff" stroke="#63b8ff" points="798.8,-378.5 808.8,-375 798.8,-371.5 798.8,-378.5"/>
</a>
</g>
</g>
<!-- Node11 -->
<g id="Node000011" class="node">
<title>Node11</title>
<g id="a_Node000011"><a xlink:href="classFCommon.html#ac247ef6e336abf6ca53b140d93ea07f9" target="_top" xlink:title="툴바 액션이 대상으로 삼는 활성 에디터 월드를 반환합니다.">
<polygon fill="white" stroke="#666666" points="972,-299 821,-299 821,-269 972,-269 972,-299"/>
<text text-anchor="start" x="829" y="-287" font-family="Malgun Gothic" font-size="10.00">FCommon::GetActiveTarget</text>
<text text-anchor="middle" x="896.5" y="-276" font-family="Malgun Gothic" font-size="10.00">World</text>
</a>
</g>
</g>
<!-- Node10&#45;&gt;Node11 -->
<g id="edge10_Node000010_Node000011" class="edge">
<title>Node10&#45;&gt;Node11</title>
<g id="a_edge10_Node000010_Node000011"><a xlink:title=" ">
<path fill="none" stroke="#63b8ff" d="M751.03,-316.94C772.87,-311.96 797.35,-306.38 819.86,-301.25"/>
<polygon fill="#63b8ff" stroke="#63b8ff" points="820.74,-304.64 829.71,-299 819.18,-297.81 820.74,-304.64"/>
</a>
</g>
</g>
<!-- Node13 -->
<g id="Node000013" class="node">
<title>Node13</title>
<g id="a_Node000013"><a xlink:href="classFFolderFeature.html#a703d4416dba2e4573735c8215f679e07" target="_top" xlink:title=" ">
<polygon fill="white" stroke="#666666" points="759.5,-421.5 608.5,-421.5 608.5,-402.5 759.5,-402.5 759.5,-421.5"/>
<text text-anchor="middle" x="684" y="-409.5" font-family="Malgun Gothic" font-size="10.00">FFolderFeature::OpenFolder</text>
</a>
</g>
</g>
<!-- Node12&#45;&gt;Node13 -->
<g id="edge12_Node000012_Node000013" class="edge">
<title>Node12&#45;&gt;Node13</title>
<g id="a_edge12_Node000012_Node000013"><a xlink:title=" ">
<path fill="none" stroke="#63b8ff" d="M534.28,-392.9C554.83,-395.54 577.57,-398.46 598.96,-401.21"/>
<polygon fill="#63b8ff" stroke="#63b8ff" points="598.64,-404.69 609.01,-402.5 599.53,-397.75 598.64,-404.69"/>
</a>
</g>
</g>
<!-- Node14 -->
<g id="Node000014" class="node">
<title>Node14</title>
<g id="a_Node000014"><a xlink:href="FolderFeature_8cpp.html#a3fc863edd05ee6943e920f7984e2805f" target="_top" xlink:title=" ">
<polygon fill="white" stroke="#666666" points="961.5,-421.5 831.5,-421.5 831.5,-402.5 961.5,-402.5 961.5,-421.5"/>
<text text-anchor="middle" x="896.5" y="-409.5" font-family="Malgun Gothic" font-size="10.00">ResolveProjectRelative</text>
</a>
</g>
</g>
<!-- Node13&#45;&gt;Node14 -->
<g id="edge13_Node000013_Node000014" class="edge">
<title>Node13&#45;&gt;Node14</title>
<g id="a_edge13_Node000013_Node000014"><a xlink:title=" ">
<path fill="none" stroke="#63b8ff" d="M759.51,-412C779.45,-412 801.01,-412 820.95,-412"/>
<polygon fill="#63b8ff" stroke="#63b8ff" points="821.22,-415.5 831.22,-412 821.22,-408.5 821.22,-415.5"/>
</a>
</g>
</g>
<!-- Node16 -->
<g id="Node000016" class="node">
<title>Node16</title>
<g id="a_Node000016"><a xlink:href="classUToolbarSettings.html#a839017a8f47a62d4127ad8527d2498ed" target="_top" xlink:title="레벨 선택 헬퍼가 사용할 검색 루트 경로를 수집합니다.">
<polygon fill="white" stroke="#666666" points="761.5,-30 606.5,-30 606.5,0 761.5,0 761.5,-30"/>
<text text-anchor="start" x="614.5" y="-18" font-family="Malgun Gothic" font-size="10.00">UToolbarSettings::GetSearch</text>
<text text-anchor="middle" x="684" y="-7" font-family="Malgun Gothic" font-size="10.00">Roots</text>
</a>
</g>
</g>
<!-- Node15&#45;&gt;Node16 -->
<g id="edge15_Node000015_Node000016" class="edge">
<title>Node15&#45;&gt;Node16</title>
<g id="a_edge15_Node000015_Node000016"><a xlink:title=" ">
<path fill="none" stroke="#63b8ff" d="M515.56,-46.49C539.53,-41.98 568.86,-36.47 596.24,-31.32"/>
<polygon fill="#63b8ff" stroke="#63b8ff" points="597.04,-34.73 606.22,-29.44 595.74,-27.85 597.04,-34.73"/>
</a>
</g>
</g>
<!-- Node18 -->
<g id="Node000018" class="node">
<title>Node18</title>
<g id="a_Node000018"><a xlink:href="classFLevelFeature.html#ac20da5828b1adc7686fbd96ba8abd1c8" target="_top" xlink:title="선택된 맵 패키지 이름을 저장합니다.">
<polygon fill="white" stroke="#666666" points="768,-67.5 600,-67.5 600,-48.5 768,-48.5 768,-67.5"/>
<text text-anchor="middle" x="684" y="-55.5" font-family="Malgun Gothic" font-size="10.00">FLevelFeature::OnSelectedMap</text>
</a>
</g>
</g>
<!-- Node15&#45;&gt;Node18 -->
<g id="edge17_Node000015_Node000018" class="edge">
<title>Node15&#45;&gt;Node18</title>
<g id="a_edge17_Node000015_Node000018"><a xlink:title=" ">
<path fill="none" stroke="#63b8ff" d="M559.03,-56.86C569.23,-56.96 579.61,-57.05 589.8,-57.14"/>
<polygon fill="#63b8ff" stroke="#63b8ff" points="589.88,-60.65 599.91,-57.24 589.94,-53.65 589.88,-60.65"/>
</a>
</g>
</g>
<!-- Node17 -->
<g id="Node000017" class="node">
<title>Node17</title>
<g id="a_Node000017"><a xlink:href="UToolbarSettings_8cpp.html#a93020a74b1d3099ceb4abe28cf3188d2" target="_top" xlink:title="사용자 입력 디렉터리 문자열을 콘텐츠 루트 형식으로 정규화합니다.">
<polygon fill="white" stroke="#666666" points="951.5,-24.5 841.5,-24.5 841.5,-5.5 951.5,-5.5 951.5,-24.5"/>
<text text-anchor="middle" x="896.5" y="-12.5" font-family="Malgun Gothic" font-size="10.00">NormalizeUserPath</text>
</a>
</g>
</g>
<!-- Node16&#45;&gt;Node17 -->
<g id="edge16_Node000016_Node000017" class="edge">
<title>Node16&#45;&gt;Node17</title>
<g id="a_edge16_Node000016_Node000017"><a xlink:title=" ">
<path fill="none" stroke="#63b8ff" d="M761.59,-15C784.42,-15 809.21,-15 831.17,-15"/>
<polygon fill="#63b8ff" stroke="#63b8ff" points="831.38,-18.5 841.38,-15 831.38,-11.5 831.38,-18.5"/>
</a>
</g>
</g>
<!-- Node20 -->
<g id="Node000020" class="node">
<title>Node20</title>
<g id="a_Node000020"><a xlink:href="classFScreenshotFeature.html#aaab75697de4685c906b26140e54301b6" target="_top" xlink:title="지정된 배율로 활성 뷰포트에 고해상도 캡처를 요청합니다.">
<polygon fill="white" stroke="#666666" points="751.5,-251 616.5,-251 616.5,-221 751.5,-221 751.5,-251"/>
<text text-anchor="start" x="624.5" y="-239" font-family="Malgun Gothic" font-size="10.00">FScreenshotFeature</text>
<text text-anchor="middle" x="684" y="-228" font-family="Malgun Gothic" font-size="10.00">::CaptureActiveViewport</text>
</a>
</g>
</g>
<!-- Node19&#45;&gt;Node20 -->
<g id="edge19_Node000019_Node000020" class="edge">
<title>Node19&#45;&gt;Node20</title>
<g id="a_edge19_Node000019_Node000020"><a xlink:title=" ">
<path fill="none" stroke="#63b8ff" d="M538.5,-240.64C560.27,-239.94 584.16,-239.17 606.13,-238.47"/>
<polygon fill="#63b8ff" stroke="#63b8ff" points="606.53,-241.96 616.42,-238.14 606.31,-234.96 606.53,-241.96"/>
</a>
</g>
</g>
<!-- Node21 -->
<g id="Node000021" class="node">
<title>Node21</title>
<g id="a_Node000021"><a xlink:href="classFScreenshotFeature.html#af01017cd01130c08bf1c63309ea1e2a6" target="_top" xlink:title="촬영된 스크린샷이 저장된 디렉터리를 엽니다.">
<polygon fill="white" stroke="#666666" points="749.5,-203 618.5,-203 618.5,-173 749.5,-173 749.5,-203"/>
<text text-anchor="start" x="626.5" y="-191" font-family="Malgun Gothic" font-size="10.00">FScreenshotFeature</text>
<text text-anchor="middle" x="684" y="-180" font-family="Malgun Gothic" font-size="10.00">::OnOpenScreenShotDir</text>
</a>
</g>
</g>
<!-- Node19&#45;&gt;Node21 -->
<g id="edge21_Node000019_Node000021" class="edge">
<title>Node19&#45;&gt;Node21</title>
<g id="a_edge21_Node000019_Node000021"><a xlink:title=" ">
<path fill="none" stroke="#63b8ff" d="M524.57,-227.97C552.09,-221.03 584.93,-212.74 613.57,-205.52"/>
<polygon fill="#63b8ff" stroke="#63b8ff" points="614.66,-208.85 623.5,-203.01 612.95,-202.06 614.66,-208.85"/>
</a>
</g>
</g>
<!-- Node20&#45;&gt;Node11 -->
<g id="edge20_Node000020_Node000011" class="edge">
<title>Node20&#45;&gt;Node11</title>
<g id="a_edge20_Node000020_Node000011"><a xlink:title=" ">
<path fill="none" stroke="#63b8ff" d="M751.03,-251.06C772.87,-256.04 797.35,-261.62 819.86,-266.75"/>
<polygon fill="#63b8ff" stroke="#63b8ff" points="819.18,-270.19 829.71,-269 820.74,-263.36 819.18,-270.19"/>
</a>
</g>
</g>
<!-- Node23 -->
<g id="Node000023" class="node">
<title>Node23</title>
<g id="a_Node000023"><a xlink:href="classFLevelFeature.html#a63493bc16dc28b58911d3b03c7833aee" target="_top" xlink:title="현재 선택된 맵 패키지를 에디터에 로드합니다.">
<polygon fill="white" stroke="#666666" points="773,-154.5 595,-154.5 595,-135.5 773,-135.5 773,-154.5"/>
<text text-anchor="middle" x="684" y="-142.5" font-family="Malgun Gothic" font-size="10.00">FLevelFeature::LoadSelectedMap</text>
</a>
</g>
</g>
<!-- Node22&#45;&gt;Node23 -->
<g id="edge23_Node000022_Node000023" class="edge">
<title>Node22&#45;&gt;Node23</title>
<g id="a_edge23_Node000022_Node000023"><a xlink:title=" ">
<path fill="none" stroke="#63b8ff" d="M526.77,-179.99C548.33,-174.82 572.71,-169.06 595,-164 605.62,-161.59 616.98,-159.08 627.88,-156.71"/>
<polygon fill="#63b8ff" stroke="#63b8ff" points="628.71,-160.11 637.74,-154.58 627.22,-153.27 628.71,-160.11"/>
</a>
</g>
</g>
<!-- Node24 -->
<g id="Node000024" class="node">
<title>Node24</title>
<g id="a_Node000024"><a xlink:href="classFLevelFeature.html#aad2ad775628a12e462c1e85e90060415" target="_top" xlink:title="선택된 맵 에셋이 여전히 존재하는지 검증합니다.">
<polygon fill="white" stroke="#666666" points="971,-139 822,-139 822,-109 971,-109 971,-139"/>
<text text-anchor="start" x="830" y="-127" font-family="Malgun Gothic" font-size="10.00">FLevelFeature::EnsureValid</text>
<text text-anchor="middle" x="896.5" y="-116" font-family="Malgun Gothic" font-size="10.00">SelectedMap</text>
</a>
</g>
</g>
<!-- Node23&#45;&gt;Node24 -->
<g id="edge24_Node000023_Node000024" class="edge">
<title>Node23&#45;&gt;Node24</title>
<g id="a_edge24_Node000023_Node000024"><a xlink:title=" ">
<path fill="none" stroke="#63b8ff" d="M773.05,-136.22C785.85,-134.94 799,-133.63 811.72,-132.36"/>
<polygon fill="#63b8ff" stroke="#63b8ff" points="812.2,-135.83 821.8,-131.35 811.51,-128.86 812.2,-135.83"/>
</a>
</g>
</g>
<!-- Node25&#45;&gt;Node24 -->
<g id="edge26_Node000025_Node000024" class="edge">
<title>Node25&#45;&gt;Node24</title>
<g id="a_edge26_Node000025_Node000024"><a xlink:title=" ">
<path fill="none" stroke="#63b8ff" d="M537.54,-103.21C613.38,-107.62 732.22,-114.52 811.93,-119.15"/>
<polygon fill="#63b8ff" stroke="#63b8ff" points="811.75,-122.64 821.94,-119.73 812.16,-115.65 811.75,-122.64"/>
</a>
</g>
</g>
<!-- Node26&#45;&gt;Node23 -->
<g id="edge28_Node000026_Node000023" class="edge">
<title>Node26&#45;&gt;Node23</title>
<g id="a_edge28_Node000026_Node000023"><a xlink:title=" ">
<path fill="none" stroke="#63b8ff" d="M538.5,-146.33C553.31,-146.19 569.09,-146.05 584.59,-145.9"/>
<polygon fill="#63b8ff" stroke="#63b8ff" points="584.75,-149.4 594.72,-145.81 584.68,-142.4 584.75,-149.4"/>
</a>
</g>
</g>
</g>
</svg>
