<?xml version="1.0" encoding="UTF-8" standalone="no"?>
<!DOCTYPE svg PUBLIC "-//W3C//DTD SVG 1.1//EN"
 "http://www.w3.org/Graphics/SVG/1.1/DTD/svg11.dtd">
<!-- Generated by graphviz version 2.43.0 (0)
 -->
<!-- Title: FScreenshotFeature::CaptureActiveViewport Pages: 1 -->
<svg width="855pt" height="182pt"
 viewBox="0.00 0.00 855.00 182.00" xmlns="http://www.w3.org/2000/svg" xmlns:xlink="http://www.w3.org/1999/xlink">
<g id="graph0" class="graph" transform="scale(1 1) rotate(0) translate(4 178)">
<title>FScreenshotFeature::CaptureActiveViewport</title>
<!-- Node1 -->
<g id="Node000001" class="node">
<title>Node1</title>
<g id="a_Node000001"><a xlink:title="지정된 배율로 활성 뷰포트에 고해상도 캡처를 요청합니다.">
<polygon fill="#999999" stroke="#666666" points="847,-102 712,-102 712,-72 847,-72 847,-102"/>
<text text-anchor="start" x="720" y="-90" font-family="Malgun Gothic" font-size="10.00">FScreenshotFeature</text>
<text text-anchor="middle" x="779.5" y="-79" font-family="Malgun Gothic" font-size="10.00">::CaptureActiveViewport</text>
</a>
</g>
</g>
<!-- Node2 -->
<g id="Node000002" class="node">
<title>Node2</title>
<g id="a_Node000002"><a xlink:href="classFScreenshotFeature.html#a31ee01aa337c4b724c6ec8a550f99c05" target="_top" xlink:title="고해상도 스크린샷(4x 배율)을 촬영합니다.">
<polygon fill="white" stroke="#666666" points="676,-174 527,-174 527,-144 676,-144 676,-174"/>
<text text-anchor="start" x="535" y="-162" font-family="Malgun Gothic" font-size="10.00">FScreenshotFeature</text>
<text text-anchor="middle" x="601.5" y="-151" font-family="Malgun Gothic" font-size="10.00">::OnCaptureHighResolution</text>
</a>
</g>
</g>
<!-- Node1&#45;&gt;Node2 -->
<g id="edge1_Node000001_Node000002" class="edge">
<title>Node1&#45;&gt;Node2</title>
<g id="a_edge1_Node000001_Node000002"><a xlink:title=" ">
<path fill="none" stroke="#63b8ff" d="M739.66,-106.56C720.7,-115.75 697.41,-126.53 676,-135 668.14,-138.11 659.69,-141.15 651.43,-143.95"/>
<polygon fill="#63b8ff" stroke="#63b8ff" points="741.43,-109.59 748.87,-102.05 738.35,-103.3 741.43,-109.59"/>
</a>
</g>
</g>
<!-- Node6 -->
<g id="Node000006" class="node">
<title>Node6</title>
<g id="a_Node000006"><a xlink:href="classFScreenshotFeature.html#a7189e1c261246eb0d4f1a2af11ab89bd" target="_top" xlink:title="빠른 참고용 스크린샷(1x 배율)을 촬영합니다.">
<polygon fill="white" stroke="#666666" points="672,-126 531,-126 531,-96 672,-96 672,-126"/>
<text text-anchor="start" x="539" y="-114" font-family="Malgun Gothic" font-size="10.00">FScreenshotFeature</text>
<text text-anchor="middle" x="601.5" y="-103" font-family="Malgun Gothic" font-size="10.00">::OnCaptureQuickPreview</text>
</a>
</g>
</g>
<!-- Node1&#45;&gt;Node6 -->
<g id="edge5_Node000001_Node000006" class="edge">
<title>Node1&#45;&gt;Node6</title>
<g id="a_edge5_Node000001_Node000006"><a xlink:title=" ">
<path fill="none" stroke="#63b8ff" d="M701.76,-97.46C691.88,-98.81 681.82,-100.18 672.06,-101.51"/>
<polygon fill="#63b8ff" stroke="#63b8ff" points="702.53,-100.89 711.96,-96.07 701.58,-93.96 702.53,-100.89"/>
</a>
</g>
</g>
<!-- Node7 -->
<g id="Node000007" class="node">
<title>Node7</title>
<g id="a_Node000007"><a xlink:href="classFScreenshotFeature.html#afc1b23933c9d67077c2e726610688605" target="_top" xlink:title="보통 품질 스크린샷(2x 배율)을 촬영합니다.">
<polygon fill="white" stroke="#666666" points="660.5,-78 542.5,-78 542.5,-48 660.5,-48 660.5,-78"/>
<text text-anchor="start" x="550.5" y="-66" font-family="Malgun Gothic" font-size="10.00">FScreenshotFeature</text>
<text text-anchor="middle" x="601.5" y="-55" font-family="Malgun Gothic" font-size="10.00">::OnCaptureStandard</text>
</a>
</g>
</g>
<!-- Node1&#45;&gt;Node7 -->
<g id="edge7_Node000001_Node000007" class="edge">
<title>Node1&#45;&gt;Node7</title>
<g id="a_edge7_Node000001_Node000007"><a xlink:title=" ">
<path fill="none" stroke="#63b8ff" d="M701.99,-76.57C688.17,-74.68 673.96,-72.74 660.77,-70.95"/>
<polygon fill="#63b8ff" stroke="#63b8ff" points="701.58,-80.04 711.96,-77.93 702.53,-73.11 701.58,-80.04"/>
</a>
</g>
</g>
<!-- Node8 -->
<g id="Node000008" class="node">
<title>Node8</title>
<g id="a_Node000008"><a xlink:href="classFScreenshotFeature.html#a756ceabcb0e485733fa095066f2970fa" target="_top" xlink:title="울트라 고해상도 스크린샷(8x 배율)을 촬영합니다.">
<polygon fill="white" stroke="#666666" points="658,-30 545,-30 545,0 658,0 658,-30"/>
<text text-anchor="start" x="553" y="-18" font-family="Malgun Gothic" font-size="10.00">FScreenshotFeature</text>
<text text-anchor="middle" x="601.5" y="-7" font-family="Malgun Gothic" font-size="10.00">::OnCaptureUltra</text>
</a>
</g>
</g>
<!-- Node1&#45;&gt;Node8 -->
<g id="edge9_Node000001_Node000008" class="edge">
<title>Node1&#45;&gt;Node8</title>
<g id="a_edge9_Node000001_Node000008"><a xlink:title=" ">
<path fill="none" stroke="#63b8ff" d="M739.66,-67.44C720.7,-58.25 697.41,-47.47 676,-39 668.14,-35.89 659.69,-32.85 651.43,-30.05"/>
<polygon fill="#63b8ff" stroke="#63b8ff" points="738.35,-70.7 748.87,-71.95 741.43,-64.41 738.35,-70.7"/>
</a>
</g>
</g>
<!-- Node3 -->
<g id="Node000003" class="node">
<title>Node3</title>
<g id="a_Node000003"><a xlink:href="classFScreenshotFeature.html#a56fc11b5f6023d5492e26d9354807082" target="_top" xlink:title="스크린샷 옵션을 제공하는 메뉴 위젯을 생성합니다.">
<polygon fill="white" stroke="#666666" points="491,-102 342,-102 342,-72 491,-72 491,-102"/>
<text text-anchor="start" x="350" y="-90" font-family="Malgun Gothic" font-size="10.00">FScreenshotFeature</text>
<text text-anchor="middle" x="416.5" y="-79" font-family="Malgun Gothic" font-size="10.00">::GenerateScreenshotMenu</text>
</a>
</g>
</g>
<!-- Node2&#45;&gt;Node3 -->
<g id="edge2_Node000002_Node000003" class="edge">
<title>Node2&#45;&gt;Node3</title>
<g id="a_edge2_Node000002_Node000003"><a xlink:title=" ">
<path fill="none" stroke="#63b8ff" d="M542.54,-140.66C537.26,-138.81 532.02,-136.91 527,-135 500.62,-124.94 471.37,-112.02 449.74,-102.12"/>
<polygon fill="#63b8ff" stroke="#63b8ff" points="541.44,-143.98 552.03,-143.92 543.71,-137.36 541.44,-143.98"/>
</a>
</g>
</g>
<!-- Node4 -->
<g id="Node000004" class="node">
<title>Node4</title>
<g id="a_Node000004"><a xlink:href="classFToolbar.html#a2df7b59ad21cce1d2f0437add0d4c6a7" target="_top" xlink:title="에디터 확장 프레임워크에 툴바 메뉴와 버튼을 등록합니다.">
<polygon fill="white" stroke="#666666" points="306,-96.5 170,-96.5 170,-77.5 306,-77.5 306,-96.5"/>
<text text-anchor="middle" x="238" y="-84.5" font-family="Malgun Gothic" font-size="10.00">FToolbar::RegisterMenus</text>
</a>
</g>
</g>
<!-- Node3&#45;&gt;Node4 -->
<g id="edge3_Node000003_Node000004" class="edge">
<title>Node3&#45;&gt;Node4</title>
<g id="a_edge3_Node000003_Node000004"><a xlink:title=" ">
<path fill="none" stroke="#63b8ff" d="M331.88,-87C323.29,-87 314.64,-87 306.25,-87"/>
<polygon fill="#63b8ff" stroke="#63b8ff" points="331.93,-90.5 341.93,-87 331.93,-83.5 331.93,-90.5"/>
</a>
</g>
</g>
<!-- Node5 -->
<g id="Node000005" class="node">
<title>Node5</title>
<g id="a_Node000005"><a xlink:href="classFToolbar.html#a29b321398a59346e3df4870366f89245" target="_top" xlink:title="툴바 기능을 초기화하고 Slate 메뉴 확장을 등록합니다.">
<polygon fill="white" stroke="#666666" points="134,-96.5 0,-96.5 0,-77.5 134,-77.5 134,-96.5"/>
<text text-anchor="middle" x="67" y="-84.5" font-family="Malgun Gothic" font-size="10.00">FToolbar::StartupModule</text>
</a>
</g>
</g>
<!-- Node4&#45;&gt;Node5 -->
<g id="edge4_Node000004_Node000005" class="edge">
<title>Node4&#45;&gt;Node5</title>
<g id="a_edge4_Node000004_Node000005"><a xlink:title=" ">
<path fill="none" stroke="#63b8ff" d="M159.49,-87C151.05,-87 142.51,-87 134.22,-87"/>
<polygon fill="#63b8ff" stroke="#63b8ff" points="159.72,-90.5 169.72,-87 159.72,-83.5 159.72,-90.5"/>
</a>
</g>
</g>
<!-- Node6&#45;&gt;Node3 -->
<g id="edge6_Node000006_Node000003" class="edge">
<title>Node6&#45;&gt;Node3</title>
<g id="a_edge6_Node000006_Node000003"><a xlink:title=" ">
<path fill="none" stroke="#63b8ff" d="M520.69,-100.53C510.91,-99.25 500.96,-97.95 491.27,-96.68"/>
<polygon fill="#63b8ff" stroke="#63b8ff" points="520.42,-104.03 530.79,-101.86 521.33,-97.09 520.42,-104.03"/>
</a>
</g>
</g>
<!-- Node7&#45;&gt;Node3 -->
<g id="edge8_Node000007_Node000003" class="edge">
<title>Node7&#45;&gt;Node3</title>
<g id="a_edge8_Node000007_Node000003"><a xlink:title=" ">
<path fill="none" stroke="#63b8ff" d="M532.28,-71.95C518.91,-73.7 504.83,-75.55 491.29,-77.32"/>
<polygon fill="#63b8ff" stroke="#63b8ff" points="532.89,-75.4 542.35,-70.63 531.98,-68.46 532.89,-75.4"/>
</a>
</g>
</g>
<!-- Node8&#45;&gt;Node3 -->
<g id="edge10_Node000008_Node000003" class="edge">
<title>Node8&#45;&gt;Node3</title>
<g id="a_edge10_Node000008_Node000003"><a xlink:title=" ">
<path fill="none" stroke="#63b8ff" d="M542.54,-33.34C537.26,-35.19 532.02,-37.09 527,-39 500.62,-49.06 471.37,-61.98 449.74,-71.88"/>
<polygon fill="#63b8ff" stroke="#63b8ff" points="543.71,-36.64 552.03,-30.08 541.44,-30.02 543.71,-36.64"/>
</a>
</g>
</g>
</g>
</svg>
