<?xml version="1.0" encoding="UTF-8" standalone="no"?>
<!DOCTYPE svg PUBLIC "-//W3C//DTD SVG 1.1//EN"
 "http://www.w3.org/Graphics/SVG/1.1/DTD/svg11.dtd">
<!-- Generated by graphviz version 2.43.0 (0)
 -->
<!-- Title: FNetworkTestFeature::ExecuteApiRequest Pages: 1 -->
<svg width="661pt" height="38pt"
 viewBox="0.00 0.00 661.00 38.00" xmlns="http://www.w3.org/2000/svg" xmlns:xlink="http://www.w3.org/1999/xlink">
<g id="graph0" class="graph" transform="scale(1 1) rotate(0) translate(4 34)">
<title>FNetworkTestFeature::ExecuteApiRequest</title>
<!-- Node1 -->
<g id="Node000001" class="node">
<title>Node1</title>
<g id="a_Node000001"><a xlink:title="API 요청을 실행합니다.">
<polygon fill="#999999" stroke="#666666" points="653,-30 533,-30 533,0 653,0 653,-30"/>
<text text-anchor="start" x="541" y="-18" font-family="Malgun Gothic" font-size="10.00">FNetworkTestFeature</text>
<text text-anchor="middle" x="593" y="-7" font-family="Malgun Gothic" font-size="10.00">::ExecuteApiRequest</text>
</a>
</g>
</g>
<!-- Node2 -->
<g id="Node000002" class="node">
<title>Node2</title>
<g id="a_Node000002"><a xlink:href="classFNetworkTestFeature.html#ab9441c5c29d671c35b50948d5c09e2ec" target="_top" xlink:title="네트워크 테스트 메뉴를 생성합니다.">
<polygon fill="white" stroke="#666666" points="497,-30 342,-30 342,0 497,0 497,-30"/>
<text text-anchor="start" x="350" y="-18" font-family="Malgun Gothic" font-size="10.00">FNetworkTestFeature</text>
<text text-anchor="middle" x="419.5" y="-7" font-family="Malgun Gothic" font-size="10.00">::GenerateNetworkTestMenu</text>
</a>
</g>
</g>
<!-- Node1&#45;&gt;Node2 -->
<g id="edge1_Node000001_Node000002" class="edge">
<title>Node1&#45;&gt;Node2</title>
<g id="a_edge1_Node000001_Node000002"><a xlink:title=" ">
<path fill="none" stroke="#63b8ff" d="M522.82,-15C514.39,-15 505.73,-15 497.2,-15"/>
<polygon fill="#63b8ff" stroke="#63b8ff" points="522.98,-18.5 532.98,-15 522.98,-11.5 522.98,-18.5"/>
</a>
</g>
</g>
<!-- Node3 -->
<g id="Node000003" class="node">
<title>Node3</title>
<g id="a_Node000003"><a xlink:href="classFToolbar.html#a2df7b59ad21cce1d2f0437add0d4c6a7" target="_top" xlink:title="에디터 확장 프레임워크에 툴바 메뉴와 버튼을 등록합니다.">
<polygon fill="white" stroke="#666666" points="306,-24.5 170,-24.5 170,-5.5 306,-5.5 306,-24.5"/>
<text text-anchor="middle" x="238" y="-12.5" font-family="Malgun Gothic" font-size="10.00">FToolbar::RegisterMenus</text>
</a>
</g>
</g>
<!-- Node2&#45;&gt;Node3 -->
<g id="edge2_Node000002_Node000003" class="edge">
<title>Node2&#45;&gt;Node3</title>
<g id="a_edge2_Node000002_Node000003"><a xlink:title=" ">
<path fill="none" stroke="#63b8ff" d="M331.75,-15C323.11,-15 314.43,-15 306.04,-15"/>
<polygon fill="#63b8ff" stroke="#63b8ff" points="331.86,-18.5 341.86,-15 331.86,-11.5 331.86,-18.5"/>
</a>
</g>
</g>
<!-- Node4 -->
<g id="Node000004" class="node">
<title>Node4</title>
<g id="a_Node000004"><a xlink:href="classFToolbar.html#a29b321398a59346e3df4870366f89245" target="_top" xlink:title="툴바 기능을 초기화하고 Slate 메뉴 확장을 등록합니다.">
<polygon fill="white" stroke="#666666" points="134,-24.5 0,-24.5 0,-5.5 134,-5.5 134,-24.5"/>
<text text-anchor="middle" x="67" y="-12.5" font-family="Malgun Gothic" font-size="10.00">FToolbar::StartupModule</text>
</a>
</g>
</g>
<!-- Node3&#45;&gt;Node4 -->
<g id="edge3_Node000003_Node000004" class="edge">
<title>Node3&#45;&gt;Node4</title>
<g id="a_edge3_Node000003_Node000004"><a xlink:title=" ">
<path fill="none" stroke="#63b8ff" d="M159.49,-15C151.05,-15 142.51,-15 134.22,-15"/>
<polygon fill="#63b8ff" stroke="#63b8ff" points="159.72,-18.5 169.72,-15 159.72,-11.5 159.72,-18.5"/>
</a>
</g>
</g>
</g>
</svg>
