<?xml version="1.0" encoding="UTF-8" standalone="no"?>
<!DOCTYPE svg PUBLIC "-//W3C//DTD SVG 1.1//EN"
 "http://www.w3.org/Graphics/SVG/1.1/DTD/svg11.dtd">
<!-- Generated by graphviz version 2.43.0 (0)
 -->
<!-- Title: FToolbar::StartupModule Pages: 1 -->
<!--zoomable 553 -->

<svg id="main" version="1.1" xmlns="http://www.w3.org/2000/svg" xmlns:xlink="http://www.w3.org/1999/xlink" xml:space="preserve" onload="init(evt)">
<style type="text/css"><![CDATA[
.node, .edge {opacity: 0.7;}
.node.selected, .edge.selected {opacity: 1;}
.edge:hover path { stroke: red; }
.edge:hover polygon { stroke: red; fill: red; }
]]></style>

<defs>
  <circle id="rim" cx="0" cy="0" r="7"/>
  <circle id="rim2" cx="0" cy="0" r="3.5"/>
  <g id="zoomPlus">
    <use xlink:href="#rim" fill="#404040"><set attributeName="fill" to="#808080" begin="zoomplus.mouseover" end="zoomplus.mouseout"/></use>
    <path d="M-4,0h8M0,-4v8" fill="none" stroke="white" stroke-width="1.5" pointer-events="none"/>
  </g>
  <g id="zoomMin">
    <use xlink:href="#rim" fill="#404040"><set attributeName="fill" to="#808080" begin="zoomminus.mouseover" end="zoomminus.mouseout"/></use>
    <path d="M-4,0h8" fill="none" stroke="white" stroke-width="1.5" pointer-events="none"/>
  </g>
  <g id="arrowUp" transform="translate(30 24)">
    <use xlink:href="#rim"/>
    <path pointer-events="none" fill="none" stroke="white" stroke-width="1.5" d="M0,-3.0v7 M-2.5,-0.5L0,-3.0L2.5,-0.5"/>
  </g>
  <g id="arrowRight" transform="rotate(90) translate(36 -43)">
    <use xlink:href="#rim"/>
    <path pointer-events="none" fill="none" stroke="white" stroke-width="1.5" d="M0,-3.0v7 M-2.5,-0.5L0,-3.0L2.5,-0.5"/>
  </g>
  <g id="arrowDown" transform="rotate(180) translate(-30 -48)">
    <use xlink:href="#rim"/>
    <path pointer-events="none" fill="none" stroke="white" stroke-width="1.5" d="M0,-3.0v7 M-2.5,-0.5L0,-3.0L2.5,-0.5"/>
  </g>
  <g id="arrowLeft" transform="rotate(270) translate(-36 17)">
    <use xlink:href="#rim"/>
    <path pointer-events="none" fill="none" stroke="white" stroke-width="1.5" d="M0,-3.0v7 M-2.5,-0.5L0,-3.0L2.5,-0.5"/>
  </g>
  <g id="resetDef">
    <use xlink:href="#rim2" fill="#404040"><set attributeName="fill" to="#808080" begin="reset.mouseover" end="reset.mouseout"/></use>
  </g>
</defs>
<script type="application/ecmascript">
var viewWidth = 1179;
var viewHeight = 553;
var sectionId = 'dynsection-5';
</script>
<script type="application/ecmascript" xlink:href="svg.min.js"/>
<svg id="graph" class="graph">
<g id="viewport">
<title>FToolbar::StartupModule</title>
<!-- Node1 -->
<g id="Node000001" class="node">
<title>Node1</title>
<g id="a_Node000001"><a xlink:title="툴바 기능을 초기화하고 Slate 메뉴 확장을 등록합니다.">
<polygon fill="#999999" stroke="#666666" points="134,-196.5 0,-196.5 0,-177.5 134,-177.5 134,-196.5"/>
<text text-anchor="middle" x="67" y="-184.5" font-family="Malgun Gothic" font-size="10.00">FToolbar::StartupModule</text>
</a>
</g>
</g>
<!-- Node2 -->
<g id="Node000002" class="node">
<title>Node2</title>
<g id="a_Node000002"><a xlink:href="classFToolbarStyle.html#a5b48d0a9f7254d082193b3932bbd55bb" target="_top" xlink:title="스타일 세트를 Slate 스타일 레지스트리에 등록합니다.">
<polygon fill="white" stroke="#666666" points="316.5,-368.5 186.5,-368.5 186.5,-349.5 316.5,-349.5 316.5,-368.5"/>
<text text-anchor="middle" x="251.5" y="-356.5" font-family="Malgun Gothic" font-size="10.00">FToolbarStyle::Initialize</text>
</a>
</g>
</g>
<!-- Node1&#45;&gt;Node2 -->
<g id="edge1_Node000001_Node000002" class="edge">
<title>Node1&#45;&gt;Node2</title>
<g id="a_edge1_Node000001_Node000002"><a xlink:title=" ">
<path fill="none" stroke="#63b8ff" d="M78.33,-196.74C108.2,-224.89 194.88,-306.58 232.6,-342.13"/>
<polygon fill="#63b8ff" stroke="#63b8ff" points="230.6,-345.05 240.28,-349.37 235.4,-339.96 230.6,-345.05"/>
</a>
</g>
</g>
<!-- Node5 -->
<g id="Node000005" class="node">
<title>Node5</title>
<g id="a_Node000005"><a xlink:href="classFToolbar.html#a2df7b59ad21cce1d2f0437add0d4c6a7" target="_top" xlink:title="에디터 확장 프레임워크에 툴바 메뉴와 버튼을 등록합니다.">
<polygon fill="white" stroke="#666666" points="319.5,-196.5 183.5,-196.5 183.5,-177.5 319.5,-177.5 319.5,-196.5"/>
<text text-anchor="middle" x="251.5" y="-184.5" font-family="Malgun Gothic" font-size="10.00">FToolbar::RegisterMenus</text>
</a>
</g>
</g>
<!-- Node1&#45;&gt;Node5 -->
<g id="edge4_Node000001_Node000005" class="edge">
<title>Node1&#45;&gt;Node5</title>
<g id="a_edge4_Node000001_Node000005"><a xlink:title=" ">
<path fill="none" stroke="#63b8ff" d="M134.14,-187C146.78,-187 160.12,-187 173.07,-187"/>
<polygon fill="#63b8ff" stroke="#63b8ff" points="173.36,-190.5 183.36,-187 173.36,-183.5 173.36,-190.5"/>
</a>
</g>
</g>
<!-- Node28 -->
<g id="Node000028" class="node">
<title>Node28</title>
<g id="a_Node000028"><a xlink:href="classFToolbarStyle.html#a25dc5cccc853a63c3a324728580732b4" target="_top" xlink:title="디스크상의 리소스가 변경된 경우 텍스처를 다시 로드합니다.">
<polygon fill="white" stroke="#666666" points="333,-159.5 170,-159.5 170,-140.5 333,-140.5 333,-159.5"/>
<text text-anchor="middle" x="251.5" y="-147.5" font-family="Malgun Gothic" font-size="10.00">FToolbarStyle::ReloadTextures</text>
</a>
</g>
</g>
<!-- Node1&#45;&gt;Node28 -->
<g id="edge33_Node000001_Node000028" class="edge">
<title>Node1&#45;&gt;Node28</title>
<g id="a_edge33_Node000001_Node000028"><a xlink:title=" ">
<path fill="none" stroke="#63b8ff" d="M115,-177.47C138.96,-172.61 168.29,-166.67 193.53,-161.55"/>
<polygon fill="#63b8ff" stroke="#63b8ff" points="194.24,-164.98 203.34,-159.56 192.85,-158.12 194.24,-164.98"/>
</a>
</g>
</g>
<!-- Node3 -->
<g id="Node000003" class="node">
<title>Node3</title>
<g id="a_Node000003"><a xlink:href="classFToolbarStyle.html#ac15dcbb37ede65f4c248c0f10b71893c" target="_top" xlink:title="기본 이미지와 아이콘 등록을 포함한 스타일 세트를 생성합니다.">
<polygon fill="white" stroke="#666666" points="524,-524.5 404,-524.5 404,-505.5 524,-505.5 524,-524.5"/>
<text text-anchor="middle" x="464" y="-512.5" font-family="Malgun Gothic" font-size="10.00">FToolbarStyle::Create</text>
</a>
</g>
</g>
<!-- Node2&#45;&gt;Node3 -->
<g id="edge2_Node000002_Node000003" class="edge">
<title>Node2&#45;&gt;Node3</title>
<g id="a_edge2_Node000002_Node000003"><a xlink:title=" ">
<path fill="none" stroke="#63b8ff" d="M263.03,-368.59C283.01,-386.61 328.09,-426.34 369,-456 391.39,-472.23 418.21,-488.81 437.47,-500.24"/>
<polygon fill="#63b8ff" stroke="#63b8ff" points="435.87,-503.36 446.26,-505.41 439.42,-497.33 435.87,-503.36"/>
</a>
</g>
</g>
<!-- Node4 -->
<g id="Node000004" class="node">
<title>Node4</title>
<g id="a_Node000004"><a xlink:href="FToolbarStyle_8cpp.html#a00bb33b9e673ad08782f7f01d6b75e7a" target="_top" xlink:title=" ">
<polygon fill="white" stroke="#666666" points="717.5,-544.5 650.5,-544.5 650.5,-525.5 717.5,-525.5 717.5,-544.5"/>
<text text-anchor="middle" x="684" y="-532.5" font-family="Malgun Gothic" font-size="10.00">Icon20x20</text>
</a>
</g>
</g>
<!-- Node3&#45;&gt;Node4 -->
<g id="edge3_Node000003_Node000004" class="edge">
<title>Node3&#45;&gt;Node4</title>
<g id="a_edge3_Node000003_Node000004"><a xlink:title=" ">
<path fill="none" stroke="#63b8ff" d="M524.28,-520.44C560.92,-523.8 607.08,-528.04 640.17,-531.07"/>
<polygon fill="#63b8ff" stroke="#63b8ff" points="640.15,-534.58 650.42,-532.01 640.78,-527.61 640.15,-534.58"/>
</a>
</g>
</g>
<!-- Node6 -->
<g id="Node000006" class="node">
<title>Node6</title>
<g id="a_Node000006"><a xlink:href="classFCommandFeature.html#ab546196898c4d540b74defb4fb9e2aed" target="_top" xlink:title="툴바용 명령 버튼 메뉴 위젯을 생성합니다.">
<polygon fill="white" stroke="#666666" points="544.5,-447 383.5,-447 383.5,-417 544.5,-417 544.5,-447"/>
<text text-anchor="start" x="391.5" y="-435" font-family="Malgun Gothic" font-size="10.00">FCommandFeature::Generate</text>
<text text-anchor="middle" x="464" y="-424" font-family="Malgun Gothic" font-size="10.00">CommandsMenu</text>
</a>
</g>
</g>
<!-- Node5&#45;&gt;Node6 -->
<g id="edge5_Node000005_Node000006" class="edge">
<title>Node5&#45;&gt;Node6</title>
<g id="a_edge5_Node000005_Node000006"><a xlink:title=" ">
<path fill="none" stroke="#63b8ff" d="M258.74,-196.74C275.28,-222.25 322.2,-292.67 369,-345 390.37,-368.89 417.47,-393.46 437.08,-410.37"/>
<polygon fill="#63b8ff" stroke="#63b8ff" points="434.85,-413.06 444.72,-416.9 439.4,-407.74 434.85,-413.06"/>
</a>
</g>
</g>
<!-- Node12 -->
<g id="Node000012" class="node">
<title>Node12</title>
<g id="a_Node000012"><a xlink:href="classFLevelFeature.html#aff2925b502a52156786e925c1bd2af90" target="_top" xlink:title="레벨 선택 항목을 포함한 Slate 위젯을 구성합니다.">
<polygon fill="white" stroke="#666666" points="559,-335.5 369,-335.5 369,-316.5 559,-316.5 559,-335.5"/>
<text text-anchor="middle" x="464" y="-323.5" font-family="Malgun Gothic" font-size="10.00">FLevelFeature::GenerateLevelMenu</text>
</a>
</g>
</g>
<!-- Node5&#45;&gt;Node12 -->
<g id="edge11_Node000005_Node000012" class="edge">
<title>Node5&#45;&gt;Node12</title>
<g id="a_edge11_Node000005_Node000012"><a xlink:title=" ">
<path fill="none" stroke="#63b8ff" d="M266.97,-196.55C302.87,-220.26 396.28,-281.94 439.91,-310.76"/>
<polygon fill="#63b8ff" stroke="#63b8ff" points="438.16,-313.79 448.43,-316.38 442.01,-307.95 438.16,-313.79"/>
</a>
</g>
</g>
<!-- Node16 -->
<g id="Node000016" class="node">
<title>Node16</title>
<g id="a_Node000016"><a xlink:href="classFScreenshotFeature.html#a56fc11b5f6023d5492e26d9354807082" target="_top" xlink:title="스크린샷 옵션을 제공하는 메뉴 위젯을 생성합니다.">
<polygon fill="white" stroke="#666666" points="538.5,-202 389.5,-202 389.5,-172 538.5,-172 538.5,-202"/>
<text text-anchor="start" x="397.5" y="-190" font-family="Malgun Gothic" font-size="10.00">FScreenshotFeature</text>
<text text-anchor="middle" x="464" y="-179" font-family="Malgun Gothic" font-size="10.00">::GenerateScreenshotMenu</text>
</a>
</g>
</g>
<!-- Node5&#45;&gt;Node16 -->
<g id="edge15_Node000005_Node000016" class="edge">
<title>Node5&#45;&gt;Node16</title>
<g id="a_edge15_Node000005_Node000016"><a xlink:title=" ">
<path fill="none" stroke="#63b8ff" d="M319.68,-187C338.54,-187 359.27,-187 378.97,-187"/>
<polygon fill="#63b8ff" stroke="#63b8ff" points="379.16,-190.5 389.16,-187 379.16,-183.5 379.16,-190.5"/>
</a>
</g>
</g>
<!-- Node23 -->
<g id="Node000023" class="node">
<title>Node23</title>
<g id="a_Node000023"><a xlink:href="classFLevelFeature.html#a536602356f4e9dcdfcfbe85094782bdb" target="_top" xlink:title="선택된 맵 에셋을 에디터에서 엽니다.">
<polygon fill="white" stroke="#666666" points="537.5,-150 390.5,-150 390.5,-120 537.5,-120 537.5,-150"/>
<text text-anchor="start" x="398.5" y="-138" font-family="Malgun Gothic" font-size="10.00">FLevelFeature::OnSelected</text>
<text text-anchor="middle" x="464" y="-127" font-family="Malgun Gothic" font-size="10.00">Map_Open</text>
</a>
</g>
</g>
<!-- Node5&#45;&gt;Node23 -->
<g id="edge26_Node000005_Node000023" class="edge">
<title>Node5&#45;&gt;Node23</title>
<g id="a_edge26_Node000005_Node000023"><a xlink:title=" ">
<path fill="none" stroke="#63b8ff" d="M296.43,-177.48C308.32,-174.82 321.17,-171.87 333,-169 353.94,-163.92 376.7,-158.08 397.24,-152.69"/>
<polygon fill="#63b8ff" stroke="#63b8ff" points="398.34,-156.02 407.12,-150.08 396.56,-149.25 398.34,-156.02"/>
</a>
</g>
</g>
<!-- Node26 -->
<g id="Node000026" class="node">
<title>Node26</title>
<g id="a_Node000026"><a xlink:href="classFLevelFeature.html#a31e8a2482aafbc4082a996e3a5a7a0d9" target="_top" xlink:title="선택된 맵으로 새로운 뷰포트에서 PIE를 실행합니다.">
<polygon fill="white" stroke="#666666" points="537.5,-30 390.5,-30 390.5,0 537.5,0 537.5,-30"/>
<text text-anchor="start" x="398.5" y="-18" font-family="Malgun Gothic" font-size="10.00">FLevelFeature::OnSelected</text>
<text text-anchor="middle" x="464" y="-7" font-family="Malgun Gothic" font-size="10.00">Map_PlayInEditor</text>
</a>
</g>
</g>
<!-- Node5&#45;&gt;Node26 -->
<g id="edge29_Node000005_Node000026" class="edge">
<title>Node5&#45;&gt;Node26</title>
<g id="a_edge29_Node000005_Node000026"><a xlink:title=" ">
<path fill="none" stroke="#63b8ff" d="M319.87,-177.88C324.64,-175.51 329.1,-172.58 333,-169 372.15,-133.08 333.28,-94.34 369,-55 376.65,-46.57 386.38,-39.85 396.66,-34.52"/>
<polygon fill="#63b8ff" stroke="#63b8ff" points="398.26,-37.63 405.79,-30.18 395.26,-31.31 398.26,-37.63"/>
</a>
</g>
</g>
<!-- Node27 -->
<g id="Node000027" class="node">
<title>Node27</title>
<g id="a_Node000027"><a xlink:href="classFLevelFeature.html#ad659ce46cd4d37948b219e9aa104c2b3" target="_top" xlink:title="선택된 맵으로 현재 뷰포트에서 PIE를 시작합니다.">
<polygon fill="white" stroke="#666666" points="538.5,-94 389.5,-94 389.5,-64 538.5,-64 538.5,-94"/>
<text text-anchor="start" x="397.5" y="-82" font-family="Malgun Gothic" font-size="10.00">FLevelFeature::OnSelected</text>
<text text-anchor="middle" x="464" y="-71" font-family="Malgun Gothic" font-size="10.00">Map_PlaySelectedViewport</text>
</a>
</g>
</g>
<!-- Node5&#45;&gt;Node27 -->
<g id="edge31_Node000005_Node000027" class="edge">
<title>Node5&#45;&gt;Node27</title>
<g id="a_edge31_Node000005_Node000027"><a xlink:title=" ">
<path fill="none" stroke="#63b8ff" d="M317.34,-177.43C322.89,-175.17 328.21,-172.4 333,-169 357.73,-151.43 345.25,-129.88 369,-111 375.26,-106.02 382.34,-101.8 389.74,-98.21"/>
<polygon fill="#63b8ff" stroke="#63b8ff" points="391.51,-101.26 399.24,-94.01 388.68,-94.86 391.51,-101.26"/>
</a>
</g>
</g>
<!-- Node7 -->
<g id="Node000007" class="node">
<title>Node7</title>
<g id="a_Node000007"><a xlink:href="classFCommon.html#a7f9a33df4cca4a9488e492d0043c284e" target="_top" xlink:title="전달된 이름으로 애플리케이션 스타일에서 Slate 아이콘을 조회합니다.">
<polygon fill="white" stroke="#666666" points="739,-507.5 629,-507.5 629,-488.5 739,-488.5 739,-507.5"/>
<text text-anchor="middle" x="684" y="-495.5" font-family="Malgun Gothic" font-size="10.00">FCommon::GetIcon</text>
</a>
</g>
</g>
<!-- Node6&#45;&gt;Node7 -->
<g id="edge6_Node000006_Node000007" class="edge">
<title>Node6&#45;&gt;Node7</title>
<g id="a_edge6_Node000006_Node000007"><a xlink:title=" ">
<path fill="none" stroke="#63b8ff" d="M502.39,-447.03C528.13,-457 563.28,-469.89 595,-479 604.03,-481.59 613.67,-484.02 623.14,-486.21"/>
<polygon fill="#63b8ff" stroke="#63b8ff" points="622.39,-489.63 632.91,-488.4 623.92,-482.8 622.39,-489.63"/>
</a>
</g>
</g>
<!-- Node9 -->
<g id="Node000009" class="node">
<title>Node9</title>
<g id="a_Node000009"><a xlink:href="classFCommandFeature.html#a08ab22cf9f7960c9b8f73c1f80eb981e" target="_top" xlink:title="지정된 툴바 버튼이 현재 토글되어 있는지 반환합니다.">
<polygon fill="white" stroke="#666666" points="762,-470 606,-470 606,-440 762,-440 762,-470"/>
<text text-anchor="start" x="614" y="-458" font-family="Malgun Gothic" font-size="10.00">FCommandFeature::IsButton</text>
<text text-anchor="middle" x="684" y="-447" font-family="Malgun Gothic" font-size="10.00">Toggled</text>
</a>
</g>
</g>
<!-- Node6&#45;&gt;Node9 -->
<g id="edge8_Node000006_Node000009" class="edge">
<title>Node6&#45;&gt;Node9</title>
<g id="a_edge8_Node000006_Node000009"><a xlink:title=" ">
<path fill="none" stroke="#63b8ff" d="M544.63,-440.4C561.15,-442.14 578.64,-443.99 595.42,-445.76"/>
<polygon fill="#63b8ff" stroke="#63b8ff" points="595.46,-449.28 605.77,-446.85 596.19,-442.32 595.46,-449.28"/>
</a>
</g>
</g>
<!-- Node10 -->
<g id="Node000010" class="node">
<title>Node10</title>
<g id="a_Node000010"><a xlink:href="classFCommandFeature.html#a3ff8a0398db30ce422496f2281dd3b60" target="_top" xlink:title="전달된 버튼 ID에 매핑된 명령을 실행합니다.">
<polygon fill="white" stroke="#666666" points="980,-427 813,-427 813,-397 980,-397 980,-427"/>
<text text-anchor="start" x="821" y="-415" font-family="Malgun Gothic" font-size="10.00">FCommandFeature::OnExecute</text>
<text text-anchor="middle" x="896.5" y="-404" font-family="Malgun Gothic" font-size="10.00">ButtonCommand</text>
</a>
</g>
</g>
<!-- Node6&#45;&gt;Node10 -->
<g id="edge9_Node000006_Node000010" class="edge">
<title>Node6&#45;&gt;Node10</title>
<g id="a_edge9_Node000006_Node000010"><a xlink:title=" ">
<path fill="none" stroke="#63b8ff" d="M544.71,-428.3C617.75,-424.9 725.9,-419.88 802.77,-416.31"/>
<polygon fill="#63b8ff" stroke="#63b8ff" points="803.11,-419.8 812.93,-415.84 802.78,-412.8 803.11,-419.8"/>
</a>
</g>
</g>
<!-- Node8 -->
<g id="Node000008" class="node">
<title>Node8</title>
<g id="a_Node000008"><a xlink:href="classFToolbarStyle.html#a3437f8f3e4dcd2c7b68de7b28fc2a95a" target="_top" xlink:title="Slate 스타일 세트를 참조할 때 사용할 이름을 반환합니다.">
<polygon fill="white" stroke="#666666" points="984,-507.5 809,-507.5 809,-488.5 984,-488.5 984,-507.5"/>
<text text-anchor="middle" x="896.5" y="-495.5" font-family="Malgun Gothic" font-size="10.00">FToolbarStyle::GetStyleSetName</text>
</a>
</g>
</g>
<!-- Node7&#45;&gt;Node8 -->
<g id="edge7_Node000007_Node000008" class="edge">
<title>Node7&#45;&gt;Node8</title>
<g id="a_edge7_Node000007_Node000008"><a xlink:title=" ">
<path fill="none" stroke="#63b8ff" d="M739.21,-498C757.42,-498 778.33,-498 798.8,-498"/>
<polygon fill="#63b8ff" stroke="#63b8ff" points="798.8,-501.5 808.8,-498 798.8,-494.5 798.8,-501.5"/>
</a>
</g>
</g>
<!-- Node11 -->
<g id="Node000011" class="node">
<title>Node11</title>
<g id="a_Node000011"><a xlink:href="classFCommon.html#ac247ef6e336abf6ca53b140d93ea07f9" target="_top" xlink:title="툴바 액션이 대상으로 삼는 활성 에디터 월드를 반환합니다.">
<polygon fill="white" stroke="#666666" points="1171,-338 1020,-338 1020,-308 1171,-308 1171,-338"/>
<text text-anchor="start" x="1028" y="-326" font-family="Malgun Gothic" font-size="10.00">FCommon::GetActiveTarget</text>
<text text-anchor="middle" x="1095.5" y="-315" font-family="Malgun Gothic" font-size="10.00">World</text>
</a>
</g>
</g>
<!-- Node10&#45;&gt;Node11 -->
<g id="edge10_Node000010_Node000011" class="edge">
<title>Node10&#45;&gt;Node11</title>
<g id="a_edge10_Node000010_Node000011"><a xlink:title=" ">
<path fill="none" stroke="#63b8ff" d="M959.61,-396.89C967.92,-394.25 976.25,-391.29 984,-388 1012.45,-375.93 1042.55,-357.83 1064.14,-343.79"/>
<polygon fill="#63b8ff" stroke="#63b8ff" points="1066.13,-346.67 1072.55,-338.25 1062.28,-340.83 1066.13,-346.67"/>
</a>
</g>
</g>
<!-- Node13 -->
<g id="Node000013" class="node">
<title>Node13</title>
<g id="a_Node000013"><a xlink:href="classUToolbarSettings.html#a839017a8f47a62d4127ad8527d2498ed" target="_top" xlink:title="레벨 선택 헬퍼가 사용할 검색 루트 경로를 수집합니다.">
<polygon fill="white" stroke="#666666" points="761.5,-384 606.5,-384 606.5,-354 761.5,-354 761.5,-384"/>
<text text-anchor="start" x="614.5" y="-372" font-family="Malgun Gothic" font-size="10.00">UToolbarSettings::GetSearch</text>
<text text-anchor="middle" x="684" y="-361" font-family="Malgun Gothic" font-size="10.00">Roots</text>
</a>
</g>
</g>
<!-- Node12&#45;&gt;Node13 -->
<g id="edge12_Node000012_Node000013" class="edge">
<title>Node12&#45;&gt;Node13</title>
<g id="a_edge12_Node000012_Node000013"><a xlink:title=" ">
<path fill="none" stroke="#63b8ff" d="M513.38,-335.54C537.95,-340.39 568.56,-346.43 596.97,-352.03"/>
<polygon fill="#63b8ff" stroke="#63b8ff" points="596.43,-355.49 606.92,-353.99 597.79,-348.62 596.43,-355.49"/>
</a>
</g>
</g>
<!-- Node15 -->
<g id="Node000015" class="node">
<title>Node15</title>
<g id="a_Node000015"><a xlink:href="classFLevelFeature.html#ac20da5828b1adc7686fbd96ba8abd1c8" target="_top" xlink:title="선택된 맵 패키지 이름을 저장합니다.">
<polygon fill="white" stroke="#666666" points="768,-335.5 600,-335.5 600,-316.5 768,-316.5 768,-335.5"/>
<text text-anchor="middle" x="684" y="-323.5" font-family="Malgun Gothic" font-size="10.00">FLevelFeature::OnSelectedMap</text>
</a>
</g>
</g>
<!-- Node12&#45;&gt;Node15 -->
<g id="edge14_Node000012_Node000015" class="edge">
<title>Node12&#45;&gt;Node15</title>
<g id="a_edge14_Node000012_Node000015"><a xlink:title=" ">
<path fill="none" stroke="#63b8ff" d="M559.03,-326C569.23,-326 579.61,-326 589.8,-326"/>
<polygon fill="#63b8ff" stroke="#63b8ff" points="589.91,-329.5 599.91,-326 589.91,-322.5 589.91,-329.5"/>
</a>
</g>
</g>
<!-- Node14 -->
<g id="Node000014" class="node">
<title>Node14</title>
<g id="a_Node000014"><a xlink:href="UToolbarSettings_8cpp.html#a93020a74b1d3099ceb4abe28cf3188d2" target="_top" xlink:title="사용자 입력 디렉터리 문자열을 콘텐츠 루트 형식으로 정규화합니다.">
<polygon fill="white" stroke="#666666" points="951.5,-378.5 841.5,-378.5 841.5,-359.5 951.5,-359.5 951.5,-378.5"/>
<text text-anchor="middle" x="896.5" y="-366.5" font-family="Malgun Gothic" font-size="10.00">NormalizeUserPath</text>
</a>
</g>
</g>
<!-- Node13&#45;&gt;Node14 -->
<g id="edge13_Node000013_Node000014" class="edge">
<title>Node13&#45;&gt;Node14</title>
<g id="a_edge13_Node000013_Node000014"><a xlink:title=" ">
<path fill="none" stroke="#63b8ff" d="M761.59,-369C784.42,-369 809.21,-369 831.17,-369"/>
<polygon fill="#63b8ff" stroke="#63b8ff" points="831.38,-372.5 841.38,-369 831.38,-365.5 831.38,-372.5"/>
</a>
</g>
</g>
<!-- Node17 -->
<g id="Node000017" class="node">
<title>Node17</title>
<g id="a_Node000017"><a xlink:href="classFScreenshotFeature.html#a31ee01aa337c4b724c6ec8a550f99c05" target="_top" xlink:title="고해상도 스크린샷(4x 배율)을 촬영합니다.">
<polygon fill="white" stroke="#666666" points="758.5,-298 609.5,-298 609.5,-268 758.5,-268 758.5,-298"/>
<text text-anchor="start" x="617.5" y="-286" font-family="Malgun Gothic" font-size="10.00">FScreenshotFeature</text>
<text text-anchor="middle" x="684" y="-275" font-family="Malgun Gothic" font-size="10.00">::OnCaptureHighResolution</text>
</a>
</g>
</g>
<!-- Node16&#45;&gt;Node17 -->
<g id="edge16_Node000016_Node000017" class="edge">
<title>Node16&#45;&gt;Node17</title>
<g id="a_edge16_Node000016_Node000017"><a xlink:title=" ">
<path fill="none" stroke="#63b8ff" d="M488.11,-202.04C513.47,-218 555.8,-243.07 595,-259 600.04,-261.05 605.32,-262.98 610.67,-264.79"/>
<polygon fill="#63b8ff" stroke="#63b8ff" points="609.77,-268.18 620.36,-267.91 611.92,-261.51 609.77,-268.18"/>
</a>
</g>
</g>
<!-- Node19 -->
<g id="Node000019" class="node">
<title>Node19</title>
<g id="a_Node000019"><a xlink:href="classFScreenshotFeature.html#a7189e1c261246eb0d4f1a2af11ab89bd" target="_top" xlink:title="빠른 참고용 스크린샷(1x 배율)을 촬영합니다.">
<polygon fill="white" stroke="#666666" points="754.5,-250 613.5,-250 613.5,-220 754.5,-220 754.5,-250"/>
<text text-anchor="start" x="621.5" y="-238" font-family="Malgun Gothic" font-size="10.00">FScreenshotFeature</text>
<text text-anchor="middle" x="684" y="-227" font-family="Malgun Gothic" font-size="10.00">::OnCaptureQuickPreview</text>
</a>
</g>
</g>
<!-- Node16&#45;&gt;Node19 -->
<g id="edge19_Node000016_Node000019" class="edge">
<title>Node16&#45;&gt;Node19</title>
<g id="a_edge19_Node000016_Node000019"><a xlink:title=" ">
<path fill="none" stroke="#63b8ff" d="M533.38,-202.06C556.1,-207.06 581.58,-212.67 604.98,-217.82"/>
<polygon fill="#63b8ff" stroke="#63b8ff" points="604.35,-221.27 614.86,-220 605.85,-214.43 604.35,-221.27"/>
</a>
</g>
</g>
<!-- Node20 -->
<g id="Node000020" class="node">
<title>Node20</title>
<g id="a_Node000020"><a xlink:href="classFScreenshotFeature.html#afc1b23933c9d67077c2e726610688605" target="_top" xlink:title="보통 품질 스크린샷(2x 배율)을 촬영합니다.">
<polygon fill="white" stroke="#666666" points="743,-202 625,-202 625,-172 743,-172 743,-202"/>
<text text-anchor="start" x="633" y="-190" font-family="Malgun Gothic" font-size="10.00">FScreenshotFeature</text>
<text text-anchor="middle" x="684" y="-179" font-family="Malgun Gothic" font-size="10.00">::OnCaptureStandard</text>
</a>
</g>
</g>
<!-- Node16&#45;&gt;Node20 -->
<g id="edge21_Node000016_Node000020" class="edge">
<title>Node16&#45;&gt;Node20</title>
<g id="a_edge21_Node000016_Node000020"><a xlink:title=" ">
<path fill="none" stroke="#63b8ff" d="M538.5,-187C563.16,-187 590.54,-187 614.78,-187"/>
<polygon fill="#63b8ff" stroke="#63b8ff" points="614.96,-190.5 624.96,-187 614.96,-183.5 614.96,-190.5"/>
</a>
</g>
</g>
<!-- Node21 -->
<g id="Node000021" class="node">
<title>Node21</title>
<g id="a_Node000021"><a xlink:href="classFScreenshotFeature.html#a756ceabcb0e485733fa095066f2970fa" target="_top" xlink:title="울트라 고해상도 스크린샷(8x 배율)을 촬영합니다.">
<polygon fill="white" stroke="#666666" points="740.5,-154 627.5,-154 627.5,-124 740.5,-124 740.5,-154"/>
<text text-anchor="start" x="635.5" y="-142" font-family="Malgun Gothic" font-size="10.00">FScreenshotFeature</text>
<text text-anchor="middle" x="684" y="-131" font-family="Malgun Gothic" font-size="10.00">::OnCaptureUltra</text>
</a>
</g>
</g>
<!-- Node16&#45;&gt;Node21 -->
<g id="edge23_Node000016_Node000021" class="edge">
<title>Node16&#45;&gt;Node21</title>
<g id="a_edge23_Node000016_Node000021"><a xlink:title=" ">
<path fill="none" stroke="#63b8ff" d="M533.38,-171.94C560.17,-166.04 590.79,-159.3 617.32,-153.46"/>
<polygon fill="#63b8ff" stroke="#63b8ff" points="618.26,-156.84 627.27,-151.27 616.75,-150 618.26,-156.84"/>
</a>
</g>
</g>
<!-- Node22 -->
<g id="Node000022" class="node">
<title>Node22</title>
<g id="a_Node000022"><a xlink:href="classFScreenshotFeature.html#af01017cd01130c08bf1c63309ea1e2a6" target="_top" xlink:title="촬영된 스크린샷이 저장된 디렉터리를 엽니다.">
<polygon fill="white" stroke="#666666" points="749.5,-106 618.5,-106 618.5,-76 749.5,-76 749.5,-106"/>
<text text-anchor="start" x="626.5" y="-94" font-family="Malgun Gothic" font-size="10.00">FScreenshotFeature</text>
<text text-anchor="middle" x="684" y="-83" font-family="Malgun Gothic" font-size="10.00">::OnOpenScreenShotDir</text>
</a>
</g>
</g>
<!-- Node16&#45;&gt;Node22 -->
<g id="edge25_Node000016_Node000022" class="edge">
<title>Node16&#45;&gt;Node22</title>
<g id="a_edge25_Node000016_Node000022"><a xlink:title=" ">
<path fill="none" stroke="#63b8ff" d="M533.43,-171.92C542.42,-168.44 551.2,-164.19 559,-159 580.03,-145 573.81,-128.76 595,-115 599.37,-112.16 604.07,-109.66 608.95,-107.45"/>
<polygon fill="#63b8ff" stroke="#63b8ff" points="610.56,-110.57 618.49,-103.55 607.91,-104.09 610.56,-110.57"/>
</a>
</g>
</g>
<!-- Node18 -->
<g id="Node000018" class="node">
<title>Node18</title>
<g id="a_Node000018"><a xlink:href="classFScreenshotFeature.html#aaab75697de4685c906b26140e54301b6" target="_top" xlink:title="지정된 배율로 활성 뷰포트에 고해상도 캡처를 요청합니다.">
<polygon fill="white" stroke="#666666" points="964,-250 829,-250 829,-220 964,-220 964,-250"/>
<text text-anchor="start" x="837" y="-238" font-family="Malgun Gothic" font-size="10.00">FScreenshotFeature</text>
<text text-anchor="middle" x="896.5" y="-227" font-family="Malgun Gothic" font-size="10.00">::CaptureActiveViewport</text>
</a>
</g>
</g>
<!-- Node17&#45;&gt;Node18 -->
<g id="edge17_Node000017_Node000018" class="edge">
<title>Node17&#45;&gt;Node18</title>
<g id="a_edge17_Node000017_Node000018"><a xlink:title=" ">
<path fill="none" stroke="#63b8ff" d="M751.03,-267.94C772.87,-262.96 797.35,-257.38 819.86,-252.25"/>
<polygon fill="#63b8ff" stroke="#63b8ff" points="820.74,-255.64 829.71,-250 819.18,-248.81 820.74,-255.64"/>
</a>
</g>
</g>
<!-- Node18&#45;&gt;Node11 -->
<g id="edge18_Node000018_Node000011" class="edge">
<title>Node18&#45;&gt;Node11</title>
<g id="a_edge18_Node000018_Node000011"><a xlink:title=" ">
<path fill="none" stroke="#63b8ff" d="M931.37,-250.13C964.59,-264.97 1015.38,-287.66 1051.45,-303.77"/>
<polygon fill="#63b8ff" stroke="#63b8ff" points="1050.19,-307.04 1060.75,-307.92 1053.04,-300.65 1050.19,-307.04"/>
</a>
</g>
</g>
<!-- Node19&#45;&gt;Node18 -->
<g id="edge20_Node000019_Node000018" class="edge">
<title>Node19&#45;&gt;Node18</title>
<g id="a_edge20_Node000019_Node000018"><a xlink:title=" ">
<path fill="none" stroke="#63b8ff" d="M754.51,-235C775.09,-235 797.74,-235 818.76,-235"/>
<polygon fill="#63b8ff" stroke="#63b8ff" points="818.92,-238.5 828.92,-235 818.92,-231.5 818.92,-238.5"/>
</a>
</g>
</g>
<!-- Node20&#45;&gt;Node18 -->
<g id="edge22_Node000020_Node000018" class="edge">
<title>Node20&#45;&gt;Node18</title>
<g id="a_edge22_Node000020_Node000018"><a xlink:title=" ">
<path fill="none" stroke="#63b8ff" d="M743.08,-200.24C766.71,-205.63 794.35,-211.93 819.55,-217.68"/>
<polygon fill="#63b8ff" stroke="#63b8ff" points="818.91,-221.13 829.44,-219.94 820.47,-214.3 818.91,-221.13"/>
</a>
</g>
</g>
<!-- Node21&#45;&gt;Node18 -->
<g id="edge24_Node000021_Node000018" class="edge">
<title>Node21&#45;&gt;Node18</title>
<g id="a_edge24_Node000021_Node000018"><a xlink:title=" ">
<path fill="none" stroke="#63b8ff" d="M740.68,-151.78C751.58,-154.95 762.78,-158.7 773,-163 806.2,-176.99 841.4,-198.46 865.5,-214.31"/>
<polygon fill="#63b8ff" stroke="#63b8ff" points="863.59,-217.24 873.85,-219.87 867.47,-211.42 863.59,-217.24"/>
</a>
</g>
</g>
<!-- Node24 -->
<g id="Node000024" class="node">
<title>Node24</title>
<g id="a_Node000024"><a xlink:href="classFLevelFeature.html#a63493bc16dc28b58911d3b03c7833aee" target="_top" xlink:title="현재 선택된 맵 패키지를 에디터에 로드합니다.">
<polygon fill="white" stroke="#666666" points="773,-57.5 595,-57.5 595,-38.5 773,-38.5 773,-57.5"/>
<text text-anchor="middle" x="684" y="-45.5" font-family="Malgun Gothic" font-size="10.00">FLevelFeature::LoadSelectedMap</text>
</a>
</g>
</g>
<!-- Node23&#45;&gt;Node24 -->
<g id="edge27_Node000023_Node000024" class="edge">
<title>Node23&#45;&gt;Node24</title>
<g id="a_edge27_Node000023_Node000024"><a xlink:title=" ">
<path fill="none" stroke="#63b8ff" d="M523.06,-119.88C535.41,-115.41 548.02,-109.83 559,-103 578.21,-91.04 575.13,-77.83 595,-67 599.24,-64.69 603.73,-62.66 608.36,-60.88"/>
<polygon fill="#63b8ff" stroke="#63b8ff" points="609.7,-64.12 618.01,-57.56 607.42,-57.5 609.7,-64.12"/>
</a>
</g>
</g>
<!-- Node25 -->
<g id="Node000025" class="node">
<title>Node25</title>
<g id="a_Node000025"><a xlink:href="classFLevelFeature.html#aad2ad775628a12e462c1e85e90060415" target="_top" xlink:title="선택된 맵 에셋이 여전히 존재하는지 검증합니다.">
<polygon fill="white" stroke="#666666" points="971,-44 822,-44 822,-14 971,-14 971,-44"/>
<text text-anchor="start" x="830" y="-32" font-family="Malgun Gothic" font-size="10.00">FLevelFeature::EnsureValid</text>
<text text-anchor="middle" x="896.5" y="-21" font-family="Malgun Gothic" font-size="10.00">SelectedMap</text>
</a>
</g>
</g>
<!-- Node24&#45;&gt;Node25 -->
<g id="edge28_Node000024_Node000025" class="edge">
<title>Node24&#45;&gt;Node25</title>
<g id="a_edge28_Node000024_Node000025"><a xlink:title=" ">
<path fill="none" stroke="#63b8ff" d="M773.05,-40.05C785.85,-38.9 799,-37.71 811.72,-36.56"/>
<polygon fill="#63b8ff" stroke="#63b8ff" points="812.16,-40.04 821.8,-35.65 811.53,-33.07 812.16,-40.04"/>
</a>
</g>
</g>
<!-- Node26&#45;&gt;Node25 -->
<g id="edge30_Node000026_Node000025" class="edge">
<title>Node26&#45;&gt;Node25</title>
<g id="a_edge30_Node000026_Node000025"><a xlink:title=" ">
<path fill="none" stroke="#63b8ff" d="M537.54,-17.36C613.38,-19.83 732.22,-23.69 811.93,-26.28"/>
<polygon fill="#63b8ff" stroke="#63b8ff" points="811.83,-29.78 821.94,-26.61 812.06,-22.78 811.83,-29.78"/>
</a>
</g>
</g>
<!-- Node27&#45;&gt;Node24 -->
<g id="edge32_Node000027_Node000024" class="edge">
<title>Node27&#45;&gt;Node24</title>
<g id="a_edge32_Node000027_Node000024"><a xlink:title=" ">
<path fill="none" stroke="#63b8ff" d="M538.5,-68.55C560.26,-65.45 584.14,-62.06 606.11,-58.93"/>
<polygon fill="#63b8ff" stroke="#63b8ff" points="606.65,-62.39 616.05,-57.52 605.66,-55.46 606.65,-62.39"/>
</a>
</g>
</g>
</g>
</svg>

<g id="navigator" transform="translate(0 0)" fill="#404254">
  <rect fill="#f2f5e9" fill-opacity="0.5" stroke="#606060" stroke-width=".5" x="0" y="0" width="60" height="60"/>
  <use id="zoomplus" xlink:href="#zoomPlus" x="17" y="9" onmousedown="handleZoom(evt,'in')"/>
  <use id="zoomminus" xlink:href="#zoomMin" x="42" y="9" onmousedown="handleZoom(evt,'out')"/>
  <use id="reset" xlink:href="#resetDef" x="30" y="36" onmousedown="handleReset()"/>
   <use id="arrowup" xlink:href="#arrowUp" x="0" y="0" onmousedown="handlePan(0,-1)"/>
  <use id="arrowright" xlink:href="#arrowRight" x="0" y="0" onmousedown="handlePan(1,0)"/>
  <use id="arrowdown" xlink:href="#arrowDown" x="0" y="0" onmousedown="handlePan(0,1)"/>
  <use id="arrowleft" xlink:href="#arrowLeft" x="0" y="0" onmousedown="handlePan(-1,0)"/>
</g>
<svg viewBox="0 0 15 15" width="100%" height="30px" preserveAspectRatio="xMaxYMin meet">
 <g id="arrow_out" transform="scale(0.3 0.3)">
  <a xlink:href="classFToolbar_a29b321398a59346e3df4870366f89245_cgraph_org.svg" target="_base">
   <rect id="button" ry="5" rx="5" y="6" x="6" height="38" width="38"
        fill="#f2f5e9" fill-opacity="0.5" stroke="#606060" stroke-width="1.0"/>
   <path id="arrow"
     d="M 11.500037,31.436501 C 11.940474,20.09759 22.043105,11.32322 32.158766,21.979434 L 37.068811,17.246167 C 37.068811,17.246167 37.088388,32 37.088388,32 L 22.160133,31.978069 C 22.160133,31.978069 26.997745,27.140456 26.997745,27.140456 C 18.528582,18.264221 13.291696,25.230495 11.500037,31.436501 z"
     style="fill:#404040;"/>
  </a>
 </g>
</svg>

<style type='text/css'>
<![CDATA[
[data-mouse-over-selected='false'] { opacity: 0.7; }
[data-mouse-over-selected='true']  { opacity: 1.0; }
]]>
</style>
<script type="application/ecmascript"><![CDATA[
document.addEventListener('DOMContentLoaded', (event) => {
  highlightEdges();
  highlightAdjacentNodes();
});
]]></script>
</svg>
