<?xml version="1.0" encoding="UTF-8" standalone="no"?>
<!DOCTYPE svg PUBLIC "-//W3C//DTD SVG 1.1//EN"
 "http://www.w3.org/Graphics/SVG/1.1/DTD/svg11.dtd">
<!-- Generated by graphviz version 2.43.0 (0)
 -->
<!-- Title: FToolbar::StartupModule Pages: 1 -->
<!--zoomable 530 -->

<svg id="main" version="1.1" xmlns="http://www.w3.org/2000/svg" xmlns:xlink="http://www.w3.org/1999/xlink" xml:space="preserve" onload="init(evt)">
<style type="text/css"><![CDATA[
.node, .edge {opacity: 0.7;}
.node.selected, .edge.selected {opacity: 1;}
.edge:hover path { stroke: red; }
.edge:hover polygon { stroke: red; fill: red; }
]]></style>

<defs>
  <circle id="rim" cx="0" cy="0" r="7"/>
  <circle id="rim2" cx="0" cy="0" r="3.5"/>
  <g id="zoomPlus">
    <use xlink:href="#rim" fill="#404040"><set attributeName="fill" to="#808080" begin="zoomplus.mouseover" end="zoomplus.mouseout"/></use>
    <path d="M-4,0h8M0,-4v8" fill="none" stroke="white" stroke-width="1.5" pointer-events="none"/>
  </g>
  <g id="zoomMin">
    <use xlink:href="#rim" fill="#404040"><set attributeName="fill" to="#808080" begin="zoomminus.mouseover" end="zoomminus.mouseout"/></use>
    <path d="M-4,0h8" fill="none" stroke="white" stroke-width="1.5" pointer-events="none"/>
  </g>
  <g id="arrowUp" transform="translate(30 24)">
    <use xlink:href="#rim"/>
    <path pointer-events="none" fill="none" stroke="white" stroke-width="1.5" d="M0,-3.0v7 M-2.5,-0.5L0,-3.0L2.5,-0.5"/>
  </g>
  <g id="arrowRight" transform="rotate(90) translate(36 -43)">
    <use xlink:href="#rim"/>
    <path pointer-events="none" fill="none" stroke="white" stroke-width="1.5" d="M0,-3.0v7 M-2.5,-0.5L0,-3.0L2.5,-0.5"/>
  </g>
  <g id="arrowDown" transform="rotate(180) translate(-30 -48)">
    <use xlink:href="#rim"/>
    <path pointer-events="none" fill="none" stroke="white" stroke-width="1.5" d="M0,-3.0v7 M-2.5,-0.5L0,-3.0L2.5,-0.5"/>
  </g>
  <g id="arrowLeft" transform="rotate(270) translate(-36 17)">
    <use xlink:href="#rim"/>
    <path pointer-events="none" fill="none" stroke="white" stroke-width="1.5" d="M0,-3.0v7 M-2.5,-0.5L0,-3.0L2.5,-0.5"/>
  </g>
  <g id="resetDef">
    <use xlink:href="#rim2" fill="#404040"><set attributeName="fill" to="#808080" begin="reset.mouseover" end="reset.mouseout"/></use>
  </g>
</defs>
<script type="application/ecmascript">
var viewWidth = 992;
var viewHeight = 530;
var sectionId = 'dynsection-5';
</script>
<script type="application/ecmascript" xlink:href="svg.min.js"/>
<svg id="graph" class="graph">
<g id="viewport">
<title>FToolbar::StartupModule</title>
<!-- Node1 -->
<g id="Node000001" class="node">
<title>Node1</title>
<g id="a_Node000001"><a xlink:title="툴바 기능을 초기화하고 Slate 메뉴 확장을 등록합니다.">
<polygon fill="#999999" stroke="#666666" points="134,-211.5 0,-211.5 0,-192.5 134,-192.5 134,-211.5"/>
<text text-anchor="middle" x="67" y="-199.5" font-family="Malgun Gothic" font-size="10.00">FToolbar::StartupModule</text>
</a>
</g>
</g>
<!-- Node2 -->
<g id="Node000002" class="node">
<title>Node2</title>
<g id="a_Node000002"><a xlink:href="classFToolbarStyle.html#a5b48d0a9f7254d082193b3932bbd55bb" target="_top" xlink:title="스타일 세트를 Slate 스타일 레지스트리에 등록합니다.">
<polygon fill="white" stroke="#666666" points="316.5,-363.5 186.5,-363.5 186.5,-344.5 316.5,-344.5 316.5,-363.5"/>
<text text-anchor="middle" x="251.5" y="-351.5" font-family="Malgun Gothic" font-size="10.00">FToolbarStyle::Initialize</text>
</a>
</g>
</g>
<!-- Node1&#45;&gt;Node2 -->
<g id="edge1_Node000001_Node000002" class="edge">
<title>Node1&#45;&gt;Node2</title>
<g id="a_edge1_Node000001_Node000002"><a xlink:title=" ">
<path fill="none" stroke="#63b8ff" d="M79.42,-211.51C109.89,-236.89 193.39,-306.43 231.31,-338.02"/>
<polygon fill="#63b8ff" stroke="#63b8ff" points="229.16,-340.78 239.09,-344.5 233.64,-335.41 229.16,-340.78"/>
</a>
</g>
</g>
<!-- Node5 -->
<g id="Node000005" class="node">
<title>Node5</title>
<g id="a_Node000005"><a xlink:href="classFToolbar.html#a2df7b59ad21cce1d2f0437add0d4c6a7" target="_top" xlink:title="에디터 확장 프레임워크에 툴바 메뉴와 버튼을 등록합니다.">
<polygon fill="white" stroke="#666666" points="319.5,-211.5 183.5,-211.5 183.5,-192.5 319.5,-192.5 319.5,-211.5"/>
<text text-anchor="middle" x="251.5" y="-199.5" font-family="Malgun Gothic" font-size="10.00">FToolbar::RegisterMenus</text>
</a>
</g>
</g>
<!-- Node1&#45;&gt;Node5 -->
<g id="edge4_Node000001_Node000005" class="edge">
<title>Node1&#45;&gt;Node5</title>
<g id="a_edge4_Node000001_Node000005"><a xlink:title=" ">
<path fill="none" stroke="#63b8ff" d="M134.14,-202C146.78,-202 160.12,-202 173.07,-202"/>
<polygon fill="#63b8ff" stroke="#63b8ff" points="173.36,-205.5 183.36,-202 173.36,-198.5 173.36,-205.5"/>
</a>
</g>
</g>
<!-- Node30 -->
<g id="Node000030" class="node">
<title>Node30</title>
<g id="a_Node000030"><a xlink:href="classFToolbarStyle.html#a25dc5cccc853a63c3a324728580732b4" target="_top" xlink:title="디스크상의 리소스가 변경된 경우 텍스처를 다시 로드합니다.">
<polygon fill="white" stroke="#666666" points="333,-174.5 170,-174.5 170,-155.5 333,-155.5 333,-174.5"/>
<text text-anchor="middle" x="251.5" y="-162.5" font-family="Malgun Gothic" font-size="10.00">FToolbarStyle::ReloadTextures</text>
</a>
</g>
</g>
<!-- Node1&#45;&gt;Node30 -->
<g id="edge32_Node000001_Node000030" class="edge">
<title>Node1&#45;&gt;Node30</title>
<g id="a_edge32_Node000001_Node000030"><a xlink:title=" ">
<path fill="none" stroke="#63b8ff" d="M115,-192.47C138.96,-187.61 168.29,-181.67 193.53,-176.55"/>
<polygon fill="#63b8ff" stroke="#63b8ff" points="194.24,-179.98 203.34,-174.56 192.85,-173.12 194.24,-179.98"/>
</a>
</g>
</g>
<!-- Node3 -->
<g id="Node000003" class="node">
<title>Node3</title>
<g id="a_Node000003"><a xlink:href="classFToolbarStyle.html#ac15dcbb37ede65f4c248c0f10b71893c" target="_top" xlink:title="기본 이미지와 아이콘 등록을 포함한 스타일 세트를 생성합니다.">
<polygon fill="white" stroke="#666666" points="524,-499.5 404,-499.5 404,-480.5 524,-480.5 524,-499.5"/>
<text text-anchor="middle" x="464" y="-487.5" font-family="Malgun Gothic" font-size="10.00">FToolbarStyle::Create</text>
</a>
</g>
</g>
<!-- Node2&#45;&gt;Node3 -->
<g id="edge2_Node000002_Node000003" class="edge">
<title>Node2&#45;&gt;Node3</title>
<g id="a_edge2_Node000002_Node000003"><a xlink:title=" ">
<path fill="none" stroke="#63b8ff" d="M267.3,-363.56C303.38,-386.88 396.11,-446.78 439.7,-474.94"/>
<polygon fill="#63b8ff" stroke="#63b8ff" points="437.92,-477.96 448.21,-480.45 441.71,-472.08 437.92,-477.96"/>
</a>
</g>
</g>
<!-- Node4 -->
<g id="Node000004" class="node">
<title>Node4</title>
<g id="a_Node000004"><a xlink:href="FToolbarStyle_8cpp.html#a00bb33b9e673ad08782f7f01d6b75e7a" target="_top" xlink:title=" ">
<polygon fill="white" stroke="#666666" points="717.5,-521.5 650.5,-521.5 650.5,-502.5 717.5,-502.5 717.5,-521.5"/>
<text text-anchor="middle" x="684" y="-509.5" font-family="Malgun Gothic" font-size="10.00">Icon20x20</text>
</a>
</g>
</g>
<!-- Node3&#45;&gt;Node4 -->
<g id="edge3_Node000003_Node000004" class="edge">
<title>Node3&#45;&gt;Node4</title>
<g id="a_edge3_Node000003_Node000004"><a xlink:title=" ">
<path fill="none" stroke="#63b8ff" d="M524.28,-495.98C560.92,-499.68 607.08,-504.34 640.17,-507.68"/>
<polygon fill="#63b8ff" stroke="#63b8ff" points="640.12,-511.19 650.42,-508.71 640.83,-504.23 640.12,-511.19"/>
</a>
</g>
</g>
<!-- Node6 -->
<g id="Node000006" class="node">
<title>Node6</title>
<g id="a_Node000006"><a xlink:href="classFCommandFeature.html#ab546196898c4d540b74defb4fb9e2aed" target="_top" xlink:title="툴바용 명령 버튼 메뉴 위젯을 생성합니다.">
<polygon fill="white" stroke="#666666" points="544.5,-420 383.5,-420 383.5,-390 544.5,-390 544.5,-420"/>
<text text-anchor="start" x="391.5" y="-408" font-family="Malgun Gothic" font-size="10.00">FCommandFeature::Generate</text>
<text text-anchor="middle" x="464" y="-397" font-family="Malgun Gothic" font-size="10.00">CommandsMenu</text>
</a>
</g>
</g>
<!-- Node5&#45;&gt;Node6 -->
<g id="edge5_Node000005_Node000006" class="edge">
<title>Node5&#45;&gt;Node6</title>
<g id="a_edge5_Node000005_Node000006"><a xlink:title=" ">
<path fill="none" stroke="#63b8ff" d="M262.08,-211.63C281.89,-231.49 328.84,-278.4 369,-317 392.65,-339.74 420.08,-365.33 439.19,-383.03"/>
<polygon fill="#63b8ff" stroke="#63b8ff" points="436.86,-385.65 446.57,-389.87 441.61,-380.51 436.86,-385.65"/>
</a>
</g>
</g>
<!-- Node12 -->
<g id="Node000012" class="node">
<title>Node12</title>
<g id="a_Node000012"><a xlink:href="classFFolderFeature.html#a0a8ef98284f119128a494f801928083a" target="_top" xlink:title=" ">
<polygon fill="white" stroke="#666666" points="534,-260 394,-260 394,-230 534,-230 534,-260"/>
<text text-anchor="start" x="402" y="-248" font-family="Malgun Gothic" font-size="10.00">FFolderFeature::Generate</text>
<text text-anchor="middle" x="464" y="-237" font-family="Malgun Gothic" font-size="10.00">FolderMenu</text>
</a>
</g>
</g>
<!-- Node5&#45;&gt;Node12 -->
<g id="edge11_Node000005_Node000012" class="edge">
<title>Node5&#45;&gt;Node12</title>
<g id="a_edge11_Node000005_Node000012"><a xlink:title=" ">
<path fill="none" stroke="#63b8ff" d="M299.22,-211.54C324.03,-216.61 355.2,-222.98 383.68,-228.8"/>
<polygon fill="#63b8ff" stroke="#63b8ff" points="383.13,-232.26 393.62,-230.83 384.53,-225.4 383.13,-232.26"/>
</a>
</g>
</g>
<!-- Node15 -->
<g id="Node000015" class="node">
<title>Node15</title>
<g id="a_Node000015"><a xlink:href="classFLevelFeature.html#aff2925b502a52156786e925c1bd2af90" target="_top" xlink:title="레벨 선택 항목을 포함한 Slate 위젯을 구성합니다.">
<polygon fill="white" stroke="#666666" points="559,-211.5 369,-211.5 369,-192.5 559,-192.5 559,-211.5"/>
<text text-anchor="middle" x="464" y="-199.5" font-family="Malgun Gothic" font-size="10.00">FLevelFeature::GenerateLevelMenu</text>
</a>
</g>
</g>
<!-- Node5&#45;&gt;Node15 -->
<g id="edge14_Node000005_Node000015" class="edge">
<title>Node5&#45;&gt;Node15</title>
<g id="a_edge14_Node000005_Node000015"><a xlink:title=" ">
<path fill="none" stroke="#63b8ff" d="M319.68,-202C332.15,-202 345.43,-202 358.7,-202"/>
<polygon fill="#63b8ff" stroke="#63b8ff" points="358.83,-205.5 368.83,-202 358.83,-198.5 358.83,-205.5"/>
</a>
</g>
</g>
<!-- Node19 -->
<g id="Node000019" class="node">
<title>Node19</title>
<g id="a_Node000019"><a xlink:href="classFNetworkTestFeature.html#ab9441c5c29d671c35b50948d5c09e2ec" target="_top" xlink:title="네트워크 테스트 메뉴를 생성합니다.">
<polygon fill="white" stroke="#666666" points="541.5,-174 386.5,-174 386.5,-144 541.5,-144 541.5,-174"/>
<text text-anchor="start" x="394.5" y="-162" font-family="Malgun Gothic" font-size="10.00">FNetworkTestFeature</text>
<text text-anchor="middle" x="464" y="-151" font-family="Malgun Gothic" font-size="10.00">::GenerateNetworkTestMenu</text>
</a>
</g>
</g>
<!-- Node5&#45;&gt;Node19 -->
<g id="edge18_Node000005_Node000019" class="edge">
<title>Node5&#45;&gt;Node19</title>
<g id="a_edge18_Node000005_Node000019"><a xlink:title=" ">
<path fill="none" stroke="#63b8ff" d="M299.22,-192.46C322.84,-187.63 352.24,-181.63 379.57,-176.04"/>
<polygon fill="#63b8ff" stroke="#63b8ff" points="380.44,-179.44 389.54,-174.01 379.04,-172.58 380.44,-179.44"/>
</a>
</g>
</g>
<!-- Node22 -->
<g id="Node000022" class="node">
<title>Node22</title>
<g id="a_Node000022"><a xlink:href="classFScreenshotFeature.html#a56fc11b5f6023d5492e26d9354807082" target="_top" xlink:title="스크린샷 옵션을 제공하는 메뉴 위젯을 생성합니다.">
<polygon fill="white" stroke="#666666" points="538.5,-308 389.5,-308 389.5,-278 538.5,-278 538.5,-308"/>
<text text-anchor="start" x="397.5" y="-296" font-family="Malgun Gothic" font-size="10.00">FScreenshotFeature</text>
<text text-anchor="middle" x="464" y="-285" font-family="Malgun Gothic" font-size="10.00">::GenerateScreenshotMenu</text>
</a>
</g>
</g>
<!-- Node5&#45;&gt;Node22 -->
<g id="edge21_Node000005_Node000022" class="edge">
<title>Node5&#45;&gt;Node22</title>
<g id="a_edge21_Node000005_Node000022"><a xlink:title=" ">
<path fill="none" stroke="#63b8ff" d="M266.21,-211.55C287.37,-225.89 329.66,-253.01 369,-269 374.17,-271.1 379.57,-273.06 385.07,-274.88"/>
<polygon fill="#63b8ff" stroke="#63b8ff" points="384.43,-278.35 395.02,-278 386.53,-271.67 384.43,-278.35"/>
</a>
</g>
</g>
<!-- Node25 -->
<g id="Node000025" class="node">
<title>Node25</title>
<g id="a_Node000025"><a xlink:href="classFLevelFeature.html#a536602356f4e9dcdfcfbe85094782bdb" target="_top" xlink:title="선택된 맵 에셋을 에디터에서 엽니다.">
<polygon fill="white" stroke="#666666" points="537.5,-126 390.5,-126 390.5,-96 537.5,-96 537.5,-126"/>
<text text-anchor="start" x="398.5" y="-114" font-family="Malgun Gothic" font-size="10.00">FLevelFeature::OnSelected</text>
<text text-anchor="middle" x="464" y="-103" font-family="Malgun Gothic" font-size="10.00">Map_Open</text>
</a>
</g>
</g>
<!-- Node5&#45;&gt;Node25 -->
<g id="edge25_Node000005_Node000025" class="edge">
<title>Node5&#45;&gt;Node25</title>
<g id="a_edge25_Node000005_Node000025"><a xlink:title=" ">
<path fill="none" stroke="#63b8ff" d="M316.24,-192.35C322.15,-190.11 327.84,-187.37 333,-184 355.63,-169.22 346.6,-150.11 369,-135 372.79,-132.44 376.84,-130.15 381.05,-128.11"/>
<polygon fill="#63b8ff" stroke="#63b8ff" points="382.69,-131.21 390.46,-124.02 379.9,-124.79 382.69,-131.21"/>
</a>
</g>
</g>
<!-- Node28 -->
<g id="Node000028" class="node">
<title>Node28</title>
<g id="a_Node000028"><a xlink:href="classFLevelFeature.html#a31e8a2482aafbc4082a996e3a5a7a0d9" target="_top" xlink:title="선택된 맵으로 새로운 뷰포트에서 PIE를 실행합니다.">
<polygon fill="white" stroke="#666666" points="537.5,-30 390.5,-30 390.5,0 537.5,0 537.5,-30"/>
<text text-anchor="start" x="398.5" y="-18" font-family="Malgun Gothic" font-size="10.00">FLevelFeature::OnSelected</text>
<text text-anchor="middle" x="464" y="-7" font-family="Malgun Gothic" font-size="10.00">Map_PlayInEditor</text>
</a>
</g>
</g>
<!-- Node5&#45;&gt;Node28 -->
<g id="edge28_Node000005_Node000028" class="edge">
<title>Node5&#45;&gt;Node28</title>
<g id="a_edge28_Node000005_Node000028"><a xlink:title=" ">
<path fill="none" stroke="#63b8ff" d="M319.74,-193.34C324.6,-190.87 329.11,-187.8 333,-184 380.5,-137.6 322.2,-86.11 369,-39 372.69,-35.29 376.87,-32.12 381.36,-29.42"/>
<polygon fill="#63b8ff" stroke="#63b8ff" points="383.06,-32.49 390.35,-24.8 379.86,-26.26 383.06,-32.49"/>
</a>
</g>
</g>
<!-- Node29 -->
<g id="Node000029" class="node">
<title>Node29</title>
<g id="a_Node000029"><a xlink:href="classFLevelFeature.html#ad659ce46cd4d37948b219e9aa104c2b3" target="_top" xlink:title="선택된 맵으로 현재 뷰포트에서 PIE를 시작합니다.">
<polygon fill="white" stroke="#666666" points="538.5,-78 389.5,-78 389.5,-48 538.5,-48 538.5,-78"/>
<text text-anchor="start" x="397.5" y="-66" font-family="Malgun Gothic" font-size="10.00">FLevelFeature::OnSelected</text>
<text text-anchor="middle" x="464" y="-55" font-family="Malgun Gothic" font-size="10.00">Map_PlaySelectedViewport</text>
</a>
</g>
</g>
<!-- Node5&#45;&gt;Node29 -->
<g id="edge30_Node000005_Node000029" class="edge">
<title>Node5&#45;&gt;Node29</title>
<g id="a_edge30_Node000005_Node000029"><a xlink:title=" ">
<path fill="none" stroke="#63b8ff" d="M319.68,-192.67C324.49,-190.34 329.01,-187.48 333,-184 367.64,-153.76 334.82,-117.76 369,-87 372.4,-83.94 376.14,-81.26 380.11,-78.91"/>
<polygon fill="#63b8ff" stroke="#63b8ff" points="381.81,-81.97 389.11,-74.28 378.61,-75.74 381.81,-81.97"/>
</a>
</g>
</g>
<!-- Node7 -->
<g id="Node000007" class="node">
<title>Node7</title>
<g id="a_Node000007"><a xlink:href="classFCommon.html#a7f9a33df4cca4a9488e492d0043c284e" target="_top" xlink:title="전달된 이름으로 애플리케이션 스타일에서 Slate 아이콘을 조회합니다.">
<polygon fill="white" stroke="#666666" points="739,-484.5 629,-484.5 629,-465.5 739,-465.5 739,-484.5"/>
<text text-anchor="middle" x="684" y="-472.5" font-family="Malgun Gothic" font-size="10.00">FCommon::GetIcon</text>
</a>
</g>
</g>
<!-- Node6&#45;&gt;Node7 -->
<g id="edge6_Node000006_Node000007" class="edge">
<title>Node6&#45;&gt;Node7</title>
<g id="a_edge6_Node000006_Node000007"><a xlink:title=" ">
<path fill="none" stroke="#63b8ff" d="M498.96,-420.06C524.88,-431.14 561.69,-445.94 595,-456 603.68,-458.62 612.95,-461.03 622.09,-463.19"/>
<polygon fill="#63b8ff" stroke="#63b8ff" points="621.39,-466.62 631.92,-465.43 622.95,-459.8 621.39,-466.62"/>
</a>
</g>
</g>
<!-- Node9 -->
<g id="Node000009" class="node">
<title>Node9</title>
<g id="a_Node000009"><a xlink:href="classFCommandFeature.html#a08ab22cf9f7960c9b8f73c1f80eb981e" target="_top" xlink:title="지정된 툴바 버튼이 현재 토글되어 있는지 반환합니다.">
<polygon fill="white" stroke="#666666" points="762,-447 606,-447 606,-417 762,-417 762,-447"/>
<text text-anchor="start" x="614" y="-435" font-family="Malgun Gothic" font-size="10.00">FCommandFeature::IsButton</text>
<text text-anchor="middle" x="684" y="-424" font-family="Malgun Gothic" font-size="10.00">Toggled</text>
</a>
</g>
</g>
<!-- Node6&#45;&gt;Node9 -->
<g id="edge8_Node000006_Node000009" class="edge">
<title>Node6&#45;&gt;Node9</title>
<g id="a_edge8_Node000006_Node000009"><a xlink:title=" ">
<path fill="none" stroke="#63b8ff" d="M544.63,-414.86C561.15,-416.91 578.64,-419.07 595.42,-421.15"/>
<polygon fill="#63b8ff" stroke="#63b8ff" points="595.42,-424.68 605.77,-422.43 596.28,-417.73 595.42,-424.68"/>
</a>
</g>
</g>
<!-- Node10 -->
<g id="Node000010" class="node">
<title>Node10</title>
<g id="a_Node000010"><a xlink:href="classFCommandFeature.html#a3ff8a0398db30ce422496f2281dd3b60" target="_top" xlink:title="전달된 버튼 ID에 매핑된 명령을 실행합니다.">
<polygon fill="white" stroke="#666666" points="767.5,-399 600.5,-399 600.5,-369 767.5,-369 767.5,-399"/>
<text text-anchor="start" x="608.5" y="-387" font-family="Malgun Gothic" font-size="10.00">FCommandFeature::OnExecute</text>
<text text-anchor="middle" x="684" y="-376" font-family="Malgun Gothic" font-size="10.00">ButtonCommand</text>
</a>
</g>
</g>
<!-- Node6&#45;&gt;Node10 -->
<g id="edge9_Node000006_Node000010" class="edge">
<title>Node6&#45;&gt;Node10</title>
<g id="a_edge9_Node000006_Node000010"><a xlink:title=" ">
<path fill="none" stroke="#63b8ff" d="M544.63,-397.33C559.35,-395.91 574.85,-394.42 589.93,-392.97"/>
<polygon fill="#63b8ff" stroke="#63b8ff" points="590.67,-396.41 600.29,-391.97 590,-389.44 590.67,-396.41"/>
</a>
</g>
</g>
<!-- Node8 -->
<g id="Node000008" class="node">
<title>Node8</title>
<g id="a_Node000008"><a xlink:href="classFToolbarStyle.html#a3437f8f3e4dcd2c7b68de7b28fc2a95a" target="_top" xlink:title="Slate 스타일 세트를 참조할 때 사용할 이름을 반환합니다.">
<polygon fill="white" stroke="#666666" points="984,-484.5 809,-484.5 809,-465.5 984,-465.5 984,-484.5"/>
<text text-anchor="middle" x="896.5" y="-472.5" font-family="Malgun Gothic" font-size="10.00">FToolbarStyle::GetStyleSetName</text>
</a>
</g>
</g>
<!-- Node7&#45;&gt;Node8 -->
<g id="edge7_Node000007_Node000008" class="edge">
<title>Node7&#45;&gt;Node8</title>
<g id="a_edge7_Node000007_Node000008"><a xlink:title=" ">
<path fill="none" stroke="#63b8ff" d="M739.21,-475C757.42,-475 778.33,-475 798.8,-475"/>
<polygon fill="#63b8ff" stroke="#63b8ff" points="798.8,-478.5 808.8,-475 798.8,-471.5 798.8,-478.5"/>
</a>
</g>
</g>
<!-- Node11 -->
<g id="Node000011" class="node">
<title>Node11</title>
<g id="a_Node000011"><a xlink:href="classFCommon.html#ac247ef6e336abf6ca53b140d93ea07f9" target="_top" xlink:title="툴바 액션이 대상으로 삼는 활성 에디터 월드를 반환합니다.">
<polygon fill="white" stroke="#666666" points="972,-375 821,-375 821,-345 972,-345 972,-375"/>
<text text-anchor="start" x="829" y="-363" font-family="Malgun Gothic" font-size="10.00">FCommon::GetActiveTarget</text>
<text text-anchor="middle" x="896.5" y="-352" font-family="Malgun Gothic" font-size="10.00">World</text>
</a>
</g>
</g>
<!-- Node10&#45;&gt;Node11 -->
<g id="edge10_Node000010_Node000011" class="edge">
<title>Node10&#45;&gt;Node11</title>
<g id="a_edge10_Node000010_Node000011"><a xlink:title=" ">
<path fill="none" stroke="#63b8ff" d="M767.59,-374.58C781.68,-372.98 796.34,-371.31 810.49,-369.69"/>
<polygon fill="#63b8ff" stroke="#63b8ff" points="811.14,-373.14 820.68,-368.53 810.35,-366.19 811.14,-373.14"/>
</a>
</g>
</g>
<!-- Node13 -->
<g id="Node000013" class="node">
<title>Node13</title>
<g id="a_Node000013"><a xlink:href="classFFolderFeature.html#a703d4416dba2e4573735c8215f679e07" target="_top" xlink:title=" ">
<polygon fill="white" stroke="#666666" points="759.5,-254.5 608.5,-254.5 608.5,-235.5 759.5,-235.5 759.5,-254.5"/>
<text text-anchor="middle" x="684" y="-242.5" font-family="Malgun Gothic" font-size="10.00">FFolderFeature::OpenFolder</text>
</a>
</g>
</g>
<!-- Node12&#45;&gt;Node13 -->
<g id="edge12_Node000012_Node000013" class="edge">
<title>Node12&#45;&gt;Node13</title>
<g id="a_edge12_Node000012_Node000013"><a xlink:title=" ">
<path fill="none" stroke="#63b8ff" d="M534.28,-245C554.53,-245 576.9,-245 598,-245"/>
<polygon fill="#63b8ff" stroke="#63b8ff" points="598.25,-248.5 608.25,-245 598.25,-241.5 598.25,-248.5"/>
</a>
</g>
</g>
<!-- Node14 -->
<g id="Node000014" class="node">
<title>Node14</title>
<g id="a_Node000014"><a xlink:href="FolderFeature_8cpp.html#a3fc863edd05ee6943e920f7984e2805f" target="_top" xlink:title=" ">
<polygon fill="white" stroke="#666666" points="961.5,-254.5 831.5,-254.5 831.5,-235.5 961.5,-235.5 961.5,-254.5"/>
<text text-anchor="middle" x="896.5" y="-242.5" font-family="Malgun Gothic" font-size="10.00">ResolveProjectRelative</text>
</a>
</g>
</g>
<!-- Node13&#45;&gt;Node14 -->
<g id="edge13_Node000013_Node000014" class="edge">
<title>Node13&#45;&gt;Node14</title>
<g id="a_edge13_Node000013_Node000014"><a xlink:title=" ">
<path fill="none" stroke="#63b8ff" d="M759.51,-245C779.45,-245 801.01,-245 820.95,-245"/>
<polygon fill="#63b8ff" stroke="#63b8ff" points="821.22,-248.5 831.22,-245 821.22,-241.5 821.22,-248.5"/>
</a>
</g>
</g>
<!-- Node16 -->
<g id="Node000016" class="node">
<title>Node16</title>
<g id="a_Node000016"><a xlink:href="classUToolbarSettings.html#a839017a8f47a62d4127ad8527d2498ed" target="_top" xlink:title="레벨 선택 헬퍼가 사용할 검색 루트 경로를 수집합니다.">
<polygon fill="white" stroke="#666666" points="761.5,-217 606.5,-217 606.5,-187 761.5,-187 761.5,-217"/>
<text text-anchor="start" x="614.5" y="-205" font-family="Malgun Gothic" font-size="10.00">UToolbarSettings::GetSearch</text>
<text text-anchor="middle" x="684" y="-194" font-family="Malgun Gothic" font-size="10.00">Roots</text>
</a>
</g>
</g>
<!-- Node15&#45;&gt;Node16 -->
<g id="edge15_Node000015_Node000016" class="edge">
<title>Node15&#45;&gt;Node16</title>
<g id="a_edge15_Node000015_Node000016"><a xlink:title=" ">
<path fill="none" stroke="#63b8ff" d="M559.03,-202C571.37,-202 583.96,-202 596.17,-202"/>
<polygon fill="#63b8ff" stroke="#63b8ff" points="596.32,-205.5 606.32,-202 596.32,-198.5 596.32,-205.5"/>
</a>
</g>
</g>
<!-- Node18 -->
<g id="Node000018" class="node">
<title>Node18</title>
<g id="a_Node000018"><a xlink:href="classFLevelFeature.html#ac20da5828b1adc7686fbd96ba8abd1c8" target="_top" xlink:title="선택된 맵 패키지 이름을 저장합니다.">
<polygon fill="white" stroke="#666666" points="768,-168.5 600,-168.5 600,-149.5 768,-149.5 768,-168.5"/>
<text text-anchor="middle" x="684" y="-156.5" font-family="Malgun Gothic" font-size="10.00">FLevelFeature::OnSelectedMap</text>
</a>
</g>
</g>
<!-- Node15&#45;&gt;Node18 -->
<g id="edge17_Node000015_Node000018" class="edge">
<title>Node15&#45;&gt;Node18</title>
<g id="a_edge17_Node000015_Node000018"><a xlink:title=" ">
<path fill="none" stroke="#63b8ff" d="M513.38,-192.46C546.26,-185.97 589.93,-177.36 624.73,-170.49"/>
<polygon fill="#63b8ff" stroke="#63b8ff" points="625.62,-173.89 634.75,-168.52 624.27,-167.02 625.62,-173.89"/>
</a>
</g>
</g>
<!-- Node17 -->
<g id="Node000017" class="node">
<title>Node17</title>
<g id="a_Node000017"><a xlink:href="UToolbarSettings_8cpp.html#a93020a74b1d3099ceb4abe28cf3188d2" target="_top" xlink:title=" ">
<polygon fill="white" stroke="#666666" points="951.5,-211.5 841.5,-211.5 841.5,-192.5 951.5,-192.5 951.5,-211.5"/>
<text text-anchor="middle" x="896.5" y="-199.5" font-family="Malgun Gothic" font-size="10.00">NormalizeUserPath</text>
</a>
</g>
</g>
<!-- Node16&#45;&gt;Node17 -->
<g id="edge16_Node000016_Node000017" class="edge">
<title>Node16&#45;&gt;Node17</title>
<g id="a_edge16_Node000016_Node000017"><a xlink:title=" ">
<path fill="none" stroke="#63b8ff" d="M761.59,-202C784.42,-202 809.21,-202 831.17,-202"/>
<polygon fill="#63b8ff" stroke="#63b8ff" points="831.38,-205.5 841.38,-202 831.38,-198.5 831.38,-205.5"/>
</a>
</g>
</g>
<!-- Node20 -->
<g id="Node000020" class="node">
<title>Node20</title>
<g id="a_Node000020"><a xlink:href="classFNetworkTestFeature.html#aaa8c7bcd54f9d2536389e8bc301392e2" target="_top" xlink:title="API 요청을 실행합니다.">
<polygon fill="white" stroke="#666666" points="744,-131 624,-131 624,-101 744,-101 744,-131"/>
<text text-anchor="start" x="632" y="-119" font-family="Malgun Gothic" font-size="10.00">FNetworkTestFeature</text>
<text text-anchor="middle" x="684" y="-108" font-family="Malgun Gothic" font-size="10.00">::ExecuteApiRequest</text>
</a>
</g>
</g>
<!-- Node19&#45;&gt;Node20 -->
<g id="edge19_Node000019_Node000020" class="edge">
<title>Node19&#45;&gt;Node20</title>
<g id="a_edge19_Node000019_Node000020"><a xlink:title=" ">
<path fill="none" stroke="#63b8ff" d="M541.25,-143.96C564.88,-139.3 590.79,-134.19 613.91,-129.63"/>
<polygon fill="#63b8ff" stroke="#63b8ff" points="614.84,-133.01 623.97,-127.64 613.49,-126.14 614.84,-133.01"/>
</a>
</g>
</g>
<!-- Node21 -->
<g id="Node000021" class="node">
<title>Node21</title>
<g id="a_Node000021"><a xlink:href="ConsoleCurlCommand_8cpp.html#a88845a62bc20c97cff22d85c1cf071a6" target="_top" xlink:title=" ">
<polygon fill="white" stroke="#666666" points="933,-125.5 860,-125.5 860,-106.5 933,-106.5 933,-125.5"/>
<text text-anchor="middle" x="896.5" y="-113.5" font-family="Malgun Gothic" font-size="10.00">BuildFullUrl</text>
</a>
</g>
</g>
<!-- Node20&#45;&gt;Node21 -->
<g id="edge20_Node000020_Node000021" class="edge">
<title>Node20&#45;&gt;Node21</title>
<g id="a_edge20_Node000020_Node000021"><a xlink:title=" ">
<path fill="none" stroke="#63b8ff" d="M744.2,-116C777.63,-116 818.78,-116 849.72,-116"/>
<polygon fill="#63b8ff" stroke="#63b8ff" points="849.8,-119.5 859.8,-116 849.8,-112.5 849.8,-119.5"/>
</a>
</g>
</g>
<!-- Node23 -->
<g id="Node000023" class="node">
<title>Node23</title>
<g id="a_Node000023"><a xlink:href="classFScreenshotFeature.html#aaab75697de4685c906b26140e54301b6" target="_top" xlink:title="지정된 배율로 활성 뷰포트에 고해상도 캡처를 요청합니다.">
<polygon fill="white" stroke="#666666" points="751.5,-351 616.5,-351 616.5,-321 751.5,-321 751.5,-351"/>
<text text-anchor="start" x="624.5" y="-339" font-family="Malgun Gothic" font-size="10.00">FScreenshotFeature</text>
<text text-anchor="middle" x="684" y="-328" font-family="Malgun Gothic" font-size="10.00">::CaptureActiveViewport</text>
</a>
</g>
</g>
<!-- Node22&#45;&gt;Node23 -->
<g id="edge22_Node000022_Node000023" class="edge">
<title>Node22&#45;&gt;Node23</title>
<g id="a_edge22_Node000022_Node000023"><a xlink:title=" ">
<path fill="none" stroke="#63b8ff" d="M538.5,-307.5C560.37,-311.81 584.38,-316.55 606.43,-320.9"/>
<polygon fill="#63b8ff" stroke="#63b8ff" points="605.93,-324.36 616.42,-322.87 607.28,-317.5 605.93,-324.36"/>
</a>
</g>
</g>
<!-- Node24 -->
<g id="Node000024" class="node">
<title>Node24</title>
<g id="a_Node000024"><a xlink:href="classFScreenshotFeature.html#af01017cd01130c08bf1c63309ea1e2a6" target="_top" xlink:title="촬영된 스크린샷이 저장된 디렉터리를 엽니다.">
<polygon fill="white" stroke="#666666" points="749.5,-303 618.5,-303 618.5,-273 749.5,-273 749.5,-303"/>
<text text-anchor="start" x="626.5" y="-291" font-family="Malgun Gothic" font-size="10.00">FScreenshotFeature</text>
<text text-anchor="middle" x="684" y="-280" font-family="Malgun Gothic" font-size="10.00">::OnOpenScreenShotDir</text>
</a>
</g>
</g>
<!-- Node22&#45;&gt;Node24 -->
<g id="edge24_Node000022_Node000024" class="edge">
<title>Node22&#45;&gt;Node24</title>
<g id="a_edge24_Node000022_Node000024"><a xlink:title=" ">
<path fill="none" stroke="#63b8ff" d="M538.5,-291.31C560.9,-290.8 585.55,-290.24 608.05,-289.72"/>
<polygon fill="#63b8ff" stroke="#63b8ff" points="608.3,-293.21 618.22,-289.49 608.14,-286.22 608.3,-293.21"/>
</a>
</g>
</g>
<!-- Node23&#45;&gt;Node11 -->
<g id="edge23_Node000023_Node000011" class="edge">
<title>Node23&#45;&gt;Node11</title>
<g id="a_edge23_Node000023_Node000011"><a xlink:title=" ">
<path fill="none" stroke="#63b8ff" d="M751.6,-343.59C770.37,-345.73 791.05,-348.09 810.73,-350.33"/>
<polygon fill="#63b8ff" stroke="#63b8ff" points="810.58,-353.84 820.92,-351.5 811.38,-346.89 810.58,-353.84"/>
</a>
</g>
</g>
<!-- Node26 -->
<g id="Node000026" class="node">
<title>Node26</title>
<g id="a_Node000026"><a xlink:href="classFLevelFeature.html#a63493bc16dc28b58911d3b03c7833aee" target="_top" xlink:title="현재 선택된 맵 패키지를 에디터에 로드합니다.">
<polygon fill="white" stroke="#666666" points="773,-72.5 595,-72.5 595,-53.5 773,-53.5 773,-72.5"/>
<text text-anchor="middle" x="684" y="-60.5" font-family="Malgun Gothic" font-size="10.00">FLevelFeature::LoadSelectedMap</text>
</a>
</g>
</g>
<!-- Node25&#45;&gt;Node26 -->
<g id="edge26_Node000025_Node000026" class="edge">
<title>Node25&#45;&gt;Node26</title>
<g id="a_edge26_Node000025_Node000026"><a xlink:title=" ">
<path fill="none" stroke="#63b8ff" d="M533.38,-95.94C564.43,-89.11 600.62,-81.14 629.62,-74.75"/>
<polygon fill="#63b8ff" stroke="#63b8ff" points="630.55,-78.13 639.56,-72.56 629.04,-71.3 630.55,-78.13"/>
</a>
</g>
</g>
<!-- Node27 -->
<g id="Node000027" class="node">
<title>Node27</title>
<g id="a_Node000027"><a xlink:href="classFLevelFeature.html#aad2ad775628a12e462c1e85e90060415" target="_top" xlink:title="선택된 맵 에셋이 여전히 존재하는지 검증합니다.">
<polygon fill="white" stroke="#666666" points="971,-57 822,-57 822,-27 971,-27 971,-57"/>
<text text-anchor="start" x="830" y="-45" font-family="Malgun Gothic" font-size="10.00">FLevelFeature::EnsureValid</text>
<text text-anchor="middle" x="896.5" y="-34" font-family="Malgun Gothic" font-size="10.00">SelectedMap</text>
</a>
</g>
</g>
<!-- Node26&#45;&gt;Node27 -->
<g id="edge27_Node000026_Node000027" class="edge">
<title>Node26&#45;&gt;Node27</title>
<g id="a_edge27_Node000026_Node000027"><a xlink:title=" ">
<path fill="none" stroke="#63b8ff" d="M773.05,-54.22C785.85,-52.94 799,-51.63 811.72,-50.36"/>
<polygon fill="#63b8ff" stroke="#63b8ff" points="812.2,-53.83 821.8,-49.35 811.51,-46.86 812.2,-53.83"/>
</a>
</g>
</g>
<!-- Node28&#45;&gt;Node27 -->
<g id="edge29_Node000028_Node000027" class="edge">
<title>Node28&#45;&gt;Node27</title>
<g id="a_edge29_Node000028_Node000027"><a xlink:title=" ">
<path fill="none" stroke="#63b8ff" d="M537.54,-19.55C613.38,-24.31 732.22,-31.76 811.93,-36.76"/>
<polygon fill="#63b8ff" stroke="#63b8ff" points="811.74,-40.25 821.94,-37.39 812.18,-33.27 811.74,-40.25"/>
</a>
</g>
</g>
<!-- Node29&#45;&gt;Node26 -->
<g id="edge31_Node000029_Node000026" class="edge">
<title>Node29&#45;&gt;Node26</title>
<g id="a_edge31_Node000029_Node000026"><a xlink:title=" ">
<path fill="none" stroke="#63b8ff" d="M538.5,-63C553.31,-63 569.09,-63 584.59,-63"/>
<polygon fill="#63b8ff" stroke="#63b8ff" points="584.72,-66.5 594.72,-63 584.72,-59.5 584.72,-66.5"/>
</a>
</g>
</g>
</g>
</svg>

<g id="navigator" transform="translate(0 0)" fill="#404254">
  <rect fill="#f2f5e9" fill-opacity="0.5" stroke="#606060" stroke-width=".5" x="0" y="0" width="60" height="60"/>
  <use id="zoomplus" xlink:href="#zoomPlus" x="17" y="9" onmousedown="handleZoom(evt,'in')"/>
  <use id="zoomminus" xlink:href="#zoomMin" x="42" y="9" onmousedown="handleZoom(evt,'out')"/>
  <use id="reset" xlink:href="#resetDef" x="30" y="36" onmousedown="handleReset()"/>
   <use id="arrowup" xlink:href="#arrowUp" x="0" y="0" onmousedown="handlePan(0,-1)"/>
  <use id="arrowright" xlink:href="#arrowRight" x="0" y="0" onmousedown="handlePan(1,0)"/>
  <use id="arrowdown" xlink:href="#arrowDown" x="0" y="0" onmousedown="handlePan(0,1)"/>
  <use id="arrowleft" xlink:href="#arrowLeft" x="0" y="0" onmousedown="handlePan(-1,0)"/>
</g>
<svg viewBox="0 0 15 15" width="100%" height="30px" preserveAspectRatio="xMaxYMin meet">
 <g id="arrow_out" transform="scale(0.3 0.3)">
  <a xlink:href="classFToolbar_a29b321398a59346e3df4870366f89245_cgraph_org.svg" target="_base">
   <rect id="button" ry="5" rx="5" y="6" x="6" height="38" width="38"
        fill="#f2f5e9" fill-opacity="0.5" stroke="#606060" stroke-width="1.0"/>
   <path id="arrow"
     d="M 11.500037,31.436501 C 11.940474,20.09759 22.043105,11.32322 32.158766,21.979434 L 37.068811,17.246167 C 37.068811,17.246167 37.088388,32 37.088388,32 L 22.160133,31.978069 C 22.160133,31.978069 26.997745,27.140456 26.997745,27.140456 C 18.528582,18.264221 13.291696,25.230495 11.500037,31.436501 z"
     style="fill:#404040;"/>
  </a>
 </g>
</svg>

<style type='text/css'>
<![CDATA[
[data-mouse-over-selected='false'] { opacity: 0.7; }
[data-mouse-over-selected='true']  { opacity: 1.0; }
]]>
</style>
<script type="application/ecmascript"><![CDATA[
document.addEventListener('DOMContentLoaded', (event) => {
  highlightEdges();
  highlightAdjacentNodes();
});
]]></script>
</svg>
