<?xml version="1.0" encoding="UTF-8" standalone="no"?>
<!DOCTYPE svg PUBLIC "-//W3C//DTD SVG 1.1//EN"
 "http://www.w3.org/Graphics/SVG/1.1/DTD/svg11.dtd">
<!-- Generated by graphviz version 2.43.0 (0)
 -->
<!-- Title: FToolbarStyle::Initialize Pages: 1 -->
<svg width="397pt" height="27pt"
 viewBox="0.00 0.00 397.00 27.00" xmlns="http://www.w3.org/2000/svg" xmlns:xlink="http://www.w3.org/1999/xlink">
<g id="graph0" class="graph" transform="scale(1 1) rotate(0) translate(4 23)">
<title>FToolbarStyle::Initialize</title>
<!-- Node1 -->
<g id="Node000001" class="node">
<title>Node1</title>
<g id="a_Node000001"><a xlink:title="스타일 세트를 Slate 스타일 레지스트리에 등록합니다.">
<polygon fill="#999999" stroke="#666666" points="130,-19 0,-19 0,0 130,0 130,-19"/>
<text text-anchor="middle" x="65" y="-7" font-family="Malgun Gothic" font-size="10.00">FToolbarStyle::Initialize</text>
</a>
</g>
</g>
<!-- Node2 -->
<g id="Node000002" class="node">
<title>Node2</title>
<g id="a_Node000002"><a xlink:href="classFToolbarStyle.html#ac15dcbb37ede65f4c248c0f10b71893c" target="_top" xlink:title="기본 이미지와 아이콘 등록을 포함한 스타일 세트를 생성합니다.">
<polygon fill="white" stroke="#666666" points="286,-19 166,-19 166,0 286,0 286,-19"/>
<text text-anchor="middle" x="226" y="-7" font-family="Malgun Gothic" font-size="10.00">FToolbarStyle::Create</text>
</a>
</g>
</g>
<!-- Node1&#45;&gt;Node2 -->
<g id="edge1_Node000001_Node000002" class="edge">
<title>Node1&#45;&gt;Node2</title>
<g id="a_edge1_Node000001_Node000002"><a xlink:title=" ">
<path fill="none" stroke="#63b8ff" d="M130.21,-9.5C138.61,-9.5 147.24,-9.5 155.71,-9.5"/>
<polygon fill="#63b8ff" stroke="#63b8ff" points="155.94,-13 165.94,-9.5 155.94,-6 155.94,-13"/>
</a>
</g>
</g>
<!-- Node3 -->
<g id="Node000003" class="node">
<title>Node3</title>
<g id="a_Node000003"><a xlink:href="FToolbarStyle_8cpp.html#a00bb33b9e673ad08782f7f01d6b75e7a" target="_top" xlink:title=" ">
<polygon fill="white" stroke="#666666" points="389,-19 322,-19 322,0 389,0 389,-19"/>
<text text-anchor="middle" x="355.5" y="-7" font-family="Malgun Gothic" font-size="10.00">Icon20x20</text>
</a>
</g>
</g>
<!-- Node2&#45;&gt;Node3 -->
<g id="edge2_Node000002_Node000003" class="edge">
<title>Node2&#45;&gt;Node3</title>
<g id="a_edge2_Node000002_Node000003"><a xlink:title=" ">
<path fill="none" stroke="#63b8ff" d="M286.27,-9.5C294.87,-9.5 303.57,-9.5 311.76,-9.5"/>
<polygon fill="#63b8ff" stroke="#63b8ff" points="311.8,-13 321.8,-9.5 311.8,-6 311.8,-13"/>
</a>
</g>
</g>
</g>
</svg>
