<?xml version="1.0" encoding="UTF-8" standalone="no"?>
<!DOCTYPE svg PUBLIC "-//W3C//DTD SVG 1.1//EN"
 "http://www.w3.org/Graphics/SVG/1.1/DTD/svg11.dtd">
<!-- Generated by graphviz version 2.43.0 (0)
 -->
<!-- Title: FToolbar::StartupModule Pages: 1 -->
<svg width="992pt" height="436pt"
 viewBox="0.00 0.00 992.00 435.50" xmlns="http://www.w3.org/2000/svg" xmlns:xlink="http://www.w3.org/1999/xlink">
<g id="graph0" class="graph" transform="scale(1 1) rotate(0) translate(4 431.5)">
<title>FToolbar::StartupModule</title>
<!-- Node1 -->
<g id="Node000001" class="node">
<title>Node1</title>
<g id="a_Node000001"><a xlink:title="툴바 기능을 초기화하고 Slate 메뉴 확장을 등록합니다.">
<polygon fill="#999999" stroke="#666666" points="134,-163.5 0,-163.5 0,-144.5 134,-144.5 134,-163.5"/>
<text text-anchor="middle" x="67" y="-151.5" font-family="Malgun Gothic" font-size="10.00">FToolbar::StartupModule</text>
</a>
</g>
</g>
<!-- Node2 -->
<g id="Node000002" class="node">
<title>Node2</title>
<g id="a_Node000002"><a xlink:href="classFToolbarStyle.html#a5b48d0a9f7254d082193b3932bbd55bb" target="_top" xlink:title="스타일 세트를 Slate 스타일 레지스트리에 등록합니다.">
<polygon fill="white" stroke="#666666" points="316.5,-292.5 186.5,-292.5 186.5,-273.5 316.5,-273.5 316.5,-292.5"/>
<text text-anchor="middle" x="251.5" y="-280.5" font-family="Malgun Gothic" font-size="10.00">FToolbarStyle::Initialize</text>
</a>
</g>
</g>
<!-- Node1&#45;&gt;Node2 -->
<g id="edge1_Node000001_Node000002" class="edge">
<title>Node1&#45;&gt;Node2</title>
<g id="a_edge1_Node000001_Node000002"><a xlink:title=" ">
<path fill="none" stroke="#63b8ff" d="M81.72,-163.7C113.03,-185.83 190,-240.24 228.22,-267.25"/>
<polygon fill="#63b8ff" stroke="#63b8ff" points="226.44,-270.28 236.62,-273.19 230.48,-264.56 226.44,-270.28"/>
</a>
</g>
</g>
<!-- Node5 -->
<g id="Node000005" class="node">
<title>Node5</title>
<g id="a_Node000005"><a xlink:href="classFToolbar.html#a2df7b59ad21cce1d2f0437add0d4c6a7" target="_top" xlink:title="에디터 확장 프레임워크에 툴바 메뉴와 버튼을 등록합니다.">
<polygon fill="white" stroke="#666666" points="319.5,-163.5 183.5,-163.5 183.5,-144.5 319.5,-144.5 319.5,-163.5"/>
<text text-anchor="middle" x="251.5" y="-151.5" font-family="Malgun Gothic" font-size="10.00">FToolbar::RegisterMenus</text>
</a>
</g>
</g>
<!-- Node1&#45;&gt;Node5 -->
<g id="edge4_Node000001_Node000005" class="edge">
<title>Node1&#45;&gt;Node5</title>
<g id="a_edge4_Node000001_Node000005"><a xlink:title=" ">
<path fill="none" stroke="#63b8ff" d="M134.14,-154C146.78,-154 160.12,-154 173.07,-154"/>
<polygon fill="#63b8ff" stroke="#63b8ff" points="173.36,-157.5 183.36,-154 173.36,-150.5 173.36,-157.5"/>
</a>
</g>
</g>
<!-- Node24 -->
<g id="Node000024" class="node">
<title>Node24</title>
<g id="a_Node000024"><a xlink:href="classFToolbarStyle.html#a25dc5cccc853a63c3a324728580732b4" target="_top" xlink:title="디스크상의 리소스가 변경된 경우 텍스처를 다시 로드합니다.">
<polygon fill="white" stroke="#666666" points="333,-126.5 170,-126.5 170,-107.5 333,-107.5 333,-126.5"/>
<text text-anchor="middle" x="251.5" y="-114.5" font-family="Malgun Gothic" font-size="10.00">FToolbarStyle::ReloadTextures</text>
</a>
</g>
</g>
<!-- Node1&#45;&gt;Node24 -->
<g id="edge26_Node000001_Node000024" class="edge">
<title>Node1&#45;&gt;Node24</title>
<g id="a_edge26_Node000001_Node000024"><a xlink:title=" ">
<path fill="none" stroke="#63b8ff" d="M115,-144.47C138.96,-139.61 168.29,-133.67 193.53,-128.55"/>
<polygon fill="#63b8ff" stroke="#63b8ff" points="194.24,-131.98 203.34,-126.56 192.85,-125.12 194.24,-131.98"/>
</a>
</g>
</g>
<!-- Node3 -->
<g id="Node000003" class="node">
<title>Node3</title>
<g id="a_Node000003"><a xlink:href="classFToolbarStyle.html#ac15dcbb37ede65f4c248c0f10b71893c" target="_top" xlink:title="기본 이미지와 아이콘 등록을 포함한 스타일 세트를 생성합니다.">
<polygon fill="white" stroke="#666666" points="524,-405.5 404,-405.5 404,-386.5 524,-386.5 524,-405.5"/>
<text text-anchor="middle" x="464" y="-393.5" font-family="Malgun Gothic" font-size="10.00">FToolbarStyle::Create</text>
</a>
</g>
</g>
<!-- Node2&#45;&gt;Node3 -->
<g id="edge2_Node000002_Node000003" class="edge">
<title>Node2&#45;&gt;Node3</title>
<g id="a_edge2_Node000002_Node000003"><a xlink:title=" ">
<path fill="none" stroke="#63b8ff" d="M270.45,-292.63C307.5,-312.52 392.62,-358.22 436.21,-381.62"/>
<polygon fill="#63b8ff" stroke="#63b8ff" points="434.63,-384.74 445.1,-386.39 437.94,-378.58 434.63,-384.74"/>
</a>
</g>
</g>
<!-- Node4 -->
<g id="Node000004" class="node">
<title>Node4</title>
<g id="a_Node000004"><a xlink:href="FToolbarStyle_8cpp.html#a00bb33b9e673ad08782f7f01d6b75e7a" target="_top" xlink:title=" ">
<polygon fill="white" stroke="#666666" points="717.5,-427.5 650.5,-427.5 650.5,-408.5 717.5,-408.5 717.5,-427.5"/>
<text text-anchor="middle" x="684" y="-415.5" font-family="Malgun Gothic" font-size="10.00">Icon20x20</text>
</a>
</g>
</g>
<!-- Node3&#45;&gt;Node4 -->
<g id="edge3_Node000003_Node000004" class="edge">
<title>Node3&#45;&gt;Node4</title>
<g id="a_edge3_Node000003_Node000004"><a xlink:title=" ">
<path fill="none" stroke="#63b8ff" d="M524.28,-401.98C560.92,-405.68 607.08,-410.34 640.17,-413.68"/>
<polygon fill="#63b8ff" stroke="#63b8ff" points="640.12,-417.19 650.42,-414.71 640.83,-410.23 640.12,-417.19"/>
</a>
</g>
</g>
<!-- Node6 -->
<g id="Node000006" class="node">
<title>Node6</title>
<g id="a_Node000006"><a xlink:href="classFCommandFeature.html#ab546196898c4d540b74defb4fb9e2aed" target="_top" xlink:title="툴바용 명령 버튼 메뉴 위젯을 생성합니다.">
<polygon fill="white" stroke="#666666" points="544.5,-326 383.5,-326 383.5,-296 544.5,-296 544.5,-326"/>
<text text-anchor="start" x="391.5" y="-314" font-family="Malgun Gothic" font-size="10.00">FCommandFeature::Generate</text>
<text text-anchor="middle" x="464" y="-303" font-family="Malgun Gothic" font-size="10.00">CommandsMenu</text>
</a>
</g>
</g>
<!-- Node5&#45;&gt;Node6 -->
<g id="edge5_Node000005_Node000006" class="edge">
<title>Node5&#45;&gt;Node6</title>
<g id="a_edge5_Node000005_Node000006"><a xlink:title=" ">
<path fill="none" stroke="#63b8ff" d="M265.35,-163.58C298.63,-188.4 388.23,-255.23 434.49,-289.74"/>
<polygon fill="#63b8ff" stroke="#63b8ff" points="432.5,-292.61 442.6,-295.79 436.68,-287 432.5,-292.61"/>
</a>
</g>
</g>
<!-- Node12 -->
<g id="Node000012" class="node">
<title>Node12</title>
<g id="a_Node000012"><a xlink:href="classFLevelFeature.html#aff2925b502a52156786e925c1bd2af90" target="_top" xlink:title="레벨 선택 항목을 포함한 Slate 위젯을 구성합니다.">
<polygon fill="white" stroke="#666666" points="559,-163.5 369,-163.5 369,-144.5 559,-144.5 559,-163.5"/>
<text text-anchor="middle" x="464" y="-151.5" font-family="Malgun Gothic" font-size="10.00">FLevelFeature::GenerateLevelMenu</text>
</a>
</g>
</g>
<!-- Node5&#45;&gt;Node12 -->
<g id="edge11_Node000005_Node000012" class="edge">
<title>Node5&#45;&gt;Node12</title>
<g id="a_edge11_Node000005_Node000012"><a xlink:title=" ">
<path fill="none" stroke="#63b8ff" d="M319.68,-154C332.15,-154 345.43,-154 358.7,-154"/>
<polygon fill="#63b8ff" stroke="#63b8ff" points="358.83,-157.5 368.83,-154 358.83,-150.5 358.83,-157.5"/>
</a>
</g>
</g>
<!-- Node16 -->
<g id="Node000016" class="node">
<title>Node16</title>
<g id="a_Node000016"><a xlink:href="classFScreenshotFeature.html#a56fc11b5f6023d5492e26d9354807082" target="_top" xlink:title="스크린샷 옵션을 제공하는 메뉴 위젯을 생성합니다.">
<polygon fill="white" stroke="#666666" points="538.5,-212 389.5,-212 389.5,-182 538.5,-182 538.5,-212"/>
<text text-anchor="start" x="397.5" y="-200" font-family="Malgun Gothic" font-size="10.00">FScreenshotFeature</text>
<text text-anchor="middle" x="464" y="-189" font-family="Malgun Gothic" font-size="10.00">::GenerateScreenshotMenu</text>
</a>
</g>
</g>
<!-- Node5&#45;&gt;Node16 -->
<g id="edge15_Node000005_Node000016" class="edge">
<title>Node5&#45;&gt;Node16</title>
<g id="a_edge15_Node000005_Node000016"><a xlink:title=" ">
<path fill="none" stroke="#63b8ff" d="M299.22,-163.54C322.84,-168.37 352.24,-174.37 379.57,-179.96"/>
<polygon fill="#63b8ff" stroke="#63b8ff" points="379.04,-183.42 389.54,-181.99 380.44,-176.56 379.04,-183.42"/>
</a>
</g>
</g>
<!-- Node19 -->
<g id="Node000019" class="node">
<title>Node19</title>
<g id="a_Node000019"><a xlink:href="classFLevelFeature.html#a536602356f4e9dcdfcfbe85094782bdb" target="_top" xlink:title="선택된 맵 에셋을 에디터에서 엽니다.">
<polygon fill="white" stroke="#666666" points="537.5,-126 390.5,-126 390.5,-96 537.5,-96 537.5,-126"/>
<text text-anchor="start" x="398.5" y="-114" font-family="Malgun Gothic" font-size="10.00">FLevelFeature::OnSelected</text>
<text text-anchor="middle" x="464" y="-103" font-family="Malgun Gothic" font-size="10.00">Map_Open</text>
</a>
</g>
</g>
<!-- Node5&#45;&gt;Node19 -->
<g id="edge19_Node000005_Node000019" class="edge">
<title>Node5&#45;&gt;Node19</title>
<g id="a_edge19_Node000005_Node000019"><a xlink:title=" ">
<path fill="none" stroke="#63b8ff" d="M299.22,-144.46C323.06,-139.59 352.77,-133.52 380.32,-127.89"/>
<polygon fill="#63b8ff" stroke="#63b8ff" points="381.26,-131.27 390.36,-125.84 379.86,-124.41 381.26,-131.27"/>
</a>
</g>
</g>
<!-- Node22 -->
<g id="Node000022" class="node">
<title>Node22</title>
<g id="a_Node000022"><a xlink:href="classFLevelFeature.html#a31e8a2482aafbc4082a996e3a5a7a0d9" target="_top" xlink:title="선택된 맵으로 새로운 뷰포트에서 PIE를 실행합니다.">
<polygon fill="white" stroke="#666666" points="537.5,-30 390.5,-30 390.5,0 537.5,0 537.5,-30"/>
<text text-anchor="start" x="398.5" y="-18" font-family="Malgun Gothic" font-size="10.00">FLevelFeature::OnSelected</text>
<text text-anchor="middle" x="464" y="-7" font-family="Malgun Gothic" font-size="10.00">Map_PlayInEditor</text>
</a>
</g>
</g>
<!-- Node5&#45;&gt;Node22 -->
<g id="edge22_Node000005_Node000022" class="edge">
<title>Node5&#45;&gt;Node22</title>
<g id="a_edge22_Node000005_Node000022"><a xlink:title=" ">
<path fill="none" stroke="#63b8ff" d="M319.68,-144.67C324.49,-142.34 329.01,-139.48 333,-136 367.64,-105.76 334.82,-69.76 369,-39 372.64,-35.72 376.67,-32.88 380.95,-30.42"/>
<polygon fill="#63b8ff" stroke="#63b8ff" points="382.67,-33.47 390.05,-25.87 379.54,-27.21 382.67,-33.47"/>
</a>
</g>
</g>
<!-- Node23 -->
<g id="Node000023" class="node">
<title>Node23</title>
<g id="a_Node000023"><a xlink:href="classFLevelFeature.html#ad659ce46cd4d37948b219e9aa104c2b3" target="_top" xlink:title="선택된 맵으로 현재 뷰포트에서 PIE를 시작합니다.">
<polygon fill="white" stroke="#666666" points="538.5,-78 389.5,-78 389.5,-48 538.5,-48 538.5,-78"/>
<text text-anchor="start" x="397.5" y="-66" font-family="Malgun Gothic" font-size="10.00">FLevelFeature::OnSelected</text>
<text text-anchor="middle" x="464" y="-55" font-family="Malgun Gothic" font-size="10.00">Map_PlaySelectedViewport</text>
</a>
</g>
</g>
<!-- Node5&#45;&gt;Node23 -->
<g id="edge24_Node000005_Node000023" class="edge">
<title>Node5&#45;&gt;Node23</title>
<g id="a_edge24_Node000005_Node000023"><a xlink:title=" ">
<path fill="none" stroke="#63b8ff" d="M316.24,-144.35C322.15,-142.11 327.84,-139.37 333,-136 355.63,-121.22 346.6,-102.11 369,-87 372.53,-84.62 376.29,-82.47 380.18,-80.53"/>
<polygon fill="#63b8ff" stroke="#63b8ff" points="381.78,-83.65 389.5,-76.4 378.94,-77.26 381.78,-83.65"/>
</a>
</g>
</g>
<!-- Node7 -->
<g id="Node000007" class="node">
<title>Node7</title>
<g id="a_Node000007"><a xlink:href="classFCommon.html#a7f9a33df4cca4a9488e492d0043c284e" target="_top" xlink:title="전달된 이름으로 애플리케이션 스타일에서 Slate 아이콘을 조회합니다.">
<polygon fill="white" stroke="#666666" points="739,-390.5 629,-390.5 629,-371.5 739,-371.5 739,-390.5"/>
<text text-anchor="middle" x="684" y="-378.5" font-family="Malgun Gothic" font-size="10.00">FCommon::GetIcon</text>
</a>
</g>
</g>
<!-- Node6&#45;&gt;Node7 -->
<g id="edge6_Node000006_Node000007" class="edge">
<title>Node6&#45;&gt;Node7</title>
<g id="a_edge6_Node000006_Node000007"><a xlink:title=" ">
<path fill="none" stroke="#63b8ff" d="M498.96,-326.06C524.88,-337.14 561.69,-351.94 595,-362 603.68,-364.62 612.95,-367.03 622.09,-369.19"/>
<polygon fill="#63b8ff" stroke="#63b8ff" points="621.39,-372.62 631.92,-371.43 622.95,-365.8 621.39,-372.62"/>
</a>
</g>
</g>
<!-- Node9 -->
<g id="Node000009" class="node">
<title>Node9</title>
<g id="a_Node000009"><a xlink:href="classFCommandFeature.html#a08ab22cf9f7960c9b8f73c1f80eb981e" target="_top" xlink:title="지정된 툴바 버튼이 현재 토글되어 있는지 반환합니다.">
<polygon fill="white" stroke="#666666" points="762,-353 606,-353 606,-323 762,-323 762,-353"/>
<text text-anchor="start" x="614" y="-341" font-family="Malgun Gothic" font-size="10.00">FCommandFeature::IsButton</text>
<text text-anchor="middle" x="684" y="-330" font-family="Malgun Gothic" font-size="10.00">Toggled</text>
</a>
</g>
</g>
<!-- Node6&#45;&gt;Node9 -->
<g id="edge8_Node000006_Node000009" class="edge">
<title>Node6&#45;&gt;Node9</title>
<g id="a_edge8_Node000006_Node000009"><a xlink:title=" ">
<path fill="none" stroke="#63b8ff" d="M544.63,-320.86C561.15,-322.91 578.64,-325.07 595.42,-327.15"/>
<polygon fill="#63b8ff" stroke="#63b8ff" points="595.42,-330.68 605.77,-328.43 596.28,-323.73 595.42,-330.68"/>
</a>
</g>
</g>
<!-- Node10 -->
<g id="Node000010" class="node">
<title>Node10</title>
<g id="a_Node000010"><a xlink:href="classFCommandFeature.html#a3ff8a0398db30ce422496f2281dd3b60" target="_top" xlink:title="전달된 버튼 ID에 매핑된 명령을 실행합니다.">
<polygon fill="white" stroke="#666666" points="767.5,-305 600.5,-305 600.5,-275 767.5,-275 767.5,-305"/>
<text text-anchor="start" x="608.5" y="-293" font-family="Malgun Gothic" font-size="10.00">FCommandFeature::OnExecute</text>
<text text-anchor="middle" x="684" y="-282" font-family="Malgun Gothic" font-size="10.00">ButtonCommand</text>
</a>
</g>
</g>
<!-- Node6&#45;&gt;Node10 -->
<g id="edge9_Node000006_Node000010" class="edge">
<title>Node6&#45;&gt;Node10</title>
<g id="a_edge9_Node000006_Node000010"><a xlink:title=" ">
<path fill="none" stroke="#63b8ff" d="M544.63,-303.33C559.35,-301.91 574.85,-300.42 589.93,-298.97"/>
<polygon fill="#63b8ff" stroke="#63b8ff" points="590.67,-302.41 600.29,-297.97 590,-295.44 590.67,-302.41"/>
</a>
</g>
</g>
<!-- Node8 -->
<g id="Node000008" class="node">
<title>Node8</title>
<g id="a_Node000008"><a xlink:href="classFToolbarStyle.html#a3437f8f3e4dcd2c7b68de7b28fc2a95a" target="_top" xlink:title="Slate 스타일 세트를 참조할 때 사용할 이름을 반환합니다.">
<polygon fill="white" stroke="#666666" points="984,-390.5 809,-390.5 809,-371.5 984,-371.5 984,-390.5"/>
<text text-anchor="middle" x="896.5" y="-378.5" font-family="Malgun Gothic" font-size="10.00">FToolbarStyle::GetStyleSetName</text>
</a>
</g>
</g>
<!-- Node7&#45;&gt;Node8 -->
<g id="edge7_Node000007_Node000008" class="edge">
<title>Node7&#45;&gt;Node8</title>
<g id="a_edge7_Node000007_Node000008"><a xlink:title=" ">
<path fill="none" stroke="#63b8ff" d="M739.21,-381C757.42,-381 778.33,-381 798.8,-381"/>
<polygon fill="#63b8ff" stroke="#63b8ff" points="798.8,-384.5 808.8,-381 798.8,-377.5 798.8,-384.5"/>
</a>
</g>
</g>
<!-- Node11 -->
<g id="Node000011" class="node">
<title>Node11</title>
<g id="a_Node000011"><a xlink:href="classFCommon.html#ac247ef6e336abf6ca53b140d93ea07f9" target="_top" xlink:title="툴바 액션이 대상으로 삼는 활성 에디터 월드를 반환합니다.">
<polygon fill="white" stroke="#666666" points="972,-281 821,-281 821,-251 972,-251 972,-281"/>
<text text-anchor="start" x="829" y="-269" font-family="Malgun Gothic" font-size="10.00">FCommon::GetActiveTarget</text>
<text text-anchor="middle" x="896.5" y="-258" font-family="Malgun Gothic" font-size="10.00">World</text>
</a>
</g>
</g>
<!-- Node10&#45;&gt;Node11 -->
<g id="edge10_Node000010_Node000011" class="edge">
<title>Node10&#45;&gt;Node11</title>
<g id="a_edge10_Node000010_Node000011"><a xlink:title=" ">
<path fill="none" stroke="#63b8ff" d="M767.59,-280.58C781.68,-278.98 796.34,-277.31 810.49,-275.69"/>
<polygon fill="#63b8ff" stroke="#63b8ff" points="811.14,-279.14 820.68,-274.53 810.35,-272.19 811.14,-279.14"/>
</a>
</g>
</g>
<!-- Node13 -->
<g id="Node000013" class="node">
<title>Node13</title>
<g id="a_Node000013"><a xlink:href="classUToolbarSettings.html#a839017a8f47a62d4127ad8527d2498ed" target="_top" xlink:title="레벨 선택 헬퍼가 사용할 검색 루트 경로를 수집합니다.">
<polygon fill="white" stroke="#666666" points="761.5,-161 606.5,-161 606.5,-131 761.5,-131 761.5,-161"/>
<text text-anchor="start" x="614.5" y="-149" font-family="Malgun Gothic" font-size="10.00">UToolbarSettings::GetSearch</text>
<text text-anchor="middle" x="684" y="-138" font-family="Malgun Gothic" font-size="10.00">Roots</text>
</a>
</g>
</g>
<!-- Node12&#45;&gt;Node13 -->
<g id="edge12_Node000012_Node000013" class="edge">
<title>Node12&#45;&gt;Node13</title>
<g id="a_edge12_Node000012_Node000013"><a xlink:title=" ">
<path fill="none" stroke="#63b8ff" d="M559.03,-150.55C571.37,-150.1 583.96,-149.63 596.17,-149.19"/>
<polygon fill="#63b8ff" stroke="#63b8ff" points="596.45,-152.68 606.32,-148.81 596.2,-145.68 596.45,-152.68"/>
</a>
</g>
</g>
<!-- Node15 -->
<g id="Node000015" class="node">
<title>Node15</title>
<g id="a_Node000015"><a xlink:href="classFLevelFeature.html#ac20da5828b1adc7686fbd96ba8abd1c8" target="_top" xlink:title="선택된 맵 패키지 이름을 저장합니다.">
<polygon fill="white" stroke="#666666" points="768,-112.5 600,-112.5 600,-93.5 768,-93.5 768,-112.5"/>
<text text-anchor="middle" x="684" y="-100.5" font-family="Malgun Gothic" font-size="10.00">FLevelFeature::OnSelectedMap</text>
</a>
</g>
</g>
<!-- Node12&#45;&gt;Node15 -->
<g id="edge14_Node000012_Node000015" class="edge">
<title>Node12&#45;&gt;Node15</title>
<g id="a_edge14_Node000012_Node000015"><a xlink:title=" ">
<path fill="none" stroke="#63b8ff" d="M519.01,-144.5C532.18,-141.79 546.17,-138.59 559,-135 575.38,-130.41 578.65,-126.69 595,-122 604.03,-119.41 613.67,-116.98 623.14,-114.79"/>
<polygon fill="#63b8ff" stroke="#63b8ff" points="623.92,-118.21 632.91,-112.6 622.39,-111.38 623.92,-118.21"/>
</a>
</g>
</g>
<!-- Node14 -->
<g id="Node000014" class="node">
<title>Node14</title>
<g id="a_Node000014"><a xlink:href="UToolbarSettings_8cpp.html#a93020a74b1d3099ceb4abe28cf3188d2" target="_top" xlink:title="사용자 입력 디렉터리 문자열을 콘텐츠 루트 형식으로 정규화합니다.">
<polygon fill="white" stroke="#666666" points="951.5,-155.5 841.5,-155.5 841.5,-136.5 951.5,-136.5 951.5,-155.5"/>
<text text-anchor="middle" x="896.5" y="-143.5" font-family="Malgun Gothic" font-size="10.00">NormalizeUserPath</text>
</a>
</g>
</g>
<!-- Node13&#45;&gt;Node14 -->
<g id="edge13_Node000013_Node000014" class="edge">
<title>Node13&#45;&gt;Node14</title>
<g id="a_edge13_Node000013_Node000014"><a xlink:title=" ">
<path fill="none" stroke="#63b8ff" d="M761.59,-146C784.42,-146 809.21,-146 831.17,-146"/>
<polygon fill="#63b8ff" stroke="#63b8ff" points="831.38,-149.5 841.38,-146 831.38,-142.5 831.38,-149.5"/>
</a>
</g>
</g>
<!-- Node17 -->
<g id="Node000017" class="node">
<title>Node17</title>
<g id="a_Node000017"><a xlink:href="classFScreenshotFeature.html#aaab75697de4685c906b26140e54301b6" target="_top" xlink:title="지정된 배율로 활성 뷰포트에 고해상도 캡처를 요청합니다.">
<polygon fill="white" stroke="#666666" points="751.5,-257 616.5,-257 616.5,-227 751.5,-227 751.5,-257"/>
<text text-anchor="start" x="624.5" y="-245" font-family="Malgun Gothic" font-size="10.00">FScreenshotFeature</text>
<text text-anchor="middle" x="684" y="-234" font-family="Malgun Gothic" font-size="10.00">::CaptureActiveViewport</text>
</a>
</g>
</g>
<!-- Node16&#45;&gt;Node17 -->
<g id="edge16_Node000016_Node000017" class="edge">
<title>Node16&#45;&gt;Node17</title>
<g id="a_edge16_Node000016_Node000017"><a xlink:title=" ">
<path fill="none" stroke="#63b8ff" d="M537.89,-212.05C559.9,-216.59 584.12,-221.59 606.36,-226.18"/>
<polygon fill="#63b8ff" stroke="#63b8ff" points="605.92,-229.66 616.42,-228.26 607.34,-222.81 605.92,-229.66"/>
</a>
</g>
</g>
<!-- Node18 -->
<g id="Node000018" class="node">
<title>Node18</title>
<g id="a_Node000018"><a xlink:href="classFScreenshotFeature.html#af01017cd01130c08bf1c63309ea1e2a6" target="_top" xlink:title="촬영된 스크린샷이 저장된 디렉터리를 엽니다.">
<polygon fill="white" stroke="#666666" points="749.5,-209 618.5,-209 618.5,-179 749.5,-179 749.5,-209"/>
<text text-anchor="start" x="626.5" y="-197" font-family="Malgun Gothic" font-size="10.00">FScreenshotFeature</text>
<text text-anchor="middle" x="684" y="-186" font-family="Malgun Gothic" font-size="10.00">::OnOpenScreenShotDir</text>
</a>
</g>
</g>
<!-- Node16&#45;&gt;Node18 -->
<g id="edge18_Node000016_Node000018" class="edge">
<title>Node16&#45;&gt;Node18</title>
<g id="a_edge18_Node000016_Node000018"><a xlink:title=" ">
<path fill="none" stroke="#63b8ff" d="M538.5,-195.99C560.9,-195.68 585.55,-195.34 608.05,-195.03"/>
<polygon fill="#63b8ff" stroke="#63b8ff" points="608.27,-198.53 618.22,-194.89 608.17,-191.53 608.27,-198.53"/>
</a>
</g>
</g>
<!-- Node17&#45;&gt;Node11 -->
<g id="edge17_Node000017_Node000011" class="edge">
<title>Node17&#45;&gt;Node11</title>
<g id="a_edge17_Node000017_Node000011"><a xlink:title=" ">
<path fill="none" stroke="#63b8ff" d="M751.6,-249.59C770.37,-251.73 791.05,-254.09 810.73,-256.33"/>
<polygon fill="#63b8ff" stroke="#63b8ff" points="810.58,-259.84 820.92,-257.5 811.38,-252.89 810.58,-259.84"/>
</a>
</g>
</g>
<!-- Node20 -->
<g id="Node000020" class="node">
<title>Node20</title>
<g id="a_Node000020"><a xlink:href="classFLevelFeature.html#a63493bc16dc28b58911d3b03c7833aee" target="_top" xlink:title="현재 선택된 맵 패키지를 에디터에 로드합니다.">
<polygon fill="white" stroke="#666666" points="773,-72.5 595,-72.5 595,-53.5 773,-53.5 773,-72.5"/>
<text text-anchor="middle" x="684" y="-60.5" font-family="Malgun Gothic" font-size="10.00">FLevelFeature::LoadSelectedMap</text>
</a>
</g>
</g>
<!-- Node19&#45;&gt;Node20 -->
<g id="edge20_Node000019_Node000020" class="edge">
<title>Node19&#45;&gt;Node20</title>
<g id="a_edge20_Node000019_Node000020"><a xlink:title=" ">
<path fill="none" stroke="#63b8ff" d="M533.38,-95.94C564.43,-89.11 600.62,-81.14 629.62,-74.75"/>
<polygon fill="#63b8ff" stroke="#63b8ff" points="630.55,-78.13 639.56,-72.56 629.04,-71.3 630.55,-78.13"/>
</a>
</g>
</g>
<!-- Node21 -->
<g id="Node000021" class="node">
<title>Node21</title>
<g id="a_Node000021"><a xlink:href="classFLevelFeature.html#aad2ad775628a12e462c1e85e90060415" target="_top" xlink:title="선택된 맵 에셋이 여전히 존재하는지 검증합니다.">
<polygon fill="white" stroke="#666666" points="971,-59 822,-59 822,-29 971,-29 971,-59"/>
<text text-anchor="start" x="830" y="-47" font-family="Malgun Gothic" font-size="10.00">FLevelFeature::EnsureValid</text>
<text text-anchor="middle" x="896.5" y="-36" font-family="Malgun Gothic" font-size="10.00">SelectedMap</text>
</a>
</g>
</g>
<!-- Node20&#45;&gt;Node21 -->
<g id="edge21_Node000020_Node000021" class="edge">
<title>Node20&#45;&gt;Node21</title>
<g id="a_edge21_Node000020_Node000021"><a xlink:title=" ">
<path fill="none" stroke="#63b8ff" d="M773.05,-55.05C785.85,-53.9 799,-52.71 811.72,-51.56"/>
<polygon fill="#63b8ff" stroke="#63b8ff" points="812.16,-55.04 821.8,-50.65 811.53,-48.07 812.16,-55.04"/>
</a>
</g>
</g>
<!-- Node22&#45;&gt;Node21 -->
<g id="edge23_Node000022_Node000021" class="edge">
<title>Node22&#45;&gt;Node21</title>
<g id="a_edge23_Node000022_Node000021"><a xlink:title=" ">
<path fill="none" stroke="#63b8ff" d="M537.54,-19.89C613.38,-25 732.22,-33 811.93,-38.37"/>
<polygon fill="#63b8ff" stroke="#63b8ff" points="811.73,-41.86 821.94,-39.04 812.2,-34.88 811.73,-41.86"/>
</a>
</g>
</g>
<!-- Node23&#45;&gt;Node20 -->
<g id="edge25_Node000023_Node000020" class="edge">
<title>Node23&#45;&gt;Node20</title>
<g id="a_edge25_Node000023_Node000020"><a xlink:title=" ">
<path fill="none" stroke="#63b8ff" d="M538.5,-63C553.31,-63 569.09,-63 584.59,-63"/>
<polygon fill="#63b8ff" stroke="#63b8ff" points="584.72,-66.5 594.72,-63 584.72,-59.5 584.72,-66.5"/>
</a>
</g>
</g>
</g>
</svg>
