<?xml version="1.0" encoding="UTF-8" standalone="no"?>
<!DOCTYPE svg PUBLIC "-//W3C//DTD SVG 1.1//EN"
 "http://www.w3.org/Graphics/SVG/1.1/DTD/svg11.dtd">
<!-- Generated by graphviz version 2.43.0 (0)
 -->
<!-- Title: FFolderFeature::GenerateFolderMenu Pages: 1 -->
<svg width="501pt" height="38pt"
 viewBox="0.00 0.00 501.00 38.00" xmlns="http://www.w3.org/2000/svg" xmlns:xlink="http://www.w3.org/1999/xlink">
<g id="graph0" class="graph" transform="scale(1 1) rotate(0) translate(4 34)">
<title>FFolderFeature::GenerateFolderMenu</title>
<!-- Node1 -->
<g id="Node000001" class="node">
<title>Node1</title>
<g id="a_Node000001"><a xlink:title=" ">
<polygon fill="#999999" stroke="#666666" points="140,-30 0,-30 0,0 140,0 140,-30"/>
<text text-anchor="start" x="8" y="-18" font-family="Malgun Gothic" font-size="10.00">FFolderFeature::Generate</text>
<text text-anchor="middle" x="70" y="-7" font-family="Malgun Gothic" font-size="10.00">FolderMenu</text>
</a>
</g>
</g>
<!-- Node2 -->
<g id="Node000002" class="node">
<title>Node2</title>
<g id="a_Node000002"><a xlink:href="classFFolderFeature.html#a703d4416dba2e4573735c8215f679e07" target="_top" xlink:title=" ">
<polygon fill="white" stroke="#666666" points="327,-24.5 176,-24.5 176,-5.5 327,-5.5 327,-24.5"/>
<text text-anchor="middle" x="251.5" y="-12.5" font-family="Malgun Gothic" font-size="10.00">FFolderFeature::OpenFolder</text>
</a>
</g>
</g>
<!-- Node1&#45;&gt;Node2 -->
<g id="edge1_Node000001_Node000002" class="edge">
<title>Node1&#45;&gt;Node2</title>
<g id="a_edge1_Node000001_Node000002"><a xlink:title=" ">
<path fill="none" stroke="#63b8ff" d="M140.14,-15C148.52,-15 157.15,-15 165.72,-15"/>
<polygon fill="#63b8ff" stroke="#63b8ff" points="165.73,-18.5 175.73,-15 165.73,-11.5 165.73,-18.5"/>
</a>
</g>
</g>
<!-- Node3 -->
<g id="Node000003" class="node">
<title>Node3</title>
<g id="a_Node000003"><a xlink:href="FolderFeature_8cpp.html#a3fc863edd05ee6943e920f7984e2805f" target="_top" xlink:title=" ">
<polygon fill="white" stroke="#666666" points="493,-24.5 363,-24.5 363,-5.5 493,-5.5 493,-24.5"/>
<text text-anchor="middle" x="428" y="-12.5" font-family="Malgun Gothic" font-size="10.00">ResolveProjectRelative</text>
</a>
</g>
</g>
<!-- Node2&#45;&gt;Node3 -->
<g id="edge2_Node000002_Node000003" class="edge">
<title>Node2&#45;&gt;Node3</title>
<g id="a_edge2_Node000002_Node000003"><a xlink:title=" ">
<path fill="none" stroke="#63b8ff" d="M327.01,-15C335.51,-15 344.17,-15 352.66,-15"/>
<polygon fill="#63b8ff" stroke="#63b8ff" points="352.91,-18.5 362.91,-15 352.91,-11.5 352.91,-18.5"/>
</a>
</g>
</g>
</g>
</svg>
