<?xml version="1.0" encoding="UTF-8" standalone="no"?>
<!DOCTYPE svg PUBLIC "-//W3C//DTD SVG 1.1//EN"
 "http://www.w3.org/Graphics/SVG/1.1/DTD/svg11.dtd">
<!-- Generated by graphviz version 2.43.0 (0)
 -->
<!-- Title: UToolbarSettings Pages: 1 -->
<svg width="166pt" height="322pt"
 viewBox="0.00 0.00 166.00 322.00" xmlns="http://www.w3.org/2000/svg" xmlns:xlink="http://www.w3.org/1999/xlink">
<g id="graph0" class="graph" transform="scale(1 1) rotate(0) translate(4 318)">
<title>UToolbarSettings</title>
<!-- Node1 -->
<g id="Node000001" class="node">
<title>Node1</title>
<g id="a_Node000001"><a xlink:title="툴바 버튼 배치와 기능 토글을 정의하는 개발자 설정입니다.">
<polygon fill="#999999" stroke="transparent" points="158,-229 0,-229 0,0 158,0 158,-229"/>
<text text-anchor="start" x="37.5" y="-216.5" font-family="Malgun Gothic" font-size="10.00">UToolbarSettings</text>
<text text-anchor="start" x="4" y="-201.5" font-family="Malgun Gothic" font-size="10.00">+</text>
<text text-anchor="start" x="17" y="-201.5" font-family="Malgun Gothic" font-size="10.00">bEnableCommandFeature</text>
<text text-anchor="start" x="4" y="-186.5" font-family="Malgun Gothic" font-size="10.00">+</text>
<text text-anchor="start" x="17" y="-186.5" font-family="Malgun Gothic" font-size="10.00">bEnableFolderFeature</text>
<text text-anchor="start" x="4" y="-171.5" font-family="Malgun Gothic" font-size="10.00">+</text>
<text text-anchor="start" x="17" y="-171.5" font-family="Malgun Gothic" font-size="10.00">bEnableLevelFeature</text>
<text text-anchor="start" x="4" y="-156.5" font-family="Malgun Gothic" font-size="10.00">+</text>
<text text-anchor="start" x="17" y="-156.5" font-family="Malgun Gothic" font-size="10.00">bEnableNetworkTestFeature</text>
<text text-anchor="start" x="4" y="-141.5" font-family="Malgun Gothic" font-size="10.00">+</text>
<text text-anchor="start" x="17" y="-141.5" font-family="Malgun Gothic" font-size="10.00">bEnableScreenshotFeature</text>
<text text-anchor="start" x="4" y="-126.5" font-family="Malgun Gothic" font-size="10.00">+</text>
<text text-anchor="start" x="17" y="-126.5" font-family="Malgun Gothic" font-size="10.00">ExtraSearchPaths</text>
<text text-anchor="start" x="4" y="-111.5" font-family="Malgun Gothic" font-size="10.00">+</text>
<text text-anchor="start" x="17" y="-111.5" font-family="Malgun Gothic" font-size="10.00">FoldersToOpen</text>
<text text-anchor="start" x="4" y="-96.5" font-family="Malgun Gothic" font-size="10.00">+</text>
<text text-anchor="start" x="17" y="-96.5" font-family="Malgun Gothic" font-size="10.00">NetworkTests</text>
<text text-anchor="start" x="4" y="-81.5" font-family="Malgun Gothic" font-size="10.00">+</text>
<text text-anchor="start" x="17" y="-81.5" font-family="Malgun Gothic" font-size="10.00">NetworkTestUrl</text>
<text text-anchor="start" x="4" y="-66.5" font-family="Malgun Gothic" font-size="10.00">+</text>
<text text-anchor="start" x="17" y="-66.5" font-family="Malgun Gothic" font-size="10.00">ToolbarButtons</text>
<text text-anchor="start" x="4" y="-51.5" font-family="Malgun Gothic" font-size="10.00">+</text>
<text text-anchor="start" x="17" y="-51.5" font-family="Malgun Gothic" font-size="10.00">UToolbarSettings()</text>
<text text-anchor="start" x="4" y="-36.5" font-family="Malgun Gothic" font-size="10.00">+</text>
<text text-anchor="start" x="17" y="-36.5" font-family="Malgun Gothic" font-size="10.00">GetCategoryName()</text>
<text text-anchor="start" x="4" y="-21.5" font-family="Malgun Gothic" font-size="10.00">+</text>
<text text-anchor="start" x="17" y="-21.5" font-family="Malgun Gothic" font-size="10.00">GetSectionName()</text>
<text text-anchor="start" x="4" y="-6.5" font-family="Malgun Gothic" font-size="10.00">+</text>
<text text-anchor="start" x="17" y="-6.5" font-family="Malgun Gothic" font-size="10.00">GetSearchRoots()</text>
<polygon fill="#666666" stroke="#666666" points="0,-211.5 0,-211.5 158,-211.5 158,-211.5 0,-211.5"/>
<polygon fill="#666666" stroke="#666666" points="0,-61.5 0,-61.5 15,-61.5 15,-61.5 0,-61.5"/>
<polygon fill="#666666" stroke="#666666" points="15,-61.5 15,-61.5 158,-61.5 158,-61.5 15,-61.5"/>
<polygon fill="none" stroke="#666666" points="0,0 0,-229 158,-229 158,0 0,0"/>
</a>
</g>
</g>
<!-- Node2 -->
<g id="Node000002" class="node">
<title>Node2</title>
<g id="a_Node000002"><a xlink:title=" ">
<polygon fill="white" stroke="transparent" points="133,-314 25,-314 25,-265 133,-265 133,-314"/>
<text text-anchor="start" x="30" y="-301.5" font-family="Malgun Gothic" font-size="10.00">UDeveloperSettings</text>
<text text-anchor="start" x="77" y="-286.5" font-family="Malgun Gothic" font-size="10.00"> </text>
<text text-anchor="start" x="77" y="-271.5" font-family="Malgun Gothic" font-size="10.00"> </text>
<polygon fill="#666666" stroke="#666666" points="25,-296.5 25,-296.5 133,-296.5 133,-296.5 25,-296.5"/>
<polygon fill="#666666" stroke="#666666" points="25,-281.5 25,-281.5 133,-281.5 133,-281.5 25,-281.5"/>
<polygon fill="none" stroke="#666666" points="25,-265 25,-314 133,-314 133,-265 25,-265"/>
</a>
</g>
</g>
<!-- Node2&#45;&gt;Node1 -->
<g id="edge1_Node000001_Node000002" class="edge">
<title>Node2&#45;&gt;Node1</title>
<g id="a_edge1_Node000001_Node000002"><a xlink:title=" ">
<path fill="none" stroke="#63b8ff" d="M79,-254.77C79,-246.96 79,-238.21 79,-229.01"/>
<polygon fill="none" stroke="#63b8ff" points="75.5,-254.81 79,-264.81 82.5,-254.81 75.5,-254.81"/>
</a>
</g>
</g>
</g>
</svg>
