<?xml version="1.0" encoding="UTF-8" standalone="no"?>
<!DOCTYPE svg PUBLIC "-//W3C//DTD SVG 1.1//EN"
 "http://www.w3.org/Graphics/SVG/1.1/DTD/svg11.dtd">
<!-- Generated by graphviz version 2.43.0 (0)
 -->
<!-- Title: FNetworkTestFeature::GenerateNetworkTestMenu Pages: 1 -->
<svg width="428pt" height="38pt"
 viewBox="0.00 0.00 428.00 38.00" xmlns="http://www.w3.org/2000/svg" xmlns:xlink="http://www.w3.org/1999/xlink">
<g id="graph0" class="graph" transform="scale(1 1) rotate(0) translate(4 34)">
<title>FNetworkTestFeature::GenerateNetworkTestMenu</title>
<!-- Node1 -->
<g id="Node000001" class="node">
<title>Node1</title>
<g id="a_Node000001"><a xlink:title="네트워크 테스트 메뉴를 생성합니다.">
<polygon fill="#999999" stroke="#666666" points="155,-30 0,-30 0,0 155,0 155,-30"/>
<text text-anchor="start" x="8" y="-18" font-family="Malgun Gothic" font-size="10.00">FNetworkTestFeature</text>
<text text-anchor="middle" x="77.5" y="-7" font-family="Malgun Gothic" font-size="10.00">::GenerateNetworkTestMenu</text>
</a>
</g>
</g>
<!-- Node2 -->
<g id="Node000002" class="node">
<title>Node2</title>
<g id="a_Node000002"><a xlink:href="classFNetworkTestFeature.html#aaa8c7bcd54f9d2536389e8bc301392e2" target="_top" xlink:title="API 요청을 실행합니다.">
<polygon fill="white" stroke="#666666" points="311,-30 191,-30 191,0 311,0 311,-30"/>
<text text-anchor="start" x="199" y="-18" font-family="Malgun Gothic" font-size="10.00">FNetworkTestFeature</text>
<text text-anchor="middle" x="251" y="-7" font-family="Malgun Gothic" font-size="10.00">::ExecuteApiRequest</text>
</a>
</g>
</g>
<!-- Node1&#45;&gt;Node2 -->
<g id="edge1_Node000001_Node000002" class="edge">
<title>Node1&#45;&gt;Node2</title>
<g id="a_edge1_Node000001_Node000002"><a xlink:title=" ">
<path fill="none" stroke="#63b8ff" d="M155.22,-15C163.72,-15 172.33,-15 180.73,-15"/>
<polygon fill="#63b8ff" stroke="#63b8ff" points="180.84,-18.5 190.84,-15 180.84,-11.5 180.84,-18.5"/>
</a>
</g>
</g>
<!-- Node3 -->
<g id="Node000003" class="node">
<title>Node3</title>
<g id="a_Node000003"><a xlink:href="ConsoleCurlCommand_8cpp.html#a88845a62bc20c97cff22d85c1cf071a6" target="_top" xlink:title=" ">
<polygon fill="white" stroke="#666666" points="420,-24.5 347,-24.5 347,-5.5 420,-5.5 420,-24.5"/>
<text text-anchor="middle" x="383.5" y="-12.5" font-family="Malgun Gothic" font-size="10.00">BuildFullUrl</text>
</a>
</g>
</g>
<!-- Node2&#45;&gt;Node3 -->
<g id="edge2_Node000002_Node000003" class="edge">
<title>Node2&#45;&gt;Node3</title>
<g id="a_edge2_Node000002_Node000003"><a xlink:title=" ">
<path fill="none" stroke="#63b8ff" d="M311.14,-15C319.68,-15 328.35,-15 336.58,-15"/>
<polygon fill="#63b8ff" stroke="#63b8ff" points="336.71,-18.5 346.71,-15 336.71,-11.5 336.71,-18.5"/>
</a>
</g>
</g>
</g>
</svg>
