<?xml version="1.0" encoding="UTF-8" standalone="no"?>
<!DOCTYPE svg PUBLIC "-//W3C//DTD SVG 1.1//EN"
 "http://www.w3.org/Graphics/SVG/1.1/DTD/svg11.dtd">
<!-- Generated by graphviz version 2.43.0 (0)
 -->
<!-- Title: FLevelFeature Pages: 1 -->
<svg width="177pt" height="203pt"
 viewBox="0.00 0.00 177.00 203.00" xmlns="http://www.w3.org/2000/svg" xmlns:xlink="http://www.w3.org/1999/xlink">
<g id="graph0" class="graph" transform="scale(1 1) rotate(0) translate(4 199)">
<title>FLevelFeature</title>
<!-- Node1 -->
<g id="Node000001" class="node">
<title>Node1</title>
<g id="a_Node000001"><a xlink:title="빠른 레벨 전환을 위한 월드 검색과 에디터 명령을 처리합니다.">
<polygon fill="#999999" stroke="transparent" points="169,-195 0,-195 0,0 169,0 169,-195"/>
<text text-anchor="start" x="50" y="-182.5" font-family="Malgun Gothic" font-size="10.00">FLevelFeature</text>
<text text-anchor="start" x="4.5" y="-167.5" font-family="Malgun Gothic" font-size="10.00">+</text>
<text text-anchor="start" x="17.5" y="-167.5" font-family="Malgun Gothic" font-size="10.00">SelectedMapPackage</text>
<text text-anchor="start" x="4.5" y="-152.5" font-family="Malgun Gothic" font-size="10.00">+</text>
<text text-anchor="start" x="17.5" y="-152.5" font-family="Malgun Gothic" font-size="10.00">FLevelFeature()</text>
<text text-anchor="start" x="4.5" y="-137.5" font-family="Malgun Gothic" font-size="10.00">+</text>
<text text-anchor="start" x="17.5" y="-137.5" font-family="Malgun Gothic" font-size="10.00">EnsureDefaultSelection()</text>
<text text-anchor="start" x="4.5" y="-122.5" font-family="Malgun Gothic" font-size="10.00">+</text>
<text text-anchor="start" x="17.5" y="-122.5" font-family="Malgun Gothic" font-size="10.00">GenerateLevelMenu()</text>
<text text-anchor="start" x="4.5" y="-107.5" font-family="Malgun Gothic" font-size="10.00">+</text>
<text text-anchor="start" x="17.5" y="-107.5" font-family="Malgun Gothic" font-size="10.00">OnSelectedMap()</text>
<text text-anchor="start" x="4.5" y="-92.5" font-family="Malgun Gothic" font-size="10.00">+</text>
<text text-anchor="start" x="17.5" y="-92.5" font-family="Malgun Gothic" font-size="10.00">OnSelectedMap_Open()</text>
<text text-anchor="start" x="4.5" y="-77.5" font-family="Malgun Gothic" font-size="10.00">+</text>
<text text-anchor="start" x="17.5" y="-77.5" font-family="Malgun Gothic" font-size="10.00">OnSelectedMap_PlayInEditor()</text>
<text text-anchor="start" x="4.5" y="-62.5" font-family="Malgun Gothic" font-size="10.00">+</text>
<text text-anchor="start" x="17.5" y="-62.5" font-family="Malgun Gothic" font-size="10.00">OnSelectedMap_PlaySelected</text>
<text text-anchor="start" x="17.5" y="-51.5" font-family="Malgun Gothic" font-size="10.00">Viewport()</text>
<text text-anchor="start" x="7" y="-36.5" font-family="Malgun Gothic" font-size="10.00">&#45;</text>
<text text-anchor="start" x="17.5" y="-36.5" font-family="Malgun Gothic" font-size="10.00">CollectWorlds()</text>
<text text-anchor="start" x="7" y="-21.5" font-family="Malgun Gothic" font-size="10.00">&#45;</text>
<text text-anchor="start" x="17.5" y="-21.5" font-family="Malgun Gothic" font-size="10.00">EnsureValidSelectedMap()</text>
<text text-anchor="start" x="7" y="-6.5" font-family="Malgun Gothic" font-size="10.00">&#45;</text>
<text text-anchor="start" x="17.5" y="-6.5" font-family="Malgun Gothic" font-size="10.00">LoadSelectedMap()</text>
<polygon fill="#666666" stroke="#666666" points="0.5,-177.5 0.5,-177.5 169.5,-177.5 169.5,-177.5 0.5,-177.5"/>
<polygon fill="#666666" stroke="#666666" points="0.5,-162.5 0.5,-162.5 15.5,-162.5 15.5,-162.5 0.5,-162.5"/>
<polygon fill="#666666" stroke="#666666" points="15.5,-162.5 15.5,-162.5 169.5,-162.5 169.5,-162.5 15.5,-162.5"/>
<polygon fill="none" stroke="#666666" points="0,0 0,-195 169,-195 169,0 0,0"/>
</a>
</g>
</g>
</g>
</svg>
