<?xml version="1.0" encoding="UTF-8" standalone="no"?>
<!DOCTYPE svg PUBLIC "-//W3C//DTD SVG 1.1//EN"
 "http://www.w3.org/Graphics/SVG/1.1/DTD/svg11.dtd">
<!-- Generated by graphviz version 2.43.0 (0)
 -->
<!-- Title: FToolbar::RegisterMenus Pages: 1 -->
<!--zoomable 436 -->

<svg id="main" version="1.1" xmlns="http://www.w3.org/2000/svg" xmlns:xlink="http://www.w3.org/1999/xlink" xml:space="preserve" onload="init(evt)">
<style type="text/css"><![CDATA[
.node, .edge {opacity: 0.7;}
.node.selected, .edge.selected {opacity: 1;}
.edge:hover path { stroke: red; }
.edge:hover polygon { stroke: red; fill: red; }
]]></style>

<defs>
  <circle id="rim" cx="0" cy="0" r="7"/>
  <circle id="rim2" cx="0" cy="0" r="3.5"/>
  <g id="zoomPlus">
    <use xlink:href="#rim" fill="#404040"><set attributeName="fill" to="#808080" begin="zoomplus.mouseover" end="zoomplus.mouseout"/></use>
    <path d="M-4,0h8M0,-4v8" fill="none" stroke="white" stroke-width="1.5" pointer-events="none"/>
  </g>
  <g id="zoomMin">
    <use xlink:href="#rim" fill="#404040"><set attributeName="fill" to="#808080" begin="zoomminus.mouseover" end="zoomminus.mouseout"/></use>
    <path d="M-4,0h8" fill="none" stroke="white" stroke-width="1.5" pointer-events="none"/>
  </g>
  <g id="arrowUp" transform="translate(30 24)">
    <use xlink:href="#rim"/>
    <path pointer-events="none" fill="none" stroke="white" stroke-width="1.5" d="M0,-3.0v7 M-2.5,-0.5L0,-3.0L2.5,-0.5"/>
  </g>
  <g id="arrowRight" transform="rotate(90) translate(36 -43)">
    <use xlink:href="#rim"/>
    <path pointer-events="none" fill="none" stroke="white" stroke-width="1.5" d="M0,-3.0v7 M-2.5,-0.5L0,-3.0L2.5,-0.5"/>
  </g>
  <g id="arrowDown" transform="rotate(180) translate(-30 -48)">
    <use xlink:href="#rim"/>
    <path pointer-events="none" fill="none" stroke="white" stroke-width="1.5" d="M0,-3.0v7 M-2.5,-0.5L0,-3.0L2.5,-0.5"/>
  </g>
  <g id="arrowLeft" transform="rotate(270) translate(-36 17)">
    <use xlink:href="#rim"/>
    <path pointer-events="none" fill="none" stroke="white" stroke-width="1.5" d="M0,-3.0v7 M-2.5,-0.5L0,-3.0L2.5,-0.5"/>
  </g>
  <g id="resetDef">
    <use xlink:href="#rim2" fill="#404040"><set attributeName="fill" to="#808080" begin="reset.mouseover" end="reset.mouseout"/></use>
  </g>
</defs>
<script type="application/ecmascript">
var viewWidth = 795;
var viewHeight = 436;
var sectionId = 'dynsection-2';
</script>
<script type="application/ecmascript" xlink:href="svg.min.js"/>
<svg id="graph" class="graph">
<g id="viewport">
<title>FToolbar::RegisterMenus</title>
<!-- Node1 -->
<g id="Node000001" class="node">
<title>Node1</title>
<g id="a_Node000001"><a xlink:title="에디터 확장 프레임워크에 툴바 메뉴와 버튼을 등록합니다.">
<polygon fill="#999999" stroke="#666666" points="136,-163.5 0,-163.5 0,-144.5 136,-144.5 136,-163.5"/>
<text text-anchor="middle" x="68" y="-151.5" font-family="Malgun Gothic" font-size="10.00">FToolbar::RegisterMenus</text>
</a>
</g>
</g>
<!-- Node2 -->
<g id="Node000002" class="node">
<title>Node2</title>
<g id="a_Node000002"><a xlink:href="classFCommandFeature.html#ab546196898c4d540b74defb4fb9e2aed" target="_top" xlink:title="툴바용 명령 버튼 메뉴 위젯을 생성합니다.">
<polygon fill="white" stroke="#666666" points="347.5,-325 186.5,-325 186.5,-295 347.5,-295 347.5,-325"/>
<text text-anchor="start" x="194.5" y="-313" font-family="Malgun Gothic" font-size="10.00">FCommandFeature::Generate</text>
<text text-anchor="middle" x="267" y="-302" font-family="Malgun Gothic" font-size="10.00">CommandsMenu</text>
</a>
</g>
</g>
<!-- Node1&#45;&gt;Node2 -->
<g id="edge1_Node000001_Node000002" class="edge">
<title>Node1&#45;&gt;Node2</title>
<g id="a_edge1_Node000001_Node000002"><a xlink:title=" ">
<path fill="none" stroke="#63b8ff" d="M81.03,-163.52C112.1,-188.13 195.68,-254.31 239.05,-288.66"/>
<polygon fill="#63b8ff" stroke="#63b8ff" points="236.9,-291.42 246.91,-294.88 241.25,-285.93 236.9,-291.42"/>
</a>
</g>
</g>
<!-- Node8 -->
<g id="Node000008" class="node">
<title>Node8</title>
<g id="a_Node000008"><a xlink:href="classFFolderFeature.html#a0a8ef98284f119128a494f801928083a" target="_top" xlink:title=" ">
<polygon fill="white" stroke="#666666" points="337,-413 197,-413 197,-383 337,-383 337,-413"/>
<text text-anchor="start" x="205" y="-401" font-family="Malgun Gothic" font-size="10.00">FFolderFeature::Generate</text>
<text text-anchor="middle" x="267" y="-390" font-family="Malgun Gothic" font-size="10.00">FolderMenu</text>
</a>
</g>
</g>
<!-- Node1&#45;&gt;Node8 -->
<g id="edge7_Node000001_Node000008" class="edge">
<title>Node1&#45;&gt;Node8</title>
<g id="a_edge7_Node000001_Node000008"><a xlink:title=" ">
<path fill="none" stroke="#63b8ff" d="M72.65,-163.56C83.89,-192.11 120.42,-278.23 172,-334 188.13,-351.44 209.86,-366.62 228.36,-377.82"/>
<polygon fill="#63b8ff" stroke="#63b8ff" points="226.76,-380.93 237.15,-382.99 230.31,-374.9 226.76,-380.93"/>
</a>
</g>
</g>
<!-- Node11 -->
<g id="Node000011" class="node">
<title>Node11</title>
<g id="a_Node000011"><a xlink:href="classFLevelFeature.html#aff2925b502a52156786e925c1bd2af90" target="_top" xlink:title="레벨 선택 항목을 포함한 Slate 위젯을 구성합니다.">
<polygon fill="white" stroke="#666666" points="362,-163.5 172,-163.5 172,-144.5 362,-144.5 362,-163.5"/>
<text text-anchor="middle" x="267" y="-151.5" font-family="Malgun Gothic" font-size="10.00">FLevelFeature::GenerateLevelMenu</text>
</a>
</g>
</g>
<!-- Node1&#45;&gt;Node11 -->
<g id="edge10_Node000001_Node000011" class="edge">
<title>Node1&#45;&gt;Node11</title>
<g id="a_edge10_Node000001_Node000011"><a xlink:title=" ">
<path fill="none" stroke="#63b8ff" d="M136.25,-154C144.5,-154 153.08,-154 161.71,-154"/>
<polygon fill="#63b8ff" stroke="#63b8ff" points="161.86,-157.5 171.86,-154 161.86,-150.5 161.86,-157.5"/>
</a>
</g>
</g>
<!-- Node15 -->
<g id="Node000015" class="node">
<title>Node15</title>
<g id="a_Node000015"><a xlink:href="classFScreenshotFeature.html#a56fc11b5f6023d5492e26d9354807082" target="_top" xlink:title="스크린샷 옵션을 제공하는 메뉴 위젯을 생성합니다.">
<polygon fill="white" stroke="#666666" points="341.5,-212 192.5,-212 192.5,-182 341.5,-182 341.5,-212"/>
<text text-anchor="start" x="200.5" y="-200" font-family="Malgun Gothic" font-size="10.00">FScreenshotFeature</text>
<text text-anchor="middle" x="267" y="-189" font-family="Malgun Gothic" font-size="10.00">::GenerateScreenshotMenu</text>
</a>
</g>
</g>
<!-- Node1&#45;&gt;Node15 -->
<g id="edge14_Node000001_Node000015" class="edge">
<title>Node1&#45;&gt;Node15</title>
<g id="a_edge14_Node000001_Node000015"><a xlink:title=" ">
<path fill="none" stroke="#63b8ff" d="M112.72,-163.54C134.64,-168.33 161.86,-174.27 187.25,-179.81"/>
<polygon fill="#63b8ff" stroke="#63b8ff" points="186.73,-183.28 197.25,-181.99 188.23,-176.44 186.73,-183.28"/>
</a>
</g>
</g>
<!-- Node18 -->
<g id="Node000018" class="node">
<title>Node18</title>
<g id="a_Node000018"><a xlink:href="classFLevelFeature.html#a536602356f4e9dcdfcfbe85094782bdb" target="_top" xlink:title="선택된 맵 에셋을 에디터에서 엽니다.">
<polygon fill="white" stroke="#666666" points="340.5,-78 193.5,-78 193.5,-48 340.5,-48 340.5,-78"/>
<text text-anchor="start" x="201.5" y="-66" font-family="Malgun Gothic" font-size="10.00">FLevelFeature::OnSelected</text>
<text text-anchor="middle" x="267" y="-55" font-family="Malgun Gothic" font-size="10.00">Map_Open</text>
</a>
</g>
</g>
<!-- Node1&#45;&gt;Node18 -->
<g id="edge18_Node000001_Node000018" class="edge">
<title>Node1&#45;&gt;Node18</title>
<g id="a_edge18_Node000001_Node000018"><a xlink:title=" ">
<path fill="none" stroke="#63b8ff" d="M80.93,-144.35C99.39,-129.88 136.45,-102.6 172,-87 176.7,-84.94 181.61,-83.03 186.62,-81.26"/>
<polygon fill="#63b8ff" stroke="#63b8ff" points="187.95,-84.51 196.34,-78.04 185.74,-77.86 187.95,-84.51"/>
</a>
</g>
</g>
<!-- Node21 -->
<g id="Node000021" class="node">
<title>Node21</title>
<g id="a_Node000021"><a xlink:href="classFLevelFeature.html#a31e8a2482aafbc4082a996e3a5a7a0d9" target="_top" xlink:title="선택된 맵으로 새로운 뷰포트에서 PIE를 실행합니다.">
<polygon fill="white" stroke="#666666" points="340.5,-30 193.5,-30 193.5,0 340.5,0 340.5,-30"/>
<text text-anchor="start" x="201.5" y="-18" font-family="Malgun Gothic" font-size="10.00">FLevelFeature::OnSelected</text>
<text text-anchor="middle" x="267" y="-7" font-family="Malgun Gothic" font-size="10.00">Map_PlayInEditor</text>
</a>
</g>
</g>
<!-- Node1&#45;&gt;Node21 -->
<g id="edge21_Node000001_Node000021" class="edge">
<title>Node1&#45;&gt;Node21</title>
<g id="a_edge21_Node000001_Node000021"><a xlink:title=" ">
<path fill="none" stroke="#63b8ff" d="M74.84,-144.22C88.71,-121.9 125.94,-66.94 172,-39 175.83,-36.68 179.88,-34.58 184.06,-32.68"/>
<polygon fill="#63b8ff" stroke="#63b8ff" points="185.47,-35.88 193.39,-28.84 182.81,-29.41 185.47,-35.88"/>
</a>
</g>
</g>
<!-- Node22 -->
<g id="Node000022" class="node">
<title>Node22</title>
<g id="a_Node000022"><a xlink:href="classFLevelFeature.html#ad659ce46cd4d37948b219e9aa104c2b3" target="_top" xlink:title="선택된 맵으로 현재 뷰포트에서 PIE를 시작합니다.">
<polygon fill="white" stroke="#666666" points="341.5,-126 192.5,-126 192.5,-96 341.5,-96 341.5,-126"/>
<text text-anchor="start" x="200.5" y="-114" font-family="Malgun Gothic" font-size="10.00">FLevelFeature::OnSelected</text>
<text text-anchor="middle" x="267" y="-103" font-family="Malgun Gothic" font-size="10.00">Map_PlaySelectedViewport</text>
</a>
</g>
</g>
<!-- Node1&#45;&gt;Node22 -->
<g id="edge23_Node000001_Node000022" class="edge">
<title>Node1&#45;&gt;Node22</title>
<g id="a_edge23_Node000001_Node000022"><a xlink:title=" ">
<path fill="none" stroke="#63b8ff" d="M112.72,-144.46C134.64,-139.67 161.86,-133.73 187.25,-128.19"/>
<polygon fill="#63b8ff" stroke="#63b8ff" points="188.23,-131.56 197.25,-126.01 186.73,-124.72 188.23,-131.56"/>
</a>
</g>
</g>
<!-- Node3 -->
<g id="Node000003" class="node">
<title>Node3</title>
<g id="a_Node000003"><a xlink:href="classFCommon.html#a7f9a33df4cca4a9488e492d0043c284e" target="_top" xlink:title="전달된 이름으로 애플리케이션 스타일에서 Slate 아이콘을 조회합니다.">
<polygon fill="white" stroke="#666666" points="542,-390.5 432,-390.5 432,-371.5 542,-371.5 542,-390.5"/>
<text text-anchor="middle" x="487" y="-378.5" font-family="Malgun Gothic" font-size="10.00">FCommon::GetIcon</text>
</a>
</g>
</g>
<!-- Node2&#45;&gt;Node3 -->
<g id="edge2_Node000002_Node000003" class="edge">
<title>Node2&#45;&gt;Node3</title>
<g id="a_edge2_Node000002_Node000003"><a xlink:title=" ">
<path fill="none" stroke="#63b8ff" d="M301.12,-325.04C327.06,-336.38 364.29,-351.7 398,-362 406.67,-364.65 415.93,-367.07 425.07,-369.24"/>
<polygon fill="#63b8ff" stroke="#63b8ff" points="424.38,-372.67 434.9,-371.49 425.93,-365.85 424.38,-372.67"/>
</a>
</g>
</g>
<!-- Node5 -->
<g id="Node000005" class="node">
<title>Node5</title>
<g id="a_Node000005"><a xlink:href="classFCommandFeature.html#a08ab22cf9f7960c9b8f73c1f80eb981e" target="_top" xlink:title="지정된 툴바 버튼이 현재 토글되어 있는지 반환합니다.">
<polygon fill="white" stroke="#666666" points="565,-353 409,-353 409,-323 565,-323 565,-353"/>
<text text-anchor="start" x="417" y="-341" font-family="Malgun Gothic" font-size="10.00">FCommandFeature::IsButton</text>
<text text-anchor="middle" x="487" y="-330" font-family="Malgun Gothic" font-size="10.00">Toggled</text>
</a>
</g>
</g>
<!-- Node2&#45;&gt;Node5 -->
<g id="edge4_Node000002_Node000005" class="edge">
<title>Node2&#45;&gt;Node5</title>
<g id="a_edge4_Node000002_Node000005"><a xlink:title=" ">
<path fill="none" stroke="#63b8ff" d="M347.63,-320.23C364.15,-322.35 381.64,-324.6 398.42,-326.75"/>
<polygon fill="#63b8ff" stroke="#63b8ff" points="398.41,-330.28 408.77,-328.08 399.3,-323.34 398.41,-330.28"/>
</a>
</g>
</g>
<!-- Node6 -->
<g id="Node000006" class="node">
<title>Node6</title>
<g id="a_Node000006"><a xlink:href="classFCommandFeature.html#a3ff8a0398db30ce422496f2281dd3b60" target="_top" xlink:title="전달된 버튼 ID에 매핑된 명령을 실행합니다.">
<polygon fill="white" stroke="#666666" points="570.5,-305 403.5,-305 403.5,-275 570.5,-275 570.5,-305"/>
<text text-anchor="start" x="411.5" y="-293" font-family="Malgun Gothic" font-size="10.00">FCommandFeature::OnExecute</text>
<text text-anchor="middle" x="487" y="-282" font-family="Malgun Gothic" font-size="10.00">ButtonCommand</text>
</a>
</g>
</g>
<!-- Node2&#45;&gt;Node6 -->
<g id="edge5_Node000002_Node000006" class="edge">
<title>Node2&#45;&gt;Node6</title>
<g id="a_edge5_Node000002_Node000006"><a xlink:title=" ">
<path fill="none" stroke="#63b8ff" d="M347.63,-302.69C362.35,-301.34 377.85,-299.92 392.93,-298.54"/>
<polygon fill="#63b8ff" stroke="#63b8ff" points="393.65,-301.99 403.29,-297.59 393.01,-295.02 393.65,-301.99"/>
</a>
</g>
</g>
<!-- Node4 -->
<g id="Node000004" class="node">
<title>Node4</title>
<g id="a_Node000004"><a xlink:href="classFToolbarStyle.html#a3437f8f3e4dcd2c7b68de7b28fc2a95a" target="_top" xlink:title="Slate 스타일 세트를 참조할 때 사용할 이름을 반환합니다.">
<polygon fill="white" stroke="#666666" points="787,-390.5 612,-390.5 612,-371.5 787,-371.5 787,-390.5"/>
<text text-anchor="middle" x="699.5" y="-378.5" font-family="Malgun Gothic" font-size="10.00">FToolbarStyle::GetStyleSetName</text>
</a>
</g>
</g>
<!-- Node3&#45;&gt;Node4 -->
<g id="edge3_Node000003_Node000004" class="edge">
<title>Node3&#45;&gt;Node4</title>
<g id="a_edge3_Node000003_Node000004"><a xlink:title=" ">
<path fill="none" stroke="#63b8ff" d="M542.21,-381C560.42,-381 581.33,-381 601.8,-381"/>
<polygon fill="#63b8ff" stroke="#63b8ff" points="601.8,-384.5 611.8,-381 601.8,-377.5 601.8,-384.5"/>
</a>
</g>
</g>
<!-- Node7 -->
<g id="Node000007" class="node">
<title>Node7</title>
<g id="a_Node000007"><a xlink:href="classFCommon.html#ac247ef6e336abf6ca53b140d93ea07f9" target="_top" xlink:title="툴바 액션이 대상으로 삼는 활성 에디터 월드를 반환합니다.">
<polygon fill="white" stroke="#666666" points="775,-281 624,-281 624,-251 775,-251 775,-281"/>
<text text-anchor="start" x="632" y="-269" font-family="Malgun Gothic" font-size="10.00">FCommon::GetActiveTarget</text>
<text text-anchor="middle" x="699.5" y="-258" font-family="Malgun Gothic" font-size="10.00">World</text>
</a>
</g>
</g>
<!-- Node6&#45;&gt;Node7 -->
<g id="edge6_Node000006_Node000007" class="edge">
<title>Node6&#45;&gt;Node7</title>
<g id="a_edge6_Node000006_Node000007"><a xlink:title=" ">
<path fill="none" stroke="#63b8ff" d="M570.59,-280.58C584.68,-278.98 599.34,-277.31 613.49,-275.69"/>
<polygon fill="#63b8ff" stroke="#63b8ff" points="614.14,-279.14 623.68,-274.53 613.35,-272.19 614.14,-279.14"/>
</a>
</g>
</g>
<!-- Node9 -->
<g id="Node000009" class="node">
<title>Node9</title>
<g id="a_Node000009"><a xlink:href="classFFolderFeature.html#a703d4416dba2e4573735c8215f679e07" target="_top" xlink:title=" ">
<polygon fill="white" stroke="#666666" points="562.5,-427.5 411.5,-427.5 411.5,-408.5 562.5,-408.5 562.5,-427.5"/>
<text text-anchor="middle" x="487" y="-415.5" font-family="Malgun Gothic" font-size="10.00">FFolderFeature::OpenFolder</text>
</a>
</g>
</g>
<!-- Node8&#45;&gt;Node9 -->
<g id="edge8_Node000008_Node000009" class="edge">
<title>Node8&#45;&gt;Node9</title>
<g id="a_edge8_Node000008_Node000009"><a xlink:title=" ">
<path fill="none" stroke="#63b8ff" d="M337.28,-404.36C357.53,-406.21 379.9,-408.27 401,-410.2"/>
<polygon fill="#63b8ff" stroke="#63b8ff" points="400.97,-413.71 411.25,-411.14 401.61,-406.74 400.97,-413.71"/>
</a>
</g>
</g>
<!-- Node10 -->
<g id="Node000010" class="node">
<title>Node10</title>
<g id="a_Node000010"><a xlink:href="FolderFeature_8cpp.html#a3fc863edd05ee6943e920f7984e2805f" target="_top" xlink:title=" ">
<polygon fill="white" stroke="#666666" points="764.5,-427.5 634.5,-427.5 634.5,-408.5 764.5,-408.5 764.5,-427.5"/>
<text text-anchor="middle" x="699.5" y="-415.5" font-family="Malgun Gothic" font-size="10.00">ResolveProjectRelative</text>
</a>
</g>
</g>
<!-- Node9&#45;&gt;Node10 -->
<g id="edge9_Node000009_Node000010" class="edge">
<title>Node9&#45;&gt;Node10</title>
<g id="a_edge9_Node000009_Node000010"><a xlink:title=" ">
<path fill="none" stroke="#63b8ff" d="M562.51,-418C582.45,-418 604.01,-418 623.95,-418"/>
<polygon fill="#63b8ff" stroke="#63b8ff" points="624.22,-421.5 634.22,-418 624.22,-414.5 624.22,-421.5"/>
</a>
</g>
</g>
<!-- Node12 -->
<g id="Node000012" class="node">
<title>Node12</title>
<g id="a_Node000012"><a xlink:href="classUToolbarSettings.html#a839017a8f47a62d4127ad8527d2498ed" target="_top" xlink:title="레벨 선택 헬퍼가 사용할 검색 루트 경로를 수집합니다.">
<polygon fill="white" stroke="#666666" points="564.5,-123 409.5,-123 409.5,-93 564.5,-93 564.5,-123"/>
<text text-anchor="start" x="417.5" y="-111" font-family="Malgun Gothic" font-size="10.00">UToolbarSettings::GetSearch</text>
<text text-anchor="middle" x="487" y="-100" font-family="Malgun Gothic" font-size="10.00">Roots</text>
</a>
</g>
</g>
<!-- Node11&#45;&gt;Node12 -->
<g id="edge11_Node000011_Node000012" class="edge">
<title>Node11&#45;&gt;Node12</title>
<g id="a_edge11_Node000011_Node000012"><a xlink:title=" ">
<path fill="none" stroke="#63b8ff" d="M315.85,-144.47C330.65,-141.49 347.01,-138.15 362,-135 376.86,-131.88 392.7,-128.48 407.92,-125.19"/>
<polygon fill="#63b8ff" stroke="#63b8ff" points="408.79,-128.58 417.82,-123.04 407.3,-121.74 408.79,-128.58"/>
</a>
</g>
</g>
<!-- Node14 -->
<g id="Node000014" class="node">
<title>Node14</title>
<g id="a_Node000014"><a xlink:href="classFLevelFeature.html#ac20da5828b1adc7686fbd96ba8abd1c8" target="_top" xlink:title="선택된 맵 패키지 이름을 저장합니다.">
<polygon fill="white" stroke="#666666" points="571,-160.5 403,-160.5 403,-141.5 571,-141.5 571,-160.5"/>
<text text-anchor="middle" x="487" y="-148.5" font-family="Malgun Gothic" font-size="10.00">FLevelFeature::OnSelectedMap</text>
</a>
</g>
</g>
<!-- Node11&#45;&gt;Node14 -->
<g id="edge13_Node000011_Node000014" class="edge">
<title>Node11&#45;&gt;Node14</title>
<g id="a_edge13_Node000011_Node000014"><a xlink:title=" ">
<path fill="none" stroke="#63b8ff" d="M362.03,-152.71C372.23,-152.57 382.61,-152.42 392.8,-152.28"/>
<polygon fill="#63b8ff" stroke="#63b8ff" points="392.96,-155.78 402.91,-152.14 392.86,-148.78 392.96,-155.78"/>
</a>
</g>
</g>
<!-- Node13 -->
<g id="Node000013" class="node">
<title>Node13</title>
<g id="a_Node000013"><a xlink:href="UToolbarSettings_8cpp.html#a93020a74b1d3099ceb4abe28cf3188d2" target="_top" xlink:title="사용자 입력 디렉터리 문자열을 콘텐츠 루트 형식으로 정규화합니다.">
<polygon fill="white" stroke="#666666" points="754.5,-117.5 644.5,-117.5 644.5,-98.5 754.5,-98.5 754.5,-117.5"/>
<text text-anchor="middle" x="699.5" y="-105.5" font-family="Malgun Gothic" font-size="10.00">NormalizeUserPath</text>
</a>
</g>
</g>
<!-- Node12&#45;&gt;Node13 -->
<g id="edge12_Node000012_Node000013" class="edge">
<title>Node12&#45;&gt;Node13</title>
<g id="a_edge12_Node000012_Node000013"><a xlink:title=" ">
<path fill="none" stroke="#63b8ff" d="M564.59,-108C587.42,-108 612.21,-108 634.17,-108"/>
<polygon fill="#63b8ff" stroke="#63b8ff" points="634.38,-111.5 644.38,-108 634.38,-104.5 634.38,-111.5"/>
</a>
</g>
</g>
<!-- Node16 -->
<g id="Node000016" class="node">
<title>Node16</title>
<g id="a_Node000016"><a xlink:href="classFScreenshotFeature.html#aaab75697de4685c906b26140e54301b6" target="_top" xlink:title="지정된 배율로 활성 뷰포트에 고해상도 캡처를 요청합니다.">
<polygon fill="white" stroke="#666666" points="554.5,-257 419.5,-257 419.5,-227 554.5,-227 554.5,-257"/>
<text text-anchor="start" x="427.5" y="-245" font-family="Malgun Gothic" font-size="10.00">FScreenshotFeature</text>
<text text-anchor="middle" x="487" y="-234" font-family="Malgun Gothic" font-size="10.00">::CaptureActiveViewport</text>
</a>
</g>
</g>
<!-- Node15&#45;&gt;Node16 -->
<g id="edge15_Node000015_Node000016" class="edge">
<title>Node15&#45;&gt;Node16</title>
<g id="a_edge15_Node000015_Node000016"><a xlink:title=" ">
<path fill="none" stroke="#63b8ff" d="M340.89,-212.05C362.9,-216.59 387.12,-221.59 409.36,-226.18"/>
<polygon fill="#63b8ff" stroke="#63b8ff" points="408.92,-229.66 419.42,-228.26 410.34,-222.81 408.92,-229.66"/>
</a>
</g>
</g>
<!-- Node17 -->
<g id="Node000017" class="node">
<title>Node17</title>
<g id="a_Node000017"><a xlink:href="classFScreenshotFeature.html#af01017cd01130c08bf1c63309ea1e2a6" target="_top" xlink:title="촬영된 스크린샷이 저장된 디렉터리를 엽니다.">
<polygon fill="white" stroke="#666666" points="552.5,-209 421.5,-209 421.5,-179 552.5,-179 552.5,-209"/>
<text text-anchor="start" x="429.5" y="-197" font-family="Malgun Gothic" font-size="10.00">FScreenshotFeature</text>
<text text-anchor="middle" x="487" y="-186" font-family="Malgun Gothic" font-size="10.00">::OnOpenScreenShotDir</text>
</a>
</g>
</g>
<!-- Node15&#45;&gt;Node17 -->
<g id="edge17_Node000015_Node000017" class="edge">
<title>Node15&#45;&gt;Node17</title>
<g id="a_edge17_Node000015_Node000017"><a xlink:title=" ">
<path fill="none" stroke="#63b8ff" d="M341.5,-195.99C363.9,-195.68 388.55,-195.34 411.05,-195.03"/>
<polygon fill="#63b8ff" stroke="#63b8ff" points="411.27,-198.53 421.22,-194.89 411.17,-191.53 411.27,-198.53"/>
</a>
</g>
</g>
<!-- Node16&#45;&gt;Node7 -->
<g id="edge16_Node000016_Node000007" class="edge">
<title>Node16&#45;&gt;Node7</title>
<g id="a_edge16_Node000016_Node000007"><a xlink:title=" ">
<path fill="none" stroke="#63b8ff" d="M554.6,-249.59C573.37,-251.73 594.05,-254.09 613.73,-256.33"/>
<polygon fill="#63b8ff" stroke="#63b8ff" points="613.58,-259.84 623.92,-257.5 614.38,-252.89 613.58,-259.84"/>
</a>
</g>
</g>
<!-- Node19 -->
<g id="Node000019" class="node">
<title>Node19</title>
<g id="a_Node000019"><a xlink:href="classFLevelFeature.html#a63493bc16dc28b58911d3b03c7833aee" target="_top" xlink:title="현재 선택된 맵 패키지를 에디터에 로드합니다.">
<polygon fill="white" stroke="#666666" points="576,-72.5 398,-72.5 398,-53.5 576,-53.5 576,-72.5"/>
<text text-anchor="middle" x="487" y="-60.5" font-family="Malgun Gothic" font-size="10.00">FLevelFeature::LoadSelectedMap</text>
</a>
</g>
</g>
<!-- Node18&#45;&gt;Node19 -->
<g id="edge19_Node000018_Node000019" class="edge">
<title>Node18&#45;&gt;Node19</title>
<g id="a_edge19_Node000018_Node000019"><a xlink:title=" ">
<path fill="none" stroke="#63b8ff" d="M340.59,-63C355.63,-63 371.71,-63 387.5,-63"/>
<polygon fill="#63b8ff" stroke="#63b8ff" points="387.81,-66.5 397.81,-63 387.81,-59.5 387.81,-66.5"/>
</a>
</g>
</g>
<!-- Node20 -->
<g id="Node000020" class="node">
<title>Node20</title>
<g id="a_Node000020"><a xlink:href="classFLevelFeature.html#aad2ad775628a12e462c1e85e90060415" target="_top" xlink:title="선택된 맵 에셋이 여전히 존재하는지 검증합니다.">
<polygon fill="white" stroke="#666666" points="774,-61 625,-61 625,-31 774,-31 774,-61"/>
<text text-anchor="start" x="633" y="-49" font-family="Malgun Gothic" font-size="10.00">FLevelFeature::EnsureValid</text>
<text text-anchor="middle" x="699.5" y="-38" font-family="Malgun Gothic" font-size="10.00">SelectedMap</text>
</a>
</g>
</g>
<!-- Node19&#45;&gt;Node20 -->
<g id="edge20_Node000019_Node000020" class="edge">
<title>Node19&#45;&gt;Node20</title>
<g id="a_edge20_Node000019_Node000020"><a xlink:title=" ">
<path fill="none" stroke="#63b8ff" d="M576.05,-55.89C588.85,-54.86 602,-53.79 614.72,-52.77"/>
<polygon fill="#63b8ff" stroke="#63b8ff" points="615.12,-56.25 624.8,-51.95 614.55,-49.27 615.12,-56.25"/>
</a>
</g>
</g>
<!-- Node21&#45;&gt;Node20 -->
<g id="edge22_Node000021_Node000020" class="edge">
<title>Node21&#45;&gt;Node20</title>
<g id="a_edge22_Node000021_Node000020"><a xlink:title=" ">
<path fill="none" stroke="#63b8ff" d="M340.54,-20.22C416.38,-25.68 535.22,-34.24 614.93,-39.98"/>
<polygon fill="#63b8ff" stroke="#63b8ff" points="614.71,-43.48 624.94,-40.7 615.22,-36.49 614.71,-43.48"/>
</a>
</g>
</g>
<!-- Node22&#45;&gt;Node19 -->
<g id="edge24_Node000022_Node000019" class="edge">
<title>Node22&#45;&gt;Node19</title>
<g id="a_edge24_Node000022_Node000019"><a xlink:title=" ">
<path fill="none" stroke="#63b8ff" d="M336.38,-95.94C367.43,-89.11 403.62,-81.14 432.62,-74.75"/>
<polygon fill="#63b8ff" stroke="#63b8ff" points="433.55,-78.13 442.56,-72.56 432.04,-71.3 433.55,-78.13"/>
</a>
</g>
</g>
</g>
</svg>

<g id="navigator" transform="translate(0 0)" fill="#404254">
  <rect fill="#f2f5e9" fill-opacity="0.5" stroke="#606060" stroke-width=".5" x="0" y="0" width="60" height="60"/>
  <use id="zoomplus" xlink:href="#zoomPlus" x="17" y="9" onmousedown="handleZoom(evt,'in')"/>
  <use id="zoomminus" xlink:href="#zoomMin" x="42" y="9" onmousedown="handleZoom(evt,'out')"/>
  <use id="reset" xlink:href="#resetDef" x="30" y="36" onmousedown="handleReset()"/>
   <use id="arrowup" xlink:href="#arrowUp" x="0" y="0" onmousedown="handlePan(0,-1)"/>
  <use id="arrowright" xlink:href="#arrowRight" x="0" y="0" onmousedown="handlePan(1,0)"/>
  <use id="arrowdown" xlink:href="#arrowDown" x="0" y="0" onmousedown="handlePan(0,1)"/>
  <use id="arrowleft" xlink:href="#arrowLeft" x="0" y="0" onmousedown="handlePan(-1,0)"/>
</g>
<svg viewBox="0 0 15 15" width="100%" height="30px" preserveAspectRatio="xMaxYMin meet">
 <g id="arrow_out" transform="scale(0.3 0.3)">
  <a xlink:href="classFToolbar_a2df7b59ad21cce1d2f0437add0d4c6a7_cgraph_org.svg" target="_base">
   <rect id="button" ry="5" rx="5" y="6" x="6" height="38" width="38"
        fill="#f2f5e9" fill-opacity="0.5" stroke="#606060" stroke-width="1.0"/>
   <path id="arrow"
     d="M 11.500037,31.436501 C 11.940474,20.09759 22.043105,11.32322 32.158766,21.979434 L 37.068811,17.246167 C 37.068811,17.246167 37.088388,32 37.088388,32 L 22.160133,31.978069 C 22.160133,31.978069 26.997745,27.140456 26.997745,27.140456 C 18.528582,18.264221 13.291696,25.230495 11.500037,31.436501 z"
     style="fill:#404040;"/>
  </a>
 </g>
</svg>

<style type='text/css'>
<![CDATA[
[data-mouse-over-selected='false'] { opacity: 0.7; }
[data-mouse-over-selected='true']  { opacity: 1.0; }
]]>
</style>
<script type="application/ecmascript"><![CDATA[
document.addEventListener('DOMContentLoaded', (event) => {
  highlightEdges();
  highlightAdjacentNodes();
});
]]></script>
</svg>
