<?xml version="1.0" encoding="UTF-8" standalone="no"?>
<!DOCTYPE svg PUBLIC "-//W3C//DTD SVG 1.1//EN"
 "http://www.w3.org/Graphics/SVG/1.1/DTD/svg11.dtd">
<!-- Generated by graphviz version 2.43.0 (0)
 -->
<!-- Title: FCommon::GetActiveTargetWorld Pages: 1 -->
<svg width="901pt" height="86pt"
 viewBox="0.00 0.00 901.00 86.00" xmlns="http://www.w3.org/2000/svg" xmlns:xlink="http://www.w3.org/1999/xlink">
<g id="graph0" class="graph" transform="scale(1 1) rotate(0) translate(4 82)">
<title>FCommon::GetActiveTargetWorld</title>
<!-- Node1 -->
<g id="Node000001" class="node">
<title>Node1</title>
<g id="a_Node000001"><a xlink:title="툴바 액션이 대상으로 삼는 활성 에디터 월드를 반환합니다.">
<polygon fill="#999999" stroke="#666666" points="893,-54 742,-54 742,-24 893,-24 893,-54"/>
<text text-anchor="start" x="750" y="-42" font-family="Malgun Gothic" font-size="10.00">FCommon::GetActiveTarget</text>
<text text-anchor="middle" x="817.5" y="-31" font-family="Malgun Gothic" font-size="10.00">World</text>
</a>
</g>
</g>
<!-- Node2 -->
<g id="Node000002" class="node">
<title>Node2</title>
<g id="a_Node000002"><a xlink:href="classFScreenshotFeature.html#aaab75697de4685c906b26140e54301b6" target="_top" xlink:title="지정된 배율로 활성 뷰포트에 고해상도 캡처를 요청합니다.">
<polygon fill="white" stroke="#666666" points="690,-78 555,-78 555,-48 690,-48 690,-78"/>
<text text-anchor="start" x="563" y="-66" font-family="Malgun Gothic" font-size="10.00">FScreenshotFeature</text>
<text text-anchor="middle" x="622.5" y="-55" font-family="Malgun Gothic" font-size="10.00">::CaptureActiveViewport</text>
</a>
</g>
</g>
<!-- Node1&#45;&gt;Node2 -->
<g id="edge1_Node000001_Node000002" class="edge">
<title>Node1&#45;&gt;Node2</title>
<g id="a_edge1_Node000001_Node000002"><a xlink:title=" ">
<path fill="none" stroke="#63b8ff" d="M731.78,-49.53C717.81,-51.27 703.5,-53.05 690.05,-54.72"/>
<polygon fill="#63b8ff" stroke="#63b8ff" points="732.39,-52.99 741.88,-48.28 731.53,-46.04 732.39,-52.99"/>
</a>
</g>
</g>
<!-- Node6 -->
<g id="Node000006" class="node">
<title>Node6</title>
<g id="a_Node000006"><a xlink:href="classFCommandFeature.html#a3ff8a0398db30ce422496f2281dd3b60" target="_top" xlink:title="전달된 버튼 ID에 매핑된 명령을 실행합니다.">
<polygon fill="white" stroke="#666666" points="706,-30 539,-30 539,0 706,0 706,-30"/>
<text text-anchor="start" x="547" y="-18" font-family="Malgun Gothic" font-size="10.00">FCommandFeature::OnExecute</text>
<text text-anchor="middle" x="622.5" y="-7" font-family="Malgun Gothic" font-size="10.00">ButtonCommand</text>
</a>
</g>
</g>
<!-- Node1&#45;&gt;Node6 -->
<g id="edge5_Node000001_Node000006" class="edge">
<title>Node1&#45;&gt;Node6</title>
<g id="a_edge5_Node000001_Node000006"><a xlink:title=" ">
<path fill="none" stroke="#63b8ff" d="M731.95,-28.49C723.42,-27.43 714.77,-26.35 706.26,-25.29"/>
<polygon fill="#63b8ff" stroke="#63b8ff" points="731.53,-31.96 741.88,-29.72 732.39,-25.01 731.53,-31.96"/>
</a>
</g>
</g>
<!-- Node3 -->
<g id="Node000003" class="node">
<title>Node3</title>
<g id="a_Node000003"><a xlink:href="classFScreenshotFeature.html#a56fc11b5f6023d5492e26d9354807082" target="_top" xlink:title="스크린샷 옵션을 제공하는 메뉴 위젯을 생성합니다.">
<polygon fill="white" stroke="#666666" points="497,-78 348,-78 348,-48 497,-48 497,-78"/>
<text text-anchor="start" x="356" y="-66" font-family="Malgun Gothic" font-size="10.00">FScreenshotFeature</text>
<text text-anchor="middle" x="422.5" y="-55" font-family="Malgun Gothic" font-size="10.00">::GenerateScreenshotMenu</text>
</a>
</g>
</g>
<!-- Node2&#45;&gt;Node3 -->
<g id="edge2_Node000002_Node000003" class="edge">
<title>Node2&#45;&gt;Node3</title>
<g id="a_edge2_Node000002_Node000003"><a xlink:title=" ">
<path fill="none" stroke="#63b8ff" d="M544.61,-63C529,-63 512.61,-63 497.11,-63"/>
<polygon fill="#63b8ff" stroke="#63b8ff" points="544.74,-66.5 554.74,-63 544.74,-59.5 544.74,-66.5"/>
</a>
</g>
</g>
<!-- Node4 -->
<g id="Node000004" class="node">
<title>Node4</title>
<g id="a_Node000004"><a xlink:href="classFToolbar.html#a2df7b59ad21cce1d2f0437add0d4c6a7" target="_top" xlink:title="에디터 확장 프레임워크에 툴바 메뉴와 버튼을 등록합니다.">
<polygon fill="white" stroke="#666666" points="306,-48.5 170,-48.5 170,-29.5 306,-29.5 306,-48.5"/>
<text text-anchor="middle" x="238" y="-36.5" font-family="Malgun Gothic" font-size="10.00">FToolbar::RegisterMenus</text>
</a>
</g>
</g>
<!-- Node3&#45;&gt;Node4 -->
<g id="edge3_Node000003_Node000004" class="edge">
<title>Node3&#45;&gt;Node4</title>
<g id="a_edge3_Node000003_Node000004"><a xlink:title=" ">
<path fill="none" stroke="#63b8ff" d="M337.73,-51.98C327.16,-50.59 316.46,-49.19 306.2,-47.84"/>
<polygon fill="#63b8ff" stroke="#63b8ff" points="337.43,-55.47 347.8,-53.31 338.34,-48.53 337.43,-55.47"/>
</a>
</g>
</g>
<!-- Node5 -->
<g id="Node000005" class="node">
<title>Node5</title>
<g id="a_Node000005"><a xlink:href="classFToolbar.html#a29b321398a59346e3df4870366f89245" target="_top" xlink:title="툴바 기능을 초기화하고 Slate 메뉴 확장을 등록합니다.">
<polygon fill="white" stroke="#666666" points="134,-48.5 0,-48.5 0,-29.5 134,-29.5 134,-48.5"/>
<text text-anchor="middle" x="67" y="-36.5" font-family="Malgun Gothic" font-size="10.00">FToolbar::StartupModule</text>
</a>
</g>
</g>
<!-- Node4&#45;&gt;Node5 -->
<g id="edge4_Node000004_Node000005" class="edge">
<title>Node4&#45;&gt;Node5</title>
<g id="a_edge4_Node000004_Node000005"><a xlink:title=" ">
<path fill="none" stroke="#63b8ff" d="M159.49,-39C151.05,-39 142.51,-39 134.22,-39"/>
<polygon fill="#63b8ff" stroke="#63b8ff" points="159.72,-42.5 169.72,-39 159.72,-35.5 159.72,-42.5"/>
</a>
</g>
</g>
<!-- Node7 -->
<g id="Node000007" class="node">
<title>Node7</title>
<g id="a_Node000007"><a xlink:href="classFCommandFeature.html#ab546196898c4d540b74defb4fb9e2aed" target="_top" xlink:title="툴바용 명령 버튼 메뉴 위젯을 생성합니다.">
<polygon fill="white" stroke="#666666" points="503,-30 342,-30 342,0 503,0 503,-30"/>
<text text-anchor="start" x="350" y="-18" font-family="Malgun Gothic" font-size="10.00">FCommandFeature::Generate</text>
<text text-anchor="middle" x="422.5" y="-7" font-family="Malgun Gothic" font-size="10.00">CommandsMenu</text>
</a>
</g>
</g>
<!-- Node6&#45;&gt;Node7 -->
<g id="edge6_Node000006_Node000007" class="edge">
<title>Node6&#45;&gt;Node7</title>
<g id="a_edge6_Node000006_Node000007"><a xlink:title=" ">
<path fill="none" stroke="#63b8ff" d="M528.87,-15C520.24,-15 511.54,-15 503.04,-15"/>
<polygon fill="#63b8ff" stroke="#63b8ff" points="528.96,-18.5 538.96,-15 528.96,-11.5 528.96,-18.5"/>
</a>
</g>
</g>
<!-- Node7&#45;&gt;Node4 -->
<g id="edge7_Node000007_Node000004" class="edge">
<title>Node7&#45;&gt;Node4</title>
<g id="a_edge7_Node000007_Node000004"><a xlink:title=" ">
<path fill="none" stroke="#63b8ff" d="M331.89,-26.78C323.26,-27.92 314.62,-29.06 306.27,-30.15"/>
<polygon fill="#63b8ff" stroke="#63b8ff" points="332.53,-30.23 341.98,-25.46 331.61,-23.29 332.53,-30.23"/>
</a>
</g>
</g>
</g>
</svg>
