<?xml version="1.0" encoding="UTF-8" standalone="no"?>
<!DOCTYPE svg PUBLIC "-//W3C//DTD SVG 1.1//EN"
 "http://www.w3.org/Graphics/SVG/1.1/DTD/svg11.dtd">
<!-- Generated by graphviz version 2.43.0 (0)
 -->
<!-- Title: FCommon::GetActiveTargetWorld Pages: 1 -->
<svg width="901pt" height="86pt"
 viewBox="0.00 0.00 901.00 86.00" xmlns="http://www.w3.org/2000/svg" xmlns:xlink="http://www.w3.org/1999/xlink">
<g id="graph0" class="graph" transform="scale(1 1) rotate(0) translate(4 82)">
<title>FCommon::GetActiveTargetWorld</title>
<!-- Node1 -->
<g id="Node000001" class="node">
<title>Node1</title>
<g id="a_Node000001"><a xlink:title="툴바 액션이 대상으로 삼는 활성 에디터 월드를 반환합니다.">
<polygon fill="#999999" stroke="#666666" points="893,-53 742,-53 742,-23 893,-23 893,-53"/>
<text text-anchor="start" x="750" y="-41" font-family="Malgun Gothic" font-size="10.00">FCommon::GetActiveTarget</text>
<text text-anchor="middle" x="817.5" y="-30" font-family="Malgun Gothic" font-size="10.00">World</text>
</a>
</g>
</g>
<!-- Node2 -->
<g id="Node000002" class="node">
<title>Node2</title>
<g id="a_Node000002"><a xlink:href="classFScreenshotFeature.html#a8d4132d3529147e8b44ee904d94c1630" target="_top" xlink:title="언리얼 자동화 라이브러리를 사용해 스크린샷을 촬영합니다.">
<polygon fill="white" stroke="#666666" points="486.5,-78 358.5,-78 358.5,-48 486.5,-48 486.5,-78"/>
<text text-anchor="start" x="366.5" y="-66" font-family="Malgun Gothic" font-size="10.00">FScreenshotFeature</text>
<text text-anchor="middle" x="422.5" y="-55" font-family="Malgun Gothic" font-size="10.00">::OnCaptureScreenshot</text>
</a>
</g>
</g>
<!-- Node1&#45;&gt;Node2 -->
<g id="edge1_Node000001_Node000002" class="edge">
<title>Node1&#45;&gt;Node2</title>
<g id="a_edge1_Node000001_Node000002"><a xlink:title=" ">
<path fill="none" stroke="#63b8ff" d="M731.48,-43.41C657.89,-48.09 553.11,-54.76 486.72,-58.98"/>
<polygon fill="#63b8ff" stroke="#63b8ff" points="731.9,-46.89 741.65,-42.76 731.45,-39.9 731.9,-46.89"/>
</a>
</g>
</g>
<!-- Node5 -->
<g id="Node000005" class="node">
<title>Node5</title>
<g id="a_Node000005"><a xlink:href="classFCommandFeature.html#a3ff8a0398db30ce422496f2281dd3b60" target="_top" xlink:title="전달된 버튼 ID에 매핑된 명령을 실행합니다.">
<polygon fill="white" stroke="#666666" points="706,-32 539,-32 539,-2 706,-2 706,-32"/>
<text text-anchor="start" x="547" y="-20" font-family="Malgun Gothic" font-size="10.00">FCommandFeature::OnExecute</text>
<text text-anchor="middle" x="622.5" y="-9" font-family="Malgun Gothic" font-size="10.00">ButtonCommand</text>
</a>
</g>
</g>
<!-- Node1&#45;&gt;Node5 -->
<g id="edge4_Node000001_Node000005" class="edge">
<title>Node1&#45;&gt;Node5</title>
<g id="a_edge4_Node000001_Node000005"><a xlink:title=" ">
<path fill="none" stroke="#63b8ff" d="M731.67,-28.77C723.23,-27.85 714.67,-26.92 706.26,-26"/>
<polygon fill="#63b8ff" stroke="#63b8ff" points="731.56,-32.28 741.88,-29.88 732.32,-25.32 731.56,-32.28"/>
</a>
</g>
</g>
<!-- Node3 -->
<g id="Node000003" class="node">
<title>Node3</title>
<g id="a_Node000003"><a xlink:href="classFToolbar.html#a2df7b59ad21cce1d2f0437add0d4c6a7" target="_top" xlink:title="에디터 확장 프레임워크에 툴바 메뉴와 버튼을 등록합니다.">
<polygon fill="white" stroke="#666666" points="306,-48.5 170,-48.5 170,-29.5 306,-29.5 306,-48.5"/>
<text text-anchor="middle" x="238" y="-36.5" font-family="Malgun Gothic" font-size="10.00">FToolbar::RegisterMenus</text>
</a>
</g>
</g>
<!-- Node2&#45;&gt;Node3 -->
<g id="edge2_Node000002_Node000003" class="edge">
<title>Node2&#45;&gt;Node3</title>
<g id="a_edge2_Node000002_Node000003"><a xlink:title=" ">
<path fill="none" stroke="#63b8ff" d="M348.39,-53.39C334.43,-51.55 319.87,-49.64 306.11,-47.83"/>
<polygon fill="#63b8ff" stroke="#63b8ff" points="348.07,-56.87 358.44,-54.71 348.98,-49.93 348.07,-56.87"/>
</a>
</g>
</g>
<!-- Node4 -->
<g id="Node000004" class="node">
<title>Node4</title>
<g id="a_Node000004"><a xlink:href="classFToolbar.html#a29b321398a59346e3df4870366f89245" target="_top" xlink:title="툴바 기능을 초기화하고 Slate 메뉴 확장을 등록합니다.">
<polygon fill="white" stroke="#666666" points="134,-48.5 0,-48.5 0,-29.5 134,-29.5 134,-48.5"/>
<text text-anchor="middle" x="67" y="-36.5" font-family="Malgun Gothic" font-size="10.00">FToolbar::StartupModule</text>
</a>
</g>
</g>
<!-- Node3&#45;&gt;Node4 -->
<g id="edge3_Node000003_Node000004" class="edge">
<title>Node3&#45;&gt;Node4</title>
<g id="a_edge3_Node000003_Node000004"><a xlink:title=" ">
<path fill="none" stroke="#63b8ff" d="M159.49,-39C151.05,-39 142.51,-39 134.22,-39"/>
<polygon fill="#63b8ff" stroke="#63b8ff" points="159.72,-42.5 169.72,-39 159.72,-35.5 159.72,-42.5"/>
</a>
</g>
</g>
<!-- Node6 -->
<g id="Node000006" class="node">
<title>Node6</title>
<g id="a_Node000006"><a xlink:href="classFCommandFeature.html#ab546196898c4d540b74defb4fb9e2aed" target="_top" xlink:title="툴바용 명령 버튼 메뉴 위젯을 생성합니다.">
<polygon fill="white" stroke="#666666" points="503,-30 342,-30 342,0 503,0 503,-30"/>
<text text-anchor="start" x="350" y="-18" font-family="Malgun Gothic" font-size="10.00">FCommandFeature::Generate</text>
<text text-anchor="middle" x="422.5" y="-7" font-family="Malgun Gothic" font-size="10.00">CommandsMenu</text>
</a>
</g>
</g>
<!-- Node5&#45;&gt;Node6 -->
<g id="edge5_Node000005_Node000006" class="edge">
<title>Node5&#45;&gt;Node6</title>
<g id="a_edge5_Node000005_Node000006"><a xlink:title=" ">
<path fill="none" stroke="#63b8ff" d="M528.87,-16.06C520.24,-15.98 511.54,-15.89 503.04,-15.8"/>
<polygon fill="#63b8ff" stroke="#63b8ff" points="528.93,-19.57 538.96,-16.17 529,-12.57 528.93,-19.57"/>
</a>
</g>
</g>
<!-- Node6&#45;&gt;Node3 -->
<g id="edge6_Node000006_Node000003" class="edge">
<title>Node6&#45;&gt;Node3</title>
<g id="a_edge6_Node000006_Node000003"><a xlink:title=" ">
<path fill="none" stroke="#63b8ff" d="M331.89,-26.78C323.26,-27.92 314.62,-29.06 306.27,-30.15"/>
<polygon fill="#63b8ff" stroke="#63b8ff" points="332.53,-30.23 341.98,-25.46 331.61,-23.29 332.53,-30.23"/>
</a>
</g>
</g>
</g>
</svg>
