<?xml version="1.0" encoding="UTF-8" standalone="no"?>
<!DOCTYPE svg PUBLIC "-//W3C//DTD SVG 1.1//EN"
 "http://www.w3.org/Graphics/SVG/1.1/DTD/svg11.dtd">
<!-- Generated by graphviz version 2.43.0 (0)
 -->
<!-- Title: FCommon::GetActiveTargetWorld Pages: 1 -->
<svg width="1086pt" height="203pt"
 viewBox="0.00 0.00 1086.00 203.00" xmlns="http://www.w3.org/2000/svg" xmlns:xlink="http://www.w3.org/1999/xlink">
<g id="graph0" class="graph" transform="scale(1 1) rotate(0) translate(4 199)">
<title>FCommon::GetActiveTargetWorld</title>
<!-- Node1 -->
<g id="Node000001" class="node">
<title>Node1</title>
<g id="a_Node000001"><a xlink:title="툴바 액션이 대상으로 삼는 활성 에디터 월드를 반환합니다.">
<polygon fill="#999999" stroke="#666666" points="1078,-54 927,-54 927,-24 1078,-24 1078,-54"/>
<text text-anchor="start" x="935" y="-42" font-family="Malgun Gothic" font-size="10.00">FCommon::GetActiveTarget</text>
<text text-anchor="middle" x="1002.5" y="-31" font-family="Malgun Gothic" font-size="10.00">World</text>
</a>
</g>
</g>
<!-- Node2 -->
<g id="Node000002" class="node">
<title>Node2</title>
<g id="a_Node000002"><a xlink:href="classFScreenshotFeature.html#aaab75697de4685c906b26140e54301b6" target="_top" xlink:title="지정된 배율로 활성 뷰포트에 고해상도 캡처를 요청합니다.">
<polygon fill="white" stroke="#666666" points="875,-99 740,-99 740,-69 875,-69 875,-99"/>
<text text-anchor="start" x="748" y="-87" font-family="Malgun Gothic" font-size="10.00">FScreenshotFeature</text>
<text text-anchor="middle" x="807.5" y="-76" font-family="Malgun Gothic" font-size="10.00">::CaptureActiveViewport</text>
</a>
</g>
</g>
<!-- Node1&#45;&gt;Node2 -->
<g id="edge1_Node000001_Node000002" class="edge">
<title>Node1&#45;&gt;Node2</title>
<g id="a_edge1_Node000001_Node000002"><a xlink:title=" ">
<path fill="none" stroke="#63b8ff" d="M927.16,-56.33C909.29,-60.5 890.35,-64.92 872.97,-68.97"/>
<polygon fill="#63b8ff" stroke="#63b8ff" points="928.02,-59.73 936.97,-54.05 926.43,-52.91 928.02,-59.73"/>
</a>
</g>
</g>
<!-- Node10 -->
<g id="Node000010" class="node">
<title>Node10</title>
<g id="a_Node000010"><a xlink:href="classFCommandFeature.html#a3ff8a0398db30ce422496f2281dd3b60" target="_top" xlink:title="전달된 버튼 ID에 매핑된 명령을 실행합니다.">
<polygon fill="white" stroke="#666666" points="891,-30 724,-30 724,0 891,0 891,-30"/>
<text text-anchor="start" x="732" y="-18" font-family="Malgun Gothic" font-size="10.00">FCommandFeature::OnExecute</text>
<text text-anchor="middle" x="807.5" y="-7" font-family="Malgun Gothic" font-size="10.00">ButtonCommand</text>
</a>
</g>
</g>
<!-- Node1&#45;&gt;Node10 -->
<g id="edge12_Node000001_Node000010" class="edge">
<title>Node1&#45;&gt;Node10</title>
<g id="a_edge12_Node000001_Node000010"><a xlink:title=" ">
<path fill="none" stroke="#63b8ff" d="M916.95,-28.49C908.42,-27.43 899.77,-26.35 891.26,-25.29"/>
<polygon fill="#63b8ff" stroke="#63b8ff" points="916.53,-31.96 926.88,-29.72 917.39,-25.01 916.53,-31.96"/>
</a>
</g>
</g>
<!-- Node3 -->
<g id="Node000003" class="node">
<title>Node3</title>
<g id="a_Node000003"><a xlink:href="classFScreenshotFeature.html#a31ee01aa337c4b724c6ec8a550f99c05" target="_top" xlink:title="고해상도 스크린샷(4x 배율)을 촬영합니다.">
<polygon fill="white" stroke="#666666" points="688,-195 539,-195 539,-165 688,-165 688,-195"/>
<text text-anchor="start" x="547" y="-183" font-family="Malgun Gothic" font-size="10.00">FScreenshotFeature</text>
<text text-anchor="middle" x="613.5" y="-172" font-family="Malgun Gothic" font-size="10.00">::OnCaptureHighResolution</text>
</a>
</g>
</g>
<!-- Node2&#45;&gt;Node3 -->
<g id="edge2_Node000002_Node000003" class="edge">
<title>Node2&#45;&gt;Node3</title>
<g id="a_edge2_Node000002_Node000003"><a xlink:title=" ">
<path fill="none" stroke="#63b8ff" d="M776.65,-104.8C753.3,-120.4 719.61,-141.47 688,-156 680.93,-159.25 673.28,-162.26 665.7,-164.97"/>
<polygon fill="#63b8ff" stroke="#63b8ff" points="778.73,-107.61 785.06,-99.11 774.82,-101.81 778.73,-107.61"/>
</a>
</g>
</g>
<!-- Node7 -->
<g id="Node000007" class="node">
<title>Node7</title>
<g id="a_Node000007"><a xlink:href="classFScreenshotFeature.html#a7189e1c261246eb0d4f1a2af11ab89bd" target="_top" xlink:title="빠른 참고용 스크린샷(1x 배율)을 촬영합니다.">
<polygon fill="white" stroke="#666666" points="684,-147 543,-147 543,-117 684,-117 684,-147"/>
<text text-anchor="start" x="551" y="-135" font-family="Malgun Gothic" font-size="10.00">FScreenshotFeature</text>
<text text-anchor="middle" x="613.5" y="-124" font-family="Malgun Gothic" font-size="10.00">::OnCaptureQuickPreview</text>
</a>
</g>
</g>
<!-- Node2&#45;&gt;Node7 -->
<g id="edge6_Node000002_Node000007" class="edge">
<title>Node2&#45;&gt;Node7</title>
<g id="a_edge6_Node000002_Node000007"><a xlink:title=" ">
<path fill="none" stroke="#63b8ff" d="M736.46,-101.51C716.14,-106.59 694.15,-112.09 674.51,-117"/>
<polygon fill="#63b8ff" stroke="#63b8ff" points="737.42,-104.88 746.28,-99.06 735.73,-98.09 737.42,-104.88"/>
</a>
</g>
</g>
<!-- Node8 -->
<g id="Node000008" class="node">
<title>Node8</title>
<g id="a_Node000008"><a xlink:href="classFScreenshotFeature.html#afc1b23933c9d67077c2e726610688605" target="_top" xlink:title="보통 품질 스크린샷(2x 배율)을 촬영합니다.">
<polygon fill="white" stroke="#666666" points="672.5,-99 554.5,-99 554.5,-69 672.5,-69 672.5,-99"/>
<text text-anchor="start" x="562.5" y="-87" font-family="Malgun Gothic" font-size="10.00">FScreenshotFeature</text>
<text text-anchor="middle" x="613.5" y="-76" font-family="Malgun Gothic" font-size="10.00">::OnCaptureStandard</text>
</a>
</g>
</g>
<!-- Node2&#45;&gt;Node8 -->
<g id="edge8_Node000002_Node000008" class="edge">
<title>Node2&#45;&gt;Node8</title>
<g id="a_edge8_Node000002_Node000008"><a xlink:title=" ">
<path fill="none" stroke="#63b8ff" d="M729.75,-84C710.72,-84 690.65,-84 672.67,-84"/>
<polygon fill="#63b8ff" stroke="#63b8ff" points="729.89,-87.5 739.89,-84 729.89,-80.5 729.89,-87.5"/>
</a>
</g>
</g>
<!-- Node9 -->
<g id="Node000009" class="node">
<title>Node9</title>
<g id="a_Node000009"><a xlink:href="classFScreenshotFeature.html#a756ceabcb0e485733fa095066f2970fa" target="_top" xlink:title="울트라 고해상도 스크린샷(8x 배율)을 촬영합니다.">
<polygon fill="white" stroke="#666666" points="670,-51 557,-51 557,-21 670,-21 670,-51"/>
<text text-anchor="start" x="565" y="-39" font-family="Malgun Gothic" font-size="10.00">FScreenshotFeature</text>
<text text-anchor="middle" x="613.5" y="-28" font-family="Malgun Gothic" font-size="10.00">::OnCaptureUltra</text>
</a>
</g>
</g>
<!-- Node2&#45;&gt;Node9 -->
<g id="edge10_Node000002_Node000009" class="edge">
<title>Node2&#45;&gt;Node9</title>
<g id="a_edge10_Node000002_Node000009"><a xlink:title=" ">
<path fill="none" stroke="#63b8ff" d="M736.42,-66.48C714.64,-61.03 690.93,-55.11 670.26,-49.94"/>
<polygon fill="#63b8ff" stroke="#63b8ff" points="735.73,-69.91 746.28,-68.94 737.42,-63.12 735.73,-69.91"/>
</a>
</g>
</g>
<!-- Node4 -->
<g id="Node000004" class="node">
<title>Node4</title>
<g id="a_Node000004"><a xlink:href="classFScreenshotFeature.html#a56fc11b5f6023d5492e26d9354807082" target="_top" xlink:title="스크린샷 옵션을 제공하는 메뉴 위젯을 생성합니다.">
<polygon fill="white" stroke="#666666" points="497,-99 348,-99 348,-69 497,-69 497,-99"/>
<text text-anchor="start" x="356" y="-87" font-family="Malgun Gothic" font-size="10.00">FScreenshotFeature</text>
<text text-anchor="middle" x="422.5" y="-76" font-family="Malgun Gothic" font-size="10.00">::GenerateScreenshotMenu</text>
</a>
</g>
</g>
<!-- Node3&#45;&gt;Node4 -->
<g id="edge3_Node000003_Node000004" class="edge">
<title>Node3&#45;&gt;Node4</title>
<g id="a_edge3_Node000003_Node000004"><a xlink:title=" ">
<path fill="none" stroke="#63b8ff" d="M551.47,-161.35C547.2,-159.66 543.01,-157.87 539,-156 504.1,-139.72 466.82,-114.98 444.33,-99.16"/>
<polygon fill="#63b8ff" stroke="#63b8ff" points="550.29,-164.64 560.88,-164.9 552.76,-158.1 550.29,-164.64"/>
</a>
</g>
</g>
<!-- Node5 -->
<g id="Node000005" class="node">
<title>Node5</title>
<g id="a_Node000005"><a xlink:href="classFToolbar.html#a2df7b59ad21cce1d2f0437add0d4c6a7" target="_top" xlink:title="에디터 확장 프레임워크에 툴바 메뉴와 버튼을 등록합니다.">
<polygon fill="white" stroke="#666666" points="306,-48.5 170,-48.5 170,-29.5 306,-29.5 306,-48.5"/>
<text text-anchor="middle" x="238" y="-36.5" font-family="Malgun Gothic" font-size="10.00">FToolbar::RegisterMenus</text>
</a>
</g>
</g>
<!-- Node4&#45;&gt;Node5 -->
<g id="edge4_Node000004_Node000005" class="edge">
<title>Node4&#45;&gt;Node5</title>
<g id="a_edge4_Node000004_Node000005"><a xlink:title=" ">
<path fill="none" stroke="#63b8ff" d="M350.71,-66.54C325.85,-60.42 298.86,-53.76 277.64,-48.53"/>
<polygon fill="#63b8ff" stroke="#63b8ff" points="349.93,-69.96 360.48,-68.95 351.61,-63.16 349.93,-69.96"/>
</a>
</g>
</g>
<!-- Node6 -->
<g id="Node000006" class="node">
<title>Node6</title>
<g id="a_Node000006"><a xlink:href="classFToolbar.html#a29b321398a59346e3df4870366f89245" target="_top" xlink:title="툴바 기능을 초기화하고 Slate 메뉴 확장을 등록합니다.">
<polygon fill="white" stroke="#666666" points="134,-48.5 0,-48.5 0,-29.5 134,-29.5 134,-48.5"/>
<text text-anchor="middle" x="67" y="-36.5" font-family="Malgun Gothic" font-size="10.00">FToolbar::StartupModule</text>
</a>
</g>
</g>
<!-- Node5&#45;&gt;Node6 -->
<g id="edge5_Node000005_Node000006" class="edge">
<title>Node5&#45;&gt;Node6</title>
<g id="a_edge5_Node000005_Node000006"><a xlink:title=" ">
<path fill="none" stroke="#63b8ff" d="M159.49,-39C151.05,-39 142.51,-39 134.22,-39"/>
<polygon fill="#63b8ff" stroke="#63b8ff" points="159.72,-42.5 169.72,-39 159.72,-35.5 159.72,-42.5"/>
</a>
</g>
</g>
<!-- Node7&#45;&gt;Node4 -->
<g id="edge7_Node000007_Node000004" class="edge">
<title>Node7&#45;&gt;Node4</title>
<g id="a_edge7_Node000007_Node000004"><a xlink:title=" ">
<path fill="none" stroke="#63b8ff" d="M543.28,-114.42C523.36,-109.36 501.82,-103.89 482.57,-99"/>
<polygon fill="#63b8ff" stroke="#63b8ff" points="542.66,-117.87 553.22,-116.94 544.39,-111.09 542.66,-117.87"/>
</a>
</g>
</g>
<!-- Node8&#45;&gt;Node4 -->
<g id="edge9_Node000008_Node000004" class="edge">
<title>Node8&#45;&gt;Node4</title>
<g id="a_edge9_Node000008_Node000004"><a xlink:title=" ">
<path fill="none" stroke="#63b8ff" d="M543.93,-84C528.76,-84 512.63,-84 497.26,-84"/>
<polygon fill="#63b8ff" stroke="#63b8ff" points="544.25,-87.5 554.25,-84 544.25,-80.5 544.25,-87.5"/>
</a>
</g>
</g>
<!-- Node9&#45;&gt;Node4 -->
<g id="edge11_Node000009_Node000004" class="edge">
<title>Node9&#45;&gt;Node4</title>
<g id="a_edge11_Node000009_Node000004"><a xlink:title=" ">
<path fill="none" stroke="#63b8ff" d="M547.06,-52.62C526.16,-57.93 503.17,-63.77 482.73,-68.96"/>
<polygon fill="#63b8ff" stroke="#63b8ff" points="547.99,-56 556.82,-50.14 546.26,-49.21 547.99,-56"/>
</a>
</g>
</g>
<!-- Node11 -->
<g id="Node000011" class="node">
<title>Node11</title>
<g id="a_Node000011"><a xlink:href="classFCommandFeature.html#ab546196898c4d540b74defb4fb9e2aed" target="_top" xlink:title="툴바용 명령 버튼 메뉴 위젯을 생성합니다.">
<polygon fill="white" stroke="#666666" points="503,-30 342,-30 342,0 503,0 503,-30"/>
<text text-anchor="start" x="350" y="-18" font-family="Malgun Gothic" font-size="10.00">FCommandFeature::Generate</text>
<text text-anchor="middle" x="422.5" y="-7" font-family="Malgun Gothic" font-size="10.00">CommandsMenu</text>
</a>
</g>
</g>
<!-- Node10&#45;&gt;Node11 -->
<g id="edge13_Node000010_Node000011" class="edge">
<title>Node10&#45;&gt;Node11</title>
<g id="a_edge13_Node000010_Node000011"><a xlink:title=" ">
<path fill="none" stroke="#63b8ff" d="M713.75,-12.43C705.04,-12.25 696.36,-12.11 688,-12 621.78,-11.16 605.22,-11.14 539,-12 527.37,-12.15 515.08,-12.39 503.02,-12.66"/>
<polygon fill="#63b8ff" stroke="#63b8ff" points="713.88,-15.93 723.95,-12.64 714.03,-8.93 713.88,-15.93"/>
</a>
</g>
</g>
<!-- Node11&#45;&gt;Node5 -->
<g id="edge14_Node000011_Node000005" class="edge">
<title>Node11&#45;&gt;Node5</title>
<g id="a_edge14_Node000011_Node000005"><a xlink:title=" ">
<path fill="none" stroke="#63b8ff" d="M331.89,-26.78C323.26,-27.92 314.62,-29.06 306.27,-30.15"/>
<polygon fill="#63b8ff" stroke="#63b8ff" points="332.53,-30.23 341.98,-25.46 331.61,-23.29 332.53,-30.23"/>
</a>
</g>
</g>
</g>
</svg>
