<?xml version="1.0" encoding="UTF-8" standalone="no"?>
<!DOCTYPE svg PUBLIC "-//W3C//DTD SVG 1.1//EN"
 "http://www.w3.org/Graphics/SVG/1.1/DTD/svg11.dtd">
<!-- Generated by graphviz version 2.43.0 (0)
 -->
<!-- Title: FToolbar::RegisterMenus Pages: 1 -->
<svg width="795pt" height="400pt"
 viewBox="0.00 0.00 795.00 400.00" xmlns="http://www.w3.org/2000/svg" xmlns:xlink="http://www.w3.org/1999/xlink">
<g id="graph0" class="graph" transform="scale(1 1) rotate(0) translate(4 396)">
<title>FToolbar::RegisterMenus</title>
<!-- Node1 -->
<g id="Node000001" class="node">
<title>Node1</title>
<g id="a_Node000001"><a xlink:title="에디터 확장 프레임워크에 툴바 메뉴와 버튼을 등록합니다.">
<polygon fill="#999999" stroke="#666666" points="136,-168.5 0,-168.5 0,-149.5 136,-149.5 136,-168.5"/>
<text text-anchor="middle" x="68" y="-156.5" font-family="Malgun Gothic" font-size="10.00">FToolbar::RegisterMenus</text>
</a>
</g>
</g>
<!-- Node2 -->
<g id="Node000002" class="node">
<title>Node2</title>
<g id="a_Node000002"><a xlink:href="classFCommandFeature.html#ab546196898c4d540b74defb4fb9e2aed" target="_top" xlink:title="툴바용 명령 버튼 메뉴 위젯을 생성합니다.">
<polygon fill="white" stroke="#666666" points="347.5,-328 186.5,-328 186.5,-298 347.5,-298 347.5,-328"/>
<text text-anchor="start" x="194.5" y="-316" font-family="Malgun Gothic" font-size="10.00">FCommandFeature::Generate</text>
<text text-anchor="middle" x="267" y="-305" font-family="Malgun Gothic" font-size="10.00">CommandsMenu</text>
</a>
</g>
</g>
<!-- Node1&#45;&gt;Node2 -->
<g id="edge1_Node000001_Node000002" class="edge">
<title>Node1&#45;&gt;Node2</title>
<g id="a_edge1_Node000001_Node000002"><a xlink:title=" ">
<path fill="none" stroke="#63b8ff" d="M77.79,-168.52C94.89,-186.74 134.27,-227.3 172,-256 189.85,-269.58 211.12,-282.7 228.91,-292.93"/>
<polygon fill="#63b8ff" stroke="#63b8ff" points="227.43,-296.11 237.86,-298 230.88,-290.02 227.43,-296.11"/>
</a>
</g>
</g>
<!-- Node8 -->
<g id="Node000008" class="node">
<title>Node8</title>
<g id="a_Node000008"><a xlink:href="classFLevelFeature.html#aff2925b502a52156786e925c1bd2af90" target="_top" xlink:title="레벨 선택 항목을 포함한 Slate 위젯을 구성합니다.">
<polygon fill="white" stroke="#666666" points="362,-211.5 172,-211.5 172,-192.5 362,-192.5 362,-211.5"/>
<text text-anchor="middle" x="267" y="-199.5" font-family="Malgun Gothic" font-size="10.00">FLevelFeature::GenerateLevelMenu</text>
</a>
</g>
</g>
<!-- Node1&#45;&gt;Node8 -->
<g id="edge7_Node000001_Node000008" class="edge">
<title>Node1&#45;&gt;Node8</title>
<g id="a_edge7_Node000001_Node000008"><a xlink:title=" ">
<path fill="none" stroke="#63b8ff" d="M108.56,-168.5C127.69,-173.03 151.01,-178.43 172,-183 183.32,-185.46 195.44,-187.99 207.08,-190.37"/>
<polygon fill="#63b8ff" stroke="#63b8ff" points="206.66,-193.85 217.15,-192.41 208.05,-186.99 206.66,-193.85"/>
</a>
</g>
</g>
<!-- Node12 -->
<g id="Node000012" class="node">
<title>Node12</title>
<g id="a_Node000012"><a xlink:href="classFScreenshotFeature.html#a8d4132d3529147e8b44ee904d94c1630" target="_top" xlink:title="언리얼 자동화 라이브러리를 사용해 스크린샷을 촬영합니다.">
<polygon fill="white" stroke="#666666" points="551,-258 423,-258 423,-228 551,-228 551,-258"/>
<text text-anchor="start" x="431" y="-246" font-family="Malgun Gothic" font-size="10.00">FScreenshotFeature</text>
<text text-anchor="middle" x="487" y="-235" font-family="Malgun Gothic" font-size="10.00">::OnCaptureScreenshot</text>
</a>
</g>
</g>
<!-- Node1&#45;&gt;Node12 -->
<g id="edge11_Node000001_Node000012" class="edge">
<title>Node1&#45;&gt;Node12</title>
<g id="a_edge11_Node000001_Node000012"><a xlink:title=" ">
<path fill="none" stroke="#63b8ff" d="M80.76,-168.68C99,-183.05 135.78,-209.56 172,-221 251.51,-246.11 347.79,-249.1 412.61,-247.42"/>
<polygon fill="#63b8ff" stroke="#63b8ff" points="412.84,-250.92 422.73,-247.12 412.63,-243.92 412.84,-250.92"/>
</a>
</g>
</g>
<!-- Node13 -->
<g id="Node000013" class="node">
<title>Node13</title>
<g id="a_Node000013"><a xlink:href="classFScreenshotFeature.html#af01017cd01130c08bf1c63309ea1e2a6" target="_top" xlink:title="촬영된 스크린샷이 저장된 디렉터리를 엽니다.">
<polygon fill="white" stroke="#666666" points="332.5,-174 201.5,-174 201.5,-144 332.5,-144 332.5,-174"/>
<text text-anchor="start" x="209.5" y="-162" font-family="Malgun Gothic" font-size="10.00">FScreenshotFeature</text>
<text text-anchor="middle" x="267" y="-151" font-family="Malgun Gothic" font-size="10.00">::OnOpenScreenShotDir</text>
</a>
</g>
</g>
<!-- Node1&#45;&gt;Node13 -->
<g id="edge13_Node000001_Node000013" class="edge">
<title>Node1&#45;&gt;Node13</title>
<g id="a_edge13_Node000001_Node000013"><a xlink:title=" ">
<path fill="none" stroke="#63b8ff" d="M136.25,-159C153.94,-159 173.13,-159 191.19,-159"/>
<polygon fill="#63b8ff" stroke="#63b8ff" points="191.39,-162.5 201.39,-159 191.39,-155.5 191.39,-162.5"/>
</a>
</g>
</g>
<!-- Node14 -->
<g id="Node000014" class="node">
<title>Node14</title>
<g id="a_Node000014"><a xlink:href="classFLevelFeature.html#a536602356f4e9dcdfcfbe85094782bdb" target="_top" xlink:title="선택된 맵 에셋을 에디터에서 엽니다.">
<polygon fill="white" stroke="#666666" points="340.5,-78 193.5,-78 193.5,-48 340.5,-48 340.5,-78"/>
<text text-anchor="start" x="201.5" y="-66" font-family="Malgun Gothic" font-size="10.00">FLevelFeature::OnSelected</text>
<text text-anchor="middle" x="267" y="-55" font-family="Malgun Gothic" font-size="10.00">Map_Open</text>
</a>
</g>
</g>
<!-- Node1&#45;&gt;Node14 -->
<g id="edge14_Node000001_Node000014" class="edge">
<title>Node1&#45;&gt;Node14</title>
<g id="a_edge14_Node000001_Node000014"><a xlink:title=" ">
<path fill="none" stroke="#63b8ff" d="M79.91,-149.34C97.86,-133.93 135.31,-103.83 172,-87 176.36,-85 180.92,-83.15 185.57,-81.43"/>
<polygon fill="#63b8ff" stroke="#63b8ff" points="186.91,-84.67 195.23,-78.11 184.63,-78.05 186.91,-84.67"/>
</a>
</g>
</g>
<!-- Node17 -->
<g id="Node000017" class="node">
<title>Node17</title>
<g id="a_Node000017"><a xlink:href="classFLevelFeature.html#a31e8a2482aafbc4082a996e3a5a7a0d9" target="_top" xlink:title="선택된 맵으로 새로운 뷰포트에서 PIE를 실행합니다.">
<polygon fill="white" stroke="#666666" points="340.5,-30 193.5,-30 193.5,0 340.5,0 340.5,-30"/>
<text text-anchor="start" x="201.5" y="-18" font-family="Malgun Gothic" font-size="10.00">FLevelFeature::OnSelected</text>
<text text-anchor="middle" x="267" y="-7" font-family="Malgun Gothic" font-size="10.00">Map_PlayInEditor</text>
</a>
</g>
</g>
<!-- Node1&#45;&gt;Node17 -->
<g id="edge17_Node000001_Node000017" class="edge">
<title>Node1&#45;&gt;Node17</title>
<g id="a_edge17_Node000001_Node000017"><a xlink:title=" ">
<path fill="none" stroke="#63b8ff" d="M74.33,-149.48C87.63,-126.63 124.65,-68.4 172,-39 175.81,-36.64 179.83,-34.51 184,-32.58"/>
<polygon fill="#63b8ff" stroke="#63b8ff" points="185.42,-35.78 193.3,-28.7 182.72,-29.32 185.42,-35.78"/>
</a>
</g>
</g>
<!-- Node18 -->
<g id="Node000018" class="node">
<title>Node18</title>
<g id="a_Node000018"><a xlink:href="classFLevelFeature.html#ad659ce46cd4d37948b219e9aa104c2b3" target="_top" xlink:title="선택된 맵으로 현재 뷰포트에서 PIE를 시작합니다.">
<polygon fill="white" stroke="#666666" points="341.5,-126 192.5,-126 192.5,-96 341.5,-96 341.5,-126"/>
<text text-anchor="start" x="200.5" y="-114" font-family="Malgun Gothic" font-size="10.00">FLevelFeature::OnSelected</text>
<text text-anchor="middle" x="267" y="-103" font-family="Malgun Gothic" font-size="10.00">Map_PlaySelectedViewport</text>
</a>
</g>
</g>
<!-- Node1&#45;&gt;Node18 -->
<g id="edge19_Node000001_Node000018" class="edge">
<title>Node1&#45;&gt;Node18</title>
<g id="a_edge19_Node000001_Node000018"><a xlink:title=" ">
<path fill="none" stroke="#63b8ff" d="M108.39,-149.4C132.9,-143.43 165.15,-135.57 194.1,-128.52"/>
<polygon fill="#63b8ff" stroke="#63b8ff" points="195.29,-131.83 204.18,-126.06 193.63,-125.03 195.29,-131.83"/>
</a>
</g>
</g>
<!-- Node3 -->
<g id="Node000003" class="node">
<title>Node3</title>
<g id="a_Node000003"><a xlink:href="classFCommon.html#a7f9a33df4cca4a9488e492d0043c284e" target="_top" xlink:title="전달된 이름으로 애플리케이션 스타일에서 Slate 아이콘을 조회합니다.">
<polygon fill="white" stroke="#666666" points="542,-343.5 432,-343.5 432,-324.5 542,-324.5 542,-343.5"/>
<text text-anchor="middle" x="487" y="-331.5" font-family="Malgun Gothic" font-size="10.00">FCommon::GetIcon</text>
</a>
</g>
</g>
<!-- Node2&#45;&gt;Node3 -->
<g id="edge2_Node000002_Node000003" class="edge">
<title>Node2&#45;&gt;Node3</title>
<g id="a_edge2_Node000002_Node000003"><a xlink:title=" ">
<path fill="none" stroke="#63b8ff" d="M347.63,-320.67C372,-323.02 398.48,-325.57 421.7,-327.81"/>
<polygon fill="#63b8ff" stroke="#63b8ff" points="421.48,-331.3 431.77,-328.78 422.15,-324.33 421.48,-331.3"/>
</a>
</g>
</g>
<!-- Node5 -->
<g id="Node000005" class="node">
<title>Node5</title>
<g id="a_Node000005"><a xlink:href="classFCommandFeature.html#a08ab22cf9f7960c9b8f73c1f80eb981e" target="_top" xlink:title="지정된 툴바 버튼이 현재 토글되어 있는지 반환합니다.">
<polygon fill="white" stroke="#666666" points="565,-392 409,-392 409,-362 565,-362 565,-392"/>
<text text-anchor="start" x="417" y="-380" font-family="Malgun Gothic" font-size="10.00">FCommandFeature::IsButton</text>
<text text-anchor="middle" x="487" y="-369" font-family="Malgun Gothic" font-size="10.00">Toggled</text>
</a>
</g>
</g>
<!-- Node2&#45;&gt;Node5 -->
<g id="edge4_Node000002_Node000005" class="edge">
<title>Node2&#45;&gt;Node5</title>
<g id="a_edge4_Node000002_Node000005"><a xlink:title=" ">
<path fill="none" stroke="#63b8ff" d="M315.74,-328.09C340.27,-335.74 370.67,-345.07 398,-353 405.01,-355.03 412.34,-357.11 419.66,-359.15"/>
<polygon fill="#63b8ff" stroke="#63b8ff" points="419.02,-362.61 429.59,-361.91 420.89,-355.86 419.02,-362.61"/>
</a>
</g>
</g>
<!-- Node6 -->
<g id="Node000006" class="node">
<title>Node6</title>
<g id="a_Node000006"><a xlink:href="classFCommandFeature.html#a3ff8a0398db30ce422496f2281dd3b60" target="_top" xlink:title="전달된 버튼 ID에 매핑된 명령을 실행합니다.">
<polygon fill="white" stroke="#666666" points="570.5,-306 403.5,-306 403.5,-276 570.5,-276 570.5,-306"/>
<text text-anchor="start" x="411.5" y="-294" font-family="Malgun Gothic" font-size="10.00">FCommandFeature::OnExecute</text>
<text text-anchor="middle" x="487" y="-283" font-family="Malgun Gothic" font-size="10.00">ButtonCommand</text>
</a>
</g>
</g>
<!-- Node2&#45;&gt;Node6 -->
<g id="edge5_Node000002_Node000006" class="edge">
<title>Node2&#45;&gt;Node6</title>
<g id="a_edge5_Node000002_Node000006"><a xlink:title=" ">
<path fill="none" stroke="#63b8ff" d="M347.63,-304.96C362.35,-303.48 377.85,-301.91 392.93,-300.39"/>
<polygon fill="#63b8ff" stroke="#63b8ff" points="393.69,-303.83 403.29,-299.35 392.99,-296.87 393.69,-303.83"/>
</a>
</g>
</g>
<!-- Node4 -->
<g id="Node000004" class="node">
<title>Node4</title>
<g id="a_Node000004"><a xlink:href="classFToolbarStyle.html#a3437f8f3e4dcd2c7b68de7b28fc2a95a" target="_top" xlink:title="Slate 스타일 세트를 참조할 때 사용할 이름을 반환합니다.">
<polygon fill="white" stroke="#666666" points="787,-343.5 612,-343.5 612,-324.5 787,-324.5 787,-343.5"/>
<text text-anchor="middle" x="699.5" y="-331.5" font-family="Malgun Gothic" font-size="10.00">FToolbarStyle::GetStyleSetName</text>
</a>
</g>
</g>
<!-- Node3&#45;&gt;Node4 -->
<g id="edge3_Node000003_Node000004" class="edge">
<title>Node3&#45;&gt;Node4</title>
<g id="a_edge3_Node000003_Node000004"><a xlink:title=" ">
<path fill="none" stroke="#63b8ff" d="M542.21,-334C560.42,-334 581.33,-334 601.8,-334"/>
<polygon fill="#63b8ff" stroke="#63b8ff" points="601.8,-337.5 611.8,-334 601.8,-330.5 601.8,-337.5"/>
</a>
</g>
</g>
<!-- Node7 -->
<g id="Node000007" class="node">
<title>Node7</title>
<g id="a_Node000007"><a xlink:href="classFCommon.html#ac247ef6e336abf6ca53b140d93ea07f9" target="_top" xlink:title="툴바 액션이 대상으로 삼는 활성 에디터 월드를 반환합니다.">
<polygon fill="white" stroke="#666666" points="775,-282 624,-282 624,-252 775,-252 775,-282"/>
<text text-anchor="start" x="632" y="-270" font-family="Malgun Gothic" font-size="10.00">FCommon::GetActiveTarget</text>
<text text-anchor="middle" x="699.5" y="-259" font-family="Malgun Gothic" font-size="10.00">World</text>
</a>
</g>
</g>
<!-- Node6&#45;&gt;Node7 -->
<g id="edge6_Node000006_Node000007" class="edge">
<title>Node6&#45;&gt;Node7</title>
<g id="a_edge6_Node000006_Node000007"><a xlink:title=" ">
<path fill="none" stroke="#63b8ff" d="M570.59,-281.58C584.68,-279.98 599.34,-278.31 613.49,-276.69"/>
<polygon fill="#63b8ff" stroke="#63b8ff" points="614.14,-280.14 623.68,-275.53 613.35,-273.19 614.14,-280.14"/>
</a>
</g>
</g>
<!-- Node9 -->
<g id="Node000009" class="node">
<title>Node9</title>
<g id="a_Node000009"><a xlink:href="classUToolbarSettings.html#a839017a8f47a62d4127ad8527d2498ed" target="_top" xlink:title="레벨 선택 헬퍼가 사용할 검색 루트 경로를 수집합니다.">
<polygon fill="white" stroke="#666666" points="564.5,-172 409.5,-172 409.5,-142 564.5,-142 564.5,-172"/>
<text text-anchor="start" x="417.5" y="-160" font-family="Malgun Gothic" font-size="10.00">UToolbarSettings::GetSearch</text>
<text text-anchor="middle" x="487" y="-149" font-family="Malgun Gothic" font-size="10.00">Roots</text>
</a>
</g>
</g>
<!-- Node8&#45;&gt;Node9 -->
<g id="edge8_Node000008_Node000009" class="edge">
<title>Node8&#45;&gt;Node9</title>
<g id="a_edge8_Node000008_Node000009"><a xlink:title=" ">
<path fill="none" stroke="#63b8ff" d="M315.35,-192.5C330.28,-189.48 346.83,-186.12 362,-183 375.92,-180.13 390.7,-177.06 405.04,-174.06"/>
<polygon fill="#63b8ff" stroke="#63b8ff" points="405.8,-177.48 414.87,-172.01 404.37,-170.63 405.8,-177.48"/>
</a>
</g>
</g>
<!-- Node11 -->
<g id="Node000011" class="node">
<title>Node11</title>
<g id="a_Node000011"><a xlink:href="classFLevelFeature.html#ac20da5828b1adc7686fbd96ba8abd1c8" target="_top" xlink:title="선택된 맵 패키지 이름을 저장합니다.">
<polygon fill="white" stroke="#666666" points="571,-209.5 403,-209.5 403,-190.5 571,-190.5 571,-209.5"/>
<text text-anchor="middle" x="487" y="-197.5" font-family="Malgun Gothic" font-size="10.00">FLevelFeature::OnSelectedMap</text>
</a>
</g>
</g>
<!-- Node8&#45;&gt;Node11 -->
<g id="edge10_Node000008_Node000011" class="edge">
<title>Node8&#45;&gt;Node11</title>
<g id="a_edge10_Node000008_Node000011"><a xlink:title=" ">
<path fill="none" stroke="#63b8ff" d="M362.03,-201.14C372.23,-201.04 382.61,-200.95 392.8,-200.86"/>
<polygon fill="#63b8ff" stroke="#63b8ff" points="392.94,-204.35 402.91,-200.76 392.88,-197.35 392.94,-204.35"/>
</a>
</g>
</g>
<!-- Node10 -->
<g id="Node000010" class="node">
<title>Node10</title>
<g id="a_Node000010"><a xlink:href="UToolbarSettings_8cpp.html#a93020a74b1d3099ceb4abe28cf3188d2" target="_top" xlink:title="사용자 입력 디렉터리 문자열을 콘텐츠 루트 형식으로 정규화합니다.">
<polygon fill="white" stroke="#666666" points="754.5,-166.5 644.5,-166.5 644.5,-147.5 754.5,-147.5 754.5,-166.5"/>
<text text-anchor="middle" x="699.5" y="-154.5" font-family="Malgun Gothic" font-size="10.00">NormalizeUserPath</text>
</a>
</g>
</g>
<!-- Node9&#45;&gt;Node10 -->
<g id="edge9_Node000009_Node000010" class="edge">
<title>Node9&#45;&gt;Node10</title>
<g id="a_edge9_Node000009_Node000010"><a xlink:title=" ">
<path fill="none" stroke="#63b8ff" d="M564.59,-157C587.42,-157 612.21,-157 634.17,-157"/>
<polygon fill="#63b8ff" stroke="#63b8ff" points="634.38,-160.5 644.38,-157 634.38,-153.5 634.38,-160.5"/>
</a>
</g>
</g>
<!-- Node12&#45;&gt;Node7 -->
<g id="edge12_Node000012_Node000007" class="edge">
<title>Node12&#45;&gt;Node7</title>
<g id="a_edge12_Node000012_Node000007"><a xlink:title=" ">
<path fill="none" stroke="#63b8ff" d="M551.16,-250.2C570.83,-252.44 592.84,-254.95 613.74,-257.34"/>
<polygon fill="#63b8ff" stroke="#63b8ff" points="613.56,-260.84 623.89,-258.49 614.36,-253.88 613.56,-260.84"/>
</a>
</g>
</g>
<!-- Node15 -->
<g id="Node000015" class="node">
<title>Node15</title>
<g id="a_Node000015"><a xlink:href="classFLevelFeature.html#a63493bc16dc28b58911d3b03c7833aee" target="_top" xlink:title="현재 선택된 맵 패키지를 에디터에 로드합니다.">
<polygon fill="white" stroke="#666666" points="576,-72.5 398,-72.5 398,-53.5 576,-53.5 576,-72.5"/>
<text text-anchor="middle" x="487" y="-60.5" font-family="Malgun Gothic" font-size="10.00">FLevelFeature::LoadSelectedMap</text>
</a>
</g>
</g>
<!-- Node14&#45;&gt;Node15 -->
<g id="edge15_Node000014_Node000015" class="edge">
<title>Node14&#45;&gt;Node15</title>
<g id="a_edge15_Node000014_Node000015"><a xlink:title=" ">
<path fill="none" stroke="#63b8ff" d="M340.59,-63C355.63,-63 371.71,-63 387.5,-63"/>
<polygon fill="#63b8ff" stroke="#63b8ff" points="387.81,-66.5 397.81,-63 387.81,-59.5 387.81,-66.5"/>
</a>
</g>
</g>
<!-- Node16 -->
<g id="Node000016" class="node">
<title>Node16</title>
<g id="a_Node000016"><a xlink:href="classFLevelFeature.html#aad2ad775628a12e462c1e85e90060415" target="_top" xlink:title="선택된 맵 에셋이 여전히 존재하는지 검증합니다.">
<polygon fill="white" stroke="#666666" points="774,-59 625,-59 625,-29 774,-29 774,-59"/>
<text text-anchor="start" x="633" y="-47" font-family="Malgun Gothic" font-size="10.00">FLevelFeature::EnsureValid</text>
<text text-anchor="middle" x="699.5" y="-36" font-family="Malgun Gothic" font-size="10.00">SelectedMap</text>
</a>
</g>
</g>
<!-- Node15&#45;&gt;Node16 -->
<g id="edge16_Node000015_Node000016" class="edge">
<title>Node15&#45;&gt;Node16</title>
<g id="a_edge16_Node000015_Node000016"><a xlink:title=" ">
<path fill="none" stroke="#63b8ff" d="M576.05,-55.05C588.85,-53.9 602,-52.71 614.72,-51.56"/>
<polygon fill="#63b8ff" stroke="#63b8ff" points="615.16,-55.04 624.8,-50.65 614.53,-48.07 615.16,-55.04"/>
</a>
</g>
</g>
<!-- Node17&#45;&gt;Node16 -->
<g id="edge18_Node000017_Node000016" class="edge">
<title>Node17&#45;&gt;Node16</title>
<g id="a_edge18_Node000017_Node000016"><a xlink:title=" ">
<path fill="none" stroke="#63b8ff" d="M340.54,-19.89C416.38,-25 535.22,-33 614.93,-38.37"/>
<polygon fill="#63b8ff" stroke="#63b8ff" points="614.73,-41.86 624.94,-39.04 615.2,-34.88 614.73,-41.86"/>
</a>
</g>
</g>
<!-- Node18&#45;&gt;Node15 -->
<g id="edge20_Node000018_Node000015" class="edge">
<title>Node18&#45;&gt;Node15</title>
<g id="a_edge20_Node000018_Node000015"><a xlink:title=" ">
<path fill="none" stroke="#63b8ff" d="M336.38,-95.94C367.43,-89.11 403.62,-81.14 432.62,-74.75"/>
<polygon fill="#63b8ff" stroke="#63b8ff" points="433.55,-78.13 442.56,-72.56 432.04,-71.3 433.55,-78.13"/>
</a>
</g>
</g>
</g>
</svg>
