<?xml version="1.0" encoding="UTF-8" standalone="no"?>
<!DOCTYPE svg PUBLIC "-//W3C//DTD SVG 1.1//EN"
 "http://www.w3.org/Graphics/SVG/1.1/DTD/svg11.dtd">
<!-- Generated by graphviz version 2.43.0 (0)
 -->
<!-- Title: FScreenshotFeature::GenerateScreenshotMenu Pages: 1 -->
<svg width="700pt" height="230pt"
 viewBox="0.00 0.00 700.00 230.00" xmlns="http://www.w3.org/2000/svg" xmlns:xlink="http://www.w3.org/1999/xlink">
<g id="graph0" class="graph" transform="scale(1 1) rotate(0) translate(4 226)">
<title>FScreenshotFeature::GenerateScreenshotMenu</title>
<!-- Node1 -->
<g id="Node000001" class="node">
<title>Node1</title>
<g id="a_Node000001"><a xlink:title="스크린샷 옵션을 제공하는 메뉴 위젯을 생성합니다.">
<polygon fill="#999999" stroke="#666666" points="149,-126 0,-126 0,-96 149,-96 149,-126"/>
<text text-anchor="start" x="8" y="-114" font-family="Malgun Gothic" font-size="10.00">FScreenshotFeature</text>
<text text-anchor="middle" x="74.5" y="-103" font-family="Malgun Gothic" font-size="10.00">::GenerateScreenshotMenu</text>
</a>
</g>
</g>
<!-- Node2 -->
<g id="Node000002" class="node">
<title>Node2</title>
<g id="a_Node000002"><a xlink:href="classFScreenshotFeature.html#a31ee01aa337c4b724c6ec8a550f99c05" target="_top" xlink:title="고해상도 스크린샷(4x 배율)을 촬영합니다.">
<polygon fill="white" stroke="#666666" points="334,-222 185,-222 185,-192 334,-192 334,-222"/>
<text text-anchor="start" x="193" y="-210" font-family="Malgun Gothic" font-size="10.00">FScreenshotFeature</text>
<text text-anchor="middle" x="259.5" y="-199" font-family="Malgun Gothic" font-size="10.00">::OnCaptureHighResolution</text>
</a>
</g>
</g>
<!-- Node1&#45;&gt;Node2 -->
<g id="edge1_Node000001_Node000002" class="edge">
<title>Node1&#45;&gt;Node2</title>
<g id="a_edge1_Node000001_Node000002"><a xlink:title=" ">
<path fill="none" stroke="#63b8ff" d="M95.12,-126.23C116.33,-142.12 151.58,-166.91 185,-183 188.81,-184.83 192.8,-186.58 196.85,-188.23"/>
<polygon fill="#63b8ff" stroke="#63b8ff" points="195.82,-191.59 206.41,-191.91 198.34,-185.05 195.82,-191.59"/>
</a>
</g>
</g>
<!-- Node5 -->
<g id="Node000005" class="node">
<title>Node5</title>
<g id="a_Node000005"><a xlink:href="classFScreenshotFeature.html#a7189e1c261246eb0d4f1a2af11ab89bd" target="_top" xlink:title="빠른 참고용 스크린샷(1x 배율)을 촬영합니다.">
<polygon fill="white" stroke="#666666" points="330,-174 189,-174 189,-144 330,-144 330,-174"/>
<text text-anchor="start" x="197" y="-162" font-family="Malgun Gothic" font-size="10.00">FScreenshotFeature</text>
<text text-anchor="middle" x="259.5" y="-151" font-family="Malgun Gothic" font-size="10.00">::OnCaptureQuickPreview</text>
</a>
</g>
</g>
<!-- Node1&#45;&gt;Node5 -->
<g id="edge4_Node000001_Node000005" class="edge">
<title>Node1&#45;&gt;Node5</title>
<g id="a_edge4_Node000001_Node000005"><a xlink:title=" ">
<path fill="none" stroke="#63b8ff" d="M132.9,-126.06C151.47,-130.93 172.22,-136.37 191.42,-141.41"/>
<polygon fill="#63b8ff" stroke="#63b8ff" points="190.74,-144.85 201.3,-144 192.52,-138.07 190.74,-144.85"/>
</a>
</g>
</g>
<!-- Node6 -->
<g id="Node000006" class="node">
<title>Node6</title>
<g id="a_Node000006"><a xlink:href="classFScreenshotFeature.html#afc1b23933c9d67077c2e726610688605" target="_top" xlink:title="보통 품질 스크린샷(2x 배율)을 촬영합니다.">
<polygon fill="white" stroke="#666666" points="318.5,-126 200.5,-126 200.5,-96 318.5,-96 318.5,-126"/>
<text text-anchor="start" x="208.5" y="-114" font-family="Malgun Gothic" font-size="10.00">FScreenshotFeature</text>
<text text-anchor="middle" x="259.5" y="-103" font-family="Malgun Gothic" font-size="10.00">::OnCaptureStandard</text>
</a>
</g>
</g>
<!-- Node1&#45;&gt;Node6 -->
<g id="edge6_Node000001_Node000006" class="edge">
<title>Node1&#45;&gt;Node6</title>
<g id="a_edge6_Node000001_Node000006"><a xlink:title=" ">
<path fill="none" stroke="#63b8ff" d="M149.14,-111C162.75,-111 176.92,-111 190.36,-111"/>
<polygon fill="#63b8ff" stroke="#63b8ff" points="190.47,-114.5 200.47,-111 190.47,-107.5 190.47,-114.5"/>
</a>
</g>
</g>
<!-- Node7 -->
<g id="Node000007" class="node">
<title>Node7</title>
<g id="a_Node000007"><a xlink:href="classFScreenshotFeature.html#a756ceabcb0e485733fa095066f2970fa" target="_top" xlink:title="울트라 고해상도 스크린샷(8x 배율)을 촬영합니다.">
<polygon fill="white" stroke="#666666" points="316,-78 203,-78 203,-48 316,-48 316,-78"/>
<text text-anchor="start" x="211" y="-66" font-family="Malgun Gothic" font-size="10.00">FScreenshotFeature</text>
<text text-anchor="middle" x="259.5" y="-55" font-family="Malgun Gothic" font-size="10.00">::OnCaptureUltra</text>
</a>
</g>
</g>
<!-- Node1&#45;&gt;Node7 -->
<g id="edge8_Node000001_Node000007" class="edge">
<title>Node1&#45;&gt;Node7</title>
<g id="a_edge8_Node000001_Node000007"><a xlink:title=" ">
<path fill="none" stroke="#63b8ff" d="M132.9,-95.94C152,-90.93 173.41,-85.32 193.07,-80.16"/>
<polygon fill="#63b8ff" stroke="#63b8ff" points="194.08,-83.51 202.87,-77.59 192.31,-76.74 194.08,-83.51"/>
</a>
</g>
</g>
<!-- Node8 -->
<g id="Node000008" class="node">
<title>Node8</title>
<g id="a_Node000008"><a xlink:href="classFScreenshotFeature.html#af01017cd01130c08bf1c63309ea1e2a6" target="_top" xlink:title="촬영된 스크린샷이 저장된 디렉터리를 엽니다.">
<polygon fill="white" stroke="#666666" points="325,-30 194,-30 194,0 325,0 325,-30"/>
<text text-anchor="start" x="202" y="-18" font-family="Malgun Gothic" font-size="10.00">FScreenshotFeature</text>
<text text-anchor="middle" x="259.5" y="-7" font-family="Malgun Gothic" font-size="10.00">::OnOpenScreenShotDir</text>
</a>
</g>
</g>
<!-- Node1&#45;&gt;Node8 -->
<g id="edge10_Node000001_Node000008" class="edge">
<title>Node1&#45;&gt;Node8</title>
<g id="a_edge10_Node000001_Node000008"><a xlink:title=" ">
<path fill="none" stroke="#63b8ff" d="M95.12,-95.77C116.33,-79.88 151.58,-55.09 185,-39 188.81,-37.17 192.8,-35.42 196.85,-33.77"/>
<polygon fill="#63b8ff" stroke="#63b8ff" points="198.34,-36.95 206.41,-30.09 195.82,-30.41 198.34,-36.95"/>
</a>
</g>
</g>
<!-- Node3 -->
<g id="Node000003" class="node">
<title>Node3</title>
<g id="a_Node000003"><a xlink:href="classFScreenshotFeature.html#aaab75697de4685c906b26140e54301b6" target="_top" xlink:title="지정된 배율로 활성 뷰포트에 고해상도 캡처를 요청합니다.">
<polygon fill="white" stroke="#666666" points="505,-150 370,-150 370,-120 505,-120 505,-150"/>
<text text-anchor="start" x="378" y="-138" font-family="Malgun Gothic" font-size="10.00">FScreenshotFeature</text>
<text text-anchor="middle" x="437.5" y="-127" font-family="Malgun Gothic" font-size="10.00">::CaptureActiveViewport</text>
</a>
</g>
</g>
<!-- Node2&#45;&gt;Node3 -->
<g id="edge2_Node000002_Node000003" class="edge">
<title>Node2&#45;&gt;Node3</title>
<g id="a_edge2_Node000002_Node000003"><a xlink:title=" ">
<path fill="none" stroke="#63b8ff" d="M309.43,-191.95C317.69,-189.15 326.14,-186.11 334,-183 355.41,-174.53 378.7,-163.75 397.66,-154.56"/>
<polygon fill="#63b8ff" stroke="#63b8ff" points="399.43,-157.59 406.87,-150.05 396.35,-151.3 399.43,-157.59"/>
</a>
</g>
</g>
<!-- Node4 -->
<g id="Node000004" class="node">
<title>Node4</title>
<g id="a_Node000004"><a xlink:href="classFCommon.html#ac247ef6e336abf6ca53b140d93ea07f9" target="_top" xlink:title="툴바 액션이 대상으로 삼는 활성 에디터 월드를 반환합니다.">
<polygon fill="white" stroke="#666666" points="692,-150 541,-150 541,-120 692,-120 692,-150"/>
<text text-anchor="start" x="549" y="-138" font-family="Malgun Gothic" font-size="10.00">FCommon::GetActiveTarget</text>
<text text-anchor="middle" x="616.5" y="-127" font-family="Malgun Gothic" font-size="10.00">World</text>
</a>
</g>
</g>
<!-- Node3&#45;&gt;Node4 -->
<g id="edge3_Node000003_Node000004" class="edge">
<title>Node3&#45;&gt;Node4</title>
<g id="a_edge3_Node000003_Node000004"><a xlink:title=" ">
<path fill="none" stroke="#63b8ff" d="M505.16,-135C513.55,-135 522.21,-135 530.82,-135"/>
<polygon fill="#63b8ff" stroke="#63b8ff" points="530.89,-138.5 540.89,-135 530.89,-131.5 530.89,-138.5"/>
</a>
</g>
</g>
<!-- Node5&#45;&gt;Node3 -->
<g id="edge5_Node000005_Node000003" class="edge">
<title>Node5&#45;&gt;Node3</title>
<g id="a_edge5_Node000005_Node000003"><a xlink:title=" ">
<path fill="none" stroke="#63b8ff" d="M330.06,-149.51C339.76,-148.19 349.77,-146.83 359.59,-145.49"/>
<polygon fill="#63b8ff" stroke="#63b8ff" points="360.31,-148.92 369.74,-144.1 359.36,-141.99 360.31,-148.92"/>
</a>
</g>
</g>
<!-- Node6&#45;&gt;Node3 -->
<g id="edge7_Node000006_Node000003" class="edge">
<title>Node6&#45;&gt;Node3</title>
<g id="a_edge7_Node000006_Node000003"><a xlink:title=" ">
<path fill="none" stroke="#63b8ff" d="M318.62,-118.93C331.83,-120.73 346.06,-122.67 359.91,-124.56"/>
<polygon fill="#63b8ff" stroke="#63b8ff" points="359.53,-128.04 369.91,-125.92 360.48,-121.1 359.53,-128.04"/>
</a>
</g>
</g>
<!-- Node7&#45;&gt;Node3 -->
<g id="edge9_Node000007_Node000003" class="edge">
<title>Node7&#45;&gt;Node3</title>
<g id="a_edge9_Node000007_Node000003"><a xlink:title=" ">
<path fill="none" stroke="#63b8ff" d="M309.43,-78.05C317.69,-80.85 326.14,-83.89 334,-87 355.41,-95.47 378.7,-106.25 397.66,-115.44"/>
<polygon fill="#63b8ff" stroke="#63b8ff" points="396.35,-118.7 406.87,-119.95 399.43,-112.41 396.35,-118.7"/>
</a>
</g>
</g>
</g>
</svg>
