<?xml version="1.0" encoding="UTF-8" standalone="no"?>
<!DOCTYPE svg PUBLIC "-//W3C//DTD SVG 1.1//EN"
 "http://www.w3.org/Graphics/SVG/1.1/DTD/svg11.dtd">
<!-- Generated by graphviz version 2.43.0 (0)
 -->
<!-- Title: FScreenshotFeature::OnCaptureStandard Pages: 1 -->
<svg width="484pt" height="38pt"
 viewBox="0.00 0.00 484.00 38.00" xmlns="http://www.w3.org/2000/svg" xmlns:xlink="http://www.w3.org/1999/xlink">
<g id="graph0" class="graph" transform="scale(1 1) rotate(0) translate(4 34)">
<title>FScreenshotFeature::OnCaptureStandard</title>
<!-- Node1 -->
<g id="Node000001" class="node">
<title>Node1</title>
<g id="a_Node000001"><a xlink:title="보통 품질 스크린샷(2x 배율)을 촬영합니다.">
<polygon fill="#999999" stroke="#666666" points="118,-30 0,-30 0,0 118,0 118,-30"/>
<text text-anchor="start" x="8" y="-18" font-family="Malgun Gothic" font-size="10.00">FScreenshotFeature</text>
<text text-anchor="middle" x="59" y="-7" font-family="Malgun Gothic" font-size="10.00">::OnCaptureStandard</text>
</a>
</g>
</g>
<!-- Node2 -->
<g id="Node000002" class="node">
<title>Node2</title>
<g id="a_Node000002"><a xlink:href="classFScreenshotFeature.html#aaab75697de4685c906b26140e54301b6" target="_top" xlink:title="지정된 배율로 활성 뷰포트에 고해상도 캡처를 요청합니다.">
<polygon fill="white" stroke="#666666" points="289,-30 154,-30 154,0 289,0 289,-30"/>
<text text-anchor="start" x="162" y="-18" font-family="Malgun Gothic" font-size="10.00">FScreenshotFeature</text>
<text text-anchor="middle" x="221.5" y="-7" font-family="Malgun Gothic" font-size="10.00">::CaptureActiveViewport</text>
</a>
</g>
</g>
<!-- Node1&#45;&gt;Node2 -->
<g id="edge1_Node000001_Node000002" class="edge">
<title>Node1&#45;&gt;Node2</title>
<g id="a_edge1_Node000001_Node000002"><a xlink:title=" ">
<path fill="none" stroke="#63b8ff" d="M118.4,-15C126.71,-15 135.36,-15 143.95,-15"/>
<polygon fill="#63b8ff" stroke="#63b8ff" points="143.99,-18.5 153.99,-15 143.99,-11.5 143.99,-18.5"/>
</a>
</g>
</g>
<!-- Node3 -->
<g id="Node000003" class="node">
<title>Node3</title>
<g id="a_Node000003"><a xlink:href="classFCommon.html#ac247ef6e336abf6ca53b140d93ea07f9" target="_top" xlink:title="툴바 액션이 대상으로 삼는 활성 에디터 월드를 반환합니다.">
<polygon fill="white" stroke="#666666" points="476,-30 325,-30 325,0 476,0 476,-30"/>
<text text-anchor="start" x="333" y="-18" font-family="Malgun Gothic" font-size="10.00">FCommon::GetActiveTarget</text>
<text text-anchor="middle" x="400.5" y="-7" font-family="Malgun Gothic" font-size="10.00">World</text>
</a>
</g>
</g>
<!-- Node2&#45;&gt;Node3 -->
<g id="edge2_Node000002_Node000003" class="edge">
<title>Node2&#45;&gt;Node3</title>
<g id="a_edge2_Node000002_Node000003"><a xlink:title=" ">
<path fill="none" stroke="#63b8ff" d="M289.16,-15C297.55,-15 306.21,-15 314.82,-15"/>
<polygon fill="#63b8ff" stroke="#63b8ff" points="314.89,-18.5 324.89,-15 314.89,-11.5 314.89,-18.5"/>
</a>
</g>
</g>
</g>
</svg>
