<?xml version="1.0" encoding="UTF-8" standalone="no"?>
<!DOCTYPE svg PUBLIC "-//W3C//DTD SVG 1.1//EN"
 "http://www.w3.org/Graphics/SVG/1.1/DTD/svg11.dtd">
<!-- Generated by graphviz version 2.43.0 (0)
 -->
<!-- Title: FToolbar::RegisterMenus Pages: 1 -->
<!--zoomable 518 -->

<svg id="main" version="1.1" xmlns="http://www.w3.org/2000/svg" xmlns:xlink="http://www.w3.org/1999/xlink" xml:space="preserve" onload="init(evt)">
<style type="text/css"><![CDATA[
.node, .edge {opacity: 0.7;}
.node.selected, .edge.selected {opacity: 1;}
.edge:hover path { stroke: red; }
.edge:hover polygon { stroke: red; fill: red; }
]]></style>

<defs>
  <circle id="rim" cx="0" cy="0" r="7"/>
  <circle id="rim2" cx="0" cy="0" r="3.5"/>
  <g id="zoomPlus">
    <use xlink:href="#rim" fill="#404040"><set attributeName="fill" to="#808080" begin="zoomplus.mouseover" end="zoomplus.mouseout"/></use>
    <path d="M-4,0h8M0,-4v8" fill="none" stroke="white" stroke-width="1.5" pointer-events="none"/>
  </g>
  <g id="zoomMin">
    <use xlink:href="#rim" fill="#404040"><set attributeName="fill" to="#808080" begin="zoomminus.mouseover" end="zoomminus.mouseout"/></use>
    <path d="M-4,0h8" fill="none" stroke="white" stroke-width="1.5" pointer-events="none"/>
  </g>
  <g id="arrowUp" transform="translate(30 24)">
    <use xlink:href="#rim"/>
    <path pointer-events="none" fill="none" stroke="white" stroke-width="1.5" d="M0,-3.0v7 M-2.5,-0.5L0,-3.0L2.5,-0.5"/>
  </g>
  <g id="arrowRight" transform="rotate(90) translate(36 -43)">
    <use xlink:href="#rim"/>
    <path pointer-events="none" fill="none" stroke="white" stroke-width="1.5" d="M0,-3.0v7 M-2.5,-0.5L0,-3.0L2.5,-0.5"/>
  </g>
  <g id="arrowDown" transform="rotate(180) translate(-30 -48)">
    <use xlink:href="#rim"/>
    <path pointer-events="none" fill="none" stroke="white" stroke-width="1.5" d="M0,-3.0v7 M-2.5,-0.5L0,-3.0L2.5,-0.5"/>
  </g>
  <g id="arrowLeft" transform="rotate(270) translate(-36 17)">
    <use xlink:href="#rim"/>
    <path pointer-events="none" fill="none" stroke="white" stroke-width="1.5" d="M0,-3.0v7 M-2.5,-0.5L0,-3.0L2.5,-0.5"/>
  </g>
  <g id="resetDef">
    <use xlink:href="#rim2" fill="#404040"><set attributeName="fill" to="#808080" begin="reset.mouseover" end="reset.mouseout"/></use>
  </g>
</defs>
<script type="application/ecmascript">
var viewWidth = 982;
var viewHeight = 518;
var sectionId = 'dynsection-2';
</script>
<script type="application/ecmascript" xlink:href="svg.min.js"/>
<svg id="graph" class="graph">
<g id="viewport">
<title>FToolbar::RegisterMenus</title>
<!-- Node1 -->
<g id="Node000001" class="node">
<title>Node1</title>
<g id="a_Node000001"><a xlink:title="에디터 확장 프레임워크에 툴바 메뉴와 버튼을 등록합니다.">
<polygon fill="#999999" stroke="#666666" points="136,-156.5 0,-156.5 0,-137.5 136,-137.5 136,-156.5"/>
<text text-anchor="middle" x="68" y="-144.5" font-family="Malgun Gothic" font-size="10.00">FToolbar::RegisterMenus</text>
</a>
</g>
</g>
<!-- Node2 -->
<g id="Node000002" class="node">
<title>Node2</title>
<g id="a_Node000002"><a xlink:href="classFCommandFeature.html#ab546196898c4d540b74defb4fb9e2aed" target="_top" xlink:title="툴바용 명령 버튼 메뉴 위젯을 생성합니다.">
<polygon fill="white" stroke="#666666" points="347.5,-450 186.5,-450 186.5,-420 347.5,-420 347.5,-450"/>
<text text-anchor="start" x="194.5" y="-438" font-family="Malgun Gothic" font-size="10.00">FCommandFeature::Generate</text>
<text text-anchor="middle" x="267" y="-427" font-family="Malgun Gothic" font-size="10.00">CommandsMenu</text>
</a>
</g>
</g>
<!-- Node1&#45;&gt;Node2 -->
<g id="edge1_Node000001_Node000002" class="edge">
<title>Node1&#45;&gt;Node2</title>
<g id="a_edge1_Node000001_Node000002"><a xlink:title=" ">
<path fill="none" stroke="#63b8ff" d="M72.66,-156.84C84.21,-187.13 122.09,-280.93 172,-347 191.19,-372.4 218.11,-396.77 238.23,-413.39"/>
<polygon fill="#63b8ff" stroke="#63b8ff" points="236.15,-416.21 246.12,-419.81 240.56,-410.78 236.15,-416.21"/>
</a>
</g>
</g>
<!-- Node8 -->
<g id="Node000008" class="node">
<title>Node8</title>
<g id="a_Node000008"><a xlink:href="classFLevelFeature.html#aff2925b502a52156786e925c1bd2af90" target="_top" xlink:title="레벨 선택 항목을 포함한 Slate 위젯을 구성합니다.">
<polygon fill="white" stroke="#666666" points="362,-337.5 172,-337.5 172,-318.5 362,-318.5 362,-337.5"/>
<text text-anchor="middle" x="267" y="-325.5" font-family="Malgun Gothic" font-size="10.00">FLevelFeature::GenerateLevelMenu</text>
</a>
</g>
</g>
<!-- Node1&#45;&gt;Node8 -->
<g id="edge7_Node000001_Node000008" class="edge">
<title>Node1&#45;&gt;Node8</title>
<g id="a_edge7_Node000001_Node000008"><a xlink:title=" ">
<path fill="none" stroke="#63b8ff" d="M79.59,-156.73C111.59,-186.13 207.55,-274.3 247.86,-311.33"/>
<polygon fill="#63b8ff" stroke="#63b8ff" points="245.62,-314.03 255.36,-318.22 250.36,-308.88 245.62,-314.03"/>
</a>
</g>
</g>
<!-- Node12 -->
<g id="Node000012" class="node">
<title>Node12</title>
<g id="a_Node000012"><a xlink:href="classFScreenshotFeature.html#a56fc11b5f6023d5492e26d9354807082" target="_top" xlink:title="스크린샷 옵션을 제공하는 메뉴 위젯을 생성합니다.">
<polygon fill="white" stroke="#666666" points="341.5,-188 192.5,-188 192.5,-158 341.5,-158 341.5,-188"/>
<text text-anchor="start" x="200.5" y="-176" font-family="Malgun Gothic" font-size="10.00">FScreenshotFeature</text>
<text text-anchor="middle" x="267" y="-165" font-family="Malgun Gothic" font-size="10.00">::GenerateScreenshotMenu</text>
</a>
</g>
</g>
<!-- Node1&#45;&gt;Node12 -->
<g id="edge11_Node000001_Node000012" class="edge">
<title>Node1&#45;&gt;Node12</title>
<g id="a_edge11_Node000001_Node000012"><a xlink:title=" ">
<path fill="none" stroke="#63b8ff" d="M136.25,-155.88C151.06,-157.83 166.92,-159.92 182.29,-161.95"/>
<polygon fill="#63b8ff" stroke="#63b8ff" points="181.94,-165.44 192.31,-163.27 182.85,-158.5 181.94,-165.44"/>
</a>
</g>
</g>
<!-- Node19 -->
<g id="Node000019" class="node">
<title>Node19</title>
<g id="a_Node000019"><a xlink:href="classFLevelFeature.html#a536602356f4e9dcdfcfbe85094782bdb" target="_top" xlink:title="선택된 맵 에셋을 에디터에서 엽니다.">
<polygon fill="white" stroke="#666666" points="340.5,-138 193.5,-138 193.5,-108 340.5,-108 340.5,-138"/>
<text text-anchor="start" x="201.5" y="-126" font-family="Malgun Gothic" font-size="10.00">FLevelFeature::OnSelected</text>
<text text-anchor="middle" x="267" y="-115" font-family="Malgun Gothic" font-size="10.00">Map_Open</text>
</a>
</g>
</g>
<!-- Node1&#45;&gt;Node19 -->
<g id="edge22_Node000001_Node000019" class="edge">
<title>Node1&#45;&gt;Node19</title>
<g id="a_edge22_Node000001_Node000019"><a xlink:title=" ">
<path fill="none" stroke="#63b8ff" d="M136.25,-138.81C151.33,-136.97 167.51,-135 183.15,-133.09"/>
<polygon fill="#63b8ff" stroke="#63b8ff" points="183.83,-136.54 193.33,-131.85 182.98,-129.59 183.83,-136.54"/>
</a>
</g>
</g>
<!-- Node22 -->
<g id="Node000022" class="node">
<title>Node22</title>
<g id="a_Node000022"><a xlink:href="classFLevelFeature.html#a31e8a2482aafbc4082a996e3a5a7a0d9" target="_top" xlink:title="선택된 맵으로 새로운 뷰포트에서 PIE를 실행합니다.">
<polygon fill="white" stroke="#666666" points="340.5,-30 193.5,-30 193.5,0 340.5,0 340.5,-30"/>
<text text-anchor="start" x="201.5" y="-18" font-family="Malgun Gothic" font-size="10.00">FLevelFeature::OnSelected</text>
<text text-anchor="middle" x="267" y="-7" font-family="Malgun Gothic" font-size="10.00">Map_PlayInEditor</text>
</a>
</g>
</g>
<!-- Node1&#45;&gt;Node22 -->
<g id="edge25_Node000001_Node000022" class="edge">
<title>Node1&#45;&gt;Node22</title>
<g id="a_edge25_Node000001_Node000022"><a xlink:title=" ">
<path fill="none" stroke="#63b8ff" d="M76.46,-137.3C92.09,-117.57 130.34,-72.51 172,-47 180.38,-41.87 189.69,-37.44 199.1,-33.65"/>
<polygon fill="#63b8ff" stroke="#63b8ff" points="200.4,-36.89 208.51,-30.07 197.92,-30.35 200.4,-36.89"/>
</a>
</g>
</g>
<!-- Node23 -->
<g id="Node000023" class="node">
<title>Node23</title>
<g id="a_Node000023"><a xlink:href="classFLevelFeature.html#ad659ce46cd4d37948b219e9aa104c2b3" target="_top" xlink:title="선택된 맵으로 현재 뷰포트에서 PIE를 시작합니다.">
<polygon fill="white" stroke="#666666" points="341.5,-86 192.5,-86 192.5,-56 341.5,-56 341.5,-86"/>
<text text-anchor="start" x="200.5" y="-74" font-family="Malgun Gothic" font-size="10.00">FLevelFeature::OnSelected</text>
<text text-anchor="middle" x="267" y="-63" font-family="Malgun Gothic" font-size="10.00">Map_PlaySelectedViewport</text>
</a>
</g>
</g>
<!-- Node1&#45;&gt;Node23 -->
<g id="edge27_Node000001_Node000023" class="edge">
<title>Node1&#45;&gt;Node23</title>
<g id="a_edge27_Node000001_Node000023"><a xlink:title=" ">
<path fill="none" stroke="#63b8ff" d="M87.26,-137.5C107.58,-127.15 141.57,-110.55 172,-99 181.19,-95.51 191.02,-92.17 200.73,-89.09"/>
<polygon fill="#63b8ff" stroke="#63b8ff" points="201.86,-92.4 210.38,-86.1 199.79,-85.72 201.86,-92.4"/>
</a>
</g>
</g>
<!-- Node3 -->
<g id="Node000003" class="node">
<title>Node3</title>
<g id="a_Node000003"><a xlink:href="classFCommon.html#a7f9a33df4cca4a9488e492d0043c284e" target="_top" xlink:title="전달된 이름으로 애플리케이션 스타일에서 Slate 아이콘을 조회합니다.">
<polygon fill="white" stroke="#666666" points="542,-509.5 432,-509.5 432,-490.5 542,-490.5 542,-509.5"/>
<text text-anchor="middle" x="487" y="-497.5" font-family="Malgun Gothic" font-size="10.00">FCommon::GetIcon</text>
</a>
</g>
</g>
<!-- Node2&#45;&gt;Node3 -->
<g id="edge2_Node000002_Node000003" class="edge">
<title>Node2&#45;&gt;Node3</title>
<g id="a_edge2_Node000002_Node000003"><a xlink:title=" ">
<path fill="none" stroke="#63b8ff" d="M306.55,-450.1C332.2,-459.78 366.79,-472.15 398,-481 407.15,-483.6 416.92,-486.03 426.51,-488.24"/>
<polygon fill="#63b8ff" stroke="#63b8ff" points="425.87,-491.68 436.39,-490.45 427.4,-484.85 425.87,-491.68"/>
</a>
</g>
</g>
<!-- Node5 -->
<g id="Node000005" class="node">
<title>Node5</title>
<g id="a_Node000005"><a xlink:href="classFCommandFeature.html#a08ab22cf9f7960c9b8f73c1f80eb981e" target="_top" xlink:title="지정된 툴바 버튼이 현재 토글되어 있는지 반환합니다.">
<polygon fill="white" stroke="#666666" points="565,-472 409,-472 409,-442 565,-442 565,-472"/>
<text text-anchor="start" x="417" y="-460" font-family="Malgun Gothic" font-size="10.00">FCommandFeature::IsButton</text>
<text text-anchor="middle" x="487" y="-449" font-family="Malgun Gothic" font-size="10.00">Toggled</text>
</a>
</g>
</g>
<!-- Node2&#45;&gt;Node5 -->
<g id="edge4_Node000002_Node000005" class="edge">
<title>Node2&#45;&gt;Node5</title>
<g id="a_edge4_Node000002_Node000005"><a xlink:title=" ">
<path fill="none" stroke="#63b8ff" d="M347.63,-443.04C364.15,-444.7 381.64,-446.47 398.42,-448.16"/>
<polygon fill="#63b8ff" stroke="#63b8ff" points="398.47,-451.68 408.77,-449.21 399.17,-444.72 398.47,-451.68"/>
</a>
</g>
</g>
<!-- Node6 -->
<g id="Node000006" class="node">
<title>Node6</title>
<g id="a_Node000006"><a xlink:href="classFCommandFeature.html#a3ff8a0398db30ce422496f2281dd3b60" target="_top" xlink:title="전달된 버튼 ID에 매핑된 명령을 실행합니다.">
<polygon fill="white" stroke="#666666" points="783,-429 616,-429 616,-399 783,-399 783,-429"/>
<text text-anchor="start" x="624" y="-417" font-family="Malgun Gothic" font-size="10.00">FCommandFeature::OnExecute</text>
<text text-anchor="middle" x="699.5" y="-406" font-family="Malgun Gothic" font-size="10.00">ButtonCommand</text>
</a>
</g>
</g>
<!-- Node2&#45;&gt;Node6 -->
<g id="edge5_Node000002_Node000006" class="edge">
<title>Node2&#45;&gt;Node6</title>
<g id="a_edge5_Node000002_Node000006"><a xlink:title=" ">
<path fill="none" stroke="#63b8ff" d="M347.71,-431.11C420.75,-427.55 528.9,-422.27 605.77,-418.52"/>
<polygon fill="#63b8ff" stroke="#63b8ff" points="606.12,-422.01 615.93,-418.03 605.78,-415.02 606.12,-422.01"/>
</a>
</g>
</g>
<!-- Node4 -->
<g id="Node000004" class="node">
<title>Node4</title>
<g id="a_Node000004"><a xlink:href="classFToolbarStyle.html#a3437f8f3e4dcd2c7b68de7b28fc2a95a" target="_top" xlink:title="Slate 스타일 세트를 참조할 때 사용할 이름을 반환합니다.">
<polygon fill="white" stroke="#666666" points="787,-509.5 612,-509.5 612,-490.5 787,-490.5 787,-509.5"/>
<text text-anchor="middle" x="699.5" y="-497.5" font-family="Malgun Gothic" font-size="10.00">FToolbarStyle::GetStyleSetName</text>
</a>
</g>
</g>
<!-- Node3&#45;&gt;Node4 -->
<g id="edge3_Node000003_Node000004" class="edge">
<title>Node3&#45;&gt;Node4</title>
<g id="a_edge3_Node000003_Node000004"><a xlink:title=" ">
<path fill="none" stroke="#63b8ff" d="M542.21,-500C560.42,-500 581.33,-500 601.8,-500"/>
<polygon fill="#63b8ff" stroke="#63b8ff" points="601.8,-503.5 611.8,-500 601.8,-496.5 601.8,-503.5"/>
</a>
</g>
</g>
<!-- Node7 -->
<g id="Node000007" class="node">
<title>Node7</title>
<g id="a_Node000007"><a xlink:href="classFCommon.html#ac247ef6e336abf6ca53b140d93ea07f9" target="_top" xlink:title="툴바 액션이 대상으로 삼는 활성 에디터 월드를 반환합니다.">
<polygon fill="white" stroke="#666666" points="974,-340 823,-340 823,-310 974,-310 974,-340"/>
<text text-anchor="start" x="831" y="-328" font-family="Malgun Gothic" font-size="10.00">FCommon::GetActiveTarget</text>
<text text-anchor="middle" x="898.5" y="-317" font-family="Malgun Gothic" font-size="10.00">World</text>
</a>
</g>
</g>
<!-- Node6&#45;&gt;Node7 -->
<g id="edge6_Node000006_Node000007" class="edge">
<title>Node6&#45;&gt;Node7</title>
<g id="a_edge6_Node000006_Node000007"><a xlink:title=" ">
<path fill="none" stroke="#63b8ff" d="M762.61,-398.89C770.92,-396.25 779.25,-393.29 787,-390 815.45,-377.93 845.55,-359.83 867.14,-345.79"/>
<polygon fill="#63b8ff" stroke="#63b8ff" points="869.13,-348.67 875.55,-340.25 865.28,-342.83 869.13,-348.67"/>
</a>
</g>
</g>
<!-- Node9 -->
<g id="Node000009" class="node">
<title>Node9</title>
<g id="a_Node000009"><a xlink:href="classUToolbarSettings.html#a839017a8f47a62d4127ad8527d2498ed" target="_top" xlink:title="레벨 선택 헬퍼가 사용할 검색 루트 경로를 수집합니다.">
<polygon fill="white" stroke="#666666" points="564.5,-386 409.5,-386 409.5,-356 564.5,-356 564.5,-386"/>
<text text-anchor="start" x="417.5" y="-374" font-family="Malgun Gothic" font-size="10.00">UToolbarSettings::GetSearch</text>
<text text-anchor="middle" x="487" y="-363" font-family="Malgun Gothic" font-size="10.00">Roots</text>
</a>
</g>
</g>
<!-- Node8&#45;&gt;Node9 -->
<g id="edge8_Node000008_Node000009" class="edge">
<title>Node8&#45;&gt;Node9</title>
<g id="a_edge8_Node000008_Node000009"><a xlink:title=" ">
<path fill="none" stroke="#63b8ff" d="M316.38,-337.54C340.95,-342.39 371.56,-348.43 399.97,-354.03"/>
<polygon fill="#63b8ff" stroke="#63b8ff" points="399.43,-357.49 409.92,-355.99 400.79,-350.62 399.43,-357.49"/>
</a>
</g>
</g>
<!-- Node11 -->
<g id="Node000011" class="node">
<title>Node11</title>
<g id="a_Node000011"><a xlink:href="classFLevelFeature.html#ac20da5828b1adc7686fbd96ba8abd1c8" target="_top" xlink:title="선택된 맵 패키지 이름을 저장합니다.">
<polygon fill="white" stroke="#666666" points="571,-337.5 403,-337.5 403,-318.5 571,-318.5 571,-337.5"/>
<text text-anchor="middle" x="487" y="-325.5" font-family="Malgun Gothic" font-size="10.00">FLevelFeature::OnSelectedMap</text>
</a>
</g>
</g>
<!-- Node8&#45;&gt;Node11 -->
<g id="edge10_Node000008_Node000011" class="edge">
<title>Node8&#45;&gt;Node11</title>
<g id="a_edge10_Node000008_Node000011"><a xlink:title=" ">
<path fill="none" stroke="#63b8ff" d="M362.03,-328C372.23,-328 382.61,-328 392.8,-328"/>
<polygon fill="#63b8ff" stroke="#63b8ff" points="392.91,-331.5 402.91,-328 392.91,-324.5 392.91,-331.5"/>
</a>
</g>
</g>
<!-- Node10 -->
<g id="Node000010" class="node">
<title>Node10</title>
<g id="a_Node000010"><a xlink:href="UToolbarSettings_8cpp.html#a93020a74b1d3099ceb4abe28cf3188d2" target="_top" xlink:title="사용자 입력 디렉터리 문자열을 콘텐츠 루트 형식으로 정규화합니다.">
<polygon fill="white" stroke="#666666" points="754.5,-380.5 644.5,-380.5 644.5,-361.5 754.5,-361.5 754.5,-380.5"/>
<text text-anchor="middle" x="699.5" y="-368.5" font-family="Malgun Gothic" font-size="10.00">NormalizeUserPath</text>
</a>
</g>
</g>
<!-- Node9&#45;&gt;Node10 -->
<g id="edge9_Node000009_Node000010" class="edge">
<title>Node9&#45;&gt;Node10</title>
<g id="a_edge9_Node000009_Node000010"><a xlink:title=" ">
<path fill="none" stroke="#63b8ff" d="M564.59,-371C587.42,-371 612.21,-371 634.17,-371"/>
<polygon fill="#63b8ff" stroke="#63b8ff" points="634.38,-374.5 644.38,-371 634.38,-367.5 634.38,-374.5"/>
</a>
</g>
</g>
<!-- Node13 -->
<g id="Node000013" class="node">
<title>Node13</title>
<g id="a_Node000013"><a xlink:href="classFScreenshotFeature.html#a31ee01aa337c4b724c6ec8a550f99c05" target="_top" xlink:title="고해상도 스크린샷(4x 배율)을 촬영합니다.">
<polygon fill="white" stroke="#666666" points="561.5,-300 412.5,-300 412.5,-270 561.5,-270 561.5,-300"/>
<text text-anchor="start" x="420.5" y="-288" font-family="Malgun Gothic" font-size="10.00">FScreenshotFeature</text>
<text text-anchor="middle" x="487" y="-277" font-family="Malgun Gothic" font-size="10.00">::OnCaptureHighResolution</text>
</a>
</g>
</g>
<!-- Node12&#45;&gt;Node13 -->
<g id="edge12_Node000012_Node000013" class="edge">
<title>Node12&#45;&gt;Node13</title>
<g id="a_edge12_Node000012_Node000013"><a xlink:title=" ">
<path fill="none" stroke="#63b8ff" d="M286.21,-188.21C310.34,-207.66 354.91,-241.2 398,-261 402.36,-263 406.92,-264.87 411.57,-266.6"/>
<polygon fill="#63b8ff" stroke="#63b8ff" points="410.61,-269.97 421.2,-269.96 412.92,-263.36 410.61,-269.97"/>
</a>
</g>
</g>
<!-- Node15 -->
<g id="Node000015" class="node">
<title>Node15</title>
<g id="a_Node000015"><a xlink:href="classFScreenshotFeature.html#a7189e1c261246eb0d4f1a2af11ab89bd" target="_top" xlink:title="빠른 참고용 스크린샷(1x 배율)을 촬영합니다.">
<polygon fill="white" stroke="#666666" points="557.5,-252 416.5,-252 416.5,-222 557.5,-222 557.5,-252"/>
<text text-anchor="start" x="424.5" y="-240" font-family="Malgun Gothic" font-size="10.00">FScreenshotFeature</text>
<text text-anchor="middle" x="487" y="-229" font-family="Malgun Gothic" font-size="10.00">::OnCaptureQuickPreview</text>
</a>
</g>
</g>
<!-- Node12&#45;&gt;Node15 -->
<g id="edge15_Node000012_Node000015" class="edge">
<title>Node12&#45;&gt;Node15</title>
<g id="a_edge15_Node000012_Node000015"><a xlink:title=" ">
<path fill="none" stroke="#63b8ff" d="M315.74,-188.09C340.27,-195.74 370.67,-205.07 398,-213 405.01,-215.03 412.34,-217.11 419.66,-219.15"/>
<polygon fill="#63b8ff" stroke="#63b8ff" points="419.02,-222.61 429.59,-221.91 420.89,-215.86 419.02,-222.61"/>
</a>
</g>
</g>
<!-- Node16 -->
<g id="Node000016" class="node">
<title>Node16</title>
<g id="a_Node000016"><a xlink:href="classFScreenshotFeature.html#afc1b23933c9d67077c2e726610688605" target="_top" xlink:title="보통 품질 스크린샷(2x 배율)을 촬영합니다.">
<polygon fill="white" stroke="#666666" points="546,-204 428,-204 428,-174 546,-174 546,-204"/>
<text text-anchor="start" x="436" y="-192" font-family="Malgun Gothic" font-size="10.00">FScreenshotFeature</text>
<text text-anchor="middle" x="487" y="-181" font-family="Malgun Gothic" font-size="10.00">::OnCaptureStandard</text>
</a>
</g>
</g>
<!-- Node12&#45;&gt;Node16 -->
<g id="edge17_Node000012_Node000016" class="edge">
<title>Node12&#45;&gt;Node16</title>
<g id="a_edge17_Node000012_Node000016"><a xlink:title=" ">
<path fill="none" stroke="#63b8ff" d="M341.5,-178.39C366.16,-180.2 393.54,-182.21 417.78,-183.99"/>
<polygon fill="#63b8ff" stroke="#63b8ff" points="417.73,-187.5 427.96,-184.74 418.24,-180.52 417.73,-187.5"/>
</a>
</g>
</g>
<!-- Node17 -->
<g id="Node000017" class="node">
<title>Node17</title>
<g id="a_Node000017"><a xlink:href="classFScreenshotFeature.html#a756ceabcb0e485733fa095066f2970fa" target="_top" xlink:title="울트라 고해상도 스크린샷(8x 배율)을 촬영합니다.">
<polygon fill="white" stroke="#666666" points="543.5,-156 430.5,-156 430.5,-126 543.5,-126 543.5,-156"/>
<text text-anchor="start" x="438.5" y="-144" font-family="Malgun Gothic" font-size="10.00">FScreenshotFeature</text>
<text text-anchor="middle" x="487" y="-133" font-family="Malgun Gothic" font-size="10.00">::OnCaptureUltra</text>
</a>
</g>
</g>
<!-- Node12&#45;&gt;Node17 -->
<g id="edge19_Node000012_Node000017" class="edge">
<title>Node12&#45;&gt;Node17</title>
<g id="a_edge19_Node000012_Node000017"><a xlink:title=" ">
<path fill="none" stroke="#63b8ff" d="M341.5,-162.21C367.03,-158.46 395.48,-154.29 420.33,-150.64"/>
<polygon fill="#63b8ff" stroke="#63b8ff" points="421,-154.08 430.39,-149.16 419.98,-147.15 421,-154.08"/>
</a>
</g>
</g>
<!-- Node18 -->
<g id="Node000018" class="node">
<title>Node18</title>
<g id="a_Node000018"><a xlink:href="classFScreenshotFeature.html#af01017cd01130c08bf1c63309ea1e2a6" target="_top" xlink:title="촬영된 스크린샷이 저장된 디렉터리를 엽니다.">
<polygon fill="white" stroke="#666666" points="552.5,-108 421.5,-108 421.5,-78 552.5,-78 552.5,-108"/>
<text text-anchor="start" x="429.5" y="-96" font-family="Malgun Gothic" font-size="10.00">FScreenshotFeature</text>
<text text-anchor="middle" x="487" y="-85" font-family="Malgun Gothic" font-size="10.00">::OnOpenScreenShotDir</text>
</a>
</g>
</g>
<!-- Node12&#45;&gt;Node18 -->
<g id="edge21_Node000012_Node000018" class="edge">
<title>Node12&#45;&gt;Node18</title>
<g id="a_edge21_Node000012_Node000018"><a xlink:title=" ">
<path fill="none" stroke="#63b8ff" d="M336.09,-157.9C345.03,-154.85 353.9,-151.24 362,-147 380.45,-137.34 379.53,-126.63 398,-117 402.34,-114.74 406.91,-112.68 411.59,-110.79"/>
<polygon fill="#63b8ff" stroke="#63b8ff" points="413.17,-113.94 421.33,-107.18 410.74,-107.38 413.17,-113.94"/>
</a>
</g>
</g>
<!-- Node14 -->
<g id="Node000014" class="node">
<title>Node14</title>
<g id="a_Node000014"><a xlink:href="classFScreenshotFeature.html#aaab75697de4685c906b26140e54301b6" target="_top" xlink:title="지정된 배율로 활성 뷰포트에 고해상도 캡처를 요청합니다.">
<polygon fill="white" stroke="#666666" points="767,-252 632,-252 632,-222 767,-222 767,-252"/>
<text text-anchor="start" x="640" y="-240" font-family="Malgun Gothic" font-size="10.00">FScreenshotFeature</text>
<text text-anchor="middle" x="699.5" y="-229" font-family="Malgun Gothic" font-size="10.00">::CaptureActiveViewport</text>
</a>
</g>
</g>
<!-- Node13&#45;&gt;Node14 -->
<g id="edge13_Node000013_Node000014" class="edge">
<title>Node13&#45;&gt;Node14</title>
<g id="a_edge13_Node000013_Node000014"><a xlink:title=" ">
<path fill="none" stroke="#63b8ff" d="M554.03,-269.94C575.87,-264.96 600.35,-259.38 622.86,-254.25"/>
<polygon fill="#63b8ff" stroke="#63b8ff" points="623.74,-257.64 632.71,-252 622.18,-250.81 623.74,-257.64"/>
</a>
</g>
</g>
<!-- Node14&#45;&gt;Node7 -->
<g id="edge14_Node000014_Node000007" class="edge">
<title>Node14&#45;&gt;Node7</title>
<g id="a_edge14_Node000014_Node000007"><a xlink:title=" ">
<path fill="none" stroke="#63b8ff" d="M734.37,-252.13C767.59,-266.97 818.38,-289.66 854.45,-305.77"/>
<polygon fill="#63b8ff" stroke="#63b8ff" points="853.19,-309.04 863.75,-309.92 856.04,-302.65 853.19,-309.04"/>
</a>
</g>
</g>
<!-- Node15&#45;&gt;Node14 -->
<g id="edge16_Node000015_Node000014" class="edge">
<title>Node15&#45;&gt;Node14</title>
<g id="a_edge16_Node000015_Node000014"><a xlink:title=" ">
<path fill="none" stroke="#63b8ff" d="M557.51,-237C578.09,-237 600.74,-237 621.76,-237"/>
<polygon fill="#63b8ff" stroke="#63b8ff" points="621.92,-240.5 631.92,-237 621.92,-233.5 621.92,-240.5"/>
</a>
</g>
</g>
<!-- Node16&#45;&gt;Node14 -->
<g id="edge18_Node000016_Node000014" class="edge">
<title>Node16&#45;&gt;Node14</title>
<g id="a_edge18_Node000016_Node000014"><a xlink:title=" ">
<path fill="none" stroke="#63b8ff" d="M546.08,-202.24C569.71,-207.63 597.35,-213.93 622.55,-219.68"/>
<polygon fill="#63b8ff" stroke="#63b8ff" points="621.91,-223.13 632.44,-221.94 623.47,-216.3 621.91,-223.13"/>
</a>
</g>
</g>
<!-- Node17&#45;&gt;Node14 -->
<g id="edge20_Node000017_Node000014" class="edge">
<title>Node17&#45;&gt;Node14</title>
<g id="a_edge20_Node000017_Node000014"><a xlink:title=" ">
<path fill="none" stroke="#63b8ff" d="M543.68,-153.78C554.58,-156.95 565.78,-160.7 576,-165 609.2,-178.99 644.4,-200.46 668.5,-216.31"/>
<polygon fill="#63b8ff" stroke="#63b8ff" points="666.59,-219.24 676.85,-221.87 670.47,-213.42 666.59,-219.24"/>
</a>
</g>
</g>
<!-- Node20 -->
<g id="Node000020" class="node">
<title>Node20</title>
<g id="a_Node000020"><a xlink:href="classFLevelFeature.html#a63493bc16dc28b58911d3b03c7833aee" target="_top" xlink:title="현재 선택된 맵 패키지를 에디터에 로드합니다.">
<polygon fill="white" stroke="#666666" points="576,-59.5 398,-59.5 398,-40.5 576,-40.5 576,-59.5"/>
<text text-anchor="middle" x="487" y="-47.5" font-family="Malgun Gothic" font-size="10.00">FLevelFeature::LoadSelectedMap</text>
</a>
</g>
</g>
<!-- Node19&#45;&gt;Node20 -->
<g id="edge23_Node000019_Node000020" class="edge">
<title>Node19&#45;&gt;Node20</title>
<g id="a_edge23_Node000019_Node000020"><a xlink:title=" ">
<path fill="none" stroke="#63b8ff" d="M329.32,-107.99C340.45,-104.36 351.76,-100.04 362,-95 379.71,-86.28 379.97,-77.03 398,-69 403.72,-66.45 409.8,-64.24 415.99,-62.32"/>
<polygon fill="#63b8ff" stroke="#63b8ff" points="417.11,-65.63 425.77,-59.52 415.19,-58.9 417.11,-65.63"/>
</a>
</g>
</g>
<!-- Node21 -->
<g id="Node000021" class="node">
<title>Node21</title>
<g id="a_Node000021"><a xlink:href="classFLevelFeature.html#aad2ad775628a12e462c1e85e90060415" target="_top" xlink:title="선택된 맵 에셋이 여전히 존재하는지 검증합니다.">
<polygon fill="white" stroke="#666666" points="774,-46 625,-46 625,-16 774,-16 774,-46"/>
<text text-anchor="start" x="633" y="-34" font-family="Malgun Gothic" font-size="10.00">FLevelFeature::EnsureValid</text>
<text text-anchor="middle" x="699.5" y="-23" font-family="Malgun Gothic" font-size="10.00">SelectedMap</text>
</a>
</g>
</g>
<!-- Node20&#45;&gt;Node21 -->
<g id="edge24_Node000020_Node000021" class="edge">
<title>Node20&#45;&gt;Node21</title>
<g id="a_edge24_Node000020_Node000021"><a xlink:title=" ">
<path fill="none" stroke="#63b8ff" d="M576.05,-42.05C588.85,-40.9 602,-39.71 614.72,-38.56"/>
<polygon fill="#63b8ff" stroke="#63b8ff" points="615.16,-42.04 624.8,-37.65 614.53,-35.07 615.16,-42.04"/>
</a>
</g>
</g>
<!-- Node22&#45;&gt;Node21 -->
<g id="edge26_Node000022_Node000021" class="edge">
<title>Node22&#45;&gt;Node21</title>
<g id="a_edge26_Node000022_Node000021"><a xlink:title=" ">
<path fill="none" stroke="#63b8ff" d="M340.54,-17.7C416.38,-20.51 535.22,-24.93 614.93,-27.89"/>
<polygon fill="#63b8ff" stroke="#63b8ff" points="614.82,-31.39 624.94,-28.27 615.08,-24.4 614.82,-31.39"/>
</a>
</g>
</g>
<!-- Node23&#45;&gt;Node20 -->
<g id="edge28_Node000023_Node000020" class="edge">
<title>Node23&#45;&gt;Node20</title>
<g id="a_edge28_Node000023_Node000020"><a xlink:title=" ">
<path fill="none" stroke="#63b8ff" d="M341.5,-63.92C356.31,-62.49 372.09,-60.97 387.59,-59.48"/>
<polygon fill="#63b8ff" stroke="#63b8ff" points="388.1,-62.95 397.72,-58.5 387.43,-55.98 388.1,-62.95"/>
</a>
</g>
</g>
</g>
</svg>

<g id="navigator" transform="translate(0 0)" fill="#404254">
  <rect fill="#f2f5e9" fill-opacity="0.5" stroke="#606060" stroke-width=".5" x="0" y="0" width="60" height="60"/>
  <use id="zoomplus" xlink:href="#zoomPlus" x="17" y="9" onmousedown="handleZoom(evt,'in')"/>
  <use id="zoomminus" xlink:href="#zoomMin" x="42" y="9" onmousedown="handleZoom(evt,'out')"/>
  <use id="reset" xlink:href="#resetDef" x="30" y="36" onmousedown="handleReset()"/>
   <use id="arrowup" xlink:href="#arrowUp" x="0" y="0" onmousedown="handlePan(0,-1)"/>
  <use id="arrowright" xlink:href="#arrowRight" x="0" y="0" onmousedown="handlePan(1,0)"/>
  <use id="arrowdown" xlink:href="#arrowDown" x="0" y="0" onmousedown="handlePan(0,1)"/>
  <use id="arrowleft" xlink:href="#arrowLeft" x="0" y="0" onmousedown="handlePan(-1,0)"/>
</g>
<svg viewBox="0 0 15 15" width="100%" height="30px" preserveAspectRatio="xMaxYMin meet">
 <g id="arrow_out" transform="scale(0.3 0.3)">
  <a xlink:href="classFToolbar_a2df7b59ad21cce1d2f0437add0d4c6a7_cgraph_org.svg" target="_base">
   <rect id="button" ry="5" rx="5" y="6" x="6" height="38" width="38"
        fill="#f2f5e9" fill-opacity="0.5" stroke="#606060" stroke-width="1.0"/>
   <path id="arrow"
     d="M 11.500037,31.436501 C 11.940474,20.09759 22.043105,11.32322 32.158766,21.979434 L 37.068811,17.246167 C 37.068811,17.246167 37.088388,32 37.088388,32 L 22.160133,31.978069 C 22.160133,31.978069 26.997745,27.140456 26.997745,27.140456 C 18.528582,18.264221 13.291696,25.230495 11.500037,31.436501 z"
     style="fill:#404040;"/>
  </a>
 </g>
</svg>

<style type='text/css'>
<![CDATA[
[data-mouse-over-selected='false'] { opacity: 0.7; }
[data-mouse-over-selected='true']  { opacity: 1.0; }
]]>
</style>
<script type="application/ecmascript"><![CDATA[
document.addEventListener('DOMContentLoaded', (event) => {
  highlightEdges();
  highlightAdjacentNodes();
});
]]></script>
</svg>
