<?xml version="1.0" encoding="UTF-8" standalone="no"?>
<!DOCTYPE svg PUBLIC "-//W3C//DTD SVG 1.1//EN"
 "http://www.w3.org/Graphics/SVG/1.1/DTD/svg11.dtd">
<!-- Generated by graphviz version 2.43.0 (0)
 -->
<!-- Title: FLevelFeature::EnsureValidSelectedMap Pages: 1 -->
<svg width="898pt" height="129pt"
 viewBox="0.00 0.00 898.00 129.00" xmlns="http://www.w3.org/2000/svg" xmlns:xlink="http://www.w3.org/1999/xlink">
<g id="graph0" class="graph" transform="scale(1 1) rotate(0) translate(4 125)">
<title>FLevelFeature::EnsureValidSelectedMap</title>
<!-- Node1 -->
<g id="Node000001" class="node">
<title>Node1</title>
<g id="a_Node000001"><a xlink:title="선택된 맵 에셋이 여전히 존재하는지 검증합니다.">
<polygon fill="#999999" stroke="#666666" points="890,-51 741,-51 741,-21 890,-21 890,-51"/>
<text text-anchor="start" x="749" y="-39" font-family="Malgun Gothic" font-size="10.00">FLevelFeature::EnsureValid</text>
<text text-anchor="middle" x="815.5" y="-28" font-family="Malgun Gothic" font-size="10.00">SelectedMap</text>
</a>
</g>
</g>
<!-- Node2 -->
<g id="Node000002" class="node">
<title>Node2</title>
<g id="a_Node000002"><a xlink:href="classFLevelFeature.html#a63493bc16dc28b58911d3b03c7833aee" target="_top" xlink:title="현재 선택된 맵 패키지를 에디터에 로드합니다.">
<polygon fill="white" stroke="#666666" points="705,-67.5 527,-67.5 527,-48.5 705,-48.5 705,-67.5"/>
<text text-anchor="middle" x="616" y="-55.5" font-family="Malgun Gothic" font-size="10.00">FLevelFeature::LoadSelectedMap</text>
</a>
</g>
</g>
<!-- Node1&#45;&gt;Node2 -->
<g id="edge1_Node000001_Node000002" class="edge">
<title>Node1&#45;&gt;Node2</title>
<g id="a_edge1_Node000001_Node000002"><a xlink:title=" ">
<path fill="none" stroke="#63b8ff" d="M730.89,-45.31C721.53,-46.36 711.98,-47.42 702.59,-48.47"/>
<polygon fill="#63b8ff" stroke="#63b8ff" points="731.41,-48.78 740.96,-44.19 730.63,-41.82 731.41,-48.78"/>
</a>
</g>
</g>
<!-- Node7 -->
<g id="Node000007" class="node">
<title>Node7</title>
<g id="a_Node000007"><a xlink:href="classFLevelFeature.html#a31e8a2482aafbc4082a996e3a5a7a0d9" target="_top" xlink:title="선택된 맵으로 새로운 뷰포트에서 PIE를 실행합니다.">
<polygon fill="white" stroke="#666666" points="689.5,-30 542.5,-30 542.5,0 689.5,0 689.5,-30"/>
<text text-anchor="start" x="550.5" y="-18" font-family="Malgun Gothic" font-size="10.00">FLevelFeature::OnSelected</text>
<text text-anchor="middle" x="616" y="-7" font-family="Malgun Gothic" font-size="10.00">Map_PlayInEditor</text>
</a>
</g>
</g>
<!-- Node1&#45;&gt;Node7 -->
<g id="edge7_Node000001_Node000007" class="edge">
<title>Node1&#45;&gt;Node7</title>
<g id="a_edge7_Node000001_Node000007"><a xlink:title=" ">
<path fill="none" stroke="#63b8ff" d="M730.62,-27.08C716.98,-25.63 702.96,-24.14 689.62,-22.72"/>
<polygon fill="#63b8ff" stroke="#63b8ff" points="730.64,-30.6 740.96,-28.18 731.38,-23.64 730.64,-30.6"/>
</a>
</g>
</g>
<!-- Node3 -->
<g id="Node000003" class="node">
<title>Node3</title>
<g id="a_Node000003"><a xlink:href="classFLevelFeature.html#a536602356f4e9dcdfcfbe85094782bdb" target="_top" xlink:title="선택된 맵 에셋을 에디터에서 엽니다.">
<polygon fill="white" stroke="#666666" points="490,-121 343,-121 343,-91 490,-91 490,-121"/>
<text text-anchor="start" x="351" y="-109" font-family="Malgun Gothic" font-size="10.00">FLevelFeature::OnSelected</text>
<text text-anchor="middle" x="416.5" y="-98" font-family="Malgun Gothic" font-size="10.00">Map_Open</text>
</a>
</g>
</g>
<!-- Node2&#45;&gt;Node3 -->
<g id="edge2_Node000002_Node000003" class="edge">
<title>Node2&#45;&gt;Node3</title>
<g id="a_edge2_Node000002_Node000003"><a xlink:title=" ">
<path fill="none" stroke="#63b8ff" d="M565.48,-70.04C539.41,-76.37 507.19,-84.2 479.48,-90.94"/>
<polygon fill="#63b8ff" stroke="#63b8ff" points="566.62,-73.36 575.51,-67.6 564.96,-66.56 566.62,-73.36"/>
</a>
</g>
</g>
<!-- Node6 -->
<g id="Node000006" class="node">
<title>Node6</title>
<g id="a_Node000006"><a xlink:href="classFLevelFeature.html#ad659ce46cd4d37948b219e9aa104c2b3" target="_top" xlink:title="선택된 맵으로 현재 뷰포트에서 PIE를 시작합니다.">
<polygon fill="white" stroke="#666666" points="491,-73 342,-73 342,-43 491,-43 491,-73"/>
<text text-anchor="start" x="350" y="-61" font-family="Malgun Gothic" font-size="10.00">FLevelFeature::OnSelected</text>
<text text-anchor="middle" x="416.5" y="-50" font-family="Malgun Gothic" font-size="10.00">Map_PlaySelectedViewport</text>
</a>
</g>
</g>
<!-- Node2&#45;&gt;Node6 -->
<g id="edge5_Node000002_Node000006" class="edge">
<title>Node2&#45;&gt;Node6</title>
<g id="a_edge5_Node000002_Node000006"><a xlink:title=" ">
<path fill="none" stroke="#63b8ff" d="M516.83,-58C508.21,-58 499.59,-58 491.22,-58"/>
<polygon fill="#63b8ff" stroke="#63b8ff" points="516.94,-61.5 526.94,-58 516.94,-54.5 516.94,-61.5"/>
</a>
</g>
</g>
<!-- Node4 -->
<g id="Node000004" class="node">
<title>Node4</title>
<g id="a_Node000004"><a xlink:href="classFToolbar.html#a2df7b59ad21cce1d2f0437add0d4c6a7" target="_top" xlink:title="에디터 확장 프레임워크에 툴바 메뉴와 버튼을 등록합니다.">
<polygon fill="white" stroke="#666666" points="306,-67.5 170,-67.5 170,-48.5 306,-48.5 306,-67.5"/>
<text text-anchor="middle" x="238" y="-55.5" font-family="Malgun Gothic" font-size="10.00">FToolbar::RegisterMenus</text>
</a>
</g>
</g>
<!-- Node3&#45;&gt;Node4 -->
<g id="edge3_Node000003_Node000004" class="edge">
<title>Node3&#45;&gt;Node4</title>
<g id="a_edge3_Node000003_Node000004"><a xlink:title=" ">
<path fill="none" stroke="#63b8ff" d="M350.41,-88.3C324.6,-81.28 295.95,-73.49 274.17,-67.56"/>
<polygon fill="#63b8ff" stroke="#63b8ff" points="349.57,-91.7 360.14,-90.94 351.41,-84.94 349.57,-91.7"/>
</a>
</g>
</g>
<!-- Node5 -->
<g id="Node000005" class="node">
<title>Node5</title>
<g id="a_Node000005"><a xlink:href="classFToolbar.html#a29b321398a59346e3df4870366f89245" target="_top" xlink:title="툴바 기능을 초기화하고 Slate 메뉴 확장을 등록합니다.">
<polygon fill="white" stroke="#666666" points="134,-67.5 0,-67.5 0,-48.5 134,-48.5 134,-67.5"/>
<text text-anchor="middle" x="67" y="-55.5" font-family="Malgun Gothic" font-size="10.00">FToolbar::StartupModule</text>
</a>
</g>
</g>
<!-- Node4&#45;&gt;Node5 -->
<g id="edge4_Node000004_Node000005" class="edge">
<title>Node4&#45;&gt;Node5</title>
<g id="a_edge4_Node000004_Node000005"><a xlink:title=" ">
<path fill="none" stroke="#63b8ff" d="M159.49,-58C151.05,-58 142.51,-58 134.22,-58"/>
<polygon fill="#63b8ff" stroke="#63b8ff" points="159.72,-61.5 169.72,-58 159.72,-54.5 159.72,-61.5"/>
</a>
</g>
</g>
<!-- Node6&#45;&gt;Node4 -->
<g id="edge6_Node000006_Node000004" class="edge">
<title>Node6&#45;&gt;Node4</title>
<g id="a_edge6_Node000006_Node000004"><a xlink:title=" ">
<path fill="none" stroke="#63b8ff" d="M331.88,-58C323.29,-58 314.64,-58 306.25,-58"/>
<polygon fill="#63b8ff" stroke="#63b8ff" points="331.93,-61.5 341.93,-58 331.93,-54.5 331.93,-61.5"/>
</a>
</g>
</g>
<!-- Node7&#45;&gt;Node4 -->
<g id="edge8_Node000007_Node000004" class="edge">
<title>Node7&#45;&gt;Node4</title>
<g id="a_edge8_Node000007_Node000004"><a xlink:title=" ">
<path fill="none" stroke="#63b8ff" d="M531.97,-17.34C477.67,-19.72 405.34,-24.48 342,-34 318.94,-37.47 293.41,-43.4 273.54,-48.5"/>
<polygon fill="#63b8ff" stroke="#63b8ff" points="532.39,-20.83 542.23,-16.91 532.1,-13.83 532.39,-20.83"/>
</a>
</g>
</g>
</g>
</svg>
