<?xml version="1.0" encoding="UTF-8" standalone="no"?>
<!DOCTYPE svg PUBLIC "-//W3C//DTD SVG 1.1//EN"
 "http://www.w3.org/Graphics/SVG/1.1/DTD/svg11.dtd">
<!-- Generated by graphviz version 2.43.0 (0)
 -->
<!-- Title: FToolbar::StartupModule Pages: 1 -->
<svg width="992pt" height="434pt"
 viewBox="0.00 0.00 992.00 433.50" xmlns="http://www.w3.org/2000/svg" xmlns:xlink="http://www.w3.org/1999/xlink">
<g id="graph0" class="graph" transform="scale(1 1) rotate(0) translate(4 429.5)">
<title>FToolbar::StartupModule</title>
<!-- Node1 -->
<g id="Node000001" class="node">
<title>Node1</title>
<g id="a_Node000001"><a xlink:title="툴바 기능을 초기화하고 Slate 메뉴 확장을 등록합니다.">
<polygon fill="#999999" stroke="#666666" points="134,-189.5 0,-189.5 0,-170.5 134,-170.5 134,-189.5"/>
<text text-anchor="middle" x="67" y="-177.5" font-family="Malgun Gothic" font-size="10.00">FToolbar::StartupModule</text>
</a>
</g>
</g>
<!-- Node2 -->
<g id="Node000002" class="node">
<title>Node2</title>
<g id="a_Node000002"><a xlink:href="classFToolbarStyle.html#a5b48d0a9f7254d082193b3932bbd55bb" target="_top" xlink:title="스타일 세트를 Slate 스타일 레지스트리에 등록합니다.">
<polygon fill="white" stroke="#666666" points="316.5,-326.5 186.5,-326.5 186.5,-307.5 316.5,-307.5 316.5,-326.5"/>
<text text-anchor="middle" x="251.5" y="-314.5" font-family="Malgun Gothic" font-size="10.00">FToolbarStyle::Initialize</text>
</a>
</g>
</g>
<!-- Node1&#45;&gt;Node2 -->
<g id="edge1_Node000001_Node000002" class="edge">
<title>Node1&#45;&gt;Node2</title>
<g id="a_edge1_Node000001_Node000002"><a xlink:title=" ">
<path fill="none" stroke="#63b8ff" d="M80.83,-189.63C111.78,-212.86 190.78,-272.17 229.06,-300.91"/>
<polygon fill="#63b8ff" stroke="#63b8ff" points="227.34,-303.99 237.44,-307.19 231.54,-298.39 227.34,-303.99"/>
</a>
</g>
</g>
<!-- Node5 -->
<g id="Node000005" class="node">
<title>Node5</title>
<g id="a_Node000005"><a xlink:href="classFToolbar.html#a2df7b59ad21cce1d2f0437add0d4c6a7" target="_top" xlink:title="에디터 확장 프레임워크에 툴바 메뉴와 버튼을 등록합니다.">
<polygon fill="white" stroke="#666666" points="319.5,-189.5 183.5,-189.5 183.5,-170.5 319.5,-170.5 319.5,-189.5"/>
<text text-anchor="middle" x="251.5" y="-177.5" font-family="Malgun Gothic" font-size="10.00">FToolbar::RegisterMenus</text>
</a>
</g>
</g>
<!-- Node1&#45;&gt;Node5 -->
<g id="edge4_Node000001_Node000005" class="edge">
<title>Node1&#45;&gt;Node5</title>
<g id="a_edge4_Node000001_Node000005"><a xlink:title=" ">
<path fill="none" stroke="#63b8ff" d="M134.14,-180C146.78,-180 160.12,-180 173.07,-180"/>
<polygon fill="#63b8ff" stroke="#63b8ff" points="173.36,-183.5 183.36,-180 173.36,-176.5 173.36,-183.5"/>
</a>
</g>
</g>
<!-- Node23 -->
<g id="Node000023" class="node">
<title>Node23</title>
<g id="a_Node000023"><a xlink:href="classFToolbarStyle.html#a25dc5cccc853a63c3a324728580732b4" target="_top" xlink:title="디스크상의 리소스가 변경된 경우 텍스처를 다시 로드합니다.">
<polygon fill="white" stroke="#666666" points="333,-152.5 170,-152.5 170,-133.5 333,-133.5 333,-152.5"/>
<text text-anchor="middle" x="251.5" y="-140.5" font-family="Malgun Gothic" font-size="10.00">FToolbarStyle::ReloadTextures</text>
</a>
</g>
</g>
<!-- Node1&#45;&gt;Node23 -->
<g id="edge25_Node000001_Node000023" class="edge">
<title>Node1&#45;&gt;Node23</title>
<g id="a_edge25_Node000001_Node000023"><a xlink:title=" ">
<path fill="none" stroke="#63b8ff" d="M115,-170.47C138.96,-165.61 168.29,-159.67 193.53,-154.55"/>
<polygon fill="#63b8ff" stroke="#63b8ff" points="194.24,-157.98 203.34,-152.56 192.85,-151.12 194.24,-157.98"/>
</a>
</g>
</g>
<!-- Node3 -->
<g id="Node000003" class="node">
<title>Node3</title>
<g id="a_Node000003"><a xlink:href="classFToolbarStyle.html#ac15dcbb37ede65f4c248c0f10b71893c" target="_top" xlink:title="기본 이미지와 아이콘 등록을 포함한 스타일 세트를 생성합니다.">
<polygon fill="white" stroke="#666666" points="524,-382.5 404,-382.5 404,-363.5 524,-363.5 524,-382.5"/>
<text text-anchor="middle" x="464" y="-370.5" font-family="Malgun Gothic" font-size="10.00">FToolbarStyle::Create</text>
</a>
</g>
</g>
<!-- Node2&#45;&gt;Node3 -->
<g id="edge2_Node000002_Node000003" class="edge">
<title>Node2&#45;&gt;Node3</title>
<g id="a_edge2_Node000002_Node000003"><a xlink:title=" ">
<path fill="none" stroke="#63b8ff" d="M288.69,-326.63C324.3,-336.1 378.79,-350.6 417.35,-360.86"/>
<polygon fill="#63b8ff" stroke="#63b8ff" points="416.72,-364.31 427.29,-363.5 418.52,-357.55 416.72,-364.31"/>
</a>
</g>
</g>
<!-- Node4 -->
<g id="Node000004" class="node">
<title>Node4</title>
<g id="a_Node000004"><a xlink:href="FToolbarStyle_8cpp.html#a00bb33b9e673ad08782f7f01d6b75e7a" target="_top" xlink:title=" ">
<polygon fill="white" stroke="#666666" points="717.5,-425.5 650.5,-425.5 650.5,-406.5 717.5,-406.5 717.5,-425.5"/>
<text text-anchor="middle" x="684" y="-413.5" font-family="Malgun Gothic" font-size="10.00">Icon20x20</text>
</a>
</g>
</g>
<!-- Node3&#45;&gt;Node4 -->
<g id="edge3_Node000003_Node000004" class="edge">
<title>Node3&#45;&gt;Node4</title>
<g id="a_edge3_Node000003_Node000004"><a xlink:title=" ">
<path fill="none" stroke="#63b8ff" d="M513.38,-382.54C551.45,-390.05 603.98,-400.41 640.45,-407.61"/>
<polygon fill="#63b8ff" stroke="#63b8ff" points="639.8,-411.05 650.29,-409.55 641.16,-404.18 639.8,-411.05"/>
</a>
</g>
</g>
<!-- Node6 -->
<g id="Node000006" class="node">
<title>Node6</title>
<g id="a_Node000006"><a xlink:href="classFCommandFeature.html#ab546196898c4d540b74defb4fb9e2aed" target="_top" xlink:title="툴바용 명령 버튼 메뉴 위젯을 생성합니다.">
<polygon fill="white" stroke="#666666" points="544.5,-327 383.5,-327 383.5,-297 544.5,-297 544.5,-327"/>
<text text-anchor="start" x="391.5" y="-315" font-family="Malgun Gothic" font-size="10.00">FCommandFeature::Generate</text>
<text text-anchor="middle" x="464" y="-304" font-family="Malgun Gothic" font-size="10.00">CommandsMenu</text>
</a>
</g>
</g>
<!-- Node5&#45;&gt;Node6 -->
<g id="edge5_Node000005_Node000006" class="edge">
<title>Node5&#45;&gt;Node6</title>
<g id="a_edge5_Node000005_Node000006"><a xlink:title=" ">
<path fill="none" stroke="#63b8ff" d="M267.54,-189.64C289.7,-203.83 332.44,-231.11 369,-254 388.93,-266.48 411.34,-280.31 429.27,-291.34"/>
<polygon fill="#63b8ff" stroke="#63b8ff" points="427.85,-294.57 438.21,-296.82 431.52,-288.61 427.85,-294.57"/>
</a>
</g>
</g>
<!-- Node12 -->
<g id="Node000012" class="node">
<title>Node12</title>
<g id="a_Node000012"><a xlink:href="classFLevelFeature.html#aff2925b502a52156786e925c1bd2af90" target="_top" xlink:title="레벨 선택 항목을 포함한 Slate 위젯을 구성합니다.">
<polygon fill="white" stroke="#666666" points="559,-211.5 369,-211.5 369,-192.5 559,-192.5 559,-211.5"/>
<text text-anchor="middle" x="464" y="-199.5" font-family="Malgun Gothic" font-size="10.00">FLevelFeature::GenerateLevelMenu</text>
</a>
</g>
</g>
<!-- Node5&#45;&gt;Node12 -->
<g id="edge11_Node000005_Node000012" class="edge">
<title>Node5&#45;&gt;Node12</title>
<g id="a_edge11_Node000005_Node000012"><a xlink:title=" ">
<path fill="none" stroke="#63b8ff" d="M319.68,-187.02C333.04,-188.42 347.35,-189.91 361.57,-191.4"/>
<polygon fill="#63b8ff" stroke="#63b8ff" points="361.57,-194.92 371.88,-192.48 362.3,-187.96 361.57,-194.92"/>
</a>
</g>
</g>
<!-- Node16 -->
<g id="Node000016" class="node">
<title>Node16</title>
<g id="a_Node000016"><a xlink:href="classFScreenshotFeature.html#a8d4132d3529147e8b44ee904d94c1630" target="_top" xlink:title="언리얼 자동화 라이브러리를 사용해 스크린샷을 촬영합니다.">
<polygon fill="white" stroke="#666666" points="748,-255 620,-255 620,-225 748,-225 748,-255"/>
<text text-anchor="start" x="628" y="-243" font-family="Malgun Gothic" font-size="10.00">FScreenshotFeature</text>
<text text-anchor="middle" x="684" y="-232" font-family="Malgun Gothic" font-size="10.00">::OnCaptureScreenshot</text>
</a>
</g>
</g>
<!-- Node5&#45;&gt;Node16 -->
<g id="edge15_Node000005_Node000016" class="edge">
<title>Node5&#45;&gt;Node16</title>
<g id="a_edge15_Node000005_Node000016"><a xlink:title=" ">
<path fill="none" stroke="#63b8ff" d="M273.89,-189.56C296.88,-199.35 334.74,-214.08 369,-221 450.3,-237.43 545.65,-241.05 609.77,-241.28"/>
<polygon fill="#63b8ff" stroke="#63b8ff" points="609.78,-244.78 619.78,-241.29 609.79,-237.78 609.78,-244.78"/>
</a>
</g>
</g>
<!-- Node17 -->
<g id="Node000017" class="node">
<title>Node17</title>
<g id="a_Node000017"><a xlink:href="classFScreenshotFeature.html#af01017cd01130c08bf1c63309ea1e2a6" target="_top" xlink:title="촬영된 스크린샷이 저장된 디렉터리를 엽니다.">
<polygon fill="white" stroke="#666666" points="529.5,-174 398.5,-174 398.5,-144 529.5,-144 529.5,-174"/>
<text text-anchor="start" x="406.5" y="-162" font-family="Malgun Gothic" font-size="10.00">FScreenshotFeature</text>
<text text-anchor="middle" x="464" y="-151" font-family="Malgun Gothic" font-size="10.00">::OnOpenScreenShotDir</text>
</a>
</g>
</g>
<!-- Node5&#45;&gt;Node17 -->
<g id="edge17_Node000005_Node000017" class="edge">
<title>Node5&#45;&gt;Node17</title>
<g id="a_edge17_Node000005_Node000017"><a xlink:title=" ">
<path fill="none" stroke="#63b8ff" d="M319.68,-173.3C341.49,-171.12 365.82,-168.7 388.15,-166.47"/>
<polygon fill="#63b8ff" stroke="#63b8ff" points="388.65,-169.94 398.25,-165.46 387.95,-162.97 388.65,-169.94"/>
</a>
</g>
</g>
<!-- Node18 -->
<g id="Node000018" class="node">
<title>Node18</title>
<g id="a_Node000018"><a xlink:href="classFLevelFeature.html#a536602356f4e9dcdfcfbe85094782bdb" target="_top" xlink:title="선택된 맵 에셋을 에디터에서 엽니다.">
<polygon fill="white" stroke="#666666" points="537.5,-126 390.5,-126 390.5,-96 537.5,-96 537.5,-126"/>
<text text-anchor="start" x="398.5" y="-114" font-family="Malgun Gothic" font-size="10.00">FLevelFeature::OnSelected</text>
<text text-anchor="middle" x="464" y="-103" font-family="Malgun Gothic" font-size="10.00">Map_Open</text>
</a>
</g>
</g>
<!-- Node5&#45;&gt;Node18 -->
<g id="edge18_Node000005_Node000018" class="edge">
<title>Node5&#45;&gt;Node18</title>
<g id="a_edge18_Node000005_Node000018"><a xlink:title=" ">
<path fill="none" stroke="#63b8ff" d="M309.36,-170.47C317.48,-168.2 325.59,-165.42 333,-162 351.16,-153.63 350.96,-143.64 369,-135 373.13,-133.02 377.44,-131.19 381.85,-129.51"/>
<polygon fill="#63b8ff" stroke="#63b8ff" points="383.37,-132.68 391.62,-126.03 381.02,-126.08 383.37,-132.68"/>
</a>
</g>
</g>
<!-- Node21 -->
<g id="Node000021" class="node">
<title>Node21</title>
<g id="a_Node000021"><a xlink:href="classFLevelFeature.html#a31e8a2482aafbc4082a996e3a5a7a0d9" target="_top" xlink:title="선택된 맵으로 새로운 뷰포트에서 PIE를 실행합니다.">
<polygon fill="white" stroke="#666666" points="537.5,-30 390.5,-30 390.5,0 537.5,0 537.5,-30"/>
<text text-anchor="start" x="398.5" y="-18" font-family="Malgun Gothic" font-size="10.00">FLevelFeature::OnSelected</text>
<text text-anchor="middle" x="464" y="-7" font-family="Malgun Gothic" font-size="10.00">Map_PlayInEditor</text>
</a>
</g>
</g>
<!-- Node5&#45;&gt;Node21 -->
<g id="edge21_Node000005_Node000021" class="edge">
<title>Node5&#45;&gt;Node21</title>
<g id="a_edge21_Node000005_Node000021"><a xlink:title=" ">
<path fill="none" stroke="#63b8ff" d="M319.57,-171.17C324.46,-168.73 329.03,-165.72 333,-162 374.56,-123.05 328.03,-78.57 369,-39 372.6,-35.53 376.62,-32.54 380.93,-29.96"/>
<polygon fill="#63b8ff" stroke="#63b8ff" points="382.82,-32.93 390.12,-25.25 379.63,-26.7 382.82,-32.93"/>
</a>
</g>
</g>
<!-- Node22 -->
<g id="Node000022" class="node">
<title>Node22</title>
<g id="a_Node000022"><a xlink:href="classFLevelFeature.html#ad659ce46cd4d37948b219e9aa104c2b3" target="_top" xlink:title="선택된 맵으로 현재 뷰포트에서 PIE를 시작합니다.">
<polygon fill="white" stroke="#666666" points="538.5,-78 389.5,-78 389.5,-48 538.5,-48 538.5,-78"/>
<text text-anchor="start" x="397.5" y="-66" font-family="Malgun Gothic" font-size="10.00">FLevelFeature::OnSelected</text>
<text text-anchor="middle" x="464" y="-55" font-family="Malgun Gothic" font-size="10.00">Map_PlaySelectedViewport</text>
</a>
</g>
</g>
<!-- Node5&#45;&gt;Node22 -->
<g id="edge23_Node000005_Node000022" class="edge">
<title>Node5&#45;&gt;Node22</title>
<g id="a_edge23_Node000005_Node000022"><a xlink:title=" ">
<path fill="none" stroke="#63b8ff" d="M318.94,-170.44C323.97,-168.16 328.74,-165.39 333,-162 361.94,-138.99 340.4,-110.44 369,-87 372.37,-84.24 376.02,-81.79 379.86,-79.62"/>
<polygon fill="#63b8ff" stroke="#63b8ff" points="381.7,-82.61 389.11,-75.04 378.6,-76.34 381.7,-82.61"/>
</a>
</g>
</g>
<!-- Node7 -->
<g id="Node000007" class="node">
<title>Node7</title>
<g id="a_Node000007"><a xlink:href="classFCommon.html#a7f9a33df4cca4a9488e492d0043c284e" target="_top" xlink:title="전달된 이름으로 애플리케이션 스타일에서 Slate 아이콘을 조회합니다.">
<polygon fill="white" stroke="#666666" points="739,-388.5 629,-388.5 629,-369.5 739,-369.5 739,-388.5"/>
<text text-anchor="middle" x="684" y="-376.5" font-family="Malgun Gothic" font-size="10.00">FCommon::GetIcon</text>
</a>
</g>
</g>
<!-- Node6&#45;&gt;Node7 -->
<g id="edge6_Node000006_Node000007" class="edge">
<title>Node6&#45;&gt;Node7</title>
<g id="a_edge6_Node000006_Node000007"><a xlink:title=" ">
<path fill="none" stroke="#63b8ff" d="M501.52,-327.06C527.32,-337.31 562.89,-350.66 595,-360 604.02,-362.63 613.66,-365.07 623.13,-367.26"/>
<polygon fill="#63b8ff" stroke="#63b8ff" points="622.37,-370.68 632.9,-369.46 623.91,-363.85 622.37,-370.68"/>
</a>
</g>
</g>
<!-- Node9 -->
<g id="Node000009" class="node">
<title>Node9</title>
<g id="a_Node000009"><a xlink:href="classFCommandFeature.html#a08ab22cf9f7960c9b8f73c1f80eb981e" target="_top" xlink:title="지정된 툴바 버튼이 현재 토글되어 있는지 반환합니다.">
<polygon fill="white" stroke="#666666" points="762,-351 606,-351 606,-321 762,-321 762,-351"/>
<text text-anchor="start" x="614" y="-339" font-family="Malgun Gothic" font-size="10.00">FCommandFeature::IsButton</text>
<text text-anchor="middle" x="684" y="-328" font-family="Malgun Gothic" font-size="10.00">Toggled</text>
</a>
</g>
</g>
<!-- Node6&#45;&gt;Node9 -->
<g id="edge8_Node000006_Node000009" class="edge">
<title>Node6&#45;&gt;Node9</title>
<g id="a_edge8_Node000006_Node000009"><a xlink:title=" ">
<path fill="none" stroke="#63b8ff" d="M544.63,-320.77C561.15,-322.59 578.64,-324.51 595.42,-326.36"/>
<polygon fill="#63b8ff" stroke="#63b8ff" points="595.45,-329.88 605.77,-327.5 596.21,-322.92 595.45,-329.88"/>
</a>
</g>
</g>
<!-- Node10 -->
<g id="Node000010" class="node">
<title>Node10</title>
<g id="a_Node000010"><a xlink:href="classFCommandFeature.html#a3ff8a0398db30ce422496f2281dd3b60" target="_top" xlink:title="전달된 버튼 ID에 매핑된 명령을 실행합니다.">
<polygon fill="white" stroke="#666666" points="767.5,-303 600.5,-303 600.5,-273 767.5,-273 767.5,-303"/>
<text text-anchor="start" x="608.5" y="-291" font-family="Malgun Gothic" font-size="10.00">FCommandFeature::OnExecute</text>
<text text-anchor="middle" x="684" y="-280" font-family="Malgun Gothic" font-size="10.00">ButtonCommand</text>
</a>
</g>
</g>
<!-- Node6&#45;&gt;Node10 -->
<g id="edge9_Node000006_Node000010" class="edge">
<title>Node6&#45;&gt;Node10</title>
<g id="a_edge9_Node000006_Node000010"><a xlink:title=" ">
<path fill="none" stroke="#63b8ff" d="M544.63,-303.23C559.35,-301.61 574.85,-299.91 589.93,-298.25"/>
<polygon fill="#63b8ff" stroke="#63b8ff" points="590.74,-301.68 600.29,-297.11 589.97,-294.72 590.74,-301.68"/>
</a>
</g>
</g>
<!-- Node8 -->
<g id="Node000008" class="node">
<title>Node8</title>
<g id="a_Node000008"><a xlink:href="classFToolbarStyle.html#a3437f8f3e4dcd2c7b68de7b28fc2a95a" target="_top" xlink:title="Slate 스타일 세트를 참조할 때 사용할 이름을 반환합니다.">
<polygon fill="white" stroke="#666666" points="984,-388.5 809,-388.5 809,-369.5 984,-369.5 984,-388.5"/>
<text text-anchor="middle" x="896.5" y="-376.5" font-family="Malgun Gothic" font-size="10.00">FToolbarStyle::GetStyleSetName</text>
</a>
</g>
</g>
<!-- Node7&#45;&gt;Node8 -->
<g id="edge7_Node000007_Node000008" class="edge">
<title>Node7&#45;&gt;Node8</title>
<g id="a_edge7_Node000007_Node000008"><a xlink:title=" ">
<path fill="none" stroke="#63b8ff" d="M739.21,-379C757.42,-379 778.33,-379 798.8,-379"/>
<polygon fill="#63b8ff" stroke="#63b8ff" points="798.8,-382.5 808.8,-379 798.8,-375.5 798.8,-382.5"/>
</a>
</g>
</g>
<!-- Node11 -->
<g id="Node000011" class="node">
<title>Node11</title>
<g id="a_Node000011"><a xlink:href="classFCommon.html#ac247ef6e336abf6ca53b140d93ea07f9" target="_top" xlink:title="툴바 액션이 대상으로 삼는 활성 에디터 월드를 반환합니다.">
<polygon fill="white" stroke="#666666" points="972,-279 821,-279 821,-249 972,-249 972,-279"/>
<text text-anchor="start" x="829" y="-267" font-family="Malgun Gothic" font-size="10.00">FCommon::GetActiveTarget</text>
<text text-anchor="middle" x="896.5" y="-256" font-family="Malgun Gothic" font-size="10.00">World</text>
</a>
</g>
</g>
<!-- Node10&#45;&gt;Node11 -->
<g id="edge10_Node000010_Node000011" class="edge">
<title>Node10&#45;&gt;Node11</title>
<g id="a_edge10_Node000010_Node000011"><a xlink:title=" ">
<path fill="none" stroke="#63b8ff" d="M767.59,-278.58C781.68,-276.98 796.34,-275.31 810.49,-273.69"/>
<polygon fill="#63b8ff" stroke="#63b8ff" points="811.14,-277.14 820.68,-272.53 810.35,-270.19 811.14,-277.14"/>
</a>
</g>
</g>
<!-- Node13 -->
<g id="Node000013" class="node">
<title>Node13</title>
<g id="a_Node000013"><a xlink:href="classUToolbarSettings.html#a839017a8f47a62d4127ad8527d2498ed" target="_top" xlink:title="레벨 선택 헬퍼가 사용할 검색 루트 경로를 수집합니다.">
<polygon fill="white" stroke="#666666" points="761.5,-207 606.5,-207 606.5,-177 761.5,-177 761.5,-207"/>
<text text-anchor="start" x="614.5" y="-195" font-family="Malgun Gothic" font-size="10.00">UToolbarSettings::GetSearch</text>
<text text-anchor="middle" x="684" y="-184" font-family="Malgun Gothic" font-size="10.00">Roots</text>
</a>
</g>
</g>
<!-- Node12&#45;&gt;Node13 -->
<g id="edge12_Node000012_Node000013" class="edge">
<title>Node12&#45;&gt;Node13</title>
<g id="a_edge12_Node000012_Node000013"><a xlink:title=" ">
<path fill="none" stroke="#63b8ff" d="M559.03,-197.69C571.37,-197.12 583.96,-196.54 596.17,-195.98"/>
<polygon fill="#63b8ff" stroke="#63b8ff" points="596.49,-199.47 606.32,-195.52 596.17,-192.48 596.49,-199.47"/>
</a>
</g>
</g>
<!-- Node15 -->
<g id="Node000015" class="node">
<title>Node15</title>
<g id="a_Node000015"><a xlink:href="classFLevelFeature.html#ac20da5828b1adc7686fbd96ba8abd1c8" target="_top" xlink:title="선택된 맵 패키지 이름을 저장합니다.">
<polygon fill="white" stroke="#666666" points="768,-158.5 600,-158.5 600,-139.5 768,-139.5 768,-158.5"/>
<text text-anchor="middle" x="684" y="-146.5" font-family="Malgun Gothic" font-size="10.00">FLevelFeature::OnSelectedMap</text>
</a>
</g>
</g>
<!-- Node12&#45;&gt;Node15 -->
<g id="edge14_Node000012_Node000015" class="edge">
<title>Node12&#45;&gt;Node15</title>
<g id="a_edge14_Node000012_Node000015"><a xlink:title=" ">
<path fill="none" stroke="#63b8ff" d="M521.62,-192.42C534.05,-189.8 547.06,-186.66 559,-183 575.57,-177.93 578.46,-173.18 595,-168 603.34,-165.38 612.24,-163.01 621.06,-160.88"/>
<polygon fill="#63b8ff" stroke="#63b8ff" points="621.98,-164.26 630.94,-158.6 620.41,-157.44 621.98,-164.26"/>
</a>
</g>
</g>
<!-- Node14 -->
<g id="Node000014" class="node">
<title>Node14</title>
<g id="a_Node000014"><a xlink:href="UToolbarSettings_8cpp.html#a93020a74b1d3099ceb4abe28cf3188d2" target="_top" xlink:title="사용자 입력 디렉터리 문자열을 콘텐츠 루트 형식으로 정규화합니다.">
<polygon fill="white" stroke="#666666" points="951.5,-201.5 841.5,-201.5 841.5,-182.5 951.5,-182.5 951.5,-201.5"/>
<text text-anchor="middle" x="896.5" y="-189.5" font-family="Malgun Gothic" font-size="10.00">NormalizeUserPath</text>
</a>
</g>
</g>
<!-- Node13&#45;&gt;Node14 -->
<g id="edge13_Node000013_Node000014" class="edge">
<title>Node13&#45;&gt;Node14</title>
<g id="a_edge13_Node000013_Node000014"><a xlink:title=" ">
<path fill="none" stroke="#63b8ff" d="M761.59,-192C784.42,-192 809.21,-192 831.17,-192"/>
<polygon fill="#63b8ff" stroke="#63b8ff" points="831.38,-195.5 841.38,-192 831.38,-188.5 831.38,-195.5"/>
</a>
</g>
</g>
<!-- Node16&#45;&gt;Node11 -->
<g id="edge16_Node000016_Node000011" class="edge">
<title>Node16&#45;&gt;Node11</title>
<g id="a_edge16_Node000016_Node000011"><a xlink:title=" ">
<path fill="none" stroke="#63b8ff" d="M748.16,-247.2C767.83,-249.44 789.84,-251.95 810.74,-254.34"/>
<polygon fill="#63b8ff" stroke="#63b8ff" points="810.56,-257.84 820.89,-255.49 811.36,-250.88 810.56,-257.84"/>
</a>
</g>
</g>
<!-- Node19 -->
<g id="Node000019" class="node">
<title>Node19</title>
<g id="a_Node000019"><a xlink:href="classFLevelFeature.html#a63493bc16dc28b58911d3b03c7833aee" target="_top" xlink:title="현재 선택된 맵 패키지를 에디터에 로드합니다.">
<polygon fill="white" stroke="#666666" points="773,-72.5 595,-72.5 595,-53.5 773,-53.5 773,-72.5"/>
<text text-anchor="middle" x="684" y="-60.5" font-family="Malgun Gothic" font-size="10.00">FLevelFeature::LoadSelectedMap</text>
</a>
</g>
</g>
<!-- Node18&#45;&gt;Node19 -->
<g id="edge19_Node000018_Node000019" class="edge">
<title>Node18&#45;&gt;Node19</title>
<g id="a_edge19_Node000018_Node000019"><a xlink:title=" ">
<path fill="none" stroke="#63b8ff" d="M533.38,-95.94C564.43,-89.11 600.62,-81.14 629.62,-74.75"/>
<polygon fill="#63b8ff" stroke="#63b8ff" points="630.55,-78.13 639.56,-72.56 629.04,-71.3 630.55,-78.13"/>
</a>
</g>
</g>
<!-- Node20 -->
<g id="Node000020" class="node">
<title>Node20</title>
<g id="a_Node000020"><a xlink:href="classFLevelFeature.html#aad2ad775628a12e462c1e85e90060415" target="_top" xlink:title="선택된 맵 에셋이 여전히 존재하는지 검증합니다.">
<polygon fill="white" stroke="#666666" points="971,-59 822,-59 822,-29 971,-29 971,-59"/>
<text text-anchor="start" x="830" y="-47" font-family="Malgun Gothic" font-size="10.00">FLevelFeature::EnsureValid</text>
<text text-anchor="middle" x="896.5" y="-36" font-family="Malgun Gothic" font-size="10.00">SelectedMap</text>
</a>
</g>
</g>
<!-- Node19&#45;&gt;Node20 -->
<g id="edge20_Node000019_Node000020" class="edge">
<title>Node19&#45;&gt;Node20</title>
<g id="a_edge20_Node000019_Node000020"><a xlink:title=" ">
<path fill="none" stroke="#63b8ff" d="M773.05,-55.05C785.85,-53.9 799,-52.71 811.72,-51.56"/>
<polygon fill="#63b8ff" stroke="#63b8ff" points="812.16,-55.04 821.8,-50.65 811.53,-48.07 812.16,-55.04"/>
</a>
</g>
</g>
<!-- Node21&#45;&gt;Node20 -->
<g id="edge22_Node000021_Node000020" class="edge">
<title>Node21&#45;&gt;Node20</title>
<g id="a_edge22_Node000021_Node000020"><a xlink:title=" ">
<path fill="none" stroke="#63b8ff" d="M537.54,-19.89C613.38,-25 732.22,-33 811.93,-38.37"/>
<polygon fill="#63b8ff" stroke="#63b8ff" points="811.73,-41.86 821.94,-39.04 812.2,-34.88 811.73,-41.86"/>
</a>
</g>
</g>
<!-- Node22&#45;&gt;Node19 -->
<g id="edge24_Node000022_Node000019" class="edge">
<title>Node22&#45;&gt;Node19</title>
<g id="a_edge24_Node000022_Node000019"><a xlink:title=" ">
<path fill="none" stroke="#63b8ff" d="M538.5,-63C553.31,-63 569.09,-63 584.59,-63"/>
<polygon fill="#63b8ff" stroke="#63b8ff" points="584.72,-66.5 594.72,-63 584.72,-59.5 584.72,-66.5"/>
</a>
</g>
</g>
</g>
</svg>
