<?xml version="1.0" encoding="UTF-8" standalone="no"?>
<!DOCTYPE svg PUBLIC "-//W3C//DTD SVG 1.1//EN"
 "http://www.w3.org/Graphics/SVG/1.1/DTD/svg11.dtd">
<!-- Generated by graphviz version 2.43.0 (0)
 -->
<!-- Title: FToolbar Pages: 1 -->
<svg width="121pt" height="202pt"
 viewBox="0.00 0.00 121.00 202.00" xmlns="http://www.w3.org/2000/svg" xmlns:xlink="http://www.w3.org/1999/xlink">
<g id="graph0" class="graph" transform="scale(1 1) rotate(0) translate(4 198)">
<title>FToolbar</title>
<!-- Node1 -->
<g id="Node000001" class="node">
<title>Node1</title>
<g id="a_Node000001"><a xlink:title="Coffee Toolbar 기능을 에디터에 연결하는 모듈 구현입니다.">
<polygon fill="#999999" stroke="transparent" points="113,-109 0,-109 0,0 113,0 113,-109"/>
<text text-anchor="start" x="36.5" y="-96.5" font-family="Malgun Gothic" font-size="10.00">FToolbar</text>
<text text-anchor="start" x="7" y="-81.5" font-family="Malgun Gothic" font-size="10.00">&#45;</text>
<text text-anchor="start" x="17.5" y="-81.5" font-family="Malgun Gothic" font-size="10.00">CommandFeature</text>
<text text-anchor="start" x="7" y="-66.5" font-family="Malgun Gothic" font-size="10.00">&#45;</text>
<text text-anchor="start" x="17.5" y="-66.5" font-family="Malgun Gothic" font-size="10.00">LevelFeature</text>
<text text-anchor="start" x="7" y="-51.5" font-family="Malgun Gothic" font-size="10.00">&#45;</text>
<text text-anchor="start" x="17.5" y="-51.5" font-family="Malgun Gothic" font-size="10.00">ScreenshotFeature</text>
<text text-anchor="start" x="4.5" y="-36.5" font-family="Malgun Gothic" font-size="10.00">+</text>
<text text-anchor="start" x="17.5" y="-36.5" font-family="Malgun Gothic" font-size="10.00">ShutdownModule()</text>
<text text-anchor="start" x="4.5" y="-21.5" font-family="Malgun Gothic" font-size="10.00">+</text>
<text text-anchor="start" x="17.5" y="-21.5" font-family="Malgun Gothic" font-size="10.00">StartupModule()</text>
<text text-anchor="start" x="7" y="-6.5" font-family="Malgun Gothic" font-size="10.00">&#45;</text>
<text text-anchor="start" x="17.5" y="-6.5" font-family="Malgun Gothic" font-size="10.00">RegisterMenus()</text>
<polygon fill="#666666" stroke="#666666" points="0.5,-91.5 0.5,-91.5 113.5,-91.5 113.5,-91.5 0.5,-91.5"/>
<polygon fill="#666666" stroke="#666666" points="0.5,-46.5 0.5,-46.5 15.5,-46.5 15.5,-46.5 0.5,-46.5"/>
<polygon fill="#666666" stroke="#666666" points="15.5,-46.5 15.5,-46.5 113.5,-46.5 113.5,-46.5 15.5,-46.5"/>
<polygon fill="none" stroke="#666666" points="0,0 0,-109 113,-109 113,0 0,0"/>
</a>
</g>
</g>
<!-- Node2 -->
<g id="Node000002" class="node">
<title>Node2</title>
<g id="a_Node000002"><a xlink:title=" ">
<polygon fill="white" stroke="transparent" points="103,-194 10,-194 10,-145 103,-145 103,-194"/>
<text text-anchor="start" x="15.5" y="-181.5" font-family="Malgun Gothic" font-size="10.00">IModuleInterface</text>
<text text-anchor="start" x="55" y="-166.5" font-family="Malgun Gothic" font-size="10.00"> </text>
<text text-anchor="start" x="55" y="-151.5" font-family="Malgun Gothic" font-size="10.00"> </text>
<polygon fill="#666666" stroke="#666666" points="10.5,-176.5 10.5,-176.5 103.5,-176.5 103.5,-176.5 10.5,-176.5"/>
<polygon fill="#666666" stroke="#666666" points="10.5,-161.5 10.5,-161.5 103.5,-161.5 103.5,-161.5 10.5,-161.5"/>
<polygon fill="none" stroke="#666666" points="10,-145 10,-194 103,-194 103,-145 10,-145"/>
</a>
</g>
</g>
<!-- Node2&#45;&gt;Node1 -->
<g id="edge1_Node000001_Node000002" class="edge">
<title>Node2&#45;&gt;Node1</title>
<g id="a_edge1_Node000001_Node000002"><a xlink:title=" ">
<path fill="none" stroke="#63b8ff" d="M56.5,-134.79C56.5,-126.79 56.5,-118.06 56.5,-109.41"/>
<polygon fill="none" stroke="#63b8ff" points="53,-134.81 56.5,-144.81 60,-134.81 53,-134.81"/>
</a>
</g>
</g>
</g>
</svg>
