<?xml version="1.0" encoding="UTF-8" standalone="no"?>
<!DOCTYPE svg PUBLIC "-//W3C//DTD SVG 1.1//EN"
 "http://www.w3.org/Graphics/SVG/1.1/DTD/svg11.dtd">
<!-- Generated by graphviz version 2.43.0 (0)
 -->
<!-- Title: FScreenshotFeature::OnCaptureQuickPreview Pages: 1 -->
<svg width="676pt" height="38pt"
 viewBox="0.00 0.00 676.00 38.00" xmlns="http://www.w3.org/2000/svg" xmlns:xlink="http://www.w3.org/1999/xlink">
<g id="graph0" class="graph" transform="scale(1 1) rotate(0) translate(4 34)">
<title>FScreenshotFeature::OnCaptureQuickPreview</title>
<!-- Node1 -->
<g id="Node000001" class="node">
<title>Node1</title>
<g id="a_Node000001"><a xlink:title="빠른 참고용 스크린샷(1x 배율)을 촬영합니다.">
<polygon fill="#999999" stroke="#666666" points="668,-30 527,-30 527,0 668,0 668,-30"/>
<text text-anchor="start" x="535" y="-18" font-family="Malgun Gothic" font-size="10.00">FScreenshotFeature</text>
<text text-anchor="middle" x="597.5" y="-7" font-family="Malgun Gothic" font-size="10.00">::OnCaptureQuickPreview</text>
</a>
</g>
</g>
<!-- Node2 -->
<g id="Node000002" class="node">
<title>Node2</title>
<g id="a_Node000002"><a xlink:href="classFScreenshotFeature.html#a56fc11b5f6023d5492e26d9354807082" target="_top" xlink:title="스크린샷 옵션을 제공하는 메뉴 위젯을 생성합니다.">
<polygon fill="white" stroke="#666666" points="491,-30 342,-30 342,0 491,0 491,-30"/>
<text text-anchor="start" x="350" y="-18" font-family="Malgun Gothic" font-size="10.00">FScreenshotFeature</text>
<text text-anchor="middle" x="416.5" y="-7" font-family="Malgun Gothic" font-size="10.00">::GenerateScreenshotMenu</text>
</a>
</g>
</g>
<!-- Node1&#45;&gt;Node2 -->
<g id="edge1_Node000001_Node000002" class="edge">
<title>Node1&#45;&gt;Node2</title>
<g id="a_edge1_Node000001_Node000002"><a xlink:title=" ">
<path fill="none" stroke="#63b8ff" d="M516.55,-15C508.1,-15 499.54,-15 491.17,-15"/>
<polygon fill="#63b8ff" stroke="#63b8ff" points="516.78,-18.5 526.78,-15 516.78,-11.5 516.78,-18.5"/>
</a>
</g>
</g>
<!-- Node3 -->
<g id="Node000003" class="node">
<title>Node3</title>
<g id="a_Node000003"><a xlink:href="classFToolbar.html#a2df7b59ad21cce1d2f0437add0d4c6a7" target="_top" xlink:title="에디터 확장 프레임워크에 툴바 메뉴와 버튼을 등록합니다.">
<polygon fill="white" stroke="#666666" points="306,-24.5 170,-24.5 170,-5.5 306,-5.5 306,-24.5"/>
<text text-anchor="middle" x="238" y="-12.5" font-family="Malgun Gothic" font-size="10.00">FToolbar::RegisterMenus</text>
</a>
</g>
</g>
<!-- Node2&#45;&gt;Node3 -->
<g id="edge2_Node000002_Node000003" class="edge">
<title>Node2&#45;&gt;Node3</title>
<g id="a_edge2_Node000002_Node000003"><a xlink:title=" ">
<path fill="none" stroke="#63b8ff" d="M331.88,-15C323.29,-15 314.64,-15 306.25,-15"/>
<polygon fill="#63b8ff" stroke="#63b8ff" points="331.93,-18.5 341.93,-15 331.93,-11.5 331.93,-18.5"/>
</a>
</g>
</g>
<!-- Node4 -->
<g id="Node000004" class="node">
<title>Node4</title>
<g id="a_Node000004"><a xlink:href="classFToolbar.html#a29b321398a59346e3df4870366f89245" target="_top" xlink:title="툴바 기능을 초기화하고 Slate 메뉴 확장을 등록합니다.">
<polygon fill="white" stroke="#666666" points="134,-24.5 0,-24.5 0,-5.5 134,-5.5 134,-24.5"/>
<text text-anchor="middle" x="67" y="-12.5" font-family="Malgun Gothic" font-size="10.00">FToolbar::StartupModule</text>
</a>
</g>
</g>
<!-- Node3&#45;&gt;Node4 -->
<g id="edge3_Node000003_Node000004" class="edge">
<title>Node3&#45;&gt;Node4</title>
<g id="a_edge3_Node000003_Node000004"><a xlink:title=" ">
<path fill="none" stroke="#63b8ff" d="M159.49,-15C151.05,-15 142.51,-15 134.22,-15"/>
<polygon fill="#63b8ff" stroke="#63b8ff" points="159.72,-18.5 169.72,-15 159.72,-11.5 159.72,-18.5"/>
</a>
</g>
</g>
</g>
</svg>
