<?xml version="1.0" encoding="UTF-8" standalone="no"?>
<!DOCTYPE svg PUBLIC "-//W3C//DTD SVG 1.1//EN"
 "http://www.w3.org/Graphics/SVG/1.1/DTD/svg11.dtd">
<!-- Generated by graphviz version 2.43.0 (0)
 -->
<!-- Title: FToolbar::RegisterMenus Pages: 1 -->
<svg width="795pt" height="493pt"
 viewBox="0.00 0.00 795.00 492.50" xmlns="http://www.w3.org/2000/svg" xmlns:xlink="http://www.w3.org/1999/xlink">
<g id="graph0" class="graph" transform="scale(1 1) rotate(0) translate(4 488.5)">
<title>FToolbar::RegisterMenus</title>
<!-- Node1 -->
<g id="Node000001" class="node">
<title>Node1</title>
<g id="a_Node000001"><a xlink:title="에디터 확장 프레임워크에 툴바 메뉴와 버튼을 등록합니다.">
<polygon fill="#999999" stroke="#666666" points="136,-189.5 0,-189.5 0,-170.5 136,-170.5 136,-189.5"/>
<text text-anchor="middle" x="68" y="-177.5" font-family="Malgun Gothic" font-size="10.00">FToolbar::RegisterMenus</text>
</a>
</g>
</g>
<!-- Node2 -->
<g id="Node000002" class="node">
<title>Node2</title>
<g id="a_Node000002"><a xlink:href="classFCommandFeature.html#ab546196898c4d540b74defb4fb9e2aed" target="_top" xlink:title="툴바용 명령 버튼 메뉴 위젯을 생성합니다.">
<polygon fill="white" stroke="#666666" points="347.5,-423 186.5,-423 186.5,-393 347.5,-393 347.5,-423"/>
<text text-anchor="start" x="194.5" y="-411" font-family="Malgun Gothic" font-size="10.00">FCommandFeature::Generate</text>
<text text-anchor="middle" x="267" y="-400" font-family="Malgun Gothic" font-size="10.00">CommandsMenu</text>
</a>
</g>
</g>
<!-- Node1&#45;&gt;Node2 -->
<g id="edge1_Node000001_Node000002" class="edge">
<title>Node1&#45;&gt;Node2</title>
<g id="a_edge1_Node000001_Node000002"><a xlink:title=" ">
<path fill="none" stroke="#63b8ff" d="M75.51,-189.7C91.09,-212.69 132.22,-271.93 172,-317 194.06,-342 221.73,-368.24 241.32,-386.09"/>
<polygon fill="#63b8ff" stroke="#63b8ff" points="239.15,-388.85 248.92,-392.96 243.85,-383.66 239.15,-388.85"/>
</a>
</g>
</g>
<!-- Node8 -->
<g id="Node000008" class="node">
<title>Node8</title>
<g id="a_Node000008"><a xlink:href="classFFolderFeature.html#a0a8ef98284f119128a494f801928083a" target="_top" xlink:title=" ">
<polygon fill="white" stroke="#666666" points="337,-260 197,-260 197,-230 337,-230 337,-260"/>
<text text-anchor="start" x="205" y="-248" font-family="Malgun Gothic" font-size="10.00">FFolderFeature::Generate</text>
<text text-anchor="middle" x="267" y="-237" font-family="Malgun Gothic" font-size="10.00">FolderMenu</text>
</a>
</g>
</g>
<!-- Node1&#45;&gt;Node8 -->
<g id="edge7_Node000001_Node000008" class="edge">
<title>Node1&#45;&gt;Node8</title>
<g id="a_edge7_Node000001_Node000008"><a xlink:title=" ">
<path fill="none" stroke="#63b8ff" d="M90.8,-189.63C111.45,-198.52 143.45,-211.71 172,-221 178.72,-223.18 185.76,-225.3 192.83,-227.3"/>
<polygon fill="#63b8ff" stroke="#63b8ff" points="191.9,-230.68 202.48,-229.97 193.77,-223.93 191.9,-230.68"/>
</a>
</g>
</g>
<!-- Node11 -->
<g id="Node000011" class="node">
<title>Node11</title>
<g id="a_Node000011"><a xlink:href="classFLevelFeature.html#aff2925b502a52156786e925c1bd2af90" target="_top" xlink:title="레벨 선택 항목을 포함한 Slate 위젯을 구성합니다.">
<polygon fill="white" stroke="#666666" points="362,-211.5 172,-211.5 172,-192.5 362,-192.5 362,-211.5"/>
<text text-anchor="middle" x="267" y="-199.5" font-family="Malgun Gothic" font-size="10.00">FLevelFeature::GenerateLevelMenu</text>
</a>
</g>
</g>
<!-- Node1&#45;&gt;Node11 -->
<g id="edge10_Node000001_Node000011" class="edge">
<title>Node1&#45;&gt;Node11</title>
<g id="a_edge10_Node000001_Node000011"><a xlink:title=" ">
<path fill="none" stroke="#63b8ff" d="M136.25,-187.51C147.28,-188.74 158.9,-190.04 170.46,-191.33"/>
<polygon fill="#63b8ff" stroke="#63b8ff" points="170.27,-194.83 180.6,-192.46 171.05,-187.87 170.27,-194.83"/>
</a>
</g>
</g>
<!-- Node15 -->
<g id="Node000015" class="node">
<title>Node15</title>
<g id="a_Node000015"><a xlink:href="classFNetworkTestFeature.html#ab9441c5c29d671c35b50948d5c09e2ec" target="_top" xlink:title="네트워크 테스트 메뉴를 생성합니다.">
<polygon fill="white" stroke="#666666" points="344.5,-174 189.5,-174 189.5,-144 344.5,-144 344.5,-174"/>
<text text-anchor="start" x="197.5" y="-162" font-family="Malgun Gothic" font-size="10.00">FNetworkTestFeature</text>
<text text-anchor="middle" x="267" y="-151" font-family="Malgun Gothic" font-size="10.00">::GenerateNetworkTestMenu</text>
</a>
</g>
</g>
<!-- Node1&#45;&gt;Node15 -->
<g id="edge14_Node000001_Node000015" class="edge">
<title>Node1&#45;&gt;Node15</title>
<g id="a_edge14_Node000001_Node000015"><a xlink:title=" ">
<path fill="none" stroke="#63b8ff" d="M136.25,-172.83C149.97,-171.37 164.59,-169.81 178.9,-168.29"/>
<polygon fill="#63b8ff" stroke="#63b8ff" points="179.66,-171.72 189.23,-167.18 178.92,-164.76 179.66,-171.72"/>
</a>
</g>
</g>
<!-- Node18 -->
<g id="Node000018" class="node">
<title>Node18</title>
<g id="a_Node000018"><a xlink:href="classFScreenshotFeature.html#a56fc11b5f6023d5492e26d9354807082" target="_top" xlink:title="스크린샷 옵션을 제공하는 메뉴 위젯을 생성합니다.">
<polygon fill="white" stroke="#666666" points="341.5,-308 192.5,-308 192.5,-278 341.5,-278 341.5,-308"/>
<text text-anchor="start" x="200.5" y="-296" font-family="Malgun Gothic" font-size="10.00">FScreenshotFeature</text>
<text text-anchor="middle" x="267" y="-285" font-family="Malgun Gothic" font-size="10.00">::GenerateScreenshotMenu</text>
</a>
</g>
</g>
<!-- Node1&#45;&gt;Node18 -->
<g id="edge17_Node000001_Node000018" class="edge">
<title>Node1&#45;&gt;Node18</title>
<g id="a_edge17_Node000001_Node000018"><a xlink:title=" ">
<path fill="none" stroke="#63b8ff" d="M77.3,-189.68C93.56,-208.02 131.57,-247.89 172,-269 175.7,-270.93 179.55,-272.71 183.51,-274.35"/>
<polygon fill="#63b8ff" stroke="#63b8ff" points="182.3,-277.64 192.89,-277.94 184.8,-271.1 182.3,-277.64"/>
</a>
</g>
</g>
<!-- Node21 -->
<g id="Node000021" class="node">
<title>Node21</title>
<g id="a_Node000021"><a xlink:href="classFLevelFeature.html#a536602356f4e9dcdfcfbe85094782bdb" target="_top" xlink:title="선택된 맵 에셋을 에디터에서 엽니다.">
<polygon fill="white" stroke="#666666" points="340.5,-126 193.5,-126 193.5,-96 340.5,-96 340.5,-126"/>
<text text-anchor="start" x="201.5" y="-114" font-family="Malgun Gothic" font-size="10.00">FLevelFeature::OnSelected</text>
<text text-anchor="middle" x="267" y="-103" font-family="Malgun Gothic" font-size="10.00">Map_Open</text>
</a>
</g>
</g>
<!-- Node1&#45;&gt;Node21 -->
<g id="edge21_Node000001_Node000021" class="edge">
<title>Node1&#45;&gt;Node21</title>
<g id="a_edge21_Node000001_Node000021"><a xlink:title=" ">
<path fill="none" stroke="#63b8ff" d="M88.37,-170.41C108.8,-160.56 142.1,-145.27 172,-135 178.31,-132.83 184.93,-130.76 191.59,-128.8"/>
<polygon fill="#63b8ff" stroke="#63b8ff" points="192.71,-132.12 201.37,-126.03 190.8,-125.39 192.71,-132.12"/>
</a>
</g>
</g>
<!-- Node24 -->
<g id="Node000024" class="node">
<title>Node24</title>
<g id="a_Node000024"><a xlink:href="classFLevelFeature.html#a31e8a2482aafbc4082a996e3a5a7a0d9" target="_top" xlink:title="선택된 맵으로 새로운 뷰포트에서 PIE를 실행합니다.">
<polygon fill="white" stroke="#666666" points="340.5,-30 193.5,-30 193.5,0 340.5,0 340.5,-30"/>
<text text-anchor="start" x="201.5" y="-18" font-family="Malgun Gothic" font-size="10.00">FLevelFeature::OnSelected</text>
<text text-anchor="middle" x="267" y="-7" font-family="Malgun Gothic" font-size="10.00">Map_PlayInEditor</text>
</a>
</g>
</g>
<!-- Node1&#45;&gt;Node24 -->
<g id="edge24_Node000001_Node000024" class="edge">
<title>Node1&#45;&gt;Node24</title>
<g id="a_edge24_Node000001_Node000024"><a xlink:title=" ">
<path fill="none" stroke="#63b8ff" d="M73.16,-170.35C84.76,-144.65 120.03,-74.17 172,-39 175.79,-36.44 179.83,-34.14 184.04,-32.1"/>
<polygon fill="#63b8ff" stroke="#63b8ff" points="185.68,-35.2 193.45,-28 182.89,-28.78 185.68,-35.2"/>
</a>
</g>
</g>
<!-- Node25 -->
<g id="Node000025" class="node">
<title>Node25</title>
<g id="a_Node000025"><a xlink:href="classFLevelFeature.html#ad659ce46cd4d37948b219e9aa104c2b3" target="_top" xlink:title="선택된 맵으로 현재 뷰포트에서 PIE를 시작합니다.">
<polygon fill="white" stroke="#666666" points="341.5,-78 192.5,-78 192.5,-48 341.5,-48 341.5,-78"/>
<text text-anchor="start" x="200.5" y="-66" font-family="Malgun Gothic" font-size="10.00">FLevelFeature::OnSelected</text>
<text text-anchor="middle" x="267" y="-55" font-family="Malgun Gothic" font-size="10.00">Map_PlaySelectedViewport</text>
</a>
</g>
</g>
<!-- Node1&#45;&gt;Node25 -->
<g id="edge26_Node000001_Node000025" class="edge">
<title>Node1&#45;&gt;Node25</title>
<g id="a_edge26_Node000001_Node000025"><a xlink:title=" ">
<path fill="none" stroke="#63b8ff" d="M76.7,-170.46C92.51,-151.54 130.6,-109.2 172,-87 175.49,-85.13 179.13,-83.4 182.87,-81.8"/>
<polygon fill="#63b8ff" stroke="#63b8ff" points="184.29,-85 192.32,-78.09 181.73,-78.48 184.29,-85"/>
</a>
</g>
</g>
<!-- Node3 -->
<g id="Node000003" class="node">
<title>Node3</title>
<g id="a_Node000003"><a xlink:href="classFCommon.html#a7f9a33df4cca4a9488e492d0043c284e" target="_top" xlink:title="전달된 이름으로 애플리케이션 스타일에서 Slate 아이콘을 조회합니다.">
<polygon fill="white" stroke="#666666" points="542,-484.5 432,-484.5 432,-465.5 542,-465.5 542,-484.5"/>
<text text-anchor="middle" x="487" y="-472.5" font-family="Malgun Gothic" font-size="10.00">FCommon::GetIcon</text>
</a>
</g>
</g>
<!-- Node2&#45;&gt;Node3 -->
<g id="edge2_Node000002_Node000003" class="edge">
<title>Node2&#45;&gt;Node3</title>
<g id="a_edge2_Node000002_Node000003"><a xlink:title=" ">
<path fill="none" stroke="#63b8ff" d="M304.52,-423.06C330.32,-433.31 365.89,-446.66 398,-456 407.02,-458.63 416.66,-461.07 426.13,-463.26"/>
<polygon fill="#63b8ff" stroke="#63b8ff" points="425.37,-466.68 435.9,-465.46 426.91,-459.85 425.37,-466.68"/>
</a>
</g>
</g>
<!-- Node5 -->
<g id="Node000005" class="node">
<title>Node5</title>
<g id="a_Node000005"><a xlink:href="classFCommandFeature.html#a08ab22cf9f7960c9b8f73c1f80eb981e" target="_top" xlink:title="지정된 툴바 버튼이 현재 토글되어 있는지 반환합니다.">
<polygon fill="white" stroke="#666666" points="565,-447 409,-447 409,-417 565,-417 565,-447"/>
<text text-anchor="start" x="417" y="-435" font-family="Malgun Gothic" font-size="10.00">FCommandFeature::IsButton</text>
<text text-anchor="middle" x="487" y="-424" font-family="Malgun Gothic" font-size="10.00">Toggled</text>
</a>
</g>
</g>
<!-- Node2&#45;&gt;Node5 -->
<g id="edge4_Node000002_Node000005" class="edge">
<title>Node2&#45;&gt;Node5</title>
<g id="a_edge4_Node000002_Node000005"><a xlink:title=" ">
<path fill="none" stroke="#63b8ff" d="M347.63,-416.77C364.15,-418.59 381.64,-420.51 398.42,-422.36"/>
<polygon fill="#63b8ff" stroke="#63b8ff" points="398.45,-425.88 408.77,-423.5 399.21,-418.92 398.45,-425.88"/>
</a>
</g>
</g>
<!-- Node6 -->
<g id="Node000006" class="node">
<title>Node6</title>
<g id="a_Node000006"><a xlink:href="classFCommandFeature.html#a3ff8a0398db30ce422496f2281dd3b60" target="_top" xlink:title="전달된 버튼 ID에 매핑된 명령을 실행합니다.">
<polygon fill="white" stroke="#666666" points="570.5,-399 403.5,-399 403.5,-369 570.5,-369 570.5,-399"/>
<text text-anchor="start" x="411.5" y="-387" font-family="Malgun Gothic" font-size="10.00">FCommandFeature::OnExecute</text>
<text text-anchor="middle" x="487" y="-376" font-family="Malgun Gothic" font-size="10.00">ButtonCommand</text>
</a>
</g>
</g>
<!-- Node2&#45;&gt;Node6 -->
<g id="edge5_Node000002_Node000006" class="edge">
<title>Node2&#45;&gt;Node6</title>
<g id="a_edge5_Node000002_Node000006"><a xlink:title=" ">
<path fill="none" stroke="#63b8ff" d="M347.63,-399.23C362.35,-397.61 377.85,-395.91 392.93,-394.25"/>
<polygon fill="#63b8ff" stroke="#63b8ff" points="393.74,-397.68 403.29,-393.11 392.97,-390.72 393.74,-397.68"/>
</a>
</g>
</g>
<!-- Node4 -->
<g id="Node000004" class="node">
<title>Node4</title>
<g id="a_Node000004"><a xlink:href="classFToolbarStyle.html#a3437f8f3e4dcd2c7b68de7b28fc2a95a" target="_top" xlink:title="Slate 스타일 세트를 참조할 때 사용할 이름을 반환합니다.">
<polygon fill="white" stroke="#666666" points="787,-484.5 612,-484.5 612,-465.5 787,-465.5 787,-484.5"/>
<text text-anchor="middle" x="699.5" y="-472.5" font-family="Malgun Gothic" font-size="10.00">FToolbarStyle::GetStyleSetName</text>
</a>
</g>
</g>
<!-- Node3&#45;&gt;Node4 -->
<g id="edge3_Node000003_Node000004" class="edge">
<title>Node3&#45;&gt;Node4</title>
<g id="a_edge3_Node000003_Node000004"><a xlink:title=" ">
<path fill="none" stroke="#63b8ff" d="M542.21,-475C560.42,-475 581.33,-475 601.8,-475"/>
<polygon fill="#63b8ff" stroke="#63b8ff" points="601.8,-478.5 611.8,-475 601.8,-471.5 601.8,-478.5"/>
</a>
</g>
</g>
<!-- Node7 -->
<g id="Node000007" class="node">
<title>Node7</title>
<g id="a_Node000007"><a xlink:href="classFCommon.html#ac247ef6e336abf6ca53b140d93ea07f9" target="_top" xlink:title="툴바 액션이 대상으로 삼는 활성 에디터 월드를 반환합니다.">
<polygon fill="white" stroke="#666666" points="775,-375 624,-375 624,-345 775,-345 775,-375"/>
<text text-anchor="start" x="632" y="-363" font-family="Malgun Gothic" font-size="10.00">FCommon::GetActiveTarget</text>
<text text-anchor="middle" x="699.5" y="-352" font-family="Malgun Gothic" font-size="10.00">World</text>
</a>
</g>
</g>
<!-- Node6&#45;&gt;Node7 -->
<g id="edge6_Node000006_Node000007" class="edge">
<title>Node6&#45;&gt;Node7</title>
<g id="a_edge6_Node000006_Node000007"><a xlink:title=" ">
<path fill="none" stroke="#63b8ff" d="M570.59,-374.58C584.68,-372.98 599.34,-371.31 613.49,-369.69"/>
<polygon fill="#63b8ff" stroke="#63b8ff" points="614.14,-373.14 623.68,-368.53 613.35,-366.19 614.14,-373.14"/>
</a>
</g>
</g>
<!-- Node9 -->
<g id="Node000009" class="node">
<title>Node9</title>
<g id="a_Node000009"><a xlink:href="classFFolderFeature.html#a703d4416dba2e4573735c8215f679e07" target="_top" xlink:title=" ">
<polygon fill="white" stroke="#666666" points="562.5,-254.5 411.5,-254.5 411.5,-235.5 562.5,-235.5 562.5,-254.5"/>
<text text-anchor="middle" x="487" y="-242.5" font-family="Malgun Gothic" font-size="10.00">FFolderFeature::OpenFolder</text>
</a>
</g>
</g>
<!-- Node8&#45;&gt;Node9 -->
<g id="edge8_Node000008_Node000009" class="edge">
<title>Node8&#45;&gt;Node9</title>
<g id="a_edge8_Node000008_Node000009"><a xlink:title=" ">
<path fill="none" stroke="#63b8ff" d="M337.28,-245C357.53,-245 379.9,-245 401,-245"/>
<polygon fill="#63b8ff" stroke="#63b8ff" points="401.25,-248.5 411.25,-245 401.25,-241.5 401.25,-248.5"/>
</a>
</g>
</g>
<!-- Node10 -->
<g id="Node000010" class="node">
<title>Node10</title>
<g id="a_Node000010"><a xlink:href="FolderFeature_8cpp.html#a3fc863edd05ee6943e920f7984e2805f" target="_top" xlink:title=" ">
<polygon fill="white" stroke="#666666" points="764.5,-254.5 634.5,-254.5 634.5,-235.5 764.5,-235.5 764.5,-254.5"/>
<text text-anchor="middle" x="699.5" y="-242.5" font-family="Malgun Gothic" font-size="10.00">ResolveProjectRelative</text>
</a>
</g>
</g>
<!-- Node9&#45;&gt;Node10 -->
<g id="edge9_Node000009_Node000010" class="edge">
<title>Node9&#45;&gt;Node10</title>
<g id="a_edge9_Node000009_Node000010"><a xlink:title=" ">
<path fill="none" stroke="#63b8ff" d="M562.51,-245C582.45,-245 604.01,-245 623.95,-245"/>
<polygon fill="#63b8ff" stroke="#63b8ff" points="624.22,-248.5 634.22,-245 624.22,-241.5 624.22,-248.5"/>
</a>
</g>
</g>
<!-- Node12 -->
<g id="Node000012" class="node">
<title>Node12</title>
<g id="a_Node000012"><a xlink:href="classUToolbarSettings.html#a839017a8f47a62d4127ad8527d2498ed" target="_top" xlink:title="레벨 선택 헬퍼가 사용할 검색 루트 경로를 수집합니다.">
<polygon fill="white" stroke="#666666" points="564.5,-217 409.5,-217 409.5,-187 564.5,-187 564.5,-217"/>
<text text-anchor="start" x="417.5" y="-205" font-family="Malgun Gothic" font-size="10.00">UToolbarSettings::GetSearch</text>
<text text-anchor="middle" x="487" y="-194" font-family="Malgun Gothic" font-size="10.00">Roots</text>
</a>
</g>
</g>
<!-- Node11&#45;&gt;Node12 -->
<g id="edge11_Node000011_Node000012" class="edge">
<title>Node11&#45;&gt;Node12</title>
<g id="a_edge11_Node000011_Node000012"><a xlink:title=" ">
<path fill="none" stroke="#63b8ff" d="M362.03,-202C374.37,-202 386.96,-202 399.17,-202"/>
<polygon fill="#63b8ff" stroke="#63b8ff" points="399.32,-205.5 409.32,-202 399.32,-198.5 399.32,-205.5"/>
</a>
</g>
</g>
<!-- Node14 -->
<g id="Node000014" class="node">
<title>Node14</title>
<g id="a_Node000014"><a xlink:href="classFLevelFeature.html#ac20da5828b1adc7686fbd96ba8abd1c8" target="_top" xlink:title="선택된 맵 패키지 이름을 저장합니다.">
<polygon fill="white" stroke="#666666" points="571,-168.5 403,-168.5 403,-149.5 571,-149.5 571,-168.5"/>
<text text-anchor="middle" x="487" y="-156.5" font-family="Malgun Gothic" font-size="10.00">FLevelFeature::OnSelectedMap</text>
</a>
</g>
</g>
<!-- Node11&#45;&gt;Node14 -->
<g id="edge13_Node000011_Node000014" class="edge">
<title>Node11&#45;&gt;Node14</title>
<g id="a_edge13_Node000011_Node000014"><a xlink:title=" ">
<path fill="none" stroke="#63b8ff" d="M316.38,-192.46C349.26,-185.97 392.93,-177.36 427.73,-170.49"/>
<polygon fill="#63b8ff" stroke="#63b8ff" points="428.62,-173.89 437.75,-168.52 427.27,-167.02 428.62,-173.89"/>
</a>
</g>
</g>
<!-- Node13 -->
<g id="Node000013" class="node">
<title>Node13</title>
<g id="a_Node000013"><a xlink:href="UToolbarSettings_8cpp.html#a93020a74b1d3099ceb4abe28cf3188d2" target="_top" xlink:title="사용자 입력 디렉터리 문자열을 콘텐츠 루트 형식으로 정규화합니다.">
<polygon fill="white" stroke="#666666" points="754.5,-211.5 644.5,-211.5 644.5,-192.5 754.5,-192.5 754.5,-211.5"/>
<text text-anchor="middle" x="699.5" y="-199.5" font-family="Malgun Gothic" font-size="10.00">NormalizeUserPath</text>
</a>
</g>
</g>
<!-- Node12&#45;&gt;Node13 -->
<g id="edge12_Node000012_Node000013" class="edge">
<title>Node12&#45;&gt;Node13</title>
<g id="a_edge12_Node000012_Node000013"><a xlink:title=" ">
<path fill="none" stroke="#63b8ff" d="M564.59,-202C587.42,-202 612.21,-202 634.17,-202"/>
<polygon fill="#63b8ff" stroke="#63b8ff" points="634.38,-205.5 644.38,-202 634.38,-198.5 634.38,-205.5"/>
</a>
</g>
</g>
<!-- Node16 -->
<g id="Node000016" class="node">
<title>Node16</title>
<g id="a_Node000016"><a xlink:href="classFNetworkTestFeature.html#aaa8c7bcd54f9d2536389e8bc301392e2" target="_top" xlink:title="API 요청을 실행합니다.">
<polygon fill="white" stroke="#666666" points="547,-131 427,-131 427,-101 547,-101 547,-131"/>
<text text-anchor="start" x="435" y="-119" font-family="Malgun Gothic" font-size="10.00">FNetworkTestFeature</text>
<text text-anchor="middle" x="487" y="-108" font-family="Malgun Gothic" font-size="10.00">::ExecuteApiRequest</text>
</a>
</g>
</g>
<!-- Node15&#45;&gt;Node16 -->
<g id="edge15_Node000015_Node000016" class="edge">
<title>Node15&#45;&gt;Node16</title>
<g id="a_edge15_Node000015_Node000016"><a xlink:title=" ">
<path fill="none" stroke="#63b8ff" d="M344.25,-143.96C367.88,-139.3 393.79,-134.19 416.91,-129.63"/>
<polygon fill="#63b8ff" stroke="#63b8ff" points="417.84,-133.01 426.97,-127.64 416.49,-126.14 417.84,-133.01"/>
</a>
</g>
</g>
<!-- Node17 -->
<g id="Node000017" class="node">
<title>Node17</title>
<g id="a_Node000017"><a xlink:href="ConsoleCurlCommand_8cpp.html#a88845a62bc20c97cff22d85c1cf071a6" target="_top" xlink:title=" ">
<polygon fill="white" stroke="#666666" points="736,-125.5 663,-125.5 663,-106.5 736,-106.5 736,-125.5"/>
<text text-anchor="middle" x="699.5" y="-113.5" font-family="Malgun Gothic" font-size="10.00">BuildFullUrl</text>
</a>
</g>
</g>
<!-- Node16&#45;&gt;Node17 -->
<g id="edge16_Node000016_Node000017" class="edge">
<title>Node16&#45;&gt;Node17</title>
<g id="a_edge16_Node000016_Node000017"><a xlink:title=" ">
<path fill="none" stroke="#63b8ff" d="M547.2,-116C580.63,-116 621.78,-116 652.72,-116"/>
<polygon fill="#63b8ff" stroke="#63b8ff" points="652.8,-119.5 662.8,-116 652.8,-112.5 652.8,-119.5"/>
</a>
</g>
</g>
<!-- Node19 -->
<g id="Node000019" class="node">
<title>Node19</title>
<g id="a_Node000019"><a xlink:href="classFScreenshotFeature.html#aaab75697de4685c906b26140e54301b6" target="_top" xlink:title="지정된 배율로 활성 뷰포트에 고해상도 캡처를 요청합니다.">
<polygon fill="white" stroke="#666666" points="554.5,-351 419.5,-351 419.5,-321 554.5,-321 554.5,-351"/>
<text text-anchor="start" x="427.5" y="-339" font-family="Malgun Gothic" font-size="10.00">FScreenshotFeature</text>
<text text-anchor="middle" x="487" y="-328" font-family="Malgun Gothic" font-size="10.00">::CaptureActiveViewport</text>
</a>
</g>
</g>
<!-- Node18&#45;&gt;Node19 -->
<g id="edge18_Node000018_Node000019" class="edge">
<title>Node18&#45;&gt;Node19</title>
<g id="a_edge18_Node000018_Node000019"><a xlink:title=" ">
<path fill="none" stroke="#63b8ff" d="M341.5,-307.5C363.37,-311.81 387.38,-316.55 409.43,-320.9"/>
<polygon fill="#63b8ff" stroke="#63b8ff" points="408.93,-324.36 419.42,-322.87 410.28,-317.5 408.93,-324.36"/>
</a>
</g>
</g>
<!-- Node20 -->
<g id="Node000020" class="node">
<title>Node20</title>
<g id="a_Node000020"><a xlink:href="classFScreenshotFeature.html#af01017cd01130c08bf1c63309ea1e2a6" target="_top" xlink:title="촬영된 스크린샷이 저장된 디렉터리를 엽니다.">
<polygon fill="white" stroke="#666666" points="552.5,-303 421.5,-303 421.5,-273 552.5,-273 552.5,-303"/>
<text text-anchor="start" x="429.5" y="-291" font-family="Malgun Gothic" font-size="10.00">FScreenshotFeature</text>
<text text-anchor="middle" x="487" y="-280" font-family="Malgun Gothic" font-size="10.00">::OnOpenScreenShotDir</text>
</a>
</g>
</g>
<!-- Node18&#45;&gt;Node20 -->
<g id="edge20_Node000018_Node000020" class="edge">
<title>Node18&#45;&gt;Node20</title>
<g id="a_edge20_Node000018_Node000020"><a xlink:title=" ">
<path fill="none" stroke="#63b8ff" d="M341.5,-291.31C363.9,-290.8 388.55,-290.24 411.05,-289.72"/>
<polygon fill="#63b8ff" stroke="#63b8ff" points="411.3,-293.21 421.22,-289.49 411.14,-286.22 411.3,-293.21"/>
</a>
</g>
</g>
<!-- Node19&#45;&gt;Node7 -->
<g id="edge19_Node000019_Node000007" class="edge">
<title>Node19&#45;&gt;Node7</title>
<g id="a_edge19_Node000019_Node000007"><a xlink:title=" ">
<path fill="none" stroke="#63b8ff" d="M554.6,-343.59C573.37,-345.73 594.05,-348.09 613.73,-350.33"/>
<polygon fill="#63b8ff" stroke="#63b8ff" points="613.58,-353.84 623.92,-351.5 614.38,-346.89 613.58,-353.84"/>
</a>
</g>
</g>
<!-- Node22 -->
<g id="Node000022" class="node">
<title>Node22</title>
<g id="a_Node000022"><a xlink:href="classFLevelFeature.html#a63493bc16dc28b58911d3b03c7833aee" target="_top" xlink:title="현재 선택된 맵 패키지를 에디터에 로드합니다.">
<polygon fill="white" stroke="#666666" points="576,-72.5 398,-72.5 398,-53.5 576,-53.5 576,-72.5"/>
<text text-anchor="middle" x="487" y="-60.5" font-family="Malgun Gothic" font-size="10.00">FLevelFeature::LoadSelectedMap</text>
</a>
</g>
</g>
<!-- Node21&#45;&gt;Node22 -->
<g id="edge22_Node000021_Node000022" class="edge">
<title>Node21&#45;&gt;Node22</title>
<g id="a_edge22_Node000021_Node000022"><a xlink:title=" ">
<path fill="none" stroke="#63b8ff" d="M336.38,-95.94C367.43,-89.11 403.62,-81.14 432.62,-74.75"/>
<polygon fill="#63b8ff" stroke="#63b8ff" points="433.55,-78.13 442.56,-72.56 432.04,-71.3 433.55,-78.13"/>
</a>
</g>
</g>
<!-- Node23 -->
<g id="Node000023" class="node">
<title>Node23</title>
<g id="a_Node000023"><a xlink:href="classFLevelFeature.html#aad2ad775628a12e462c1e85e90060415" target="_top" xlink:title="선택된 맵 에셋이 여전히 존재하는지 검증합니다.">
<polygon fill="white" stroke="#666666" points="774,-57 625,-57 625,-27 774,-27 774,-57"/>
<text text-anchor="start" x="633" y="-45" font-family="Malgun Gothic" font-size="10.00">FLevelFeature::EnsureValid</text>
<text text-anchor="middle" x="699.5" y="-34" font-family="Malgun Gothic" font-size="10.00">SelectedMap</text>
</a>
</g>
</g>
<!-- Node22&#45;&gt;Node23 -->
<g id="edge23_Node000022_Node000023" class="edge">
<title>Node22&#45;&gt;Node23</title>
<g id="a_edge23_Node000022_Node000023"><a xlink:title=" ">
<path fill="none" stroke="#63b8ff" d="M576.05,-54.22C588.85,-52.94 602,-51.63 614.72,-50.36"/>
<polygon fill="#63b8ff" stroke="#63b8ff" points="615.2,-53.83 624.8,-49.35 614.51,-46.86 615.2,-53.83"/>
</a>
</g>
</g>
<!-- Node24&#45;&gt;Node23 -->
<g id="edge25_Node000024_Node000023" class="edge">
<title>Node24&#45;&gt;Node23</title>
<g id="a_edge25_Node000024_Node000023"><a xlink:title=" ">
<path fill="none" stroke="#63b8ff" d="M340.54,-19.55C416.38,-24.31 535.22,-31.76 614.93,-36.76"/>
<polygon fill="#63b8ff" stroke="#63b8ff" points="614.74,-40.25 624.94,-37.39 615.18,-33.27 614.74,-40.25"/>
</a>
</g>
</g>
<!-- Node25&#45;&gt;Node22 -->
<g id="edge27_Node000025_Node000022" class="edge">
<title>Node25&#45;&gt;Node22</title>
<g id="a_edge27_Node000025_Node000022"><a xlink:title=" ">
<path fill="none" stroke="#63b8ff" d="M341.5,-63C356.31,-63 372.09,-63 387.59,-63"/>
<polygon fill="#63b8ff" stroke="#63b8ff" points="387.72,-66.5 397.72,-63 387.72,-59.5 387.72,-66.5"/>
</a>
</g>
</g>
</g>
</svg>
