<?xml version="1.0" encoding="UTF-8" standalone="no"?>
<!DOCTYPE svg PUBLIC "-//W3C//DTD SVG 1.1//EN"
 "http://www.w3.org/Graphics/SVG/1.1/DTD/svg11.dtd">
<!-- Generated by graphviz version 2.43.0 (0)
 -->
<!-- Title: FLevelFeature::EnsureDefaultSelection Pages: 1 -->
<svg width="700pt" height="38pt"
 viewBox="0.00 0.00 700.00 38.00" xmlns="http://www.w3.org/2000/svg" xmlns:xlink="http://www.w3.org/1999/xlink">
<g id="graph0" class="graph" transform="scale(1 1) rotate(0) translate(4 34)">
<title>FLevelFeature::EnsureDefaultSelection</title>
<!-- Node1 -->
<g id="Node000001" class="node">
<title>Node1</title>
<g id="a_Node000001"><a xlink:title="시작 이후에도 유효한 기본 맵 선택이 존재하도록 보장합니다.">
<polygon fill="#999999" stroke="#666666" points="161,-30 0,-30 0,0 161,0 161,-30"/>
<text text-anchor="start" x="8" y="-18" font-family="Malgun Gothic" font-size="10.00">FLevelFeature::EnsureDefault</text>
<text text-anchor="middle" x="80.5" y="-7" font-family="Malgun Gothic" font-size="10.00">Selection</text>
</a>
</g>
</g>
<!-- Node2 -->
<g id="Node000002" class="node">
<title>Node2</title>
<g id="a_Node000002"><a xlink:href="classFLevelFeature.html#aebe19d9a49173da8ced901d2f0b676cb" target="_top" xlink:title="설정된 검색 경로에서 발견 가능한 맵 에셋을 모두 수집합니다.">
<polygon fill="white" stroke="#666666" points="355,-24.5 197,-24.5 197,-5.5 355,-5.5 355,-24.5"/>
<text text-anchor="middle" x="276" y="-12.5" font-family="Malgun Gothic" font-size="10.00">FLevelFeature::CollectWorlds</text>
</a>
</g>
</g>
<!-- Node1&#45;&gt;Node2 -->
<g id="edge1_Node000001_Node000002" class="edge">
<title>Node1&#45;&gt;Node2</title>
<g id="a_edge1_Node000001_Node000002"><a xlink:title=" ">
<path fill="none" stroke="#63b8ff" d="M161.04,-15C169.42,-15 177.97,-15 186.43,-15"/>
<polygon fill="#63b8ff" stroke="#63b8ff" points="186.7,-18.5 196.7,-15 186.7,-11.5 186.7,-18.5"/>
</a>
</g>
</g>
<!-- Node3 -->
<g id="Node000003" class="node">
<title>Node3</title>
<g id="a_Node000003"><a xlink:href="classUToolbarSettings.html#a839017a8f47a62d4127ad8527d2498ed" target="_top" xlink:title="레벨 선택 헬퍼가 사용할 검색 루트 경로를 수집합니다.">
<polygon fill="white" stroke="#666666" points="546,-30 391,-30 391,0 546,0 546,-30"/>
<text text-anchor="start" x="399" y="-18" font-family="Malgun Gothic" font-size="10.00">UToolbarSettings::GetSearch</text>
<text text-anchor="middle" x="468.5" y="-7" font-family="Malgun Gothic" font-size="10.00">Roots</text>
</a>
</g>
</g>
<!-- Node2&#45;&gt;Node3 -->
<g id="edge2_Node000002_Node000003" class="edge">
<title>Node2&#45;&gt;Node3</title>
<g id="a_edge2_Node000002_Node000003"><a xlink:title=" ">
<path fill="none" stroke="#63b8ff" d="M355.03,-15C363.53,-15 372.21,-15 380.8,-15"/>
<polygon fill="#63b8ff" stroke="#63b8ff" points="380.82,-18.5 390.82,-15 380.82,-11.5 380.82,-18.5"/>
</a>
</g>
</g>
<!-- Node4 -->
<g id="Node000004" class="node">
<title>Node4</title>
<g id="a_Node000004"><a xlink:href="UToolbarSettings_8cpp.html#a93020a74b1d3099ceb4abe28cf3188d2" target="_top" xlink:title=" ">
<polygon fill="white" stroke="#666666" points="692,-24.5 582,-24.5 582,-5.5 692,-5.5 692,-24.5"/>
<text text-anchor="middle" x="637" y="-12.5" font-family="Malgun Gothic" font-size="10.00">NormalizeUserPath</text>
</a>
</g>
</g>
<!-- Node3&#45;&gt;Node4 -->
<g id="edge3_Node000003_Node000004" class="edge">
<title>Node3&#45;&gt;Node4</title>
<g id="a_edge3_Node000003_Node000004"><a xlink:title=" ">
<path fill="none" stroke="#63b8ff" d="M546.41,-15C554.8,-15 563.28,-15 571.49,-15"/>
<polygon fill="#63b8ff" stroke="#63b8ff" points="571.74,-18.5 581.74,-15 571.74,-11.5 571.74,-18.5"/>
</a>
</g>
</g>
</g>
</svg>
