<?xml version="1.0" encoding="UTF-8" standalone="no"?>
<!DOCTYPE svg PUBLIC "-//W3C//DTD SVG 1.1//EN"
 "http://www.w3.org/Graphics/SVG/1.1/DTD/svg11.dtd">
<!-- Generated by graphviz version 2.43.0 (0)
 -->
<!-- Title: BuildFullUrl Pages: 1 -->
<svg width="770pt" height="76pt"
 viewBox="0.00 0.00 770.00 75.50" xmlns="http://www.w3.org/2000/svg" xmlns:xlink="http://www.w3.org/1999/xlink">
<g id="graph0" class="graph" transform="scale(1 1) rotate(0) translate(4 71.5)">
<title>BuildFullUrl</title>
<!-- Node1 -->
<g id="Node000001" class="node">
<title>Node1</title>
<g id="a_Node000001"><a xlink:title=" ">
<polygon fill="#999999" stroke="#666666" points="762,-40 689,-40 689,-21 762,-21 762,-40"/>
<text text-anchor="middle" x="725.5" y="-28" font-family="Malgun Gothic" font-size="10.00">BuildFullUrl</text>
</a>
</g>
</g>
<!-- Node2 -->
<g id="Node000002" class="node">
<title>Node2</title>
<g id="a_Node000002"><a xlink:href="classFNetworkTestFeature.html#aaa8c7bcd54f9d2536389e8bc301392e2" target="_top" xlink:title="API 요청을 실행합니다.">
<polygon fill="white" stroke="#666666" points="653,-67.5 533,-67.5 533,-37.5 653,-37.5 653,-67.5"/>
<text text-anchor="start" x="541" y="-55.5" font-family="Malgun Gothic" font-size="10.00">FNetworkTestFeature</text>
<text text-anchor="middle" x="593" y="-44.5" font-family="Malgun Gothic" font-size="10.00">::ExecuteApiRequest</text>
</a>
</g>
</g>
<!-- Node1&#45;&gt;Node2 -->
<g id="edge1_Node000001_Node000002" class="edge">
<title>Node1&#45;&gt;Node2</title>
<g id="a_edge1_Node000001_Node000002"><a xlink:title=" ">
<path fill="none" stroke="#63b8ff" d="M678.97,-38.18C670.65,-39.58 661.86,-41.06 653.21,-42.52"/>
<polygon fill="#63b8ff" stroke="#63b8ff" points="679.56,-41.63 688.84,-36.51 678.4,-34.72 679.56,-41.63"/>
</a>
</g>
</g>
<!-- Node6 -->
<g id="Node000006" class="node">
<title>Node6</title>
<g id="a_Node000006"><a xlink:href="ConsoleCurlCommand_8cpp.html#ab29f333204f47eb2e2d118066c613ecd" target="_top" xlink:title=" ">
<polygon fill="white" stroke="#666666" points="640,-19 546,-19 546,0 640,0 640,-19"/>
<text text-anchor="middle" x="593" y="-7" font-family="Malgun Gothic" font-size="10.00">GCurlCommand</text>
</a>
</g>
</g>
<!-- Node1&#45;&gt;Node6 -->
<g id="edge5_Node000001_Node000006" class="edge">
<title>Node1&#45;&gt;Node6</title>
<g id="a_edge5_Node000001_Node000006"><a xlink:title=" ">
<path fill="none" stroke="#63b8ff" d="M678.7,-23.13C666.29,-21.13 652.84,-18.97 640.4,-16.97"/>
<polygon fill="#63b8ff" stroke="#63b8ff" points="678.41,-26.63 688.84,-24.76 679.52,-19.72 678.41,-26.63"/>
</a>
</g>
</g>
<!-- Node3 -->
<g id="Node000003" class="node">
<title>Node3</title>
<g id="a_Node000003"><a xlink:href="classFNetworkTestFeature.html#ab9441c5c29d671c35b50948d5c09e2ec" target="_top" xlink:title="네트워크 테스트 메뉴를 생성합니다.">
<polygon fill="white" stroke="#666666" points="497,-67.5 342,-67.5 342,-37.5 497,-37.5 497,-67.5"/>
<text text-anchor="start" x="350" y="-55.5" font-family="Malgun Gothic" font-size="10.00">FNetworkTestFeature</text>
<text text-anchor="middle" x="419.5" y="-44.5" font-family="Malgun Gothic" font-size="10.00">::GenerateNetworkTestMenu</text>
</a>
</g>
</g>
<!-- Node2&#45;&gt;Node3 -->
<g id="edge2_Node000002_Node000003" class="edge">
<title>Node2&#45;&gt;Node3</title>
<g id="a_edge2_Node000002_Node000003"><a xlink:title=" ">
<path fill="none" stroke="#63b8ff" d="M522.82,-52.5C514.39,-52.5 505.73,-52.5 497.2,-52.5"/>
<polygon fill="#63b8ff" stroke="#63b8ff" points="522.98,-56 532.98,-52.5 522.98,-49 522.98,-56"/>
</a>
</g>
</g>
<!-- Node4 -->
<g id="Node000004" class="node">
<title>Node4</title>
<g id="a_Node000004"><a xlink:href="classFToolbar.html#a2df7b59ad21cce1d2f0437add0d4c6a7" target="_top" xlink:title="에디터 확장 프레임워크에 툴바 메뉴와 버튼을 등록합니다.">
<polygon fill="white" stroke="#666666" points="306,-62 170,-62 170,-43 306,-43 306,-62"/>
<text text-anchor="middle" x="238" y="-50" font-family="Malgun Gothic" font-size="10.00">FToolbar::RegisterMenus</text>
</a>
</g>
</g>
<!-- Node3&#45;&gt;Node4 -->
<g id="edge3_Node000003_Node000004" class="edge">
<title>Node3&#45;&gt;Node4</title>
<g id="a_edge3_Node000003_Node000004"><a xlink:title=" ">
<path fill="none" stroke="#63b8ff" d="M331.75,-52.5C323.11,-52.5 314.43,-52.5 306.04,-52.5"/>
<polygon fill="#63b8ff" stroke="#63b8ff" points="331.86,-56 341.86,-52.5 331.86,-49 331.86,-56"/>
</a>
</g>
</g>
<!-- Node5 -->
<g id="Node000005" class="node">
<title>Node5</title>
<g id="a_Node000005"><a xlink:href="classFToolbar.html#a29b321398a59346e3df4870366f89245" target="_top" xlink:title="툴바 기능을 초기화하고 Slate 메뉴 확장을 등록합니다.">
<polygon fill="white" stroke="#666666" points="134,-62 0,-62 0,-43 134,-43 134,-62"/>
<text text-anchor="middle" x="67" y="-50" font-family="Malgun Gothic" font-size="10.00">FToolbar::StartupModule</text>
</a>
</g>
</g>
<!-- Node4&#45;&gt;Node5 -->
<g id="edge4_Node000004_Node000005" class="edge">
<title>Node4&#45;&gt;Node5</title>
<g id="a_edge4_Node000004_Node000005"><a xlink:title=" ">
<path fill="none" stroke="#63b8ff" d="M159.49,-52.5C151.05,-52.5 142.51,-52.5 134.22,-52.5"/>
<polygon fill="#63b8ff" stroke="#63b8ff" points="159.72,-56 169.72,-52.5 159.72,-49 159.72,-56"/>
</a>
</g>
</g>
</g>
</svg>
