<?xml version="1.0" encoding="UTF-8" standalone="no"?>
<!DOCTYPE svg PUBLIC "-//W3C//DTD SVG 1.1//EN"
 "http://www.w3.org/Graphics/SVG/1.1/DTD/svg11.dtd">
<!-- Generated by graphviz version 2.43.0 (0)
 -->
<!-- Title: Source/CoffeeToolbar/Private/NetworkTest/ConsoleCurlCommand.cpp Pages: 1 -->
<svg width="2039pt" height="214pt"
 viewBox="0.00 0.00 2039.00 214.00" xmlns="http://www.w3.org/2000/svg" xmlns:xlink="http://www.w3.org/1999/xlink">
<g id="graph0" class="graph" transform="scale(1 1) rotate(0) translate(4 210)">
<title>Source/CoffeeToolbar/Private/NetworkTest/ConsoleCurlCommand.cpp</title>
<!-- Node1 -->
<g id="Node000001" class="node">
<title>Node1</title>
<g id="a_Node000001"><a xlink:title=" ">
<polygon fill="#999999" stroke="#666666" points="1281,-206 1132,-206 1132,-165 1281,-165 1281,-206"/>
<text text-anchor="start" x="1140" y="-194" font-family="Malgun Gothic" font-size="10.00">Source/CoffeeToolbar</text>
<text text-anchor="start" x="1140" y="-183" font-family="Malgun Gothic" font-size="10.00">/Private/NetworkTest</text>
<text text-anchor="middle" x="1206.5" y="-172" font-family="Malgun Gothic" font-size="10.00">/ConsoleCurlCommand.cpp</text>
</a>
</g>
</g>
<!-- Node2 -->
<g id="Node000002" class="node">
<title>Node2</title>
<g id="a_Node000002"><a xlink:title=" ">
<polygon fill="#e0e0e0" stroke="#999999" points="435.5,-19 347.5,-19 347.5,0 435.5,0 435.5,-19"/>
<text text-anchor="middle" x="391.5" y="-7" font-family="Malgun Gothic" font-size="10.00">CoreMinimal.h</text>
</a>
</g>
</g>
<!-- Node1&#45;&gt;Node2 -->
<g id="edge1_Node000001_Node000002" class="edge">
<title>Node1&#45;&gt;Node2</title>
<g id="a_edge1_Node000001_Node000002"><a xlink:title=" ">
<path fill="none" stroke="#63b8ff" d="M1131.71,-177.42C1058.44,-169.19 953.16,-153.52 920.5,-129 890.93,-106.8 913.24,-75.55 882.5,-55 803.76,-2.37 557.02,-29 445.73,-18.91"/>
<polygon fill="#63b8ff" stroke="#63b8ff" points="446.02,-15.42 435.71,-17.85 445.29,-22.38 446.02,-15.42"/>
</a>
</g>
</g>
<!-- Node3 -->
<g id="Node000003" class="node">
<title>Node3</title>
<g id="a_Node000003"><a xlink:title=" ">
<polygon fill="#e0e0e0" stroke="#999999" points="1051.5,-129 929.5,-129 929.5,-110 1051.5,-110 1051.5,-129"/>
<text text-anchor="middle" x="990.5" y="-117" font-family="Malgun Gothic" font-size="10.00">Misc/CommandLine.h</text>
</a>
</g>
</g>
<!-- Node1&#45;&gt;Node3 -->
<g id="edge2_Node000001_Node000003" class="edge">
<title>Node1&#45;&gt;Node3</title>
<g id="a_edge2_Node000001_Node000003"><a xlink:title=" ">
<path fill="none" stroke="#63b8ff" d="M1140.52,-164.95C1104.07,-154.15 1060.06,-141.11 1029.16,-131.95"/>
<polygon fill="#63b8ff" stroke="#63b8ff" points="1029.8,-128.49 1019.21,-129.01 1027.81,-135.2 1029.8,-128.49"/>
</a>
</g>
</g>
<!-- Node4 -->
<g id="Node000004" class="node">
<title>Node4</title>
<g id="a_Node000004"><a xlink:title=" ">
<polygon fill="#e0e0e0" stroke="#999999" points="1147,-129 1070,-129 1070,-110 1147,-110 1147,-129"/>
<text text-anchor="middle" x="1108.5" y="-117" font-family="Malgun Gothic" font-size="10.00">Misc/Paths.h</text>
</a>
</g>
</g>
<!-- Node1&#45;&gt;Node4 -->
<g id="edge3_Node000001_Node000004" class="edge">
<title>Node1&#45;&gt;Node4</title>
<g id="a_edge3_Node000001_Node000004"><a xlink:title=" ">
<path fill="none" stroke="#63b8ff" d="M1176.56,-164.95C1161.65,-155.21 1143.96,-143.65 1130.34,-134.76"/>
<polygon fill="#63b8ff" stroke="#63b8ff" points="1131.94,-131.63 1121.66,-129.09 1128.12,-137.49 1131.94,-131.63"/>
</a>
</g>
</g>
<!-- Node5 -->
<g id="Node000005" class="node">
<title>Node5</title>
<g id="a_Node000005"><a xlink:title=" ">
<polygon fill="#e0e0e0" stroke="#999999" points="1248,-129 1165,-129 1165,-110 1248,-110 1248,-129"/>
<text text-anchor="middle" x="1206.5" y="-117" font-family="Malgun Gothic" font-size="10.00">HttpModule.h</text>
</a>
</g>
</g>
<!-- Node1&#45;&gt;Node5 -->
<g id="edge4_Node000001_Node000005" class="edge">
<title>Node1&#45;&gt;Node5</title>
<g id="a_edge4_Node000001_Node000005"><a xlink:title=" ">
<path fill="none" stroke="#63b8ff" d="M1206.5,-164.95C1206.5,-156.85 1206.5,-147.5 1206.5,-139.47"/>
<polygon fill="#63b8ff" stroke="#63b8ff" points="1210,-139.26 1206.5,-129.26 1203,-139.26 1210,-139.26"/>
</a>
</g>
</g>
<!-- Node6 -->
<g id="Node000006" class="node">
<title>Node6</title>
<g id="a_Node000006"><a xlink:title=" ">
<polygon fill="#e0e0e0" stroke="#999999" points="1407,-129 1266,-129 1266,-110 1407,-110 1407,-129"/>
<text text-anchor="middle" x="1336.5" y="-117" font-family="Malgun Gothic" font-size="10.00">Interfaces/IHttpRequest.h</text>
</a>
</g>
</g>
<!-- Node1&#45;&gt;Node6 -->
<g id="edge5_Node000001_Node000006" class="edge">
<title>Node1&#45;&gt;Node6</title>
<g id="a_edge5_Node000001_Node000006"><a xlink:title=" ">
<path fill="none" stroke="#63b8ff" d="M1246.21,-164.95C1266.84,-154.79 1291.51,-142.65 1309.84,-133.63"/>
<polygon fill="#63b8ff" stroke="#63b8ff" points="1311.62,-136.65 1319.05,-129.09 1308.53,-130.37 1311.62,-136.65"/>
</a>
</g>
</g>
<!-- Node7 -->
<g id="Node000007" class="node">
<title>Node7</title>
<g id="a_Node000007"><a xlink:title=" ">
<polygon fill="#e0e0e0" stroke="#999999" points="1574,-129 1425,-129 1425,-110 1574,-110 1574,-129"/>
<text text-anchor="middle" x="1499.5" y="-117" font-family="Malgun Gothic" font-size="10.00">Interfaces/IHttpResponse.h</text>
</a>
</g>
</g>
<!-- Node1&#45;&gt;Node7 -->
<g id="edge6_Node000001_Node000007" class="edge">
<title>Node1&#45;&gt;Node7</title>
<g id="a_edge6_Node000001_Node000007"><a xlink:title=" ">
<path fill="none" stroke="#63b8ff" d="M1281.19,-168.18C1334.43,-156.56 1404.46,-141.26 1450.68,-131.16"/>
<polygon fill="#63b8ff" stroke="#63b8ff" points="1451.43,-134.58 1460.45,-129.03 1449.93,-127.74 1451.43,-134.58"/>
</a>
</g>
</g>
<!-- Node8 -->
<g id="Node000008" class="node">
<title>Node8</title>
<g id="a_Node000008"><a xlink:title=" ">
<polygon fill="#e0e0e0" stroke="#999999" points="1696.5,-129 1592.5,-129 1592.5,-110 1696.5,-110 1696.5,-129"/>
<text text-anchor="middle" x="1644.5" y="-117" font-family="Malgun Gothic" font-size="10.00">Dom/JsonObject.h</text>
</a>
</g>
</g>
<!-- Node1&#45;&gt;Node8 -->
<g id="edge7_Node000001_Node000008" class="edge">
<title>Node1&#45;&gt;Node8</title>
<g id="a_edge7_Node000001_Node000008"><a xlink:title=" ">
<path fill="none" stroke="#63b8ff" d="M1281.3,-173.57C1366.06,-161.19 1502.71,-141.22 1582.01,-129.63"/>
<polygon fill="#63b8ff" stroke="#63b8ff" points="1582.95,-133.03 1592.34,-128.12 1581.94,-126.1 1582.95,-133.03"/>
</a>
</g>
</g>
<!-- Node9 -->
<g id="Node000009" class="node">
<title>Node9</title>
<g id="a_Node000009"><a xlink:title=" ">
<polygon fill="#e0e0e0" stroke="#999999" points="1858,-129 1715,-129 1715,-110 1858,-110 1858,-129"/>
<text text-anchor="middle" x="1786.5" y="-117" font-family="Malgun Gothic" font-size="10.00">Serialization/JsonReader.h</text>
</a>
</g>
</g>
<!-- Node1&#45;&gt;Node9 -->
<g id="edge8_Node000001_Node000009" class="edge">
<title>Node1&#45;&gt;Node9</title>
<g id="a_edge8_Node000001_Node000009"><a xlink:title=" ">
<path fill="none" stroke="#63b8ff" d="M1281.14,-176.26C1390.13,-164.24 1592.11,-141.95 1704.91,-129.5"/>
<polygon fill="#63b8ff" stroke="#63b8ff" points="1705.32,-132.98 1714.88,-128.4 1704.55,-126.02 1705.32,-132.98"/>
</a>
</g>
</g>
<!-- Node10 -->
<g id="Node000010" class="node">
<title>Node10</title>
<g id="a_Node000010"><a xlink:title=" ">
<polygon fill="#e0e0e0" stroke="#999999" points="2031,-129 1876,-129 1876,-110 2031,-110 2031,-129"/>
<text text-anchor="middle" x="1953.5" y="-117" font-family="Malgun Gothic" font-size="10.00">Serialization/JsonSerializer.h</text>
</a>
</g>
</g>
<!-- Node1&#45;&gt;Node10 -->
<g id="edge9_Node000001_Node000010" class="edge">
<title>Node1&#45;&gt;Node10</title>
<g id="a_edge9_Node000001_Node000010"><a xlink:title=" ">
<path fill="none" stroke="#63b8ff" d="M1281.37,-178.58C1402.09,-168.94 1647.48,-149.03 1865.65,-129.16"/>
<polygon fill="#63b8ff" stroke="#63b8ff" points="1866.05,-132.64 1875.69,-128.24 1865.41,-125.67 1866.05,-132.64"/>
</a>
</g>
</g>
<!-- Node11 -->
<g id="Node000011" class="node">
<title>Node11</title>
<g id="a_Node000011"><a xlink:href="FApiSendInfo_8h.html" target="_top" xlink:title="HTTP API 요청 정보를 정의합니다.">
<polygon fill="white" stroke="#666666" points="197.5,-74 45.5,-74 45.5,-55 197.5,-55 197.5,-74"/>
<text text-anchor="middle" x="121.5" y="-62" font-family="Malgun Gothic" font-size="10.00">NetworkTest/FApiSendInfo.h</text>
</a>
</g>
</g>
<!-- Node1&#45;&gt;Node11 -->
<g id="edge10_Node000001_Node000011" class="edge">
<title>Node1&#45;&gt;Node11</title>
<g id="a_edge10_Node000001_Node000011"><a xlink:title=" ">
<path fill="none" stroke="#63b8ff" d="M1131.99,-184.09C985.42,-182.28 649.68,-173.2 371.5,-129 294.5,-116.77 206.59,-91.8 158.24,-77.08"/>
<polygon fill="#63b8ff" stroke="#63b8ff" points="159.12,-73.69 148.54,-74.1 157.07,-80.38 159.12,-73.69"/>
</a>
</g>
</g>
<!-- Node13 -->
<g id="Node000013" class="node">
<title>Node13</title>
<g id="a_Node000013"><a xlink:href="UToolbarSettings_8h.html" target="_top" xlink:title="Coffee Toolbar 플러그인을 구성하기 위한 개발자 설정을 선언합니다.">
<polygon fill="white" stroke="#666666" points="532,-129 381,-129 381,-110 532,-110 532,-129"/>
<text text-anchor="middle" x="456.5" y="-117" font-family="Malgun Gothic" font-size="10.00">Settings/UToolbarSettings.h</text>
</a>
</g>
</g>
<!-- Node1&#45;&gt;Node13 -->
<g id="edge13_Node000001_Node000013" class="edge">
<title>Node1&#45;&gt;Node13</title>
<g id="a_edge13_Node000001_Node000013"><a xlink:title=" ">
<path fill="none" stroke="#63b8ff" d="M1131.85,-178.13C991.91,-166.19 690.93,-140.5 542.65,-127.85"/>
<polygon fill="#63b8ff" stroke="#63b8ff" points="542.51,-124.33 532.25,-126.96 541.91,-131.3 542.51,-124.33"/>
</a>
</g>
</g>
<!-- Node11&#45;&gt;Node2 -->
<g id="edge11_Node000011_Node000002" class="edge">
<title>Node11&#45;&gt;Node2</title>
<g id="a_edge11_Node000011_Node000002"><a xlink:title=" ">
<path fill="none" stroke="#63b8ff" d="M164.88,-54.98C211.88,-45.76 286.93,-31.03 337.66,-21.07"/>
<polygon fill="#63b8ff" stroke="#63b8ff" points="338.64,-24.44 347.78,-19.08 337.29,-17.57 338.64,-24.44"/>
</a>
</g>
</g>
<!-- Node12 -->
<g id="Node000012" class="node">
<title>Node12</title>
<g id="a_Node000012"><a xlink:title=" ">
<polygon fill="#e0e0e0" stroke="#999999" points="141,-19 0,-19 0,0 141,0 141,-19"/>
<text text-anchor="middle" x="70.5" y="-7" font-family="Malgun Gothic" font-size="10.00">FApiSendInfo.generated.h</text>
</a>
</g>
</g>
<!-- Node11&#45;&gt;Node12 -->
<g id="edge12_Node000011_Node000012" class="edge">
<title>Node11&#45;&gt;Node12</title>
<g id="a_edge12_Node000011_Node000012"><a xlink:title=" ">
<path fill="none" stroke="#63b8ff" d="M113.08,-54.75C105.73,-47.11 94.87,-35.82 85.96,-26.56"/>
<polygon fill="#63b8ff" stroke="#63b8ff" points="88.22,-23.87 78.76,-19.09 83.18,-28.72 88.22,-23.87"/>
</a>
</g>
</g>
<!-- Node13&#45;&gt;Node2 -->
<g id="edge14_Node000013_Node000002" class="edge">
<title>Node13&#45;&gt;Node2</title>
<g id="a_edge14_Node000013_Node000002"><a xlink:title=" ">
<path fill="none" stroke="#63b8ff" d="M428.11,-109.92C411.04,-103.13 390.69,-91.77 380.5,-74 372.52,-60.08 376.93,-41.82 382.36,-28.46"/>
<polygon fill="#63b8ff" stroke="#63b8ff" points="385.55,-29.9 386.52,-19.35 379.18,-26.99 385.55,-29.9"/>
</a>
</g>
</g>
<!-- Node13&#45;&gt;Node11 -->
<g id="edge22_Node000013_Node000011" class="edge">
<title>Node13&#45;&gt;Node11</title>
<g id="a_edge22_Node000013_Node000011"><a xlink:title=" ">
<path fill="none" stroke="#63b8ff" d="M402.68,-109.98C343.55,-100.63 248.63,-85.61 185.67,-75.65"/>
<polygon fill="#63b8ff" stroke="#63b8ff" points="185.89,-72.14 175.47,-74.04 184.8,-79.06 185.89,-72.14"/>
</a>
</g>
</g>
<!-- Node14 -->
<g id="Node000014" class="node">
<title>Node14</title>
<g id="a_Node000014"><a xlink:href="FToolbarButtonInfo_8h.html" target="_top" xlink:title="커스터마이즈 가능한 Coffee Toolbar 버튼 정보를 선언합니다.">
<polygon fill="white" stroke="#666666" points="333,-74 216,-74 216,-55 333,-55 333,-74"/>
<text text-anchor="middle" x="274.5" y="-62" font-family="Malgun Gothic" font-size="10.00">FToolbarButtonInfo.h</text>
</a>
</g>
</g>
<!-- Node13&#45;&gt;Node14 -->
<g id="edge15_Node000013_Node000014" class="edge">
<title>Node13&#45;&gt;Node14</title>
<g id="a_edge15_Node000013_Node000014"><a xlink:title=" ">
<path fill="none" stroke="#63b8ff" d="M427.26,-109.98C396.44,-101.01 347.72,-86.82 313.61,-76.89"/>
<polygon fill="#63b8ff" stroke="#63b8ff" points="314.55,-73.52 303.97,-74.08 312.59,-80.24 314.55,-73.52"/>
</a>
</g>
</g>
<!-- Node16 -->
<g id="Node000016" class="node">
<title>Node16</title>
<g id="a_Node000016"><a xlink:title=" ">
<polygon fill="#e0e0e0" stroke="#999999" points="693.5,-74 541.5,-74 541.5,-55 693.5,-55 693.5,-74"/>
<text text-anchor="middle" x="617.5" y="-62" font-family="Malgun Gothic" font-size="10.00">Engine/DeveloperSettings.h</text>
</a>
</g>
</g>
<!-- Node13&#45;&gt;Node16 -->
<g id="edge18_Node000013_Node000016" class="edge">
<title>Node13&#45;&gt;Node16</title>
<g id="a_edge18_Node000013_Node000016"><a xlink:title=" ">
<path fill="none" stroke="#63b8ff" d="M482.37,-109.98C509.28,-101.13 551.62,-87.19 581.73,-77.28"/>
<polygon fill="#63b8ff" stroke="#63b8ff" points="583.03,-80.53 591.43,-74.08 580.84,-73.88 583.03,-80.53"/>
</a>
</g>
</g>
<!-- Node17 -->
<g id="Node000017" class="node">
<title>Node17</title>
<g id="a_Node000017"><a xlink:href="FFolderPathInfo_8h.html" target="_top" xlink:title=" ">
<polygon fill="white" stroke="#666666" points="523.5,-74 389.5,-74 389.5,-55 523.5,-55 523.5,-74"/>
<text text-anchor="middle" x="456.5" y="-62" font-family="Malgun Gothic" font-size="10.00">Folder/FFolderPathInfo.h</text>
</a>
</g>
</g>
<!-- Node13&#45;&gt;Node17 -->
<g id="edge19_Node000013_Node000017" class="edge">
<title>Node13&#45;&gt;Node17</title>
<g id="a_edge19_Node000013_Node000017"><a xlink:title=" ">
<path fill="none" stroke="#63b8ff" d="M456.5,-109.75C456.5,-102.8 456.5,-92.85 456.5,-84.13"/>
<polygon fill="#63b8ff" stroke="#63b8ff" points="460,-84.09 456.5,-74.09 453,-84.09 460,-84.09"/>
</a>
</g>
</g>
<!-- Node19 -->
<g id="Node000019" class="node">
<title>Node19</title>
<g id="a_Node000019"><a xlink:title=" ">
<polygon fill="#e0e0e0" stroke="#999999" points="873,-74 712,-74 712,-55 873,-55 873,-74"/>
<text text-anchor="middle" x="792.5" y="-62" font-family="Malgun Gothic" font-size="10.00">UToolbarSettings.generated.h</text>
</a>
</g>
</g>
<!-- Node13&#45;&gt;Node19 -->
<g id="edge23_Node000013_Node000019" class="edge">
<title>Node13&#45;&gt;Node19</title>
<g id="a_edge23_Node000013_Node000019"><a xlink:title=" ">
<path fill="none" stroke="#63b8ff" d="M510.48,-109.98C569.79,-100.63 664.99,-85.61 728.14,-75.65"/>
<polygon fill="#63b8ff" stroke="#63b8ff" points="729.04,-79.05 738.37,-74.04 727.95,-72.14 729.04,-79.05"/>
</a>
</g>
</g>
<!-- Node14&#45;&gt;Node2 -->
<g id="edge16_Node000014_Node000002" class="edge">
<title>Node14&#45;&gt;Node2</title>
<g id="a_edge16_Node000014_Node000002"><a xlink:title=" ">
<path fill="none" stroke="#63b8ff" d="M293.3,-54.98C312.12,-46.46 341.32,-33.23 363,-23.41"/>
<polygon fill="#63b8ff" stroke="#63b8ff" points="364.7,-26.48 372.36,-19.17 361.81,-20.11 364.7,-26.48"/>
</a>
</g>
</g>
<!-- Node15 -->
<g id="Node000015" class="node">
<title>Node15</title>
<g id="a_Node000015"><a xlink:title=" ">
<polygon fill="#e0e0e0" stroke="#999999" points="329.5,-19 159.5,-19 159.5,0 329.5,0 329.5,-19"/>
<text text-anchor="middle" x="244.5" y="-7" font-family="Malgun Gothic" font-size="10.00">FToolbarButtonInfo.generated.h</text>
</a>
</g>
</g>
<!-- Node14&#45;&gt;Node15 -->
<g id="edge17_Node000014_Node000015" class="edge">
<title>Node14&#45;&gt;Node15</title>
<g id="a_edge17_Node000014_Node000015"><a xlink:title=" ">
<path fill="none" stroke="#63b8ff" d="M269.55,-54.75C265.44,-47.49 259.47,-36.95 254.4,-27.98"/>
<polygon fill="#63b8ff" stroke="#63b8ff" points="257.33,-26.07 249.36,-19.09 251.24,-29.52 257.33,-26.07"/>
</a>
</g>
</g>
<!-- Node17&#45;&gt;Node2 -->
<g id="edge20_Node000017_Node000002" class="edge">
<title>Node17&#45;&gt;Node2</title>
<g id="a_edge20_Node000017_Node000002"><a xlink:title=" ">
<path fill="none" stroke="#63b8ff" d="M446.06,-54.98C436.35,-47.07 421.68,-35.11 410,-25.58"/>
<polygon fill="#63b8ff" stroke="#63b8ff" points="412.1,-22.78 402.13,-19.17 407.67,-28.2 412.1,-22.78"/>
</a>
</g>
</g>
<!-- Node18 -->
<g id="Node000018" class="node">
<title>Node18</title>
<g id="a_Node000018"><a xlink:title=" ">
<polygon fill="#e0e0e0" stroke="#999999" points="607.5,-19 453.5,-19 453.5,0 607.5,0 607.5,-19"/>
<text text-anchor="middle" x="530.5" y="-7" font-family="Malgun Gothic" font-size="10.00">FFolderPathInfo.generated.h</text>
</a>
</g>
</g>
<!-- Node17&#45;&gt;Node18 -->
<g id="edge21_Node000017_Node000018" class="edge">
<title>Node17&#45;&gt;Node18</title>
<g id="a_edge21_Node000017_Node000018"><a xlink:title=" ">
<path fill="none" stroke="#63b8ff" d="M468.39,-54.98C479.65,-46.92 496.79,-34.65 510.21,-25.03"/>
<polygon fill="#63b8ff" stroke="#63b8ff" points="512.3,-27.84 518.39,-19.17 508.23,-22.15 512.3,-27.84"/>
</a>
</g>
</g>
</g>
</svg>
