<?xml version="1.0" encoding="UTF-8" standalone="no"?>
<!DOCTYPE svg PUBLIC "-//W3C//DTD SVG 1.1//EN"
 "http://www.w3.org/Graphics/SVG/1.1/DTD/svg11.dtd">
<!-- Generated by graphviz version 2.43.0 (0)
 -->
<!-- Title: Source/CoffeeToolbar/Private Pages: 1 -->
<svg width="656pt" height="141pt"
 viewBox="0.00 0.00 656.00 141.00" xmlns="http://www.w3.org/2000/svg" xmlns:xlink="http://www.w3.org/1999/xlink">
<g id="graph0" class="graph" transform="scale(1 1) rotate(0) translate(4 137)">
<title>Source/CoffeeToolbar/Private</title>
<g id="clust1" class="cluster">
<title>clusterdir_64d53782dd23c34e270e016cddcba0f2</title>
<g id="a_clust1"><a xlink:href="dir_64d53782dd23c34e270e016cddcba0f2.html" target="_top" xlink:title="CoffeeToolbar">
<polygon fill="#edf0f7" stroke="#7f7f7f" stroke-dasharray="5,2" points="8,-8 8,-125 640,-125 640,-8 8,-8"/>
<text text-anchor="middle" x="324" y="-113" font-family="Malgun Gothic" font-size="10.00">CoffeeToolbar</text>
</a>
</g>
</g>
<g id="clust2" class="cluster">
<title>clusterdir_694584ba17985195ce961d5fae66b6d9</title>
<g id="a_clust2"><a xlink:href="dir_694584ba17985195ce961d5fae66b6d9.html" target="_top">
<polygon fill="#edf0f7" stroke="#404040" stroke-width="2" points="16,-63 16,-98 632,-98 632,-63 16,-63"/>
</a>
</g>
</g>
<!-- dir_a5a63c6c47d2305a2697a56793561ce2 -->
<g id="node1" class="node">
<title>dir_a5a63c6c47d2305a2697a56793561ce2</title>
<g id="a_node1"><a xlink:href="dir_a5a63c6c47d2305a2697a56793561ce2.html" target="_top" xlink:title="Public">
<polygon fill="#a2b4d6" stroke="red" points="358,-35 312,-35 312,-16 358,-16 358,-35"/>
<text text-anchor="middle" x="335" y="-23" font-family="Malgun Gothic" font-size="10.00">Public</text>
</a>
</g>
</g>
<!-- dir_694584ba17985195ce961d5fae66b6d9 -->
<g id="node2" class="node">
<title>dir_694584ba17985195ce961d5fae66b6d9</title>
<text text-anchor="middle" x="598" y="-78" font-family="Malgun Gothic" font-size="10.00">Private</text>
</g>
<!-- dir_694584ba17985195ce961d5fae66b6d9&#45;&gt;dir_a5a63c6c47d2305a2697a56793561ce2 -->
<g id="edge1" class="edge">
<title>dir_694584ba17985195ce961d5fae66b6d9&#45;&gt;dir_a5a63c6c47d2305a2697a56793561ce2</title>
<g id="a_edge1"><a xlink:href="dir_000011_000012.html" target="_top">
<path fill="none" stroke="#63b8ff" d="M582.82,-70.95C577.08,-68.04 570.38,-65.01 564,-63 496.45,-41.74 413.62,-32.46 368.39,-28.74"/>
<polygon fill="#63b8ff" stroke="#63b8ff" points="368.51,-25.24 358.27,-27.95 367.96,-32.22 368.51,-25.24"/>
</a>
</g>
<g id="a_edge1&#45;headlabel"><a xlink:href="dir_000011_000012.html" target="_top" xlink:title="28">
<text text-anchor="middle" x="372.31" y="-20.19" font-family="Malgun Gothic" font-size="10.00" fill="#63b8ff">28</text>
</a>
</g>
</g>
<!-- dir_042ad5add2b4c6596de6b8ac1f9977c7 -->
<g id="node3" class="node">
<title>dir_042ad5add2b4c6596de6b8ac1f9977c7</title>
<g id="a_node3"><a xlink:href="dir_042ad5add2b4c6596de6b8ac1f9977c7.html" target="_top" xlink:title="Command">
<polygon fill="#a2b4d6" stroke="#404040" points="554.5,-90 487.5,-90 487.5,-71 554.5,-71 554.5,-90"/>
<text text-anchor="middle" x="521" y="-78" font-family="Malgun Gothic" font-size="10.00">Command</text>
</a>
</g>
</g>
<!-- dir_042ad5add2b4c6596de6b8ac1f9977c7&#45;&gt;dir_a5a63c6c47d2305a2697a56793561ce2 -->
<g id="edge2" class="edge">
<title>dir_042ad5add2b4c6596de6b8ac1f9977c7&#45;&gt;dir_a5a63c6c47d2305a2697a56793561ce2</title>
<g id="a_edge2"><a xlink:href="dir_000001_000012.html" target="_top">
<path fill="none" stroke="#63b8ff" d="M500.68,-70.92C493.86,-68.2 486.16,-65.3 479,-63 441.61,-50.97 397.74,-40.34 368.34,-33.69"/>
<polygon fill="#63b8ff" stroke="#63b8ff" points="368.72,-30.19 358.2,-31.43 367.2,-37.03 368.72,-30.19"/>
</a>
</g>
<g id="a_edge2&#45;headlabel"><a xlink:href="dir_000001_000012.html" target="_top" xlink:title="3">
<text text-anchor="middle" x="372.85" y="-25.7" font-family="Malgun Gothic" font-size="10.00" fill="#63b8ff">3</text>
</a>
</g>
</g>
<!-- dir_9bcec4335b02e9ec02a042f1a366292d -->
<g id="node4" class="node">
<title>dir_9bcec4335b02e9ec02a042f1a366292d</title>
<g id="a_node4"><a xlink:href="dir_9bcec4335b02e9ec02a042f1a366292d.html" target="_top" xlink:title="Common">
<polygon fill="#a2b4d6" stroke="#404040" points="469.5,-90 408.5,-90 408.5,-71 469.5,-71 469.5,-90"/>
<text text-anchor="middle" x="439" y="-78" font-family="Malgun Gothic" font-size="10.00">Common</text>
</a>
</g>
</g>
<!-- dir_9bcec4335b02e9ec02a042f1a366292d&#45;&gt;dir_a5a63c6c47d2305a2697a56793561ce2 -->
<g id="edge3" class="edge">
<title>dir_9bcec4335b02e9ec02a042f1a366292d&#45;&gt;dir_a5a63c6c47d2305a2697a56793561ce2</title>
<g id="a_edge3"><a xlink:href="dir_000003_000012.html" target="_top">
<path fill="none" stroke="#63b8ff" d="M422.29,-70.98C405.79,-62.57 380.3,-49.59 361.12,-39.81"/>
<polygon fill="#63b8ff" stroke="#63b8ff" points="362.51,-36.59 352.01,-35.17 359.33,-42.83 362.51,-36.59"/>
</a>
</g>
<g id="a_edge3&#45;headlabel"><a xlink:href="dir_000003_000012.html" target="_top" xlink:title="5">
<text text-anchor="middle" x="367" y="-33.19" font-family="Malgun Gothic" font-size="10.00" fill="#63b8ff">5</text>
</a>
</g>
</g>
<!-- dir_21f91c24e64b67164b674a5817e1d07a -->
<g id="node5" class="node">
<title>dir_21f91c24e64b67164b674a5817e1d07a</title>
<g id="a_node5"><a xlink:href="dir_21f91c24e64b67164b674a5817e1d07a.html" target="_top" xlink:title="Folder">
<polygon fill="#a2b4d6" stroke="#404040" points="390.5,-90 343.5,-90 343.5,-71 390.5,-71 390.5,-90"/>
<text text-anchor="middle" x="367" y="-78" font-family="Malgun Gothic" font-size="10.00">Folder</text>
</a>
</g>
</g>
<!-- dir_21f91c24e64b67164b674a5817e1d07a&#45;&gt;dir_a5a63c6c47d2305a2697a56793561ce2 -->
<g id="edge4" class="edge">
<title>dir_21f91c24e64b67164b674a5817e1d07a&#45;&gt;dir_a5a63c6c47d2305a2697a56793561ce2</title>
<g id="a_edge4"><a xlink:href="dir_000005_000012.html" target="_top">
<path fill="none" stroke="#63b8ff" d="M361.72,-70.75C357.29,-63.42 350.84,-52.73 345.38,-43.7"/>
<polygon fill="#63b8ff" stroke="#63b8ff" points="348.35,-41.84 340.19,-35.09 342.36,-45.46 348.35,-41.84"/>
</a>
</g>
<g id="a_edge4&#45;headlabel"><a xlink:href="dir_000005_000012.html" target="_top" xlink:title="2">
<text text-anchor="middle" x="352.64" y="-40.95" font-family="Malgun Gothic" font-size="10.00" fill="#63b8ff">2</text>
</a>
</g>
</g>
<!-- dir_0d8919bacf438e2f4651e48201711277 -->
<g id="node6" class="node">
<title>dir_0d8919bacf438e2f4651e48201711277</title>
<g id="a_node6"><a xlink:href="dir_0d8919bacf438e2f4651e48201711277.html" target="_top" xlink:title="Level">
<polygon fill="#a2b4d6" stroke="#404040" points="325.5,-90 282.5,-90 282.5,-71 325.5,-71 325.5,-90"/>
<text text-anchor="middle" x="304" y="-78" font-family="Malgun Gothic" font-size="10.00">Level</text>
</a>
</g>
</g>
<!-- dir_0d8919bacf438e2f4651e48201711277&#45;&gt;dir_a5a63c6c47d2305a2697a56793561ce2 -->
<g id="edge5" class="edge">
<title>dir_0d8919bacf438e2f4651e48201711277&#45;&gt;dir_a5a63c6c47d2305a2697a56793561ce2</title>
<g id="a_edge5"><a xlink:href="dir_000007_000012.html" target="_top">
<path fill="none" stroke="#63b8ff" d="M309.12,-70.75C313.36,-63.49 319.53,-52.95 324.78,-43.98"/>
<polygon fill="#63b8ff" stroke="#63b8ff" points="327.95,-45.49 329.98,-35.09 321.91,-41.95 327.95,-45.49"/>
</a>
</g>
<g id="a_edge5&#45;headlabel"><a xlink:href="dir_000007_000012.html" target="_top" xlink:title="3">
<text text-anchor="middle" x="328.58" y="-47.52" font-family="Malgun Gothic" font-size="10.00" fill="#63b8ff">3</text>
</a>
</g>
</g>
<!-- dir_5b6d341a6922255b34d4254d5bffef39 -->
<g id="node7" class="node">
<title>dir_5b6d341a6922255b34d4254d5bffef39</title>
<g id="a_node7"><a xlink:href="dir_5b6d341a6922255b34d4254d5bffef39.html" target="_top" xlink:title="NetworkTest">
<polygon fill="#a2b4d6" stroke="#404040" points="264.5,-90 187.5,-90 187.5,-71 264.5,-71 264.5,-90"/>
<text text-anchor="middle" x="226" y="-78" font-family="Malgun Gothic" font-size="10.00">NetworkTest</text>
</a>
</g>
</g>
<!-- dir_5b6d341a6922255b34d4254d5bffef39&#45;&gt;dir_a5a63c6c47d2305a2697a56793561ce2 -->
<g id="edge6" class="edge">
<title>dir_5b6d341a6922255b34d4254d5bffef39&#45;&gt;dir_a5a63c6c47d2305a2697a56793561ce2</title>
<g id="a_edge6"><a xlink:href="dir_000009_000012.html" target="_top">
<path fill="none" stroke="#63b8ff" d="M243.51,-70.98C260.97,-62.5 288.01,-49.35 308.17,-39.54"/>
<polygon fill="#63b8ff" stroke="#63b8ff" points="309.71,-42.69 317.17,-35.17 306.64,-36.4 309.71,-42.69"/>
</a>
</g>
<g id="a_edge6&#45;headlabel"><a xlink:href="dir_000009_000012.html" target="_top" xlink:title="4">
<text text-anchor="middle" x="307.71" y="-44.32" font-family="Malgun Gothic" font-size="10.00" fill="#63b8ff">4</text>
</a>
</g>
</g>
<!-- dir_baf9be0dedefecbc98dbf50df3caf5b5 -->
<g id="node8" class="node">
<title>dir_baf9be0dedefecbc98dbf50df3caf5b5</title>
<g id="a_node8"><a xlink:href="dir_baf9be0dedefecbc98dbf50df3caf5b5.html" target="_top" xlink:title="Screenshot">
<polygon fill="#a2b4d6" stroke="#404040" points="169.5,-90 98.5,-90 98.5,-71 169.5,-71 169.5,-90"/>
<text text-anchor="middle" x="134" y="-78" font-family="Malgun Gothic" font-size="10.00">Screenshot</text>
</a>
</g>
</g>
<!-- dir_baf9be0dedefecbc98dbf50df3caf5b5&#45;&gt;dir_a5a63c6c47d2305a2697a56793561ce2 -->
<g id="edge7" class="edge">
<title>dir_baf9be0dedefecbc98dbf50df3caf5b5&#45;&gt;dir_a5a63c6c47d2305a2697a56793561ce2</title>
<g id="a_edge7"><a xlink:href="dir_000013_000012.html" target="_top">
<path fill="none" stroke="#63b8ff" d="M155.79,-70.9C163.11,-68.18 171.35,-65.29 179,-63 220.78,-50.5 269.89,-39.62 301.69,-33.07"/>
<polygon fill="#63b8ff" stroke="#63b8ff" points="302.67,-36.44 311.77,-31.01 301.28,-29.58 302.67,-36.44"/>
</a>
</g>
<g id="a_edge7&#45;headlabel"><a xlink:href="dir_000013_000012.html" target="_top" xlink:title="2">
<text text-anchor="middle" x="299.72" y="-37.44" font-family="Malgun Gothic" font-size="10.00" fill="#63b8ff">2</text>
</a>
</g>
</g>
<!-- dir_b32a1a6bbbe24ba71e2f22061efaf028 -->
<g id="node9" class="node">
<title>dir_b32a1a6bbbe24ba71e2f22061efaf028</title>
<g id="a_node9"><a xlink:href="dir_b32a1a6bbbe24ba71e2f22061efaf028.html" target="_top" xlink:title="Settings">
<polygon fill="#a2b4d6" stroke="#404040" points="80,-90 24,-90 24,-71 80,-71 80,-90"/>
<text text-anchor="middle" x="52" y="-78" font-family="Malgun Gothic" font-size="10.00">Settings</text>
</a>
</g>
</g>
<!-- dir_b32a1a6bbbe24ba71e2f22061efaf028&#45;&gt;dir_a5a63c6c47d2305a2697a56793561ce2 -->
<g id="edge8" class="edge">
<title>dir_b32a1a6bbbe24ba71e2f22061efaf028&#45;&gt;dir_a5a63c6c47d2305a2697a56793561ce2</title>
<g id="a_edge8"><a xlink:href="dir_000015_000012.html" target="_top">
<path fill="none" stroke="#63b8ff" d="M69.05,-70.96C75.48,-68.05 82.95,-65.02 90,-63 163.99,-41.82 254.27,-32.42 301.9,-28.67"/>
<polygon fill="#63b8ff" stroke="#63b8ff" points="302.24,-32.16 311.95,-27.92 301.71,-25.18 302.24,-32.16"/>
</a>
</g>
<g id="a_edge8&#45;headlabel"><a xlink:href="dir_000015_000012.html" target="_top" xlink:title="2">
<text text-anchor="middle" x="298.86" y="-32.76" font-family="Malgun Gothic" font-size="10.00" fill="#63b8ff">2</text>
</a>
</g>
</g>
</g>
</svg>
