<?xml version="1.0" encoding="UTF-8" standalone="no"?>
<!DOCTYPE svg PUBLIC "-//W3C//DTD SVG 1.1//EN"
 "http://www.w3.org/Graphics/SVG/1.1/DTD/svg11.dtd">
<!-- Generated by graphviz version 2.43.0 (0)
 -->
<!-- Title: Source/CoffeeToolbar/Private Pages: 1 -->
<svg width="496pt" height="141pt"
 viewBox="0.00 0.00 496.00 141.00" xmlns="http://www.w3.org/2000/svg" xmlns:xlink="http://www.w3.org/1999/xlink">
<g id="graph0" class="graph" transform="scale(1 1) rotate(0) translate(4 137)">
<title>Source/CoffeeToolbar/Private</title>
<g id="clust1" class="cluster">
<title>clusterdir_64d53782dd23c34e270e016cddcba0f2</title>
<g id="a_clust1"><a xlink:href="dir_64d53782dd23c34e270e016cddcba0f2.html" target="_top" xlink:title="CoffeeToolbar">
<polygon fill="#edf0f7" stroke="#7f7f7f" stroke-dasharray="5,2" points="8,-8 8,-125 480,-125 480,-8 8,-8"/>
<text text-anchor="middle" x="244" y="-113" font-family="Malgun Gothic" font-size="10.00">CoffeeToolbar</text>
</a>
</g>
</g>
<g id="clust2" class="cluster">
<title>clusterdir_694584ba17985195ce961d5fae66b6d9</title>
<g id="a_clust2"><a xlink:href="dir_694584ba17985195ce961d5fae66b6d9.html" target="_top">
<polygon fill="#edf0f7" stroke="#404040" stroke-width="2" points="16,-63 16,-98 472,-98 472,-63 16,-63"/>
</a>
</g>
</g>
<!-- dir_a5a63c6c47d2305a2697a56793561ce2 -->
<g id="node1" class="node">
<title>dir_a5a63c6c47d2305a2697a56793561ce2</title>
<g id="a_node1"><a xlink:href="dir_a5a63c6c47d2305a2697a56793561ce2.html" target="_top" xlink:title="Public">
<polygon fill="#a2b4d6" stroke="red" points="267,-35 221,-35 221,-16 267,-16 267,-35"/>
<text text-anchor="middle" x="244" y="-23" font-family="Malgun Gothic" font-size="10.00">Public</text>
</a>
</g>
</g>
<!-- dir_694584ba17985195ce961d5fae66b6d9 -->
<g id="node2" class="node">
<title>dir_694584ba17985195ce961d5fae66b6d9</title>
<text text-anchor="middle" x="438" y="-78" font-family="Malgun Gothic" font-size="10.00">Private</text>
</g>
<!-- dir_694584ba17985195ce961d5fae66b6d9&#45;&gt;dir_a5a63c6c47d2305a2697a56793561ce2 -->
<g id="edge1" class="edge">
<title>dir_694584ba17985195ce961d5fae66b6d9&#45;&gt;dir_a5a63c6c47d2305a2697a56793561ce2</title>
<g id="a_edge1"><a xlink:href="dir_000007_000008.html" target="_top">
<path fill="none" stroke="#63b8ff" d="M422.06,-70.84C416.47,-68.05 410.07,-65.13 404,-63 361.31,-47.99 310.01,-37.56 277.21,-31.8"/>
<polygon fill="#63b8ff" stroke="#63b8ff" points="277.7,-28.33 267.25,-30.09 276.52,-35.23 277.7,-28.33"/>
</a>
</g>
<g id="a_edge1&#45;headlabel"><a xlink:href="dir_000007_000008.html" target="_top" xlink:title="22">
<text text-anchor="middle" x="281.72" y="-23.64" font-family="Malgun Gothic" font-size="10.00" fill="#63b8ff">22</text>
</a>
</g>
</g>
<!-- dir_042ad5add2b4c6596de6b8ac1f9977c7 -->
<g id="node3" class="node">
<title>dir_042ad5add2b4c6596de6b8ac1f9977c7</title>
<g id="a_node3"><a xlink:href="dir_042ad5add2b4c6596de6b8ac1f9977c7.html" target="_top" xlink:title="Command">
<polygon fill="#a2b4d6" stroke="#404040" points="394.5,-90 327.5,-90 327.5,-71 394.5,-71 394.5,-90"/>
<text text-anchor="middle" x="361" y="-78" font-family="Malgun Gothic" font-size="10.00">Command</text>
</a>
</g>
</g>
<!-- dir_042ad5add2b4c6596de6b8ac1f9977c7&#45;&gt;dir_a5a63c6c47d2305a2697a56793561ce2 -->
<g id="edge2" class="edge">
<title>dir_042ad5add2b4c6596de6b8ac1f9977c7&#45;&gt;dir_a5a63c6c47d2305a2697a56793561ce2</title>
<g id="a_edge2"><a xlink:href="dir_000001_000008.html" target="_top">
<path fill="none" stroke="#63b8ff" d="M342.2,-70.98C323.38,-62.46 294.18,-49.23 272.5,-39.41"/>
<polygon fill="#63b8ff" stroke="#63b8ff" points="273.69,-36.11 263.14,-35.17 270.8,-42.48 273.69,-36.11"/>
</a>
</g>
<g id="a_edge2&#45;headlabel"><a xlink:href="dir_000001_000008.html" target="_top" xlink:title="3">
<text text-anchor="middle" x="278.14" y="-32.51" font-family="Malgun Gothic" font-size="10.00" fill="#63b8ff">3</text>
</a>
</g>
</g>
<!-- dir_9bcec4335b02e9ec02a042f1a366292d -->
<g id="node4" class="node">
<title>dir_9bcec4335b02e9ec02a042f1a366292d</title>
<g id="a_node4"><a xlink:href="dir_9bcec4335b02e9ec02a042f1a366292d.html" target="_top" xlink:title="Common">
<polygon fill="#a2b4d6" stroke="#404040" points="309.5,-90 248.5,-90 248.5,-71 309.5,-71 309.5,-90"/>
<text text-anchor="middle" x="279" y="-78" font-family="Malgun Gothic" font-size="10.00">Common</text>
</a>
</g>
</g>
<!-- dir_9bcec4335b02e9ec02a042f1a366292d&#45;&gt;dir_a5a63c6c47d2305a2697a56793561ce2 -->
<g id="edge3" class="edge">
<title>dir_9bcec4335b02e9ec02a042f1a366292d&#45;&gt;dir_a5a63c6c47d2305a2697a56793561ce2</title>
<g id="a_edge3"><a xlink:href="dir_000003_000008.html" target="_top">
<path fill="none" stroke="#63b8ff" d="M273.22,-70.75C268.38,-63.42 261.32,-52.73 255.36,-43.7"/>
<polygon fill="#63b8ff" stroke="#63b8ff" points="258.1,-41.5 249.67,-35.09 252.26,-45.36 258.1,-41.5"/>
</a>
</g>
<g id="a_edge3&#45;headlabel"><a xlink:href="dir_000003_000008.html" target="_top" xlink:title="5">
<text text-anchor="middle" x="262.45" y="-40.44" font-family="Malgun Gothic" font-size="10.00" fill="#63b8ff">5</text>
</a>
</g>
</g>
<!-- dir_0d8919bacf438e2f4651e48201711277 -->
<g id="node5" class="node">
<title>dir_0d8919bacf438e2f4651e48201711277</title>
<g id="a_node5"><a xlink:href="dir_0d8919bacf438e2f4651e48201711277.html" target="_top" xlink:title="Level">
<polygon fill="#a2b4d6" stroke="#404040" points="230.5,-90 187.5,-90 187.5,-71 230.5,-71 230.5,-90"/>
<text text-anchor="middle" x="209" y="-78" font-family="Malgun Gothic" font-size="10.00">Level</text>
</a>
</g>
</g>
<!-- dir_0d8919bacf438e2f4651e48201711277&#45;&gt;dir_a5a63c6c47d2305a2697a56793561ce2 -->
<g id="edge4" class="edge">
<title>dir_0d8919bacf438e2f4651e48201711277&#45;&gt;dir_a5a63c6c47d2305a2697a56793561ce2</title>
<g id="a_edge4"><a xlink:href="dir_000005_000008.html" target="_top">
<path fill="none" stroke="#63b8ff" d="M214.78,-70.75C219.62,-63.42 226.68,-52.73 232.64,-43.7"/>
<polygon fill="#63b8ff" stroke="#63b8ff" points="235.74,-45.36 238.33,-35.09 229.9,-41.5 235.74,-45.36"/>
</a>
</g>
<g id="a_edge4&#45;headlabel"><a xlink:href="dir_000005_000008.html" target="_top" xlink:title="3">
<text text-anchor="middle" x="236.13" y="-47.43" font-family="Malgun Gothic" font-size="10.00" fill="#63b8ff">3</text>
</a>
</g>
</g>
<!-- dir_baf9be0dedefecbc98dbf50df3caf5b5 -->
<g id="node6" class="node">
<title>dir_baf9be0dedefecbc98dbf50df3caf5b5</title>
<g id="a_node6"><a xlink:href="dir_baf9be0dedefecbc98dbf50df3caf5b5.html" target="_top" xlink:title="Screenshot">
<polygon fill="#a2b4d6" stroke="#404040" points="169.5,-90 98.5,-90 98.5,-71 169.5,-71 169.5,-90"/>
<text text-anchor="middle" x="134" y="-78" font-family="Malgun Gothic" font-size="10.00">Screenshot</text>
</a>
</g>
</g>
<!-- dir_baf9be0dedefecbc98dbf50df3caf5b5&#45;&gt;dir_a5a63c6c47d2305a2697a56793561ce2 -->
<g id="edge5" class="edge">
<title>dir_baf9be0dedefecbc98dbf50df3caf5b5&#45;&gt;dir_a5a63c6c47d2305a2697a56793561ce2</title>
<g id="a_edge5"><a xlink:href="dir_000009_000008.html" target="_top">
<path fill="none" stroke="#63b8ff" d="M151.67,-70.98C169.29,-62.5 196.58,-49.35 216.93,-39.54"/>
<polygon fill="#63b8ff" stroke="#63b8ff" points="218.52,-42.66 226.01,-35.17 215.48,-36.36 218.52,-42.66"/>
</a>
</g>
<g id="a_edge5&#45;headlabel"><a xlink:href="dir_000009_000008.html" target="_top" xlink:title="2">
<text text-anchor="middle" x="216.51" y="-44.28" font-family="Malgun Gothic" font-size="10.00" fill="#63b8ff">2</text>
</a>
</g>
</g>
<!-- dir_b32a1a6bbbe24ba71e2f22061efaf028 -->
<g id="node7" class="node">
<title>dir_b32a1a6bbbe24ba71e2f22061efaf028</title>
<g id="a_node7"><a xlink:href="dir_b32a1a6bbbe24ba71e2f22061efaf028.html" target="_top" xlink:title="Settings">
<polygon fill="#a2b4d6" stroke="#404040" points="80,-90 24,-90 24,-71 80,-71 80,-90"/>
<text text-anchor="middle" x="52" y="-78" font-family="Malgun Gothic" font-size="10.00">Settings</text>
</a>
</g>
</g>
<!-- dir_b32a1a6bbbe24ba71e2f22061efaf028&#45;&gt;dir_a5a63c6c47d2305a2697a56793561ce2 -->
<g id="edge6" class="edge">
<title>dir_b32a1a6bbbe24ba71e2f22061efaf028&#45;&gt;dir_a5a63c6c47d2305a2697a56793561ce2</title>
<g id="a_edge6"><a xlink:href="dir_000011_000008.html" target="_top">
<path fill="none" stroke="#63b8ff" d="M69.91,-70.95C76.18,-68.16 83.31,-65.23 90,-63 130.87,-49.4 179.44,-38.77 210.95,-32.57"/>
<polygon fill="#63b8ff" stroke="#63b8ff" points="211.79,-35.97 220.95,-30.64 210.46,-29.1 211.79,-35.97"/>
</a>
</g>
<g id="a_edge6&#45;headlabel"><a xlink:href="dir_000011_000008.html" target="_top" xlink:title="2">
<text text-anchor="middle" x="208.8" y="-36.94" font-family="Malgun Gothic" font-size="10.00" fill="#63b8ff">2</text>
</a>
</g>
</g>
</g>
</svg>
