<?xml version="1.0" encoding="UTF-8" standalone="no"?>
<!DOCTYPE svg PUBLIC "-//W3C//DTD SVG 1.1//EN"
 "http://www.w3.org/Graphics/SVG/1.1/DTD/svg11.dtd">
<!-- Generated by graphviz version 2.43.0 (0)
 -->
<!-- Title: Source/CoffeeToolbar/Public/NetworkTest/FApiSendInfo.h Pages: 1 -->
<svg width="1515pt" height="192pt"
 viewBox="0.00 0.00 1515.00 192.00" xmlns="http://www.w3.org/2000/svg" xmlns:xlink="http://www.w3.org/1999/xlink">
<g id="graph0" class="graph" transform="scale(1 1) rotate(0) translate(4 188)">
<title>Source/CoffeeToolbar/Public/NetworkTest/FApiSendInfo.h</title>
<!-- Node1 -->
<g id="Node000001" class="node">
<title>Node1</title>
<g id="a_Node000001"><a xlink:title="HTTP API 요청 정보를 정의합니다.">
<polygon fill="#999999" stroke="#666666" points="455.5,-184 295.5,-184 295.5,-143 455.5,-143 455.5,-184"/>
<text text-anchor="start" x="303.5" y="-172" font-family="Malgun Gothic" font-size="10.00">Source/CoffeeToolbar</text>
<text text-anchor="start" x="303.5" y="-161" font-family="Malgun Gothic" font-size="10.00">/Public/NetworkTest/FApiSend</text>
<text text-anchor="middle" x="375.5" y="-150" font-family="Malgun Gothic" font-size="10.00">Info.h</text>
</a>
</g>
</g>
<!-- Node2 -->
<g id="Node000002" class="node">
<title>Node2</title>
<g id="a_Node000002"><a xlink:href="ConsoleCurlCommand_8cpp.html" target="_top" xlink:title=" ">
<polygon fill="white" stroke="#666666" points="149,-41 0,-41 0,0 149,0 149,-41"/>
<text text-anchor="start" x="8" y="-29" font-family="Malgun Gothic" font-size="10.00">Source/CoffeeToolbar</text>
<text text-anchor="start" x="8" y="-18" font-family="Malgun Gothic" font-size="10.00">/Private/NetworkTest</text>
<text text-anchor="middle" x="74.5" y="-7" font-family="Malgun Gothic" font-size="10.00">/ConsoleCurlCommand.cpp</text>
</a>
</g>
</g>
<!-- Node1&#45;&gt;Node2 -->
<g id="edge1_Node000001_Node000002" class="edge">
<title>Node1&#45;&gt;Node2</title>
<g id="a_edge1_Node000001_Node000002"><a xlink:title=" ">
<path fill="none" stroke="#63b8ff" d="M324.57,-138.64C266.02,-111.21 170.98,-66.69 116.48,-41.17"/>
<polygon fill="#63b8ff" stroke="#63b8ff" points="323.11,-141.82 333.65,-142.89 326.08,-135.48 323.11,-141.82"/>
</a>
</g>
</g>
<!-- Node3 -->
<g id="Node000003" class="node">
<title>Node3</title>
<g id="a_Node000003"><a xlink:href="UToolbarSettings_8h.html" target="_top" xlink:title="Coffee Toolbar 플러그인을 구성하기 위한 개발자 설정을 선언합니다.">
<polygon fill="white" stroke="#666666" points="769.5,-107 583.5,-107 583.5,-77 769.5,-77 769.5,-107"/>
<text text-anchor="start" x="591.5" y="-95" font-family="Malgun Gothic" font-size="10.00">Source/CoffeeToolbar</text>
<text text-anchor="middle" x="676.5" y="-84" font-family="Malgun Gothic" font-size="10.00">/Public/Settings/UToolbarSettings.h</text>
</a>
</g>
</g>
<!-- Node1&#45;&gt;Node3 -->
<g id="edge2_Node000001_Node000003" class="edge">
<title>Node1&#45;&gt;Node3</title>
<g id="a_edge2_Node000001_Node000003"><a xlink:title=" ">
<path fill="none" stroke="#63b8ff" d="M465.62,-141.69C514.05,-130.51 572.46,-117.02 615.52,-107.08"/>
<polygon fill="#63b8ff" stroke="#63b8ff" points="464.72,-138.31 455.77,-143.97 466.3,-145.13 464.72,-138.31"/>
</a>
</g>
</g>
<!-- Node3&#45;&gt;Node2 -->
<g id="edge8_Node000003_Node000002" class="edge">
<title>Node3&#45;&gt;Node2</title>
<g id="a_edge8_Node000003_Node000002"><a xlink:title=" ">
<path fill="none" stroke="#63b8ff" d="M572.9,-85.14C467.76,-78.23 300.55,-64.59 157.5,-41 154.73,-40.54 151.9,-40.05 149.06,-39.52"/>
<polygon fill="#63b8ff" stroke="#63b8ff" points="572.99,-88.65 583.2,-85.81 573.44,-81.67 572.99,-88.65"/>
</a>
</g>
</g>
<!-- Node4 -->
<g id="Node000004" class="node">
<title>Node4</title>
<g id="a_Node000004"><a xlink:href="FCommandFeature_8cpp.html" target="_top" xlink:title="Coffee Toolbar용 명령 실행 보조 기능을 구현합니다.">
<polygon fill="white" stroke="#666666" points="390.5,-35.5 166.5,-35.5 166.5,-5.5 390.5,-5.5 390.5,-35.5"/>
<text text-anchor="start" x="174.5" y="-23.5" font-family="Malgun Gothic" font-size="10.00">Source/CoffeeToolbar</text>
<text text-anchor="middle" x="278.5" y="-12.5" font-family="Malgun Gothic" font-size="10.00">/Private/Command/FCommandFeature.cpp</text>
</a>
</g>
</g>
<!-- Node3&#45;&gt;Node4 -->
<g id="edge3_Node000003_Node000004" class="edge">
<title>Node3&#45;&gt;Node4</title>
<g id="a_edge3_Node000003_Node000004"><a xlink:title=" ">
<path fill="none" stroke="#63b8ff" d="M586.06,-75.21C517.69,-63.27 424.7,-47.03 358.92,-35.54"/>
<polygon fill="#63b8ff" stroke="#63b8ff" points="585.51,-78.66 595.96,-76.94 586.71,-71.77 585.51,-78.66"/>
</a>
</g>
</g>
<!-- Node5 -->
<g id="Node000005" class="node">
<title>Node5</title>
<g id="a_Node000005"><a xlink:href="FToolbarStyle_8cpp.html" target="_top" xlink:title="Coffee Toolbar 플러그인의 Slate 스타일 등록을 구현합니다.">
<polygon fill="white" stroke="#666666" points="598.5,-35.5 408.5,-35.5 408.5,-5.5 598.5,-5.5 598.5,-35.5"/>
<text text-anchor="start" x="416.5" y="-23.5" font-family="Malgun Gothic" font-size="10.00">Source/CoffeeToolbar</text>
<text text-anchor="middle" x="503.5" y="-12.5" font-family="Malgun Gothic" font-size="10.00">/Private/Common/FToolbarStyle.cpp</text>
</a>
</g>
</g>
<!-- Node3&#45;&gt;Node5 -->
<g id="edge4_Node000003_Node000005" class="edge">
<title>Node3&#45;&gt;Node5</title>
<g id="a_edge4_Node000003_Node000005"><a xlink:title=" ">
<path fill="none" stroke="#63b8ff" d="M631.97,-73.11C602.87,-61.42 565.41,-46.37 538.46,-35.54"/>
<polygon fill="#63b8ff" stroke="#63b8ff" points="630.91,-76.46 641.49,-76.94 633.52,-69.96 630.91,-76.46"/>
</a>
</g>
</g>
<!-- Node6 -->
<g id="Node000006" class="node">
<title>Node6</title>
<g id="a_Node000006"><a xlink:href="FToolbar_8cpp.html" target="_top" xlink:title="Coffee Toolbar 모듈의 라이프사이클과 메뉴 등록 로직을 구현합니다.">
<polygon fill="white" stroke="#666666" points="736,-35.5 617,-35.5 617,-5.5 736,-5.5 736,-35.5"/>
<text text-anchor="start" x="625" y="-23.5" font-family="Malgun Gothic" font-size="10.00">Source/CoffeeToolbar</text>
<text text-anchor="middle" x="676.5" y="-12.5" font-family="Malgun Gothic" font-size="10.00">/Private/FToolbar.cpp</text>
</a>
</g>
</g>
<!-- Node3&#45;&gt;Node6 -->
<g id="edge5_Node000003_Node000006" class="edge">
<title>Node3&#45;&gt;Node6</title>
<g id="a_edge5_Node000003_Node000006"><a xlink:title=" ">
<path fill="none" stroke="#63b8ff" d="M676.5,-66.75C676.5,-56.31 676.5,-44.49 676.5,-35.54"/>
<polygon fill="#63b8ff" stroke="#63b8ff" points="673,-66.94 676.5,-76.94 680,-66.94 673,-66.94"/>
</a>
</g>
</g>
<!-- Node7 -->
<g id="Node000007" class="node">
<title>Node7</title>
<g id="a_Node000007"><a xlink:href="FolderFeature_8cpp.html" target="_top" xlink:title=" ">
<polygon fill="white" stroke="#666666" points="931,-35.5 754,-35.5 754,-5.5 931,-5.5 931,-35.5"/>
<text text-anchor="start" x="762" y="-23.5" font-family="Malgun Gothic" font-size="10.00">Source/CoffeeToolbar</text>
<text text-anchor="middle" x="842.5" y="-12.5" font-family="Malgun Gothic" font-size="10.00">/Private/Folder/FolderFeature.cpp</text>
</a>
</g>
</g>
<!-- Node3&#45;&gt;Node7 -->
<g id="edge6_Node000003_Node000007" class="edge">
<title>Node3&#45;&gt;Node7</title>
<g id="a_edge6_Node000003_Node000007"><a xlink:title=" ">
<path fill="none" stroke="#63b8ff" d="M719.59,-72.96C747.46,-61.29 783.21,-46.32 808.96,-35.54"/>
<polygon fill="#63b8ff" stroke="#63b8ff" points="717.97,-69.85 710.09,-76.94 720.67,-76.3 717.97,-69.85"/>
</a>
</g>
</g>
<!-- Node8 -->
<g id="Node000008" class="node">
<title>Node8</title>
<g id="a_Node000008"><a xlink:href="FLevelFeature_8cpp.html" target="_top" xlink:title="Coffee Toolbar에서 레벨 선택을 돕는 헬퍼 기능을 구현합니다.">
<polygon fill="white" stroke="#666666" points="1124.5,-35.5 948.5,-35.5 948.5,-5.5 1124.5,-5.5 1124.5,-35.5"/>
<text text-anchor="start" x="956.5" y="-23.5" font-family="Malgun Gothic" font-size="10.00">Source/CoffeeToolbar</text>
<text text-anchor="middle" x="1036.5" y="-12.5" font-family="Malgun Gothic" font-size="10.00">/Private/Level/FLevelFeature.cpp</text>
</a>
</g>
</g>
<!-- Node3&#45;&gt;Node8 -->
<g id="edge7_Node000003_Node000008" class="edge">
<title>Node3&#45;&gt;Node8</title>
<g id="a_edge7_Node000003_Node000008"><a xlink:title=" ">
<path fill="none" stroke="#63b8ff" d="M762.07,-75.09C813.76,-65.4 880.96,-52.69 940.5,-41 949.43,-39.25 958.82,-37.38 968.09,-35.51"/>
<polygon fill="#63b8ff" stroke="#63b8ff" points="761.13,-71.71 751.94,-76.99 762.41,-78.59 761.13,-71.71"/>
</a>
</g>
</g>
<!-- Node9 -->
<g id="Node000009" class="node">
<title>Node9</title>
<g id="a_Node000009"><a xlink:href="FNetworkTestFeature_8cpp.html" target="_top" xlink:title=" ">
<polygon fill="white" stroke="#666666" points="1286,-41 1143,-41 1143,0 1286,0 1286,-41"/>
<text text-anchor="start" x="1151" y="-29" font-family="Malgun Gothic" font-size="10.00">Source/CoffeeToolbar</text>
<text text-anchor="start" x="1151" y="-18" font-family="Malgun Gothic" font-size="10.00">/Private/NetworkTest</text>
<text text-anchor="middle" x="1214.5" y="-7" font-family="Malgun Gothic" font-size="10.00">/FNetworkTestFeature.cpp</text>
</a>
</g>
</g>
<!-- Node3&#45;&gt;Node9 -->
<g id="edge9_Node000003_Node000009" class="edge">
<title>Node3&#45;&gt;Node9</title>
<g id="a_edge9_Node000003_Node000009"><a xlink:title=" ">
<path fill="none" stroke="#63b8ff" d="M779.74,-83.48C872.71,-75.81 1012.88,-62.03 1133.5,-41 1136.49,-40.48 1139.54,-39.91 1142.61,-39.31"/>
<polygon fill="#63b8ff" stroke="#63b8ff" points="779.45,-79.99 769.77,-84.29 780.02,-86.97 779.45,-79.99"/>
</a>
</g>
</g>
<!-- Node10 -->
<g id="Node000010" class="node">
<title>Node10</title>
<g id="a_Node000010"><a xlink:href="UToolbarSettings_8cpp.html" target="_top" xlink:title="Coffee Toolbar 플러그인의 설정 헬퍼 기능을 구현합니다.">
<polygon fill="white" stroke="#666666" points="1507,-35.5 1304,-35.5 1304,-5.5 1507,-5.5 1507,-35.5"/>
<text text-anchor="start" x="1312" y="-23.5" font-family="Malgun Gothic" font-size="10.00">Source/CoffeeToolbar</text>
<text text-anchor="middle" x="1405.5" y="-12.5" font-family="Malgun Gothic" font-size="10.00">/Private/Settings/UToolbarSettings.cpp</text>
</a>
</g>
</g>
<!-- Node3&#45;&gt;Node10 -->
<g id="edge10_Node000003_Node000010" class="edge">
<title>Node3&#45;&gt;Node10</title>
<g id="a_edge10_Node000003_Node000010"><a xlink:title=" ">
<path fill="none" stroke="#63b8ff" d="M779.77,-85.66C902.91,-78.6 1114.78,-64.26 1295.5,-41 1307.33,-39.48 1319.82,-37.56 1331.98,-35.53"/>
<polygon fill="#63b8ff" stroke="#63b8ff" points="779.38,-82.18 769.6,-86.24 779.78,-89.17 779.38,-82.18"/>
</a>
</g>
</g>
</g>
</svg>
