<?xml version="1.0" encoding="UTF-8" standalone="no"?>
<!DOCTYPE svg PUBLIC "-//W3C//DTD SVG 1.1//EN"
 "http://www.w3.org/Graphics/SVG/1.1/DTD/svg11.dtd">
<!-- Generated by graphviz version 2.43.0 (0)
 -->
<!-- Title: Source/CoffeeToolbar/Private/Command/FCommandFeature.cpp Pages: 1 -->
<svg width="1316pt" height="214pt"
 viewBox="0.00 0.00 1316.00 214.00" xmlns="http://www.w3.org/2000/svg" xmlns:xlink="http://www.w3.org/1999/xlink">
<g id="graph0" class="graph" transform="scale(1 1) rotate(0) translate(4 210)">
<title>Source/CoffeeToolbar/Private/Command/FCommandFeature.cpp</title>
<!-- Node1 -->
<g id="Node000001" class="node">
<title>Node1</title>
<g id="a_Node000001"><a xlink:title="Coffee Toolbar용 명령 실행 보조 기능을 구현합니다.">
<polygon fill="#999999" stroke="#666666" points="1095.5,-206 871.5,-206 871.5,-176 1095.5,-176 1095.5,-206"/>
<text text-anchor="start" x="879.5" y="-194" font-family="Malgun Gothic" font-size="10.00">Source/CoffeeToolbar</text>
<text text-anchor="middle" x="983.5" y="-183" font-family="Malgun Gothic" font-size="10.00">/Private/Command/FCommandFeature.cpp</text>
</a>
</g>
</g>
<!-- Node2 -->
<g id="Node000002" class="node">
<title>Node2</title>
<g id="a_Node000002"><a xlink:href="FCommandFeature_8h.html" target="_top" xlink:title="명령형 버튼을 담당하는 툴바 기능을 선언합니다.">
<polygon fill="white" stroke="#666666" points="1152.5,-140 980.5,-140 980.5,-121 1152.5,-121 1152.5,-140"/>
<text text-anchor="middle" x="1066.5" y="-128" font-family="Malgun Gothic" font-size="10.00">Command/FCommandFeature.h</text>
</a>
</g>
</g>
<!-- Node1&#45;&gt;Node2 -->
<g id="edge1_Node000001_Node000002" class="edge">
<title>Node1&#45;&gt;Node2</title>
<g id="a_edge1_Node000001_Node000002"><a xlink:title=" ">
<path fill="none" stroke="#63b8ff" d="M1003.59,-175.84C1016.38,-166.83 1032.9,-155.18 1045.8,-146.09"/>
<polygon fill="#63b8ff" stroke="#63b8ff" points="1047.91,-148.89 1054.06,-140.27 1043.87,-143.17 1047.91,-148.89"/>
</a>
</g>
</g>
<!-- Node6 -->
<g id="Node000006" class="node">
<title>Node6</title>
<g id="a_Node000006"><a xlink:href="UToolbarSettings_8h.html" target="_top" xlink:title="Coffee Toolbar 플러그인을 구성하기 위한 개발자 설정을 선언합니다.">
<polygon fill="white" stroke="#666666" points="637,-140 486,-140 486,-121 637,-121 637,-140"/>
<text text-anchor="middle" x="561.5" y="-128" font-family="Malgun Gothic" font-size="10.00">Settings/UToolbarSettings.h</text>
</a>
</g>
</g>
<!-- Node1&#45;&gt;Node6 -->
<g id="edge5_Node000001_Node000006" class="edge">
<title>Node1&#45;&gt;Node6</title>
<g id="a_edge5_Node000001_Node000006"><a xlink:title=" ">
<path fill="none" stroke="#63b8ff" d="M882.42,-175.99C805.54,-165.33 701.63,-150.93 633.15,-141.43"/>
<polygon fill="#63b8ff" stroke="#63b8ff" points="633.28,-137.92 622.9,-140.01 632.32,-144.85 633.28,-137.92"/>
</a>
</g>
</g>
<!-- Node15 -->
<g id="Node000015" class="node">
<title>Node15</title>
<g id="a_Node000015"><a xlink:href="FCommon_8h.html" target="_top" xlink:title="Coffee Toolbar 플러그인을 위한 공용 유틸리티 헬퍼를 선언합니다.">
<polygon fill="white" stroke="#666666" points="962,-140 839,-140 839,-121 962,-121 962,-140"/>
<text text-anchor="middle" x="900.5" y="-128" font-family="Malgun Gothic" font-size="10.00">Common/FCommon.h</text>
</a>
</g>
</g>
<!-- Node1&#45;&gt;Node15 -->
<g id="edge18_Node000001_Node000015" class="edge">
<title>Node1&#45;&gt;Node15</title>
<g id="a_edge18_Node000001_Node000015"><a xlink:title=" ">
<path fill="none" stroke="#63b8ff" d="M963.41,-175.84C950.62,-166.83 934.1,-155.18 921.2,-146.09"/>
<polygon fill="#63b8ff" stroke="#63b8ff" points="923.13,-143.17 912.94,-140.27 919.09,-148.89 923.13,-143.17"/>
</a>
</g>
</g>
<!-- Node17 -->
<g id="Node000017" class="node">
<title>Node17</title>
<g id="a_Node000017"><a xlink:title=" ">
<polygon fill="#e0e0e0" stroke="#999999" points="1248,-140 1171,-140 1171,-121 1248,-121 1248,-140"/>
<text text-anchor="middle" x="1209.5" y="-128" font-family="Malgun Gothic" font-size="10.00">ToolMenus.h</text>
</a>
</g>
</g>
<!-- Node1&#45;&gt;Node17 -->
<g id="edge21_Node000001_Node000017" class="edge">
<title>Node1&#45;&gt;Node17</title>
<g id="a_edge21_Node000001_Node000017"><a xlink:title=" ">
<path fill="none" stroke="#63b8ff" d="M1037.63,-175.99C1077.14,-165.76 1129.97,-152.09 1166.58,-142.61"/>
<polygon fill="#63b8ff" stroke="#63b8ff" points="1167.65,-145.95 1176.46,-140.05 1165.9,-139.17 1167.65,-145.95"/>
</a>
</g>
</g>
<!-- Node3 -->
<g id="Node000003" class="node">
<title>Node3</title>
<g id="a_Node000003"><a xlink:title=" ">
<polygon fill="#e0e0e0" stroke="#999999" points="714.5,-19 626.5,-19 626.5,0 714.5,0 714.5,-19"/>
<text text-anchor="middle" x="670.5" y="-7" font-family="Malgun Gothic" font-size="10.00">CoreMinimal.h</text>
</a>
</g>
</g>
<!-- Node2&#45;&gt;Node3 -->
<g id="edge2_Node000002_Node000003" class="edge">
<title>Node2&#45;&gt;Node3</title>
<g id="a_edge2_Node000002_Node000003"><a xlink:title=" ">
<path fill="none" stroke="#63b8ff" d="M1062.01,-120.77C1053.22,-104.68 1032.07,-70.55 1003.5,-55 896.09,3.45 850.04,-34.87 724.69,-19.05"/>
<polygon fill="#63b8ff" stroke="#63b8ff" points="725.11,-15.57 714.73,-17.7 724.17,-22.51 725.11,-15.57"/>
</a>
</g>
</g>
<!-- Node4 -->
<g id="Node000004" class="node">
<title>Node4</title>
<g id="a_Node000004"><a xlink:title=" ">
<polygon fill="#e0e0e0" stroke="#999999" points="1308,-79.5 1199,-79.5 1199,-60.5 1308,-60.5 1308,-79.5"/>
<text text-anchor="middle" x="1253.5" y="-67.5" font-family="Malgun Gothic" font-size="10.00">Widgets/SWidget.h</text>
</a>
</g>
</g>
<!-- Node2&#45;&gt;Node4 -->
<g id="edge3_Node000002_Node000004" class="edge">
<title>Node2&#45;&gt;Node4</title>
<g id="a_edge3_Node000002_Node000004"><a xlink:title=" ">
<path fill="none" stroke="#63b8ff" d="M1093.69,-120.99C1126.1,-110.86 1180.4,-93.87 1216.58,-82.55"/>
<polygon fill="#63b8ff" stroke="#63b8ff" points="1217.78,-85.84 1226.28,-79.52 1215.69,-79.16 1217.78,-85.84"/>
</a>
</g>
</g>
<!-- Node5 -->
<g id="Node000005" class="node">
<title>Node5</title>
<g id="a_Node000005"><a xlink:title=" ">
<polygon fill="#e0e0e0" stroke="#999999" points="1180.5,-85 1050.5,-85 1050.5,-55 1180.5,-55 1180.5,-85"/>
<text text-anchor="start" x="1058.5" y="-73" font-family="Malgun Gothic" font-size="10.00">Framework/Commands</text>
<text text-anchor="middle" x="1115.5" y="-62" font-family="Malgun Gothic" font-size="10.00">/UIAction.h</text>
</a>
</g>
</g>
<!-- Node2&#45;&gt;Node5 -->
<g id="edge4_Node000002_Node000005" class="edge">
<title>Node2&#45;&gt;Node5</title>
<g id="a_edge4_Node000002_Node000005"><a xlink:title=" ">
<path fill="none" stroke="#63b8ff" d="M1073.73,-120.87C1079.89,-113.52 1089,-102.63 1097.15,-92.91"/>
<polygon fill="#63b8ff" stroke="#63b8ff" points="1099.94,-95.03 1103.68,-85.11 1094.57,-90.53 1099.94,-95.03"/>
</a>
</g>
</g>
<!-- Node6&#45;&gt;Node3 -->
<g id="edge6_Node000006_Node000003" class="edge">
<title>Node6&#45;&gt;Node3</title>
<g id="a_edge6_Node000006_Node000003"><a xlink:title=" ">
<path fill="none" stroke="#63b8ff" d="M593.33,-120.88C612.51,-114.11 635.97,-102.8 650.5,-85 663.44,-69.15 668.06,-45.69 669.68,-29.35"/>
<polygon fill="#63b8ff" stroke="#63b8ff" points="673.17,-29.57 670.39,-19.35 666.19,-29.08 673.17,-29.57"/>
</a>
</g>
</g>
<!-- Node7 -->
<g id="Node000007" class="node">
<title>Node7</title>
<g id="a_Node000007"><a xlink:href="FToolbarButtonInfo_8h.html" target="_top" xlink:title="커스터마이즈 가능한 Coffee Toolbar 버튼 정보를 선언합니다.">
<polygon fill="white" stroke="#666666" points="292,-79.5 175,-79.5 175,-60.5 292,-60.5 292,-79.5"/>
<text text-anchor="middle" x="233.5" y="-67.5" font-family="Malgun Gothic" font-size="10.00">FToolbarButtonInfo.h</text>
</a>
</g>
</g>
<!-- Node6&#45;&gt;Node7 -->
<g id="edge7_Node000006_Node000007" class="edge">
<title>Node6&#45;&gt;Node7</title>
<g id="a_edge7_Node000006_Node000007"><a xlink:title=" ">
<path fill="none" stroke="#63b8ff" d="M508.62,-120.98C456.02,-112.39 373.05,-98.49 301.5,-85 295.73,-83.91 289.7,-82.73 283.71,-81.54"/>
<polygon fill="#63b8ff" stroke="#63b8ff" points="284.22,-78.07 273.73,-79.51 282.83,-84.93 284.22,-78.07"/>
</a>
</g>
</g>
<!-- Node9 -->
<g id="Node000009" class="node">
<title>Node9</title>
<g id="a_Node000009"><a xlink:title=" ">
<polygon fill="#e0e0e0" stroke="#999999" points="462.5,-79.5 310.5,-79.5 310.5,-60.5 462.5,-60.5 462.5,-79.5"/>
<text text-anchor="middle" x="386.5" y="-67.5" font-family="Malgun Gothic" font-size="10.00">Engine/DeveloperSettings.h</text>
</a>
</g>
</g>
<!-- Node6&#45;&gt;Node9 -->
<g id="edge10_Node000006_Node000009" class="edge">
<title>Node6&#45;&gt;Node9</title>
<g id="a_edge10_Node000006_Node000009"><a xlink:title=" ">
<path fill="none" stroke="#63b8ff" d="M536.05,-120.99C505.86,-110.9 455.34,-94.01 421.48,-82.69"/>
<polygon fill="#63b8ff" stroke="#63b8ff" points="422.57,-79.37 411.98,-79.52 420.35,-86.01 422.57,-79.37"/>
</a>
</g>
</g>
<!-- Node10 -->
<g id="Node000010" class="node">
<title>Node10</title>
<g id="a_Node000010"><a xlink:href="FFolderPathInfo_8h.html" target="_top" xlink:title=" ">
<polygon fill="white" stroke="#666666" points="832.5,-79.5 698.5,-79.5 698.5,-60.5 832.5,-60.5 832.5,-79.5"/>
<text text-anchor="middle" x="765.5" y="-67.5" font-family="Malgun Gothic" font-size="10.00">Folder/FFolderPathInfo.h</text>
</a>
</g>
</g>
<!-- Node6&#45;&gt;Node10 -->
<g id="edge11_Node000006_Node000010" class="edge">
<title>Node6&#45;&gt;Node10</title>
<g id="a_edge11_Node000006_Node000010"><a xlink:title=" ">
<path fill="none" stroke="#63b8ff" d="M591.16,-120.99C626.74,-110.79 686.52,-93.65 725.98,-82.33"/>
<polygon fill="#63b8ff" stroke="#63b8ff" points="727.15,-85.64 735.8,-79.52 725.22,-78.91 727.15,-85.64"/>
</a>
</g>
</g>
<!-- Node12 -->
<g id="Node000012" class="node">
<title>Node12</title>
<g id="a_Node000012"><a xlink:href="FApiSendInfo_8h.html" target="_top" xlink:title="HTTP API 요청 정보를 정의합니다.">
<polygon fill="white" stroke="#666666" points="156.5,-79.5 4.5,-79.5 4.5,-60.5 156.5,-60.5 156.5,-79.5"/>
<text text-anchor="middle" x="80.5" y="-67.5" font-family="Malgun Gothic" font-size="10.00">NetworkTest/FApiSendInfo.h</text>
</a>
</g>
</g>
<!-- Node6&#45;&gt;Node12 -->
<g id="edge14_Node000006_Node000012" class="edge">
<title>Node6&#45;&gt;Node12</title>
<g id="a_edge14_Node000006_Node000012"><a xlink:title=" ">
<path fill="none" stroke="#63b8ff" d="M485.81,-122.16C406.01,-114.15 276.69,-100.39 165.5,-85 157.19,-83.85 148.45,-82.53 139.86,-81.18"/>
<polygon fill="#63b8ff" stroke="#63b8ff" points="140.3,-77.7 129.88,-79.57 139.19,-84.61 140.3,-77.7"/>
</a>
</g>
</g>
<!-- Node14 -->
<g id="Node000014" class="node">
<title>Node14</title>
<g id="a_Node000014"><a xlink:title=" ">
<polygon fill="#e0e0e0" stroke="#999999" points="642,-79.5 481,-79.5 481,-60.5 642,-60.5 642,-79.5"/>
<text text-anchor="middle" x="561.5" y="-67.5" font-family="Malgun Gothic" font-size="10.00">UToolbarSettings.generated.h</text>
</a>
</g>
</g>
<!-- Node6&#45;&gt;Node14 -->
<g id="edge17_Node000006_Node000014" class="edge">
<title>Node6&#45;&gt;Node14</title>
<g id="a_edge17_Node000006_Node000014"><a xlink:title=" ">
<path fill="none" stroke="#63b8ff" d="M561.5,-120.87C561.5,-112.75 561.5,-100.31 561.5,-89.89"/>
<polygon fill="#63b8ff" stroke="#63b8ff" points="565,-89.67 561.5,-79.67 558,-89.67 565,-89.67"/>
</a>
</g>
</g>
<!-- Node7&#45;&gt;Node3 -->
<g id="edge8_Node000007_Node000003" class="edge">
<title>Node7&#45;&gt;Node3</title>
<g id="a_edge8_Node000007_Node000003"><a xlink:title=" ">
<path fill="none" stroke="#63b8ff" d="M272.23,-60.45C281.77,-58.5 291.98,-56.55 301.5,-55 412.74,-36.87 543.95,-22.77 616.1,-15.63"/>
<polygon fill="#63b8ff" stroke="#63b8ff" points="616.7,-19.09 626.31,-14.63 616.02,-12.12 616.7,-19.09"/>
</a>
</g>
</g>
<!-- Node8 -->
<g id="Node000008" class="node">
<title>Node8</title>
<g id="a_Node000008"><a xlink:title=" ">
<polygon fill="#e0e0e0" stroke="#999999" points="329.5,-19 159.5,-19 159.5,0 329.5,0 329.5,-19"/>
<text text-anchor="middle" x="244.5" y="-7" font-family="Malgun Gothic" font-size="10.00">FToolbarButtonInfo.generated.h</text>
</a>
</g>
</g>
<!-- Node7&#45;&gt;Node8 -->
<g id="edge9_Node000007_Node000008" class="edge">
<title>Node7&#45;&gt;Node8</title>
<g id="a_edge9_Node000007_Node000008"><a xlink:title=" ">
<path fill="none" stroke="#63b8ff" d="M235.12,-60.37C236.67,-52.16 239.04,-39.54 241.01,-29.05"/>
<polygon fill="#63b8ff" stroke="#63b8ff" points="244.46,-29.64 242.87,-19.17 237.58,-28.35 244.46,-29.64"/>
</a>
</g>
</g>
<!-- Node10&#45;&gt;Node3 -->
<g id="edge12_Node000010_Node000003" class="edge">
<title>Node10&#45;&gt;Node3</title>
<g id="a_edge12_Node000010_Node000003"><a xlink:title=" ">
<path fill="none" stroke="#63b8ff" d="M751.48,-60.37C736.19,-50.95 711.47,-35.73 693.36,-24.58"/>
<polygon fill="#63b8ff" stroke="#63b8ff" points="694.93,-21.43 684.58,-19.17 691.25,-27.39 694.93,-21.43"/>
</a>
</g>
</g>
<!-- Node11 -->
<g id="Node000011" class="node">
<title>Node11</title>
<g id="a_Node000011"><a xlink:title=" ">
<polygon fill="#e0e0e0" stroke="#999999" points="886.5,-19 732.5,-19 732.5,0 886.5,0 886.5,-19"/>
<text text-anchor="middle" x="809.5" y="-7" font-family="Malgun Gothic" font-size="10.00">FFolderPathInfo.generated.h</text>
</a>
</g>
</g>
<!-- Node10&#45;&gt;Node11 -->
<g id="edge13_Node000010_Node000011" class="edge">
<title>Node10&#45;&gt;Node11</title>
<g id="a_edge13_Node000010_Node000011"><a xlink:title=" ">
<path fill="none" stroke="#63b8ff" d="M771.99,-60.37C778.49,-51.73 788.66,-38.2 796.78,-27.42"/>
<polygon fill="#63b8ff" stroke="#63b8ff" points="799.77,-29.26 802.98,-19.17 794.17,-25.06 799.77,-29.26"/>
</a>
</g>
</g>
<!-- Node12&#45;&gt;Node3 -->
<g id="edge15_Node000012_Node000003" class="edge">
<title>Node12&#45;&gt;Node3</title>
<g id="a_edge15_Node000012_Node000003"><a xlink:title=" ">
<path fill="none" stroke="#63b8ff" d="M128.51,-60.44C140.56,-58.48 153.48,-56.52 165.5,-55 329.04,-34.36 523.57,-20.1 616.22,-13.94"/>
<polygon fill="#63b8ff" stroke="#63b8ff" points="616.73,-17.41 626.47,-13.26 616.27,-10.43 616.73,-17.41"/>
</a>
</g>
</g>
<!-- Node13 -->
<g id="Node000013" class="node">
<title>Node13</title>
<g id="a_Node000013"><a xlink:title=" ">
<polygon fill="#e0e0e0" stroke="#999999" points="141,-19 0,-19 0,0 141,0 141,-19"/>
<text text-anchor="middle" x="70.5" y="-7" font-family="Malgun Gothic" font-size="10.00">FApiSendInfo.generated.h</text>
</a>
</g>
</g>
<!-- Node12&#45;&gt;Node13 -->
<g id="edge16_Node000012_Node000013" class="edge">
<title>Node12&#45;&gt;Node13</title>
<g id="a_edge16_Node000012_Node000013"><a xlink:title=" ">
<path fill="none" stroke="#63b8ff" d="M79.02,-60.37C77.62,-52.16 75.46,-39.54 73.67,-29.05"/>
<polygon fill="#63b8ff" stroke="#63b8ff" points="77.12,-28.43 71.98,-19.17 70.22,-29.61 77.12,-28.43"/>
</a>
</g>
</g>
<!-- Node15&#45;&gt;Node3 -->
<g id="edge19_Node000015_Node000003" class="edge">
<title>Node15&#45;&gt;Node3</title>
<g id="a_edge19_Node000015_Node000003"><a xlink:title=" ">
<path fill="none" stroke="#63b8ff" d="M896.13,-120.86C887.75,-105.21 867.9,-72.21 841.5,-55 822.29,-42.47 767.19,-29.4 724.68,-20.69"/>
<polygon fill="#63b8ff" stroke="#63b8ff" points="725.21,-17.23 714.72,-18.68 723.83,-24.09 725.21,-17.23"/>
</a>
</g>
</g>
<!-- Node16 -->
<g id="Node000016" class="node">
<title>Node16</title>
<g id="a_Node000016"><a xlink:title=" ">
<polygon fill="#e0e0e0" stroke="#999999" points="994.5,-79.5 888.5,-79.5 888.5,-60.5 994.5,-60.5 994.5,-79.5"/>
<text text-anchor="middle" x="941.5" y="-67.5" font-family="Malgun Gothic" font-size="10.00">Styling/AppStyle.h</text>
</a>
</g>
</g>
<!-- Node15&#45;&gt;Node16 -->
<g id="edge20_Node000015_Node000016" class="edge">
<title>Node15&#45;&gt;Node16</title>
<g id="a_edge20_Node000015_Node000016"><a xlink:title=" ">
<path fill="none" stroke="#63b8ff" d="M906.55,-120.87C912.61,-112.23 922.09,-98.7 929.64,-87.92"/>
<polygon fill="#63b8ff" stroke="#63b8ff" points="932.55,-89.87 935.43,-79.67 926.82,-85.85 932.55,-89.87"/>
</a>
</g>
</g>
</g>
</svg>
