<?xml version="1.0" encoding="UTF-8" standalone="no"?>
<!DOCTYPE svg PUBLIC "-//W3C//DTD SVG 1.1//EN"
 "http://www.w3.org/Graphics/SVG/1.1/DTD/svg11.dtd">
<!-- Generated by graphviz version 2.43.0 (0)
 -->
<!-- Title: Source/CoffeeToolbar/Public/Command/FCommandFeature.h Pages: 1 -->
<svg width="372pt" height="104pt"
 viewBox="0.00 0.00 372.00 104.00" xmlns="http://www.w3.org/2000/svg" xmlns:xlink="http://www.w3.org/1999/xlink">
<g id="graph0" class="graph" transform="scale(1 1) rotate(0) translate(4 100)">
<title>Source/CoffeeToolbar/Public/Command/FCommandFeature.h</title>
<!-- Node1 -->
<g id="Node000001" class="node">
<title>Node1</title>
<g id="a_Node000001"><a xlink:title="명령형 버튼을 담당하는 툴바 기능을 선언합니다.">
<polygon fill="#999999" stroke="#666666" points="264.5,-96 57.5,-96 57.5,-66 264.5,-66 264.5,-96"/>
<text text-anchor="start" x="65.5" y="-84" font-family="Malgun Gothic" font-size="10.00">Source/CoffeeToolbar</text>
<text text-anchor="middle" x="161" y="-73" font-family="Malgun Gothic" font-size="10.00">/Public/Command/FCommandFeature.h</text>
</a>
</g>
</g>
<!-- Node2 -->
<g id="Node000002" class="node">
<title>Node2</title>
<g id="a_Node000002"><a xlink:title=" ">
<polygon fill="#e0e0e0" stroke="#999999" points="88,-24.5 0,-24.5 0,-5.5 88,-5.5 88,-24.5"/>
<text text-anchor="middle" x="44" y="-12.5" font-family="Malgun Gothic" font-size="10.00">CoreMinimal.h</text>
</a>
</g>
</g>
<!-- Node1&#45;&gt;Node2 -->
<g id="edge1_Node000001_Node000002" class="edge">
<title>Node1&#45;&gt;Node2</title>
<g id="a_edge1_Node000001_Node000002"><a xlink:title=" ">
<path fill="none" stroke="#63b8ff" d="M135.32,-65.95C115.44,-55.08 88.07,-40.11 68.49,-29.4"/>
<polygon fill="#63b8ff" stroke="#63b8ff" points="70.02,-26.25 59.57,-24.52 66.66,-32.39 70.02,-26.25"/>
</a>
</g>
</g>
<!-- Node3 -->
<g id="Node000003" class="node">
<title>Node3</title>
<g id="a_Node000003"><a xlink:title=" ">
<polygon fill="#e0e0e0" stroke="#999999" points="215.5,-24.5 106.5,-24.5 106.5,-5.5 215.5,-5.5 215.5,-24.5"/>
<text text-anchor="middle" x="161" y="-12.5" font-family="Malgun Gothic" font-size="10.00">Widgets/SWidget.h</text>
</a>
</g>
</g>
<!-- Node1&#45;&gt;Node3 -->
<g id="edge2_Node000001_Node000003" class="edge">
<title>Node1&#45;&gt;Node3</title>
<g id="a_edge2_Node000001_Node000003"><a xlink:title=" ">
<path fill="none" stroke="#63b8ff" d="M161,-65.8C161,-56.7 161,-44.79 161,-34.9"/>
<polygon fill="#63b8ff" stroke="#63b8ff" points="164.5,-34.84 161,-24.84 157.5,-34.84 164.5,-34.84"/>
</a>
</g>
</g>
<!-- Node4 -->
<g id="Node000004" class="node">
<title>Node4</title>
<g id="a_Node000004"><a xlink:title=" ">
<polygon fill="#e0e0e0" stroke="#999999" points="364,-30 234,-30 234,0 364,0 364,-30"/>
<text text-anchor="start" x="242" y="-18" font-family="Malgun Gothic" font-size="10.00">Framework/Commands</text>
<text text-anchor="middle" x="299" y="-7" font-family="Malgun Gothic" font-size="10.00">/UIAction.h</text>
</a>
</g>
</g>
<!-- Node1&#45;&gt;Node4 -->
<g id="edge3_Node000001_Node000004" class="edge">
<title>Node1&#45;&gt;Node4</title>
<g id="a_edge3_Node000001_Node000004"><a xlink:title=" ">
<path fill="none" stroke="#63b8ff" d="M191.28,-65.95C211.33,-56.66 237.81,-44.38 259.51,-34.32"/>
<polygon fill="#63b8ff" stroke="#63b8ff" points="261.19,-37.39 268.79,-30.01 258.24,-31.04 261.19,-37.39"/>
</a>
</g>
</g>
</g>
</svg>
