<?xml version="1.0" encoding="UTF-8" standalone="no"?>
<!DOCTYPE svg PUBLIC "-//W3C//DTD SVG 1.1//EN"
 "http://www.w3.org/Graphics/SVG/1.1/DTD/svg11.dtd">
<!-- Generated by graphviz version 2.43.0 (0)
 -->
<!-- Title: Source/CoffeeToolbar/Private/Command/FCommandFeature.cpp Pages: 1 -->
<svg width="1108pt" height="214pt"
 viewBox="0.00 0.00 1107.50 214.00" xmlns="http://www.w3.org/2000/svg" xmlns:xlink="http://www.w3.org/1999/xlink">
<g id="graph0" class="graph" transform="scale(1 1) rotate(0) translate(4 210)">
<title>Source/CoffeeToolbar/Private/Command/FCommandFeature.cpp</title>
<!-- Node1 -->
<g id="Node000001" class="node">
<title>Node1</title>
<g id="a_Node000001"><a xlink:title="Coffee Toolbar용 명령 실행 보조 기능을 구현합니다.">
<polygon fill="#999999" stroke="#666666" points="885.5,-206 661.5,-206 661.5,-176 885.5,-176 885.5,-206"/>
<text text-anchor="start" x="669.5" y="-194" font-family="Malgun Gothic" font-size="10.00">Source/CoffeeToolbar</text>
<text text-anchor="middle" x="773.5" y="-183" font-family="Malgun Gothic" font-size="10.00">/Private/Command/FCommandFeature.cpp</text>
</a>
</g>
</g>
<!-- Node2 -->
<g id="Node000002" class="node">
<title>Node2</title>
<g id="a_Node000002"><a xlink:href="FCommandFeature_8h.html" target="_top" xlink:title="명령형 버튼을 담당하는 툴바 기능을 선언합니다.">
<polygon fill="white" stroke="#666666" points="942.5,-140 770.5,-140 770.5,-121 942.5,-121 942.5,-140"/>
<text text-anchor="middle" x="856.5" y="-128" font-family="Malgun Gothic" font-size="10.00">Command/FCommandFeature.h</text>
</a>
</g>
</g>
<!-- Node1&#45;&gt;Node2 -->
<g id="edge1_Node000001_Node000002" class="edge">
<title>Node1&#45;&gt;Node2</title>
<g id="a_edge1_Node000001_Node000002"><a xlink:title=" ">
<path fill="none" stroke="#63b8ff" d="M793.59,-175.84C806.38,-166.83 822.9,-155.18 835.8,-146.09"/>
<polygon fill="#63b8ff" stroke="#63b8ff" points="837.91,-148.89 844.06,-140.27 833.87,-143.17 837.91,-148.89"/>
</a>
</g>
</g>
<!-- Node6 -->
<g id="Node000006" class="node">
<title>Node6</title>
<g id="a_Node000006"><a xlink:href="UToolbarSettings_8h.html" target="_top" xlink:title="Coffee Toolbar 플러그인을 구성하기 위한 개발자 설정을 선언합니다.">
<polygon fill="white" stroke="#666666" points="545,-140 394,-140 394,-121 545,-121 545,-140"/>
<text text-anchor="middle" x="469.5" y="-128" font-family="Malgun Gothic" font-size="10.00">Settings/UToolbarSettings.h</text>
</a>
</g>
</g>
<!-- Node1&#45;&gt;Node6 -->
<g id="edge5_Node000001_Node000006" class="edge">
<title>Node1&#45;&gt;Node6</title>
<g id="a_edge5_Node000001_Node000006"><a xlink:title=" ">
<path fill="none" stroke="#63b8ff" d="M700.68,-175.99C646.29,-165.52 573.12,-151.44 523.79,-141.95"/>
<polygon fill="#63b8ff" stroke="#63b8ff" points="524.43,-138.51 513.95,-140.05 523.11,-145.38 524.43,-138.51"/>
</a>
</g>
</g>
<!-- Node13 -->
<g id="Node000013" class="node">
<title>Node13</title>
<g id="a_Node000013"><a xlink:href="FCommon_8h.html" target="_top" xlink:title="Coffee Toolbar 플러그인을 위한 공용 유틸리티 헬퍼를 선언합니다.">
<polygon fill="white" stroke="#666666" points="752,-140 629,-140 629,-121 752,-121 752,-140"/>
<text text-anchor="middle" x="690.5" y="-128" font-family="Malgun Gothic" font-size="10.00">Common/FCommon.h</text>
</a>
</g>
</g>
<!-- Node1&#45;&gt;Node13 -->
<g id="edge15_Node000001_Node000013" class="edge">
<title>Node1&#45;&gt;Node13</title>
<g id="a_edge15_Node000001_Node000013"><a xlink:title=" ">
<path fill="none" stroke="#63b8ff" d="M753.41,-175.84C740.62,-166.83 724.1,-155.18 711.2,-146.09"/>
<polygon fill="#63b8ff" stroke="#63b8ff" points="713.13,-143.17 702.94,-140.27 709.09,-148.89 713.13,-143.17"/>
</a>
</g>
</g>
<!-- Node15 -->
<g id="Node000015" class="node">
<title>Node15</title>
<g id="a_Node000015"><a xlink:title=" ">
<polygon fill="#e0e0e0" stroke="#999999" points="1038,-140 961,-140 961,-121 1038,-121 1038,-140"/>
<text text-anchor="middle" x="999.5" y="-128" font-family="Malgun Gothic" font-size="10.00">ToolMenus.h</text>
</a>
</g>
</g>
<!-- Node1&#45;&gt;Node15 -->
<g id="edge18_Node000001_Node000015" class="edge">
<title>Node1&#45;&gt;Node15</title>
<g id="a_edge18_Node000001_Node000015"><a xlink:title=" ">
<path fill="none" stroke="#63b8ff" d="M827.63,-175.99C867.14,-165.76 919.97,-152.09 956.58,-142.61"/>
<polygon fill="#63b8ff" stroke="#63b8ff" points="957.65,-145.95 966.46,-140.05 955.9,-139.17 957.65,-145.95"/>
</a>
</g>
</g>
<!-- Node3 -->
<g id="Node000003" class="node">
<title>Node3</title>
<g id="a_Node000003"><a xlink:title=" ">
<polygon fill="#e0e0e0" stroke="#999999" points="657.5,-19 569.5,-19 569.5,0 657.5,0 657.5,-19"/>
<text text-anchor="middle" x="613.5" y="-7" font-family="Malgun Gothic" font-size="10.00">CoreMinimal.h</text>
</a>
</g>
</g>
<!-- Node2&#45;&gt;Node3 -->
<g id="edge2_Node000002_Node000003" class="edge">
<title>Node2&#45;&gt;Node3</title>
<g id="a_edge2_Node000002_Node000003"><a xlink:title=" ">
<path fill="none" stroke="#63b8ff" d="M851.81,-120.83C842.85,-105.13 821.75,-72.04 794.5,-55 756.26,-31.08 706,-20.02 668.14,-14.9"/>
<polygon fill="#63b8ff" stroke="#63b8ff" points="668.17,-11.38 657.82,-13.61 667.31,-18.32 668.17,-11.38"/>
</a>
</g>
</g>
<!-- Node4 -->
<g id="Node000004" class="node">
<title>Node4</title>
<g id="a_Node000004"><a xlink:title=" ">
<polygon fill="#e0e0e0" stroke="#999999" points="951,-79.5 842,-79.5 842,-60.5 951,-60.5 951,-79.5"/>
<text text-anchor="middle" x="896.5" y="-67.5" font-family="Malgun Gothic" font-size="10.00">Widgets/SWidget.h</text>
</a>
</g>
</g>
<!-- Node2&#45;&gt;Node4 -->
<g id="edge3_Node000002_Node000004" class="edge">
<title>Node2&#45;&gt;Node4</title>
<g id="a_edge3_Node000002_Node000004"><a xlink:title=" ">
<path fill="none" stroke="#63b8ff" d="M862.4,-120.87C868.25,-112.31 877.37,-98.97 884.71,-88.24"/>
<polygon fill="#63b8ff" stroke="#63b8ff" points="887.82,-89.9 890.57,-79.67 882.04,-85.95 887.82,-89.9"/>
</a>
</g>
</g>
<!-- Node5 -->
<g id="Node000005" class="node">
<title>Node5</title>
<g id="a_Node000005"><a xlink:title=" ">
<polygon fill="#e0e0e0" stroke="#999999" points="1099.5,-85 969.5,-85 969.5,-55 1099.5,-55 1099.5,-85"/>
<text text-anchor="start" x="977.5" y="-73" font-family="Malgun Gothic" font-size="10.00">Framework/Commands</text>
<text text-anchor="middle" x="1034.5" y="-62" font-family="Malgun Gothic" font-size="10.00">/UIAction.h</text>
</a>
</g>
</g>
<!-- Node2&#45;&gt;Node5 -->
<g id="edge4_Node000002_Node000005" class="edge">
<title>Node2&#45;&gt;Node5</title>
<g id="a_edge4_Node000002_Node000005"><a xlink:title=" ">
<path fill="none" stroke="#63b8ff" d="M882.38,-120.99C908.34,-112.46 949.04,-99.09 981.81,-88.32"/>
<polygon fill="#63b8ff" stroke="#63b8ff" points="983.3,-91.51 991.71,-85.06 981.11,-84.86 983.3,-91.51"/>
</a>
</g>
</g>
<!-- Node6&#45;&gt;Node3 -->
<g id="edge6_Node000006_Node000003" class="edge">
<title>Node6&#45;&gt;Node3</title>
<g id="a_edge6_Node000006_Node000003"><a xlink:title=" ">
<path fill="none" stroke="#63b8ff" d="M528.12,-120.94C551.72,-114.67 577.35,-103.81 594.5,-85 608.38,-69.77 612.43,-45.82 613.46,-29.2"/>
<polygon fill="#63b8ff" stroke="#63b8ff" points="616.96,-29.17 613.77,-19.07 609.96,-28.95 616.96,-29.17"/>
</a>
</g>
</g>
<!-- Node7 -->
<g id="Node000007" class="node">
<title>Node7</title>
<g id="a_Node000007"><a xlink:href="FToolbarButtonInfo_8h.html" target="_top" xlink:title="커스터마이즈 가능한 Coffee Toolbar 버튼 정보를 선언합니다.">
<polygon fill="white" stroke="#666666" points="296,-79.5 179,-79.5 179,-60.5 296,-60.5 296,-79.5"/>
<text text-anchor="middle" x="237.5" y="-67.5" font-family="Malgun Gothic" font-size="10.00">FToolbarButtonInfo.h</text>
</a>
</g>
</g>
<!-- Node6&#45;&gt;Node7 -->
<g id="edge7_Node000006_Node000007" class="edge">
<title>Node6&#45;&gt;Node7</title>
<g id="a_edge7_Node000006_Node000007"><a xlink:title=" ">
<path fill="none" stroke="#63b8ff" d="M435.77,-120.99C394.87,-110.68 325.88,-93.28 281.02,-81.97"/>
<polygon fill="#63b8ff" stroke="#63b8ff" points="281.83,-78.57 271.28,-79.52 280.12,-85.36 281.83,-78.57"/>
</a>
</g>
</g>
<!-- Node9 -->
<g id="Node000009" class="node">
<title>Node9</title>
<g id="a_Node000009"><a xlink:title=" ">
<polygon fill="#e0e0e0" stroke="#999999" points="585.5,-79.5 433.5,-79.5 433.5,-60.5 585.5,-60.5 585.5,-79.5"/>
<text text-anchor="middle" x="509.5" y="-67.5" font-family="Malgun Gothic" font-size="10.00">Engine/DeveloperSettings.h</text>
</a>
</g>
</g>
<!-- Node6&#45;&gt;Node9 -->
<g id="edge10_Node000006_Node000009" class="edge">
<title>Node6&#45;&gt;Node9</title>
<g id="a_edge10_Node000006_Node000009"><a xlink:title=" ">
<path fill="none" stroke="#63b8ff" d="M475.4,-120.87C481.25,-112.31 490.37,-98.97 497.71,-88.24"/>
<polygon fill="#63b8ff" stroke="#63b8ff" points="500.82,-89.9 503.57,-79.67 495.04,-85.95 500.82,-89.9"/>
</a>
</g>
</g>
<!-- Node10 -->
<g id="Node000010" class="node">
<title>Node10</title>
<g id="a_Node000010"><a xlink:href="FFolderPathInfo_8h.html" target="_top" xlink:title=" ">
<polygon fill="white" stroke="#666666" points="415,-79.5 314,-79.5 314,-60.5 415,-60.5 415,-79.5"/>
<text text-anchor="middle" x="364.5" y="-67.5" font-family="Malgun Gothic" font-size="10.00">FFolderPathInfo.h</text>
</a>
</g>
</g>
<!-- Node6&#45;&gt;Node10 -->
<g id="edge11_Node000006_Node000010" class="edge">
<title>Node6&#45;&gt;Node10</title>
<g id="a_edge11_Node000006_Node000010"><a xlink:title=" ">
<path fill="none" stroke="#63b8ff" d="M454.01,-120.87C436.87,-111.32 409.03,-95.81 388.94,-84.62"/>
<polygon fill="#63b8ff" stroke="#63b8ff" points="390.5,-81.48 380.06,-79.67 387.09,-87.59 390.5,-81.48"/>
</a>
</g>
</g>
<!-- Node12 -->
<g id="Node000012" class="node">
<title>Node12</title>
<g id="a_Node000012"><a xlink:title=" ">
<polygon fill="#e0e0e0" stroke="#999999" points="161,-79.5 0,-79.5 0,-60.5 161,-60.5 161,-79.5"/>
<text text-anchor="middle" x="80.5" y="-67.5" font-family="Malgun Gothic" font-size="10.00">UToolbarSettings.generated.h</text>
</a>
</g>
</g>
<!-- Node6&#45;&gt;Node12 -->
<g id="edge14_Node000006_Node000012" class="edge">
<title>Node6&#45;&gt;Node12</title>
<g id="a_edge14_Node000006_Node000012"><a xlink:title=" ">
<path fill="none" stroke="#63b8ff" d="M411.12,-121C350.65,-112.15 253.43,-97.83 169.5,-85 161.28,-83.74 152.63,-82.4 144.09,-81.07"/>
<polygon fill="#63b8ff" stroke="#63b8ff" points="144.56,-77.6 134.14,-79.52 143.48,-84.52 144.56,-77.6"/>
</a>
</g>
</g>
<!-- Node7&#45;&gt;Node3 -->
<g id="edge8_Node000007_Node000003" class="edge">
<title>Node7&#45;&gt;Node3</title>
<g id="a_edge8_Node000007_Node000003"><a xlink:title=" ">
<path fill="none" stroke="#63b8ff" d="M276.39,-60.44C285.59,-58.54 295.37,-56.61 304.5,-55 393.49,-39.31 497.62,-25.18 559.43,-17.24"/>
<polygon fill="#63b8ff" stroke="#63b8ff" points="559.88,-20.71 569.35,-15.97 558.99,-13.77 559.88,-20.71"/>
</a>
</g>
</g>
<!-- Node8 -->
<g id="Node000008" class="node">
<title>Node8</title>
<g id="a_Node000008"><a xlink:title=" ">
<polygon fill="#e0e0e0" stroke="#999999" points="296.5,-19 126.5,-19 126.5,0 296.5,0 296.5,-19"/>
<text text-anchor="middle" x="211.5" y="-7" font-family="Malgun Gothic" font-size="10.00">FToolbarButtonInfo.generated.h</text>
</a>
</g>
</g>
<!-- Node7&#45;&gt;Node8 -->
<g id="edge9_Node000007_Node000008" class="edge">
<title>Node7&#45;&gt;Node8</title>
<g id="a_edge9_Node000007_Node000008"><a xlink:title=" ">
<path fill="none" stroke="#63b8ff" d="M233.66,-60.37C229.94,-51.99 224.17,-39.01 219.45,-28.39"/>
<polygon fill="#63b8ff" stroke="#63b8ff" points="222.61,-26.88 215.35,-19.17 216.22,-29.73 222.61,-26.88"/>
</a>
</g>
</g>
<!-- Node10&#45;&gt;Node3 -->
<g id="edge12_Node000010_Node000003" class="edge">
<title>Node10&#45;&gt;Node3</title>
<g id="a_edge12_Node000010_Node000003"><a xlink:title=" ">
<path fill="none" stroke="#63b8ff" d="M400.71,-60.49C444.78,-50.14 519.27,-32.64 567.4,-21.33"/>
<polygon fill="#63b8ff" stroke="#63b8ff" points="568.32,-24.71 577.25,-19.02 566.71,-17.9 568.32,-24.71"/>
</a>
</g>
</g>
<!-- Node11 -->
<g id="Node000011" class="node">
<title>Node11</title>
<g id="a_Node000011"><a xlink:title=" ">
<polygon fill="#e0e0e0" stroke="#999999" points="468.5,-19 314.5,-19 314.5,0 468.5,0 468.5,-19"/>
<text text-anchor="middle" x="391.5" y="-7" font-family="Malgun Gothic" font-size="10.00">FFolderPathInfo.generated.h</text>
</a>
</g>
</g>
<!-- Node10&#45;&gt;Node11 -->
<g id="edge13_Node000010_Node000011" class="edge">
<title>Node10&#45;&gt;Node11</title>
<g id="a_edge13_Node000010_Node000011"><a xlink:title=" ">
<path fill="none" stroke="#63b8ff" d="M368.48,-60.37C372.35,-51.99 378.34,-39.01 383.24,-28.39"/>
<polygon fill="#63b8ff" stroke="#63b8ff" points="386.49,-29.71 387.5,-19.17 380.13,-26.78 386.49,-29.71"/>
</a>
</g>
</g>
<!-- Node13&#45;&gt;Node3 -->
<g id="edge16_Node000013_Node000003" class="edge">
<title>Node13&#45;&gt;Node3</title>
<g id="a_edge16_Node000013_Node000003"><a xlink:title=" ">
<path fill="none" stroke="#63b8ff" d="M684.96,-120.94C672.37,-101.48 641.39,-53.6 624.66,-27.74"/>
<polygon fill="#63b8ff" stroke="#63b8ff" points="627.57,-25.8 619.2,-19.3 621.69,-29.6 627.57,-25.8"/>
</a>
</g>
</g>
<!-- Node14 -->
<g id="Node000014" class="node">
<title>Node14</title>
<g id="a_Node000014"><a xlink:title=" ">
<polygon fill="#e0e0e0" stroke="#999999" points="785.5,-79.5 679.5,-79.5 679.5,-60.5 785.5,-60.5 785.5,-79.5"/>
<text text-anchor="middle" x="732.5" y="-67.5" font-family="Malgun Gothic" font-size="10.00">Styling/AppStyle.h</text>
</a>
</g>
</g>
<!-- Node13&#45;&gt;Node14 -->
<g id="edge17_Node000013_Node000014" class="edge">
<title>Node13&#45;&gt;Node14</title>
<g id="a_edge17_Node000013_Node000014"><a xlink:title=" ">
<path fill="none" stroke="#63b8ff" d="M696.7,-120.87C702.9,-112.23 712.61,-98.7 720.36,-87.92"/>
<polygon fill="#63b8ff" stroke="#63b8ff" points="723.29,-89.83 726.28,-79.67 717.6,-85.75 723.29,-89.83"/>
</a>
</g>
</g>
</g>
</svg>
