<?xml version="1.0" encoding="UTF-8" standalone="no"?>
<!DOCTYPE svg PUBLIC "-//W3C//DTD SVG 1.1//EN"
 "http://www.w3.org/Graphics/SVG/1.1/DTD/svg11.dtd">
<!-- Generated by graphviz version 2.43.0 (0)
 -->
<!-- Title: Source/CoffeeToolbar/Public/Common/FCommon.h Pages: 1 -->
<svg width="812pt" height="115pt"
 viewBox="0.00 0.00 811.50 115.00" xmlns="http://www.w3.org/2000/svg" xmlns:xlink="http://www.w3.org/1999/xlink">
<g id="graph0" class="graph" transform="scale(1 1) rotate(0) translate(4 111)">
<title>Source/CoffeeToolbar/Public/Common/FCommon.h</title>
<!-- Node1 -->
<g id="Node000001" class="node">
<title>Node1</title>
<g id="a_Node000001"><a xlink:title="Coffee Toolbar 플러그인을 위한 공용 유틸리티 헬퍼를 선언합니다.">
<polygon fill="#999999" stroke="#666666" points="506,-107 348,-107 348,-77 506,-77 506,-107"/>
<text text-anchor="start" x="356" y="-95" font-family="Malgun Gothic" font-size="10.00">Source/CoffeeToolbar</text>
<text text-anchor="middle" x="427" y="-84" font-family="Malgun Gothic" font-size="10.00">/Public/Common/FCommon.h</text>
</a>
</g>
</g>
<!-- Node2 -->
<g id="Node000002" class="node">
<title>Node2</title>
<g id="a_Node000002"><a xlink:href="FCommandFeature_8cpp.html" target="_top" xlink:title="Coffee Toolbar용 명령 실행 보조 기능을 구현합니다.">
<polygon fill="white" stroke="#666666" points="224,-35.5 0,-35.5 0,-5.5 224,-5.5 224,-35.5"/>
<text text-anchor="start" x="8" y="-23.5" font-family="Malgun Gothic" font-size="10.00">Source/CoffeeToolbar</text>
<text text-anchor="middle" x="112" y="-12.5" font-family="Malgun Gothic" font-size="10.00">/Private/Command/FCommandFeature.cpp</text>
</a>
</g>
</g>
<!-- Node1&#45;&gt;Node2 -->
<g id="edge1_Node000001_Node000002" class="edge">
<title>Node1&#45;&gt;Node2</title>
<g id="a_edge1_Node000001_Node000002"><a xlink:title=" ">
<path fill="none" stroke="#63b8ff" d="M353.41,-74.76C299.51,-62.87 227.07,-46.89 175.65,-35.54"/>
<polygon fill="#63b8ff" stroke="#63b8ff" points="352.74,-78.2 363.26,-76.94 354.24,-71.36 352.74,-78.2"/>
</a>
</g>
</g>
<!-- Node3 -->
<g id="Node000003" class="node">
<title>Node3</title>
<g id="a_Node000003"><a xlink:href="FCommon_8cpp.html" target="_top" xlink:title="Coffee Toolbar 플러그인을 위한 공용 헬퍼 유틸리티를 구현합니다.">
<polygon fill="white" stroke="#666666" points="417.5,-35.5 242.5,-35.5 242.5,-5.5 417.5,-5.5 417.5,-35.5"/>
<text text-anchor="start" x="250.5" y="-23.5" font-family="Malgun Gothic" font-size="10.00">Source/CoffeeToolbar</text>
<text text-anchor="middle" x="330" y="-12.5" font-family="Malgun Gothic" font-size="10.00">/Private/Common/FCommon.cpp</text>
</a>
</g>
</g>
<!-- Node1&#45;&gt;Node3 -->
<g id="edge2_Node000001_Node000003" class="edge">
<title>Node1&#45;&gt;Node3</title>
<g id="a_edge2_Node000001_Node000003"><a xlink:title=" ">
<path fill="none" stroke="#63b8ff" d="M399,-70.94C383.18,-59.6 363.79,-45.71 349.6,-35.54"/>
<polygon fill="#63b8ff" stroke="#63b8ff" points="397.2,-73.96 407.37,-76.94 401.28,-68.27 397.2,-73.96"/>
</a>
</g>
</g>
<!-- Node4 -->
<g id="Node000004" class="node">
<title>Node4</title>
<g id="a_Node000004"><a xlink:href="FLevelFeature_8cpp.html" target="_top" xlink:title="Coffee Toolbar에서 레벨 선택을 돕는 헬퍼 기능을 구현합니다.">
<polygon fill="white" stroke="#666666" points="612,-35.5 436,-35.5 436,-5.5 612,-5.5 612,-35.5"/>
<text text-anchor="start" x="444" y="-23.5" font-family="Malgun Gothic" font-size="10.00">Source/CoffeeToolbar</text>
<text text-anchor="middle" x="524" y="-12.5" font-family="Malgun Gothic" font-size="10.00">/Private/Level/FLevelFeature.cpp</text>
</a>
</g>
</g>
<!-- Node1&#45;&gt;Node4 -->
<g id="edge3_Node000001_Node000004" class="edge">
<title>Node1&#45;&gt;Node4</title>
<g id="a_edge3_Node000001_Node000004"><a xlink:title=" ">
<path fill="none" stroke="#63b8ff" d="M455,-70.94C470.82,-59.6 490.21,-45.71 504.4,-35.54"/>
<polygon fill="#63b8ff" stroke="#63b8ff" points="452.72,-68.27 446.63,-76.94 456.8,-73.96 452.72,-68.27"/>
</a>
</g>
</g>
<!-- Node5 -->
<g id="Node000005" class="node">
<title>Node5</title>
<g id="a_Node000005"><a xlink:href="FScreenshotFeature_8cpp.html" target="_top" xlink:title="Coffee Toolbar의 스크린샷 캡처 헬퍼 기능을 구현합니다.">
<polygon fill="white" stroke="#666666" points="803.5,-41 630.5,-41 630.5,0 803.5,0 803.5,-41"/>
<text text-anchor="start" x="638.5" y="-29" font-family="Malgun Gothic" font-size="10.00">Source/CoffeeToolbar</text>
<text text-anchor="start" x="638.5" y="-18" font-family="Malgun Gothic" font-size="10.00">/Private/Screenshot/FScreenshot</text>
<text text-anchor="middle" x="717" y="-7" font-family="Malgun Gothic" font-size="10.00">Feature.cpp</text>
</a>
</g>
</g>
<!-- Node1&#45;&gt;Node5 -->
<g id="edge4_Node000001_Node000005" class="edge">
<title>Node1&#45;&gt;Node5</title>
<g id="a_edge4_Node000001_Node000005"><a xlink:title=" ">
<path fill="none" stroke="#63b8ff" d="M495.54,-74.57C537.51,-64.52 591.46,-51.59 635.6,-41.01"/>
<polygon fill="#63b8ff" stroke="#63b8ff" points="494.59,-71.2 485.69,-76.94 496.23,-78.01 494.59,-71.2"/>
</a>
</g>
</g>
</g>
</svg>
