<?xml version="1.0" encoding="UTF-8" standalone="no"?>
<!DOCTYPE svg PUBLIC "-//W3C//DTD SVG 1.1//EN"
 "http://www.w3.org/Graphics/SVG/1.1/DTD/svg11.dtd">
<!-- Generated by graphviz version 2.43.0 (0)
 -->
<!-- Title: Source/CoffeeToolbar/Private/Common/FCommon.cpp Pages: 1 -->
<svg width="522pt" height="159pt"
 viewBox="0.00 0.00 521.50 159.00" xmlns="http://www.w3.org/2000/svg" xmlns:xlink="http://www.w3.org/1999/xlink">
<g id="graph0" class="graph" transform="scale(1 1) rotate(0) translate(4 155)">
<title>Source/CoffeeToolbar/Private/Common/FCommon.cpp</title>
<!-- Node1 -->
<g id="Node000001" class="node">
<title>Node1</title>
<g id="a_Node000001"><a xlink:title="Coffee Toolbar 플러그인을 위한 공용 헬퍼 유틸리티를 구현합니다.">
<polygon fill="#999999" stroke="#666666" points="384.5,-151 209.5,-151 209.5,-121 384.5,-121 384.5,-151"/>
<text text-anchor="start" x="217.5" y="-139" font-family="Malgun Gothic" font-size="10.00">Source/CoffeeToolbar</text>
<text text-anchor="middle" x="297" y="-128" font-family="Malgun Gothic" font-size="10.00">/Private/Common/FCommon.cpp</text>
</a>
</g>
</g>
<!-- Node2 -->
<g id="Node000002" class="node">
<title>Node2</title>
<g id="a_Node000002"><a xlink:href="FCommon_8h.html" target="_top" xlink:title="Coffee Toolbar 플러그인을 위한 공용 유틸리티 헬퍼를 선언합니다.">
<polygon fill="white" stroke="#666666" points="209.5,-79.5 86.5,-79.5 86.5,-60.5 209.5,-60.5 209.5,-79.5"/>
<text text-anchor="middle" x="148" y="-67.5" font-family="Malgun Gothic" font-size="10.00">Common/FCommon.h</text>
</a>
</g>
</g>
<!-- Node1&#45;&gt;Node2 -->
<g id="edge1_Node000001_Node000002" class="edge">
<title>Node1&#45;&gt;Node2</title>
<g id="a_edge1_Node000001_Node000002"><a xlink:title=" ">
<path fill="none" stroke="#63b8ff" d="M264.3,-120.95C238.29,-109.78 202.22,-94.29 177.17,-83.53"/>
<polygon fill="#63b8ff" stroke="#63b8ff" points="178.4,-80.25 167.83,-79.52 175.64,-86.68 178.4,-80.25"/>
</a>
</g>
</g>
<!-- Node5 -->
<g id="Node000005" class="node">
<title>Node5</title>
<g id="a_Node000005"><a xlink:href="FToolbarStyle_8h.html" target="_top" xlink:title="Coffee Toolbar 플러그인이 사용하는 Slate 스타일 세트를 선언합니다.">
<polygon fill="white" stroke="#666666" points="366,-79.5 228,-79.5 228,-60.5 366,-60.5 366,-79.5"/>
<text text-anchor="middle" x="297" y="-67.5" font-family="Malgun Gothic" font-size="10.00">Common/FToolbarStyle.h</text>
</a>
</g>
</g>
<!-- Node1&#45;&gt;Node5 -->
<g id="edge4_Node000001_Node000005" class="edge">
<title>Node1&#45;&gt;Node5</title>
<g id="a_edge4_Node000001_Node000005"><a xlink:title=" ">
<path fill="none" stroke="#63b8ff" d="M297,-120.8C297,-111.7 297,-99.79 297,-89.9"/>
<polygon fill="#63b8ff" stroke="#63b8ff" points="300.5,-89.84 297,-79.84 293.5,-89.84 300.5,-89.84"/>
</a>
</g>
</g>
<!-- Node7 -->
<g id="Node000007" class="node">
<title>Node7</title>
<g id="a_Node000007"><a xlink:title=" ">
<polygon fill="#e0e0e0" stroke="#999999" points="513.5,-85 384.5,-85 384.5,-55 513.5,-55 513.5,-85"/>
<text text-anchor="start" x="392.5" y="-73" font-family="Malgun Gothic" font-size="10.00">Framework/Application</text>
<text text-anchor="middle" x="449" y="-62" font-family="Malgun Gothic" font-size="10.00">/SlateApplication.h</text>
</a>
</g>
</g>
<!-- Node1&#45;&gt;Node7 -->
<g id="edge6_Node000001_Node000007" class="edge">
<title>Node1&#45;&gt;Node7</title>
<g id="a_edge6_Node000001_Node000007"><a xlink:title=" ">
<path fill="none" stroke="#63b8ff" d="M330.36,-120.95C352.73,-111.53 382.39,-99.04 406.46,-88.91"/>
<polygon fill="#63b8ff" stroke="#63b8ff" points="407.86,-92.12 415.72,-85.01 405.15,-85.67 407.86,-92.12"/>
</a>
</g>
</g>
<!-- Node3 -->
<g id="Node000003" class="node">
<title>Node3</title>
<g id="a_Node000003"><a xlink:title=" ">
<polygon fill="#e0e0e0" stroke="#999999" points="88,-19 0,-19 0,0 88,0 88,-19"/>
<text text-anchor="middle" x="44" y="-7" font-family="Malgun Gothic" font-size="10.00">CoreMinimal.h</text>
</a>
</g>
</g>
<!-- Node2&#45;&gt;Node3 -->
<g id="edge2_Node000002_Node000003" class="edge">
<title>Node2&#45;&gt;Node3</title>
<g id="a_edge2_Node000002_Node000003"><a xlink:title=" ">
<path fill="none" stroke="#63b8ff" d="M132.65,-60.37C115.68,-50.82 88.1,-35.31 68.21,-24.12"/>
<polygon fill="#63b8ff" stroke="#63b8ff" points="69.84,-21.02 59.41,-19.17 66.41,-27.12 69.84,-21.02"/>
</a>
</g>
</g>
<!-- Node4 -->
<g id="Node000004" class="node">
<title>Node4</title>
<g id="a_Node000004"><a xlink:title=" ">
<polygon fill="#e0e0e0" stroke="#999999" points="212,-19 106,-19 106,0 212,0 212,-19"/>
<text text-anchor="middle" x="159" y="-7" font-family="Malgun Gothic" font-size="10.00">Styling/AppStyle.h</text>
</a>
</g>
</g>
<!-- Node2&#45;&gt;Node4 -->
<g id="edge3_Node000002_Node000004" class="edge">
<title>Node2&#45;&gt;Node4</title>
<g id="a_edge3_Node000002_Node000004"><a xlink:title=" ">
<path fill="none" stroke="#63b8ff" d="M149.62,-60.37C151.17,-52.16 153.54,-39.54 155.51,-29.05"/>
<polygon fill="#63b8ff" stroke="#63b8ff" points="158.96,-29.64 157.37,-19.17 152.08,-28.35 158.96,-29.64"/>
</a>
</g>
</g>
<!-- Node6 -->
<g id="Node000006" class="node">
<title>Node6</title>
<g id="a_Node000006"><a xlink:title=" ">
<polygon fill="#e0e0e0" stroke="#999999" points="353,-19 241,-19 241,0 353,0 353,-19"/>
<text text-anchor="middle" x="297" y="-7" font-family="Malgun Gothic" font-size="10.00">Styling/SlateStyle.h</text>
</a>
</g>
</g>
<!-- Node5&#45;&gt;Node6 -->
<g id="edge5_Node000005_Node000006" class="edge">
<title>Node5&#45;&gt;Node6</title>
<g id="a_edge5_Node000005_Node000006"><a xlink:title=" ">
<path fill="none" stroke="#63b8ff" d="M297,-60.37C297,-52.25 297,-39.81 297,-29.39"/>
<polygon fill="#63b8ff" stroke="#63b8ff" points="300.5,-29.17 297,-19.17 293.5,-29.17 300.5,-29.17"/>
</a>
</g>
</g>
</g>
</svg>
