<?xml version="1.0" encoding="UTF-8" standalone="no"?>
<!DOCTYPE svg PUBLIC "-//W3C//DTD SVG 1.1//EN"
 "http://www.w3.org/Graphics/SVG/1.1/DTD/svg11.dtd">
<!-- Generated by graphviz version 2.43.0 (0)
 -->
<!-- Title: Source/CoffeeToolbar/Private/Command/FCommandFeature.cpp Pages: 1 -->
<svg width="1016pt" height="214pt"
 viewBox="0.00 0.00 1016.00 214.00" xmlns="http://www.w3.org/2000/svg" xmlns:xlink="http://www.w3.org/1999/xlink">
<g id="graph0" class="graph" transform="scale(1 1) rotate(0) translate(4 210)">
<title>Source/CoffeeToolbar/Private/Command/FCommandFeature.cpp</title>
<!-- Node1 -->
<g id="Node000001" class="node">
<title>Node1</title>
<g id="a_Node000001"><a xlink:title="Coffee Toolbar용 명령 실행 보조 기능을 구현합니다.">
<polygon fill="#999999" stroke="#666666" points="794,-206 570,-206 570,-176 794,-176 794,-206"/>
<text text-anchor="start" x="578" y="-194" font-family="Malgun Gothic" font-size="10.00">Source/CoffeeToolbar</text>
<text text-anchor="middle" x="682" y="-183" font-family="Malgun Gothic" font-size="10.00">/Private/Command/FCommandFeature.cpp</text>
</a>
</g>
</g>
<!-- Node2 -->
<g id="Node000002" class="node">
<title>Node2</title>
<g id="a_Node000002"><a xlink:href="FCommandFeature_8h.html" target="_top" xlink:title="명령형 버튼을 담당하는 툴바 기능을 선언합니다.">
<polygon fill="white" stroke="#666666" points="851,-140 679,-140 679,-121 851,-121 851,-140"/>
<text text-anchor="middle" x="765" y="-128" font-family="Malgun Gothic" font-size="10.00">Command/FCommandFeature.h</text>
</a>
</g>
</g>
<!-- Node1&#45;&gt;Node2 -->
<g id="edge1_Node000001_Node000002" class="edge">
<title>Node1&#45;&gt;Node2</title>
<g id="a_edge1_Node000001_Node000002"><a xlink:title=" ">
<path fill="none" stroke="#63b8ff" d="M702.09,-175.84C714.88,-166.83 731.4,-155.18 744.3,-146.09"/>
<polygon fill="#63b8ff" stroke="#63b8ff" points="746.41,-148.89 752.56,-140.27 742.37,-143.17 746.41,-148.89"/>
</a>
</g>
</g>
<!-- Node6 -->
<g id="Node000006" class="node">
<title>Node6</title>
<g id="a_Node000006"><a xlink:href="UToolbarSettings_8h.html" target="_top" xlink:title="Coffee Toolbar 플러그인을 구성하기 위한 개발자 설정을 선언합니다.">
<polygon fill="white" stroke="#666666" points="351.5,-140 200.5,-140 200.5,-121 351.5,-121 351.5,-140"/>
<text text-anchor="middle" x="276" y="-128" font-family="Malgun Gothic" font-size="10.00">Settings/UToolbarSettings.h</text>
</a>
</g>
</g>
<!-- Node1&#45;&gt;Node6 -->
<g id="edge5_Node000001_Node000006" class="edge">
<title>Node1&#45;&gt;Node6</title>
<g id="a_edge5_Node000001_Node000006"><a xlink:title=" ">
<path fill="none" stroke="#63b8ff" d="M584.75,-175.99C510.93,-165.35 411.23,-150.99 345.34,-141.49"/>
<polygon fill="#63b8ff" stroke="#63b8ff" points="345.46,-137.97 335.07,-140.01 344.47,-144.9 345.46,-137.97"/>
</a>
</g>
</g>
<!-- Node11 -->
<g id="Node000011" class="node">
<title>Node11</title>
<g id="a_Node000011"><a xlink:href="FCommon_8h.html" target="_top" xlink:title="Coffee Toolbar 플러그인을 위한 공용 유틸리티 헬퍼를 선언합니다.">
<polygon fill="white" stroke="#666666" points="660.5,-140 537.5,-140 537.5,-121 660.5,-121 660.5,-140"/>
<text text-anchor="middle" x="599" y="-128" font-family="Malgun Gothic" font-size="10.00">Common/FCommon.h</text>
</a>
</g>
</g>
<!-- Node1&#45;&gt;Node11 -->
<g id="edge12_Node000001_Node000011" class="edge">
<title>Node1&#45;&gt;Node11</title>
<g id="a_edge12_Node000001_Node000011"><a xlink:title=" ">
<path fill="none" stroke="#63b8ff" d="M661.91,-175.84C649.12,-166.83 632.6,-155.18 619.7,-146.09"/>
<polygon fill="#63b8ff" stroke="#63b8ff" points="621.63,-143.17 611.44,-140.27 617.59,-148.89 621.63,-143.17"/>
</a>
</g>
</g>
<!-- Node13 -->
<g id="Node000013" class="node">
<title>Node13</title>
<g id="a_Node000013"><a xlink:title=" ">
<polygon fill="#e0e0e0" stroke="#999999" points="946.5,-140 869.5,-140 869.5,-121 946.5,-121 946.5,-140"/>
<text text-anchor="middle" x="908" y="-128" font-family="Malgun Gothic" font-size="10.00">ToolMenus.h</text>
</a>
</g>
</g>
<!-- Node1&#45;&gt;Node13 -->
<g id="edge15_Node000001_Node000013" class="edge">
<title>Node1&#45;&gt;Node13</title>
<g id="a_edge15_Node000001_Node000013"><a xlink:title=" ">
<path fill="none" stroke="#63b8ff" d="M736.13,-175.99C775.64,-165.76 828.47,-152.09 865.08,-142.61"/>
<polygon fill="#63b8ff" stroke="#63b8ff" points="866.15,-145.95 874.96,-140.05 864.4,-139.17 866.15,-145.95"/>
</a>
</g>
</g>
<!-- Node3 -->
<g id="Node000003" class="node">
<title>Node3</title>
<g id="a_Node000003"><a xlink:title=" ">
<polygon fill="#e0e0e0" stroke="#999999" points="440,-19 352,-19 352,0 440,0 440,-19"/>
<text text-anchor="middle" x="396" y="-7" font-family="Malgun Gothic" font-size="10.00">CoreMinimal.h</text>
</a>
</g>
</g>
<!-- Node2&#45;&gt;Node3 -->
<g id="edge2_Node000002_Node000003" class="edge">
<title>Node2&#45;&gt;Node3</title>
<g id="a_edge2_Node000002_Node000003"><a xlink:title=" ">
<path fill="none" stroke="#63b8ff" d="M760.6,-120.82C751.97,-104.8 731.19,-70.78 703,-55 660.81,-31.38 526.78,-19 450.49,-13.72"/>
<polygon fill="#63b8ff" stroke="#63b8ff" points="450.34,-10.2 440.13,-13.02 449.87,-17.18 450.34,-10.2"/>
</a>
</g>
</g>
<!-- Node4 -->
<g id="Node000004" class="node">
<title>Node4</title>
<g id="a_Node000004"><a xlink:title=" ">
<polygon fill="#e0e0e0" stroke="#999999" points="859.5,-79.5 750.5,-79.5 750.5,-60.5 859.5,-60.5 859.5,-79.5"/>
<text text-anchor="middle" x="805" y="-67.5" font-family="Malgun Gothic" font-size="10.00">Widgets/SWidget.h</text>
</a>
</g>
</g>
<!-- Node2&#45;&gt;Node4 -->
<g id="edge3_Node000002_Node000004" class="edge">
<title>Node2&#45;&gt;Node4</title>
<g id="a_edge3_Node000002_Node000004"><a xlink:title=" ">
<path fill="none" stroke="#63b8ff" d="M770.9,-120.87C776.75,-112.31 785.87,-98.97 793.21,-88.24"/>
<polygon fill="#63b8ff" stroke="#63b8ff" points="796.32,-89.9 799.07,-79.67 790.54,-85.95 796.32,-89.9"/>
</a>
</g>
</g>
<!-- Node5 -->
<g id="Node000005" class="node">
<title>Node5</title>
<g id="a_Node000005"><a xlink:title=" ">
<polygon fill="#e0e0e0" stroke="#999999" points="1008,-85 878,-85 878,-55 1008,-55 1008,-85"/>
<text text-anchor="start" x="886" y="-73" font-family="Malgun Gothic" font-size="10.00">Framework/Commands</text>
<text text-anchor="middle" x="943" y="-62" font-family="Malgun Gothic" font-size="10.00">/UIAction.h</text>
</a>
</g>
</g>
<!-- Node2&#45;&gt;Node5 -->
<g id="edge4_Node000002_Node000005" class="edge">
<title>Node2&#45;&gt;Node5</title>
<g id="a_edge4_Node000002_Node000005"><a xlink:title=" ">
<path fill="none" stroke="#63b8ff" d="M790.88,-120.99C816.84,-112.46 857.54,-99.09 890.31,-88.32"/>
<polygon fill="#63b8ff" stroke="#63b8ff" points="891.8,-91.51 900.21,-85.06 889.61,-84.86 891.8,-91.51"/>
</a>
</g>
</g>
<!-- Node6&#45;&gt;Node3 -->
<g id="edge6_Node000006_Node000003" class="edge">
<title>Node6&#45;&gt;Node3</title>
<g id="a_edge6_Node000006_Node000003"><a xlink:title=" ">
<path fill="none" stroke="#63b8ff" d="M241.78,-120.93C223.29,-114.37 202.04,-103.24 191,-85 184.1,-73.59 182.63,-65.38 191,-55 209.58,-31.96 287.19,-20.24 341.39,-14.75"/>
<polygon fill="#63b8ff" stroke="#63b8ff" points="341.95,-18.21 351.56,-13.77 341.27,-11.25 341.95,-18.21"/>
</a>
</g>
</g>
<!-- Node7 -->
<g id="Node000007" class="node">
<title>Node7</title>
<g id="a_Node000007"><a xlink:href="FToolbarButtonInfo_8h.html" target="_top" xlink:title="커스터마이즈 가능한 Coffee Toolbar 버튼 정보를 선언합니다.">
<polygon fill="white" stroke="#666666" points="143.5,-79.5 26.5,-79.5 26.5,-60.5 143.5,-60.5 143.5,-79.5"/>
<text text-anchor="middle" x="85" y="-67.5" font-family="Malgun Gothic" font-size="10.00">FToolbarButtonInfo.h</text>
</a>
</g>
</g>
<!-- Node6&#45;&gt;Node7 -->
<g id="edge7_Node000006_Node000007" class="edge">
<title>Node6&#45;&gt;Node7</title>
<g id="a_edge7_Node000006_Node000007"><a xlink:title=" ">
<path fill="none" stroke="#63b8ff" d="M248.23,-120.99C215.13,-110.86 159.66,-93.87 122.71,-82.55"/>
<polygon fill="#63b8ff" stroke="#63b8ff" points="123.39,-79.1 112.81,-79.52 121.34,-85.79 123.39,-79.1"/>
</a>
</g>
</g>
<!-- Node9 -->
<g id="Node000009" class="node">
<title>Node9</title>
<g id="a_Node000009"><a xlink:title=" ">
<polygon fill="#e0e0e0" stroke="#999999" points="352,-79.5 200,-79.5 200,-60.5 352,-60.5 352,-79.5"/>
<text text-anchor="middle" x="276" y="-67.5" font-family="Malgun Gothic" font-size="10.00">Engine/DeveloperSettings.h</text>
</a>
</g>
</g>
<!-- Node6&#45;&gt;Node9 -->
<g id="edge10_Node000006_Node000009" class="edge">
<title>Node6&#45;&gt;Node9</title>
<g id="a_edge10_Node000006_Node000009"><a xlink:title=" ">
<path fill="none" stroke="#63b8ff" d="M276,-120.87C276,-112.75 276,-100.31 276,-89.89"/>
<polygon fill="#63b8ff" stroke="#63b8ff" points="279.5,-89.67 276,-79.67 272.5,-89.67 279.5,-89.67"/>
</a>
</g>
</g>
<!-- Node10 -->
<g id="Node000010" class="node">
<title>Node10</title>
<g id="a_Node000010"><a xlink:title=" ">
<polygon fill="#e0e0e0" stroke="#999999" points="531.5,-79.5 370.5,-79.5 370.5,-60.5 531.5,-60.5 531.5,-79.5"/>
<text text-anchor="middle" x="451" y="-67.5" font-family="Malgun Gothic" font-size="10.00">UToolbarSettings.generated.h</text>
</a>
</g>
</g>
<!-- Node6&#45;&gt;Node10 -->
<g id="edge11_Node000006_Node000010" class="edge">
<title>Node6&#45;&gt;Node10</title>
<g id="a_edge11_Node000006_Node000010"><a xlink:title=" ">
<path fill="none" stroke="#63b8ff" d="M301.45,-120.99C331.64,-110.9 382.16,-94.01 416.02,-82.69"/>
<polygon fill="#63b8ff" stroke="#63b8ff" points="417.15,-86.01 425.52,-79.52 414.93,-79.37 417.15,-86.01"/>
</a>
</g>
</g>
<!-- Node7&#45;&gt;Node3 -->
<g id="edge8_Node000007_Node000003" class="edge">
<title>Node7&#45;&gt;Node3</title>
<g id="a_edge8_Node000007_Node000003"><a xlink:title=" ">
<path fill="none" stroke="#63b8ff" d="M129.39,-60.45C138.83,-58.64 148.74,-56.75 158,-55 221.04,-43.06 293.52,-29.54 341.77,-20.57"/>
<polygon fill="#63b8ff" stroke="#63b8ff" points="342.49,-23.99 351.69,-18.72 341.21,-17.11 342.49,-23.99"/>
</a>
</g>
</g>
<!-- Node8 -->
<g id="Node000008" class="node">
<title>Node8</title>
<g id="a_Node000008"><a xlink:title=" ">
<polygon fill="#e0e0e0" stroke="#999999" points="170,-19 0,-19 0,0 170,0 170,-19"/>
<text text-anchor="middle" x="85" y="-7" font-family="Malgun Gothic" font-size="10.00">FToolbarButtonInfo.generated.h</text>
</a>
</g>
</g>
<!-- Node7&#45;&gt;Node8 -->
<g id="edge9_Node000007_Node000008" class="edge">
<title>Node7&#45;&gt;Node8</title>
<g id="a_edge9_Node000007_Node000008"><a xlink:title=" ">
<path fill="none" stroke="#63b8ff" d="M85,-60.37C85,-52.25 85,-39.81 85,-29.39"/>
<polygon fill="#63b8ff" stroke="#63b8ff" points="88.5,-29.17 85,-19.17 81.5,-29.17 88.5,-29.17"/>
</a>
</g>
</g>
<!-- Node11&#45;&gt;Node3 -->
<g id="edge13_Node000011_Node000003" class="edge">
<title>Node11&#45;&gt;Node3</title>
<g id="a_edge13_Node000011_Node000003"><a xlink:title=" ">
<path fill="none" stroke="#63b8ff" d="M594.42,-120.73C585.84,-105.17 565.87,-72.71 540,-55 513.25,-36.69 478.67,-25.68 450.09,-19.19"/>
<polygon fill="#63b8ff" stroke="#63b8ff" points="450.77,-15.76 440.26,-17.08 449.3,-22.6 450.77,-15.76"/>
</a>
</g>
</g>
<!-- Node12 -->
<g id="Node000012" class="node">
<title>Node12</title>
<g id="a_Node000012"><a xlink:title=" ">
<polygon fill="#e0e0e0" stroke="#999999" points="694,-79.5 588,-79.5 588,-60.5 694,-60.5 694,-79.5"/>
<text text-anchor="middle" x="641" y="-67.5" font-family="Malgun Gothic" font-size="10.00">Styling/AppStyle.h</text>
</a>
</g>
</g>
<!-- Node11&#45;&gt;Node12 -->
<g id="edge14_Node000011_Node000012" class="edge">
<title>Node11&#45;&gt;Node12</title>
<g id="a_edge14_Node000011_Node000012"><a xlink:title=" ">
<path fill="none" stroke="#63b8ff" d="M605.2,-120.87C611.4,-112.23 621.11,-98.7 628.86,-87.92"/>
<polygon fill="#63b8ff" stroke="#63b8ff" points="631.79,-89.83 634.78,-79.67 626.1,-85.75 631.79,-89.83"/>
</a>
</g>
</g>
</g>
</svg>
