<?xml version="1.0" encoding="UTF-8" standalone="no"?>
<!DOCTYPE svg PUBLIC "-//W3C//DTD SVG 1.1//EN"
 "http://www.w3.org/Graphics/SVG/1.1/DTD/svg11.dtd">
<!-- Generated by graphviz version 2.43.0 (0)
 -->
<!-- Title: Source/CoffeeToolbar/Private/Command/FCommandFeature.cpp Pages: 1 -->
<svg width="846pt" height="159pt"
 viewBox="0.00 0.00 846.00 159.00" xmlns="http://www.w3.org/2000/svg" xmlns:xlink="http://www.w3.org/1999/xlink">
<g id="graph0" class="graph" transform="scale(1 1) rotate(0) translate(4 155)">
<title>Source/CoffeeToolbar/Private/Command/FCommandFeature.cpp</title>
<!-- Node1 -->
<g id="Node000001" class="node">
<title>Node1</title>
<g id="a_Node000001"><a xlink:title="Coffee Toolbar용 명령 실행 보조 기능을 구현합니다.">
<polygon fill="#999999" stroke="#666666" points="648,-151 424,-151 424,-121 648,-121 648,-151"/>
<text text-anchor="start" x="432" y="-139" font-family="Malgun Gothic" font-size="10.00">Source/CoffeeToolbar</text>
<text text-anchor="middle" x="536" y="-128" font-family="Malgun Gothic" font-size="10.00">/Private/Command/FCommandFeature.cpp</text>
</a>
</g>
</g>
<!-- Node2 -->
<g id="Node000002" class="node">
<title>Node2</title>
<g id="a_Node000002"><a xlink:href="FCommandFeature_8h.html" target="_top" xlink:title="명령형 버튼을 담당하는 툴바 기능을 선언합니다.">
<polygon fill="white" stroke="#666666" points="705,-85 533,-85 533,-66 705,-66 705,-85"/>
<text text-anchor="middle" x="619" y="-73" font-family="Malgun Gothic" font-size="10.00">Command/FCommandFeature.h</text>
</a>
</g>
</g>
<!-- Node1&#45;&gt;Node2 -->
<g id="edge1_Node000001_Node000002" class="edge">
<title>Node1&#45;&gt;Node2</title>
<g id="a_edge1_Node000001_Node000002"><a xlink:title=" ">
<path fill="none" stroke="#63b8ff" d="M556.09,-120.84C568.88,-111.83 585.4,-100.18 598.3,-91.09"/>
<polygon fill="#63b8ff" stroke="#63b8ff" points="600.41,-93.89 606.56,-85.27 596.37,-88.17 600.41,-93.89"/>
</a>
</g>
</g>
<!-- Node6 -->
<g id="Node000006" class="node">
<title>Node6</title>
<g id="a_Node000006"><a xlink:href="UToolbarSettings_8h.html" target="_top" xlink:title="Coffee Toolbar 플러그인을 구성하기 위한 개발자 설정을 선언합니다.">
<polygon fill="white" stroke="#666666" points="357.5,-85 206.5,-85 206.5,-66 357.5,-66 357.5,-85"/>
<text text-anchor="middle" x="282" y="-73" font-family="Malgun Gothic" font-size="10.00">Settings/UToolbarSettings.h</text>
</a>
</g>
</g>
<!-- Node1&#45;&gt;Node6 -->
<g id="edge5_Node000001_Node000006" class="edge">
<title>Node1&#45;&gt;Node6</title>
<g id="a_edge5_Node000001_Node000006"><a xlink:title=" ">
<path fill="none" stroke="#63b8ff" d="M475.16,-120.99C430.28,-110.65 370.11,-96.79 328.92,-87.31"/>
<polygon fill="#63b8ff" stroke="#63b8ff" points="329.67,-83.89 319.14,-85.05 328.1,-90.71 329.67,-83.89"/>
</a>
</g>
</g>
<!-- Node9 -->
<g id="Node000009" class="node">
<title>Node9</title>
<g id="a_Node000009"><a xlink:href="FCommon_8h.html" target="_top" xlink:title="Coffee Toolbar 플러그인을 위한 공용 유틸리티 헬퍼를 선언합니다.">
<polygon fill="white" stroke="#666666" points="514.5,-85 391.5,-85 391.5,-66 514.5,-66 514.5,-85"/>
<text text-anchor="middle" x="453" y="-73" font-family="Malgun Gothic" font-size="10.00">Common/FCommon.h</text>
</a>
</g>
</g>
<!-- Node1&#45;&gt;Node9 -->
<g id="edge9_Node000001_Node000009" class="edge">
<title>Node1&#45;&gt;Node9</title>
<g id="a_edge9_Node000001_Node000009"><a xlink:title=" ">
<path fill="none" stroke="#63b8ff" d="M515.91,-120.84C503.12,-111.83 486.6,-100.18 473.7,-91.09"/>
<polygon fill="#63b8ff" stroke="#63b8ff" points="475.63,-88.17 465.44,-85.27 471.59,-93.89 475.63,-88.17"/>
</a>
</g>
</g>
<!-- Node11 -->
<g id="Node000011" class="node">
<title>Node11</title>
<g id="a_Node000011"><a xlink:title=" ">
<polygon fill="#e0e0e0" stroke="#999999" points="800.5,-85 723.5,-85 723.5,-66 800.5,-66 800.5,-85"/>
<text text-anchor="middle" x="762" y="-73" font-family="Malgun Gothic" font-size="10.00">ToolMenus.h</text>
</a>
</g>
</g>
<!-- Node1&#45;&gt;Node11 -->
<g id="edge12_Node000001_Node000011" class="edge">
<title>Node1&#45;&gt;Node11</title>
<g id="a_edge12_Node000001_Node000011"><a xlink:title=" ">
<path fill="none" stroke="#63b8ff" d="M590.13,-120.99C629.64,-110.76 682.47,-97.09 719.08,-87.61"/>
<polygon fill="#63b8ff" stroke="#63b8ff" points="720.15,-90.95 728.96,-85.05 718.4,-84.17 720.15,-90.95"/>
</a>
</g>
</g>
<!-- Node3 -->
<g id="Node000003" class="node">
<title>Node3</title>
<g id="a_Node000003"><a xlink:title=" ">
<polygon fill="#e0e0e0" stroke="#999999" points="438,-24.5 350,-24.5 350,-5.5 438,-5.5 438,-24.5"/>
<text text-anchor="middle" x="394" y="-12.5" font-family="Malgun Gothic" font-size="10.00">CoreMinimal.h</text>
</a>
</g>
</g>
<!-- Node2&#45;&gt;Node3 -->
<g id="edge2_Node000002_Node000003" class="edge">
<title>Node2&#45;&gt;Node3</title>
<g id="a_edge2_Node000002_Node000003"><a xlink:title=" ">
<path fill="none" stroke="#63b8ff" d="M585.69,-65.94C551.03,-57.01 495.19,-42.6 447,-30 443.43,-29.07 439.72,-28.09 436.01,-27.12"/>
<polygon fill="#63b8ff" stroke="#63b8ff" points="436.79,-23.7 426.22,-24.54 435,-30.47 436.79,-23.7"/>
</a>
</g>
</g>
<!-- Node4 -->
<g id="Node000004" class="node">
<title>Node4</title>
<g id="a_Node000004"><a xlink:title=" ">
<polygon fill="#e0e0e0" stroke="#999999" points="689.5,-24.5 580.5,-24.5 580.5,-5.5 689.5,-5.5 689.5,-24.5"/>
<text text-anchor="middle" x="635" y="-12.5" font-family="Malgun Gothic" font-size="10.00">Widgets/SWidget.h</text>
</a>
</g>
</g>
<!-- Node2&#45;&gt;Node4 -->
<g id="edge3_Node000002_Node000004" class="edge">
<title>Node2&#45;&gt;Node4</title>
<g id="a_edge3_Node000002_Node000004"><a xlink:title=" ">
<path fill="none" stroke="#63b8ff" d="M621.36,-65.87C623.61,-57.66 627.06,-45.04 629.93,-34.55"/>
<polygon fill="#63b8ff" stroke="#63b8ff" points="633.37,-35.24 632.63,-24.67 626.62,-33.39 633.37,-35.24"/>
</a>
</g>
</g>
<!-- Node5 -->
<g id="Node000005" class="node">
<title>Node5</title>
<g id="a_Node000005"><a xlink:title=" ">
<polygon fill="#e0e0e0" stroke="#999999" points="838,-30 708,-30 708,0 838,0 838,-30"/>
<text text-anchor="start" x="716" y="-18" font-family="Malgun Gothic" font-size="10.00">Framework/Commands</text>
<text text-anchor="middle" x="773" y="-7" font-family="Malgun Gothic" font-size="10.00">/UIAction.h</text>
</a>
</g>
</g>
<!-- Node2&#45;&gt;Node5 -->
<g id="edge4_Node000002_Node000005" class="edge">
<title>Node2&#45;&gt;Node5</title>
<g id="a_edge4_Node000002_Node000005"><a xlink:title=" ">
<path fill="none" stroke="#63b8ff" d="M641.39,-65.99C663.56,-57.57 698.15,-44.43 726.31,-33.73"/>
<polygon fill="#63b8ff" stroke="#63b8ff" points="727.87,-36.89 735.98,-30.06 725.39,-30.34 727.87,-36.89"/>
</a>
</g>
</g>
<!-- Node6&#45;&gt;Node3 -->
<g id="edge6_Node000006_Node000003" class="edge">
<title>Node6&#45;&gt;Node3</title>
<g id="a_edge6_Node000006_Node000003"><a xlink:title=" ">
<path fill="none" stroke="#63b8ff" d="M298.53,-65.87C316.97,-56.23 347.04,-40.53 368.51,-29.31"/>
<polygon fill="#63b8ff" stroke="#63b8ff" points="370.16,-32.4 377.41,-24.67 366.92,-26.19 370.16,-32.4"/>
</a>
</g>
</g>
<!-- Node7 -->
<g id="Node000007" class="node">
<title>Node7</title>
<g id="a_Node000007"><a xlink:title=" ">
<polygon fill="#e0e0e0" stroke="#999999" points="152,-24.5 0,-24.5 0,-5.5 152,-5.5 152,-24.5"/>
<text text-anchor="middle" x="76" y="-12.5" font-family="Malgun Gothic" font-size="10.00">Engine/DeveloperSettings.h</text>
</a>
</g>
</g>
<!-- Node6&#45;&gt;Node7 -->
<g id="edge7_Node000006_Node000007" class="edge">
<title>Node6&#45;&gt;Node7</title>
<g id="a_edge7_Node000006_Node000007"><a xlink:title=" ">
<path fill="none" stroke="#63b8ff" d="M252.05,-65.99C216.04,-55.77 155.5,-38.58 115.65,-27.26"/>
<polygon fill="#63b8ff" stroke="#63b8ff" points="116.57,-23.88 105.99,-24.52 114.65,-30.62 116.57,-23.88"/>
</a>
</g>
</g>
<!-- Node8 -->
<g id="Node000008" class="node">
<title>Node8</title>
<g id="a_Node000008"><a xlink:title=" ">
<polygon fill="#e0e0e0" stroke="#999999" points="331.5,-24.5 170.5,-24.5 170.5,-5.5 331.5,-5.5 331.5,-24.5"/>
<text text-anchor="middle" x="251" y="-12.5" font-family="Malgun Gothic" font-size="10.00">UToolbarSettings.generated.h</text>
</a>
</g>
</g>
<!-- Node6&#45;&gt;Node8 -->
<g id="edge8_Node000006_Node000008" class="edge">
<title>Node6&#45;&gt;Node8</title>
<g id="a_edge8_Node000006_Node000008"><a xlink:title=" ">
<path fill="none" stroke="#63b8ff" d="M277.43,-65.87C272.94,-57.4 265.97,-44.24 260.31,-33.57"/>
<polygon fill="#63b8ff" stroke="#63b8ff" points="263.37,-31.86 255.59,-24.67 257.18,-35.14 263.37,-31.86"/>
</a>
</g>
</g>
<!-- Node9&#45;&gt;Node3 -->
<g id="edge10_Node000009_Node000003" class="edge">
<title>Node9&#45;&gt;Node3</title>
<g id="a_edge10_Node000009_Node000003"><a xlink:title=" ">
<path fill="none" stroke="#63b8ff" d="M444.29,-65.87C435.32,-56.97 421.12,-42.89 410.09,-31.95"/>
<polygon fill="#63b8ff" stroke="#63b8ff" points="412.31,-29.22 402.74,-24.67 407.38,-34.19 412.31,-29.22"/>
</a>
</g>
</g>
<!-- Node10 -->
<g id="Node000010" class="node">
<title>Node10</title>
<g id="a_Node000010"><a xlink:title=" ">
<polygon fill="#e0e0e0" stroke="#999999" points="562,-24.5 456,-24.5 456,-5.5 562,-5.5 562,-24.5"/>
<text text-anchor="middle" x="509" y="-12.5" font-family="Malgun Gothic" font-size="10.00">Styling/AppStyle.h</text>
</a>
</g>
</g>
<!-- Node9&#45;&gt;Node10 -->
<g id="edge11_Node000009_Node000010" class="edge">
<title>Node9&#45;&gt;Node10</title>
<g id="a_edge11_Node000009_Node000010"><a xlink:title=" ">
<path fill="none" stroke="#63b8ff" d="M461.26,-65.87C469.78,-56.97 483.26,-42.89 493.73,-31.95"/>
<polygon fill="#63b8ff" stroke="#63b8ff" points="496.32,-34.31 500.7,-24.67 491.26,-29.47 496.32,-34.31"/>
</a>
</g>
</g>
</g>
</svg>
