<?xml version="1.0" encoding="UTF-8" standalone="no"?>
<!DOCTYPE svg PUBLIC "-//W3C//DTD SVG 1.1//EN"
 "http://www.w3.org/Graphics/SVG/1.1/DTD/svg11.dtd">
<!-- Generated by graphviz version 2.43.0 (0)
 -->
<!-- Title: Source/CoffeeToolbar/Public/Command/FCommandFeature.h Pages: 1 -->
<svg width="408pt" height="170pt"
 viewBox="0.00 0.00 407.50 170.00" xmlns="http://www.w3.org/2000/svg" xmlns:xlink="http://www.w3.org/1999/xlink">
<g id="graph0" class="graph" transform="scale(1 1) rotate(0) translate(4 166)">
<title>Source/CoffeeToolbar/Public/Command/FCommandFeature.h</title>
<!-- Node1 -->
<g id="Node000001" class="node">
<title>Node1</title>
<g id="a_Node000001"><a xlink:title="명령형 버튼을 담당하는 툴바 기능을 선언합니다.">
<polygon fill="#999999" stroke="#666666" points="355.5,-162 148.5,-162 148.5,-132 355.5,-132 355.5,-162"/>
<text text-anchor="start" x="156.5" y="-150" font-family="Malgun Gothic" font-size="10.00">Source/CoffeeToolbar</text>
<text text-anchor="middle" x="252" y="-139" font-family="Malgun Gothic" font-size="10.00">/Public/Command/FCommandFeature.h</text>
</a>
</g>
</g>
<!-- Node2 -->
<g id="Node000002" class="node">
<title>Node2</title>
<g id="a_Node000002"><a xlink:href="FCommandFeature_8cpp.html" target="_top" xlink:title="Coffee Toolbar용 명령 실행 보조 기능을 구현합니다.">
<polygon fill="white" stroke="#666666" points="224,-96 0,-96 0,-66 224,-66 224,-96"/>
<text text-anchor="start" x="8" y="-84" font-family="Malgun Gothic" font-size="10.00">Source/CoffeeToolbar</text>
<text text-anchor="middle" x="112" y="-73" font-family="Malgun Gothic" font-size="10.00">/Private/Command/FCommandFeature.cpp</text>
</a>
</g>
</g>
<!-- Node1&#45;&gt;Node2 -->
<g id="edge1_Node000001_Node000002" class="edge">
<title>Node1&#45;&gt;Node2</title>
<g id="a_edge1_Node000001_Node000002"><a xlink:title=" ">
<path fill="none" stroke="#63b8ff" d="M212.15,-127.78C190.08,-117.69 163.06,-105.34 142.65,-96.01"/>
<polygon fill="#63b8ff" stroke="#63b8ff" points="210.73,-130.98 221.28,-131.95 213.64,-124.61 210.73,-130.98"/>
</a>
</g>
</g>
<!-- Node3 -->
<g id="Node000003" class="node">
<title>Node3</title>
<g id="a_Node000003"><a xlink:href="FToolbar_8cpp.html" target="_top" xlink:title="Coffee Toolbar 모듈의 라이프사이클과 메뉴 등록 로직을 구현합니다.">
<polygon fill="white" stroke="#666666" points="355.5,-30 236.5,-30 236.5,0 355.5,0 355.5,-30"/>
<text text-anchor="start" x="244.5" y="-18" font-family="Malgun Gothic" font-size="10.00">Source/CoffeeToolbar</text>
<text text-anchor="middle" x="296" y="-7" font-family="Malgun Gothic" font-size="10.00">/Private/FToolbar.cpp</text>
</a>
</g>
</g>
<!-- Node1&#45;&gt;Node3 -->
<g id="edge2_Node000001_Node000003" class="edge">
<title>Node1&#45;&gt;Node3</title>
<g id="a_edge2_Node000001_Node000003"><a xlink:title=" ">
<path fill="none" stroke="#63b8ff" d="M256.73,-121.71C260.18,-105.65 265.41,-84.27 272,-66 276.51,-53.5 283.13,-39.95 288.28,-30.11"/>
<polygon fill="#63b8ff" stroke="#63b8ff" points="253.23,-121.37 254.63,-131.87 260.08,-122.79 253.23,-121.37"/>
</a>
</g>
</g>
<!-- Node4 -->
<g id="Node000004" class="node">
<title>Node4</title>
<g id="a_Node000004"><a xlink:href="FToolbar_8h.html" target="_top" xlink:title="CoffeeToolbar 플러그인의 주요 모듈 구현을 선언합니다.">
<polygon fill="white" stroke="#666666" points="399.5,-96 280.5,-96 280.5,-66 399.5,-66 399.5,-96"/>
<text text-anchor="start" x="288.5" y="-84" font-family="Malgun Gothic" font-size="10.00">Source/CoffeeToolbar</text>
<text text-anchor="middle" x="340" y="-73" font-family="Malgun Gothic" font-size="10.00">/Public/FToolbar.h</text>
</a>
</g>
</g>
<!-- Node1&#45;&gt;Node4 -->
<g id="edge3_Node000001_Node000004" class="edge">
<title>Node1&#45;&gt;Node4</title>
<g id="a_edge3_Node000001_Node000004"><a xlink:title=" ">
<path fill="none" stroke="#63b8ff" d="M279.84,-125.75C293.07,-116.13 308.57,-104.86 320.52,-96.16"/>
<polygon fill="#63b8ff" stroke="#63b8ff" points="277.56,-123.08 271.53,-131.8 281.68,-128.75 277.56,-123.08"/>
</a>
</g>
</g>
<!-- Node4&#45;&gt;Node3 -->
<g id="edge4_Node000004_Node000003" class="edge">
<title>Node4&#45;&gt;Node3</title>
<g id="a_edge4_Node000004_Node000003"><a xlink:title=" ">
<path fill="none" stroke="#63b8ff" d="M324.55,-57.53C318.29,-48.43 311.26,-38.19 305.74,-30.16"/>
<polygon fill="#63b8ff" stroke="#63b8ff" points="321.69,-59.54 330.23,-65.8 327.45,-55.57 321.69,-59.54"/>
</a>
</g>
</g>
</g>
</svg>
