<?xml version="1.0" encoding="UTF-8" standalone="no"?>
<!DOCTYPE svg PUBLIC "-//W3C//DTD SVG 1.1//EN"
 "http://www.w3.org/Graphics/SVG/1.1/DTD/svg11.dtd">
<!-- Generated by graphviz version 2.43.0 (0)
 -->
<!-- Title: Source/CoffeeToolbar/Public/Folder/FFolderPathInfo.h Pages: 1 -->
<svg width="1515pt" height="181pt"
 viewBox="0.00 0.00 1514.50 181.00" xmlns="http://www.w3.org/2000/svg" xmlns:xlink="http://www.w3.org/1999/xlink">
<g id="graph0" class="graph" transform="scale(1 1) rotate(0) translate(4 177)">
<title>Source/CoffeeToolbar/Public/Folder/FFolderPathInfo.h</title>
<!-- Node1 -->
<g id="Node000001" class="node">
<title>Node1</title>
<g id="a_Node000001"><a xlink:title=" ">
<polygon fill="#999999" stroke="#666666" points="858,-173 688,-173 688,-143 858,-143 858,-173"/>
<text text-anchor="start" x="696" y="-161" font-family="Malgun Gothic" font-size="10.00">Source/CoffeeToolbar</text>
<text text-anchor="middle" x="773" y="-150" font-family="Malgun Gothic" font-size="10.00">/Public/Folder/FFolderPathInfo.h</text>
</a>
</g>
</g>
<!-- Node2 -->
<g id="Node000002" class="node">
<title>Node2</title>
<g id="a_Node000002"><a xlink:href="UToolbarSettings_8h.html" target="_top" xlink:title="Coffee Toolbar 플러그인을 구성하기 위한 개발자 설정을 선언합니다.">
<polygon fill="white" stroke="#666666" points="866,-107 680,-107 680,-77 866,-77 866,-107"/>
<text text-anchor="start" x="688" y="-95" font-family="Malgun Gothic" font-size="10.00">Source/CoffeeToolbar</text>
<text text-anchor="middle" x="773" y="-84" font-family="Malgun Gothic" font-size="10.00">/Public/Settings/UToolbarSettings.h</text>
</a>
</g>
</g>
<!-- Node1&#45;&gt;Node2 -->
<g id="edge1_Node000001_Node000002" class="edge">
<title>Node1&#45;&gt;Node2</title>
<g id="a_edge1_Node000001_Node000002"><a xlink:title=" ">
<path fill="none" stroke="#63b8ff" d="M773,-132.54C773,-123.96 773,-114.61 773,-107.16"/>
<polygon fill="#63b8ff" stroke="#63b8ff" points="769.5,-132.8 773,-142.8 776.5,-132.8 769.5,-132.8"/>
</a>
</g>
</g>
<!-- Node3 -->
<g id="Node000003" class="node">
<title>Node3</title>
<g id="a_Node000003"><a xlink:href="FCommandFeature_8cpp.html" target="_top" xlink:title="Coffee Toolbar용 명령 실행 보조 기능을 구현합니다.">
<polygon fill="white" stroke="#666666" points="224,-35.5 0,-35.5 0,-5.5 224,-5.5 224,-35.5"/>
<text text-anchor="start" x="8" y="-23.5" font-family="Malgun Gothic" font-size="10.00">Source/CoffeeToolbar</text>
<text text-anchor="middle" x="112" y="-12.5" font-family="Malgun Gothic" font-size="10.00">/Private/Command/FCommandFeature.cpp</text>
</a>
</g>
</g>
<!-- Node2&#45;&gt;Node3 -->
<g id="edge2_Node000002_Node000003" class="edge">
<title>Node2&#45;&gt;Node3</title>
<g id="a_edge2_Node000002_Node000003"><a xlink:title=" ">
<path fill="none" stroke="#63b8ff" d="M669.63,-83.51C560.77,-75.14 384.49,-60.2 233,-41 220.44,-39.41 207.18,-37.5 194.23,-35.52"/>
<polygon fill="#63b8ff" stroke="#63b8ff" points="669.39,-87 679.62,-84.28 669.92,-80.02 669.39,-87"/>
</a>
</g>
</g>
<!-- Node4 -->
<g id="Node000004" class="node">
<title>Node4</title>
<g id="a_Node000004"><a xlink:href="FToolbarStyle_8cpp.html" target="_top" xlink:title="Coffee Toolbar 플러그인의 Slate 스타일 등록을 구현합니다.">
<polygon fill="white" stroke="#666666" points="432,-35.5 242,-35.5 242,-5.5 432,-5.5 432,-35.5"/>
<text text-anchor="start" x="250" y="-23.5" font-family="Malgun Gothic" font-size="10.00">Source/CoffeeToolbar</text>
<text text-anchor="middle" x="337" y="-12.5" font-family="Malgun Gothic" font-size="10.00">/Private/Common/FToolbarStyle.cpp</text>
</a>
</g>
</g>
<!-- Node2&#45;&gt;Node4 -->
<g id="edge3_Node000002_Node000004" class="edge">
<title>Node2&#45;&gt;Node4</title>
<g id="a_edge3_Node000002_Node000004"><a xlink:title=" ">
<path fill="none" stroke="#63b8ff" d="M669.9,-76.45C604.28,-66.94 517.53,-53.93 441,-41 430.95,-39.3 420.36,-37.42 409.96,-35.52"/>
<polygon fill="#63b8ff" stroke="#63b8ff" points="669.44,-79.92 679.84,-77.88 670.44,-72.99 669.44,-79.92"/>
</a>
</g>
</g>
<!-- Node5 -->
<g id="Node000005" class="node">
<title>Node5</title>
<g id="a_Node000005"><a xlink:href="FToolbar_8cpp.html" target="_top" xlink:title="Coffee Toolbar 모듈의 라이프사이클과 메뉴 등록 로직을 구현합니다.">
<polygon fill="white" stroke="#666666" points="569.5,-35.5 450.5,-35.5 450.5,-5.5 569.5,-5.5 569.5,-35.5"/>
<text text-anchor="start" x="458.5" y="-23.5" font-family="Malgun Gothic" font-size="10.00">Source/CoffeeToolbar</text>
<text text-anchor="middle" x="510" y="-12.5" font-family="Malgun Gothic" font-size="10.00">/Private/FToolbar.cpp</text>
</a>
</g>
</g>
<!-- Node2&#45;&gt;Node5 -->
<g id="edge4_Node000002_Node000005" class="edge">
<title>Node2&#45;&gt;Node5</title>
<g id="a_edge4_Node000002_Node000005"><a xlink:title=" ">
<path fill="none" stroke="#63b8ff" d="M706.7,-74.49C668.92,-64.96 620.73,-52.6 578,-41 571.6,-39.26 564.87,-37.39 558.24,-35.52"/>
<polygon fill="#63b8ff" stroke="#63b8ff" points="706.02,-77.93 716.57,-76.98 707.73,-71.14 706.02,-77.93"/>
</a>
</g>
</g>
<!-- Node6 -->
<g id="Node000006" class="node">
<title>Node6</title>
<g id="a_Node000006"><a xlink:href="FolderFeature_8cpp.html" target="_top" xlink:title=" ">
<polygon fill="white" stroke="#666666" points="764.5,-35.5 587.5,-35.5 587.5,-5.5 764.5,-5.5 764.5,-35.5"/>
<text text-anchor="start" x="595.5" y="-23.5" font-family="Malgun Gothic" font-size="10.00">Source/CoffeeToolbar</text>
<text text-anchor="middle" x="676" y="-12.5" font-family="Malgun Gothic" font-size="10.00">/Private/Folder/FolderFeature.cpp</text>
</a>
</g>
</g>
<!-- Node2&#45;&gt;Node6 -->
<g id="edge5_Node000002_Node000006" class="edge">
<title>Node2&#45;&gt;Node6</title>
<g id="a_edge5_Node000002_Node000006"><a xlink:title=" ">
<path fill="none" stroke="#63b8ff" d="M745,-70.94C729.18,-59.6 709.79,-45.71 695.6,-35.54"/>
<polygon fill="#63b8ff" stroke="#63b8ff" points="743.2,-73.96 753.37,-76.94 747.28,-68.27 743.2,-73.96"/>
</a>
</g>
</g>
<!-- Node7 -->
<g id="Node000007" class="node">
<title>Node7</title>
<g id="a_Node000007"><a xlink:href="FLevelFeature_8cpp.html" target="_top" xlink:title="Coffee Toolbar에서 레벨 선택을 돕는 헬퍼 기능을 구현합니다.">
<polygon fill="white" stroke="#666666" points="958,-35.5 782,-35.5 782,-5.5 958,-5.5 958,-35.5"/>
<text text-anchor="start" x="790" y="-23.5" font-family="Malgun Gothic" font-size="10.00">Source/CoffeeToolbar</text>
<text text-anchor="middle" x="870" y="-12.5" font-family="Malgun Gothic" font-size="10.00">/Private/Level/FLevelFeature.cpp</text>
</a>
</g>
</g>
<!-- Node2&#45;&gt;Node7 -->
<g id="edge6_Node000002_Node000007" class="edge">
<title>Node2&#45;&gt;Node7</title>
<g id="a_edge6_Node000002_Node000007"><a xlink:title=" ">
<path fill="none" stroke="#63b8ff" d="M801,-70.94C816.82,-59.6 836.21,-45.71 850.4,-35.54"/>
<polygon fill="#63b8ff" stroke="#63b8ff" points="798.72,-68.27 792.63,-76.94 802.8,-73.96 798.72,-68.27"/>
</a>
</g>
</g>
<!-- Node8 -->
<g id="Node000008" class="node">
<title>Node8</title>
<g id="a_Node000008"><a xlink:href="ConsoleCurlCommand_8cpp.html" target="_top" xlink:title=" ">
<polygon fill="white" stroke="#666666" points="1124.5,-41 975.5,-41 975.5,0 1124.5,0 1124.5,-41"/>
<text text-anchor="start" x="983.5" y="-29" font-family="Malgun Gothic" font-size="10.00">Source/CoffeeToolbar</text>
<text text-anchor="start" x="983.5" y="-18" font-family="Malgun Gothic" font-size="10.00">/Private/NetworkTest</text>
<text text-anchor="middle" x="1050" y="-7" font-family="Malgun Gothic" font-size="10.00">/ConsoleCurlCommand.cpp</text>
</a>
</g>
</g>
<!-- Node2&#45;&gt;Node8 -->
<g id="edge7_Node000002_Node000008" class="edge">
<title>Node2&#45;&gt;Node8</title>
<g id="a_edge7_Node000002_Node000008"><a xlink:title=" ">
<path fill="none" stroke="#63b8ff" d="M838.95,-74.45C879.97,-64.16 932.83,-50.9 975.38,-40.22"/>
<polygon fill="#63b8ff" stroke="#63b8ff" points="837.9,-71.11 829.06,-76.94 839.61,-77.9 837.9,-71.11"/>
</a>
</g>
</g>
<!-- Node9 -->
<g id="Node000009" class="node">
<title>Node9</title>
<g id="a_Node000009"><a xlink:href="FNetworkTestFeature_8cpp.html" target="_top" xlink:title=" ">
<polygon fill="white" stroke="#666666" points="1285.5,-41 1142.5,-41 1142.5,0 1285.5,0 1285.5,-41"/>
<text text-anchor="start" x="1150.5" y="-29" font-family="Malgun Gothic" font-size="10.00">Source/CoffeeToolbar</text>
<text text-anchor="start" x="1150.5" y="-18" font-family="Malgun Gothic" font-size="10.00">/Private/NetworkTest</text>
<text text-anchor="middle" x="1214" y="-7" font-family="Malgun Gothic" font-size="10.00">/FNetworkTestFeature.cpp</text>
</a>
</g>
</g>
<!-- Node2&#45;&gt;Node9 -->
<g id="edge8_Node000002_Node000009" class="edge">
<title>Node2&#45;&gt;Node9</title>
<g id="a_edge8_Node000002_Node000009"><a xlink:title=" ">
<path fill="none" stroke="#63b8ff" d="M876.21,-79.53C948.66,-70.79 1047.63,-57.46 1134,-41 1136.67,-40.49 1139.38,-39.95 1142.12,-39.39"/>
<polygon fill="#63b8ff" stroke="#63b8ff" points="875.68,-76.07 866.17,-80.73 876.51,-83.02 875.68,-76.07"/>
</a>
</g>
</g>
<!-- Node10 -->
<g id="Node000010" class="node">
<title>Node10</title>
<g id="a_Node000010"><a xlink:href="UToolbarSettings_8cpp.html" target="_top" xlink:title="Coffee Toolbar 플러그인의 설정 헬퍼 기능을 구현합니다.">
<polygon fill="white" stroke="#666666" points="1506.5,-35.5 1303.5,-35.5 1303.5,-5.5 1506.5,-5.5 1506.5,-35.5"/>
<text text-anchor="start" x="1311.5" y="-23.5" font-family="Malgun Gothic" font-size="10.00">Source/CoffeeToolbar</text>
<text text-anchor="middle" x="1405" y="-12.5" font-family="Malgun Gothic" font-size="10.00">/Private/Settings/UToolbarSettings.cpp</text>
</a>
</g>
</g>
<!-- Node2&#45;&gt;Node10 -->
<g id="edge9_Node000002_Node000010" class="edge">
<title>Node2&#45;&gt;Node10</title>
<g id="a_edge9_Node000002_Node000010"><a xlink:title=" ">
<path fill="none" stroke="#63b8ff" d="M876.15,-83.57C981.65,-75.39 1150.16,-60.74 1295,-41 1306.53,-39.43 1318.7,-37.52 1330.57,-35.52"/>
<polygon fill="#63b8ff" stroke="#63b8ff" points="875.84,-80.08 866.14,-84.34 876.38,-87.06 875.84,-80.08"/>
</a>
</g>
</g>
</g>
</svg>
