<?xml version="1.0" encoding="UTF-8" standalone="no"?>
<!DOCTYPE svg PUBLIC "-//W3C//DTD SVG 1.1//EN"
 "http://www.w3.org/Graphics/SVG/1.1/DTD/svg11.dtd">
<!-- Generated by graphviz version 2.43.0 (0)
 -->
<!-- Title: Source/CoffeeToolbar/Public/Level/FLevelFeature.h Pages: 1 -->
<svg width="536pt" height="104pt"
 viewBox="0.00 0.00 536.00 104.00" xmlns="http://www.w3.org/2000/svg" xmlns:xlink="http://www.w3.org/1999/xlink">
<g id="graph0" class="graph" transform="scale(1 1) rotate(0) translate(4 100)">
<title>Source/CoffeeToolbar/Public/Level/FLevelFeature.h</title>
<!-- Node1 -->
<g id="Node000001" class="node">
<title>Node1</title>
<g id="a_Node000001"><a xlink:title="툴바에 레벨 선택 컨트롤을 제공하는 기능을 선언합니다.">
<polygon fill="#999999" stroke="#666666" points="309.5,-96 150.5,-96 150.5,-66 309.5,-66 309.5,-96"/>
<text text-anchor="start" x="158.5" y="-84" font-family="Malgun Gothic" font-size="10.00">Source/CoffeeToolbar</text>
<text text-anchor="middle" x="230" y="-73" font-family="Malgun Gothic" font-size="10.00">/Public/Level/FLevelFeature.h</text>
</a>
</g>
</g>
<!-- Node2 -->
<g id="Node000002" class="node">
<title>Node2</title>
<g id="a_Node000002"><a xlink:title=" ">
<polygon fill="#e0e0e0" stroke="#999999" points="88,-24.5 0,-24.5 0,-5.5 88,-5.5 88,-24.5"/>
<text text-anchor="middle" x="44" y="-12.5" font-family="Malgun Gothic" font-size="10.00">CoreMinimal.h</text>
</a>
</g>
</g>
<!-- Node1&#45;&gt;Node2 -->
<g id="edge1_Node000001_Node000002" class="edge">
<title>Node1&#45;&gt;Node2</title>
<g id="a_edge1_Node000001_Node000002"><a xlink:title=" ">
<path fill="none" stroke="#63b8ff" d="M189.18,-65.95C155.99,-54.53 109.68,-38.6 78.36,-27.82"/>
<polygon fill="#63b8ff" stroke="#63b8ff" points="79.35,-24.46 68.75,-24.52 77.07,-31.08 79.35,-24.46"/>
</a>
</g>
</g>
<!-- Node3 -->
<g id="Node000003" class="node">
<title>Node3</title>
<g id="a_Node000003"><a xlink:title=" ">
<polygon fill="#e0e0e0" stroke="#999999" points="215.5,-24.5 106.5,-24.5 106.5,-5.5 215.5,-5.5 215.5,-24.5"/>
<text text-anchor="middle" x="161" y="-12.5" font-family="Malgun Gothic" font-size="10.00">Widgets/SWidget.h</text>
</a>
</g>
</g>
<!-- Node1&#45;&gt;Node3 -->
<g id="edge2_Node000001_Node000003" class="edge">
<title>Node1&#45;&gt;Node3</title>
<g id="a_edge2_Node000001_Node000003"><a xlink:title=" ">
<path fill="none" stroke="#63b8ff" d="M214.69,-65.8C203.82,-55.72 189.24,-42.19 178.01,-31.78"/>
<polygon fill="#63b8ff" stroke="#63b8ff" points="180.25,-29.08 170.54,-24.84 175.49,-34.21 180.25,-29.08"/>
</a>
</g>
</g>
<!-- Node4 -->
<g id="Node000004" class="node">
<title>Node4</title>
<g id="a_Node000004"><a xlink:title=" ">
<polygon fill="#e0e0e0" stroke="#999999" points="364,-30 234,-30 234,0 364,0 364,-30"/>
<text text-anchor="start" x="242" y="-18" font-family="Malgun Gothic" font-size="10.00">Framework/Commands</text>
<text text-anchor="middle" x="299" y="-7" font-family="Malgun Gothic" font-size="10.00">/UIAction.h</text>
</a>
</g>
</g>
<!-- Node1&#45;&gt;Node4 -->
<g id="edge3_Node000001_Node000004" class="edge">
<title>Node1&#45;&gt;Node4</title>
<g id="a_edge3_Node000001_Node000004"><a xlink:title=" ">
<path fill="none" stroke="#63b8ff" d="M245.31,-65.8C254.43,-57.34 266.16,-46.46 276.33,-37.03"/>
<polygon fill="#63b8ff" stroke="#63b8ff" points="278.78,-39.53 283.73,-30.16 274.02,-34.4 278.78,-39.53"/>
</a>
</g>
</g>
<!-- Node5 -->
<g id="Node000005" class="node">
<title>Node5</title>
<g id="a_Node000005"><a xlink:title=" ">
<polygon fill="#e0e0e0" stroke="#999999" points="528,-24.5 382,-24.5 382,-5.5 528,-5.5 528,-24.5"/>
<text text-anchor="middle" x="455" y="-12.5" font-family="Malgun Gothic" font-size="10.00">AssetRegistry/AssetData.h</text>
</a>
</g>
</g>
<!-- Node1&#45;&gt;Node5 -->
<g id="edge4_Node000001_Node000005" class="edge">
<title>Node1&#45;&gt;Node5</title>
<g id="a_edge4_Node000001_Node000005"><a xlink:title=" ">
<path fill="none" stroke="#63b8ff" d="M279.38,-65.95C320.23,-54.34 377.49,-38.05 415.39,-27.27"/>
<polygon fill="#63b8ff" stroke="#63b8ff" points="416.4,-30.62 425.06,-24.52 414.48,-23.89 416.4,-30.62"/>
</a>
</g>
</g>
</g>
</svg>
