<?xml version="1.0" encoding="UTF-8" standalone="no"?>
<!DOCTYPE svg PUBLIC "-//W3C//DTD SVG 1.1//EN"
 "http://www.w3.org/Graphics/SVG/1.1/DTD/svg11.dtd">
<!-- Generated by graphviz version 2.43.0 (0)
 -->
<!-- Title: Source/CoffeeToolbar/Private/Level/FLevelFeature.cpp Pages: 1 -->
<!--zoomable 225 -->

<svg id="main" version="1.1" xmlns="http://www.w3.org/2000/svg" xmlns:xlink="http://www.w3.org/1999/xlink" xml:space="preserve" onload="init(evt)">
<style type="text/css"><![CDATA[
.node, .edge {opacity: 0.7;}
.node.selected, .edge.selected {opacity: 1;}
.edge:hover path { stroke: red; }
.edge:hover polygon { stroke: red; fill: red; }
]]></style>

<defs>
  <circle id="rim" cx="0" cy="0" r="7"/>
  <circle id="rim2" cx="0" cy="0" r="3.5"/>
  <g id="zoomPlus">
    <use xlink:href="#rim" fill="#404040"><set attributeName="fill" to="#808080" begin="zoomplus.mouseover" end="zoomplus.mouseout"/></use>
    <path d="M-4,0h8M0,-4v8" fill="none" stroke="white" stroke-width="1.5" pointer-events="none"/>
  </g>
  <g id="zoomMin">
    <use xlink:href="#rim" fill="#404040"><set attributeName="fill" to="#808080" begin="zoomminus.mouseover" end="zoomminus.mouseout"/></use>
    <path d="M-4,0h8" fill="none" stroke="white" stroke-width="1.5" pointer-events="none"/>
  </g>
  <g id="arrowUp" transform="translate(30 24)">
    <use xlink:href="#rim"/>
    <path pointer-events="none" fill="none" stroke="white" stroke-width="1.5" d="M0,-3.0v7 M-2.5,-0.5L0,-3.0L2.5,-0.5"/>
  </g>
  <g id="arrowRight" transform="rotate(90) translate(36 -43)">
    <use xlink:href="#rim"/>
    <path pointer-events="none" fill="none" stroke="white" stroke-width="1.5" d="M0,-3.0v7 M-2.5,-0.5L0,-3.0L2.5,-0.5"/>
  </g>
  <g id="arrowDown" transform="rotate(180) translate(-30 -48)">
    <use xlink:href="#rim"/>
    <path pointer-events="none" fill="none" stroke="white" stroke-width="1.5" d="M0,-3.0v7 M-2.5,-0.5L0,-3.0L2.5,-0.5"/>
  </g>
  <g id="arrowLeft" transform="rotate(270) translate(-36 17)">
    <use xlink:href="#rim"/>
    <path pointer-events="none" fill="none" stroke="white" stroke-width="1.5" d="M0,-3.0v7 M-2.5,-0.5L0,-3.0L2.5,-0.5"/>
  </g>
  <g id="resetDef">
    <use xlink:href="#rim2" fill="#404040"><set attributeName="fill" to="#808080" begin="reset.mouseover" end="reset.mouseout"/></use>
  </g>
</defs>
<script type="application/ecmascript">
var viewWidth = 2560;
var viewHeight = 225;
var sectionId = 'dynsection-0';
</script>
<script type="application/ecmascript" xlink:href="svg.min.js"/>
<svg id="graph" class="graph">
<g id="viewport">
<title>Source/CoffeeToolbar/Private/Level/FLevelFeature.cpp</title>
<!-- Node1 -->
<g id="Node000001" class="node">
<title>Node1</title>
<g id="a_Node000001"><a xlink:title="Coffee Toolbar에서 레벨 선택을 돕는 헬퍼 기능을 구현합니다.">
<polygon fill="#999999" stroke="#666666" points="1664,-217 1488,-217 1488,-187 1664,-187 1664,-217"/>
<text text-anchor="start" x="1496" y="-205" font-family="Malgun Gothic" font-size="10.00">Source/CoffeeToolbar</text>
<text text-anchor="middle" x="1576" y="-194" font-family="Malgun Gothic" font-size="10.00">/Private/Level/FLevelFeature.cpp</text>
</a>
</g>
</g>
<!-- Node2 -->
<g id="Node000002" class="node">
<title>Node2</title>
<g id="a_Node000002"><a xlink:href="FLevelFeature_8h.html" target="_top" xlink:title="툴바에 레벨 선택 컨트롤을 제공하는 기능을 선언합니다.">
<polygon fill="white" stroke="#666666" points="1199,-145.5 1075,-145.5 1075,-126.5 1199,-126.5 1199,-145.5"/>
<text text-anchor="middle" x="1137" y="-133.5" font-family="Malgun Gothic" font-size="10.00">Level/FLevelFeature.h</text>
</a>
</g>
</g>
<!-- Node1&#45;&gt;Node2 -->
<g id="edge1_Node000001_Node000002" class="edge">
<title>Node1&#45;&gt;Node2</title>
<g id="a_edge1_Node000001_Node000002"><a xlink:title=" ">
<path fill="none" stroke="#63b8ff" d="M1487.92,-190.42C1413.44,-181.14 1304.01,-166.7 1209,-151 1202.42,-149.91 1195.51,-148.68 1188.69,-147.42"/>
<polygon fill="#63b8ff" stroke="#63b8ff" points="1189.28,-143.97 1178.81,-145.54 1187.98,-150.84 1189.28,-143.97"/>
</a>
</g>
</g>
<!-- Node7 -->
<g id="Node000007" class="node">
<title>Node7</title>
<g id="a_Node000007"><a xlink:href="UToolbarSettings_8h.html" target="_top" xlink:title="Coffee Toolbar 플러그인을 구성하기 위한 개발자 설정을 선언합니다.">
<polygon fill="white" stroke="#666666" points="656.5,-145.5 505.5,-145.5 505.5,-126.5 656.5,-126.5 656.5,-145.5"/>
<text text-anchor="middle" x="581" y="-133.5" font-family="Malgun Gothic" font-size="10.00">Settings/UToolbarSettings.h</text>
</a>
</g>
</g>
<!-- Node1&#45;&gt;Node7 -->
<g id="edge6_Node000001_Node000007" class="edge">
<title>Node1&#45;&gt;Node7</title>
<g id="a_edge6_Node000001_Node000007"><a xlink:title=" ">
<path fill="none" stroke="#63b8ff" d="M1487.7,-195.32C1298.09,-183.12 854.04,-154.56 666.74,-142.52"/>
<polygon fill="#63b8ff" stroke="#63b8ff" points="666.87,-139.02 656.67,-141.87 666.42,-146 666.87,-139.02"/>
</a>
</g>
</g>
<!-- Node16 -->
<g id="Node000016" class="node">
<title>Node16</title>
<g id="a_Node000016"><a xlink:href="FCommon_8h.html" target="_top" xlink:title="Coffee Toolbar 플러그인을 위한 공용 유틸리티 헬퍼를 선언합니다.">
<polygon fill="white" stroke="#666666" points="1045.5,-145.5 922.5,-145.5 922.5,-126.5 1045.5,-126.5 1045.5,-145.5"/>
<text text-anchor="middle" x="984" y="-133.5" font-family="Malgun Gothic" font-size="10.00">Common/FCommon.h</text>
</a>
</g>
</g>
<!-- Node1&#45;&gt;Node16 -->
<g id="edge19_Node000001_Node000016" class="edge">
<title>Node1&#45;&gt;Node16</title>
<g id="a_edge19_Node000001_Node000016"><a xlink:title=" ">
<path fill="none" stroke="#63b8ff" d="M1487.79,-194.28C1385.93,-186.06 1213.47,-170.79 1066,-151 1057.67,-149.88 1048.88,-148.55 1040.28,-147.15"/>
<polygon fill="#63b8ff" stroke="#63b8ff" points="1040.75,-143.68 1030.31,-145.5 1039.61,-150.59 1040.75,-143.68"/>
</a>
</g>
</g>
<!-- Node18 -->
<g id="Node000018" class="node">
<title>Node18</title>
<g id="a_Node000018"><a xlink:title=" ">
<polygon fill="#e0e0e0" stroke="#999999" points="1294.5,-145.5 1217.5,-145.5 1217.5,-126.5 1294.5,-126.5 1294.5,-145.5"/>
<text text-anchor="middle" x="1256" y="-133.5" font-family="Malgun Gothic" font-size="10.00">ToolMenus.h</text>
</a>
</g>
</g>
<!-- Node1&#45;&gt;Node18 -->
<g id="edge22_Node000001_Node000018" class="edge">
<title>Node1&#45;&gt;Node18</title>
<g id="a_edge22_Node000001_Node000018"><a xlink:title=" ">
<path fill="none" stroke="#63b8ff" d="M1487.94,-187.15C1434.46,-178.17 1364.97,-165.45 1304,-151 1300.56,-150.18 1297,-149.27 1293.44,-148.32"/>
<polygon fill="#63b8ff" stroke="#63b8ff" points="1294.11,-144.87 1283.54,-145.55 1292.23,-151.61 1294.11,-144.87"/>
</a>
</g>
</g>
<!-- Node19 -->
<g id="Node000019" class="node">
<title>Node19</title>
<g id="a_Node000019"><a xlink:title=" ">
<polygon fill="#e0e0e0" stroke="#999999" points="1419.5,-145.5 1312.5,-145.5 1312.5,-126.5 1419.5,-126.5 1419.5,-145.5"/>
<text text-anchor="middle" x="1366" y="-133.5" font-family="Malgun Gothic" font-size="10.00">UnrealEdGlobals.h</text>
</a>
</g>
</g>
<!-- Node1&#45;&gt;Node19 -->
<g id="edge23_Node000001_Node000019" class="edge">
<title>Node1&#45;&gt;Node19</title>
<g id="a_edge23_Node000001_Node000019"><a xlink:title=" ">
<path fill="none" stroke="#63b8ff" d="M1529.91,-186.95C1492.11,-175.43 1439.25,-159.32 1403.88,-148.54"/>
<polygon fill="#63b8ff" stroke="#63b8ff" points="1404.53,-145.08 1393.95,-145.52 1402.49,-151.78 1404.53,-145.08"/>
</a>
</g>
</g>
<!-- Node20 -->
<g id="Node000020" class="node">
<title>Node20</title>
<g id="a_Node000020"><a xlink:title=" ">
<polygon fill="#e0e0e0" stroke="#999999" points="1518,-145.5 1438,-145.5 1438,-126.5 1518,-126.5 1518,-145.5"/>
<text text-anchor="middle" x="1478" y="-133.5" font-family="Malgun Gothic" font-size="10.00">FileHelpers.h</text>
</a>
</g>
</g>
<!-- Node1&#45;&gt;Node20 -->
<g id="edge24_Node000001_Node000020" class="edge">
<title>Node1&#45;&gt;Node20</title>
<g id="a_edge24_Node000001_Node000020"><a xlink:title=" ">
<path fill="none" stroke="#63b8ff" d="M1554.25,-186.8C1538.13,-176.27 1516.24,-161.97 1500.05,-151.4"/>
<polygon fill="#63b8ff" stroke="#63b8ff" points="1501.54,-148.2 1491.26,-145.66 1497.72,-154.06 1501.54,-148.2"/>
</a>
</g>
</g>
<!-- Node21 -->
<g id="Node000021" class="node">
<title>Node21</title>
<g id="a_Node000021"><a xlink:title=" ">
<polygon fill="#e0e0e0" stroke="#999999" points="1616,-145.5 1536,-145.5 1536,-126.5 1616,-126.5 1616,-145.5"/>
<text text-anchor="middle" x="1576" y="-133.5" font-family="Malgun Gothic" font-size="10.00">LevelEditor.h</text>
</a>
</g>
</g>
<!-- Node1&#45;&gt;Node21 -->
<g id="edge25_Node000001_Node000021" class="edge">
<title>Node1&#45;&gt;Node21</title>
<g id="a_edge25_Node000001_Node000021"><a xlink:title=" ">
<path fill="none" stroke="#63b8ff" d="M1576,-186.8C1576,-177.7 1576,-165.79 1576,-155.9"/>
<polygon fill="#63b8ff" stroke="#63b8ff" points="1579.5,-155.84 1576,-145.84 1572.5,-155.84 1579.5,-155.84"/>
</a>
</g>
</g>
<!-- Node22 -->
<g id="Node000022" class="node">
<title>Node22</title>
<g id="a_Node000022"><a xlink:title=" ">
<polygon fill="#e0e0e0" stroke="#999999" points="1733.5,-145.5 1634.5,-145.5 1634.5,-126.5 1733.5,-126.5 1733.5,-145.5"/>
<text text-anchor="middle" x="1684" y="-133.5" font-family="Malgun Gothic" font-size="10.00">IAssetViewport.h</text>
</a>
</g>
</g>
<!-- Node1&#45;&gt;Node22 -->
<g id="edge26_Node000001_Node000022" class="edge">
<title>Node1&#45;&gt;Node22</title>
<g id="a_edge26_Node000001_Node000022"><a xlink:title=" ">
<path fill="none" stroke="#63b8ff" d="M1599.7,-186.95C1617.89,-176.18 1642.86,-161.38 1660.9,-150.69"/>
<polygon fill="#63b8ff" stroke="#63b8ff" points="1662.81,-153.63 1669.63,-145.52 1659.24,-147.6 1662.81,-153.63"/>
</a>
</g>
</g>
<!-- Node23 -->
<g id="Node000023" class="node">
<title>Node23</title>
<g id="a_Node000023"><a xlink:title=" ">
<polygon fill="#e0e0e0" stroke="#999999" points="1906.5,-151 1751.5,-151 1751.5,-121 1906.5,-121 1906.5,-151"/>
<text text-anchor="start" x="1759.5" y="-139" font-family="Malgun Gothic" font-size="10.00">AssetRegistry/AssetRegistry</text>
<text text-anchor="middle" x="1829" y="-128" font-family="Malgun Gothic" font-size="10.00">Module.h</text>
</a>
</g>
</g>
<!-- Node1&#45;&gt;Node23 -->
<g id="edge27_Node000001_Node000023" class="edge">
<title>Node1&#45;&gt;Node23</title>
<g id="a_edge27_Node000001_Node000023"><a xlink:title=" ">
<path fill="none" stroke="#63b8ff" d="M1631.52,-186.95C1670.49,-177.1 1722.75,-163.88 1763.72,-153.51"/>
<polygon fill="#63b8ff" stroke="#63b8ff" points="1764.77,-156.86 1773.61,-151.01 1763.05,-150.07 1764.77,-156.86"/>
</a>
</g>
</g>
<!-- Node24 -->
<g id="Node000024" class="node">
<title>Node24</title>
<g id="a_Node000024"><a xlink:title=" ">
<polygon fill="#e0e0e0" stroke="#999999" points="2089.5,-145.5 1924.5,-145.5 1924.5,-126.5 2089.5,-126.5 2089.5,-145.5"/>
<text text-anchor="middle" x="2007" y="-133.5" font-family="Malgun Gothic" font-size="10.00">AssetRegistry/IAssetRegistry.h</text>
</a>
</g>
</g>
<!-- Node1&#45;&gt;Node24 -->
<g id="edge28_Node000001_Node000024" class="edge">
<title>Node1&#45;&gt;Node24</title>
<g id="a_edge28_Node000001_Node000024"><a xlink:title=" ">
<path fill="none" stroke="#63b8ff" d="M1664.08,-188.21C1732.74,-178.2 1830.45,-163.87 1916,-151 1924.29,-149.75 1933.01,-148.43 1941.63,-147.11"/>
<polygon fill="#63b8ff" stroke="#63b8ff" points="1942.31,-150.55 1951.67,-145.57 1941.25,-143.63 1942.31,-150.55"/>
</a>
</g>
</g>
<!-- Node25 -->
<g id="Node000025" class="node">
<title>Node25</title>
<g id="a_Node000025"><a xlink:title=" ">
<polygon fill="#e0e0e0" stroke="#999999" points="2234,-145.5 2108,-145.5 2108,-126.5 2234,-126.5 2234,-145.5"/>
<text text-anchor="middle" x="2171" y="-133.5" font-family="Malgun Gothic" font-size="10.00">Misc/MessageDialog.h</text>
</a>
</g>
</g>
<!-- Node1&#45;&gt;Node25 -->
<g id="edge29_Node000001_Node000025" class="edge">
<title>Node1&#45;&gt;Node25</title>
<g id="a_edge29_Node000001_Node000025"><a xlink:title=" ">
<path fill="none" stroke="#63b8ff" d="M1664.22,-195.18C1768.44,-187.71 1946.89,-173.01 2099,-151 2106.1,-149.97 2113.57,-148.72 2120.9,-147.39"/>
<polygon fill="#63b8ff" stroke="#63b8ff" points="2121.57,-150.82 2130.75,-145.54 2120.28,-143.94 2121.57,-150.82"/>
</a>
</g>
</g>
<!-- Node26 -->
<g id="Node000026" class="node">
<title>Node26</title>
<g id="a_Node000026"><a xlink:title=" ">
<polygon fill="#e0e0e0" stroke="#999999" points="2386,-145.5 2252,-145.5 2252,-126.5 2386,-126.5 2386,-145.5"/>
<text text-anchor="middle" x="2319" y="-133.5" font-family="Malgun Gothic" font-size="10.00">Editor/UnrealEdEngine.h</text>
</a>
</g>
</g>
<!-- Node1&#45;&gt;Node26 -->
<g id="edge30_Node000001_Node000026" class="edge">
<title>Node1&#45;&gt;Node26</title>
<g id="a_edge30_Node000001_Node000026"><a xlink:title=" ">
<path fill="none" stroke="#63b8ff" d="M1664.24,-197.4C1792.21,-191.51 2036.56,-177.67 2243,-151 2250.86,-149.98 2259.14,-148.69 2267.22,-147.31"/>
<polygon fill="#63b8ff" stroke="#63b8ff" points="2268.08,-150.71 2277.31,-145.51 2266.86,-143.82 2268.08,-150.71"/>
</a>
</g>
</g>
<!-- Node27 -->
<g id="Node000027" class="node">
<title>Node27</title>
<g id="a_Node000027"><a xlink:title=" ">
<polygon fill="#e0e0e0" stroke="#999999" points="2552,-145.5 2404,-145.5 2404,-126.5 2552,-126.5 2552,-145.5"/>
<text text-anchor="middle" x="2478" y="-133.5" font-family="Malgun Gothic" font-size="10.00">Modules/ModuleManager.h</text>
</a>
</g>
</g>
<!-- Node1&#45;&gt;Node27 -->
<g id="edge31_Node000001_Node000027" class="edge">
<title>Node1&#45;&gt;Node27</title>
<g id="a_edge31_Node000001_Node000027"><a xlink:title=" ">
<path fill="none" stroke="#63b8ff" d="M1664.14,-198.69C1814.49,-194.05 2129.99,-181.35 2395,-151 2404.06,-149.96 2413.64,-148.6 2422.94,-147.13"/>
<polygon fill="#63b8ff" stroke="#63b8ff" points="2423.59,-150.57 2432.89,-145.5 2422.46,-143.66 2423.59,-150.57"/>
</a>
</g>
</g>
<!-- Node3 -->
<g id="Node000003" class="node">
<title>Node3</title>
<g id="a_Node000003"><a xlink:title=" ">
<polygon fill="#e0e0e0" stroke="#999999" points="668,-19 580,-19 580,0 668,0 668,-19"/>
<text text-anchor="middle" x="624" y="-7" font-family="Malgun Gothic" font-size="10.00">CoreMinimal.h</text>
</a>
</g>
</g>
<!-- Node2&#45;&gt;Node3 -->
<g id="edge2_Node000002_Node000003" class="edge">
<title>Node2&#45;&gt;Node3</title>
<g id="a_edge2_Node000002_Node000003"><a xlink:title=" ">
<path fill="none" stroke="#63b8ff" d="M1127.86,-126.39C1106.76,-106.61 1055.73,-59.26 1046,-55 981.32,-26.65 776.85,-15.8 678.23,-12.15"/>
<polygon fill="#63b8ff" stroke="#63b8ff" points="678.29,-8.65 668.17,-11.78 678.04,-15.64 678.29,-8.65"/>
</a>
</g>
</g>
<!-- Node4 -->
<g id="Node000004" class="node">
<title>Node4</title>
<g id="a_Node000004"><a xlink:title=" ">
<polygon fill="#e0e0e0" stroke="#999999" points="1202.5,-79.5 1093.5,-79.5 1093.5,-60.5 1202.5,-60.5 1202.5,-79.5"/>
<text text-anchor="middle" x="1148" y="-67.5" font-family="Malgun Gothic" font-size="10.00">Widgets/SWidget.h</text>
</a>
</g>
</g>
<!-- Node2&#45;&gt;Node4 -->
<g id="edge3_Node000002_Node000004" class="edge">
<title>Node2&#45;&gt;Node4</title>
<g id="a_edge3_Node000002_Node000004"><a xlink:title=" ">
<path fill="none" stroke="#63b8ff" d="M1138.48,-126.37C1140.08,-117.07 1142.68,-101.98 1144.75,-89.9"/>
<polygon fill="#63b8ff" stroke="#63b8ff" points="1148.22,-90.35 1146.47,-79.91 1141.33,-89.17 1148.22,-90.35"/>
</a>
</g>
</g>
<!-- Node5 -->
<g id="Node000005" class="node">
<title>Node5</title>
<g id="a_Node000005"><a xlink:title=" ">
<polygon fill="#e0e0e0" stroke="#999999" points="1351,-85 1221,-85 1221,-55 1351,-55 1351,-85"/>
<text text-anchor="start" x="1229" y="-73" font-family="Malgun Gothic" font-size="10.00">Framework/Commands</text>
<text text-anchor="middle" x="1286" y="-62" font-family="Malgun Gothic" font-size="10.00">/UIAction.h</text>
</a>
</g>
</g>
<!-- Node2&#45;&gt;Node5 -->
<g id="edge4_Node000002_Node000005" class="edge">
<title>Node2&#45;&gt;Node5</title>
<g id="a_edge4_Node000002_Node000005"><a xlink:title=" ">
<path fill="none" stroke="#63b8ff" d="M1157.09,-126.37C1179.22,-116.87 1215.42,-101.32 1243.83,-89.11"/>
<polygon fill="#63b8ff" stroke="#63b8ff" points="1245.33,-92.28 1253.14,-85.12 1242.57,-85.85 1245.33,-92.28"/>
</a>
</g>
</g>
<!-- Node6 -->
<g id="Node000006" class="node">
<title>Node6</title>
<g id="a_Node000006"><a xlink:title=" ">
<polygon fill="#e0e0e0" stroke="#999999" points="1515,-79.5 1369,-79.5 1369,-60.5 1515,-60.5 1515,-79.5"/>
<text text-anchor="middle" x="1442" y="-67.5" font-family="Malgun Gothic" font-size="10.00">AssetRegistry/AssetData.h</text>
</a>
</g>
</g>
<!-- Node2&#45;&gt;Node6 -->
<g id="edge5_Node000002_Node000006" class="edge">
<title>Node2&#45;&gt;Node6</title>
<g id="a_edge5_Node000002_Node000006"><a xlink:title=" ">
<path fill="none" stroke="#63b8ff" d="M1177.82,-126.44C1233.06,-114.84 1331.58,-94.17 1391.44,-81.61"/>
<polygon fill="#63b8ff" stroke="#63b8ff" points="1392.36,-84.99 1401.42,-79.51 1390.92,-78.14 1392.36,-84.99"/>
</a>
</g>
</g>
<!-- Node7&#45;&gt;Node3 -->
<g id="edge7_Node000007_Node000003" class="edge">
<title>Node7&#45;&gt;Node3</title>
<g id="a_edge7_Node000007_Node000003"><a xlink:title=" ">
<path fill="none" stroke="#63b8ff" d="M609.79,-126.48C629.45,-118.99 654.01,-105.95 666,-85 672.62,-73.43 670.92,-67.39 666,-55 661.48,-43.63 652.53,-33.48 644.04,-25.76"/>
<polygon fill="#63b8ff" stroke="#63b8ff" points="646.11,-22.92 636.21,-19.14 641.59,-28.27 646.11,-22.92"/>
</a>
</g>
</g>
<!-- Node8 -->
<g id="Node000008" class="node">
<title>Node8</title>
<g id="a_Node000008"><a xlink:href="FToolbarButtonInfo_8h.html" target="_top" xlink:title="커스터마이즈 가능한 Coffee Toolbar 버튼 정보를 선언합니다.">
<polygon fill="white" stroke="#666666" points="164.5,-79.5 47.5,-79.5 47.5,-60.5 164.5,-60.5 164.5,-79.5"/>
<text text-anchor="middle" x="106" y="-67.5" font-family="Malgun Gothic" font-size="10.00">FToolbarButtonInfo.h</text>
</a>
</g>
</g>
<!-- Node7&#45;&gt;Node8 -->
<g id="edge8_Node000007_Node000008" class="edge">
<title>Node7&#45;&gt;Node8</title>
<g id="a_edge8_Node000007_Node000008"><a xlink:title=" ">
<path fill="none" stroke="#63b8ff" d="M505.35,-127.55C423.43,-119.06 289.04,-103.88 174,-85 167.76,-83.98 161.21,-82.78 154.76,-81.53"/>
<polygon fill="#63b8ff" stroke="#63b8ff" points="155.23,-78.06 144.74,-79.54 153.86,-84.92 155.23,-78.06"/>
</a>
</g>
</g>
<!-- Node10 -->
<g id="Node000010" class="node">
<title>Node10</title>
<g id="a_Node000010"><a xlink:title=" ">
<polygon fill="#e0e0e0" stroke="#999999" points="657,-79.5 505,-79.5 505,-60.5 657,-60.5 657,-79.5"/>
<text text-anchor="middle" x="581" y="-67.5" font-family="Malgun Gothic" font-size="10.00">Engine/DeveloperSettings.h</text>
</a>
</g>
</g>
<!-- Node7&#45;&gt;Node10 -->
<g id="edge11_Node000007_Node000010" class="edge">
<title>Node7&#45;&gt;Node10</title>
<g id="a_edge11_Node000007_Node000010"><a xlink:title=" ">
<path fill="none" stroke="#63b8ff" d="M581,-126.37C581,-117.16 581,-102.29 581,-90.27"/>
<polygon fill="#63b8ff" stroke="#63b8ff" points="584.5,-89.91 581,-79.91 577.5,-89.91 584.5,-89.91"/>
</a>
</g>
</g>
<!-- Node11 -->
<g id="Node000011" class="node">
<title>Node11</title>
<g id="a_Node000011"><a xlink:href="FFolderPathInfo_8h.html" target="_top" xlink:title=" ">
<polygon fill="white" stroke="#666666" points="487,-79.5 353,-79.5 353,-60.5 487,-60.5 487,-79.5"/>
<text text-anchor="middle" x="420" y="-67.5" font-family="Malgun Gothic" font-size="10.00">Folder/FFolderPathInfo.h</text>
</a>
</g>
</g>
<!-- Node7&#45;&gt;Node11 -->
<g id="edge12_Node000007_Node000011" class="edge">
<title>Node7&#45;&gt;Node11</title>
<g id="a_edge12_Node000007_Node000011"><a xlink:title=" ">
<path fill="none" stroke="#63b8ff" d="M559.29,-126.37C531.48,-115.32 483.1,-96.08 451.32,-83.45"/>
<polygon fill="#63b8ff" stroke="#63b8ff" points="452.21,-80.04 441.63,-79.6 449.63,-86.54 452.21,-80.04"/>
</a>
</g>
</g>
<!-- Node13 -->
<g id="Node000013" class="node">
<title>Node13</title>
<g id="a_Node000013"><a xlink:href="FApiSendInfo_8h.html" target="_top" xlink:title="HTTP API 요청 정보를 정의합니다.">
<polygon fill="white" stroke="#666666" points="335,-79.5 183,-79.5 183,-60.5 335,-60.5 335,-79.5"/>
<text text-anchor="middle" x="259" y="-67.5" font-family="Malgun Gothic" font-size="10.00">NetworkTest/FApiSendInfo.h</text>
</a>
</g>
</g>
<!-- Node7&#45;&gt;Node13 -->
<g id="edge15_Node000007_Node000013" class="edge">
<title>Node7&#45;&gt;Node13</title>
<g id="a_edge15_Node000007_Node000013"><a xlink:title=" ">
<path fill="none" stroke="#63b8ff" d="M537.91,-126.44C479.47,-114.82 375.15,-94.09 311.99,-81.53"/>
<polygon fill="#63b8ff" stroke="#63b8ff" points="312.33,-78.03 301.84,-79.51 310.96,-84.9 312.33,-78.03"/>
</a>
</g>
</g>
<!-- Node15 -->
<g id="Node000015" class="node">
<title>Node15</title>
<g id="a_Node000015"><a xlink:title=" ">
<polygon fill="#e0e0e0" stroke="#999999" points="874.5,-79.5 713.5,-79.5 713.5,-60.5 874.5,-60.5 874.5,-79.5"/>
<text text-anchor="middle" x="794" y="-67.5" font-family="Malgun Gothic" font-size="10.00">UToolbarSettings.generated.h</text>
</a>
</g>
</g>
<!-- Node7&#45;&gt;Node15 -->
<g id="edge18_Node000007_Node000015" class="edge">
<title>Node7&#45;&gt;Node15</title>
<g id="a_edge18_Node000007_Node000015"><a xlink:title=" ">
<path fill="none" stroke="#63b8ff" d="M609.73,-126.37C647.47,-115.03 713.86,-95.08 755.8,-82.48"/>
<polygon fill="#63b8ff" stroke="#63b8ff" points="756.82,-85.83 765.39,-79.6 754.81,-79.12 756.82,-85.83"/>
</a>
</g>
</g>
<!-- Node8&#45;&gt;Node3 -->
<g id="edge9_Node000008_Node000003" class="edge">
<title>Node8&#45;&gt;Node3</title>
<g id="a_edge9_Node000008_Node000003"><a xlink:title=" ">
<path fill="none" stroke="#63b8ff" d="M144,-60.45C153.74,-58.45 164.23,-56.48 174,-55 249.04,-43.6 467.44,-24.03 569.83,-15.14"/>
<polygon fill="#63b8ff" stroke="#63b8ff" points="570.3,-18.61 579.96,-14.26 569.7,-11.64 570.3,-18.61"/>
</a>
</g>
</g>
<!-- Node9 -->
<g id="Node000009" class="node">
<title>Node9</title>
<g id="a_Node000009"><a xlink:title=" ">
<polygon fill="#e0e0e0" stroke="#999999" points="170,-19 0,-19 0,0 170,0 170,-19"/>
<text text-anchor="middle" x="85" y="-7" font-family="Malgun Gothic" font-size="10.00">FToolbarButtonInfo.generated.h</text>
</a>
</g>
</g>
<!-- Node8&#45;&gt;Node9 -->
<g id="edge10_Node000008_Node000009" class="edge">
<title>Node8&#45;&gt;Node9</title>
<g id="a_edge10_Node000008_Node000009"><a xlink:title=" ">
<path fill="none" stroke="#63b8ff" d="M102.9,-60.37C99.92,-52.07 95.33,-39.28 91.54,-28.72"/>
<polygon fill="#63b8ff" stroke="#63b8ff" points="94.78,-27.4 88.11,-19.17 88.2,-29.76 94.78,-27.4"/>
</a>
</g>
</g>
<!-- Node11&#45;&gt;Node3 -->
<g id="edge13_Node000011_Node000003" class="edge">
<title>Node11&#45;&gt;Node3</title>
<g id="a_edge13_Node000011_Node000003"><a xlink:title=" ">
<path fill="none" stroke="#63b8ff" d="M449.66,-60.49C485.24,-50.29 545.02,-33.15 584.48,-21.83"/>
<polygon fill="#63b8ff" stroke="#63b8ff" points="585.65,-25.14 594.3,-19.02 583.72,-18.41 585.65,-25.14"/>
</a>
</g>
</g>
<!-- Node12 -->
<g id="Node000012" class="node">
<title>Node12</title>
<g id="a_Node000012"><a xlink:title=" ">
<polygon fill="#e0e0e0" stroke="#999999" points="502,-19 348,-19 348,0 502,0 502,-19"/>
<text text-anchor="middle" x="425" y="-7" font-family="Malgun Gothic" font-size="10.00">FFolderPathInfo.generated.h</text>
</a>
</g>
</g>
<!-- Node11&#45;&gt;Node12 -->
<g id="edge14_Node000011_Node000012" class="edge">
<title>Node11&#45;&gt;Node12</title>
<g id="a_edge14_Node000011_Node000012"><a xlink:title=" ">
<path fill="none" stroke="#63b8ff" d="M420.74,-60.37C421.43,-52.25 422.5,-39.81 423.39,-29.39"/>
<polygon fill="#63b8ff" stroke="#63b8ff" points="426.89,-29.43 424.26,-19.17 419.92,-28.83 426.89,-29.43"/>
</a>
</g>
</g>
<!-- Node13&#45;&gt;Node3 -->
<g id="edge16_Node000013_Node000003" class="edge">
<title>Node13&#45;&gt;Node3</title>
<g id="a_edge16_Node000013_Node000003"><a xlink:title=" ">
<path fill="none" stroke="#63b8ff" d="M310.68,-60.44C321.68,-58.63 333.22,-56.74 344,-55 422.45,-42.31 513.31,-27.92 569.73,-19.03"/>
<polygon fill="#63b8ff" stroke="#63b8ff" points="570.52,-22.45 579.86,-17.44 569.43,-15.54 570.52,-22.45"/>
</a>
</g>
</g>
<!-- Node14 -->
<g id="Node000014" class="node">
<title>Node14</title>
<g id="a_Node000014"><a xlink:title=" ">
<polygon fill="#e0e0e0" stroke="#999999" points="329.5,-19 188.5,-19 188.5,0 329.5,0 329.5,-19"/>
<text text-anchor="middle" x="259" y="-7" font-family="Malgun Gothic" font-size="10.00">FApiSendInfo.generated.h</text>
</a>
</g>
</g>
<!-- Node13&#45;&gt;Node14 -->
<g id="edge17_Node000013_Node000014" class="edge">
<title>Node13&#45;&gt;Node14</title>
<g id="a_edge17_Node000013_Node000014"><a xlink:title=" ">
<path fill="none" stroke="#63b8ff" d="M259,-60.37C259,-52.25 259,-39.81 259,-29.39"/>
<polygon fill="#63b8ff" stroke="#63b8ff" points="262.5,-29.17 259,-19.17 255.5,-29.17 262.5,-29.17"/>
</a>
</g>
</g>
<!-- Node16&#45;&gt;Node3 -->
<g id="edge20_Node000016_Node000003" class="edge">
<title>Node16&#45;&gt;Node3</title>
<g id="a_edge20_Node000016_Node000003"><a xlink:title=" ">
<path fill="none" stroke="#63b8ff" d="M973.14,-126.28C947.58,-105.78 885.59,-56.16 883,-55 816.47,-25.29 732.15,-15.33 678.13,-12.04"/>
<polygon fill="#63b8ff" stroke="#63b8ff" points="678.25,-8.54 668.07,-11.48 677.86,-15.53 678.25,-8.54"/>
</a>
</g>
</g>
<!-- Node17 -->
<g id="Node000017" class="node">
<title>Node17</title>
<g id="a_Node000017"><a xlink:title=" ">
<polygon fill="#e0e0e0" stroke="#999999" points="1037,-79.5 931,-79.5 931,-60.5 1037,-60.5 1037,-79.5"/>
<text text-anchor="middle" x="984" y="-67.5" font-family="Malgun Gothic" font-size="10.00">Styling/AppStyle.h</text>
</a>
</g>
</g>
<!-- Node16&#45;&gt;Node17 -->
<g id="edge21_Node000016_Node000017" class="edge">
<title>Node16&#45;&gt;Node17</title>
<g id="a_edge21_Node000016_Node000017"><a xlink:title=" ">
<path fill="none" stroke="#63b8ff" d="M984,-126.37C984,-117.16 984,-102.29 984,-90.27"/>
<polygon fill="#63b8ff" stroke="#63b8ff" points="987.5,-89.91 984,-79.91 980.5,-89.91 987.5,-89.91"/>
</a>
</g>
</g>
</g>
</svg>

<g id="navigator" transform="translate(0 0)" fill="#404254">
  <rect fill="#f2f5e9" fill-opacity="0.5" stroke="#606060" stroke-width=".5" x="0" y="0" width="60" height="60"/>
  <use id="zoomplus" xlink:href="#zoomPlus" x="17" y="9" onmousedown="handleZoom(evt,'in')"/>
  <use id="zoomminus" xlink:href="#zoomMin" x="42" y="9" onmousedown="handleZoom(evt,'out')"/>
  <use id="reset" xlink:href="#resetDef" x="30" y="36" onmousedown="handleReset()"/>
   <use id="arrowup" xlink:href="#arrowUp" x="0" y="0" onmousedown="handlePan(0,-1)"/>
  <use id="arrowright" xlink:href="#arrowRight" x="0" y="0" onmousedown="handlePan(1,0)"/>
  <use id="arrowdown" xlink:href="#arrowDown" x="0" y="0" onmousedown="handlePan(0,1)"/>
  <use id="arrowleft" xlink:href="#arrowLeft" x="0" y="0" onmousedown="handlePan(-1,0)"/>
</g>
<svg viewBox="0 0 15 15" width="100%" height="30px" preserveAspectRatio="xMaxYMin meet">
 <g id="arrow_out" transform="scale(0.3 0.3)">
  <a xlink:href="FLevelFeature_8cpp__incl_org.svg" target="_base">
   <rect id="button" ry="5" rx="5" y="6" x="6" height="38" width="38"
        fill="#f2f5e9" fill-opacity="0.5" stroke="#606060" stroke-width="1.0"/>
   <path id="arrow"
     d="M 11.500037,31.436501 C 11.940474,20.09759 22.043105,11.32322 32.158766,21.979434 L 37.068811,17.246167 C 37.068811,17.246167 37.088388,32 37.088388,32 L 22.160133,31.978069 C 22.160133,31.978069 26.997745,27.140456 26.997745,27.140456 C 18.528582,18.264221 13.291696,25.230495 11.500037,31.436501 z"
     style="fill:#404040;"/>
  </a>
 </g>
</svg>

<style type='text/css'>
<![CDATA[
[data-mouse-over-selected='false'] { opacity: 0.7; }
[data-mouse-over-selected='true']  { opacity: 1.0; }
]]>
</style>
<script type="application/ecmascript"><![CDATA[
document.addEventListener('DOMContentLoaded', (event) => {
  highlightEdges();
  highlightAdjacentNodes();
});
]]></script>
</svg>
