<?xml version="1.0" encoding="UTF-8" standalone="no"?>
<!DOCTYPE svg PUBLIC "-//W3C//DTD SVG 1.1//EN"
 "http://www.w3.org/Graphics/SVG/1.1/DTD/svg11.dtd">
<!-- Generated by graphviz version 2.43.0 (0)
 -->
<!-- Title: Source/CoffeeToolbar/Private/Level/FLevelFeature.cpp Pages: 1 -->
<!--zoomable 225 -->

<svg id="main" version="1.1" xmlns="http://www.w3.org/2000/svg" xmlns:xlink="http://www.w3.org/1999/xlink" xml:space="preserve" onload="init(evt)">
<style type="text/css"><![CDATA[
.node, .edge {opacity: 0.7;}
.node.selected, .edge.selected {opacity: 1;}
.edge:hover path { stroke: red; }
.edge:hover polygon { stroke: red; fill: red; }
]]></style>

<defs>
  <circle id="rim" cx="0" cy="0" r="7"/>
  <circle id="rim2" cx="0" cy="0" r="3.5"/>
  <g id="zoomPlus">
    <use xlink:href="#rim" fill="#404040"><set attributeName="fill" to="#808080" begin="zoomplus.mouseover" end="zoomplus.mouseout"/></use>
    <path d="M-4,0h8M0,-4v8" fill="none" stroke="white" stroke-width="1.5" pointer-events="none"/>
  </g>
  <g id="zoomMin">
    <use xlink:href="#rim" fill="#404040"><set attributeName="fill" to="#808080" begin="zoomminus.mouseover" end="zoomminus.mouseout"/></use>
    <path d="M-4,0h8" fill="none" stroke="white" stroke-width="1.5" pointer-events="none"/>
  </g>
  <g id="arrowUp" transform="translate(30 24)">
    <use xlink:href="#rim"/>
    <path pointer-events="none" fill="none" stroke="white" stroke-width="1.5" d="M0,-3.0v7 M-2.5,-0.5L0,-3.0L2.5,-0.5"/>
  </g>
  <g id="arrowRight" transform="rotate(90) translate(36 -43)">
    <use xlink:href="#rim"/>
    <path pointer-events="none" fill="none" stroke="white" stroke-width="1.5" d="M0,-3.0v7 M-2.5,-0.5L0,-3.0L2.5,-0.5"/>
  </g>
  <g id="arrowDown" transform="rotate(180) translate(-30 -48)">
    <use xlink:href="#rim"/>
    <path pointer-events="none" fill="none" stroke="white" stroke-width="1.5" d="M0,-3.0v7 M-2.5,-0.5L0,-3.0L2.5,-0.5"/>
  </g>
  <g id="arrowLeft" transform="rotate(270) translate(-36 17)">
    <use xlink:href="#rim"/>
    <path pointer-events="none" fill="none" stroke="white" stroke-width="1.5" d="M0,-3.0v7 M-2.5,-0.5L0,-3.0L2.5,-0.5"/>
  </g>
  <g id="resetDef">
    <use xlink:href="#rim2" fill="#404040"><set attributeName="fill" to="#808080" begin="reset.mouseover" end="reset.mouseout"/></use>
  </g>
</defs>
<script type="application/ecmascript">
var viewWidth = 2391;
var viewHeight = 225;
var sectionId = 'dynsection-0';
</script>
<script type="application/ecmascript" xlink:href="svg.min.js"/>
<svg id="graph" class="graph">
<g id="viewport">
<title>Source/CoffeeToolbar/Private/Level/FLevelFeature.cpp</title>
<!-- Node1 -->
<g id="Node000001" class="node">
<title>Node1</title>
<g id="a_Node000001"><a xlink:title="Coffee Toolbar에서 레벨 선택을 돕는 헬퍼 기능을 구현합니다.">
<polygon fill="#999999" stroke="#666666" points="1495,-217 1319,-217 1319,-187 1495,-187 1495,-217"/>
<text text-anchor="start" x="1327" y="-205" font-family="Malgun Gothic" font-size="10.00">Source/CoffeeToolbar</text>
<text text-anchor="middle" x="1407" y="-194" font-family="Malgun Gothic" font-size="10.00">/Private/Level/FLevelFeature.cpp</text>
</a>
</g>
</g>
<!-- Node2 -->
<g id="Node000002" class="node">
<title>Node2</title>
<g id="a_Node000002"><a xlink:href="FLevelFeature_8h.html" target="_top" xlink:title="툴바에 레벨 선택 컨트롤을 제공하는 기능을 선언합니다.">
<polygon fill="white" stroke="#666666" points="1030,-145.5 906,-145.5 906,-126.5 1030,-126.5 1030,-145.5"/>
<text text-anchor="middle" x="968" y="-133.5" font-family="Malgun Gothic" font-size="10.00">Level/FLevelFeature.h</text>
</a>
</g>
</g>
<!-- Node1&#45;&gt;Node2 -->
<g id="edge1_Node000001_Node000002" class="edge">
<title>Node1&#45;&gt;Node2</title>
<g id="a_edge1_Node000001_Node000002"><a xlink:title=" ">
<path fill="none" stroke="#63b8ff" d="M1318.92,-190.42C1244.44,-181.14 1135.01,-166.7 1040,-151 1033.42,-149.91 1026.51,-148.68 1019.69,-147.42"/>
<polygon fill="#63b8ff" stroke="#63b8ff" points="1020.28,-143.97 1009.81,-145.54 1018.98,-150.84 1020.28,-143.97"/>
</a>
</g>
</g>
<!-- Node7 -->
<g id="Node000007" class="node">
<title>Node7</title>
<g id="a_Node000007"><a xlink:href="UToolbarSettings_8h.html" target="_top" xlink:title="Coffee Toolbar 플러그인을 구성하기 위한 개발자 설정을 선언합니다.">
<polygon fill="white" stroke="#666666" points="546.5,-145.5 395.5,-145.5 395.5,-126.5 546.5,-126.5 546.5,-145.5"/>
<text text-anchor="middle" x="471" y="-133.5" font-family="Malgun Gothic" font-size="10.00">Settings/UToolbarSettings.h</text>
</a>
</g>
</g>
<!-- Node1&#45;&gt;Node7 -->
<g id="edge6_Node000001_Node000007" class="edge">
<title>Node1&#45;&gt;Node7</title>
<g id="a_edge6_Node000001_Node000007"><a xlink:title=" ">
<path fill="none" stroke="#63b8ff" d="M1318.94,-194.98C1139.59,-182.72 733.96,-154.98 556.65,-142.86"/>
<polygon fill="#63b8ff" stroke="#63b8ff" points="556.8,-139.36 546.59,-142.17 556.32,-146.34 556.8,-139.36"/>
</a>
</g>
</g>
<!-- Node14 -->
<g id="Node000014" class="node">
<title>Node14</title>
<g id="a_Node000014"><a xlink:href="FCommon_8h.html" target="_top" xlink:title="Coffee Toolbar 플러그인을 위한 공용 유틸리티 헬퍼를 선언합니다.">
<polygon fill="white" stroke="#666666" points="887.5,-145.5 764.5,-145.5 764.5,-126.5 887.5,-126.5 887.5,-145.5"/>
<text text-anchor="middle" x="826" y="-133.5" font-family="Malgun Gothic" font-size="10.00">Common/FCommon.h</text>
</a>
</g>
</g>
<!-- Node1&#45;&gt;Node14 -->
<g id="edge16_Node000001_Node000014" class="edge">
<title>Node1&#45;&gt;Node14</title>
<g id="a_edge16_Node000001_Node000014"><a xlink:title=" ">
<path fill="none" stroke="#63b8ff" d="M1318.69,-194.95C1216.75,-187.37 1044.21,-172.68 897,-151 890.15,-149.99 882.96,-148.77 875.9,-147.47"/>
<polygon fill="#63b8ff" stroke="#63b8ff" points="876.16,-143.96 865.69,-145.53 874.86,-150.84 876.16,-143.96"/>
</a>
</g>
</g>
<!-- Node16 -->
<g id="Node000016" class="node">
<title>Node16</title>
<g id="a_Node000016"><a xlink:title=" ">
<polygon fill="#e0e0e0" stroke="#999999" points="1125.5,-145.5 1048.5,-145.5 1048.5,-126.5 1125.5,-126.5 1125.5,-145.5"/>
<text text-anchor="middle" x="1087" y="-133.5" font-family="Malgun Gothic" font-size="10.00">ToolMenus.h</text>
</a>
</g>
</g>
<!-- Node1&#45;&gt;Node16 -->
<g id="edge19_Node000001_Node000016" class="edge">
<title>Node1&#45;&gt;Node16</title>
<g id="a_edge19_Node000001_Node000016"><a xlink:title=" ">
<path fill="none" stroke="#63b8ff" d="M1318.94,-187.15C1265.46,-178.17 1195.97,-165.45 1135,-151 1131.56,-150.18 1128,-149.27 1124.44,-148.32"/>
<polygon fill="#63b8ff" stroke="#63b8ff" points="1125.11,-144.87 1114.54,-145.55 1123.23,-151.61 1125.11,-144.87"/>
</a>
</g>
</g>
<!-- Node17 -->
<g id="Node000017" class="node">
<title>Node17</title>
<g id="a_Node000017"><a xlink:title=" ">
<polygon fill="#e0e0e0" stroke="#999999" points="1250.5,-145.5 1143.5,-145.5 1143.5,-126.5 1250.5,-126.5 1250.5,-145.5"/>
<text text-anchor="middle" x="1197" y="-133.5" font-family="Malgun Gothic" font-size="10.00">UnrealEdGlobals.h</text>
</a>
</g>
</g>
<!-- Node1&#45;&gt;Node17 -->
<g id="edge20_Node000001_Node000017" class="edge">
<title>Node1&#45;&gt;Node17</title>
<g id="a_edge20_Node000001_Node000017"><a xlink:title=" ">
<path fill="none" stroke="#63b8ff" d="M1360.91,-186.95C1323.11,-175.43 1270.25,-159.32 1234.88,-148.54"/>
<polygon fill="#63b8ff" stroke="#63b8ff" points="1235.53,-145.08 1224.95,-145.52 1233.49,-151.78 1235.53,-145.08"/>
</a>
</g>
</g>
<!-- Node18 -->
<g id="Node000018" class="node">
<title>Node18</title>
<g id="a_Node000018"><a xlink:title=" ">
<polygon fill="#e0e0e0" stroke="#999999" points="1349,-145.5 1269,-145.5 1269,-126.5 1349,-126.5 1349,-145.5"/>
<text text-anchor="middle" x="1309" y="-133.5" font-family="Malgun Gothic" font-size="10.00">FileHelpers.h</text>
</a>
</g>
</g>
<!-- Node1&#45;&gt;Node18 -->
<g id="edge21_Node000001_Node000018" class="edge">
<title>Node1&#45;&gt;Node18</title>
<g id="a_edge21_Node000001_Node000018"><a xlink:title=" ">
<path fill="none" stroke="#63b8ff" d="M1385.25,-186.8C1369.13,-176.27 1347.24,-161.97 1331.05,-151.4"/>
<polygon fill="#63b8ff" stroke="#63b8ff" points="1332.54,-148.2 1322.26,-145.66 1328.72,-154.06 1332.54,-148.2"/>
</a>
</g>
</g>
<!-- Node19 -->
<g id="Node000019" class="node">
<title>Node19</title>
<g id="a_Node000019"><a xlink:title=" ">
<polygon fill="#e0e0e0" stroke="#999999" points="1447,-145.5 1367,-145.5 1367,-126.5 1447,-126.5 1447,-145.5"/>
<text text-anchor="middle" x="1407" y="-133.5" font-family="Malgun Gothic" font-size="10.00">LevelEditor.h</text>
</a>
</g>
</g>
<!-- Node1&#45;&gt;Node19 -->
<g id="edge22_Node000001_Node000019" class="edge">
<title>Node1&#45;&gt;Node19</title>
<g id="a_edge22_Node000001_Node000019"><a xlink:title=" ">
<path fill="none" stroke="#63b8ff" d="M1407,-186.8C1407,-177.7 1407,-165.79 1407,-155.9"/>
<polygon fill="#63b8ff" stroke="#63b8ff" points="1410.5,-155.84 1407,-145.84 1403.5,-155.84 1410.5,-155.84"/>
</a>
</g>
</g>
<!-- Node20 -->
<g id="Node000020" class="node">
<title>Node20</title>
<g id="a_Node000020"><a xlink:title=" ">
<polygon fill="#e0e0e0" stroke="#999999" points="1564.5,-145.5 1465.5,-145.5 1465.5,-126.5 1564.5,-126.5 1564.5,-145.5"/>
<text text-anchor="middle" x="1515" y="-133.5" font-family="Malgun Gothic" font-size="10.00">IAssetViewport.h</text>
</a>
</g>
</g>
<!-- Node1&#45;&gt;Node20 -->
<g id="edge23_Node000001_Node000020" class="edge">
<title>Node1&#45;&gt;Node20</title>
<g id="a_edge23_Node000001_Node000020"><a xlink:title=" ">
<path fill="none" stroke="#63b8ff" d="M1430.7,-186.95C1448.89,-176.18 1473.86,-161.38 1491.9,-150.69"/>
<polygon fill="#63b8ff" stroke="#63b8ff" points="1493.81,-153.63 1500.63,-145.52 1490.24,-147.6 1493.81,-153.63"/>
</a>
</g>
</g>
<!-- Node21 -->
<g id="Node000021" class="node">
<title>Node21</title>
<g id="a_Node000021"><a xlink:title=" ">
<polygon fill="#e0e0e0" stroke="#999999" points="1737.5,-151 1582.5,-151 1582.5,-121 1737.5,-121 1737.5,-151"/>
<text text-anchor="start" x="1590.5" y="-139" font-family="Malgun Gothic" font-size="10.00">AssetRegistry/AssetRegistry</text>
<text text-anchor="middle" x="1660" y="-128" font-family="Malgun Gothic" font-size="10.00">Module.h</text>
</a>
</g>
</g>
<!-- Node1&#45;&gt;Node21 -->
<g id="edge24_Node000001_Node000021" class="edge">
<title>Node1&#45;&gt;Node21</title>
<g id="a_edge24_Node000001_Node000021"><a xlink:title=" ">
<path fill="none" stroke="#63b8ff" d="M1462.52,-186.95C1501.49,-177.1 1553.75,-163.88 1594.72,-153.51"/>
<polygon fill="#63b8ff" stroke="#63b8ff" points="1595.77,-156.86 1604.61,-151.01 1594.05,-150.07 1595.77,-156.86"/>
</a>
</g>
</g>
<!-- Node22 -->
<g id="Node000022" class="node">
<title>Node22</title>
<g id="a_Node000022"><a xlink:title=" ">
<polygon fill="#e0e0e0" stroke="#999999" points="1920.5,-145.5 1755.5,-145.5 1755.5,-126.5 1920.5,-126.5 1920.5,-145.5"/>
<text text-anchor="middle" x="1838" y="-133.5" font-family="Malgun Gothic" font-size="10.00">AssetRegistry/IAssetRegistry.h</text>
</a>
</g>
</g>
<!-- Node1&#45;&gt;Node22 -->
<g id="edge25_Node000001_Node000022" class="edge">
<title>Node1&#45;&gt;Node22</title>
<g id="a_edge25_Node000001_Node000022"><a xlink:title=" ">
<path fill="none" stroke="#63b8ff" d="M1495.08,-188.21C1563.74,-178.2 1661.45,-163.87 1747,-151 1755.29,-149.75 1764.01,-148.43 1772.63,-147.11"/>
<polygon fill="#63b8ff" stroke="#63b8ff" points="1773.31,-150.55 1782.67,-145.57 1772.25,-143.63 1773.31,-150.55"/>
</a>
</g>
</g>
<!-- Node23 -->
<g id="Node000023" class="node">
<title>Node23</title>
<g id="a_Node000023"><a xlink:title=" ">
<polygon fill="#e0e0e0" stroke="#999999" points="2065,-145.5 1939,-145.5 1939,-126.5 2065,-126.5 2065,-145.5"/>
<text text-anchor="middle" x="2002" y="-133.5" font-family="Malgun Gothic" font-size="10.00">Misc/MessageDialog.h</text>
</a>
</g>
</g>
<!-- Node1&#45;&gt;Node23 -->
<g id="edge26_Node000001_Node000023" class="edge">
<title>Node1&#45;&gt;Node23</title>
<g id="a_edge26_Node000001_Node000023"><a xlink:title=" ">
<path fill="none" stroke="#63b8ff" d="M1495.22,-195.18C1599.44,-187.71 1777.89,-173.01 1930,-151 1937.1,-149.97 1944.57,-148.72 1951.9,-147.39"/>
<polygon fill="#63b8ff" stroke="#63b8ff" points="1952.57,-150.82 1961.75,-145.54 1951.28,-143.94 1952.57,-150.82"/>
</a>
</g>
</g>
<!-- Node24 -->
<g id="Node000024" class="node">
<title>Node24</title>
<g id="a_Node000024"><a xlink:title=" ">
<polygon fill="#e0e0e0" stroke="#999999" points="2217,-145.5 2083,-145.5 2083,-126.5 2217,-126.5 2217,-145.5"/>
<text text-anchor="middle" x="2150" y="-133.5" font-family="Malgun Gothic" font-size="10.00">Editor/UnrealEdEngine.h</text>
</a>
</g>
</g>
<!-- Node1&#45;&gt;Node24 -->
<g id="edge27_Node000001_Node000024" class="edge">
<title>Node1&#45;&gt;Node24</title>
<g id="a_edge27_Node000001_Node000024"><a xlink:title=" ">
<path fill="none" stroke="#63b8ff" d="M1495.24,-197.4C1623.21,-191.51 1867.56,-177.67 2074,-151 2081.86,-149.98 2090.14,-148.69 2098.22,-147.31"/>
<polygon fill="#63b8ff" stroke="#63b8ff" points="2099.08,-150.71 2108.31,-145.51 2097.86,-143.82 2099.08,-150.71"/>
</a>
</g>
</g>
<!-- Node25 -->
<g id="Node000025" class="node">
<title>Node25</title>
<g id="a_Node000025"><a xlink:title=" ">
<polygon fill="#e0e0e0" stroke="#999999" points="2383,-145.5 2235,-145.5 2235,-126.5 2383,-126.5 2383,-145.5"/>
<text text-anchor="middle" x="2309" y="-133.5" font-family="Malgun Gothic" font-size="10.00">Modules/ModuleManager.h</text>
</a>
</g>
</g>
<!-- Node1&#45;&gt;Node25 -->
<g id="edge28_Node000001_Node000025" class="edge">
<title>Node1&#45;&gt;Node25</title>
<g id="a_edge28_Node000001_Node000025"><a xlink:title=" ">
<path fill="none" stroke="#63b8ff" d="M1495.14,-198.69C1645.49,-194.05 1960.99,-181.35 2226,-151 2235.06,-149.96 2244.64,-148.6 2253.94,-147.13"/>
<polygon fill="#63b8ff" stroke="#63b8ff" points="2254.59,-150.57 2263.89,-145.5 2253.46,-143.66 2254.59,-150.57"/>
</a>
</g>
</g>
<!-- Node3 -->
<g id="Node000003" class="node">
<title>Node3</title>
<g id="a_Node000003"><a xlink:title=" ">
<polygon fill="#e0e0e0" stroke="#999999" points="711,-19 623,-19 623,0 711,0 711,-19"/>
<text text-anchor="middle" x="667" y="-7" font-family="Malgun Gothic" font-size="10.00">CoreMinimal.h</text>
</a>
</g>
</g>
<!-- Node2&#45;&gt;Node3 -->
<g id="edge2_Node000002_Node000003" class="edge">
<title>Node2&#45;&gt;Node3</title>
<g id="a_edge2_Node000002_Node000003"><a xlink:title=" ">
<path fill="none" stroke="#63b8ff" d="M953.51,-126.25C920.94,-106.62 843.77,-60.35 831,-55 795.24,-40.02 752.98,-28.69 720.32,-21.22"/>
<polygon fill="#63b8ff" stroke="#63b8ff" points="721.03,-17.79 710.51,-19.02 719.5,-24.62 721.03,-17.79"/>
</a>
</g>
</g>
<!-- Node4 -->
<g id="Node000004" class="node">
<title>Node4</title>
<g id="a_Node000004"><a xlink:title=" ">
<polygon fill="#e0e0e0" stroke="#999999" points="1168.5,-79.5 1059.5,-79.5 1059.5,-60.5 1168.5,-60.5 1168.5,-79.5"/>
<text text-anchor="middle" x="1114" y="-67.5" font-family="Malgun Gothic" font-size="10.00">Widgets/SWidget.h</text>
</a>
</g>
</g>
<!-- Node2&#45;&gt;Node4 -->
<g id="edge3_Node000002_Node000004" class="edge">
<title>Node2&#45;&gt;Node4</title>
<g id="a_edge3_Node000002_Node000004"><a xlink:title=" ">
<path fill="none" stroke="#63b8ff" d="M987.69,-126.37C1012.73,-115.39 1056.15,-96.36 1084.98,-83.72"/>
<polygon fill="#63b8ff" stroke="#63b8ff" points="1086.4,-86.92 1094.16,-79.7 1083.59,-80.51 1086.4,-86.92"/>
</a>
</g>
</g>
<!-- Node5 -->
<g id="Node000005" class="node">
<title>Node5</title>
<g id="a_Node000005"><a xlink:title=" ">
<polygon fill="#e0e0e0" stroke="#999999" points="1317,-85 1187,-85 1187,-55 1317,-55 1317,-85"/>
<text text-anchor="start" x="1195" y="-73" font-family="Malgun Gothic" font-size="10.00">Framework/Commands</text>
<text text-anchor="middle" x="1252" y="-62" font-family="Malgun Gothic" font-size="10.00">/UIAction.h</text>
</a>
</g>
</g>
<!-- Node2&#45;&gt;Node5 -->
<g id="edge4_Node000002_Node000005" class="edge">
<title>Node2&#45;&gt;Node5</title>
<g id="a_edge4_Node000002_Node000005"><a xlink:title=" ">
<path fill="none" stroke="#63b8ff" d="M1006.01,-126.44C1050.35,-116.44 1124.65,-99.7 1180.01,-87.22"/>
<polygon fill="#63b8ff" stroke="#63b8ff" points="1180.78,-90.64 1189.76,-85.02 1179.24,-83.81 1180.78,-90.64"/>
</a>
</g>
</g>
<!-- Node6 -->
<g id="Node000006" class="node">
<title>Node6</title>
<g id="a_Node000006"><a xlink:title=" ">
<polygon fill="#e0e0e0" stroke="#999999" points="1041,-79.5 895,-79.5 895,-60.5 1041,-60.5 1041,-79.5"/>
<text text-anchor="middle" x="968" y="-67.5" font-family="Malgun Gothic" font-size="10.00">AssetRegistry/AssetData.h</text>
</a>
</g>
</g>
<!-- Node2&#45;&gt;Node6 -->
<g id="edge5_Node000002_Node000006" class="edge">
<title>Node2&#45;&gt;Node6</title>
<g id="a_edge5_Node000002_Node000006"><a xlink:title=" ">
<path fill="none" stroke="#63b8ff" d="M968,-126.37C968,-117.16 968,-102.29 968,-90.27"/>
<polygon fill="#63b8ff" stroke="#63b8ff" points="971.5,-89.91 968,-79.91 964.5,-89.91 971.5,-89.91"/>
</a>
</g>
</g>
<!-- Node7&#45;&gt;Node3 -->
<g id="edge7_Node000007_Node000003" class="edge">
<title>Node7&#45;&gt;Node3</title>
<g id="a_edge7_Node000007_Node000003"><a xlink:title=" ">
<path fill="none" stroke="#63b8ff" d="M546.8,-130.27C581.57,-124.3 620.8,-111.58 647,-85 661.51,-70.28 665.79,-46.22 666.91,-29.44"/>
<polygon fill="#63b8ff" stroke="#63b8ff" points="670.41,-29.3 667.26,-19.19 663.42,-29.06 670.41,-29.3"/>
</a>
</g>
</g>
<!-- Node8 -->
<g id="Node000008" class="node">
<title>Node8</title>
<g id="a_Node000008"><a xlink:href="FToolbarButtonInfo_8h.html" target="_top" xlink:title="커스터마이즈 가능한 Coffee Toolbar 버튼 정보를 선언합니다.">
<polygon fill="white" stroke="#666666" points="169.5,-79.5 52.5,-79.5 52.5,-60.5 169.5,-60.5 169.5,-79.5"/>
<text text-anchor="middle" x="111" y="-67.5" font-family="Malgun Gothic" font-size="10.00">FToolbarButtonInfo.h</text>
</a>
</g>
</g>
<!-- Node7&#45;&gt;Node8 -->
<g id="edge8_Node000007_Node000008" class="edge">
<title>Node7&#45;&gt;Node8</title>
<g id="a_edge8_Node000007_Node000008"><a xlink:title=" ">
<path fill="none" stroke="#63b8ff" d="M417.43,-126.47C358.6,-116.96 261.4,-100.82 178,-85 172.32,-83.92 166.37,-82.75 160.47,-81.55"/>
<polygon fill="#63b8ff" stroke="#63b8ff" points="161.13,-78.11 150.63,-79.53 159.72,-84.97 161.13,-78.11"/>
</a>
</g>
</g>
<!-- Node10 -->
<g id="Node000010" class="node">
<title>Node10</title>
<g id="a_Node000010"><a xlink:title=" ">
<polygon fill="#e0e0e0" stroke="#999999" points="459,-79.5 307,-79.5 307,-60.5 459,-60.5 459,-79.5"/>
<text text-anchor="middle" x="383" y="-67.5" font-family="Malgun Gothic" font-size="10.00">Engine/DeveloperSettings.h</text>
</a>
</g>
</g>
<!-- Node7&#45;&gt;Node10 -->
<g id="edge11_Node000007_Node000010" class="edge">
<title>Node7&#45;&gt;Node10</title>
<g id="a_edge11_Node000007_Node000010"><a xlink:title=" ">
<path fill="none" stroke="#63b8ff" d="M459.13,-126.37C444.83,-115.97 420.57,-98.32 403.28,-85.75"/>
<polygon fill="#63b8ff" stroke="#63b8ff" points="405.11,-82.75 394.96,-79.7 400.99,-88.41 405.11,-82.75"/>
</a>
</g>
</g>
<!-- Node11 -->
<g id="Node000011" class="node">
<title>Node11</title>
<g id="a_Node000011"><a xlink:href="FFolderPathInfo_8h.html" target="_top" xlink:title=" ">
<polygon fill="white" stroke="#666666" points="288.5,-79.5 187.5,-79.5 187.5,-60.5 288.5,-60.5 288.5,-79.5"/>
<text text-anchor="middle" x="238" y="-67.5" font-family="Malgun Gothic" font-size="10.00">FFolderPathInfo.h</text>
</a>
</g>
</g>
<!-- Node7&#45;&gt;Node11 -->
<g id="edge12_Node000007_Node000011" class="edge">
<title>Node7&#45;&gt;Node11</title>
<g id="a_edge12_Node000007_Node000011"><a xlink:title=" ">
<path fill="none" stroke="#63b8ff" d="M439.58,-126.37C398.12,-114.98 325.05,-94.91 279.21,-82.32"/>
<polygon fill="#63b8ff" stroke="#63b8ff" points="279.87,-78.87 269.3,-79.6 278.01,-85.62 279.87,-78.87"/>
</a>
</g>
</g>
<!-- Node13 -->
<g id="Node000013" class="node">
<title>Node13</title>
<g id="a_Node000013"><a xlink:title=" ">
<polygon fill="#e0e0e0" stroke="#999999" points="638.5,-79.5 477.5,-79.5 477.5,-60.5 638.5,-60.5 638.5,-79.5"/>
<text text-anchor="middle" x="558" y="-67.5" font-family="Malgun Gothic" font-size="10.00">UToolbarSettings.generated.h</text>
</a>
</g>
</g>
<!-- Node7&#45;&gt;Node13 -->
<g id="edge15_Node000007_Node000013" class="edge">
<title>Node7&#45;&gt;Node13</title>
<g id="a_edge15_Node000007_Node000013"><a xlink:title=" ">
<path fill="none" stroke="#63b8ff" d="M482.73,-126.37C496.87,-115.97 520.86,-98.32 537.95,-85.75"/>
<polygon fill="#63b8ff" stroke="#63b8ff" points="540.19,-88.44 546.17,-79.7 536.05,-82.81 540.19,-88.44"/>
</a>
</g>
</g>
<!-- Node8&#45;&gt;Node3 -->
<g id="edge9_Node000008_Node000003" class="edge">
<title>Node8&#45;&gt;Node3</title>
<g id="a_edge9_Node000008_Node000003"><a xlink:title=" ">
<path fill="none" stroke="#63b8ff" d="M148.07,-60.46C157.77,-58.44 168.25,-56.46 178,-55 335.09,-31.52 522.54,-18.65 612.95,-13.38"/>
<polygon fill="#63b8ff" stroke="#63b8ff" points="613.18,-16.87 622.96,-12.8 612.78,-9.88 613.18,-16.87"/>
</a>
</g>
</g>
<!-- Node9 -->
<g id="Node000009" class="node">
<title>Node9</title>
<g id="a_Node000009"><a xlink:title=" ">
<polygon fill="#e0e0e0" stroke="#999999" points="170,-19 0,-19 0,0 170,0 170,-19"/>
<text text-anchor="middle" x="85" y="-7" font-family="Malgun Gothic" font-size="10.00">FToolbarButtonInfo.generated.h</text>
</a>
</g>
</g>
<!-- Node8&#45;&gt;Node9 -->
<g id="edge10_Node000008_Node000009" class="edge">
<title>Node8&#45;&gt;Node9</title>
<g id="a_edge10_Node000008_Node000009"><a xlink:title=" ">
<path fill="none" stroke="#63b8ff" d="M107.16,-60.37C103.44,-51.99 97.67,-39.01 92.95,-28.39"/>
<polygon fill="#63b8ff" stroke="#63b8ff" points="96.11,-26.88 88.85,-19.17 89.72,-29.73 96.11,-26.88"/>
</a>
</g>
</g>
<!-- Node11&#45;&gt;Node3 -->
<g id="edge13_Node000011_Node000003" class="edge">
<title>Node11&#45;&gt;Node3</title>
<g id="a_edge13_Node000011_Node000003"><a xlink:title=" ">
<path fill="none" stroke="#63b8ff" d="M271.82,-60.43C280.33,-58.46 289.47,-56.51 298,-55 408.99,-35.42 540.29,-21.84 612.53,-15.19"/>
<polygon fill="#63b8ff" stroke="#63b8ff" points="613.11,-18.65 622.75,-14.26 612.47,-11.68 613.11,-18.65"/>
</a>
</g>
</g>
<!-- Node12 -->
<g id="Node000012" class="node">
<title>Node12</title>
<g id="a_Node000012"><a xlink:title=" ">
<polygon fill="#e0e0e0" stroke="#999999" points="342,-19 188,-19 188,0 342,0 342,-19"/>
<text text-anchor="middle" x="265" y="-7" font-family="Malgun Gothic" font-size="10.00">FFolderPathInfo.generated.h</text>
</a>
</g>
</g>
<!-- Node11&#45;&gt;Node12 -->
<g id="edge14_Node000011_Node000012" class="edge">
<title>Node11&#45;&gt;Node12</title>
<g id="a_edge14_Node000011_Node000012"><a xlink:title=" ">
<path fill="none" stroke="#63b8ff" d="M241.98,-60.37C245.85,-51.99 251.84,-39.01 256.74,-28.39"/>
<polygon fill="#63b8ff" stroke="#63b8ff" points="259.99,-29.71 261,-19.17 253.63,-26.78 259.99,-29.71"/>
</a>
</g>
</g>
<!-- Node14&#45;&gt;Node3 -->
<g id="edge17_Node000014_Node000003" class="edge">
<title>Node14&#45;&gt;Node3</title>
<g id="a_edge17_Node000014_Node000003"><a xlink:title=" ">
<path fill="none" stroke="#63b8ff" d="M826.91,-126.29C828.1,-110.1 828.2,-75.21 810,-55 787.56,-30.09 751.46,-18.99 721.14,-14.1"/>
<polygon fill="#63b8ff" stroke="#63b8ff" points="721.5,-10.61 711.11,-12.67 720.51,-17.54 721.5,-10.61"/>
</a>
</g>
</g>
<!-- Node15 -->
<g id="Node000015" class="node">
<title>Node15</title>
<g id="a_Node000015"><a xlink:title=" ">
<polygon fill="#e0e0e0" stroke="#999999" points="801,-79.5 695,-79.5 695,-60.5 801,-60.5 801,-79.5"/>
<text text-anchor="middle" x="748" y="-67.5" font-family="Malgun Gothic" font-size="10.00">Styling/AppStyle.h</text>
</a>
</g>
</g>
<!-- Node14&#45;&gt;Node15 -->
<g id="edge18_Node000014_Node000015" class="edge">
<title>Node14&#45;&gt;Node15</title>
<g id="a_edge18_Node000014_Node000015"><a xlink:title=" ">
<path fill="none" stroke="#63b8ff" d="M815.48,-126.37C802.92,-116.06 781.69,-98.65 766.4,-86.09"/>
<polygon fill="#63b8ff" stroke="#63b8ff" points="768.55,-83.34 758.6,-79.7 764.11,-88.75 768.55,-83.34"/>
</a>
</g>
</g>
</g>
</svg>

<g id="navigator" transform="translate(0 0)" fill="#404254">
  <rect fill="#f2f5e9" fill-opacity="0.5" stroke="#606060" stroke-width=".5" x="0" y="0" width="60" height="60"/>
  <use id="zoomplus" xlink:href="#zoomPlus" x="17" y="9" onmousedown="handleZoom(evt,'in')"/>
  <use id="zoomminus" xlink:href="#zoomMin" x="42" y="9" onmousedown="handleZoom(evt,'out')"/>
  <use id="reset" xlink:href="#resetDef" x="30" y="36" onmousedown="handleReset()"/>
   <use id="arrowup" xlink:href="#arrowUp" x="0" y="0" onmousedown="handlePan(0,-1)"/>
  <use id="arrowright" xlink:href="#arrowRight" x="0" y="0" onmousedown="handlePan(1,0)"/>
  <use id="arrowdown" xlink:href="#arrowDown" x="0" y="0" onmousedown="handlePan(0,1)"/>
  <use id="arrowleft" xlink:href="#arrowLeft" x="0" y="0" onmousedown="handlePan(-1,0)"/>
</g>
<svg viewBox="0 0 15 15" width="100%" height="30px" preserveAspectRatio="xMaxYMin meet">
 <g id="arrow_out" transform="scale(0.3 0.3)">
  <a xlink:href="FLevelFeature_8cpp__incl_org.svg" target="_base">
   <rect id="button" ry="5" rx="5" y="6" x="6" height="38" width="38"
        fill="#f2f5e9" fill-opacity="0.5" stroke="#606060" stroke-width="1.0"/>
   <path id="arrow"
     d="M 11.500037,31.436501 C 11.940474,20.09759 22.043105,11.32322 32.158766,21.979434 L 37.068811,17.246167 C 37.068811,17.246167 37.088388,32 37.088388,32 L 22.160133,31.978069 C 22.160133,31.978069 26.997745,27.140456 26.997745,27.140456 C 18.528582,18.264221 13.291696,25.230495 11.500037,31.436501 z"
     style="fill:#404040;"/>
  </a>
 </g>
</svg>

<style type='text/css'>
<![CDATA[
[data-mouse-over-selected='false'] { opacity: 0.7; }
[data-mouse-over-selected='true']  { opacity: 1.0; }
]]>
</style>
<script type="application/ecmascript"><![CDATA[
document.addEventListener('DOMContentLoaded', (event) => {
  highlightEdges();
  highlightAdjacentNodes();
});
]]></script>
</svg>
