<?xml version="1.0" encoding="UTF-8" standalone="no"?>
<!DOCTYPE svg PUBLIC "-//W3C//DTD SVG 1.1//EN"
 "http://www.w3.org/Graphics/SVG/1.1/DTD/svg11.dtd">
<!-- Generated by graphviz version 2.43.0 (0)
 -->
<!-- Title: Source/CoffeeToolbar/Public/Level/FLevelFeature.h Pages: 1 -->
<svg width="336pt" height="170pt"
 viewBox="0.00 0.00 335.95 170.00" xmlns="http://www.w3.org/2000/svg" xmlns:xlink="http://www.w3.org/1999/xlink">
<g id="graph0" class="graph" transform="scale(1 1) rotate(0) translate(4 166)">
<title>Source/CoffeeToolbar/Public/Level/FLevelFeature.h</title>
<!-- Node1 -->
<g id="Node000001" class="node">
<title>Node1</title>
<g id="a_Node000001"><a xlink:title="툴바에 레벨 선택 컨트롤을 제공하는 기능을 선언합니다.">
<polygon fill="#999999" stroke="#666666" points="181.95,-162 22.95,-162 22.95,-132 181.95,-132 181.95,-162"/>
<text text-anchor="start" x="30.95" y="-150" font-family="Malgun Gothic" font-size="10.00">Source/CoffeeToolbar</text>
<text text-anchor="middle" x="102.45" y="-139" font-family="Malgun Gothic" font-size="10.00">/Public/Level/FLevelFeature.h</text>
</a>
</g>
</g>
<!-- Node2 -->
<g id="Node000002" class="node">
<title>Node2</title>
<g id="a_Node000002"><a xlink:href="FToolbar_8cpp.html" target="_top" xlink:title="Coffee Toolbar 모듈의 라이프사이클과 메뉴 등록 로직을 구현합니다.">
<polygon fill="white" stroke="#666666" points="186.95,-30 67.95,-30 67.95,0 186.95,0 186.95,-30"/>
<text text-anchor="start" x="75.95" y="-18" font-family="Malgun Gothic" font-size="10.00">Source/CoffeeToolbar</text>
<text text-anchor="middle" x="127.45" y="-7" font-family="Malgun Gothic" font-size="10.00">/Private/FToolbar.cpp</text>
</a>
</g>
</g>
<!-- Node1&#45;&gt;Node2 -->
<g id="edge1_Node000001_Node000002" class="edge">
<title>Node1&#45;&gt;Node2</title>
<g id="a_edge1_Node000001_Node000002"><a xlink:title=" ">
<path fill="none" stroke="#63b8ff" d="M42.43,-127.68C27.83,-120.25 13.98,-110 5.45,-96 -1.49,-84.62 -1.98,-77.07 5.45,-66 19.54,-45 44.2,-32.81 67.67,-25.74"/>
<polygon fill="#63b8ff" stroke="#63b8ff" points="41.03,-130.89 51.57,-131.95 43.99,-124.55 41.03,-130.89"/>
</a>
</g>
</g>
<!-- Node3 -->
<g id="Node000003" class="node">
<title>Node3</title>
<g id="a_Node000003"><a xlink:href="FLevelFeature_8cpp.html" target="_top" xlink:title="Coffee Toolbar에서 레벨 선택을 돕는 헬퍼 기능을 구현합니다.">
<polygon fill="white" stroke="#666666" points="190.45,-96 14.45,-96 14.45,-66 190.45,-66 190.45,-96"/>
<text text-anchor="start" x="22.45" y="-84" font-family="Malgun Gothic" font-size="10.00">Source/CoffeeToolbar</text>
<text text-anchor="middle" x="102.45" y="-73" font-family="Malgun Gothic" font-size="10.00">/Private/Level/FLevelFeature.cpp</text>
</a>
</g>
</g>
<!-- Node1&#45;&gt;Node3 -->
<g id="edge2_Node000001_Node000003" class="edge">
<title>Node1&#45;&gt;Node3</title>
<g id="a_edge2_Node000001_Node000003"><a xlink:title=" ">
<path fill="none" stroke="#63b8ff" d="M102.45,-121.54C102.45,-112.96 102.45,-103.61 102.45,-96.16"/>
<polygon fill="#63b8ff" stroke="#63b8ff" points="98.95,-121.8 102.45,-131.8 105.95,-121.8 98.95,-121.8"/>
</a>
</g>
</g>
<!-- Node4 -->
<g id="Node000004" class="node">
<title>Node4</title>
<g id="a_Node000004"><a xlink:href="FToolbar_8h.html" target="_top" xlink:title="CoffeeToolbar 플러그인의 주요 모듈 구현을 선언합니다.">
<polygon fill="white" stroke="#666666" points="327.95,-96 208.95,-96 208.95,-66 327.95,-66 327.95,-96"/>
<text text-anchor="start" x="216.95" y="-84" font-family="Malgun Gothic" font-size="10.00">Source/CoffeeToolbar</text>
<text text-anchor="middle" x="268.45" y="-73" font-family="Malgun Gothic" font-size="10.00">/Public/FToolbar.h</text>
</a>
</g>
</g>
<!-- Node1&#45;&gt;Node4 -->
<g id="edge3_Node000001_Node000004" class="edge">
<title>Node1&#45;&gt;Node4</title>
<g id="a_edge3_Node000001_Node000004"><a xlink:title=" ">
<path fill="none" stroke="#63b8ff" d="M148.3,-128.32C174.72,-118.14 207.47,-105.51 232.1,-96.01"/>
<polygon fill="#63b8ff" stroke="#63b8ff" points="146.95,-125.09 138.88,-131.95 149.47,-131.62 146.95,-125.09"/>
</a>
</g>
</g>
<!-- Node4&#45;&gt;Node2 -->
<g id="edge4_Node000004_Node000002" class="edge">
<title>Node4&#45;&gt;Node2</title>
<g id="a_edge4_Node000004_Node000002"><a xlink:title=" ">
<path fill="none" stroke="#63b8ff" d="M228.32,-61.78C206.09,-51.69 178.87,-39.34 158.32,-30.01"/>
<polygon fill="#63b8ff" stroke="#63b8ff" points="226.95,-65.01 237.51,-65.95 229.85,-58.63 226.95,-65.01"/>
</a>
</g>
</g>
</g>
</svg>
