<?xml version="1.0" encoding="UTF-8" standalone="no"?>
<!DOCTYPE svg PUBLIC "-//W3C//DTD SVG 1.1//EN"
 "http://www.w3.org/Graphics/SVG/1.1/DTD/svg11.dtd">
<!-- Generated by graphviz version 2.43.0 (0)
 -->
<!-- Title: Source/CoffeeToolbar/Private/Level/FLevelFeature.cpp Pages: 1 -->
<!--zoomable 225 -->

<svg id="main" version="1.1" xmlns="http://www.w3.org/2000/svg" xmlns:xlink="http://www.w3.org/1999/xlink" xml:space="preserve" onload="init(evt)">
<style type="text/css"><![CDATA[
.node, .edge {opacity: 0.7;}
.node.selected, .edge.selected {opacity: 1;}
.edge:hover path { stroke: red; }
.edge:hover polygon { stroke: red; fill: red; }
]]></style>

<defs>
  <circle id="rim" cx="0" cy="0" r="7"/>
  <circle id="rim2" cx="0" cy="0" r="3.5"/>
  <g id="zoomPlus">
    <use xlink:href="#rim" fill="#404040"><set attributeName="fill" to="#808080" begin="zoomplus.mouseover" end="zoomplus.mouseout"/></use>
    <path d="M-4,0h8M0,-4v8" fill="none" stroke="white" stroke-width="1.5" pointer-events="none"/>
  </g>
  <g id="zoomMin">
    <use xlink:href="#rim" fill="#404040"><set attributeName="fill" to="#808080" begin="zoomminus.mouseover" end="zoomminus.mouseout"/></use>
    <path d="M-4,0h8" fill="none" stroke="white" stroke-width="1.5" pointer-events="none"/>
  </g>
  <g id="arrowUp" transform="translate(30 24)">
    <use xlink:href="#rim"/>
    <path pointer-events="none" fill="none" stroke="white" stroke-width="1.5" d="M0,-3.0v7 M-2.5,-0.5L0,-3.0L2.5,-0.5"/>
  </g>
  <g id="arrowRight" transform="rotate(90) translate(36 -43)">
    <use xlink:href="#rim"/>
    <path pointer-events="none" fill="none" stroke="white" stroke-width="1.5" d="M0,-3.0v7 M-2.5,-0.5L0,-3.0L2.5,-0.5"/>
  </g>
  <g id="arrowDown" transform="rotate(180) translate(-30 -48)">
    <use xlink:href="#rim"/>
    <path pointer-events="none" fill="none" stroke="white" stroke-width="1.5" d="M0,-3.0v7 M-2.5,-0.5L0,-3.0L2.5,-0.5"/>
  </g>
  <g id="arrowLeft" transform="rotate(270) translate(-36 17)">
    <use xlink:href="#rim"/>
    <path pointer-events="none" fill="none" stroke="white" stroke-width="1.5" d="M0,-3.0v7 M-2.5,-0.5L0,-3.0L2.5,-0.5"/>
  </g>
  <g id="resetDef">
    <use xlink:href="#rim2" fill="#404040"><set attributeName="fill" to="#808080" begin="reset.mouseover" end="reset.mouseout"/></use>
  </g>
</defs>
<script type="application/ecmascript">
var viewWidth = 2302;
var viewHeight = 225;
var sectionId = 'dynsection-0';
</script>
<script type="application/ecmascript" xlink:href="svg.min.js"/>
<svg id="graph" class="graph">
<g id="viewport">
<title>Source/CoffeeToolbar/Private/Level/FLevelFeature.cpp</title>
<!-- Node1 -->
<g id="Node000001" class="node">
<title>Node1</title>
<g id="a_Node000001"><a xlink:title="Coffee Toolbar에서 레벨 선택을 돕는 헬퍼 기능을 구현합니다.">
<polygon fill="#999999" stroke="#666666" points="1406,-217 1230,-217 1230,-187 1406,-187 1406,-217"/>
<text text-anchor="start" x="1238" y="-205" font-family="Malgun Gothic" font-size="10.00">Source/CoffeeToolbar</text>
<text text-anchor="middle" x="1318" y="-194" font-family="Malgun Gothic" font-size="10.00">/Private/Level/FLevelFeature.cpp</text>
</a>
</g>
</g>
<!-- Node2 -->
<g id="Node000002" class="node">
<title>Node2</title>
<g id="a_Node000002"><a xlink:href="FLevelFeature_8h.html" target="_top" xlink:title="툴바에 레벨 선택 컨트롤을 제공하는 기능을 선언합니다.">
<polygon fill="white" stroke="#666666" points="941,-145.5 817,-145.5 817,-126.5 941,-126.5 941,-145.5"/>
<text text-anchor="middle" x="879" y="-133.5" font-family="Malgun Gothic" font-size="10.00">Level/FLevelFeature.h</text>
</a>
</g>
</g>
<!-- Node1&#45;&gt;Node2 -->
<g id="edge1_Node000001_Node000002" class="edge">
<title>Node1&#45;&gt;Node2</title>
<g id="a_edge1_Node000001_Node000002"><a xlink:title=" ">
<path fill="none" stroke="#63b8ff" d="M1229.92,-190.42C1155.44,-181.14 1046.01,-166.7 951,-151 944.42,-149.91 937.51,-148.68 930.69,-147.42"/>
<polygon fill="#63b8ff" stroke="#63b8ff" points="931.28,-143.97 920.81,-145.54 929.98,-150.84 931.28,-143.97"/>
</a>
</g>
</g>
<!-- Node7 -->
<g id="Node000007" class="node">
<title>Node7</title>
<g id="a_Node000007"><a xlink:href="UToolbarSettings_8h.html" target="_top" xlink:title="Coffee Toolbar 플러그인을 구성하기 위한 개발자 설정을 선언합니다.">
<polygon fill="white" stroke="#666666" points="488.5,-145.5 337.5,-145.5 337.5,-126.5 488.5,-126.5 488.5,-145.5"/>
<text text-anchor="middle" x="413" y="-133.5" font-family="Malgun Gothic" font-size="10.00">Settings/UToolbarSettings.h</text>
</a>
</g>
</g>
<!-- Node1&#45;&gt;Node7 -->
<g id="edge6_Node000001_Node000007" class="edge">
<title>Node1&#45;&gt;Node7</title>
<g id="a_edge6_Node000001_Node000007"><a xlink:title=" ">
<path fill="none" stroke="#63b8ff" d="M1229.99,-194.78C1056.11,-182.48 670.55,-155.21 498.63,-143.06"/>
<polygon fill="#63b8ff" stroke="#63b8ff" points="498.83,-139.56 488.61,-142.35 498.34,-146.54 498.83,-139.56"/>
</a>
</g>
</g>
<!-- Node12 -->
<g id="Node000012" class="node">
<title>Node12</title>
<g id="a_Node000012"><a xlink:href="FCommon_8h.html" target="_top" xlink:title="Coffee Toolbar 플러그인을 위한 공용 유틸리티 헬퍼를 선언합니다.">
<polygon fill="white" stroke="#666666" points="745.5,-145.5 622.5,-145.5 622.5,-126.5 745.5,-126.5 745.5,-145.5"/>
<text text-anchor="middle" x="684" y="-133.5" font-family="Malgun Gothic" font-size="10.00">Common/FCommon.h</text>
</a>
</g>
</g>
<!-- Node1&#45;&gt;Node12 -->
<g id="edge13_Node000001_Node000012" class="edge">
<title>Node1&#45;&gt;Node12</title>
<g id="a_edge13_Node000001_Node000012"><a xlink:title=" ">
<path fill="none" stroke="#63b8ff" d="M1229.97,-192.77C1128.28,-183.16 955.98,-166.61 808,-151 791.23,-149.23 773.19,-147.24 756.21,-145.33"/>
<polygon fill="#63b8ff" stroke="#63b8ff" points="756.12,-141.8 745.79,-144.16 755.34,-148.76 756.12,-141.8"/>
</a>
</g>
</g>
<!-- Node14 -->
<g id="Node000014" class="node">
<title>Node14</title>
<g id="a_Node000014"><a xlink:title=" ">
<polygon fill="#e0e0e0" stroke="#999999" points="1036.5,-145.5 959.5,-145.5 959.5,-126.5 1036.5,-126.5 1036.5,-145.5"/>
<text text-anchor="middle" x="998" y="-133.5" font-family="Malgun Gothic" font-size="10.00">ToolMenus.h</text>
</a>
</g>
</g>
<!-- Node1&#45;&gt;Node14 -->
<g id="edge16_Node000001_Node000014" class="edge">
<title>Node1&#45;&gt;Node14</title>
<g id="a_edge16_Node000001_Node000014"><a xlink:title=" ">
<path fill="none" stroke="#63b8ff" d="M1229.94,-187.15C1176.46,-178.17 1106.97,-165.45 1046,-151 1042.56,-150.18 1039,-149.27 1035.44,-148.32"/>
<polygon fill="#63b8ff" stroke="#63b8ff" points="1036.11,-144.87 1025.54,-145.55 1034.23,-151.61 1036.11,-144.87"/>
</a>
</g>
</g>
<!-- Node15 -->
<g id="Node000015" class="node">
<title>Node15</title>
<g id="a_Node000015"><a xlink:title=" ">
<polygon fill="#e0e0e0" stroke="#999999" points="1161.5,-145.5 1054.5,-145.5 1054.5,-126.5 1161.5,-126.5 1161.5,-145.5"/>
<text text-anchor="middle" x="1108" y="-133.5" font-family="Malgun Gothic" font-size="10.00">UnrealEdGlobals.h</text>
</a>
</g>
</g>
<!-- Node1&#45;&gt;Node15 -->
<g id="edge17_Node000001_Node000015" class="edge">
<title>Node1&#45;&gt;Node15</title>
<g id="a_edge17_Node000001_Node000015"><a xlink:title=" ">
<path fill="none" stroke="#63b8ff" d="M1271.91,-186.95C1234.11,-175.43 1181.25,-159.32 1145.88,-148.54"/>
<polygon fill="#63b8ff" stroke="#63b8ff" points="1146.53,-145.08 1135.95,-145.52 1144.49,-151.78 1146.53,-145.08"/>
</a>
</g>
</g>
<!-- Node16 -->
<g id="Node000016" class="node">
<title>Node16</title>
<g id="a_Node000016"><a xlink:title=" ">
<polygon fill="#e0e0e0" stroke="#999999" points="1260,-145.5 1180,-145.5 1180,-126.5 1260,-126.5 1260,-145.5"/>
<text text-anchor="middle" x="1220" y="-133.5" font-family="Malgun Gothic" font-size="10.00">FileHelpers.h</text>
</a>
</g>
</g>
<!-- Node1&#45;&gt;Node16 -->
<g id="edge18_Node000001_Node000016" class="edge">
<title>Node1&#45;&gt;Node16</title>
<g id="a_edge18_Node000001_Node000016"><a xlink:title=" ">
<path fill="none" stroke="#63b8ff" d="M1296.25,-186.8C1280.13,-176.27 1258.24,-161.97 1242.05,-151.4"/>
<polygon fill="#63b8ff" stroke="#63b8ff" points="1243.54,-148.2 1233.26,-145.66 1239.72,-154.06 1243.54,-148.2"/>
</a>
</g>
</g>
<!-- Node17 -->
<g id="Node000017" class="node">
<title>Node17</title>
<g id="a_Node000017"><a xlink:title=" ">
<polygon fill="#e0e0e0" stroke="#999999" points="1358,-145.5 1278,-145.5 1278,-126.5 1358,-126.5 1358,-145.5"/>
<text text-anchor="middle" x="1318" y="-133.5" font-family="Malgun Gothic" font-size="10.00">LevelEditor.h</text>
</a>
</g>
</g>
<!-- Node1&#45;&gt;Node17 -->
<g id="edge19_Node000001_Node000017" class="edge">
<title>Node1&#45;&gt;Node17</title>
<g id="a_edge19_Node000001_Node000017"><a xlink:title=" ">
<path fill="none" stroke="#63b8ff" d="M1318,-186.8C1318,-177.7 1318,-165.79 1318,-155.9"/>
<polygon fill="#63b8ff" stroke="#63b8ff" points="1321.5,-155.84 1318,-145.84 1314.5,-155.84 1321.5,-155.84"/>
</a>
</g>
</g>
<!-- Node18 -->
<g id="Node000018" class="node">
<title>Node18</title>
<g id="a_Node000018"><a xlink:title=" ">
<polygon fill="#e0e0e0" stroke="#999999" points="1475.5,-145.5 1376.5,-145.5 1376.5,-126.5 1475.5,-126.5 1475.5,-145.5"/>
<text text-anchor="middle" x="1426" y="-133.5" font-family="Malgun Gothic" font-size="10.00">IAssetViewport.h</text>
</a>
</g>
</g>
<!-- Node1&#45;&gt;Node18 -->
<g id="edge20_Node000001_Node000018" class="edge">
<title>Node1&#45;&gt;Node18</title>
<g id="a_edge20_Node000001_Node000018"><a xlink:title=" ">
<path fill="none" stroke="#63b8ff" d="M1341.7,-186.95C1359.89,-176.18 1384.86,-161.38 1402.9,-150.69"/>
<polygon fill="#63b8ff" stroke="#63b8ff" points="1404.81,-153.63 1411.63,-145.52 1401.24,-147.6 1404.81,-153.63"/>
</a>
</g>
</g>
<!-- Node19 -->
<g id="Node000019" class="node">
<title>Node19</title>
<g id="a_Node000019"><a xlink:title=" ">
<polygon fill="#e0e0e0" stroke="#999999" points="1648.5,-151 1493.5,-151 1493.5,-121 1648.5,-121 1648.5,-151"/>
<text text-anchor="start" x="1501.5" y="-139" font-family="Malgun Gothic" font-size="10.00">AssetRegistry/AssetRegistry</text>
<text text-anchor="middle" x="1571" y="-128" font-family="Malgun Gothic" font-size="10.00">Module.h</text>
</a>
</g>
</g>
<!-- Node1&#45;&gt;Node19 -->
<g id="edge21_Node000001_Node000019" class="edge">
<title>Node1&#45;&gt;Node19</title>
<g id="a_edge21_Node000001_Node000019"><a xlink:title=" ">
<path fill="none" stroke="#63b8ff" d="M1373.52,-186.95C1412.49,-177.1 1464.75,-163.88 1505.72,-153.51"/>
<polygon fill="#63b8ff" stroke="#63b8ff" points="1506.77,-156.86 1515.61,-151.01 1505.05,-150.07 1506.77,-156.86"/>
</a>
</g>
</g>
<!-- Node20 -->
<g id="Node000020" class="node">
<title>Node20</title>
<g id="a_Node000020"><a xlink:title=" ">
<polygon fill="#e0e0e0" stroke="#999999" points="1831.5,-145.5 1666.5,-145.5 1666.5,-126.5 1831.5,-126.5 1831.5,-145.5"/>
<text text-anchor="middle" x="1749" y="-133.5" font-family="Malgun Gothic" font-size="10.00">AssetRegistry/IAssetRegistry.h</text>
</a>
</g>
</g>
<!-- Node1&#45;&gt;Node20 -->
<g id="edge22_Node000001_Node000020" class="edge">
<title>Node1&#45;&gt;Node20</title>
<g id="a_edge22_Node000001_Node000020"><a xlink:title=" ">
<path fill="none" stroke="#63b8ff" d="M1406.08,-188.21C1474.74,-178.2 1572.45,-163.87 1658,-151 1666.29,-149.75 1675.01,-148.43 1683.63,-147.11"/>
<polygon fill="#63b8ff" stroke="#63b8ff" points="1684.31,-150.55 1693.67,-145.57 1683.25,-143.63 1684.31,-150.55"/>
</a>
</g>
</g>
<!-- Node21 -->
<g id="Node000021" class="node">
<title>Node21</title>
<g id="a_Node000021"><a xlink:title=" ">
<polygon fill="#e0e0e0" stroke="#999999" points="1976,-145.5 1850,-145.5 1850,-126.5 1976,-126.5 1976,-145.5"/>
<text text-anchor="middle" x="1913" y="-133.5" font-family="Malgun Gothic" font-size="10.00">Misc/MessageDialog.h</text>
</a>
</g>
</g>
<!-- Node1&#45;&gt;Node21 -->
<g id="edge23_Node000001_Node000021" class="edge">
<title>Node1&#45;&gt;Node21</title>
<g id="a_edge23_Node000001_Node000021"><a xlink:title=" ">
<path fill="none" stroke="#63b8ff" d="M1406.22,-195.18C1510.44,-187.71 1688.89,-173.01 1841,-151 1848.1,-149.97 1855.57,-148.72 1862.9,-147.39"/>
<polygon fill="#63b8ff" stroke="#63b8ff" points="1863.57,-150.82 1872.75,-145.54 1862.28,-143.94 1863.57,-150.82"/>
</a>
</g>
</g>
<!-- Node22 -->
<g id="Node000022" class="node">
<title>Node22</title>
<g id="a_Node000022"><a xlink:title=" ">
<polygon fill="#e0e0e0" stroke="#999999" points="2128,-145.5 1994,-145.5 1994,-126.5 2128,-126.5 2128,-145.5"/>
<text text-anchor="middle" x="2061" y="-133.5" font-family="Malgun Gothic" font-size="10.00">Editor/UnrealEdEngine.h</text>
</a>
</g>
</g>
<!-- Node1&#45;&gt;Node22 -->
<g id="edge24_Node000001_Node000022" class="edge">
<title>Node1&#45;&gt;Node22</title>
<g id="a_edge24_Node000001_Node000022"><a xlink:title=" ">
<path fill="none" stroke="#63b8ff" d="M1406.24,-197.4C1534.21,-191.51 1778.56,-177.67 1985,-151 1992.86,-149.98 2001.14,-148.69 2009.22,-147.31"/>
<polygon fill="#63b8ff" stroke="#63b8ff" points="2010.08,-150.71 2019.31,-145.51 2008.86,-143.82 2010.08,-150.71"/>
</a>
</g>
</g>
<!-- Node23 -->
<g id="Node000023" class="node">
<title>Node23</title>
<g id="a_Node000023"><a xlink:title=" ">
<polygon fill="#e0e0e0" stroke="#999999" points="2294,-145.5 2146,-145.5 2146,-126.5 2294,-126.5 2294,-145.5"/>
<text text-anchor="middle" x="2220" y="-133.5" font-family="Malgun Gothic" font-size="10.00">Modules/ModuleManager.h</text>
</a>
</g>
</g>
<!-- Node1&#45;&gt;Node23 -->
<g id="edge25_Node000001_Node000023" class="edge">
<title>Node1&#45;&gt;Node23</title>
<g id="a_edge25_Node000001_Node000023"><a xlink:title=" ">
<path fill="none" stroke="#63b8ff" d="M1406.14,-198.69C1556.49,-194.05 1871.99,-181.35 2137,-151 2146.06,-149.96 2155.64,-148.6 2164.94,-147.13"/>
<polygon fill="#63b8ff" stroke="#63b8ff" points="2165.59,-150.57 2174.89,-145.5 2164.46,-143.66 2165.59,-150.57"/>
</a>
</g>
</g>
<!-- Node3 -->
<g id="Node000003" class="node">
<title>Node3</title>
<g id="a_Node000003"><a xlink:title=" ">
<polygon fill="#e0e0e0" stroke="#999999" points="647,-19 559,-19 559,0 647,0 647,-19"/>
<text text-anchor="middle" x="603" y="-7" font-family="Malgun Gothic" font-size="10.00">CoreMinimal.h</text>
</a>
</g>
</g>
<!-- Node2&#45;&gt;Node3 -->
<g id="edge2_Node000002_Node000003" class="edge">
<title>Node2&#45;&gt;Node3</title>
<g id="a_edge2_Node000002_Node000003"><a xlink:title=" ">
<path fill="none" stroke="#63b8ff" d="M922.16,-126.45C973,-114.54 1046.75,-90.37 1015,-55 991.51,-28.84 763.64,-16.68 657.24,-12.4"/>
<polygon fill="#63b8ff" stroke="#63b8ff" points="657.15,-8.89 647.02,-12 656.88,-15.89 657.15,-8.89"/>
</a>
</g>
</g>
<!-- Node4 -->
<g id="Node000004" class="node">
<title>Node4</title>
<g id="a_Node000004"><a xlink:title=" ">
<polygon fill="#e0e0e0" stroke="#999999" points="1171.5,-79.5 1062.5,-79.5 1062.5,-60.5 1171.5,-60.5 1171.5,-79.5"/>
<text text-anchor="middle" x="1117" y="-67.5" font-family="Malgun Gothic" font-size="10.00">Widgets/SWidget.h</text>
</a>
</g>
</g>
<!-- Node2&#45;&gt;Node4 -->
<g id="edge3_Node000002_Node000004" class="edge">
<title>Node2&#45;&gt;Node4</title>
<g id="a_edge3_Node000002_Node000004"><a xlink:title=" ">
<path fill="none" stroke="#63b8ff" d="M911.1,-126.37C953.53,-114.96 1028.39,-94.83 1075.2,-82.24"/>
<polygon fill="#63b8ff" stroke="#63b8ff" points="1076.28,-85.57 1085.03,-79.6 1074.47,-78.81 1076.28,-85.57"/>
</a>
</g>
</g>
<!-- Node5 -->
<g id="Node000005" class="node">
<title>Node5</title>
<g id="a_Node000005"><a xlink:title=" ">
<polygon fill="#e0e0e0" stroke="#999999" points="842,-85 712,-85 712,-55 842,-55 842,-85"/>
<text text-anchor="start" x="720" y="-73" font-family="Malgun Gothic" font-size="10.00">Framework/Commands</text>
<text text-anchor="middle" x="777" y="-62" font-family="Malgun Gothic" font-size="10.00">/UIAction.h</text>
</a>
</g>
</g>
<!-- Node2&#45;&gt;Node5 -->
<g id="edge4_Node000002_Node000005" class="edge">
<title>Node2&#45;&gt;Node5</title>
<g id="a_edge4_Node000002_Node000005"><a xlink:title=" ">
<path fill="none" stroke="#63b8ff" d="M865.24,-126.37C850.69,-117.24 827.24,-102.53 808.17,-90.56"/>
<polygon fill="#63b8ff" stroke="#63b8ff" points="809.83,-87.47 799.5,-85.12 806.11,-93.4 809.83,-87.47"/>
</a>
</g>
</g>
<!-- Node6 -->
<g id="Node000006" class="node">
<title>Node6</title>
<g id="a_Node000006"><a xlink:title=" ">
<polygon fill="#e0e0e0" stroke="#999999" points="1006,-79.5 860,-79.5 860,-60.5 1006,-60.5 1006,-79.5"/>
<text text-anchor="middle" x="933" y="-67.5" font-family="Malgun Gothic" font-size="10.00">AssetRegistry/AssetData.h</text>
</a>
</g>
</g>
<!-- Node2&#45;&gt;Node6 -->
<g id="edge5_Node000002_Node000006" class="edge">
<title>Node2&#45;&gt;Node6</title>
<g id="a_edge5_Node000002_Node000006"><a xlink:title=" ">
<path fill="none" stroke="#63b8ff" d="M886.28,-126.37C894.61,-116.5 908.44,-100.11 918.89,-87.72"/>
<polygon fill="#63b8ff" stroke="#63b8ff" points="921.71,-89.81 925.49,-79.91 916.36,-85.29 921.71,-89.81"/>
</a>
</g>
</g>
<!-- Node7&#45;&gt;Node3 -->
<g id="edge7_Node000007_Node000003" class="edge">
<title>Node7&#45;&gt;Node3</title>
<g id="a_edge7_Node000007_Node000003"><a xlink:title=" ">
<path fill="none" stroke="#63b8ff" d="M429.83,-126.48C448.04,-117.03 477.75,-101.02 502,-85 520.25,-72.95 523.45,-68.04 541,-55 554.56,-44.92 569.99,-33.85 582.07,-25.26"/>
<polygon fill="#63b8ff" stroke="#63b8ff" points="584.43,-27.88 590.56,-19.25 580.38,-22.17 584.43,-27.88"/>
</a>
</g>
</g>
<!-- Node8 -->
<g id="Node000008" class="node">
<title>Node8</title>
<g id="a_Node000008"><a xlink:href="FToolbarButtonInfo_8h.html" target="_top" xlink:title="커스터마이즈 가능한 Coffee Toolbar 버튼 정보를 선언합니다.">
<polygon fill="white" stroke="#666666" points="143.5,-79.5 26.5,-79.5 26.5,-60.5 143.5,-60.5 143.5,-79.5"/>
<text text-anchor="middle" x="85" y="-67.5" font-family="Malgun Gothic" font-size="10.00">FToolbarButtonInfo.h</text>
</a>
</g>
</g>
<!-- Node7&#45;&gt;Node8 -->
<g id="edge8_Node000007_Node000008" class="edge">
<title>Node7&#45;&gt;Node8</title>
<g id="a_edge8_Node000007_Node000008"><a xlink:title=" ">
<path fill="none" stroke="#63b8ff" d="M367.41,-126.42C315.47,-116.6 228.06,-99.94 153,-85 147.53,-83.91 141.82,-82.76 136.13,-81.6"/>
<polygon fill="#63b8ff" stroke="#63b8ff" points="136.47,-78.1 125.98,-79.53 135.07,-84.96 136.47,-78.1"/>
</a>
</g>
</g>
<!-- Node10 -->
<g id="Node000010" class="node">
<title>Node10</title>
<g id="a_Node000010"><a xlink:title=" ">
<polygon fill="#e0e0e0" stroke="#999999" points="314,-79.5 162,-79.5 162,-60.5 314,-60.5 314,-79.5"/>
<text text-anchor="middle" x="238" y="-67.5" font-family="Malgun Gothic" font-size="10.00">Engine/DeveloperSettings.h</text>
</a>
</g>
</g>
<!-- Node7&#45;&gt;Node10 -->
<g id="edge11_Node000007_Node000010" class="edge">
<title>Node7&#45;&gt;Node10</title>
<g id="a_edge11_Node000007_Node000010"><a xlink:title=" ">
<path fill="none" stroke="#63b8ff" d="M389.4,-126.37C358.91,-115.22 305.68,-95.75 271.15,-83.12"/>
<polygon fill="#63b8ff" stroke="#63b8ff" points="272.1,-79.74 261.51,-79.6 269.7,-86.32 272.1,-79.74"/>
</a>
</g>
</g>
<!-- Node11 -->
<g id="Node000011" class="node">
<title>Node11</title>
<g id="a_Node000011"><a xlink:title=" ">
<polygon fill="#e0e0e0" stroke="#999999" points="493.5,-79.5 332.5,-79.5 332.5,-60.5 493.5,-60.5 493.5,-79.5"/>
<text text-anchor="middle" x="413" y="-67.5" font-family="Malgun Gothic" font-size="10.00">UToolbarSettings.generated.h</text>
</a>
</g>
</g>
<!-- Node7&#45;&gt;Node11 -->
<g id="edge12_Node000007_Node000011" class="edge">
<title>Node7&#45;&gt;Node11</title>
<g id="a_edge12_Node000007_Node000011"><a xlink:title=" ">
<path fill="none" stroke="#63b8ff" d="M413,-126.37C413,-117.16 413,-102.29 413,-90.27"/>
<polygon fill="#63b8ff" stroke="#63b8ff" points="416.5,-89.91 413,-79.91 409.5,-89.91 416.5,-89.91"/>
</a>
</g>
</g>
<!-- Node8&#45;&gt;Node3 -->
<g id="edge9_Node000008_Node000003" class="edge">
<title>Node8&#45;&gt;Node3</title>
<g id="a_edge9_Node000008_Node000003"><a xlink:title=" ">
<path fill="none" stroke="#63b8ff" d="M123,-60.45C132.74,-58.45 143.23,-56.48 153,-55 294.94,-33.43 463.72,-19.97 548.57,-14.04"/>
<polygon fill="#63b8ff" stroke="#63b8ff" points="549,-17.52 558.74,-13.34 548.52,-10.53 549,-17.52"/>
</a>
</g>
</g>
<!-- Node9 -->
<g id="Node000009" class="node">
<title>Node9</title>
<g id="a_Node000009"><a xlink:title=" ">
<polygon fill="#e0e0e0" stroke="#999999" points="170,-19 0,-19 0,0 170,0 170,-19"/>
<text text-anchor="middle" x="85" y="-7" font-family="Malgun Gothic" font-size="10.00">FToolbarButtonInfo.generated.h</text>
</a>
</g>
</g>
<!-- Node8&#45;&gt;Node9 -->
<g id="edge10_Node000008_Node000009" class="edge">
<title>Node8&#45;&gt;Node9</title>
<g id="a_edge10_Node000008_Node000009"><a xlink:title=" ">
<path fill="none" stroke="#63b8ff" d="M85,-60.37C85,-52.25 85,-39.81 85,-29.39"/>
<polygon fill="#63b8ff" stroke="#63b8ff" points="88.5,-29.17 85,-19.17 81.5,-29.17 88.5,-29.17"/>
</a>
</g>
</g>
<!-- Node12&#45;&gt;Node3 -->
<g id="edge14_Node000012_Node000003" class="edge">
<title>Node12&#45;&gt;Node3</title>
<g id="a_edge14_Node000012_Node000003"><a xlink:title=" ">
<path fill="none" stroke="#63b8ff" d="M683.87,-126.28C683.26,-110.68 680.11,-77.53 665,-55 656.27,-41.98 642.37,-31.49 629.94,-23.98"/>
<polygon fill="#63b8ff" stroke="#63b8ff" points="631.67,-20.93 621.25,-19.03 628.21,-27.02 631.67,-20.93"/>
</a>
</g>
</g>
<!-- Node13 -->
<g id="Node000013" class="node">
<title>Node13</title>
<g id="a_Node000013"><a xlink:title=" ">
<polygon fill="#e0e0e0" stroke="#999999" points="656,-79.5 550,-79.5 550,-60.5 656,-60.5 656,-79.5"/>
<text text-anchor="middle" x="603" y="-67.5" font-family="Malgun Gothic" font-size="10.00">Styling/AppStyle.h</text>
</a>
</g>
</g>
<!-- Node12&#45;&gt;Node13 -->
<g id="edge15_Node000012_Node000013" class="edge">
<title>Node12&#45;&gt;Node13</title>
<g id="a_edge15_Node000012_Node000013"><a xlink:title=" ">
<path fill="none" stroke="#63b8ff" d="M673.08,-126.37C660.03,-116.06 637.99,-98.65 622.1,-86.09"/>
<polygon fill="#63b8ff" stroke="#63b8ff" points="624.03,-83.15 614.01,-79.7 619.69,-88.64 624.03,-83.15"/>
</a>
</g>
</g>
</g>
</svg>

<g id="navigator" transform="translate(0 0)" fill="#404254">
  <rect fill="#f2f5e9" fill-opacity="0.5" stroke="#606060" stroke-width=".5" x="0" y="0" width="60" height="60"/>
  <use id="zoomplus" xlink:href="#zoomPlus" x="17" y="9" onmousedown="handleZoom(evt,'in')"/>
  <use id="zoomminus" xlink:href="#zoomMin" x="42" y="9" onmousedown="handleZoom(evt,'out')"/>
  <use id="reset" xlink:href="#resetDef" x="30" y="36" onmousedown="handleReset()"/>
   <use id="arrowup" xlink:href="#arrowUp" x="0" y="0" onmousedown="handlePan(0,-1)"/>
  <use id="arrowright" xlink:href="#arrowRight" x="0" y="0" onmousedown="handlePan(1,0)"/>
  <use id="arrowdown" xlink:href="#arrowDown" x="0" y="0" onmousedown="handlePan(0,1)"/>
  <use id="arrowleft" xlink:href="#arrowLeft" x="0" y="0" onmousedown="handlePan(-1,0)"/>
</g>
<svg viewBox="0 0 15 15" width="100%" height="30px" preserveAspectRatio="xMaxYMin meet">
 <g id="arrow_out" transform="scale(0.3 0.3)">
  <a xlink:href="FLevelFeature_8cpp__incl_org.svg" target="_base">
   <rect id="button" ry="5" rx="5" y="6" x="6" height="38" width="38"
        fill="#f2f5e9" fill-opacity="0.5" stroke="#606060" stroke-width="1.0"/>
   <path id="arrow"
     d="M 11.500037,31.436501 C 11.940474,20.09759 22.043105,11.32322 32.158766,21.979434 L 37.068811,17.246167 C 37.068811,17.246167 37.088388,32 37.088388,32 L 22.160133,31.978069 C 22.160133,31.978069 26.997745,27.140456 26.997745,27.140456 C 18.528582,18.264221 13.291696,25.230495 11.500037,31.436501 z"
     style="fill:#404040;"/>
  </a>
 </g>
</svg>

<style type='text/css'>
<![CDATA[
[data-mouse-over-selected='false'] { opacity: 0.7; }
[data-mouse-over-selected='true']  { opacity: 1.0; }
]]>
</style>
<script type="application/ecmascript"><![CDATA[
document.addEventListener('DOMContentLoaded', (event) => {
  highlightEdges();
  highlightAdjacentNodes();
});
]]></script>
</svg>
