<?xml version="1.0" encoding="UTF-8" standalone="no"?>
<!DOCTYPE svg PUBLIC "-//W3C//DTD SVG 1.1//EN"
 "http://www.w3.org/Graphics/SVG/1.1/DTD/svg11.dtd">
<!-- Generated by graphviz version 2.43.0 (0)
 -->
<!-- Title: Source/CoffeeToolbar/Private/Level/FLevelFeature.cpp Pages: 1 -->
<!--zoomable 170 -->

<svg id="main" version="1.1" xmlns="http://www.w3.org/2000/svg" xmlns:xlink="http://www.w3.org/1999/xlink" xml:space="preserve" onload="init(evt)">
<style type="text/css"><![CDATA[
.node, .edge {opacity: 0.7;}
.node.selected, .edge.selected {opacity: 1;}
.edge:hover path { stroke: red; }
.edge:hover polygon { stroke: red; fill: red; }
]]></style>

<defs>
  <circle id="rim" cx="0" cy="0" r="7"/>
  <circle id="rim2" cx="0" cy="0" r="3.5"/>
  <g id="zoomPlus">
    <use xlink:href="#rim" fill="#404040"><set attributeName="fill" to="#808080" begin="zoomplus.mouseover" end="zoomplus.mouseout"/></use>
    <path d="M-4,0h8M0,-4v8" fill="none" stroke="white" stroke-width="1.5" pointer-events="none"/>
  </g>
  <g id="zoomMin">
    <use xlink:href="#rim" fill="#404040"><set attributeName="fill" to="#808080" begin="zoomminus.mouseover" end="zoomminus.mouseout"/></use>
    <path d="M-4,0h8" fill="none" stroke="white" stroke-width="1.5" pointer-events="none"/>
  </g>
  <g id="arrowUp" transform="translate(30 24)">
    <use xlink:href="#rim"/>
    <path pointer-events="none" fill="none" stroke="white" stroke-width="1.5" d="M0,-3.0v7 M-2.5,-0.5L0,-3.0L2.5,-0.5"/>
  </g>
  <g id="arrowRight" transform="rotate(90) translate(36 -43)">
    <use xlink:href="#rim"/>
    <path pointer-events="none" fill="none" stroke="white" stroke-width="1.5" d="M0,-3.0v7 M-2.5,-0.5L0,-3.0L2.5,-0.5"/>
  </g>
  <g id="arrowDown" transform="rotate(180) translate(-30 -48)">
    <use xlink:href="#rim"/>
    <path pointer-events="none" fill="none" stroke="white" stroke-width="1.5" d="M0,-3.0v7 M-2.5,-0.5L0,-3.0L2.5,-0.5"/>
  </g>
  <g id="arrowLeft" transform="rotate(270) translate(-36 17)">
    <use xlink:href="#rim"/>
    <path pointer-events="none" fill="none" stroke="white" stroke-width="1.5" d="M0,-3.0v7 M-2.5,-0.5L0,-3.0L2.5,-0.5"/>
  </g>
  <g id="resetDef">
    <use xlink:href="#rim2" fill="#404040"><set attributeName="fill" to="#808080" begin="reset.mouseover" end="reset.mouseout"/></use>
  </g>
</defs>
<script type="application/ecmascript">
var viewWidth = 2058;
var viewHeight = 170;
var sectionId = 'dynsection-0';
</script>
<script type="application/ecmascript" xlink:href="svg.min.js"/>
<svg id="graph" class="graph">
<g id="viewport">
<title>Source/CoffeeToolbar/Private/Level/FLevelFeature.cpp</title>
<!-- Node1 -->
<g id="Node000001" class="node">
<title>Node1</title>
<g id="a_Node000001"><a xlink:title="Coffee Toolbar에서 레벨 선택을 돕는 헬퍼 기능을 구현합니다.">
<polygon fill="#999999" stroke="#666666" points="1161.5,-162 985.5,-162 985.5,-132 1161.5,-132 1161.5,-162"/>
<text text-anchor="start" x="993.5" y="-150" font-family="Malgun Gothic" font-size="10.00">Source/CoffeeToolbar</text>
<text text-anchor="middle" x="1073.5" y="-139" font-family="Malgun Gothic" font-size="10.00">/Private/Level/FLevelFeature.cpp</text>
</a>
</g>
</g>
<!-- Node2 -->
<g id="Node000002" class="node">
<title>Node2</title>
<g id="a_Node000002"><a xlink:href="FLevelFeature_8h.html" target="_top" xlink:title="툴바에 레벨 선택 컨트롤을 제공하는 기능을 선언합니다.">
<polygon fill="white" stroke="#666666" points="696.5,-90.5 572.5,-90.5 572.5,-71.5 696.5,-71.5 696.5,-90.5"/>
<text text-anchor="middle" x="634.5" y="-78.5" font-family="Malgun Gothic" font-size="10.00">Level/FLevelFeature.h</text>
</a>
</g>
</g>
<!-- Node1&#45;&gt;Node2 -->
<g id="edge1_Node000001_Node000002" class="edge">
<title>Node1&#45;&gt;Node2</title>
<g id="a_edge1_Node000001_Node000002"><a xlink:title=" ">
<path fill="none" stroke="#63b8ff" d="M985.42,-135.42C910.94,-126.14 801.51,-111.7 706.5,-96 699.92,-94.91 693.01,-93.68 686.19,-92.42"/>
<polygon fill="#63b8ff" stroke="#63b8ff" points="686.78,-88.97 676.31,-90.54 685.48,-95.84 686.78,-88.97"/>
</a>
</g>
</g>
<!-- Node7 -->
<g id="Node000007" class="node">
<title>Node7</title>
<g id="a_Node000007"><a xlink:href="UToolbarSettings_8h.html" target="_top" xlink:title="Coffee Toolbar 플러그인을 구성하기 위한 개발자 설정을 선언합니다.">
<polygon fill="white" stroke="#666666" points="372,-90.5 221,-90.5 221,-71.5 372,-71.5 372,-90.5"/>
<text text-anchor="middle" x="296.5" y="-78.5" font-family="Malgun Gothic" font-size="10.00">Settings/UToolbarSettings.h</text>
</a>
</g>
</g>
<!-- Node1&#45;&gt;Node7 -->
<g id="edge6_Node000001_Node000007" class="edge">
<title>Node1&#45;&gt;Node7</title>
<g id="a_edge6_Node000001_Node000007"><a xlink:title=" ">
<path fill="none" stroke="#63b8ff" d="M985.5,-140.19C860.31,-131.72 623.67,-114.9 422.5,-96 408.66,-94.7 393.98,-93.19 379.71,-91.65"/>
<polygon fill="#63b8ff" stroke="#63b8ff" points="379.73,-88.13 369.41,-90.53 378.98,-95.09 379.73,-88.13"/>
</a>
</g>
</g>
<!-- Node10 -->
<g id="Node000010" class="node">
<title>Node10</title>
<g id="a_Node000010"><a xlink:href="FCommon_8h.html" target="_top" xlink:title="Coffee Toolbar 플러그인을 위한 공용 유틸리티 헬퍼를 선언합니다.">
<polygon fill="white" stroke="#666666" points="554,-90.5 431,-90.5 431,-71.5 554,-71.5 554,-90.5"/>
<text text-anchor="middle" x="492.5" y="-78.5" font-family="Malgun Gothic" font-size="10.00">Common/FCommon.h</text>
</a>
</g>
</g>
<!-- Node1&#45;&gt;Node10 -->
<g id="edge10_Node000001_Node000010" class="edge">
<title>Node1&#45;&gt;Node10</title>
<g id="a_edge10_Node000001_Node000010"><a xlink:title=" ">
<path fill="none" stroke="#63b8ff" d="M985.19,-139.95C883.25,-132.37 710.71,-117.68 563.5,-96 556.65,-94.99 549.46,-93.77 542.4,-92.47"/>
<polygon fill="#63b8ff" stroke="#63b8ff" points="542.66,-88.96 532.19,-90.53 541.36,-95.84 542.66,-88.96"/>
</a>
</g>
</g>
<!-- Node12 -->
<g id="Node000012" class="node">
<title>Node12</title>
<g id="a_Node000012"><a xlink:title=" ">
<polygon fill="#e0e0e0" stroke="#999999" points="792,-90.5 715,-90.5 715,-71.5 792,-71.5 792,-90.5"/>
<text text-anchor="middle" x="753.5" y="-78.5" font-family="Malgun Gothic" font-size="10.00">ToolMenus.h</text>
</a>
</g>
</g>
<!-- Node1&#45;&gt;Node12 -->
<g id="edge13_Node000001_Node000012" class="edge">
<title>Node1&#45;&gt;Node12</title>
<g id="a_edge13_Node000001_Node000012"><a xlink:title=" ">
<path fill="none" stroke="#63b8ff" d="M985.44,-132.15C931.96,-123.17 862.47,-110.45 801.5,-96 798.06,-95.18 794.5,-94.27 790.94,-93.32"/>
<polygon fill="#63b8ff" stroke="#63b8ff" points="791.61,-89.87 781.04,-90.55 789.73,-96.61 791.61,-89.87"/>
</a>
</g>
</g>
<!-- Node13 -->
<g id="Node000013" class="node">
<title>Node13</title>
<g id="a_Node000013"><a xlink:title=" ">
<polygon fill="#e0e0e0" stroke="#999999" points="917,-90.5 810,-90.5 810,-71.5 917,-71.5 917,-90.5"/>
<text text-anchor="middle" x="863.5" y="-78.5" font-family="Malgun Gothic" font-size="10.00">UnrealEdGlobals.h</text>
</a>
</g>
</g>
<!-- Node1&#45;&gt;Node13 -->
<g id="edge14_Node000001_Node000013" class="edge">
<title>Node1&#45;&gt;Node13</title>
<g id="a_edge14_Node000001_Node000013"><a xlink:title=" ">
<path fill="none" stroke="#63b8ff" d="M1027.41,-131.95C989.61,-120.43 936.75,-104.32 901.38,-93.54"/>
<polygon fill="#63b8ff" stroke="#63b8ff" points="902.03,-90.08 891.45,-90.52 899.99,-96.78 902.03,-90.08"/>
</a>
</g>
</g>
<!-- Node14 -->
<g id="Node000014" class="node">
<title>Node14</title>
<g id="a_Node000014"><a xlink:title=" ">
<polygon fill="#e0e0e0" stroke="#999999" points="1015.5,-90.5 935.5,-90.5 935.5,-71.5 1015.5,-71.5 1015.5,-90.5"/>
<text text-anchor="middle" x="975.5" y="-78.5" font-family="Malgun Gothic" font-size="10.00">FileHelpers.h</text>
</a>
</g>
</g>
<!-- Node1&#45;&gt;Node14 -->
<g id="edge15_Node000001_Node000014" class="edge">
<title>Node1&#45;&gt;Node14</title>
<g id="a_edge15_Node000001_Node000014"><a xlink:title=" ">
<path fill="none" stroke="#63b8ff" d="M1051.75,-131.8C1035.63,-121.27 1013.74,-106.97 997.55,-96.4"/>
<polygon fill="#63b8ff" stroke="#63b8ff" points="999.04,-93.2 988.76,-90.66 995.22,-99.06 999.04,-93.2"/>
</a>
</g>
</g>
<!-- Node15 -->
<g id="Node000015" class="node">
<title>Node15</title>
<g id="a_Node000015"><a xlink:title=" ">
<polygon fill="#e0e0e0" stroke="#999999" points="1113.5,-90.5 1033.5,-90.5 1033.5,-71.5 1113.5,-71.5 1113.5,-90.5"/>
<text text-anchor="middle" x="1073.5" y="-78.5" font-family="Malgun Gothic" font-size="10.00">LevelEditor.h</text>
</a>
</g>
</g>
<!-- Node1&#45;&gt;Node15 -->
<g id="edge16_Node000001_Node000015" class="edge">
<title>Node1&#45;&gt;Node15</title>
<g id="a_edge16_Node000001_Node000015"><a xlink:title=" ">
<path fill="none" stroke="#63b8ff" d="M1073.5,-131.8C1073.5,-122.7 1073.5,-110.79 1073.5,-100.9"/>
<polygon fill="#63b8ff" stroke="#63b8ff" points="1077,-100.84 1073.5,-90.84 1070,-100.84 1077,-100.84"/>
</a>
</g>
</g>
<!-- Node16 -->
<g id="Node000016" class="node">
<title>Node16</title>
<g id="a_Node000016"><a xlink:title=" ">
<polygon fill="#e0e0e0" stroke="#999999" points="1231,-90.5 1132,-90.5 1132,-71.5 1231,-71.5 1231,-90.5"/>
<text text-anchor="middle" x="1181.5" y="-78.5" font-family="Malgun Gothic" font-size="10.00">IAssetViewport.h</text>
</a>
</g>
</g>
<!-- Node1&#45;&gt;Node16 -->
<g id="edge17_Node000001_Node000016" class="edge">
<title>Node1&#45;&gt;Node16</title>
<g id="a_edge17_Node000001_Node000016"><a xlink:title=" ">
<path fill="none" stroke="#63b8ff" d="M1097.2,-131.95C1115.39,-121.18 1140.36,-106.38 1158.4,-95.69"/>
<polygon fill="#63b8ff" stroke="#63b8ff" points="1160.31,-98.63 1167.13,-90.52 1156.74,-92.6 1160.31,-98.63"/>
</a>
</g>
</g>
<!-- Node17 -->
<g id="Node000017" class="node">
<title>Node17</title>
<g id="a_Node000017"><a xlink:title=" ">
<polygon fill="#e0e0e0" stroke="#999999" points="1404,-96 1249,-96 1249,-66 1404,-66 1404,-96"/>
<text text-anchor="start" x="1257" y="-84" font-family="Malgun Gothic" font-size="10.00">AssetRegistry/AssetRegistry</text>
<text text-anchor="middle" x="1326.5" y="-73" font-family="Malgun Gothic" font-size="10.00">Module.h</text>
</a>
</g>
</g>
<!-- Node1&#45;&gt;Node17 -->
<g id="edge18_Node000001_Node000017" class="edge">
<title>Node1&#45;&gt;Node17</title>
<g id="a_edge18_Node000001_Node000017"><a xlink:title=" ">
<path fill="none" stroke="#63b8ff" d="M1129.02,-131.95C1167.99,-122.1 1220.25,-108.88 1261.22,-98.51"/>
<polygon fill="#63b8ff" stroke="#63b8ff" points="1262.27,-101.86 1271.11,-96.01 1260.55,-95.07 1262.27,-101.86"/>
</a>
</g>
</g>
<!-- Node18 -->
<g id="Node000018" class="node">
<title>Node18</title>
<g id="a_Node000018"><a xlink:title=" ">
<polygon fill="#e0e0e0" stroke="#999999" points="1587,-90.5 1422,-90.5 1422,-71.5 1587,-71.5 1587,-90.5"/>
<text text-anchor="middle" x="1504.5" y="-78.5" font-family="Malgun Gothic" font-size="10.00">AssetRegistry/IAssetRegistry.h</text>
</a>
</g>
</g>
<!-- Node1&#45;&gt;Node18 -->
<g id="edge19_Node000001_Node000018" class="edge">
<title>Node1&#45;&gt;Node18</title>
<g id="a_edge19_Node000001_Node000018"><a xlink:title=" ">
<path fill="none" stroke="#63b8ff" d="M1161.58,-133.21C1230.24,-123.2 1327.95,-108.87 1413.5,-96 1421.79,-94.75 1430.51,-93.43 1439.13,-92.11"/>
<polygon fill="#63b8ff" stroke="#63b8ff" points="1439.81,-95.55 1449.17,-90.57 1438.75,-88.63 1439.81,-95.55"/>
</a>
</g>
</g>
<!-- Node19 -->
<g id="Node000019" class="node">
<title>Node19</title>
<g id="a_Node000019"><a xlink:title=" ">
<polygon fill="#e0e0e0" stroke="#999999" points="1731.5,-90.5 1605.5,-90.5 1605.5,-71.5 1731.5,-71.5 1731.5,-90.5"/>
<text text-anchor="middle" x="1668.5" y="-78.5" font-family="Malgun Gothic" font-size="10.00">Misc/MessageDialog.h</text>
</a>
</g>
</g>
<!-- Node1&#45;&gt;Node19 -->
<g id="edge20_Node000001_Node000019" class="edge">
<title>Node1&#45;&gt;Node19</title>
<g id="a_edge20_Node000001_Node000019"><a xlink:title=" ">
<path fill="none" stroke="#63b8ff" d="M1161.72,-140.18C1265.94,-132.71 1444.39,-118.01 1596.5,-96 1603.6,-94.97 1611.07,-93.72 1618.4,-92.39"/>
<polygon fill="#63b8ff" stroke="#63b8ff" points="1619.07,-95.82 1628.25,-90.54 1617.78,-88.94 1619.07,-95.82"/>
</a>
</g>
</g>
<!-- Node20 -->
<g id="Node000020" class="node">
<title>Node20</title>
<g id="a_Node000020"><a xlink:title=" ">
<polygon fill="#e0e0e0" stroke="#999999" points="1883.5,-90.5 1749.5,-90.5 1749.5,-71.5 1883.5,-71.5 1883.5,-90.5"/>
<text text-anchor="middle" x="1816.5" y="-78.5" font-family="Malgun Gothic" font-size="10.00">Editor/UnrealEdEngine.h</text>
</a>
</g>
</g>
<!-- Node1&#45;&gt;Node20 -->
<g id="edge21_Node000001_Node000020" class="edge">
<title>Node1&#45;&gt;Node20</title>
<g id="a_edge21_Node000001_Node000020"><a xlink:title=" ">
<path fill="none" stroke="#63b8ff" d="M1161.74,-142.4C1289.71,-136.51 1534.06,-122.67 1740.5,-96 1748.36,-94.98 1756.64,-93.69 1764.72,-92.31"/>
<polygon fill="#63b8ff" stroke="#63b8ff" points="1765.58,-95.71 1774.81,-90.51 1764.36,-88.82 1765.58,-95.71"/>
</a>
</g>
</g>
<!-- Node21 -->
<g id="Node000021" class="node">
<title>Node21</title>
<g id="a_Node000021"><a xlink:title=" ">
<polygon fill="#e0e0e0" stroke="#999999" points="2049.5,-90.5 1901.5,-90.5 1901.5,-71.5 2049.5,-71.5 2049.5,-90.5"/>
<text text-anchor="middle" x="1975.5" y="-78.5" font-family="Malgun Gothic" font-size="10.00">Modules/ModuleManager.h</text>
</a>
</g>
</g>
<!-- Node1&#45;&gt;Node21 -->
<g id="edge22_Node000001_Node000021" class="edge">
<title>Node1&#45;&gt;Node21</title>
<g id="a_edge22_Node000001_Node000021"><a xlink:title=" ">
<path fill="none" stroke="#63b8ff" d="M1161.64,-143.69C1311.99,-139.05 1627.49,-126.35 1892.5,-96 1901.56,-94.96 1911.14,-93.6 1920.44,-92.13"/>
<polygon fill="#63b8ff" stroke="#63b8ff" points="1921.09,-95.57 1930.39,-90.5 1919.96,-88.66 1921.09,-95.57"/>
</a>
</g>
</g>
<!-- Node3 -->
<g id="Node000003" class="node">
<title>Node3</title>
<g id="a_Node000003"><a xlink:title=" ">
<polygon fill="#e0e0e0" stroke="#999999" points="561.5,-24.5 473.5,-24.5 473.5,-5.5 561.5,-5.5 561.5,-24.5"/>
<text text-anchor="middle" x="517.5" y="-12.5" font-family="Malgun Gothic" font-size="10.00">CoreMinimal.h</text>
</a>
</g>
</g>
<!-- Node2&#45;&gt;Node3 -->
<g id="edge2_Node000002_Node000003" class="edge">
<title>Node2&#45;&gt;Node3</title>
<g id="a_edge2_Node000002_Node000003"><a xlink:title=" ">
<path fill="none" stroke="#63b8ff" d="M618.72,-71.37C599.09,-60.63 565.36,-42.18 542.27,-29.55"/>
<polygon fill="#63b8ff" stroke="#63b8ff" points="543.86,-26.43 533.4,-24.7 540.5,-32.57 543.86,-26.43"/>
</a>
</g>
</g>
<!-- Node4 -->
<g id="Node000004" class="node">
<title>Node4</title>
<g id="a_Node000004"><a xlink:title=" ">
<polygon fill="#e0e0e0" stroke="#999999" points="689,-24.5 580,-24.5 580,-5.5 689,-5.5 689,-24.5"/>
<text text-anchor="middle" x="634.5" y="-12.5" font-family="Malgun Gothic" font-size="10.00">Widgets/SWidget.h</text>
</a>
</g>
</g>
<!-- Node2&#45;&gt;Node4 -->
<g id="edge3_Node000002_Node000004" class="edge">
<title>Node2&#45;&gt;Node4</title>
<g id="a_edge3_Node000002_Node000004"><a xlink:title=" ">
<path fill="none" stroke="#63b8ff" d="M634.5,-71.37C634.5,-62.16 634.5,-47.29 634.5,-35.27"/>
<polygon fill="#63b8ff" stroke="#63b8ff" points="638,-34.91 634.5,-24.91 631,-34.91 638,-34.91"/>
</a>
</g>
</g>
<!-- Node5 -->
<g id="Node000005" class="node">
<title>Node5</title>
<g id="a_Node000005"><a xlink:title=" ">
<polygon fill="#e0e0e0" stroke="#999999" points="837.5,-30 707.5,-30 707.5,0 837.5,0 837.5,-30"/>
<text text-anchor="start" x="715.5" y="-18" font-family="Malgun Gothic" font-size="10.00">Framework/Commands</text>
<text text-anchor="middle" x="772.5" y="-7" font-family="Malgun Gothic" font-size="10.00">/UIAction.h</text>
</a>
</g>
</g>
<!-- Node2&#45;&gt;Node5 -->
<g id="edge4_Node000002_Node000005" class="edge">
<title>Node2&#45;&gt;Node5</title>
<g id="a_edge4_Node000002_Node000005"><a xlink:title=" ">
<path fill="none" stroke="#63b8ff" d="M653.11,-71.37C673.42,-61.95 706.55,-46.59 732.76,-34.43"/>
<polygon fill="#63b8ff" stroke="#63b8ff" points="734.46,-37.5 742.06,-30.12 731.52,-31.15 734.46,-37.5"/>
</a>
</g>
</g>
<!-- Node6 -->
<g id="Node000006" class="node">
<title>Node6</title>
<g id="a_Node000006"><a xlink:title=" ">
<polygon fill="#e0e0e0" stroke="#999999" points="1001.5,-24.5 855.5,-24.5 855.5,-5.5 1001.5,-5.5 1001.5,-24.5"/>
<text text-anchor="middle" x="928.5" y="-12.5" font-family="Malgun Gothic" font-size="10.00">AssetRegistry/AssetData.h</text>
</a>
</g>
</g>
<!-- Node2&#45;&gt;Node6 -->
<g id="edge5_Node000002_Node000006" class="edge">
<title>Node2&#45;&gt;Node6</title>
<g id="a_edge5_Node000002_Node000006"><a xlink:title=" ">
<path fill="none" stroke="#63b8ff" d="M673.85,-71.44C726.98,-59.87 821.67,-39.26 879.4,-26.69"/>
<polygon fill="#63b8ff" stroke="#63b8ff" points="880.36,-30.06 889.39,-24.51 878.87,-23.22 880.36,-30.06"/>
</a>
</g>
</g>
<!-- Node7&#45;&gt;Node3 -->
<g id="edge7_Node000007_Node000003" class="edge">
<title>Node7&#45;&gt;Node3</title>
<g id="a_edge7_Node000007_Node000003"><a xlink:title=" ">
<path fill="none" stroke="#63b8ff" d="M326.31,-71.37C365.55,-60 434.64,-40 478.14,-27.4"/>
<polygon fill="#63b8ff" stroke="#63b8ff" points="479.18,-30.74 487.82,-24.6 477.24,-24.02 479.18,-30.74"/>
</a>
</g>
</g>
<!-- Node8 -->
<g id="Node000008" class="node">
<title>Node8</title>
<g id="a_Node000008"><a xlink:title=" ">
<polygon fill="#e0e0e0" stroke="#999999" points="331.5,-24.5 179.5,-24.5 179.5,-5.5 331.5,-5.5 331.5,-24.5"/>
<text text-anchor="middle" x="255.5" y="-12.5" font-family="Malgun Gothic" font-size="10.00">Engine/DeveloperSettings.h</text>
</a>
</g>
</g>
<!-- Node7&#45;&gt;Node8 -->
<g id="edge8_Node000007_Node000008" class="edge">
<title>Node7&#45;&gt;Node8</title>
<g id="a_edge8_Node000007_Node000008"><a xlink:title=" ">
<path fill="none" stroke="#63b8ff" d="M290.97,-71.37C284.77,-61.69 274.55,-45.74 266.67,-33.44"/>
<polygon fill="#63b8ff" stroke="#63b8ff" points="269.55,-31.44 261.2,-24.91 263.65,-35.21 269.55,-31.44"/>
</a>
</g>
</g>
<!-- Node9 -->
<g id="Node000009" class="node">
<title>Node9</title>
<g id="a_Node000009"><a xlink:title=" ">
<polygon fill="#e0e0e0" stroke="#999999" points="161,-24.5 0,-24.5 0,-5.5 161,-5.5 161,-24.5"/>
<text text-anchor="middle" x="80.5" y="-12.5" font-family="Malgun Gothic" font-size="10.00">UToolbarSettings.generated.h</text>
</a>
</g>
</g>
<!-- Node7&#45;&gt;Node9 -->
<g id="edge9_Node000007_Node000009" class="edge">
<title>Node7&#45;&gt;Node9</title>
<g id="a_edge9_Node000007_Node000009"><a xlink:title=" ">
<path fill="none" stroke="#63b8ff" d="M267.37,-71.37C229.1,-60.03 161.77,-40.08 119.24,-27.48"/>
<polygon fill="#63b8ff" stroke="#63b8ff" points="120.1,-24.08 109.51,-24.6 118.11,-30.79 120.1,-24.08"/>
</a>
</g>
</g>
<!-- Node10&#45;&gt;Node3 -->
<g id="edge11_Node000010_Node000003" class="edge">
<title>Node10&#45;&gt;Node3</title>
<g id="a_edge11_Node000010_Node000003"><a xlink:title=" ">
<path fill="none" stroke="#63b8ff" d="M495.87,-71.37C499.54,-61.97 505.52,-46.67 510.26,-34.53"/>
<polygon fill="#63b8ff" stroke="#63b8ff" points="513.64,-35.49 514.02,-24.91 507.12,-32.95 513.64,-35.49"/>
</a>
</g>
</g>
<!-- Node11 -->
<g id="Node000011" class="node">
<title>Node11</title>
<g id="a_Node000011"><a xlink:title=" ">
<polygon fill="#e0e0e0" stroke="#999999" points="455.5,-24.5 349.5,-24.5 349.5,-5.5 455.5,-5.5 455.5,-24.5"/>
<text text-anchor="middle" x="402.5" y="-12.5" font-family="Malgun Gothic" font-size="10.00">Styling/AppStyle.h</text>
</a>
</g>
</g>
<!-- Node10&#45;&gt;Node11 -->
<g id="edge12_Node000010_Node000011" class="edge">
<title>Node10&#45;&gt;Node11</title>
<g id="a_edge12_Node000010_Node000011"><a xlink:title=" ">
<path fill="none" stroke="#63b8ff" d="M480.36,-71.37C465.73,-60.97 440.92,-43.32 423.24,-30.75"/>
<polygon fill="#63b8ff" stroke="#63b8ff" points="424.91,-27.64 414.73,-24.7 420.85,-33.35 424.91,-27.64"/>
</a>
</g>
</g>
</g>
</svg>

<g id="navigator" transform="translate(0 0)" fill="#404254">
  <rect fill="#f2f5e9" fill-opacity="0.5" stroke="#606060" stroke-width=".5" x="0" y="0" width="60" height="60"/>
  <use id="zoomplus" xlink:href="#zoomPlus" x="17" y="9" onmousedown="handleZoom(evt,'in')"/>
  <use id="zoomminus" xlink:href="#zoomMin" x="42" y="9" onmousedown="handleZoom(evt,'out')"/>
  <use id="reset" xlink:href="#resetDef" x="30" y="36" onmousedown="handleReset()"/>
   <use id="arrowup" xlink:href="#arrowUp" x="0" y="0" onmousedown="handlePan(0,-1)"/>
  <use id="arrowright" xlink:href="#arrowRight" x="0" y="0" onmousedown="handlePan(1,0)"/>
  <use id="arrowdown" xlink:href="#arrowDown" x="0" y="0" onmousedown="handlePan(0,1)"/>
  <use id="arrowleft" xlink:href="#arrowLeft" x="0" y="0" onmousedown="handlePan(-1,0)"/>
</g>
<svg viewBox="0 0 15 15" width="100%" height="30px" preserveAspectRatio="xMaxYMin meet">
 <g id="arrow_out" transform="scale(0.3 0.3)">
  <a xlink:href="FLevelFeature_8cpp__incl_org.svg" target="_base">
   <rect id="button" ry="5" rx="5" y="6" x="6" height="38" width="38"
        fill="#f2f5e9" fill-opacity="0.5" stroke="#606060" stroke-width="1.0"/>
   <path id="arrow"
     d="M 11.500037,31.436501 C 11.940474,20.09759 22.043105,11.32322 32.158766,21.979434 L 37.068811,17.246167 C 37.068811,17.246167 37.088388,32 37.088388,32 L 22.160133,31.978069 C 22.160133,31.978069 26.997745,27.140456 26.997745,27.140456 C 18.528582,18.264221 13.291696,25.230495 11.500037,31.436501 z"
     style="fill:#404040;"/>
  </a>
 </g>
</svg>

<style type='text/css'>
<![CDATA[
[data-mouse-over-selected='false'] { opacity: 0.7; }
[data-mouse-over-selected='true']  { opacity: 1.0; }
]]>
</style>
<script type="application/ecmascript"><![CDATA[
document.addEventListener('DOMContentLoaded', (event) => {
  highlightEdges();
  highlightAdjacentNodes();
});
]]></script>
</svg>
