<?xml version="1.0" encoding="UTF-8" standalone="no"?>
<!DOCTYPE svg PUBLIC "-//W3C//DTD SVG 1.1//EN"
 "http://www.w3.org/Graphics/SVG/1.1/DTD/svg11.dtd">
<!-- Generated by graphviz version 2.43.0 (0)
 -->
<!-- Title: Source/CoffeeToolbar/Private/NetworkTest/FNetworkTestFeature.cpp Pages: 1 -->
<!--zoomable 236 -->

<svg id="main" version="1.1" xmlns="http://www.w3.org/2000/svg" xmlns:xlink="http://www.w3.org/1999/xlink" xml:space="preserve" onload="init(evt)">
<style type="text/css"><![CDATA[
.node, .edge {opacity: 0.7;}
.node.selected, .edge.selected {opacity: 1;}
.edge:hover path { stroke: red; }
.edge:hover polygon { stroke: red; fill: red; }
]]></style>

<defs>
  <circle id="rim" cx="0" cy="0" r="7"/>
  <circle id="rim2" cx="0" cy="0" r="3.5"/>
  <g id="zoomPlus">
    <use xlink:href="#rim" fill="#404040"><set attributeName="fill" to="#808080" begin="zoomplus.mouseover" end="zoomplus.mouseout"/></use>
    <path d="M-4,0h8M0,-4v8" fill="none" stroke="white" stroke-width="1.5" pointer-events="none"/>
  </g>
  <g id="zoomMin">
    <use xlink:href="#rim" fill="#404040"><set attributeName="fill" to="#808080" begin="zoomminus.mouseover" end="zoomminus.mouseout"/></use>
    <path d="M-4,0h8" fill="none" stroke="white" stroke-width="1.5" pointer-events="none"/>
  </g>
  <g id="arrowUp" transform="translate(30 24)">
    <use xlink:href="#rim"/>
    <path pointer-events="none" fill="none" stroke="white" stroke-width="1.5" d="M0,-3.0v7 M-2.5,-0.5L0,-3.0L2.5,-0.5"/>
  </g>
  <g id="arrowRight" transform="rotate(90) translate(36 -43)">
    <use xlink:href="#rim"/>
    <path pointer-events="none" fill="none" stroke="white" stroke-width="1.5" d="M0,-3.0v7 M-2.5,-0.5L0,-3.0L2.5,-0.5"/>
  </g>
  <g id="arrowDown" transform="rotate(180) translate(-30 -48)">
    <use xlink:href="#rim"/>
    <path pointer-events="none" fill="none" stroke="white" stroke-width="1.5" d="M0,-3.0v7 M-2.5,-0.5L0,-3.0L2.5,-0.5"/>
  </g>
  <g id="arrowLeft" transform="rotate(270) translate(-36 17)">
    <use xlink:href="#rim"/>
    <path pointer-events="none" fill="none" stroke="white" stroke-width="1.5" d="M0,-3.0v7 M-2.5,-0.5L0,-3.0L2.5,-0.5"/>
  </g>
  <g id="resetDef">
    <use xlink:href="#rim2" fill="#404040"><set attributeName="fill" to="#808080" begin="reset.mouseover" end="reset.mouseout"/></use>
  </g>
</defs>
<script type="application/ecmascript">
var viewWidth = 1829;
var viewHeight = 236;
var sectionId = 'dynsection-0';
</script>
<script type="application/ecmascript" xlink:href="svg.min.js"/>
<svg id="graph" class="graph">
<g id="viewport">
<title>Source/CoffeeToolbar/Private/NetworkTest/FNetworkTestFeature.cpp</title>
<!-- Node1 -->
<g id="Node000001" class="node">
<title>Node1</title>
<g id="a_Node000001"><a xlink:title=" ">
<polygon fill="#999999" stroke="#666666" points="1202,-228 1059,-228 1059,-187 1202,-187 1202,-228"/>
<text text-anchor="start" x="1067" y="-216" font-family="Malgun Gothic" font-size="10.00">Source/CoffeeToolbar</text>
<text text-anchor="start" x="1067" y="-205" font-family="Malgun Gothic" font-size="10.00">/Private/NetworkTest</text>
<text text-anchor="middle" x="1130.5" y="-194" font-family="Malgun Gothic" font-size="10.00">/FNetworkTestFeature.cpp</text>
</a>
</g>
</g>
<!-- Node2 -->
<g id="Node000002" class="node">
<title>Node2</title>
<g id="a_Node000002"><a xlink:href="FNetworkTestFeature_8h.html" target="_top" xlink:title="네트워크 API 테스트 기능을 제공합니다.">
<polygon fill="white" stroke="#666666" points="998,-85 851,-85 851,-55 998,-55 998,-85"/>
<text text-anchor="start" x="859" y="-73" font-family="Malgun Gothic" font-size="10.00">NetworkTest/FNetworkTest</text>
<text text-anchor="middle" x="924.5" y="-62" font-family="Malgun Gothic" font-size="10.00">Feature.h</text>
</a>
</g>
</g>
<!-- Node1&#45;&gt;Node2 -->
<g id="edge1_Node000001_Node000002" class="edge">
<title>Node1&#45;&gt;Node2</title>
<g id="a_edge1_Node000001_Node000002"><a xlink:title=" ">
<path fill="none" stroke="#63b8ff" d="M1058.66,-204.29C974.96,-200.02 844.18,-187.52 813.5,-151 791.53,-124.84 829.27,-102.83 866.57,-88.56"/>
<polygon fill="#63b8ff" stroke="#63b8ff" points="867.82,-91.82 876.01,-85.1 865.42,-85.25 867.82,-91.82"/>
</a>
</g>
</g>
<!-- Node4 -->
<g id="Node000004" class="node">
<title>Node4</title>
<g id="a_Node000004"><a xlink:href="UToolbarSettings_8h.html" target="_top" xlink:title="Coffee Toolbar 플러그인을 구성하기 위한 개발자 설정을 선언합니다.">
<polygon fill="white" stroke="#666666" points="637,-145.5 486,-145.5 486,-126.5 637,-126.5 637,-145.5"/>
<text text-anchor="middle" x="561.5" y="-133.5" font-family="Malgun Gothic" font-size="10.00">Settings/UToolbarSettings.h</text>
</a>
</g>
</g>
<!-- Node1&#45;&gt;Node4 -->
<g id="edge3_Node000001_Node000004" class="edge">
<title>Node1&#45;&gt;Node4</title>
<g id="a_edge3_Node000001_Node000004"><a xlink:title=" ">
<path fill="none" stroke="#63b8ff" d="M1058.72,-197.73C952.11,-184.71 752.56,-160.34 641.42,-146.76"/>
<polygon fill="#63b8ff" stroke="#63b8ff" points="641.63,-143.26 631.28,-145.52 640.78,-150.21 641.63,-143.26"/>
</a>
</g>
</g>
<!-- Node13 -->
<g id="Node000013" class="node">
<title>Node13</title>
<g id="a_Node000013"><a xlink:title=" ">
<polygon fill="#e0e0e0" stroke="#999999" points="940.5,-151 822.5,-151 822.5,-121 940.5,-121 940.5,-151"/>
<text text-anchor="start" x="830.5" y="-139" font-family="Malgun Gothic" font-size="10.00">Framework/MultiBox</text>
<text text-anchor="middle" x="881.5" y="-128" font-family="Malgun Gothic" font-size="10.00">/MultiBoxBuilder.h</text>
</a>
</g>
</g>
<!-- Node1&#45;&gt;Node13 -->
<g id="edge16_Node000001_Node000013" class="edge">
<title>Node1&#45;&gt;Node13</title>
<g id="a_edge16_Node000001_Node000013"><a xlink:title=" ">
<path fill="none" stroke="#63b8ff" d="M1060.48,-186.96C1023,-176.5 977.33,-163.75 941.5,-153.75"/>
<polygon fill="#63b8ff" stroke="#63b8ff" points="942.25,-150.32 931.67,-151 940.36,-157.06 942.25,-150.32"/>
</a>
</g>
</g>
<!-- Node14 -->
<g id="Node000014" class="node">
<title>Node14</title>
<g id="a_Node000014"><a xlink:title=" ">
<polygon fill="#e0e0e0" stroke="#999999" points="1042,-145.5 959,-145.5 959,-126.5 1042,-126.5 1042,-145.5"/>
<text text-anchor="middle" x="1000.5" y="-133.5" font-family="Malgun Gothic" font-size="10.00">HttpModule.h</text>
</a>
</g>
</g>
<!-- Node1&#45;&gt;Node14 -->
<g id="edge17_Node000001_Node000014" class="edge">
<title>Node1&#45;&gt;Node14</title>
<g id="a_edge17_Node000001_Node000014"><a xlink:title=" ">
<path fill="none" stroke="#63b8ff" d="M1093.94,-186.96C1072,-175.22 1044.67,-160.61 1025.25,-150.23"/>
<polygon fill="#63b8ff" stroke="#63b8ff" points="1026.87,-147.13 1016.41,-145.5 1023.57,-153.3 1026.87,-147.13"/>
</a>
</g>
</g>
<!-- Node15 -->
<g id="Node000015" class="node">
<title>Node15</title>
<g id="a_Node000015"><a xlink:title=" ">
<polygon fill="#e0e0e0" stroke="#999999" points="1201,-145.5 1060,-145.5 1060,-126.5 1201,-126.5 1201,-145.5"/>
<text text-anchor="middle" x="1130.5" y="-133.5" font-family="Malgun Gothic" font-size="10.00">Interfaces/IHttpRequest.h</text>
</a>
</g>
</g>
<!-- Node1&#45;&gt;Node15 -->
<g id="edge18_Node000001_Node000015" class="edge">
<title>Node1&#45;&gt;Node15</title>
<g id="a_edge18_Node000001_Node000015"><a xlink:title=" ">
<path fill="none" stroke="#63b8ff" d="M1130.5,-186.77C1130.5,-177.08 1130.5,-165.46 1130.5,-155.88"/>
<polygon fill="#63b8ff" stroke="#63b8ff" points="1134,-155.82 1130.5,-145.82 1127,-155.82 1134,-155.82"/>
</a>
</g>
</g>
<!-- Node16 -->
<g id="Node000016" class="node">
<title>Node16</title>
<g id="a_Node000016"><a xlink:title=" ">
<polygon fill="#e0e0e0" stroke="#999999" points="1368,-145.5 1219,-145.5 1219,-126.5 1368,-126.5 1368,-145.5"/>
<text text-anchor="middle" x="1293.5" y="-133.5" font-family="Malgun Gothic" font-size="10.00">Interfaces/IHttpResponse.h</text>
</a>
</g>
</g>
<!-- Node1&#45;&gt;Node16 -->
<g id="edge19_Node000001_Node000016" class="edge">
<title>Node1&#45;&gt;Node16</title>
<g id="a_edge19_Node000001_Node000016"><a xlink:title=" ">
<path fill="none" stroke="#63b8ff" d="M1176.34,-186.96C1204.48,-174.96 1239.68,-159.95 1264.12,-149.53"/>
<polygon fill="#63b8ff" stroke="#63b8ff" points="1265.73,-152.65 1273.56,-145.5 1262.98,-146.21 1265.73,-152.65"/>
</a>
</g>
</g>
<!-- Node17 -->
<g id="Node000017" class="node">
<title>Node17</title>
<g id="a_Node000017"><a xlink:title=" ">
<polygon fill="#e0e0e0" stroke="#999999" points="1490.5,-145.5 1386.5,-145.5 1386.5,-126.5 1490.5,-126.5 1490.5,-145.5"/>
<text text-anchor="middle" x="1438.5" y="-133.5" font-family="Malgun Gothic" font-size="10.00">Dom/JsonObject.h</text>
</a>
</g>
</g>
<!-- Node1&#45;&gt;Node17 -->
<g id="edge20_Node000001_Node000017" class="edge">
<title>Node1&#45;&gt;Node17</title>
<g id="a_edge20_Node000001_Node000017"><a xlink:title=" ">
<path fill="none" stroke="#63b8ff" d="M1202.13,-190.5C1251.44,-179.46 1318.46,-164.41 1377.5,-151 1382.09,-149.96 1386.88,-148.87 1391.66,-147.77"/>
<polygon fill="#63b8ff" stroke="#63b8ff" points="1392.44,-151.18 1401.41,-145.54 1390.88,-144.36 1392.44,-151.18"/>
</a>
</g>
</g>
<!-- Node18 -->
<g id="Node000018" class="node">
<title>Node18</title>
<g id="a_Node000018"><a xlink:title=" ">
<polygon fill="#e0e0e0" stroke="#999999" points="1648,-145.5 1509,-145.5 1509,-126.5 1648,-126.5 1648,-145.5"/>
<text text-anchor="middle" x="1578.5" y="-133.5" font-family="Malgun Gothic" font-size="10.00">Serialization/JsonWriter.h</text>
</a>
</g>
</g>
<!-- Node1&#45;&gt;Node18 -->
<g id="edge21_Node000001_Node000018" class="edge">
<title>Node1&#45;&gt;Node18</title>
<g id="a_edge21_Node000001_Node000018"><a xlink:title=" ">
<path fill="none" stroke="#63b8ff" d="M1202.02,-196.31C1276.42,-185.57 1396.25,-167.91 1499.5,-151 1506.59,-149.84 1514.03,-148.58 1521.38,-147.3"/>
<polygon fill="#63b8ff" stroke="#63b8ff" points="1522.08,-150.74 1531.33,-145.57 1520.88,-143.84 1522.08,-150.74"/>
</a>
</g>
</g>
<!-- Node19 -->
<g id="Node000019" class="node">
<title>Node19</title>
<g id="a_Node000019"><a xlink:title=" ">
<polygon fill="#e0e0e0" stroke="#999999" points="1821,-145.5 1666,-145.5 1666,-126.5 1821,-126.5 1821,-145.5"/>
<text text-anchor="middle" x="1743.5" y="-133.5" font-family="Malgun Gothic" font-size="10.00">Serialization/JsonSerializer.h</text>
</a>
</g>
</g>
<!-- Node1&#45;&gt;Node19 -->
<g id="edge22_Node000001_Node000019" class="edge">
<title>Node1&#45;&gt;Node19</title>
<g id="a_edge22_Node000001_Node000019"><a xlink:title=" ">
<path fill="none" stroke="#63b8ff" d="M1202.25,-200.24C1303.81,-191.08 1495.19,-172.74 1657.5,-151 1666.11,-149.85 1675.18,-148.51 1684.07,-147.12"/>
<polygon fill="#63b8ff" stroke="#63b8ff" points="1684.67,-150.57 1694,-145.55 1683.58,-143.66 1684.67,-150.57"/>
</a>
</g>
</g>
<!-- Node3 -->
<g id="Node000003" class="node">
<title>Node3</title>
<g id="a_Node000003"><a xlink:title=" ">
<polygon fill="#e0e0e0" stroke="#999999" points="692.5,-19 604.5,-19 604.5,0 692.5,0 692.5,-19"/>
<text text-anchor="middle" x="648.5" y="-7" font-family="Malgun Gothic" font-size="10.00">CoreMinimal.h</text>
</a>
</g>
</g>
<!-- Node2&#45;&gt;Node3 -->
<g id="edge2_Node000002_Node000003" class="edge">
<title>Node2&#45;&gt;Node3</title>
<g id="a_edge2_Node000002_Node000003"><a xlink:title=" ">
<path fill="none" stroke="#63b8ff" d="M858.39,-54.99C809.42,-44.61 743.69,-30.68 698.92,-21.19"/>
<polygon fill="#63b8ff" stroke="#63b8ff" points="699.36,-17.7 688.86,-19.05 697.91,-24.55 699.36,-17.7"/>
</a>
</g>
</g>
<!-- Node4&#45;&gt;Node3 -->
<g id="edge4_Node000004_Node000003" class="edge">
<title>Node4&#45;&gt;Node3</title>
<g id="a_edge4_Node000004_Node000003"><a xlink:title=" ">
<path fill="none" stroke="#63b8ff" d="M593.26,-126.47C613.82,-119.13 638.99,-106.26 651.5,-85 661.53,-67.96 658.52,-44.73 654.46,-28.76"/>
<polygon fill="#63b8ff" stroke="#63b8ff" points="657.79,-27.66 651.63,-19.04 651.07,-29.62 657.79,-27.66"/>
</a>
</g>
</g>
<!-- Node5 -->
<g id="Node000005" class="node">
<title>Node5</title>
<g id="a_Node000005"><a xlink:href="FToolbarButtonInfo_8h.html" target="_top" xlink:title="커스터마이즈 가능한 Coffee Toolbar 버튼 정보를 선언합니다.">
<polygon fill="white" stroke="#666666" points="292,-79.5 175,-79.5 175,-60.5 292,-60.5 292,-79.5"/>
<text text-anchor="middle" x="233.5" y="-67.5" font-family="Malgun Gothic" font-size="10.00">FToolbarButtonInfo.h</text>
</a>
</g>
</g>
<!-- Node4&#45;&gt;Node5 -->
<g id="edge5_Node000004_Node000005" class="edge">
<title>Node4&#45;&gt;Node5</title>
<g id="a_edge5_Node000004_Node000005"><a xlink:title=" ">
<path fill="none" stroke="#63b8ff" d="M515.91,-126.42C463.97,-116.6 376.56,-99.94 301.5,-85 296.03,-83.91 290.32,-82.76 284.63,-81.6"/>
<polygon fill="#63b8ff" stroke="#63b8ff" points="284.97,-78.1 274.48,-79.53 283.57,-84.96 284.97,-78.1"/>
</a>
</g>
</g>
<!-- Node7 -->
<g id="Node000007" class="node">
<title>Node7</title>
<g id="a_Node000007"><a xlink:title=" ">
<polygon fill="#e0e0e0" stroke="#999999" points="462.5,-79.5 310.5,-79.5 310.5,-60.5 462.5,-60.5 462.5,-79.5"/>
<text text-anchor="middle" x="386.5" y="-67.5" font-family="Malgun Gothic" font-size="10.00">Engine/DeveloperSettings.h</text>
</a>
</g>
</g>
<!-- Node4&#45;&gt;Node7 -->
<g id="edge8_Node000004_Node000007" class="edge">
<title>Node4&#45;&gt;Node7</title>
<g id="a_edge8_Node000004_Node000007"><a xlink:title=" ">
<path fill="none" stroke="#63b8ff" d="M537.9,-126.37C507.41,-115.22 454.18,-95.75 419.65,-83.12"/>
<polygon fill="#63b8ff" stroke="#63b8ff" points="420.6,-79.74 410.01,-79.6 418.2,-86.32 420.6,-79.74"/>
</a>
</g>
</g>
<!-- Node8 -->
<g id="Node000008" class="node">
<title>Node8</title>
<g id="a_Node000008"><a xlink:href="FFolderPathInfo_8h.html" target="_top" xlink:title=" ">
<polygon fill="white" stroke="#666666" points="832.5,-79.5 698.5,-79.5 698.5,-60.5 832.5,-60.5 832.5,-79.5"/>
<text text-anchor="middle" x="765.5" y="-67.5" font-family="Malgun Gothic" font-size="10.00">Folder/FFolderPathInfo.h</text>
</a>
</g>
</g>
<!-- Node4&#45;&gt;Node8 -->
<g id="edge9_Node000004_Node000008" class="edge">
<title>Node4&#45;&gt;Node8</title>
<g id="a_edge9_Node000004_Node000008"><a xlink:title=" ">
<path fill="none" stroke="#63b8ff" d="M589.01,-126.37C625.01,-115.08 688.21,-95.25 728.41,-82.64"/>
<polygon fill="#63b8ff" stroke="#63b8ff" points="729.6,-85.93 738.1,-79.6 727.51,-79.25 729.6,-85.93"/>
</a>
</g>
</g>
<!-- Node10 -->
<g id="Node000010" class="node">
<title>Node10</title>
<g id="a_Node000010"><a xlink:href="FApiSendInfo_8h.html" target="_top" xlink:title="HTTP API 요청 정보를 정의합니다.">
<polygon fill="white" stroke="#666666" points="156.5,-79.5 4.5,-79.5 4.5,-60.5 156.5,-60.5 156.5,-79.5"/>
<text text-anchor="middle" x="80.5" y="-67.5" font-family="Malgun Gothic" font-size="10.00">NetworkTest/FApiSendInfo.h</text>
</a>
</g>
</g>
<!-- Node4&#45;&gt;Node10 -->
<g id="edge12_Node000004_Node000010" class="edge">
<title>Node4&#45;&gt;Node10</title>
<g id="a_edge12_Node000004_Node000010"><a xlink:title=" ">
<path fill="none" stroke="#63b8ff" d="M487.31,-126.48C407.65,-117.13 277.45,-101.28 165.5,-85 157.4,-83.82 148.87,-82.51 140.48,-81.17"/>
<polygon fill="#63b8ff" stroke="#63b8ff" points="140.77,-77.67 130.34,-79.53 139.66,-84.58 140.77,-77.67"/>
</a>
</g>
</g>
<!-- Node12 -->
<g id="Node000012" class="node">
<title>Node12</title>
<g id="a_Node000012"><a xlink:title=" ">
<polygon fill="#e0e0e0" stroke="#999999" points="642,-79.5 481,-79.5 481,-60.5 642,-60.5 642,-79.5"/>
<text text-anchor="middle" x="561.5" y="-67.5" font-family="Malgun Gothic" font-size="10.00">UToolbarSettings.generated.h</text>
</a>
</g>
</g>
<!-- Node4&#45;&gt;Node12 -->
<g id="edge15_Node000004_Node000012" class="edge">
<title>Node4&#45;&gt;Node12</title>
<g id="a_edge15_Node000004_Node000012"><a xlink:title=" ">
<path fill="none" stroke="#63b8ff" d="M561.5,-126.37C561.5,-117.16 561.5,-102.29 561.5,-90.27"/>
<polygon fill="#63b8ff" stroke="#63b8ff" points="565,-89.91 561.5,-79.91 558,-89.91 565,-89.91"/>
</a>
</g>
</g>
<!-- Node5&#45;&gt;Node3 -->
<g id="edge6_Node000005_Node000003" class="edge">
<title>Node5&#45;&gt;Node3</title>
<g id="a_edge6_Node000005_Node000003"><a xlink:title=" ">
<path fill="none" stroke="#63b8ff" d="M272.24,-60.5C281.78,-58.55 291.99,-56.59 301.5,-55 404.5,-37.82 525.66,-23.64 594.13,-16.19"/>
<polygon fill="#63b8ff" stroke="#63b8ff" points="594.68,-19.65 604.25,-15.09 593.93,-12.69 594.68,-19.65"/>
</a>
</g>
</g>
<!-- Node6 -->
<g id="Node000006" class="node">
<title>Node6</title>
<g id="a_Node000006"><a xlink:title=" ">
<polygon fill="#e0e0e0" stroke="#999999" points="329.5,-19 159.5,-19 159.5,0 329.5,0 329.5,-19"/>
<text text-anchor="middle" x="244.5" y="-7" font-family="Malgun Gothic" font-size="10.00">FToolbarButtonInfo.generated.h</text>
</a>
</g>
</g>
<!-- Node5&#45;&gt;Node6 -->
<g id="edge7_Node000005_Node000006" class="edge">
<title>Node5&#45;&gt;Node6</title>
<g id="a_edge7_Node000005_Node000006"><a xlink:title=" ">
<path fill="none" stroke="#63b8ff" d="M235.12,-60.37C236.67,-52.16 239.04,-39.54 241.01,-29.05"/>
<polygon fill="#63b8ff" stroke="#63b8ff" points="244.46,-29.64 242.87,-19.17 237.58,-28.35 244.46,-29.64"/>
</a>
</g>
</g>
<!-- Node8&#45;&gt;Node3 -->
<g id="edge10_Node000008_Node000003" class="edge">
<title>Node8&#45;&gt;Node3</title>
<g id="a_edge10_Node000008_Node000003"><a xlink:title=" ">
<path fill="none" stroke="#63b8ff" d="M748.49,-60.49C729.08,-50.79 697.11,-34.81 674.56,-23.53"/>
<polygon fill="#63b8ff" stroke="#63b8ff" points="676.04,-20.36 665.53,-19.02 672.91,-26.62 676.04,-20.36"/>
</a>
</g>
</g>
<!-- Node9 -->
<g id="Node000009" class="node">
<title>Node9</title>
<g id="a_Node000009"><a xlink:title=" ">
<polygon fill="#e0e0e0" stroke="#999999" points="864.5,-19 710.5,-19 710.5,0 864.5,0 864.5,-19"/>
<text text-anchor="middle" x="787.5" y="-7" font-family="Malgun Gothic" font-size="10.00">FFolderPathInfo.generated.h</text>
</a>
</g>
</g>
<!-- Node8&#45;&gt;Node9 -->
<g id="edge11_Node000008_Node000009" class="edge">
<title>Node8&#45;&gt;Node9</title>
<g id="a_edge11_Node000008_Node000009"><a xlink:title=" ">
<path fill="none" stroke="#63b8ff" d="M768.75,-60.37C771.87,-52.07 776.68,-39.28 780.65,-28.72"/>
<polygon fill="#63b8ff" stroke="#63b8ff" points="784,-29.76 784.24,-19.17 777.44,-27.3 784,-29.76"/>
</a>
</g>
</g>
<!-- Node10&#45;&gt;Node3 -->
<g id="edge13_Node000010_Node000003" class="edge">
<title>Node10&#45;&gt;Node3</title>
<g id="a_edge13_Node000010_Node000003"><a xlink:title=" ">
<path fill="none" stroke="#63b8ff" d="M128.51,-60.48C140.56,-58.51 153.48,-56.54 165.5,-55 320.56,-35.11 504.74,-20.67 594.25,-14.23"/>
<polygon fill="#63b8ff" stroke="#63b8ff" points="594.71,-17.71 604.43,-13.5 594.21,-10.72 594.71,-17.71"/>
</a>
</g>
</g>
<!-- Node11 -->
<g id="Node000011" class="node">
<title>Node11</title>
<g id="a_Node000011"><a xlink:title=" ">
<polygon fill="#e0e0e0" stroke="#999999" points="141,-19 0,-19 0,0 141,0 141,-19"/>
<text text-anchor="middle" x="70.5" y="-7" font-family="Malgun Gothic" font-size="10.00">FApiSendInfo.generated.h</text>
</a>
</g>
</g>
<!-- Node10&#45;&gt;Node11 -->
<g id="edge14_Node000010_Node000011" class="edge">
<title>Node10&#45;&gt;Node11</title>
<g id="a_edge14_Node000010_Node000011"><a xlink:title=" ">
<path fill="none" stroke="#63b8ff" d="M79.02,-60.37C77.62,-52.16 75.46,-39.54 73.67,-29.05"/>
<polygon fill="#63b8ff" stroke="#63b8ff" points="77.12,-28.43 71.98,-19.17 70.22,-29.61 77.12,-28.43"/>
</a>
</g>
</g>
</g>
</svg>

<g id="navigator" transform="translate(0 0)" fill="#404254">
  <rect fill="#f2f5e9" fill-opacity="0.5" stroke="#606060" stroke-width=".5" x="0" y="0" width="60" height="60"/>
  <use id="zoomplus" xlink:href="#zoomPlus" x="17" y="9" onmousedown="handleZoom(evt,'in')"/>
  <use id="zoomminus" xlink:href="#zoomMin" x="42" y="9" onmousedown="handleZoom(evt,'out')"/>
  <use id="reset" xlink:href="#resetDef" x="30" y="36" onmousedown="handleReset()"/>
   <use id="arrowup" xlink:href="#arrowUp" x="0" y="0" onmousedown="handlePan(0,-1)"/>
  <use id="arrowright" xlink:href="#arrowRight" x="0" y="0" onmousedown="handlePan(1,0)"/>
  <use id="arrowdown" xlink:href="#arrowDown" x="0" y="0" onmousedown="handlePan(0,1)"/>
  <use id="arrowleft" xlink:href="#arrowLeft" x="0" y="0" onmousedown="handlePan(-1,0)"/>
</g>
<svg viewBox="0 0 15 15" width="100%" height="30px" preserveAspectRatio="xMaxYMin meet">
 <g id="arrow_out" transform="scale(0.3 0.3)">
  <a xlink:href="FNetworkTestFeature_8cpp__incl_org.svg" target="_base">
   <rect id="button" ry="5" rx="5" y="6" x="6" height="38" width="38"
        fill="#f2f5e9" fill-opacity="0.5" stroke="#606060" stroke-width="1.0"/>
   <path id="arrow"
     d="M 11.500037,31.436501 C 11.940474,20.09759 22.043105,11.32322 32.158766,21.979434 L 37.068811,17.246167 C 37.068811,17.246167 37.088388,32 37.088388,32 L 22.160133,31.978069 C 22.160133,31.978069 26.997745,27.140456 26.997745,27.140456 C 18.528582,18.264221 13.291696,25.230495 11.500037,31.436501 z"
     style="fill:#404040;"/>
  </a>
 </g>
</svg>

<style type='text/css'>
<![CDATA[
[data-mouse-over-selected='false'] { opacity: 0.7; }
[data-mouse-over-selected='true']  { opacity: 1.0; }
]]>
</style>
<script type="application/ecmascript"><![CDATA[
document.addEventListener('DOMContentLoaded', (event) => {
  highlightEdges();
  highlightAdjacentNodes();
});
]]></script>
</svg>
