<?xml version="1.0" encoding="UTF-8" standalone="no"?>
<!DOCTYPE svg PUBLIC "-//W3C//DTD SVG 1.1//EN"
 "http://www.w3.org/Graphics/SVG/1.1/DTD/svg11.dtd">
<!-- Generated by graphviz version 2.43.0 (0)
 -->
<!-- Title: Source/CoffeeToolbar/Public/NetworkTest/FNetworkTestFeature.h Pages: 1 -->
<svg width="288pt" height="192pt"
 viewBox="0.00 0.00 288.00 192.00" xmlns="http://www.w3.org/2000/svg" xmlns:xlink="http://www.w3.org/1999/xlink">
<g id="graph0" class="graph" transform="scale(1 1) rotate(0) translate(4 188)">
<title>Source/CoffeeToolbar/Public/NetworkTest/FNetworkTestFeature.h</title>
<!-- Node1 -->
<g id="Node000001" class="node">
<title>Node1</title>
<g id="a_Node000001"><a xlink:title="네트워크 API 테스트 기능을 제공합니다.">
<polygon fill="#999999" stroke="#666666" points="227,-184 64,-184 64,-143 227,-143 227,-184"/>
<text text-anchor="start" x="72" y="-172" font-family="Malgun Gothic" font-size="10.00">Source/CoffeeToolbar</text>
<text text-anchor="start" x="72" y="-161" font-family="Malgun Gothic" font-size="10.00">/Public/NetworkTest/FNetwork</text>
<text text-anchor="middle" x="145.5" y="-150" font-family="Malgun Gothic" font-size="10.00">TestFeature.h</text>
</a>
</g>
</g>
<!-- Node2 -->
<g id="Node000002" class="node">
<title>Node2</title>
<g id="a_Node000002"><a xlink:href="FNetworkTestFeature_8cpp.html" target="_top" xlink:title=" ">
<polygon fill="white" stroke="#666666" points="143,-107 0,-107 0,-66 143,-66 143,-107"/>
<text text-anchor="start" x="8" y="-95" font-family="Malgun Gothic" font-size="10.00">Source/CoffeeToolbar</text>
<text text-anchor="start" x="8" y="-84" font-family="Malgun Gothic" font-size="10.00">/Private/NetworkTest</text>
<text text-anchor="middle" x="71.5" y="-73" font-family="Malgun Gothic" font-size="10.00">/FNetworkTestFeature.cpp</text>
</a>
</g>
</g>
<!-- Node1&#45;&gt;Node2 -->
<g id="edge1_Node000001_Node000002" class="edge">
<title>Node1&#45;&gt;Node2</title>
<g id="a_edge1_Node000001_Node000002"><a xlink:title=" ">
<path fill="none" stroke="#63b8ff" d="M118.87,-135.51C109.6,-126.11 99.38,-115.76 90.81,-107.07"/>
<polygon fill="#63b8ff" stroke="#63b8ff" points="116.54,-138.13 126.06,-142.79 121.53,-133.22 116.54,-138.13"/>
</a>
</g>
</g>
<!-- Node3 -->
<g id="Node000003" class="node">
<title>Node3</title>
<g id="a_Node000003"><a xlink:href="FToolbar_8h.html" target="_top" xlink:title="CoffeeToolbar 플러그인의 주요 모듈 구현을 선언합니다.">
<polygon fill="white" stroke="#666666" points="280,-101.5 161,-101.5 161,-71.5 280,-71.5 280,-101.5"/>
<text text-anchor="start" x="169" y="-89.5" font-family="Malgun Gothic" font-size="10.00">Source/CoffeeToolbar</text>
<text text-anchor="middle" x="220.5" y="-78.5" font-family="Malgun Gothic" font-size="10.00">/Public/FToolbar.h</text>
</a>
</g>
</g>
<!-- Node1&#45;&gt;Node3 -->
<g id="edge2_Node000001_Node000003" class="edge">
<title>Node1&#45;&gt;Node3</title>
<g id="a_edge2_Node000001_Node000003"><a xlink:title=" ">
<path fill="none" stroke="#63b8ff" d="M172.43,-135.57C183.82,-124.18 196.61,-111.39 206.14,-101.86"/>
<polygon fill="#63b8ff" stroke="#63b8ff" points="169.8,-133.25 165.21,-142.79 174.75,-138.2 169.8,-133.25"/>
</a>
</g>
</g>
<!-- Node4 -->
<g id="Node000004" class="node">
<title>Node4</title>
<g id="a_Node000004"><a xlink:href="FToolbar_8cpp.html" target="_top" xlink:title="Coffee Toolbar 모듈의 라이프사이클과 메뉴 등록 로직을 구현합니다.">
<polygon fill="white" stroke="#666666" points="280,-30 161,-30 161,0 280,0 280,-30"/>
<text text-anchor="start" x="169" y="-18" font-family="Malgun Gothic" font-size="10.00">Source/CoffeeToolbar</text>
<text text-anchor="middle" x="220.5" y="-7" font-family="Malgun Gothic" font-size="10.00">/Private/FToolbar.cpp</text>
</a>
</g>
</g>
<!-- Node3&#45;&gt;Node4 -->
<g id="edge3_Node000003_Node000004" class="edge">
<title>Node3&#45;&gt;Node4</title>
<g id="a_edge3_Node000003_Node000004"><a xlink:title=" ">
<path fill="none" stroke="#63b8ff" d="M220.5,-61.25C220.5,-50.81 220.5,-38.99 220.5,-30.04"/>
<polygon fill="#63b8ff" stroke="#63b8ff" points="217,-61.44 220.5,-71.44 224,-61.44 217,-61.44"/>
</a>
</g>
</g>
</g>
</svg>
