<?xml version="1.0" encoding="UTF-8" standalone="no"?>
<!DOCTYPE svg PUBLIC "-//W3C//DTD SVG 1.1//EN"
 "http://www.w3.org/Graphics/SVG/1.1/DTD/svg11.dtd">
<!-- Generated by graphviz version 2.43.0 (0)
 -->
<!-- Title: Source/CoffeeToolbar/Private/Common/FolderFeature.cpp Pages: 1 -->
<svg width="1269pt" height="214pt"
 viewBox="0.00 0.00 1268.50 214.00" xmlns="http://www.w3.org/2000/svg" xmlns:xlink="http://www.w3.org/1999/xlink">
<g id="graph0" class="graph" transform="scale(1 1) rotate(0) translate(4 210)">
<title>Source/CoffeeToolbar/Private/Common/FolderFeature.cpp</title>
<!-- Node1 -->
<g id="Node000001" class="node">
<title>Node1</title>
<g id="a_Node000001"><a xlink:title=" ">
<polygon fill="#999999" stroke="#666666" points="970.5,-206 779.5,-206 779.5,-176 970.5,-176 970.5,-206"/>
<text text-anchor="start" x="787.5" y="-194" font-family="Malgun Gothic" font-size="10.00">Source/CoffeeToolbar</text>
<text text-anchor="middle" x="875" y="-183" font-family="Malgun Gothic" font-size="10.00">/Private/Common/FolderFeature.cpp</text>
</a>
</g>
</g>
<!-- Node2 -->
<g id="Node000002" class="node">
<title>Node2</title>
<g id="a_Node000002"><a xlink:href="FolderFeature_8h.html" target="_top" xlink:title=" ">
<polygon fill="white" stroke="#666666" points="810,-74 670,-74 670,-55 810,-55 810,-74"/>
<text text-anchor="middle" x="740" y="-62" font-family="Malgun Gothic" font-size="10.00">Common/FolderFeature.h</text>
</a>
</g>
</g>
<!-- Node1&#45;&gt;Node2 -->
<g id="edge1_Node000001_Node000002" class="edge">
<title>Node1&#45;&gt;Node2</title>
<g id="a_edge1_Node000001_Node000002"><a xlink:title=" ">
<path fill="none" stroke="#63b8ff" d="M779.31,-178.69C731.42,-170.85 680.56,-158.45 666,-140 657.74,-129.53 659.44,-121.61 666,-110 674.17,-95.55 689.12,-85.27 703.46,-78.26"/>
<polygon fill="#63b8ff" stroke="#63b8ff" points="705.01,-81.4 712.71,-74.12 702.15,-75.01 705.01,-81.4"/>
</a>
</g>
</g>
<!-- Node4 -->
<g id="Node000004" class="node">
<title>Node4</title>
<g id="a_Node000004"><a xlink:href="UToolbarSettings_8h.html" target="_top" xlink:title="Coffee Toolbar 플러그인을 구성하기 위한 개발자 설정을 선언합니다.">
<polygon fill="white" stroke="#666666" points="526.5,-134.5 375.5,-134.5 375.5,-115.5 526.5,-115.5 526.5,-134.5"/>
<text text-anchor="middle" x="451" y="-122.5" font-family="Malgun Gothic" font-size="10.00">Settings/UToolbarSettings.h</text>
</a>
</g>
</g>
<!-- Node1&#45;&gt;Node4 -->
<g id="edge3_Node000001_Node000004" class="edge">
<title>Node1&#45;&gt;Node4</title>
<g id="a_edge3_Node000001_Node000004"><a xlink:title=" ">
<path fill="none" stroke="#63b8ff" d="M782.21,-175.99C702.3,-163.93 588.91,-146.82 517.69,-136.07"/>
<polygon fill="#63b8ff" stroke="#63b8ff" points="517.91,-132.56 507.5,-134.53 516.86,-139.48 517.91,-132.56"/>
</a>
</g>
</g>
<!-- Node11 -->
<g id="Node000011" class="node">
<title>Node11</title>
<g id="a_Node000011"><a xlink:title=" ">
<polygon fill="#e0e0e0" stroke="#999999" points="793,-140 675,-140 675,-110 793,-110 793,-140"/>
<text text-anchor="start" x="683" y="-128" font-family="Malgun Gothic" font-size="10.00">Framework/MultiBox</text>
<text text-anchor="middle" x="734" y="-117" font-family="Malgun Gothic" font-size="10.00">/MultiBoxBuilder.h</text>
</a>
</g>
</g>
<!-- Node1&#45;&gt;Node11 -->
<g id="edge13_Node000001_Node000011" class="edge">
<title>Node1&#45;&gt;Node11</title>
<g id="a_edge13_Node000001_Node000011"><a xlink:title=" ">
<path fill="none" stroke="#63b8ff" d="M844.06,-175.95C823.49,-166.62 796.27,-154.27 774.05,-144.18"/>
<polygon fill="#63b8ff" stroke="#63b8ff" points="775.42,-140.96 764.87,-140.01 772.53,-147.33 775.42,-140.96"/>
</a>
</g>
</g>
<!-- Node12 -->
<g id="Node000012" class="node">
<title>Node12</title>
<g id="a_Node000012"><a xlink:title=" ">
<polygon fill="#e0e0e0" stroke="#999999" points="939,-134.5 811,-134.5 811,-115.5 939,-115.5 939,-134.5"/>
<text text-anchor="middle" x="875" y="-122.5" font-family="Malgun Gothic" font-size="10.00">HAL/PlatformProcess.h</text>
</a>
</g>
</g>
<!-- Node1&#45;&gt;Node12 -->
<g id="edge14_Node000001_Node000012" class="edge">
<title>Node1&#45;&gt;Node12</title>
<g id="a_edge14_Node000001_Node000012"><a xlink:title=" ">
<path fill="none" stroke="#63b8ff" d="M875,-175.8C875,-166.7 875,-154.79 875,-144.9"/>
<polygon fill="#63b8ff" stroke="#63b8ff" points="878.5,-144.84 875,-134.84 871.5,-144.84 878.5,-144.84"/>
</a>
</g>
</g>
<!-- Node13 -->
<g id="Node000013" class="node">
<title>Node13</title>
<g id="a_Node000013"><a xlink:title=" ">
<polygon fill="#e0e0e0" stroke="#999999" points="1072.5,-134.5 957.5,-134.5 957.5,-115.5 1072.5,-115.5 1072.5,-134.5"/>
<text text-anchor="middle" x="1015" y="-122.5" font-family="Malgun Gothic" font-size="10.00">HAL/PlatformTime.h</text>
</a>
</g>
</g>
<!-- Node1&#45;&gt;Node13 -->
<g id="edge15_Node000001_Node000013" class="edge">
<title>Node1&#45;&gt;Node13</title>
<g id="a_edge15_Node000001_Node000013"><a xlink:title=" ">
<path fill="none" stroke="#63b8ff" d="M905.72,-175.95C929.95,-164.88 963.46,-149.56 986.96,-138.82"/>
<polygon fill="#63b8ff" stroke="#63b8ff" points="988.73,-141.86 996.37,-134.52 985.82,-135.49 988.73,-141.86"/>
</a>
</g>
</g>
<!-- Node14 -->
<g id="Node000014" class="node">
<title>Node14</title>
<g id="a_Node000014"><a xlink:title=" ">
<polygon fill="#e0e0e0" stroke="#999999" points="1165,-134.5 1091,-134.5 1091,-115.5 1165,-115.5 1165,-134.5"/>
<text text-anchor="middle" x="1128" y="-122.5" font-family="Malgun Gothic" font-size="10.00">Misc/Guid.h</text>
</a>
</g>
</g>
<!-- Node1&#45;&gt;Node14 -->
<g id="edge16_Node000001_Node000014" class="edge">
<title>Node1&#45;&gt;Node14</title>
<g id="a_edge16_Node000001_Node000014"><a xlink:title=" ">
<path fill="none" stroke="#63b8ff" d="M937.29,-175.96C978.51,-166.42 1033.67,-153.18 1082,-140 1084.96,-139.19 1088.03,-138.33 1091.1,-137.44"/>
<polygon fill="#63b8ff" stroke="#63b8ff" points="1092.24,-140.75 1100.83,-134.56 1090.25,-134.04 1092.24,-140.75"/>
</a>
</g>
</g>
<!-- Node15 -->
<g id="Node000015" class="node">
<title>Node15</title>
<g id="a_Node000015"><a xlink:title=" ">
<polygon fill="#e0e0e0" stroke="#999999" points="1260.5,-134.5 1183.5,-134.5 1183.5,-115.5 1260.5,-115.5 1260.5,-134.5"/>
<text text-anchor="middle" x="1222" y="-122.5" font-family="Malgun Gothic" font-size="10.00">Misc/Paths.h</text>
</a>
</g>
</g>
<!-- Node1&#45;&gt;Node15 -->
<g id="edge17_Node000001_Node000015" class="edge">
<title>Node1&#45;&gt;Node15</title>
<g id="a_edge17_Node000001_Node000015"><a xlink:title=" ">
<path fill="none" stroke="#63b8ff" d="M970.83,-176.92C1029.78,-168.15 1106.66,-155.39 1174,-140 1177.6,-139.18 1181.32,-138.24 1185.03,-137.26"/>
<polygon fill="#63b8ff" stroke="#63b8ff" points="1186.04,-140.61 1194.73,-134.56 1184.16,-133.87 1186.04,-140.61"/>
</a>
</g>
</g>
<!-- Node3 -->
<g id="Node000003" class="node">
<title>Node3</title>
<g id="a_Node000003"><a xlink:title=" ">
<polygon fill="#e0e0e0" stroke="#999999" points="550,-19 462,-19 462,0 550,0 550,-19"/>
<text text-anchor="middle" x="506" y="-7" font-family="Malgun Gothic" font-size="10.00">CoreMinimal.h</text>
</a>
</g>
</g>
<!-- Node2&#45;&gt;Node3 -->
<g id="edge2_Node000002_Node000003" class="edge">
<title>Node2&#45;&gt;Node3</title>
<g id="a_edge2_Node000002_Node000003"><a xlink:title=" ">
<path fill="none" stroke="#63b8ff" d="M702.4,-54.98C662.01,-45.84 597.72,-31.27 553.77,-21.32"/>
<polygon fill="#63b8ff" stroke="#63b8ff" points="554.42,-17.88 543.89,-19.08 552.87,-24.7 554.42,-17.88"/>
</a>
</g>
</g>
<!-- Node4&#45;&gt;Node3 -->
<g id="edge4_Node000004_Node000003" class="edge">
<title>Node4&#45;&gt;Node3</title>
<g id="a_edge4_Node000004_Node000003"><a xlink:title=" ">
<path fill="none" stroke="#63b8ff" d="M458.61,-115.37C466.66,-105.83 479.25,-89.74 487,-74 494.07,-59.63 499.07,-42.11 502.16,-29.11"/>
<polygon fill="#63b8ff" stroke="#63b8ff" points="505.65,-29.57 504.39,-19.05 498.81,-28.06 505.65,-29.57"/>
</a>
</g>
</g>
<!-- Node5 -->
<g id="Node000005" class="node">
<title>Node5</title>
<g id="a_Node000005"><a xlink:href="FToolbarButtonInfo_8h.html" target="_top" xlink:title="커스터마이즈 가능한 Coffee Toolbar 버튼 정보를 선언합니다.">
<polygon fill="white" stroke="#666666" points="651.5,-74 534.5,-74 534.5,-55 651.5,-55 651.5,-74"/>
<text text-anchor="middle" x="593" y="-62" font-family="Malgun Gothic" font-size="10.00">FToolbarButtonInfo.h</text>
</a>
</g>
</g>
<!-- Node4&#45;&gt;Node5 -->
<g id="edge5_Node000004_Node000005" class="edge">
<title>Node4&#45;&gt;Node5</title>
<g id="a_edge5_Node000004_Node000005"><a xlink:title=" ">
<path fill="none" stroke="#63b8ff" d="M471.65,-115.49C495.63,-105.62 535.39,-89.23 562.83,-77.93"/>
<polygon fill="#63b8ff" stroke="#63b8ff" points="564.41,-81.06 572.33,-74.02 561.75,-74.59 564.41,-81.06"/>
</a>
</g>
</g>
<!-- Node7 -->
<g id="Node000007" class="node">
<title>Node7</title>
<g id="a_Node000007"><a xlink:title=" ">
<polygon fill="#e0e0e0" stroke="#999999" points="298,-74 146,-74 146,-55 298,-55 298,-74"/>
<text text-anchor="middle" x="222" y="-62" font-family="Malgun Gothic" font-size="10.00">Engine/DeveloperSettings.h</text>
</a>
</g>
</g>
<!-- Node4&#45;&gt;Node7 -->
<g id="edge8_Node000004_Node000007" class="edge">
<title>Node4&#45;&gt;Node7</title>
<g id="a_edge8_Node000004_Node000007"><a xlink:title=" ">
<path fill="none" stroke="#63b8ff" d="M417.7,-115.49C377.42,-105.2 309.52,-87.86 265.23,-76.54"/>
<polygon fill="#63b8ff" stroke="#63b8ff" points="265.89,-73.1 255.34,-74.02 264.16,-79.88 265.89,-73.1"/>
</a>
</g>
</g>
<!-- Node8 -->
<g id="Node000008" class="node">
<title>Node8</title>
<g id="a_Node000008"><a xlink:href="FFolderPathInfo_8h.html" target="_top" xlink:title=" ">
<polygon fill="white" stroke="#666666" points="127.5,-74 26.5,-74 26.5,-55 127.5,-55 127.5,-74"/>
<text text-anchor="middle" x="77" y="-62" font-family="Malgun Gothic" font-size="10.00">FFolderPathInfo.h</text>
</a>
</g>
</g>
<!-- Node4&#45;&gt;Node8 -->
<g id="edge9_Node000004_Node000008" class="edge">
<title>Node4&#45;&gt;Node8</title>
<g id="a_edge9_Node000004_Node000008"><a xlink:title=" ">
<path fill="none" stroke="#63b8ff" d="M396.62,-115.49C327.78,-104.73 209.54,-86.23 137.79,-75.01"/>
<polygon fill="#63b8ff" stroke="#63b8ff" points="137.97,-71.49 127.55,-73.41 136.89,-78.41 137.97,-71.49"/>
</a>
</g>
</g>
<!-- Node10 -->
<g id="Node000010" class="node">
<title>Node10</title>
<g id="a_Node000010"><a xlink:title=" ">
<polygon fill="#e0e0e0" stroke="#999999" points="477.5,-74 316.5,-74 316.5,-55 477.5,-55 477.5,-74"/>
<text text-anchor="middle" x="397" y="-62" font-family="Malgun Gothic" font-size="10.00">UToolbarSettings.generated.h</text>
</a>
</g>
</g>
<!-- Node4&#45;&gt;Node10 -->
<g id="edge12_Node000004_Node000010" class="edge">
<title>Node4&#45;&gt;Node10</title>
<g id="a_edge12_Node000004_Node000010"><a xlink:title=" ">
<path fill="none" stroke="#63b8ff" d="M443.03,-115.37C434.9,-106.55 422.07,-92.66 412.02,-81.77"/>
<polygon fill="#63b8ff" stroke="#63b8ff" points="414.36,-79.14 405,-74.17 409.21,-83.89 414.36,-79.14"/>
</a>
</g>
</g>
<!-- Node5&#45;&gt;Node3 -->
<g id="edge6_Node000005_Node000003" class="edge">
<title>Node5&#45;&gt;Node3</title>
<g id="a_edge6_Node000005_Node000003"><a xlink:title=" ">
<path fill="none" stroke="#63b8ff" d="M579.02,-54.98C565.53,-46.77 544.87,-34.18 528.96,-24.49"/>
<polygon fill="#63b8ff" stroke="#63b8ff" points="530.59,-21.38 520.23,-19.17 526.95,-27.36 530.59,-21.38"/>
</a>
</g>
</g>
<!-- Node6 -->
<g id="Node000006" class="node">
<title>Node6</title>
<g id="a_Node000006"><a xlink:title=" ">
<polygon fill="#e0e0e0" stroke="#999999" points="738,-19 568,-19 568,0 738,0 738,-19"/>
<text text-anchor="middle" x="653" y="-7" font-family="Malgun Gothic" font-size="10.00">FToolbarButtonInfo.generated.h</text>
</a>
</g>
</g>
<!-- Node5&#45;&gt;Node6 -->
<g id="edge7_Node000005_Node000006" class="edge">
<title>Node5&#45;&gt;Node6</title>
<g id="a_edge7_Node000005_Node000006"><a xlink:title=" ">
<path fill="none" stroke="#63b8ff" d="M602.64,-54.98C611.51,-47.15 624.87,-35.34 635.61,-25.86"/>
<polygon fill="#63b8ff" stroke="#63b8ff" points="638.01,-28.41 643.18,-19.17 633.37,-23.17 638.01,-28.41"/>
</a>
</g>
</g>
<!-- Node8&#45;&gt;Node3 -->
<g id="edge10_Node000008_Node000003" class="edge">
<title>Node8&#45;&gt;Node3</title>
<g id="a_edge10_Node000008_Node000003"><a xlink:title=" ">
<path fill="none" stroke="#63b8ff" d="M127.73,-56.24C130.87,-55.81 133.97,-55.4 137,-55 248.75,-40.35 379.78,-24.98 451.76,-16.69"/>
<polygon fill="#63b8ff" stroke="#63b8ff" points="452.41,-20.13 461.94,-15.51 451.61,-13.18 452.41,-20.13"/>
</a>
</g>
</g>
<!-- Node9 -->
<g id="Node000009" class="node">
<title>Node9</title>
<g id="a_Node000009"><a xlink:title=" ">
<polygon fill="#e0e0e0" stroke="#999999" points="154,-19 0,-19 0,0 154,0 154,-19"/>
<text text-anchor="middle" x="77" y="-7" font-family="Malgun Gothic" font-size="10.00">FFolderPathInfo.generated.h</text>
</a>
</g>
</g>
<!-- Node8&#45;&gt;Node9 -->
<g id="edge11_Node000008_Node000009" class="edge">
<title>Node8&#45;&gt;Node9</title>
<g id="a_edge11_Node000008_Node000009"><a xlink:title=" ">
<path fill="none" stroke="#63b8ff" d="M77,-54.75C77,-47.8 77,-37.85 77,-29.13"/>
<polygon fill="#63b8ff" stroke="#63b8ff" points="80.5,-29.09 77,-19.09 73.5,-29.09 80.5,-29.09"/>
</a>
</g>
</g>
</g>
</svg>
