<?xml version="1.0" encoding="UTF-8" standalone="no"?>
<!DOCTYPE svg PUBLIC "-//W3C//DTD SVG 1.1//EN"
 "http://www.w3.org/Graphics/SVG/1.1/DTD/svg11.dtd">
<!-- Generated by graphviz version 2.43.0 (0)
 -->
<!-- Title: Source/CoffeeToolbar/Private/Folder/FolderFeature.cpp Pages: 1 -->
<svg width="1411pt" height="214pt"
 viewBox="0.00 0.00 1411.00 214.00" xmlns="http://www.w3.org/2000/svg" xmlns:xlink="http://www.w3.org/1999/xlink">
<g id="graph0" class="graph" transform="scale(1 1) rotate(0) translate(4 210)">
<title>Source/CoffeeToolbar/Private/Folder/FolderFeature.cpp</title>
<!-- Node1 -->
<g id="Node000001" class="node">
<title>Node1</title>
<g id="a_Node000001"><a xlink:title=" ">
<polygon fill="#999999" stroke="#666666" points="1106,-206 929,-206 929,-176 1106,-176 1106,-206"/>
<text text-anchor="start" x="937" y="-194" font-family="Malgun Gothic" font-size="10.00">Source/CoffeeToolbar</text>
<text text-anchor="middle" x="1017.5" y="-183" font-family="Malgun Gothic" font-size="10.00">/Private/Folder/FolderFeature.cpp</text>
</a>
</g>
</g>
<!-- Node2 -->
<g id="Node000002" class="node">
<title>Node2</title>
<g id="a_Node000002"><a xlink:href="FolderFeature_8h.html" target="_top" xlink:title=" ">
<polygon fill="white" stroke="#666666" points="976,-74 851,-74 851,-55 976,-55 976,-74"/>
<text text-anchor="middle" x="913.5" y="-62" font-family="Malgun Gothic" font-size="10.00">Folder/FolderFeature.h</text>
</a>
</g>
</g>
<!-- Node1&#45;&gt;Node2 -->
<g id="edge1_Node000001_Node000002" class="edge">
<title>Node1&#45;&gt;Node2</title>
<g id="a_edge1_Node000001_Node000002"><a xlink:title=" ">
<path fill="none" stroke="#63b8ff" d="M928.91,-179.82C879.05,-172.07 823.78,-159.37 808.5,-140 800.24,-129.53 801.14,-121.12 808.5,-110 819.02,-94.12 836.45,-83.89 854.12,-77.31"/>
<polygon fill="#63b8ff" stroke="#63b8ff" points="855.56,-80.52 863.92,-74.02 853.33,-73.89 855.56,-80.52"/>
</a>
</g>
</g>
<!-- Node4 -->
<g id="Node000004" class="node">
<title>Node4</title>
<g id="a_Node000004"><a xlink:href="UToolbarSettings_8h.html" target="_top" xlink:title="Coffee Toolbar 플러그인을 구성하기 위한 개발자 설정을 선언합니다.">
<polygon fill="white" stroke="#666666" points="637,-134.5 486,-134.5 486,-115.5 637,-115.5 637,-134.5"/>
<text text-anchor="middle" x="561.5" y="-122.5" font-family="Malgun Gothic" font-size="10.00">Settings/UToolbarSettings.h</text>
</a>
</g>
</g>
<!-- Node1&#45;&gt;Node4 -->
<g id="edge3_Node000001_Node000004" class="edge">
<title>Node1&#45;&gt;Node4</title>
<g id="a_edge3_Node000001_Node000004"><a xlink:title=" ">
<path fill="none" stroke="#63b8ff" d="M928.77,-177.55C842.18,-165.39 712.14,-147.14 632.28,-135.93"/>
<polygon fill="#63b8ff" stroke="#63b8ff" points="632.7,-132.46 622.31,-134.54 631.73,-139.39 632.7,-132.46"/>
</a>
</g>
</g>
<!-- Node13 -->
<g id="Node000013" class="node">
<title>Node13</title>
<g id="a_Node000013"><a xlink:title=" ">
<polygon fill="#e0e0e0" stroke="#999999" points="935.5,-140 817.5,-140 817.5,-110 935.5,-110 935.5,-140"/>
<text text-anchor="start" x="825.5" y="-128" font-family="Malgun Gothic" font-size="10.00">Framework/MultiBox</text>
<text text-anchor="middle" x="876.5" y="-117" font-family="Malgun Gothic" font-size="10.00">/MultiBoxBuilder.h</text>
</a>
</g>
</g>
<!-- Node1&#45;&gt;Node13 -->
<g id="edge16_Node000001_Node000013" class="edge">
<title>Node1&#45;&gt;Node13</title>
<g id="a_edge16_Node000001_Node000013"><a xlink:title=" ">
<path fill="none" stroke="#63b8ff" d="M986.56,-175.95C965.99,-166.62 938.77,-154.27 916.55,-144.18"/>
<polygon fill="#63b8ff" stroke="#63b8ff" points="917.92,-140.96 907.37,-140.01 915.03,-147.33 917.92,-140.96"/>
</a>
</g>
</g>
<!-- Node14 -->
<g id="Node000014" class="node">
<title>Node14</title>
<g id="a_Node000014"><a xlink:title=" ">
<polygon fill="#e0e0e0" stroke="#999999" points="1081.5,-134.5 953.5,-134.5 953.5,-115.5 1081.5,-115.5 1081.5,-134.5"/>
<text text-anchor="middle" x="1017.5" y="-122.5" font-family="Malgun Gothic" font-size="10.00">HAL/PlatformProcess.h</text>
</a>
</g>
</g>
<!-- Node1&#45;&gt;Node14 -->
<g id="edge17_Node000001_Node000014" class="edge">
<title>Node1&#45;&gt;Node14</title>
<g id="a_edge17_Node000001_Node000014"><a xlink:title=" ">
<path fill="none" stroke="#63b8ff" d="M1017.5,-175.8C1017.5,-166.7 1017.5,-154.79 1017.5,-144.9"/>
<polygon fill="#63b8ff" stroke="#63b8ff" points="1021,-144.84 1017.5,-134.84 1014,-144.84 1021,-144.84"/>
</a>
</g>
</g>
<!-- Node15 -->
<g id="Node000015" class="node">
<title>Node15</title>
<g id="a_Node000015"><a xlink:title=" ">
<polygon fill="#e0e0e0" stroke="#999999" points="1215,-134.5 1100,-134.5 1100,-115.5 1215,-115.5 1215,-134.5"/>
<text text-anchor="middle" x="1157.5" y="-122.5" font-family="Malgun Gothic" font-size="10.00">HAL/PlatformTime.h</text>
</a>
</g>
</g>
<!-- Node1&#45;&gt;Node15 -->
<g id="edge18_Node000001_Node000015" class="edge">
<title>Node1&#45;&gt;Node15</title>
<g id="a_edge18_Node000001_Node000015"><a xlink:title=" ">
<path fill="none" stroke="#63b8ff" d="M1048.22,-175.95C1072.45,-164.88 1105.96,-149.56 1129.46,-138.82"/>
<polygon fill="#63b8ff" stroke="#63b8ff" points="1131.23,-141.86 1138.87,-134.52 1128.32,-135.49 1131.23,-141.86"/>
</a>
</g>
</g>
<!-- Node16 -->
<g id="Node000016" class="node">
<title>Node16</title>
<g id="a_Node000016"><a xlink:title=" ">
<polygon fill="#e0e0e0" stroke="#999999" points="1307.5,-134.5 1233.5,-134.5 1233.5,-115.5 1307.5,-115.5 1307.5,-134.5"/>
<text text-anchor="middle" x="1270.5" y="-122.5" font-family="Malgun Gothic" font-size="10.00">Misc/Guid.h</text>
</a>
</g>
</g>
<!-- Node1&#45;&gt;Node16 -->
<g id="edge19_Node000001_Node000016" class="edge">
<title>Node1&#45;&gt;Node16</title>
<g id="a_edge19_Node000001_Node000016"><a xlink:title=" ">
<path fill="none" stroke="#63b8ff" d="M1079.79,-175.96C1121.01,-166.42 1176.17,-153.18 1224.5,-140 1227.46,-139.19 1230.53,-138.33 1233.6,-137.44"/>
<polygon fill="#63b8ff" stroke="#63b8ff" points="1234.74,-140.75 1243.33,-134.56 1232.75,-134.04 1234.74,-140.75"/>
</a>
</g>
</g>
<!-- Node17 -->
<g id="Node000017" class="node">
<title>Node17</title>
<g id="a_Node000017"><a xlink:title=" ">
<polygon fill="#e0e0e0" stroke="#999999" points="1403,-134.5 1326,-134.5 1326,-115.5 1403,-115.5 1403,-134.5"/>
<text text-anchor="middle" x="1364.5" y="-122.5" font-family="Malgun Gothic" font-size="10.00">Misc/Paths.h</text>
</a>
</g>
</g>
<!-- Node1&#45;&gt;Node17 -->
<g id="edge20_Node000001_Node000017" class="edge">
<title>Node1&#45;&gt;Node17</title>
<g id="a_edge20_Node000001_Node000017"><a xlink:title=" ">
<path fill="none" stroke="#63b8ff" d="M1106.02,-178C1165.81,-169.21 1246.34,-156.04 1316.5,-140 1320.1,-139.18 1323.82,-138.24 1327.53,-137.26"/>
<polygon fill="#63b8ff" stroke="#63b8ff" points="1328.54,-140.61 1337.23,-134.56 1326.66,-133.87 1328.54,-140.61"/>
</a>
</g>
</g>
<!-- Node3 -->
<g id="Node000003" class="node">
<title>Node3</title>
<g id="a_Node000003"><a xlink:title=" ">
<polygon fill="#e0e0e0" stroke="#999999" points="692.5,-19 604.5,-19 604.5,0 692.5,0 692.5,-19"/>
<text text-anchor="middle" x="648.5" y="-7" font-family="Malgun Gothic" font-size="10.00">CoreMinimal.h</text>
</a>
</g>
</g>
<!-- Node2&#45;&gt;Node3 -->
<g id="edge2_Node000002_Node000003" class="edge">
<title>Node2&#45;&gt;Node3</title>
<g id="a_edge2_Node000002_Node000003"><a xlink:title=" ">
<path fill="none" stroke="#63b8ff" d="M870.92,-54.98C824.8,-45.76 751.14,-31.03 701.34,-21.07"/>
<polygon fill="#63b8ff" stroke="#63b8ff" points="701.9,-17.61 691.41,-19.08 700.53,-24.48 701.9,-17.61"/>
</a>
</g>
</g>
<!-- Node4&#45;&gt;Node3 -->
<g id="edge4_Node000004_Node000003" class="edge">
<title>Node4&#45;&gt;Node3</title>
<g id="a_edge4_Node000004_Node000003"><a xlink:title=" ">
<path fill="none" stroke="#63b8ff" d="M593.26,-115.47C613.82,-108.13 638.99,-95.26 651.5,-74 659.46,-60.47 657.65,-42.38 654.47,-28.97"/>
<polygon fill="#63b8ff" stroke="#63b8ff" points="657.74,-27.68 651.66,-19.01 651.01,-29.59 657.74,-27.68"/>
</a>
</g>
</g>
<!-- Node5 -->
<g id="Node000005" class="node">
<title>Node5</title>
<g id="a_Node000005"><a xlink:href="FToolbarButtonInfo_8h.html" target="_top" xlink:title="커스터마이즈 가능한 Coffee Toolbar 버튼 정보를 선언합니다.">
<polygon fill="white" stroke="#666666" points="292,-74 175,-74 175,-55 292,-55 292,-74"/>
<text text-anchor="middle" x="233.5" y="-62" font-family="Malgun Gothic" font-size="10.00">FToolbarButtonInfo.h</text>
</a>
</g>
</g>
<!-- Node4&#45;&gt;Node5 -->
<g id="edge5_Node000004_Node000005" class="edge">
<title>Node4&#45;&gt;Node5</title>
<g id="a_edge5_Node000004_Node000005"><a xlink:title=" ">
<path fill="none" stroke="#63b8ff" d="M513.81,-115.49C454.9,-104.99 354.75,-87.12 291.46,-75.84"/>
<polygon fill="#63b8ff" stroke="#63b8ff" points="291.71,-72.33 281.25,-74.02 290.48,-79.22 291.71,-72.33"/>
</a>
</g>
</g>
<!-- Node7 -->
<g id="Node000007" class="node">
<title>Node7</title>
<g id="a_Node000007"><a xlink:title=" ">
<polygon fill="#e0e0e0" stroke="#999999" points="462.5,-74 310.5,-74 310.5,-55 462.5,-55 462.5,-74"/>
<text text-anchor="middle" x="386.5" y="-62" font-family="Malgun Gothic" font-size="10.00">Engine/DeveloperSettings.h</text>
</a>
</g>
</g>
<!-- Node4&#45;&gt;Node7 -->
<g id="edge8_Node000004_Node000007" class="edge">
<title>Node4&#45;&gt;Node7</title>
<g id="a_edge8_Node000004_Node000007"><a xlink:title=" ">
<path fill="none" stroke="#63b8ff" d="M536.05,-115.49C505.86,-105.4 455.34,-88.51 421.48,-77.19"/>
<polygon fill="#63b8ff" stroke="#63b8ff" points="422.57,-73.87 411.98,-74.02 420.35,-80.51 422.57,-73.87"/>
</a>
</g>
</g>
<!-- Node8 -->
<g id="Node000008" class="node">
<title>Node8</title>
<g id="a_Node000008"><a xlink:href="FFolderPathInfo_8h.html" target="_top" xlink:title=" ">
<polygon fill="white" stroke="#666666" points="832.5,-74 698.5,-74 698.5,-55 832.5,-55 832.5,-74"/>
<text text-anchor="middle" x="765.5" y="-62" font-family="Malgun Gothic" font-size="10.00">Folder/FFolderPathInfo.h</text>
</a>
</g>
</g>
<!-- Node4&#45;&gt;Node8 -->
<g id="edge9_Node000004_Node000008" class="edge">
<title>Node4&#45;&gt;Node8</title>
<g id="a_edge9_Node000004_Node000008"><a xlink:title=" ">
<path fill="none" stroke="#63b8ff" d="M591.16,-115.49C626.74,-105.29 686.52,-88.15 725.98,-76.83"/>
<polygon fill="#63b8ff" stroke="#63b8ff" points="727.15,-80.14 735.8,-74.02 725.22,-73.41 727.15,-80.14"/>
</a>
</g>
</g>
<!-- Node10 -->
<g id="Node000010" class="node">
<title>Node10</title>
<g id="a_Node000010"><a xlink:href="FApiSendInfo_8h.html" target="_top" xlink:title="HTTP API 요청 정보를 정의합니다.">
<polygon fill="white" stroke="#666666" points="156.5,-74 4.5,-74 4.5,-55 156.5,-55 156.5,-74"/>
<text text-anchor="middle" x="80.5" y="-62" font-family="Malgun Gothic" font-size="10.00">NetworkTest/FApiSendInfo.h</text>
</a>
</g>
</g>
<!-- Node4&#45;&gt;Node10 -->
<g id="edge12_Node000004_Node000010" class="edge">
<title>Node4&#45;&gt;Node10</title>
<g id="a_edge12_Node000004_Node000010"><a xlink:title=" ">
<path fill="none" stroke="#63b8ff" d="M491.56,-115.49C403.66,-104.8 253.14,-86.5 160.67,-75.25"/>
<polygon fill="#63b8ff" stroke="#63b8ff" points="160.88,-71.75 150.53,-74.02 160.03,-78.7 160.88,-71.75"/>
</a>
</g>
</g>
<!-- Node12 -->
<g id="Node000012" class="node">
<title>Node12</title>
<g id="a_Node000012"><a xlink:title=" ">
<polygon fill="#e0e0e0" stroke="#999999" points="642,-74 481,-74 481,-55 642,-55 642,-74"/>
<text text-anchor="middle" x="561.5" y="-62" font-family="Malgun Gothic" font-size="10.00">UToolbarSettings.generated.h</text>
</a>
</g>
</g>
<!-- Node4&#45;&gt;Node12 -->
<g id="edge15_Node000004_Node000012" class="edge">
<title>Node4&#45;&gt;Node12</title>
<g id="a_edge15_Node000004_Node000012"><a xlink:title=" ">
<path fill="none" stroke="#63b8ff" d="M561.5,-115.37C561.5,-107.25 561.5,-94.81 561.5,-84.39"/>
<polygon fill="#63b8ff" stroke="#63b8ff" points="565,-84.17 561.5,-74.17 558,-84.17 565,-84.17"/>
</a>
</g>
</g>
<!-- Node5&#45;&gt;Node3 -->
<g id="edge6_Node000005_Node000003" class="edge">
<title>Node5&#45;&gt;Node3</title>
<g id="a_edge6_Node000005_Node000003"><a xlink:title=" ">
<path fill="none" stroke="#63b8ff" d="M292.08,-56.02C372.59,-45.74 516.3,-27.38 594.39,-17.41"/>
<polygon fill="#63b8ff" stroke="#63b8ff" points="595.02,-20.86 604.5,-16.12 594.14,-13.91 595.02,-20.86"/>
</a>
</g>
</g>
<!-- Node6 -->
<g id="Node000006" class="node">
<title>Node6</title>
<g id="a_Node000006"><a xlink:title=" ">
<polygon fill="#e0e0e0" stroke="#999999" points="329.5,-19 159.5,-19 159.5,0 329.5,0 329.5,-19"/>
<text text-anchor="middle" x="244.5" y="-7" font-family="Malgun Gothic" font-size="10.00">FToolbarButtonInfo.generated.h</text>
</a>
</g>
</g>
<!-- Node5&#45;&gt;Node6 -->
<g id="edge7_Node000005_Node000006" class="edge">
<title>Node5&#45;&gt;Node6</title>
<g id="a_edge7_Node000005_Node000006"><a xlink:title=" ">
<path fill="none" stroke="#63b8ff" d="M235.32,-54.75C236.76,-47.8 238.82,-37.85 240.63,-29.13"/>
<polygon fill="#63b8ff" stroke="#63b8ff" points="244.11,-29.59 242.72,-19.09 237.26,-28.17 244.11,-29.59"/>
</a>
</g>
</g>
<!-- Node8&#45;&gt;Node3 -->
<g id="edge10_Node000008_Node000003" class="edge">
<title>Node8&#45;&gt;Node3</title>
<g id="a_edge10_Node000008_Node000003"><a xlink:title=" ">
<path fill="none" stroke="#63b8ff" d="M746.7,-54.98C727.88,-46.46 698.68,-33.23 677,-23.41"/>
<polygon fill="#63b8ff" stroke="#63b8ff" points="678.19,-20.11 667.64,-19.17 675.3,-26.48 678.19,-20.11"/>
</a>
</g>
</g>
<!-- Node9 -->
<g id="Node000009" class="node">
<title>Node9</title>
<g id="a_Node000009"><a xlink:title=" ">
<polygon fill="#e0e0e0" stroke="#999999" points="864.5,-19 710.5,-19 710.5,0 864.5,0 864.5,-19"/>
<text text-anchor="middle" x="787.5" y="-7" font-family="Malgun Gothic" font-size="10.00">FFolderPathInfo.generated.h</text>
</a>
</g>
</g>
<!-- Node8&#45;&gt;Node9 -->
<g id="edge11_Node000008_Node000009" class="edge">
<title>Node8&#45;&gt;Node9</title>
<g id="a_edge11_Node000008_Node000009"><a xlink:title=" ">
<path fill="none" stroke="#63b8ff" d="M769.13,-54.75C772.08,-47.65 776.33,-37.4 780.01,-28.56"/>
<polygon fill="#63b8ff" stroke="#63b8ff" points="783.33,-29.67 783.93,-19.09 776.87,-26.98 783.33,-29.67"/>
</a>
</g>
</g>
<!-- Node10&#45;&gt;Node3 -->
<g id="edge13_Node000010_Node000003" class="edge">
<title>Node10&#45;&gt;Node3</title>
<g id="a_edge13_Node000010_Node000003"><a xlink:title=" ">
<path fill="none" stroke="#63b8ff" d="M156.95,-55.83C159.84,-55.55 162.7,-55.27 165.5,-55 320.92,-40.07 504.57,-23.42 594.03,-15.38"/>
<polygon fill="#63b8ff" stroke="#63b8ff" points="594.56,-18.85 604.21,-14.46 593.93,-11.87 594.56,-18.85"/>
</a>
</g>
</g>
<!-- Node11 -->
<g id="Node000011" class="node">
<title>Node11</title>
<g id="a_Node000011"><a xlink:title=" ">
<polygon fill="#e0e0e0" stroke="#999999" points="141,-19 0,-19 0,0 141,0 141,-19"/>
<text text-anchor="middle" x="70.5" y="-7" font-family="Malgun Gothic" font-size="10.00">FApiSendInfo.generated.h</text>
</a>
</g>
</g>
<!-- Node10&#45;&gt;Node11 -->
<g id="edge14_Node000010_Node000011" class="edge">
<title>Node10&#45;&gt;Node11</title>
<g id="a_edge14_Node000010_Node000011"><a xlink:title=" ">
<path fill="none" stroke="#63b8ff" d="M78.85,-54.75C77.54,-47.8 75.66,-37.85 74.02,-29.13"/>
<polygon fill="#63b8ff" stroke="#63b8ff" points="77.41,-28.27 72.12,-19.09 70.54,-29.56 77.41,-28.27"/>
</a>
</g>
</g>
</g>
</svg>
