<?xml version="1.0" encoding="UTF-8" standalone="no"?>
<!DOCTYPE svg PUBLIC "-//W3C//DTD SVG 1.1//EN"
 "http://www.w3.org/Graphics/SVG/1.1/DTD/svg11.dtd">
<!-- Generated by graphviz version 2.43.0 (0)
 -->
<!-- Title: Source/CoffeeToolbar/Private/Screenshot/FScreenshotFeature.cpp Pages: 1 -->
<svg width="1598pt" height="170pt"
 viewBox="0.00 0.00 1598.00 170.00" xmlns="http://www.w3.org/2000/svg" xmlns:xlink="http://www.w3.org/1999/xlink">
<g id="graph0" class="graph" transform="scale(1 1) rotate(0) translate(4 166)">
<title>Source/CoffeeToolbar/Private/Screenshot/FScreenshotFeature.cpp</title>
<!-- Node1 -->
<g id="Node000001" class="node">
<title>Node1</title>
<g id="a_Node000001"><a xlink:title="Coffee Toolbar의 스크린샷 캡처 헬퍼 기능을 구현합니다.">
<polygon fill="#999999" stroke="#666666" points="862,-162 689,-162 689,-121 862,-121 862,-162"/>
<text text-anchor="start" x="697" y="-150" font-family="Malgun Gothic" font-size="10.00">Source/CoffeeToolbar</text>
<text text-anchor="start" x="697" y="-139" font-family="Malgun Gothic" font-size="10.00">/Private/Screenshot/FScreenshot</text>
<text text-anchor="middle" x="775.5" y="-128" font-family="Malgun Gothic" font-size="10.00">Feature.cpp</text>
</a>
</g>
</g>
<!-- Node2 -->
<g id="Node000002" class="node">
<title>Node2</title>
<g id="a_Node000002"><a xlink:href="FScreenshotFeature_8h.html" target="_top" xlink:title="툴바의 스크린샷 워크플로우 버튼을 위한 헬퍼를 선언합니다.">
<polygon fill="white" stroke="#666666" points="179,-79.5 0,-79.5 0,-60.5 179,-60.5 179,-79.5"/>
<text text-anchor="middle" x="89.5" y="-67.5" font-family="Malgun Gothic" font-size="10.00">Screenshot/FScreenshotFeature.h</text>
</a>
</g>
</g>
<!-- Node1&#45;&gt;Node2 -->
<g id="edge1_Node000001_Node000002" class="edge">
<title>Node1&#45;&gt;Node2</title>
<g id="a_edge1_Node000001_Node000002"><a xlink:title=" ">
<path fill="none" stroke="#63b8ff" d="M688.69,-133.61C573.84,-124.2 365.18,-106.06 187.5,-85 177.28,-83.79 166.48,-82.38 155.94,-80.93"/>
<polygon fill="#63b8ff" stroke="#63b8ff" points="156.31,-77.45 145.93,-79.53 155.35,-84.38 156.31,-77.45"/>
</a>
</g>
</g>
<!-- Node5 -->
<g id="Node000005" class="node">
<title>Node5</title>
<g id="a_Node000005"><a xlink:href="FCommon_8h.html" target="_top" xlink:title="Coffee Toolbar 플러그인을 위한 공용 유틸리티 헬퍼를 선언합니다.">
<polygon fill="white" stroke="#666666" points="320,-79.5 197,-79.5 197,-60.5 320,-60.5 320,-79.5"/>
<text text-anchor="middle" x="258.5" y="-67.5" font-family="Malgun Gothic" font-size="10.00">Common/FCommon.h</text>
</a>
</g>
</g>
<!-- Node1&#45;&gt;Node5 -->
<g id="edge4_Node000001_Node000005" class="edge">
<title>Node1&#45;&gt;Node5</title>
<g id="a_edge4_Node000001_Node000005"><a xlink:title=" ">
<path fill="none" stroke="#63b8ff" d="M688.69,-131.05C599.6,-121.01 457.08,-103.99 334.5,-85 327.39,-83.9 319.92,-82.64 312.56,-81.35"/>
<polygon fill="#63b8ff" stroke="#63b8ff" points="313.09,-77.89 302.63,-79.57 311.86,-84.78 313.09,-77.89"/>
</a>
</g>
</g>
<!-- Node6 -->
<g id="Node000006" class="node">
<title>Node6</title>
<g id="a_Node000006"><a xlink:title=" ">
<polygon fill="#e0e0e0" stroke="#999999" points="394.5,-19 288.5,-19 288.5,0 394.5,0 394.5,-19"/>
<text text-anchor="middle" x="341.5" y="-7" font-family="Malgun Gothic" font-size="10.00">Styling/AppStyle.h</text>
</a>
</g>
</g>
<!-- Node1&#45;&gt;Node6 -->
<g id="edge16_Node000001_Node000006" class="edge">
<title>Node1&#45;&gt;Node6</title>
<g id="a_edge16_Node000001_Node000006"><a xlink:title=" ">
<path fill="none" stroke="#63b8ff" d="M688.83,-139.09C583.9,-135.65 415.24,-124.01 367.5,-85 350.79,-71.35 344.8,-46.29 342.67,-29.04"/>
<polygon fill="#63b8ff" stroke="#63b8ff" points="346.15,-28.66 341.74,-19.02 339.17,-29.3 346.15,-28.66"/>
</a>
</g>
</g>
<!-- Node7 -->
<g id="Node000007" class="node">
<title>Node7</title>
<g id="a_Node000007"><a xlink:title=" ">
<polygon fill="#e0e0e0" stroke="#999999" points="494.5,-85 376.5,-85 376.5,-55 494.5,-55 494.5,-85"/>
<text text-anchor="start" x="384.5" y="-73" font-family="Malgun Gothic" font-size="10.00">Framework/MultiBox</text>
<text text-anchor="middle" x="435.5" y="-62" font-family="Malgun Gothic" font-size="10.00">/MultiBoxBuilder.h</text>
</a>
</g>
</g>
<!-- Node1&#45;&gt;Node7 -->
<g id="edge7_Node000001_Node000007" class="edge">
<title>Node1&#45;&gt;Node7</title>
<g id="a_edge7_Node000001_Node000007"><a xlink:title=" ">
<path fill="none" stroke="#63b8ff" d="M688.82,-122.85C637.9,-112.48 571.99,-99.03 504.76,-85.26"/>
<polygon fill="#63b8ff" stroke="#63b8ff" points="505.34,-81.8 494.84,-83.22 503.93,-88.66 505.34,-81.8"/>
</a>
</g>
</g>
<!-- Node8 -->
<g id="Node000008" class="node">
<title>Node8</title>
<g id="a_Node000008"><a xlink:title=" ">
<polygon fill="#e0e0e0" stroke="#999999" points="592.5,-79.5 512.5,-79.5 512.5,-60.5 592.5,-60.5 592.5,-79.5"/>
<text text-anchor="middle" x="552.5" y="-67.5" font-family="Malgun Gothic" font-size="10.00">LevelEditor.h</text>
</a>
</g>
</g>
<!-- Node1&#45;&gt;Node8 -->
<g id="edge8_Node000001_Node000008" class="edge">
<title>Node1&#45;&gt;Node8</title>
<g id="a_edge8_Node000001_Node000008"><a xlink:title=" ">
<path fill="none" stroke="#63b8ff" d="M712.79,-120.96C673.09,-108.58 623.13,-93.01 589.62,-82.57"/>
<polygon fill="#63b8ff" stroke="#63b8ff" points="590.37,-79.14 579.78,-79.5 588.29,-85.82 590.37,-79.14"/>
</a>
</g>
</g>
<!-- Node9 -->
<g id="Node000009" class="node">
<title>Node9</title>
<g id="a_Node000009"><a xlink:title=" ">
<polygon fill="#e0e0e0" stroke="#999999" points="710,-79.5 611,-79.5 611,-60.5 710,-60.5 710,-79.5"/>
<text text-anchor="middle" x="660.5" y="-67.5" font-family="Malgun Gothic" font-size="10.00">IAssetViewport.h</text>
</a>
</g>
</g>
<!-- Node1&#45;&gt;Node9 -->
<g id="edge9_Node000001_Node000009" class="edge">
<title>Node1&#45;&gt;Node9</title>
<g id="a_edge9_Node000001_Node000009"><a xlink:title=" ">
<path fill="none" stroke="#63b8ff" d="M743.16,-120.96C724.1,-109.44 700.45,-95.14 683.34,-84.8"/>
<polygon fill="#63b8ff" stroke="#63b8ff" points="684.94,-81.68 674.57,-79.5 681.32,-87.67 684.94,-81.68"/>
</a>
</g>
</g>
<!-- Node10 -->
<g id="Node000010" class="node">
<title>Node10</title>
<g id="a_Node000010"><a xlink:title=" ">
<polygon fill="#e0e0e0" stroke="#999999" points="823,-79.5 728,-79.5 728,-60.5 823,-60.5 823,-79.5"/>
<text text-anchor="middle" x="775.5" y="-67.5" font-family="Malgun Gothic" font-size="10.00">Engine/Engine.h</text>
</a>
</g>
</g>
<!-- Node1&#45;&gt;Node10 -->
<g id="edge10_Node000001_Node000010" class="edge">
<title>Node1&#45;&gt;Node10</title>
<g id="a_edge10_Node000001_Node000010"><a xlink:title=" ">
<path fill="none" stroke="#63b8ff" d="M775.5,-120.77C775.5,-111.08 775.5,-99.46 775.5,-89.88"/>
<polygon fill="#63b8ff" stroke="#63b8ff" points="779,-89.82 775.5,-79.82 772,-89.82 779,-89.82"/>
</a>
</g>
</g>
<!-- Node11 -->
<g id="Node000011" class="node">
<title>Node11</title>
<g id="a_Node000011"><a xlink:title=" ">
<polygon fill="#e0e0e0" stroke="#999999" points="948,-79.5 841,-79.5 841,-60.5 948,-60.5 948,-79.5"/>
<text text-anchor="middle" x="894.5" y="-67.5" font-family="Malgun Gothic" font-size="10.00">UnrealEdGlobals.h</text>
</a>
</g>
</g>
<!-- Node1&#45;&gt;Node11 -->
<g id="edge11_Node000001_Node000011" class="edge">
<title>Node1&#45;&gt;Node11</title>
<g id="a_edge11_Node000001_Node000011"><a xlink:title=" ">
<path fill="none" stroke="#63b8ff" d="M808.96,-120.96C828.69,-109.44 853.16,-95.14 870.87,-84.8"/>
<polygon fill="#63b8ff" stroke="#63b8ff" points="873.07,-87.57 879.94,-79.5 869.54,-81.52 873.07,-87.57"/>
</a>
</g>
</g>
<!-- Node12 -->
<g id="Node000012" class="node">
<title>Node12</title>
<g id="a_Node000012"><a xlink:title=" ">
<polygon fill="#e0e0e0" stroke="#999999" points="1043,-79.5 966,-79.5 966,-60.5 1043,-60.5 1043,-79.5"/>
<text text-anchor="middle" x="1004.5" y="-67.5" font-family="Malgun Gothic" font-size="10.00">Misc/Paths.h</text>
</a>
</g>
</g>
<!-- Node1&#45;&gt;Node12 -->
<g id="edge12_Node000001_Node000012" class="edge">
<title>Node1&#45;&gt;Node12</title>
<g id="a_edge12_Node000001_Node000012"><a xlink:title=" ">
<path fill="none" stroke="#63b8ff" d="M839.9,-120.96C880.84,-108.53 932.42,-92.88 966.82,-82.44"/>
<polygon fill="#63b8ff" stroke="#63b8ff" points="967.93,-85.76 976.48,-79.5 965.9,-79.06 967.93,-85.76"/>
</a>
</g>
</g>
<!-- Node13 -->
<g id="Node000013" class="node">
<title>Node13</title>
<g id="a_Node000013"><a xlink:title=" ">
<polygon fill="#e0e0e0" stroke="#999999" points="1168,-79.5 1061,-79.5 1061,-60.5 1168,-60.5 1168,-79.5"/>
<text text-anchor="middle" x="1114.5" y="-67.5" font-family="Malgun Gothic" font-size="10.00">HAL/FileManager.h</text>
</a>
</g>
</g>
<!-- Node1&#45;&gt;Node13 -->
<g id="edge13_Node000001_Node000013" class="edge">
<title>Node1&#45;&gt;Node13</title>
<g id="a_edge13_Node000001_Node000013"><a xlink:title=" ">
<path fill="none" stroke="#63b8ff" d="M862.01,-123.73C916.7,-112.99 988.82,-98.57 1052.5,-85 1057.43,-83.95 1062.58,-82.83 1067.71,-81.69"/>
<polygon fill="#63b8ff" stroke="#63b8ff" points="1068.49,-85.11 1077.49,-79.51 1066.96,-78.27 1068.49,-85.11"/>
</a>
</g>
</g>
<!-- Node14 -->
<g id="Node000014" class="node">
<title>Node14</title>
<g id="a_Node000014"><a xlink:title=" ">
<polygon fill="#e0e0e0" stroke="#999999" points="1318.5,-79.5 1186.5,-79.5 1186.5,-60.5 1318.5,-60.5 1318.5,-79.5"/>
<text text-anchor="middle" x="1252.5" y="-67.5" font-family="Malgun Gothic" font-size="10.00">HAL/IConsoleManager.h</text>
</a>
</g>
</g>
<!-- Node1&#45;&gt;Node14 -->
<g id="edge14_Node000001_Node000014" class="edge">
<title>Node1&#45;&gt;Node14</title>
<g id="a_edge14_Node000001_Node000014"><a xlink:title=" ">
<path fill="none" stroke="#63b8ff" d="M862.33,-129.72C943.87,-119.31 1069.19,-102.58 1177.5,-85 1184.26,-83.9 1191.36,-82.68 1198.37,-81.42"/>
<polygon fill="#63b8ff" stroke="#63b8ff" points="1199.33,-84.8 1208.54,-79.57 1198.07,-77.92 1199.33,-84.8"/>
</a>
</g>
</g>
<!-- Node15 -->
<g id="Node000015" class="node">
<title>Node15</title>
<g id="a_Node000015"><a xlink:title=" ">
<polygon fill="#e0e0e0" stroke="#999999" points="1464.5,-79.5 1336.5,-79.5 1336.5,-60.5 1464.5,-60.5 1464.5,-79.5"/>
<text text-anchor="middle" x="1400.5" y="-67.5" font-family="Malgun Gothic" font-size="10.00">HAL/PlatformProcess.h</text>
</a>
</g>
</g>
<!-- Node1&#45;&gt;Node15 -->
<g id="edge15_Node000001_Node000015" class="edge">
<title>Node1&#45;&gt;Node15</title>
<g id="a_edge15_Node000001_Node000015"><a xlink:title=" ">
<path fill="none" stroke="#63b8ff" d="M862.32,-134.18C971.3,-125.7 1163.81,-108.88 1327.5,-85 1334.61,-83.96 1342.08,-82.71 1349.42,-81.4"/>
<polygon fill="#63b8ff" stroke="#63b8ff" points="1350.1,-84.83 1359.3,-79.57 1348.83,-77.95 1350.1,-84.83"/>
</a>
</g>
</g>
<!-- Node16 -->
<g id="Node000016" class="node">
<title>Node16</title>
<g id="a_Node000016"><a xlink:title=" ">
<polygon fill="#e0e0e0" stroke="#999999" points="1590,-79.5 1483,-79.5 1483,-60.5 1590,-60.5 1590,-79.5"/>
<text text-anchor="middle" x="1536.5" y="-67.5" font-family="Malgun Gothic" font-size="10.00">Styling/SlateIcon.h</text>
</a>
</g>
</g>
<!-- Node1&#45;&gt;Node16 -->
<g id="edge17_Node000001_Node000016" class="edge">
<title>Node1&#45;&gt;Node16</title>
<g id="a_edge17_Node000001_Node000016"><a xlink:title=" ">
<path fill="none" stroke="#63b8ff" d="M862.18,-137.49C994.58,-132.02 1254.86,-117.82 1473.5,-85 1479.68,-84.07 1486.16,-82.88 1492.51,-81.59"/>
<polygon fill="#63b8ff" stroke="#63b8ff" points="1493.28,-85.01 1502.33,-79.5 1491.82,-78.16 1493.28,-85.01"/>
</a>
</g>
</g>
<!-- Node3 -->
<g id="Node000003" class="node">
<title>Node3</title>
<g id="a_Node000003"><a xlink:title=" ">
<polygon fill="#e0e0e0" stroke="#999999" points="263.5,-19 175.5,-19 175.5,0 263.5,0 263.5,-19"/>
<text text-anchor="middle" x="219.5" y="-7" font-family="Malgun Gothic" font-size="10.00">CoreMinimal.h</text>
</a>
</g>
</g>
<!-- Node2&#45;&gt;Node3 -->
<g id="edge2_Node000002_Node000003" class="edge">
<title>Node2&#45;&gt;Node3</title>
<g id="a_edge2_Node000002_Node000003"><a xlink:title=" ">
<path fill="none" stroke="#63b8ff" d="M108.4,-60.49C130.16,-50.7 166.12,-34.52 191.21,-23.23"/>
<polygon fill="#63b8ff" stroke="#63b8ff" points="192.89,-26.31 200.57,-19.02 190.02,-19.93 192.89,-26.31"/>
</a>
</g>
</g>
<!-- Node4 -->
<g id="Node000004" class="node">
<title>Node4</title>
<g id="a_Node000004"><a xlink:title=" ">
<polygon fill="#e0e0e0" stroke="#999999" points="144,-19 35,-19 35,0 144,0 144,-19"/>
<text text-anchor="middle" x="89.5" y="-7" font-family="Malgun Gothic" font-size="10.00">Widgets/SWidget.h</text>
</a>
</g>
</g>
<!-- Node2&#45;&gt;Node4 -->
<g id="edge3_Node000002_Node000004" class="edge">
<title>Node2&#45;&gt;Node4</title>
<g id="a_edge3_Node000002_Node000004"><a xlink:title=" ">
<path fill="none" stroke="#63b8ff" d="M89.5,-60.37C89.5,-52.25 89.5,-39.81 89.5,-29.39"/>
<polygon fill="#63b8ff" stroke="#63b8ff" points="93,-29.17 89.5,-19.17 86,-29.17 93,-29.17"/>
</a>
</g>
</g>
<!-- Node5&#45;&gt;Node3 -->
<g id="edge5_Node000005_Node000003" class="edge">
<title>Node5&#45;&gt;Node3</title>
<g id="a_edge5_Node000005_Node000003"><a xlink:title=" ">
<path fill="none" stroke="#63b8ff" d="M252.75,-60.37C247.04,-51.81 238.15,-38.47 230.99,-27.74"/>
<polygon fill="#63b8ff" stroke="#63b8ff" points="233.74,-25.55 225.28,-19.17 227.91,-29.43 233.74,-25.55"/>
</a>
</g>
</g>
<!-- Node5&#45;&gt;Node6 -->
<g id="edge6_Node000005_Node000006" class="edge">
<title>Node5&#45;&gt;Node6</title>
<g id="a_edge6_Node000005_Node000006"><a xlink:title=" ">
<path fill="none" stroke="#63b8ff" d="M270.75,-60.37C283.86,-51.12 304.92,-36.28 320.65,-25.19"/>
<polygon fill="#63b8ff" stroke="#63b8ff" points="323.05,-27.79 329.2,-19.17 319.01,-22.07 323.05,-27.79"/>
</a>
</g>
</g>
</g>
</svg>
