<?xml version="1.0" encoding="UTF-8" standalone="no"?>
<!DOCTYPE svg PUBLIC "-//W3C//DTD SVG 1.1//EN"
 "http://www.w3.org/Graphics/SVG/1.1/DTD/svg11.dtd">
<!-- Generated by graphviz version 2.43.0 (0)
 -->
<!-- Title: Source/CoffeeToolbar/Private/Screenshot/FScreenshotFeature.cpp Pages: 1 -->
<svg width="1348pt" height="170pt"
 viewBox="0.00 0.00 1347.50 170.00" xmlns="http://www.w3.org/2000/svg" xmlns:xlink="http://www.w3.org/1999/xlink">
<g id="graph0" class="graph" transform="scale(1 1) rotate(0) translate(4 166)">
<title>Source/CoffeeToolbar/Private/Screenshot/FScreenshotFeature.cpp</title>
<!-- Node1 -->
<g id="Node000001" class="node">
<title>Node1</title>
<g id="a_Node000001"><a xlink:title="Coffee Toolbar의 스크린샷 캡처 헬퍼 기능을 구현합니다.">
<polygon fill="#999999" stroke="#666666" points="747,-162 574,-162 574,-121 747,-121 747,-162"/>
<text text-anchor="start" x="582" y="-150" font-family="Malgun Gothic" font-size="10.00">Source/CoffeeToolbar</text>
<text text-anchor="start" x="582" y="-139" font-family="Malgun Gothic" font-size="10.00">/Private/Screenshot/FScreenshot</text>
<text text-anchor="middle" x="660.5" y="-128" font-family="Malgun Gothic" font-size="10.00">Feature.cpp</text>
</a>
</g>
</g>
<!-- Node2 -->
<g id="Node000002" class="node">
<title>Node2</title>
<g id="a_Node000002"><a xlink:href="FScreenshotFeature_8h.html" target="_top" xlink:title="툴바의 스크린샷 워크플로우 버튼을 위한 헬퍼를 선언합니다.">
<polygon fill="white" stroke="#666666" points="179,-79.5 0,-79.5 0,-60.5 179,-60.5 179,-79.5"/>
<text text-anchor="middle" x="89.5" y="-67.5" font-family="Malgun Gothic" font-size="10.00">Screenshot/FScreenshotFeature.h</text>
</a>
</g>
</g>
<!-- Node1&#45;&gt;Node2 -->
<g id="edge1_Node000001_Node000002" class="edge">
<title>Node1&#45;&gt;Node2</title>
<g id="a_edge1_Node000001_Node000002"><a xlink:title=" ">
<path fill="none" stroke="#63b8ff" d="M573.68,-130.97C478.74,-120.4 322.17,-102.52 187.5,-85 177.79,-83.74 167.54,-82.34 157.48,-80.94"/>
<polygon fill="#63b8ff" stroke="#63b8ff" points="157.9,-77.46 147.51,-79.53 156.92,-84.39 157.9,-77.46"/>
</a>
</g>
</g>
<!-- Node5 -->
<g id="Node000005" class="node">
<title>Node5</title>
<g id="a_Node000005"><a xlink:href="FCommon_8h.html" target="_top" xlink:title="Coffee Toolbar 플러그인을 위한 공용 유틸리티 헬퍼를 선언합니다.">
<polygon fill="white" stroke="#666666" points="320,-79.5 197,-79.5 197,-60.5 320,-60.5 320,-79.5"/>
<text text-anchor="middle" x="258.5" y="-67.5" font-family="Malgun Gothic" font-size="10.00">Common/FCommon.h</text>
</a>
</g>
</g>
<!-- Node1&#45;&gt;Node5 -->
<g id="edge4_Node000001_Node000005" class="edge">
<title>Node1&#45;&gt;Node5</title>
<g id="a_edge4_Node000001_Node000005"><a xlink:title=" ">
<path fill="none" stroke="#63b8ff" d="M573.96,-126.09C508.23,-115.07 415.62,-99.38 334.5,-85 327.93,-83.84 321.05,-82.6 314.22,-81.35"/>
<polygon fill="#63b8ff" stroke="#63b8ff" points="314.76,-77.9 304.3,-79.54 313.5,-84.78 314.76,-77.9"/>
</a>
</g>
</g>
<!-- Node6 -->
<g id="Node000006" class="node">
<title>Node6</title>
<g id="a_Node000006"><a xlink:title=" ">
<polygon fill="#e0e0e0" stroke="#999999" points="394.5,-19 288.5,-19 288.5,0 394.5,0 394.5,-19"/>
<text text-anchor="middle" x="341.5" y="-7" font-family="Malgun Gothic" font-size="10.00">Styling/AppStyle.h</text>
</a>
</g>
</g>
<!-- Node1&#45;&gt;Node6 -->
<g id="edge15_Node000001_Node000006" class="edge">
<title>Node1&#45;&gt;Node6</title>
<g id="a_edge15_Node000001_Node000006"><a xlink:title=" ">
<path fill="none" stroke="#63b8ff" d="M573.86,-133.63C498.9,-126.01 397.9,-111.19 367.5,-85 351.39,-71.12 345.26,-46.69 342.93,-29.61"/>
<polygon fill="#63b8ff" stroke="#63b8ff" points="346.36,-28.75 341.84,-19.17 339.39,-29.47 346.36,-28.75"/>
</a>
</g>
</g>
<!-- Node7 -->
<g id="Node000007" class="node">
<title>Node7</title>
<g id="a_Node000007"><a xlink:title=" ">
<polygon fill="#e0e0e0" stroke="#999999" points="494.5,-85 376.5,-85 376.5,-55 494.5,-55 494.5,-85"/>
<text text-anchor="start" x="384.5" y="-73" font-family="Malgun Gothic" font-size="10.00">Framework/MultiBox</text>
<text text-anchor="middle" x="435.5" y="-62" font-family="Malgun Gothic" font-size="10.00">/MultiBoxBuilder.h</text>
</a>
</g>
</g>
<!-- Node1&#45;&gt;Node7 -->
<g id="edge7_Node000001_Node000007" class="edge">
<title>Node1&#45;&gt;Node7</title>
<g id="a_edge7_Node000001_Node000007"><a xlink:title=" ">
<path fill="none" stroke="#63b8ff" d="M597.23,-120.96C563.65,-110.59 522.8,-97.97 490.55,-88"/>
<polygon fill="#63b8ff" stroke="#63b8ff" points="491.42,-84.61 480.84,-85 489.36,-91.3 491.42,-84.61"/>
</a>
</g>
</g>
<!-- Node8 -->
<g id="Node000008" class="node">
<title>Node8</title>
<g id="a_Node000008"><a xlink:title=" ">
<polygon fill="#e0e0e0" stroke="#999999" points="592.5,-79.5 512.5,-79.5 512.5,-60.5 592.5,-60.5 592.5,-79.5"/>
<text text-anchor="middle" x="552.5" y="-67.5" font-family="Malgun Gothic" font-size="10.00">LevelEditor.h</text>
</a>
</g>
</g>
<!-- Node1&#45;&gt;Node8 -->
<g id="edge8_Node000001_Node000008" class="edge">
<title>Node1&#45;&gt;Node8</title>
<g id="a_edge8_Node000001_Node000008"><a xlink:title=" ">
<path fill="none" stroke="#63b8ff" d="M630.13,-120.96C612.4,-109.54 590.43,-95.41 574.39,-85.09"/>
<polygon fill="#63b8ff" stroke="#63b8ff" points="576.02,-81.97 565.71,-79.5 572.23,-87.86 576.02,-81.97"/>
</a>
</g>
</g>
<!-- Node9 -->
<g id="Node000009" class="node">
<title>Node9</title>
<g id="a_Node000009"><a xlink:title=" ">
<polygon fill="#e0e0e0" stroke="#999999" points="710,-79.5 611,-79.5 611,-60.5 710,-60.5 710,-79.5"/>
<text text-anchor="middle" x="660.5" y="-67.5" font-family="Malgun Gothic" font-size="10.00">IAssetViewport.h</text>
</a>
</g>
</g>
<!-- Node1&#45;&gt;Node9 -->
<g id="edge9_Node000001_Node000009" class="edge">
<title>Node1&#45;&gt;Node9</title>
<g id="a_edge9_Node000001_Node000009"><a xlink:title=" ">
<path fill="none" stroke="#63b8ff" d="M660.5,-120.77C660.5,-111.08 660.5,-99.46 660.5,-89.88"/>
<polygon fill="#63b8ff" stroke="#63b8ff" points="664,-89.82 660.5,-79.82 657,-89.82 664,-89.82"/>
</a>
</g>
</g>
<!-- Node10 -->
<g id="Node000010" class="node">
<title>Node10</title>
<g id="a_Node000010"><a xlink:title=" ">
<polygon fill="#e0e0e0" stroke="#999999" points="823,-79.5 728,-79.5 728,-60.5 823,-60.5 823,-79.5"/>
<text text-anchor="middle" x="775.5" y="-67.5" font-family="Malgun Gothic" font-size="10.00">Engine/Engine.h</text>
</a>
</g>
</g>
<!-- Node1&#45;&gt;Node10 -->
<g id="edge10_Node000001_Node000010" class="edge">
<title>Node1&#45;&gt;Node10</title>
<g id="a_edge10_Node000001_Node000010"><a xlink:title=" ">
<path fill="none" stroke="#63b8ff" d="M692.84,-120.96C711.9,-109.44 735.55,-95.14 752.66,-84.8"/>
<polygon fill="#63b8ff" stroke="#63b8ff" points="754.68,-87.67 761.43,-79.5 751.06,-81.68 754.68,-87.67"/>
</a>
</g>
</g>
<!-- Node11 -->
<g id="Node000011" class="node">
<title>Node11</title>
<g id="a_Node000011"><a xlink:title=" ">
<polygon fill="#e0e0e0" stroke="#999999" points="918,-79.5 841,-79.5 841,-60.5 918,-60.5 918,-79.5"/>
<text text-anchor="middle" x="879.5" y="-67.5" font-family="Malgun Gothic" font-size="10.00">Misc/Paths.h</text>
</a>
</g>
</g>
<!-- Node1&#45;&gt;Node11 -->
<g id="edge11_Node000001_Node000011" class="edge">
<title>Node1&#45;&gt;Node11</title>
<g id="a_edge11_Node000001_Node000011"><a xlink:title=" ">
<path fill="none" stroke="#63b8ff" d="M722.09,-120.96C761.07,-108.58 810.14,-93.01 843.04,-82.57"/>
<polygon fill="#63b8ff" stroke="#63b8ff" points="844.23,-85.86 852.7,-79.5 842.11,-79.19 844.23,-85.86"/>
</a>
</g>
</g>
<!-- Node12 -->
<g id="Node000012" class="node">
<title>Node12</title>
<g id="a_Node000012"><a xlink:title=" ">
<polygon fill="#e0e0e0" stroke="#999999" points="1043,-79.5 936,-79.5 936,-60.5 1043,-60.5 1043,-79.5"/>
<text text-anchor="middle" x="989.5" y="-67.5" font-family="Malgun Gothic" font-size="10.00">HAL/FileManager.h</text>
</a>
</g>
</g>
<!-- Node1&#45;&gt;Node12 -->
<g id="edge12_Node000001_Node000012" class="edge">
<title>Node1&#45;&gt;Node12</title>
<g id="a_edge12_Node000001_Node000012"><a xlink:title=" ">
<path fill="none" stroke="#63b8ff" d="M747.16,-122.88C799.44,-112.15 867.35,-98.04 927.5,-85 932.24,-83.97 937.18,-82.89 942.11,-81.79"/>
<polygon fill="#63b8ff" stroke="#63b8ff" points="943.15,-85.14 952.15,-79.54 941.62,-78.31 943.15,-85.14"/>
</a>
</g>
</g>
<!-- Node13 -->
<g id="Node000013" class="node">
<title>Node13</title>
<g id="a_Node000013"><a xlink:title=" ">
<polygon fill="#e0e0e0" stroke="#999999" points="1193.5,-79.5 1061.5,-79.5 1061.5,-60.5 1193.5,-60.5 1193.5,-79.5"/>
<text text-anchor="middle" x="1127.5" y="-67.5" font-family="Malgun Gothic" font-size="10.00">HAL/IConsoleManager.h</text>
</a>
</g>
</g>
<!-- Node1&#45;&gt;Node13 -->
<g id="edge13_Node000001_Node000013" class="edge">
<title>Node1&#45;&gt;Node13</title>
<g id="a_edge13_Node000001_Node000013"><a xlink:title=" ">
<path fill="none" stroke="#63b8ff" d="M747.08,-129.35C826.62,-118.85 947.71,-102.19 1052.5,-85 1059.26,-83.89 1066.35,-82.66 1073.37,-81.4"/>
<polygon fill="#63b8ff" stroke="#63b8ff" points="1074.33,-84.78 1083.54,-79.54 1073.07,-77.89 1074.33,-84.78"/>
</a>
</g>
</g>
<!-- Node14 -->
<g id="Node000014" class="node">
<title>Node14</title>
<g id="a_Node000014"><a xlink:title=" ">
<polygon fill="#e0e0e0" stroke="#999999" points="1339.5,-79.5 1211.5,-79.5 1211.5,-60.5 1339.5,-60.5 1339.5,-79.5"/>
<text text-anchor="middle" x="1275.5" y="-67.5" font-family="Malgun Gothic" font-size="10.00">HAL/PlatformProcess.h</text>
</a>
</g>
</g>
<!-- Node1&#45;&gt;Node14 -->
<g id="edge14_Node000001_Node000014" class="edge">
<title>Node1&#45;&gt;Node14</title>
<g id="a_edge14_Node000001_Node000014"><a xlink:title=" ">
<path fill="none" stroke="#63b8ff" d="M747.15,-133.98C854.4,-125.36 1042.47,-108.49 1202.5,-85 1209.61,-83.96 1217.08,-82.7 1224.42,-81.38"/>
<polygon fill="#63b8ff" stroke="#63b8ff" points="1225.1,-84.82 1234.3,-79.55 1223.83,-77.93 1225.1,-84.82"/>
</a>
</g>
</g>
<!-- Node3 -->
<g id="Node000003" class="node">
<title>Node3</title>
<g id="a_Node000003"><a xlink:title=" ">
<polygon fill="#e0e0e0" stroke="#999999" points="263.5,-19 175.5,-19 175.5,0 263.5,0 263.5,-19"/>
<text text-anchor="middle" x="219.5" y="-7" font-family="Malgun Gothic" font-size="10.00">CoreMinimal.h</text>
</a>
</g>
</g>
<!-- Node2&#45;&gt;Node3 -->
<g id="edge2_Node000002_Node000003" class="edge">
<title>Node2&#45;&gt;Node3</title>
<g id="a_edge2_Node000002_Node000003"><a xlink:title=" ">
<path fill="none" stroke="#63b8ff" d="M108.4,-60.49C130.16,-50.7 166.12,-34.52 191.21,-23.23"/>
<polygon fill="#63b8ff" stroke="#63b8ff" points="192.89,-26.31 200.57,-19.02 190.02,-19.93 192.89,-26.31"/>
</a>
</g>
</g>
<!-- Node4 -->
<g id="Node000004" class="node">
<title>Node4</title>
<g id="a_Node000004"><a xlink:title=" ">
<polygon fill="#e0e0e0" stroke="#999999" points="144,-19 35,-19 35,0 144,0 144,-19"/>
<text text-anchor="middle" x="89.5" y="-7" font-family="Malgun Gothic" font-size="10.00">Widgets/SWidget.h</text>
</a>
</g>
</g>
<!-- Node2&#45;&gt;Node4 -->
<g id="edge3_Node000002_Node000004" class="edge">
<title>Node2&#45;&gt;Node4</title>
<g id="a_edge3_Node000002_Node000004"><a xlink:title=" ">
<path fill="none" stroke="#63b8ff" d="M89.5,-60.37C89.5,-52.25 89.5,-39.81 89.5,-29.39"/>
<polygon fill="#63b8ff" stroke="#63b8ff" points="93,-29.17 89.5,-19.17 86,-29.17 93,-29.17"/>
</a>
</g>
</g>
<!-- Node5&#45;&gt;Node3 -->
<g id="edge5_Node000005_Node000003" class="edge">
<title>Node5&#45;&gt;Node3</title>
<g id="a_edge5_Node000005_Node000003"><a xlink:title=" ">
<path fill="none" stroke="#63b8ff" d="M252.75,-60.37C247.04,-51.81 238.15,-38.47 230.99,-27.74"/>
<polygon fill="#63b8ff" stroke="#63b8ff" points="233.74,-25.55 225.28,-19.17 227.91,-29.43 233.74,-25.55"/>
</a>
</g>
</g>
<!-- Node5&#45;&gt;Node6 -->
<g id="edge6_Node000005_Node000006" class="edge">
<title>Node5&#45;&gt;Node6</title>
<g id="a_edge6_Node000005_Node000006"><a xlink:title=" ">
<path fill="none" stroke="#63b8ff" d="M270.75,-60.37C283.86,-51.12 304.92,-36.28 320.65,-25.19"/>
<polygon fill="#63b8ff" stroke="#63b8ff" points="323.05,-27.79 329.2,-19.17 319.01,-22.07 323.05,-27.79"/>
</a>
</g>
</g>
</g>
</svg>
