<?xml version="1.0" encoding="UTF-8" standalone="no"?>
<!DOCTYPE svg PUBLIC "-//W3C//DTD SVG 1.1//EN"
 "http://www.w3.org/Graphics/SVG/1.1/DTD/svg11.dtd">
<!-- Generated by graphviz version 2.43.0 (0)
 -->
<!-- Title: Source/CoffeeToolbar/Private/Screenshot/FScreenshotFeature.cpp Pages: 1 -->
<svg width="1149pt" height="159pt"
 viewBox="0.00 0.00 1148.50 159.00" xmlns="http://www.w3.org/2000/svg" xmlns:xlink="http://www.w3.org/1999/xlink">
<g id="graph0" class="graph" transform="scale(1 1) rotate(0) translate(4 155)">
<title>Source/CoffeeToolbar/Private/Screenshot/FScreenshotFeature.cpp</title>
<!-- Node1 -->
<g id="Node000001" class="node">
<title>Node1</title>
<g id="a_Node000001"><a xlink:title="Coffee Toolbar의 스크린샷 캡처 헬퍼 기능을 구현합니다.">
<polygon fill="#999999" stroke="#666666" points="688,-151 515,-151 515,-110 688,-110 688,-151"/>
<text text-anchor="start" x="523" y="-139" font-family="Malgun Gothic" font-size="10.00">Source/CoffeeToolbar</text>
<text text-anchor="start" x="523" y="-128" font-family="Malgun Gothic" font-size="10.00">/Private/Screenshot/FScreenshot</text>
<text text-anchor="middle" x="601.5" y="-117" font-family="Malgun Gothic" font-size="10.00">Feature.cpp</text>
</a>
</g>
</g>
<!-- Node2 -->
<g id="Node000002" class="node">
<title>Node2</title>
<g id="a_Node000002"><a xlink:href="FScreenshotFeature_8h.html" target="_top" xlink:title="툴바의 스크린샷 워크플로우 버튼을 위한 헬퍼를 선언합니다.">
<polygon fill="white" stroke="#666666" points="179,-74 0,-74 0,-55 179,-55 179,-74"/>
<text text-anchor="middle" x="89.5" y="-62" font-family="Malgun Gothic" font-size="10.00">Screenshot/FScreenshotFeature.h</text>
</a>
</g>
</g>
<!-- Node1&#45;&gt;Node2 -->
<g id="edge1_Node000001_Node000002" class="edge">
<title>Node1&#45;&gt;Node2</title>
<g id="a_edge1_Node000001_Node000002"><a xlink:title=" ">
<path fill="none" stroke="#63b8ff" d="M514.94,-118.68C417.68,-106.52 261.21,-86.96 167.57,-75.26"/>
<polygon fill="#63b8ff" stroke="#63b8ff" points="167.95,-71.78 157.59,-74.01 167.08,-78.72 167.95,-71.78"/>
</a>
</g>
</g>
<!-- Node5 -->
<g id="Node000005" class="node">
<title>Node5</title>
<g id="a_Node000005"><a xlink:href="FCommon_8h.html" target="_top" xlink:title="Coffee Toolbar 플러그인을 위한 공용 유틸리티 헬퍼를 선언합니다.">
<polygon fill="white" stroke="#666666" points="320,-74 197,-74 197,-55 320,-55 320,-74"/>
<text text-anchor="middle" x="258.5" y="-62" font-family="Malgun Gothic" font-size="10.00">Common/FCommon.h</text>
</a>
</g>
</g>
<!-- Node1&#45;&gt;Node5 -->
<g id="edge4_Node000001_Node000005" class="edge">
<title>Node1&#45;&gt;Node5</title>
<g id="a_edge4_Node000001_Node000005"><a xlink:title=" ">
<path fill="none" stroke="#63b8ff" d="M514.95,-113.35C452.12,-101.63 368.93,-86.11 314.59,-75.97"/>
<polygon fill="#63b8ff" stroke="#63b8ff" points="314.93,-72.47 304.46,-74.08 313.65,-79.35 314.93,-72.47"/>
</a>
</g>
</g>
<!-- Node7 -->
<g id="Node000007" class="node">
<title>Node7</title>
<g id="a_Node000007"><a xlink:title=" ">
<polygon fill="#e0e0e0" stroke="#999999" points="418.5,-74 338.5,-74 338.5,-55 418.5,-55 418.5,-74"/>
<text text-anchor="middle" x="378.5" y="-62" font-family="Malgun Gothic" font-size="10.00">LevelEditor.h</text>
</a>
</g>
</g>
<!-- Node1&#45;&gt;Node7 -->
<g id="edge7_Node000001_Node000007" class="edge">
<title>Node1&#45;&gt;Node7</title>
<g id="a_edge7_Node000001_Node000007"><a xlink:title=" ">
<path fill="none" stroke="#63b8ff" d="M533.38,-109.95C495.59,-99.1 449.91,-86 418,-76.84"/>
<polygon fill="#63b8ff" stroke="#63b8ff" points="418.72,-73.4 408.15,-74.01 416.79,-80.13 418.72,-73.4"/>
</a>
</g>
</g>
<!-- Node8 -->
<g id="Node000008" class="node">
<title>Node8</title>
<g id="a_Node000008"><a xlink:title=" ">
<polygon fill="#e0e0e0" stroke="#999999" points="536,-74 437,-74 437,-55 536,-55 536,-74"/>
<text text-anchor="middle" x="486.5" y="-62" font-family="Malgun Gothic" font-size="10.00">IAssetViewport.h</text>
</a>
</g>
</g>
<!-- Node1&#45;&gt;Node8 -->
<g id="edge8_Node000001_Node000008" class="edge">
<title>Node1&#45;&gt;Node8</title>
<g id="a_edge8_Node000001_Node000008"><a xlink:title=" ">
<path fill="none" stroke="#63b8ff" d="M566.37,-109.95C548.37,-99.93 526.9,-87.99 510.76,-79"/>
<polygon fill="#63b8ff" stroke="#63b8ff" points="512.38,-75.9 501.94,-74.09 508.97,-82.01 512.38,-75.9"/>
</a>
</g>
</g>
<!-- Node9 -->
<g id="Node000009" class="node">
<title>Node9</title>
<g id="a_Node000009"><a xlink:title=" ">
<polygon fill="#e0e0e0" stroke="#999999" points="649,-74 554,-74 554,-55 649,-55 649,-74"/>
<text text-anchor="middle" x="601.5" y="-62" font-family="Malgun Gothic" font-size="10.00">Engine/Engine.h</text>
</a>
</g>
</g>
<!-- Node1&#45;&gt;Node9 -->
<g id="edge9_Node000001_Node000009" class="edge">
<title>Node1&#45;&gt;Node9</title>
<g id="a_edge9_Node000001_Node000009"><a xlink:title=" ">
<path fill="none" stroke="#63b8ff" d="M601.5,-109.95C601.5,-101.85 601.5,-92.5 601.5,-84.47"/>
<polygon fill="#63b8ff" stroke="#63b8ff" points="605,-84.26 601.5,-74.26 598,-84.26 605,-84.26"/>
</a>
</g>
</g>
<!-- Node10 -->
<g id="Node000010" class="node">
<title>Node10</title>
<g id="a_Node000010"><a xlink:title=" ">
<polygon fill="#e0e0e0" stroke="#999999" points="774,-74 667,-74 667,-55 774,-55 774,-74"/>
<text text-anchor="middle" x="720.5" y="-62" font-family="Malgun Gothic" font-size="10.00">UnrealEdGlobals.h</text>
</a>
</g>
</g>
<!-- Node1&#45;&gt;Node10 -->
<g id="edge10_Node000001_Node000010" class="edge">
<title>Node1&#45;&gt;Node10</title>
<g id="a_edge10_Node000001_Node000010"><a xlink:title=" ">
<path fill="none" stroke="#63b8ff" d="M637.85,-109.95C656.48,-99.93 678.69,-87.99 695.39,-79"/>
<polygon fill="#63b8ff" stroke="#63b8ff" points="697.38,-81.91 704.52,-74.09 694.06,-75.75 697.38,-81.91"/>
</a>
</g>
</g>
<!-- Node11 -->
<g id="Node000011" class="node">
<title>Node11</title>
<g id="a_Node000011"><a xlink:title=" ">
<polygon fill="#e0e0e0" stroke="#999999" points="869,-74 792,-74 792,-55 869,-55 869,-74"/>
<text text-anchor="middle" x="830.5" y="-62" font-family="Malgun Gothic" font-size="10.00">Misc/Paths.h</text>
</a>
</g>
</g>
<!-- Node1&#45;&gt;Node11 -->
<g id="edge11_Node000001_Node000011" class="edge">
<title>Node1&#45;&gt;Node11</title>
<g id="a_edge11_Node000001_Node000011"><a xlink:title=" ">
<path fill="none" stroke="#63b8ff" d="M671.45,-109.95C710.43,-99.06 757.57,-85.88 790.36,-76.72"/>
<polygon fill="#63b8ff" stroke="#63b8ff" points="791.37,-80.07 800.06,-74.01 789.48,-73.33 791.37,-80.07"/>
</a>
</g>
</g>
<!-- Node12 -->
<g id="Node000012" class="node">
<title>Node12</title>
<g id="a_Node000012"><a xlink:title=" ">
<polygon fill="#e0e0e0" stroke="#999999" points="994,-74 887,-74 887,-55 994,-55 994,-74"/>
<text text-anchor="middle" x="940.5" y="-62" font-family="Malgun Gothic" font-size="10.00">HAL/FileManager.h</text>
</a>
</g>
</g>
<!-- Node1&#45;&gt;Node12 -->
<g id="edge12_Node000001_Node000012" class="edge">
<title>Node1&#45;&gt;Node12</title>
<g id="a_edge12_Node000001_Node000012"><a xlink:title=" ">
<path fill="none" stroke="#63b8ff" d="M688.36,-113.1C750.47,-101.38 832.17,-85.95 885.49,-75.88"/>
<polygon fill="#63b8ff" stroke="#63b8ff" points="886.26,-79.3 895.44,-74.01 884.96,-72.42 886.26,-79.3"/>
</a>
</g>
</g>
<!-- Node13 -->
<g id="Node000013" class="node">
<title>Node13</title>
<g id="a_Node000013"><a xlink:title=" ">
<polygon fill="#e0e0e0" stroke="#999999" points="1140.5,-74 1012.5,-74 1012.5,-55 1140.5,-55 1140.5,-74"/>
<text text-anchor="middle" x="1076.5" y="-62" font-family="Malgun Gothic" font-size="10.00">HAL/PlatformProcess.h</text>
</a>
</g>
</g>
<!-- Node1&#45;&gt;Node13 -->
<g id="edge13_Node000001_Node000013" class="edge">
<title>Node1&#45;&gt;Node13</title>
<g id="a_edge13_Node000001_Node000013"><a xlink:title=" ">
<path fill="none" stroke="#63b8ff" d="M688.07,-117.84C778.33,-105.68 918.23,-86.82 1003.21,-75.37"/>
<polygon fill="#63b8ff" stroke="#63b8ff" points="1003.85,-78.82 1013.29,-74.02 1002.91,-71.88 1003.85,-78.82"/>
</a>
</g>
</g>
<!-- Node3 -->
<g id="Node000003" class="node">
<title>Node3</title>
<g id="a_Node000003"><a xlink:title=" ">
<polygon fill="#e0e0e0" stroke="#999999" points="219.5,-19 131.5,-19 131.5,0 219.5,0 219.5,-19"/>
<text text-anchor="middle" x="175.5" y="-7" font-family="Malgun Gothic" font-size="10.00">CoreMinimal.h</text>
</a>
</g>
</g>
<!-- Node2&#45;&gt;Node3 -->
<g id="edge2_Node000002_Node000003" class="edge">
<title>Node2&#45;&gt;Node3</title>
<g id="a_edge2_Node000002_Node000003"><a xlink:title=" ">
<path fill="none" stroke="#63b8ff" d="M103.32,-54.98C116.65,-46.77 137.08,-34.18 152.81,-24.49"/>
<polygon fill="#63b8ff" stroke="#63b8ff" points="154.75,-27.4 161.43,-19.17 151.08,-21.44 154.75,-27.4"/>
</a>
</g>
</g>
<!-- Node4 -->
<g id="Node000004" class="node">
<title>Node4</title>
<g id="a_Node000004"><a xlink:title=" ">
<polygon fill="#e0e0e0" stroke="#999999" points="113,-19 4,-19 4,0 113,0 113,-19"/>
<text text-anchor="middle" x="58.5" y="-7" font-family="Malgun Gothic" font-size="10.00">Widgets/SWidget.h</text>
</a>
</g>
</g>
<!-- Node2&#45;&gt;Node4 -->
<g id="edge3_Node000002_Node000004" class="edge">
<title>Node2&#45;&gt;Node4</title>
<g id="a_edge3_Node000002_Node000004"><a xlink:title=" ">
<path fill="none" stroke="#63b8ff" d="M84.38,-54.75C80.14,-47.49 73.97,-36.95 68.72,-27.98"/>
<polygon fill="#63b8ff" stroke="#63b8ff" points="71.59,-25.95 63.52,-19.09 65.55,-29.49 71.59,-25.95"/>
</a>
</g>
</g>
<!-- Node5&#45;&gt;Node3 -->
<g id="edge5_Node000005_Node000003" class="edge">
<title>Node5&#45;&gt;Node3</title>
<g id="a_edge5_Node000005_Node000003"><a xlink:title=" ">
<path fill="none" stroke="#63b8ff" d="M245.16,-54.98C232.41,-46.84 212.95,-34.41 197.83,-24.76"/>
<polygon fill="#63b8ff" stroke="#63b8ff" points="199.39,-21.6 189.08,-19.17 195.62,-27.5 199.39,-21.6"/>
</a>
</g>
</g>
<!-- Node6 -->
<g id="Node000006" class="node">
<title>Node6</title>
<g id="a_Node000006"><a xlink:title=" ">
<polygon fill="#e0e0e0" stroke="#999999" points="343.5,-19 237.5,-19 237.5,0 343.5,0 343.5,-19"/>
<text text-anchor="middle" x="290.5" y="-7" font-family="Malgun Gothic" font-size="10.00">Styling/AppStyle.h</text>
</a>
</g>
</g>
<!-- Node5&#45;&gt;Node6 -->
<g id="edge6_Node000005_Node000006" class="edge">
<title>Node5&#45;&gt;Node6</title>
<g id="a_edge6_Node000005_Node000006"><a xlink:title=" ">
<path fill="none" stroke="#63b8ff" d="M263.78,-54.75C268.21,-47.42 274.66,-36.73 280.12,-27.7"/>
<polygon fill="#63b8ff" stroke="#63b8ff" points="283.14,-29.46 285.31,-19.09 277.15,-25.84 283.14,-29.46"/>
</a>
</g>
</g>
</g>
</svg>
