<?xml version="1.0" encoding="UTF-8" standalone="no"?>
<!DOCTYPE svg PUBLIC "-//W3C//DTD SVG 1.1//EN"
 "http://www.w3.org/Graphics/SVG/1.1/DTD/svg11.dtd">
<!-- Generated by graphviz version 2.43.0 (0)
 -->
<!-- Title: Source/CoffeeToolbar/Public/Screenshot/FScreenshotFeature.h Pages: 1 -->
<svg width="335pt" height="192pt"
 viewBox="0.00 0.00 334.77 192.00" xmlns="http://www.w3.org/2000/svg" xmlns:xlink="http://www.w3.org/1999/xlink">

<svg id="main" version="1.1" xmlns="http://www.w3.org/2000/svg" xmlns:xlink="http://www.w3.org/1999/xlink" xml:space="preserve" onload="init(evt)">
<style type="text/css"><![CDATA[
.node, .edge {opacity: 0.7;}
.node.selected, .edge.selected {opacity: 1;}
.edge:hover path { stroke: red; }
.edge:hover polygon { stroke: red; fill: red; }
]]></style>
<script type="application/ecmascript" xlink:href="svg.min.js"/>
<svg id="graph" class="graph">
<g id="graph0" class="graph" transform="scale(1 1) rotate(0) translate(4 188)">
<title>Source/CoffeeToolbar/Public/Screenshot/FScreenshotFeature.h</title>
<!-- Node1 -->
<g id="Node000001" class="node">
<title>Node1</title>
<g id="a_Node000001"><a xlink:title="툴바의 스크린샷 워크플로우 버튼을 위한 헬퍼를 선언합니다.">
<polygon fill="#999999" stroke="#666666" points="187.27,-184 19.27,-184 19.27,-143 187.27,-143 187.27,-184"/>
<text text-anchor="start" x="27.27" y="-172" font-family="Malgun Gothic" font-size="10.00">Source/CoffeeToolbar</text>
<text text-anchor="start" x="27.27" y="-161" font-family="Malgun Gothic" font-size="10.00">/Public/Screenshot/FScreenshot</text>
<text text-anchor="middle" x="103.27" y="-150" font-family="Malgun Gothic" font-size="10.00">Feature.h</text>
</a>
</g>
</g>
<!-- Node2 -->
<g id="Node000002" class="node">
<title>Node2</title>
<g id="a_Node000002"><a xlink:href="FToolbar_8cpp.html" target="_top" xlink:title="Coffee Toolbar 모듈의 라이프사이클과 메뉴 등록 로직을 구현합니다.">
<polygon fill="white" stroke="#666666" points="186.77,-30 67.77,-30 67.77,0 186.77,0 186.77,-30"/>
<text text-anchor="start" x="75.77" y="-18" font-family="Malgun Gothic" font-size="10.00">Source/CoffeeToolbar</text>
<text text-anchor="middle" x="127.27" y="-7" font-family="Malgun Gothic" font-size="10.00">/Private/FToolbar.cpp</text>
</a>
</g>
</g>
<!-- Node1&#45;&gt;Node2 -->
<g id="edge1_Node000001_Node000002" class="edge">
<title>Node1&#45;&gt;Node2</title>
<g id="a_edge1_Node000001_Node000002"><a xlink:title=" ">
<path fill="none" stroke="#63b8ff" d="M38.86,-137.81C26.25,-129.92 14.66,-119.8 7.27,-107 -1.84,-91.22 -2.84,-81.16 7.27,-66 20.91,-45.53 44.69,-33.43 67.51,-26.28"/>
<polygon fill="#63b8ff" stroke="#63b8ff" points="37.3,-140.95 47.71,-142.92 40.8,-134.89 37.3,-140.95"/>
</a>
</g>
</g>
<!-- Node3 -->
<g id="Node000003" class="node">
<title>Node3</title>
<g id="a_Node000003"><a xlink:href="FScreenshotFeature_8cpp.html" target="_top" xlink:title="Coffee Toolbar의 스크린샷 캡처 헬퍼 기능을 구현합니다.">
<polygon fill="white" stroke="#666666" points="189.77,-107 16.77,-107 16.77,-66 189.77,-66 189.77,-107"/>
<text text-anchor="start" x="24.77" y="-95" font-family="Malgun Gothic" font-size="10.00">Source/CoffeeToolbar</text>
<text text-anchor="start" x="24.77" y="-84" font-family="Malgun Gothic" font-size="10.00">/Private/Screenshot/FScreenshot</text>
<text text-anchor="middle" x="103.27" y="-73" font-family="Malgun Gothic" font-size="10.00">Feature.cpp</text>
</a>
</g>
</g>
<!-- Node1&#45;&gt;Node3 -->
<g id="edge2_Node000001_Node000003" class="edge">
<title>Node1&#45;&gt;Node3</title>
<g id="a_edge2_Node000001_Node000003"><a xlink:title=" ">
<path fill="none" stroke="#63b8ff" d="M103.27,-132.69C103.27,-124.08 103.27,-114.9 103.27,-107.07"/>
<polygon fill="#63b8ff" stroke="#63b8ff" points="99.77,-132.79 103.27,-142.79 106.77,-132.79 99.77,-132.79"/>
</a>
</g>
</g>
<!-- Node4 -->
<g id="Node000004" class="node">
<title>Node4</title>
<g id="a_Node000004"><a xlink:href="FToolbar_8h.html" target="_top" xlink:title="CoffeeToolbar 플러그인의 주요 모듈 구현을 선언합니다.">
<polygon fill="white" stroke="#666666" points="326.77,-101.5 207.77,-101.5 207.77,-71.5 326.77,-71.5 326.77,-101.5"/>
<text text-anchor="start" x="215.77" y="-89.5" font-family="Malgun Gothic" font-size="10.00">Source/CoffeeToolbar</text>
<text text-anchor="middle" x="267.27" y="-78.5" font-family="Malgun Gothic" font-size="10.00">/Public/FToolbar.h</text>
</a>
</g>
</g>
<!-- Node1&#45;&gt;Node4 -->
<g id="edge3_Node000001_Node000004" class="edge">
<title>Node1&#45;&gt;Node4</title>
<g id="a_edge3_Node000001_Node000004"><a xlink:title=" ">
<path fill="none" stroke="#63b8ff" d="M155.16,-138.77C181.91,-126.54 213.62,-112.04 236.47,-101.58"/>
<polygon fill="#63b8ff" stroke="#63b8ff" points="153.57,-135.65 145.93,-142.99 156.48,-142.01 153.57,-135.65"/>
</a>
</g>
</g>
<!-- Node4&#45;&gt;Node2 -->
<g id="edge4_Node000004_Node000002" class="edge">
<title>Node4&#45;&gt;Node2</title>
<g id="a_edge4_Node000004_Node000002"><a xlink:title=" ">
<path fill="none" stroke="#63b8ff" d="M229.69,-66.84C206.37,-55.27 176.89,-40.64 155.56,-30.04"/>
<polygon fill="#63b8ff" stroke="#63b8ff" points="228.42,-70.12 238.94,-71.44 231.54,-63.85 228.42,-70.12"/>
</a>
</g>
</g>
</g>
</svg>
</svg>

<style type='text/css'>
<![CDATA[
[data-mouse-over-selected='false'] { opacity: 0.7; }
[data-mouse-over-selected='true']  { opacity: 1.0; }
]]>
</style>
<script type="application/ecmascript"><![CDATA[
document.addEventListener('DOMContentLoaded', (event) => {
  highlightEdges();
  highlightAdjacentNodes();
});
]]></script>
</svg>
