<?xml version="1.0" encoding="UTF-8" standalone="no"?>
<!DOCTYPE svg PUBLIC "-//W3C//DTD SVG 1.1//EN"
 "http://www.w3.org/Graphics/SVG/1.1/DTD/svg11.dtd">
<!-- Generated by graphviz version 2.43.0 (0)
 -->
<!-- Title: Source/CoffeeToolbar/Public/Screenshot/FScreenshotFeature.h Pages: 1 -->
<svg width="224pt" height="104pt"
 viewBox="0.00 0.00 223.50 104.00" xmlns="http://www.w3.org/2000/svg" xmlns:xlink="http://www.w3.org/1999/xlink">
<g id="graph0" class="graph" transform="scale(1 1) rotate(0) translate(4 100)">
<title>Source/CoffeeToolbar/Public/Screenshot/FScreenshotFeature.h</title>
<!-- Node1 -->
<g id="Node000001" class="node">
<title>Node1</title>
<g id="a_Node000001"><a xlink:title="툴바의 스크린샷 워크플로우 버튼을 위한 헬퍼를 선언합니다.">
<polygon fill="#999999" stroke="#666666" points="186,-96 18,-96 18,-55 186,-55 186,-96"/>
<text text-anchor="start" x="26" y="-84" font-family="Malgun Gothic" font-size="10.00">Source/CoffeeToolbar</text>
<text text-anchor="start" x="26" y="-73" font-family="Malgun Gothic" font-size="10.00">/Public/Screenshot/FScreenshot</text>
<text text-anchor="middle" x="102" y="-62" font-family="Malgun Gothic" font-size="10.00">Feature.h</text>
</a>
</g>
</g>
<!-- Node2 -->
<g id="Node000002" class="node">
<title>Node2</title>
<g id="a_Node000002"><a xlink:title=" ">
<polygon fill="#e0e0e0" stroke="#999999" points="88,-19 0,-19 0,0 88,0 88,-19"/>
<text text-anchor="middle" x="44" y="-7" font-family="Malgun Gothic" font-size="10.00">CoreMinimal.h</text>
</a>
</g>
</g>
<!-- Node1&#45;&gt;Node2 -->
<g id="edge1_Node000001_Node000002" class="edge">
<title>Node1&#45;&gt;Node2</title>
<g id="a_edge1_Node000001_Node000002"><a xlink:title=" ">
<path fill="none" stroke="#63b8ff" d="M84.28,-54.95C76.1,-45.92 66.5,-35.33 58.73,-26.75"/>
<polygon fill="#63b8ff" stroke="#63b8ff" points="61.25,-24.32 51.94,-19.26 56.06,-29.02 61.25,-24.32"/>
</a>
</g>
</g>
<!-- Node3 -->
<g id="Node000003" class="node">
<title>Node3</title>
<g id="a_Node000003"><a xlink:title=" ">
<polygon fill="#e0e0e0" stroke="#999999" points="215.5,-19 106.5,-19 106.5,0 215.5,0 215.5,-19"/>
<text text-anchor="middle" x="161" y="-7" font-family="Malgun Gothic" font-size="10.00">Widgets/SWidget.h</text>
</a>
</g>
</g>
<!-- Node1&#45;&gt;Node3 -->
<g id="edge2_Node000001_Node000003" class="edge">
<title>Node1&#45;&gt;Node3</title>
<g id="a_edge2_Node000001_Node000003"><a xlink:title=" ">
<path fill="none" stroke="#63b8ff" d="M120.02,-54.95C128.34,-45.92 138.11,-35.33 146.02,-26.75"/>
<polygon fill="#63b8ff" stroke="#63b8ff" points="148.72,-28.99 152.92,-19.26 143.57,-24.24 148.72,-28.99"/>
</a>
</g>
</g>
</g>
</svg>
