<?xml version="1.0" encoding="UTF-8" standalone="no"?>
<!DOCTYPE svg PUBLIC "-//W3C//DTD SVG 1.1//EN"
 "http://www.w3.org/Graphics/SVG/1.1/DTD/svg11.dtd">
<!-- Generated by graphviz version 2.43.0 (0)
 -->
<!-- Title: Source/CoffeeToolbar/Public/Settings/FToolbarButtonInfo.h Pages: 1 -->
<svg width="1514pt" height="192pt"
 viewBox="0.00 0.00 1514.00 192.00" xmlns="http://www.w3.org/2000/svg" xmlns:xlink="http://www.w3.org/1999/xlink">
<g id="graph0" class="graph" transform="scale(1 1) rotate(0) translate(4 188)">
<title>Source/CoffeeToolbar/Public/Settings/FToolbarButtonInfo.h</title>
<!-- Node1 -->
<g id="Node000001" class="node">
<title>Node1</title>
<g id="a_Node000001"><a xlink:title="커스터마이즈 가능한 Coffee Toolbar 버튼 정보를 선언합니다.">
<polygon fill="#999999" stroke="#666666" points="499,-184 332,-184 332,-143 499,-143 499,-184"/>
<text text-anchor="start" x="340" y="-172" font-family="Malgun Gothic" font-size="10.00">Source/CoffeeToolbar</text>
<text text-anchor="start" x="340" y="-161" font-family="Malgun Gothic" font-size="10.00">/Public/Settings/FToolbarButton</text>
<text text-anchor="middle" x="415.5" y="-150" font-family="Malgun Gothic" font-size="10.00">Info.h</text>
</a>
</g>
</g>
<!-- Node2 -->
<g id="Node000002" class="node">
<title>Node2</title>
<g id="a_Node000002"><a xlink:href="UToolbarSettings_8cpp.html" target="_top" xlink:title="Coffee Toolbar 플러그인의 설정 헬퍼 기능을 구현합니다.">
<polygon fill="white" stroke="#666666" points="203,-35.5 0,-35.5 0,-5.5 203,-5.5 203,-35.5"/>
<text text-anchor="start" x="8" y="-23.5" font-family="Malgun Gothic" font-size="10.00">Source/CoffeeToolbar</text>
<text text-anchor="middle" x="101.5" y="-12.5" font-family="Malgun Gothic" font-size="10.00">/Private/Settings/UToolbarSettings.cpp</text>
</a>
</g>
</g>
<!-- Node1&#45;&gt;Node2 -->
<g id="edge1_Node000001_Node000002" class="edge">
<title>Node1&#45;&gt;Node2</title>
<g id="a_edge1_Node000001_Node000002"><a xlink:title=" ">
<path fill="none" stroke="#63b8ff" d="M362.47,-138.69C296.68,-109.14 186.64,-59.73 132.93,-35.61"/>
<polygon fill="#63b8ff" stroke="#63b8ff" points="361.28,-141.99 371.84,-142.89 364.15,-135.61 361.28,-141.99"/>
</a>
</g>
</g>
<!-- Node3 -->
<g id="Node000003" class="node">
<title>Node3</title>
<g id="a_Node000003"><a xlink:href="UToolbarSettings_8h.html" target="_top" xlink:title="Coffee Toolbar 플러그인을 구성하기 위한 개발자 설정을 선언합니다.">
<polygon fill="white" stroke="#666666" points="823.5,-107 637.5,-107 637.5,-77 823.5,-77 823.5,-107"/>
<text text-anchor="start" x="645.5" y="-95" font-family="Malgun Gothic" font-size="10.00">Source/CoffeeToolbar</text>
<text text-anchor="middle" x="730.5" y="-84" font-family="Malgun Gothic" font-size="10.00">/Public/Settings/UToolbarSettings.h</text>
</a>
</g>
</g>
<!-- Node1&#45;&gt;Node3 -->
<g id="edge2_Node000001_Node000003" class="edge">
<title>Node1&#45;&gt;Node3</title>
<g id="a_edge2_Node000001_Node000003"><a xlink:title=" ">
<path fill="none" stroke="#63b8ff" d="M509.12,-141.84C560.06,-130.61 621.72,-117 667.02,-107.01"/>
<polygon fill="#63b8ff" stroke="#63b8ff" points="508.1,-138.49 499.09,-144.06 509.61,-145.32 508.1,-138.49"/>
</a>
</g>
</g>
<!-- Node3&#45;&gt;Node2 -->
<g id="edge10_Node000003_Node000002" class="edge">
<title>Node3&#45;&gt;Node2</title>
<g id="a_edge10_Node000003_Node000002"><a xlink:title=" ">
<path fill="none" stroke="#63b8ff" d="M627.15,-83.47C522.21,-75.26 355.15,-60.62 211.5,-41 199.97,-39.43 187.8,-37.52 175.93,-35.52"/>
<polygon fill="#63b8ff" stroke="#63b8ff" points="627.19,-86.99 637.43,-84.27 627.73,-80.01 627.19,-86.99"/>
</a>
</g>
</g>
<!-- Node4 -->
<g id="Node000004" class="node">
<title>Node4</title>
<g id="a_Node000004"><a xlink:href="FCommandFeature_8cpp.html" target="_top" xlink:title="Coffee Toolbar용 명령 실행 보조 기능을 구현합니다.">
<polygon fill="white" stroke="#666666" points="444.5,-35.5 220.5,-35.5 220.5,-5.5 444.5,-5.5 444.5,-35.5"/>
<text text-anchor="start" x="228.5" y="-23.5" font-family="Malgun Gothic" font-size="10.00">Source/CoffeeToolbar</text>
<text text-anchor="middle" x="332.5" y="-12.5" font-family="Malgun Gothic" font-size="10.00">/Private/Command/FCommandFeature.cpp</text>
</a>
</g>
</g>
<!-- Node3&#45;&gt;Node4 -->
<g id="edge3_Node000003_Node000004" class="edge">
<title>Node3&#45;&gt;Node4</title>
<g id="a_edge3_Node000003_Node000004"><a xlink:title=" ">
<path fill="none" stroke="#63b8ff" d="M640.06,-75.21C571.69,-63.27 478.7,-47.03 412.92,-35.54"/>
<polygon fill="#63b8ff" stroke="#63b8ff" points="639.51,-78.66 649.96,-76.94 640.71,-71.77 639.51,-78.66"/>
</a>
</g>
</g>
<!-- Node5 -->
<g id="Node000005" class="node">
<title>Node5</title>
<g id="a_Node000005"><a xlink:href="FToolbarStyle_8cpp.html" target="_top" xlink:title="Coffee Toolbar 플러그인의 Slate 스타일 등록을 구현합니다.">
<polygon fill="white" stroke="#666666" points="652.5,-35.5 462.5,-35.5 462.5,-5.5 652.5,-5.5 652.5,-35.5"/>
<text text-anchor="start" x="470.5" y="-23.5" font-family="Malgun Gothic" font-size="10.00">Source/CoffeeToolbar</text>
<text text-anchor="middle" x="557.5" y="-12.5" font-family="Malgun Gothic" font-size="10.00">/Private/Common/FToolbarStyle.cpp</text>
</a>
</g>
</g>
<!-- Node3&#45;&gt;Node5 -->
<g id="edge4_Node000003_Node000005" class="edge">
<title>Node3&#45;&gt;Node5</title>
<g id="a_edge4_Node000003_Node000005"><a xlink:title=" ">
<path fill="none" stroke="#63b8ff" d="M685.97,-73.11C656.87,-61.42 619.41,-46.37 592.46,-35.54"/>
<polygon fill="#63b8ff" stroke="#63b8ff" points="684.91,-76.46 695.49,-76.94 687.52,-69.96 684.91,-76.46"/>
</a>
</g>
</g>
<!-- Node6 -->
<g id="Node000006" class="node">
<title>Node6</title>
<g id="a_Node000006"><a xlink:href="FToolbar_8cpp.html" target="_top" xlink:title="Coffee Toolbar 모듈의 라이프사이클과 메뉴 등록 로직을 구현합니다.">
<polygon fill="white" stroke="#666666" points="790,-35.5 671,-35.5 671,-5.5 790,-5.5 790,-35.5"/>
<text text-anchor="start" x="679" y="-23.5" font-family="Malgun Gothic" font-size="10.00">Source/CoffeeToolbar</text>
<text text-anchor="middle" x="730.5" y="-12.5" font-family="Malgun Gothic" font-size="10.00">/Private/FToolbar.cpp</text>
</a>
</g>
</g>
<!-- Node3&#45;&gt;Node6 -->
<g id="edge5_Node000003_Node000006" class="edge">
<title>Node3&#45;&gt;Node6</title>
<g id="a_edge5_Node000003_Node000006"><a xlink:title=" ">
<path fill="none" stroke="#63b8ff" d="M730.5,-66.75C730.5,-56.31 730.5,-44.49 730.5,-35.54"/>
<polygon fill="#63b8ff" stroke="#63b8ff" points="727,-66.94 730.5,-76.94 734,-66.94 727,-66.94"/>
</a>
</g>
</g>
<!-- Node7 -->
<g id="Node000007" class="node">
<title>Node7</title>
<g id="a_Node000007"><a xlink:href="FolderFeature_8cpp.html" target="_top" xlink:title=" ">
<polygon fill="white" stroke="#666666" points="985,-35.5 808,-35.5 808,-5.5 985,-5.5 985,-35.5"/>
<text text-anchor="start" x="816" y="-23.5" font-family="Malgun Gothic" font-size="10.00">Source/CoffeeToolbar</text>
<text text-anchor="middle" x="896.5" y="-12.5" font-family="Malgun Gothic" font-size="10.00">/Private/Folder/FolderFeature.cpp</text>
</a>
</g>
</g>
<!-- Node3&#45;&gt;Node7 -->
<g id="edge6_Node000003_Node000007" class="edge">
<title>Node3&#45;&gt;Node7</title>
<g id="a_edge6_Node000003_Node000007"><a xlink:title=" ">
<path fill="none" stroke="#63b8ff" d="M773.59,-72.96C801.46,-61.29 837.21,-46.32 862.96,-35.54"/>
<polygon fill="#63b8ff" stroke="#63b8ff" points="771.97,-69.85 764.09,-76.94 774.67,-76.3 771.97,-69.85"/>
</a>
</g>
</g>
<!-- Node8 -->
<g id="Node000008" class="node">
<title>Node8</title>
<g id="a_Node000008"><a xlink:href="FLevelFeature_8cpp.html" target="_top" xlink:title="Coffee Toolbar에서 레벨 선택을 돕는 헬퍼 기능을 구현합니다.">
<polygon fill="white" stroke="#666666" points="1178.5,-35.5 1002.5,-35.5 1002.5,-5.5 1178.5,-5.5 1178.5,-35.5"/>
<text text-anchor="start" x="1010.5" y="-23.5" font-family="Malgun Gothic" font-size="10.00">Source/CoffeeToolbar</text>
<text text-anchor="middle" x="1090.5" y="-12.5" font-family="Malgun Gothic" font-size="10.00">/Private/Level/FLevelFeature.cpp</text>
</a>
</g>
</g>
<!-- Node3&#45;&gt;Node8 -->
<g id="edge7_Node000003_Node000008" class="edge">
<title>Node3&#45;&gt;Node8</title>
<g id="a_edge7_Node000003_Node000008"><a xlink:title=" ">
<path fill="none" stroke="#63b8ff" d="M816.07,-75.09C867.76,-65.4 934.96,-52.69 994.5,-41 1003.43,-39.25 1012.82,-37.38 1022.09,-35.51"/>
<polygon fill="#63b8ff" stroke="#63b8ff" points="815.13,-71.71 805.94,-76.99 816.41,-78.59 815.13,-71.71"/>
</a>
</g>
</g>
<!-- Node9 -->
<g id="Node000009" class="node">
<title>Node9</title>
<g id="a_Node000009"><a xlink:href="ConsoleCurlCommand_8cpp.html" target="_top" xlink:title=" ">
<polygon fill="white" stroke="#666666" points="1345,-41 1196,-41 1196,0 1345,0 1345,-41"/>
<text text-anchor="start" x="1204" y="-29" font-family="Malgun Gothic" font-size="10.00">Source/CoffeeToolbar</text>
<text text-anchor="start" x="1204" y="-18" font-family="Malgun Gothic" font-size="10.00">/Private/NetworkTest</text>
<text text-anchor="middle" x="1270.5" y="-7" font-family="Malgun Gothic" font-size="10.00">/ConsoleCurlCommand.cpp</text>
</a>
</g>
</g>
<!-- Node3&#45;&gt;Node9 -->
<g id="edge8_Node000003_Node000009" class="edge">
<title>Node3&#45;&gt;Node9</title>
<g id="a_edge8_Node000003_Node000009"><a xlink:title=" ">
<path fill="none" stroke="#63b8ff" d="M833.71,-83.32C926.66,-75.55 1066.82,-61.7 1187.5,-41 1190.27,-40.52 1193.09,-40.01 1195.93,-39.47"/>
<polygon fill="#63b8ff" stroke="#63b8ff" points="833.42,-79.83 823.74,-84.14 834,-86.81 833.42,-79.83"/>
</a>
</g>
</g>
<!-- Node10 -->
<g id="Node000010" class="node">
<title>Node10</title>
<g id="a_Node000010"><a xlink:href="FNetworkTestFeature_8cpp.html" target="_top" xlink:title=" ">
<polygon fill="white" stroke="#666666" points="1506,-41 1363,-41 1363,0 1506,0 1506,-41"/>
<text text-anchor="start" x="1371" y="-29" font-family="Malgun Gothic" font-size="10.00">Source/CoffeeToolbar</text>
<text text-anchor="start" x="1371" y="-18" font-family="Malgun Gothic" font-size="10.00">/Private/NetworkTest</text>
<text text-anchor="middle" x="1434.5" y="-7" font-family="Malgun Gothic" font-size="10.00">/FNetworkTestFeature.cpp</text>
</a>
</g>
</g>
<!-- Node3&#45;&gt;Node10 -->
<g id="edge9_Node000003_Node000010" class="edge">
<title>Node3&#45;&gt;Node10</title>
<g id="a_edge9_Node000003_Node000010"><a xlink:title=" ">
<path fill="none" stroke="#63b8ff" d="M833.82,-87.75C958.08,-82.69 1172.64,-70.26 1354.5,-41 1357.18,-40.57 1359.91,-40.09 1362.65,-39.58"/>
<polygon fill="#63b8ff" stroke="#63b8ff" points="833.41,-84.27 823.56,-88.16 833.69,-91.26 833.41,-84.27"/>
</a>
</g>
</g>
</g>
</svg>
