<?xml version="1.0" encoding="UTF-8" standalone="no"?>
<!DOCTYPE svg PUBLIC "-//W3C//DTD SVG 1.1//EN"
 "http://www.w3.org/Graphics/SVG/1.1/DTD/svg11.dtd">
<!-- Generated by graphviz version 2.43.0 (0)
 -->
<!-- Title: Source/CoffeeToolbar/Public/FToolbar.h Pages: 1 -->
<svg width="825pt" height="159pt"
 viewBox="0.00 0.00 825.00 159.00" xmlns="http://www.w3.org/2000/svg" xmlns:xlink="http://www.w3.org/1999/xlink">
<g id="graph0" class="graph" transform="scale(1 1) rotate(0) translate(4 155)">
<title>Source/CoffeeToolbar/Public/FToolbar.h</title>
<!-- Node1 -->
<g id="Node000001" class="node">
<title>Node1</title>
<g id="a_Node000001"><a xlink:title="CoffeeToolbar 플러그인의 주요 모듈 구현을 선언합니다.">
<polygon fill="#999999" stroke="#666666" points="412.5,-151 293.5,-151 293.5,-121 412.5,-121 412.5,-151"/>
<text text-anchor="start" x="301.5" y="-139" font-family="Malgun Gothic" font-size="10.00">Source/CoffeeToolbar</text>
<text text-anchor="middle" x="353" y="-128" font-family="Malgun Gothic" font-size="10.00">/Public/FToolbar.h</text>
</a>
</g>
</g>
<!-- Node2 -->
<g id="Node000002" class="node">
<title>Node2</title>
<g id="a_Node000002"><a xlink:title=" ">
<polygon fill="#e0e0e0" stroke="#999999" points="148,-85 0,-85 0,-66 148,-66 148,-85"/>
<text text-anchor="middle" x="74" y="-73" font-family="Malgun Gothic" font-size="10.00">Modules/ModuleManager.h</text>
</a>
</g>
</g>
<!-- Node1&#45;&gt;Node2 -->
<g id="edge1_Node000001_Node000002" class="edge">
<title>Node1&#45;&gt;Node2</title>
<g id="a_edge1_Node000001_Node000002"><a xlink:title=" ">
<path fill="none" stroke="#63b8ff" d="M293.49,-122.52C243.39,-112.02 172.51,-97.16 124.98,-87.19"/>
<polygon fill="#63b8ff" stroke="#63b8ff" points="125.42,-83.71 114.91,-85.08 123.98,-90.56 125.42,-83.71"/>
</a>
</g>
</g>
<!-- Node3 -->
<g id="Node000003" class="node">
<title>Node3</title>
<g id="a_Node000003"><a xlink:href="FCommandFeature_8h.html" target="_top" xlink:title="명령형 버튼을 담당하는 툴바 기능을 선언합니다.">
<polygon fill="white" stroke="#666666" points="536,-85 364,-85 364,-66 536,-66 536,-85"/>
<text text-anchor="middle" x="450" y="-73" font-family="Malgun Gothic" font-size="10.00">Command/FCommandFeature.h</text>
</a>
</g>
</g>
<!-- Node1&#45;&gt;Node3 -->
<g id="edge2_Node000001_Node000003" class="edge">
<title>Node1&#45;&gt;Node3</title>
<g id="a_edge2_Node000001_Node000003"><a xlink:title=" ">
<path fill="none" stroke="#63b8ff" d="M376.48,-120.84C391.8,-111.6 411.71,-99.59 426.95,-90.4"/>
<polygon fill="#63b8ff" stroke="#63b8ff" points="428.99,-93.26 435.75,-85.09 425.38,-87.26 428.99,-93.26"/>
</a>
</g>
</g>
<!-- Node7 -->
<g id="Node000007" class="node">
<title>Node7</title>
<g id="a_Node000007"><a xlink:href="FLevelFeature_8h.html" target="_top" xlink:title="툴바에 레벨 선택 컨트롤을 제공하는 기능을 선언합니다.">
<polygon fill="white" stroke="#666666" points="678,-85 554,-85 554,-66 678,-66 678,-85"/>
<text text-anchor="middle" x="616" y="-73" font-family="Malgun Gothic" font-size="10.00">Level/FLevelFeature.h</text>
</a>
</g>
</g>
<!-- Node1&#45;&gt;Node7 -->
<g id="edge6_Node000001_Node000007" class="edge">
<title>Node1&#45;&gt;Node7</title>
<g id="a_edge6_Node000001_Node000007"><a xlink:title=" ">
<path fill="none" stroke="#63b8ff" d="M412.68,-121.73C459.64,-111.28 524.23,-96.91 567.91,-87.2"/>
<polygon fill="#63b8ff" stroke="#63b8ff" points="568.72,-90.6 577.72,-85.02 567.2,-83.77 568.72,-90.6"/>
</a>
</g>
</g>
<!-- Node9 -->
<g id="Node000009" class="node">
<title>Node9</title>
<g id="a_Node000009"><a xlink:href="FScreenshotFeature_8h.html" target="_top" xlink:title="툴바의 스크린샷 워크플로우 버튼을 위한 헬퍼를 선언합니다.">
<polygon fill="white" stroke="#666666" points="345.5,-85 166.5,-85 166.5,-66 345.5,-66 345.5,-85"/>
<text text-anchor="middle" x="256" y="-73" font-family="Malgun Gothic" font-size="10.00">Screenshot/FScreenshotFeature.h</text>
</a>
</g>
</g>
<!-- Node1&#45;&gt;Node9 -->
<g id="edge11_Node000001_Node000009" class="edge">
<title>Node1&#45;&gt;Node9</title>
<g id="a_edge11_Node000001_Node000009"><a xlink:title=" ">
<path fill="none" stroke="#63b8ff" d="M329.52,-120.84C314.2,-111.6 294.29,-99.59 279.05,-90.4"/>
<polygon fill="#63b8ff" stroke="#63b8ff" points="280.62,-87.26 270.25,-85.09 277.01,-93.26 280.62,-87.26"/>
</a>
</g>
</g>
<!-- Node4 -->
<g id="Node000004" class="node">
<title>Node4</title>
<g id="a_Node000004"><a xlink:title=" ">
<polygon fill="#e0e0e0" stroke="#999999" points="377,-24.5 289,-24.5 289,-5.5 377,-5.5 377,-24.5"/>
<text text-anchor="middle" x="333" y="-12.5" font-family="Malgun Gothic" font-size="10.00">CoreMinimal.h</text>
</a>
</g>
</g>
<!-- Node3&#45;&gt;Node4 -->
<g id="edge3_Node000003_Node000004" class="edge">
<title>Node3&#45;&gt;Node4</title>
<g id="a_edge3_Node000003_Node000004"><a xlink:title=" ">
<path fill="none" stroke="#63b8ff" d="M432.99,-65.99C413.58,-56.29 381.61,-40.31 359.06,-29.03"/>
<polygon fill="#63b8ff" stroke="#63b8ff" points="360.54,-25.86 350.03,-24.52 357.41,-32.12 360.54,-25.86"/>
</a>
</g>
</g>
<!-- Node5 -->
<g id="Node000005" class="node">
<title>Node5</title>
<g id="a_Node000005"><a xlink:title=" ">
<polygon fill="#e0e0e0" stroke="#999999" points="504.5,-24.5 395.5,-24.5 395.5,-5.5 504.5,-5.5 504.5,-24.5"/>
<text text-anchor="middle" x="450" y="-12.5" font-family="Malgun Gothic" font-size="10.00">Widgets/SWidget.h</text>
</a>
</g>
</g>
<!-- Node3&#45;&gt;Node5 -->
<g id="edge4_Node000003_Node000005" class="edge">
<title>Node3&#45;&gt;Node5</title>
<g id="a_edge4_Node000003_Node000005"><a xlink:title=" ">
<path fill="none" stroke="#63b8ff" d="M450,-65.87C450,-57.75 450,-45.31 450,-34.89"/>
<polygon fill="#63b8ff" stroke="#63b8ff" points="453.5,-34.67 450,-24.67 446.5,-34.67 453.5,-34.67"/>
</a>
</g>
</g>
<!-- Node6 -->
<g id="Node000006" class="node">
<title>Node6</title>
<g id="a_Node000006"><a xlink:title=" ">
<polygon fill="#e0e0e0" stroke="#999999" points="653,-30 523,-30 523,0 653,0 653,-30"/>
<text text-anchor="start" x="531" y="-18" font-family="Malgun Gothic" font-size="10.00">Framework/Commands</text>
<text text-anchor="middle" x="588" y="-7" font-family="Malgun Gothic" font-size="10.00">/UIAction.h</text>
</a>
</g>
</g>
<!-- Node3&#45;&gt;Node6 -->
<g id="edge5_Node000003_Node000006" class="edge">
<title>Node3&#45;&gt;Node6</title>
<g id="a_edge5_Node000003_Node000006"><a xlink:title=" ">
<path fill="none" stroke="#63b8ff" d="M470.07,-65.99C489.75,-57.65 520.39,-44.66 545.5,-34.02"/>
<polygon fill="#63b8ff" stroke="#63b8ff" points="546.98,-37.19 554.82,-30.06 544.25,-30.74 546.98,-37.19"/>
</a>
</g>
</g>
<!-- Node7&#45;&gt;Node4 -->
<g id="edge7_Node000007_Node000004" class="edge">
<title>Node7&#45;&gt;Node4</title>
<g id="a_edge7_Node000007_Node000004"><a xlink:title=" ">
<path fill="none" stroke="#63b8ff" d="M567.57,-65.99C521.09,-57.6 449.01,-44.05 387,-30 382.91,-29.07 378.66,-28.06 374.41,-27.01"/>
<polygon fill="#63b8ff" stroke="#63b8ff" points="375.17,-23.59 364.62,-24.55 373.46,-30.38 375.17,-23.59"/>
</a>
</g>
</g>
<!-- Node7&#45;&gt;Node5 -->
<g id="edge8_Node000007_Node000005" class="edge">
<title>Node7&#45;&gt;Node5</title>
<g id="a_edge8_Node000007_Node000005"><a xlink:title=" ">
<path fill="none" stroke="#63b8ff" d="M591.86,-65.99C563.46,-55.99 516.12,-39.3 484.01,-27.99"/>
<polygon fill="#63b8ff" stroke="#63b8ff" points="484.76,-24.54 474.17,-24.52 482.44,-31.14 484.76,-24.54"/>
</a>
</g>
</g>
<!-- Node7&#45;&gt;Node6 -->
<g id="edge9_Node000007_Node000006" class="edge">
<title>Node7&#45;&gt;Node6</title>
<g id="a_edge9_Node000007_Node000006"><a xlink:title=" ">
<path fill="none" stroke="#63b8ff" d="M611.87,-65.87C608.53,-58.89 603.66,-48.71 599.19,-39.38"/>
<polygon fill="#63b8ff" stroke="#63b8ff" points="602.23,-37.62 594.76,-30.11 595.92,-40.65 602.23,-37.62"/>
</a>
</g>
</g>
<!-- Node8 -->
<g id="Node000008" class="node">
<title>Node8</title>
<g id="a_Node000008"><a xlink:title=" ">
<polygon fill="#e0e0e0" stroke="#999999" points="817,-24.5 671,-24.5 671,-5.5 817,-5.5 817,-24.5"/>
<text text-anchor="middle" x="744" y="-12.5" font-family="Malgun Gothic" font-size="10.00">AssetRegistry/AssetData.h</text>
</a>
</g>
</g>
<!-- Node7&#45;&gt;Node8 -->
<g id="edge10_Node000007_Node000008" class="edge">
<title>Node7&#45;&gt;Node8</title>
<g id="a_edge10_Node000007_Node000008"><a xlink:title=" ">
<path fill="none" stroke="#63b8ff" d="M634.61,-65.99C656.04,-56.2 691.44,-40.02 716.15,-28.73"/>
<polygon fill="#63b8ff" stroke="#63b8ff" points="717.72,-31.86 725.37,-24.52 714.82,-25.49 717.72,-31.86"/>
</a>
</g>
</g>
<!-- Node9&#45;&gt;Node4 -->
<g id="edge12_Node000009_Node000004" class="edge">
<title>Node9&#45;&gt;Node4</title>
<g id="a_edge12_Node000009_Node000004"><a xlink:title=" ">
<path fill="none" stroke="#63b8ff" d="M267.36,-65.87C279.42,-56.71 298.7,-42.06 313.25,-31.01"/>
<polygon fill="#63b8ff" stroke="#63b8ff" points="315.75,-33.5 321.59,-24.67 311.51,-27.93 315.75,-33.5"/>
</a>
</g>
</g>
<!-- Node9&#45;&gt;Node5 -->
<g id="edge13_Node000009_Node000005" class="edge">
<title>Node9&#45;&gt;Node5</title>
<g id="a_edge13_Node000009_Node000005"><a xlink:title=" ">
<path fill="none" stroke="#63b8ff" d="M284.21,-65.99C317.97,-55.81 374.65,-38.72 412.18,-27.4"/>
<polygon fill="#63b8ff" stroke="#63b8ff" points="413.19,-30.75 421.76,-24.52 411.17,-24.05 413.19,-30.75"/>
</a>
</g>
</g>
</g>
</svg>
