<?xml version="1.0" encoding="UTF-8" standalone="no"?>
<!DOCTYPE svg PUBLIC "-//W3C//DTD SVG 1.1//EN"
 "http://www.w3.org/Graphics/SVG/1.1/DTD/svg11.dtd">
<!-- Generated by graphviz version 2.43.0 (0)
 -->
<!-- Title: Source/CoffeeToolbar/Public/Common/FToolbarStyle.h Pages: 1 -->
<!--zoomable 170 -->

<svg id="main" version="1.1" xmlns="http://www.w3.org/2000/svg" xmlns:xlink="http://www.w3.org/1999/xlink" xml:space="preserve" onload="init(evt)">
<style type="text/css"><![CDATA[
.node, .edge {opacity: 0.7;}
.node.selected, .edge.selected {opacity: 1;}
.edge:hover path { stroke: red; }
.edge:hover polygon { stroke: red; fill: red; }
]]></style>

<defs>
  <circle id="rim" cx="0" cy="0" r="7"/>
  <circle id="rim2" cx="0" cy="0" r="3.5"/>
  <g id="zoomPlus">
    <use xlink:href="#rim" fill="#404040"><set attributeName="fill" to="#808080" begin="zoomplus.mouseover" end="zoomplus.mouseout"/></use>
    <path d="M-4,0h8M0,-4v8" fill="none" stroke="white" stroke-width="1.5" pointer-events="none"/>
  </g>
  <g id="zoomMin">
    <use xlink:href="#rim" fill="#404040"><set attributeName="fill" to="#808080" begin="zoomminus.mouseover" end="zoomminus.mouseout"/></use>
    <path d="M-4,0h8" fill="none" stroke="white" stroke-width="1.5" pointer-events="none"/>
  </g>
  <g id="arrowUp" transform="translate(30 24)">
    <use xlink:href="#rim"/>
    <path pointer-events="none" fill="none" stroke="white" stroke-width="1.5" d="M0,-3.0v7 M-2.5,-0.5L0,-3.0L2.5,-0.5"/>
  </g>
  <g id="arrowRight" transform="rotate(90) translate(36 -43)">
    <use xlink:href="#rim"/>
    <path pointer-events="none" fill="none" stroke="white" stroke-width="1.5" d="M0,-3.0v7 M-2.5,-0.5L0,-3.0L2.5,-0.5"/>
  </g>
  <g id="arrowDown" transform="rotate(180) translate(-30 -48)">
    <use xlink:href="#rim"/>
    <path pointer-events="none" fill="none" stroke="white" stroke-width="1.5" d="M0,-3.0v7 M-2.5,-0.5L0,-3.0L2.5,-0.5"/>
  </g>
  <g id="arrowLeft" transform="rotate(270) translate(-36 17)">
    <use xlink:href="#rim"/>
    <path pointer-events="none" fill="none" stroke="white" stroke-width="1.5" d="M0,-3.0v7 M-2.5,-0.5L0,-3.0L2.5,-0.5"/>
  </g>
  <g id="resetDef">
    <use xlink:href="#rim2" fill="#404040"><set attributeName="fill" to="#808080" begin="reset.mouseover" end="reset.mouseout"/></use>
  </g>
</defs>
<script type="application/ecmascript">
var viewWidth = 718;
var viewHeight = 170;
var sectionId = 'dynsection-1';
</script>
<script type="application/ecmascript" xlink:href="svg.min.js"/>
<svg id="graph" class="graph">
<g id="viewport">
<title>Source/CoffeeToolbar/Public/Common/FToolbarStyle.h</title>
<!-- Node1 -->
<g id="Node000001" class="node">
<title>Node1</title>
<g id="a_Node000001"><a xlink:title="Coffee Toolbar 플러그인이 사용하는 Slate 스타일 세트를 선언합니다.">
<polygon fill="#999999" stroke="#666666" points="436,-162 263,-162 263,-132 436,-132 436,-162"/>
<text text-anchor="start" x="271" y="-150" font-family="Malgun Gothic" font-size="10.00">Source/CoffeeToolbar</text>
<text text-anchor="middle" x="349.5" y="-139" font-family="Malgun Gothic" font-size="10.00">/Public/Common/FToolbarStyle.h</text>
</a>
</g>
</g>
<!-- Node2 -->
<g id="Node000002" class="node">
<title>Node2</title>
<g id="a_Node000002"><a xlink:href="FCommon_8cpp.html" target="_top" xlink:title="Coffee Toolbar 플러그인을 위한 공용 헬퍼 유틸리티를 구현합니다.">
<polygon fill="white" stroke="#666666" points="175,-96 0,-96 0,-66 175,-66 175,-96"/>
<text text-anchor="start" x="8" y="-84" font-family="Malgun Gothic" font-size="10.00">Source/CoffeeToolbar</text>
<text text-anchor="middle" x="87.5" y="-73" font-family="Malgun Gothic" font-size="10.00">/Private/Common/FCommon.cpp</text>
</a>
</g>
</g>
<!-- Node1&#45;&gt;Node2 -->
<g id="edge1_Node000001_Node000002" class="edge">
<title>Node1&#45;&gt;Node2</title>
<g id="a_edge1_Node000001_Node000002"><a xlink:title=" ">
<path fill="none" stroke="#63b8ff" d="M282.02,-129.52C239.53,-119.14 185.27,-105.88 144.86,-96.01"/>
<polygon fill="#63b8ff" stroke="#63b8ff" points="281.46,-132.98 292,-131.95 283.12,-126.18 281.46,-132.98"/>
</a>
</g>
</g>
<!-- Node3 -->
<g id="Node000003" class="node">
<title>Node3</title>
<g id="a_Node000003"><a xlink:href="FToolbarStyle_8cpp.html" target="_top" xlink:title="Coffee Toolbar 플러그인의 Slate 스타일 등록을 구현합니다.">
<polygon fill="white" stroke="#666666" points="383.5,-96 193.5,-96 193.5,-66 383.5,-66 383.5,-96"/>
<text text-anchor="start" x="201.5" y="-84" font-family="Malgun Gothic" font-size="10.00">Source/CoffeeToolbar</text>
<text text-anchor="middle" x="288.5" y="-73" font-family="Malgun Gothic" font-size="10.00">/Private/Common/FToolbarStyle.cpp</text>
</a>
</g>
</g>
<!-- Node1&#45;&gt;Node3 -->
<g id="edge2_Node000001_Node000003" class="edge">
<title>Node1&#45;&gt;Node3</title>
<g id="a_edge2_Node000001_Node000003"><a xlink:title=" ">
<path fill="none" stroke="#63b8ff" d="M328.88,-124.37C320.01,-115.06 309.89,-104.44 302,-96.16"/>
<polygon fill="#63b8ff" stroke="#63b8ff" points="326.53,-126.97 335.96,-131.8 331.6,-122.14 326.53,-126.97"/>
</a>
</g>
</g>
<!-- Node4 -->
<g id="Node000004" class="node">
<title>Node4</title>
<g id="a_Node000004"><a xlink:href="FToolbar_8cpp.html" target="_top" xlink:title="Coffee Toolbar 모듈의 라이프사이클과 메뉴 등록 로직을 구현합니다.">
<polygon fill="white" stroke="#666666" points="471,-30 352,-30 352,0 471,0 471,-30"/>
<text text-anchor="start" x="360" y="-18" font-family="Malgun Gothic" font-size="10.00">Source/CoffeeToolbar</text>
<text text-anchor="middle" x="411.5" y="-7" font-family="Malgun Gothic" font-size="10.00">/Private/FToolbar.cpp</text>
</a>
</g>
</g>
<!-- Node1&#45;&gt;Node4 -->
<g id="edge3_Node000001_Node000004" class="edge">
<title>Node1&#45;&gt;Node4</title>
<g id="a_edge3_Node000001_Node000004"><a xlink:title=" ">
<path fill="none" stroke="#63b8ff" d="M372.14,-124.3C379.59,-116.07 387.3,-106.2 392.5,-96 403.4,-74.64 408.18,-46.86 410.17,-30.29"/>
<polygon fill="#63b8ff" stroke="#63b8ff" points="369.51,-121.99 365.16,-131.65 374.58,-126.81 369.51,-121.99"/>
</a>
</g>
</g>
<!-- Node5 -->
<g id="Node000005" class="node">
<title>Node5</title>
<g id="a_Node000005"><a xlink:href="FToolbarCommands_8h.html" target="_top" xlink:title="Coffee Toolbar 플러그인에서 사용하는 명령 바인딩을 선언합니다.">
<polygon fill="white" stroke="#666666" points="643.5,-96 439.5,-96 439.5,-66 643.5,-66 643.5,-96"/>
<text text-anchor="start" x="447.5" y="-84" font-family="Malgun Gothic" font-size="10.00">Source/CoffeeToolbar</text>
<text text-anchor="middle" x="541.5" y="-73" font-family="Malgun Gothic" font-size="10.00">/Public/Common/FToolbarCommands.h</text>
</a>
</g>
</g>
<!-- Node1&#45;&gt;Node5 -->
<g id="edge4_Node000001_Node000005" class="edge">
<title>Node1&#45;&gt;Node5</title>
<g id="a_edge4_Node000001_Node000005"><a xlink:title=" ">
<path fill="none" stroke="#63b8ff" d="M401.33,-128.72C432.09,-118.47 470.6,-105.63 499.46,-96.01"/>
<polygon fill="#63b8ff" stroke="#63b8ff" points="400.02,-125.47 391.64,-131.95 402.23,-132.11 400.02,-125.47"/>
</a>
</g>
</g>
<!-- Node5&#45;&gt;Node4 -->
<g id="edge6_Node000005_Node000004" class="edge">
<title>Node5&#45;&gt;Node4</title>
<g id="a_edge6_Node000005_Node000004"><a xlink:title=" ">
<path fill="none" stroke="#63b8ff" d="M503.95,-61.51C483.55,-51.47 458.74,-39.26 439.96,-30.01"/>
<polygon fill="#63b8ff" stroke="#63b8ff" points="502.45,-64.68 512.97,-65.95 505.55,-58.4 502.45,-64.68"/>
</a>
</g>
</g>
<!-- Node6 -->
<g id="Node000006" class="node">
<title>Node6</title>
<g id="a_Node000006"><a xlink:href="FToolbarCommands_8cpp.html" target="_top" xlink:title="Coffee Toolbar 플러그인의 Slate 명령 정의를 구현합니다.">
<polygon fill="white" stroke="#666666" points="710,-30 489,-30 489,0 710,0 710,-30"/>
<text text-anchor="start" x="497" y="-18" font-family="Malgun Gothic" font-size="10.00">Source/CoffeeToolbar</text>
<text text-anchor="middle" x="599.5" y="-7" font-family="Malgun Gothic" font-size="10.00">/Private/Common/FToolbarCommands.cpp</text>
</a>
</g>
</g>
<!-- Node5&#45;&gt;Node6 -->
<g id="edge5_Node000005_Node000006" class="edge">
<title>Node5&#45;&gt;Node6</title>
<g id="a_edge5_Node000005_Node000006"><a xlink:title=" ">
<path fill="none" stroke="#63b8ff" d="M561.1,-58.37C569.54,-49.06 579.16,-38.44 586.66,-30.16"/>
<polygon fill="#63b8ff" stroke="#63b8ff" points="558.49,-56.04 554.37,-65.8 563.68,-60.74 558.49,-56.04"/>
</a>
</g>
</g>
</g>
</svg>

<g id="navigator" transform="translate(0 0)" fill="#404254">
  <rect fill="#f2f5e9" fill-opacity="0.5" stroke="#606060" stroke-width=".5" x="0" y="0" width="60" height="60"/>
  <use id="zoomplus" xlink:href="#zoomPlus" x="17" y="9" onmousedown="handleZoom(evt,'in')"/>
  <use id="zoomminus" xlink:href="#zoomMin" x="42" y="9" onmousedown="handleZoom(evt,'out')"/>
  <use id="reset" xlink:href="#resetDef" x="30" y="36" onmousedown="handleReset()"/>
   <use id="arrowup" xlink:href="#arrowUp" x="0" y="0" onmousedown="handlePan(0,-1)"/>
  <use id="arrowright" xlink:href="#arrowRight" x="0" y="0" onmousedown="handlePan(1,0)"/>
  <use id="arrowdown" xlink:href="#arrowDown" x="0" y="0" onmousedown="handlePan(0,1)"/>
  <use id="arrowleft" xlink:href="#arrowLeft" x="0" y="0" onmousedown="handlePan(-1,0)"/>
</g>
<svg viewBox="0 0 15 15" width="100%" height="30px" preserveAspectRatio="xMaxYMin meet">
 <g id="arrow_out" transform="scale(0.3 0.3)">
  <a xlink:href="FToolbarStyle_8h__dep__incl_org.svg" target="_base">
   <rect id="button" ry="5" rx="5" y="6" x="6" height="38" width="38"
        fill="#f2f5e9" fill-opacity="0.5" stroke="#606060" stroke-width="1.0"/>
   <path id="arrow"
     d="M 11.500037,31.436501 C 11.940474,20.09759 22.043105,11.32322 32.158766,21.979434 L 37.068811,17.246167 C 37.068811,17.246167 37.088388,32 37.088388,32 L 22.160133,31.978069 C 22.160133,31.978069 26.997745,27.140456 26.997745,27.140456 C 18.528582,18.264221 13.291696,25.230495 11.500037,31.436501 z"
     style="fill:#404040;"/>
  </a>
 </g>
</svg>

<style type='text/css'>
<![CDATA[
[data-mouse-over-selected='false'] { opacity: 0.7; }
[data-mouse-over-selected='true']  { opacity: 1.0; }
]]>
</style>
<script type="application/ecmascript"><![CDATA[
document.addEventListener('DOMContentLoaded', (event) => {
  highlightEdges();
  highlightAdjacentNodes();
});
]]></script>
</svg>
