<?xml version="1.0" encoding="UTF-8" standalone="no"?>
<!DOCTYPE svg PUBLIC "-//W3C//DTD SVG 1.1//EN"
 "http://www.w3.org/Graphics/SVG/1.1/DTD/svg11.dtd">
<!-- Generated by graphviz version 2.43.0 (0)
 -->
<!-- Title: Source/CoffeeToolbar/Public/Settings/FToolbarButtonInfo.h Pages: 1 -->
<svg width="993pt" height="181pt"
 viewBox="0.00 0.00 992.50 181.00" xmlns="http://www.w3.org/2000/svg" xmlns:xlink="http://www.w3.org/1999/xlink">
<g id="graph0" class="graph" transform="scale(1 1) rotate(0) translate(4 177)">
<title>Source/CoffeeToolbar/Public/Settings/FToolbarButtonInfo.h</title>
<!-- Node1 -->
<g id="Node000001" class="node">
<title>Node1</title>
<g id="a_Node000001"><a xlink:title="커스터마이즈 가능한 Coffee Toolbar 버튼 정보를 선언합니다.">
<polygon fill="#999999" stroke="#666666" points="412,-173 245,-173 245,-132 412,-132 412,-173"/>
<text text-anchor="start" x="253" y="-161" font-family="Malgun Gothic" font-size="10.00">Source/CoffeeToolbar</text>
<text text-anchor="start" x="253" y="-150" font-family="Malgun Gothic" font-size="10.00">/Public/Settings/FToolbarButton</text>
<text text-anchor="middle" x="328.5" y="-139" font-family="Malgun Gothic" font-size="10.00">Info.h</text>
</a>
</g>
</g>
<!-- Node2 -->
<g id="Node000002" class="node">
<title>Node2</title>
<g id="a_Node000002"><a xlink:href="UToolbarSettings_8cpp.html" target="_top" xlink:title="Coffee Toolbar 플러그인의 설정 헬퍼 기능을 구현합니다.">
<polygon fill="white" stroke="#666666" points="203,-30 0,-30 0,0 203,0 203,-30"/>
<text text-anchor="start" x="8" y="-18" font-family="Malgun Gothic" font-size="10.00">Source/CoffeeToolbar</text>
<text text-anchor="middle" x="101.5" y="-7" font-family="Malgun Gothic" font-size="10.00">/Private/Settings/UToolbarSettings.cpp</text>
</a>
</g>
</g>
<!-- Node1&#45;&gt;Node2 -->
<g id="edge1_Node000001_Node000002" class="edge">
<title>Node1&#45;&gt;Node2</title>
<g id="a_edge1_Node000001_Node000002"><a xlink:title=" ">
<path fill="none" stroke="#63b8ff" d="M286.68,-126.54C239.21,-98.2 163.4,-52.95 125.18,-30.13"/>
<polygon fill="#63b8ff" stroke="#63b8ff" points="285.11,-129.68 295.49,-131.8 288.7,-123.67 285.11,-129.68"/>
</a>
</g>
</g>
<!-- Node3 -->
<g id="Node000003" class="node">
<title>Node3</title>
<g id="a_Node000003"><a xlink:href="UToolbarSettings_8h.html" target="_top" xlink:title="Coffee Toolbar 플러그인을 구성하기 위한 개발자 설정을 선언합니다.">
<polygon fill="white" stroke="#666666" points="537.5,-96 351.5,-96 351.5,-66 537.5,-66 537.5,-96"/>
<text text-anchor="start" x="359.5" y="-84" font-family="Malgun Gothic" font-size="10.00">Source/CoffeeToolbar</text>
<text text-anchor="middle" x="444.5" y="-73" font-family="Malgun Gothic" font-size="10.00">/Public/Settings/UToolbarSettings.h</text>
</a>
</g>
</g>
<!-- Node1&#45;&gt;Node3 -->
<g id="edge2_Node000001_Node000003" class="edge">
<title>Node1&#45;&gt;Node3</title>
<g id="a_edge2_Node000001_Node000003"><a xlink:title=" ">
<path fill="none" stroke="#63b8ff" d="M369.86,-126.72C387.01,-116.44 406.28,-104.9 420.94,-96.11"/>
<polygon fill="#63b8ff" stroke="#63b8ff" points="367.9,-123.81 361.12,-131.96 371.5,-129.82 367.9,-123.81"/>
</a>
</g>
</g>
<!-- Node3&#45;&gt;Node2 -->
<g id="edge7_Node000003_Node000002" class="edge">
<title>Node3&#45;&gt;Node2</title>
<g id="a_edge7_Node000003_Node000002"><a xlink:title=" ">
<path fill="none" stroke="#63b8ff" d="M359.31,-64.11C303.24,-53.64 230.51,-40.07 176.6,-30.01"/>
<polygon fill="#63b8ff" stroke="#63b8ff" points="358.75,-67.56 369.23,-65.95 360.04,-60.68 358.75,-67.56"/>
</a>
</g>
</g>
<!-- Node4 -->
<g id="Node000004" class="node">
<title>Node4</title>
<g id="a_Node000004"><a xlink:href="FCommandFeature_8cpp.html" target="_top" xlink:title="Coffee Toolbar용 명령 실행 보조 기능을 구현합니다.">
<polygon fill="white" stroke="#666666" points="444.5,-30 220.5,-30 220.5,0 444.5,0 444.5,-30"/>
<text text-anchor="start" x="228.5" y="-18" font-family="Malgun Gothic" font-size="10.00">Source/CoffeeToolbar</text>
<text text-anchor="middle" x="332.5" y="-7" font-family="Malgun Gothic" font-size="10.00">/Private/Command/FCommandFeature.cpp</text>
</a>
</g>
</g>
<!-- Node3&#45;&gt;Node4 -->
<g id="edge3_Node000003_Node000004" class="edge">
<title>Node3&#45;&gt;Node4</title>
<g id="a_edge3_Node000003_Node000004"><a xlink:title=" ">
<path fill="none" stroke="#63b8ff" d="M411.19,-60.97C393.81,-51.03 372.91,-39.09 357.02,-30.01"/>
<polygon fill="#63b8ff" stroke="#63b8ff" points="409.5,-64.03 419.92,-65.95 412.98,-57.95 409.5,-64.03"/>
</a>
</g>
</g>
<!-- Node5 -->
<g id="Node000005" class="node">
<title>Node5</title>
<g id="a_Node000005"><a xlink:href="FToolbarStyle_8cpp.html" target="_top" xlink:title="Coffee Toolbar 플러그인의 Slate 스타일 등록을 구현합니다.">
<polygon fill="white" stroke="#666666" points="652.5,-30 462.5,-30 462.5,0 652.5,0 652.5,-30"/>
<text text-anchor="start" x="470.5" y="-18" font-family="Malgun Gothic" font-size="10.00">Source/CoffeeToolbar</text>
<text text-anchor="middle" x="557.5" y="-7" font-family="Malgun Gothic" font-size="10.00">/Private/Common/FToolbarStyle.cpp</text>
</a>
</g>
</g>
<!-- Node3&#45;&gt;Node5 -->
<g id="edge4_Node000003_Node000005" class="edge">
<title>Node3&#45;&gt;Node5</title>
<g id="a_edge4_Node000003_Node000005"><a xlink:title=" ">
<path fill="none" stroke="#63b8ff" d="M478.1,-60.97C495.64,-51.03 516.73,-39.09 532.76,-30.01"/>
<polygon fill="#63b8ff" stroke="#63b8ff" points="476.27,-57.98 469.3,-65.95 479.72,-64.07 476.27,-57.98"/>
</a>
</g>
</g>
<!-- Node6 -->
<g id="Node000006" class="node">
<title>Node6</title>
<g id="a_Node000006"><a xlink:href="FToolbar_8cpp.html" target="_top" xlink:title="Coffee Toolbar 모듈의 라이프사이클과 메뉴 등록 로직을 구현합니다.">
<polygon fill="white" stroke="#666666" points="790,-30 671,-30 671,0 790,0 790,-30"/>
<text text-anchor="start" x="679" y="-18" font-family="Malgun Gothic" font-size="10.00">Source/CoffeeToolbar</text>
<text text-anchor="middle" x="730.5" y="-7" font-family="Malgun Gothic" font-size="10.00">/Private/FToolbar.cpp</text>
</a>
</g>
</g>
<!-- Node3&#45;&gt;Node6 -->
<g id="edge5_Node000003_Node000006" class="edge">
<title>Node3&#45;&gt;Node6</title>
<g id="a_edge5_Node000003_Node000006"><a xlink:title=" ">
<path fill="none" stroke="#63b8ff" d="M517.19,-63.73C564.75,-53.09 626.12,-39.36 670.82,-29.36"/>
<polygon fill="#63b8ff" stroke="#63b8ff" points="516.26,-60.36 507.26,-65.95 517.79,-67.19 516.26,-60.36"/>
</a>
</g>
</g>
<!-- Node7 -->
<g id="Node000007" class="node">
<title>Node7</title>
<g id="a_Node000007"><a xlink:href="FLevelFeature_8cpp.html" target="_top" xlink:title="Coffee Toolbar에서 레벨 선택을 돕는 헬퍼 기능을 구현합니다.">
<polygon fill="white" stroke="#666666" points="984.5,-30 808.5,-30 808.5,0 984.5,0 984.5,-30"/>
<text text-anchor="start" x="816.5" y="-18" font-family="Malgun Gothic" font-size="10.00">Source/CoffeeToolbar</text>
<text text-anchor="middle" x="896.5" y="-7" font-family="Malgun Gothic" font-size="10.00">/Private/Level/FLevelFeature.cpp</text>
</a>
</g>
</g>
<!-- Node3&#45;&gt;Node7 -->
<g id="edge6_Node000003_Node000007" class="edge">
<title>Node3&#45;&gt;Node7</title>
<g id="a_edge6_Node000003_Node000007"><a xlink:title=" ">
<path fill="none" stroke="#63b8ff" d="M547.83,-65.54C618.67,-55.61 714.78,-42.08 799.5,-30 802.45,-29.58 805.45,-29.15 808.47,-28.72"/>
<polygon fill="#63b8ff" stroke="#63b8ff" points="546.99,-62.13 537.57,-66.98 547.96,-69.06 546.99,-62.13"/>
</a>
</g>
</g>
</g>
</svg>
