<?xml version="1.0" encoding="UTF-8" standalone="no"?>
<!DOCTYPE svg PUBLIC "-//W3C//DTD SVG 1.1//EN"
 "http://www.w3.org/Graphics/SVG/1.1/DTD/svg11.dtd">
<!-- Generated by graphviz version 2.43.0 (0)
 -->
<!-- Title: Source/CoffeeToolbar/Public/FToolbar.h Pages: 1 -->
<svg width="1094pt" height="170pt"
 viewBox="0.00 0.00 1094.00 170.00" xmlns="http://www.w3.org/2000/svg" xmlns:xlink="http://www.w3.org/1999/xlink">
<g id="graph0" class="graph" transform="scale(1 1) rotate(0) translate(4 166)">
<title>Source/CoffeeToolbar/Public/FToolbar.h</title>
<!-- Node1 -->
<g id="Node000001" class="node">
<title>Node1</title>
<g id="a_Node000001"><a xlink:title="CoffeeToolbar 플러그인의 주요 모듈 구현을 선언합니다.">
<polygon fill="#999999" stroke="#666666" points="532.5,-162 413.5,-162 413.5,-132 532.5,-132 532.5,-162"/>
<text text-anchor="start" x="421.5" y="-150" font-family="Malgun Gothic" font-size="10.00">Source/CoffeeToolbar</text>
<text text-anchor="middle" x="473" y="-139" font-family="Malgun Gothic" font-size="10.00">/Public/FToolbar.h</text>
</a>
</g>
</g>
<!-- Node2 -->
<g id="Node000002" class="node">
<title>Node2</title>
<g id="a_Node000002"><a xlink:title=" ">
<polygon fill="#e0e0e0" stroke="#999999" points="148,-90.5 0,-90.5 0,-71.5 148,-71.5 148,-90.5"/>
<text text-anchor="middle" x="74" y="-78.5" font-family="Malgun Gothic" font-size="10.00">Modules/ModuleManager.h</text>
</a>
</g>
</g>
<!-- Node1&#45;&gt;Node2 -->
<g id="edge1_Node000001_Node000002" class="edge">
<title>Node1&#45;&gt;Node2</title>
<g id="a_edge1_Node000001_Node000002"><a xlink:title=" ">
<path fill="none" stroke="#63b8ff" d="M413.27,-136.73C349.71,-126.83 246.21,-110.58 157,-96 149.58,-94.79 141.79,-93.5 134.08,-92.21"/>
<polygon fill="#63b8ff" stroke="#63b8ff" points="134.46,-88.72 124.02,-90.52 133.31,-95.63 134.46,-88.72"/>
</a>
</g>
</g>
<!-- Node3 -->
<g id="Node000003" class="node">
<title>Node3</title>
<g id="a_Node000003"><a xlink:href="FLevelFeature_8h.html" target="_top" xlink:title="툴바에 레벨 선택 컨트롤을 제공하는 기능을 선언합니다.">
<polygon fill="white" stroke="#666666" points="986,-90.5 862,-90.5 862,-71.5 986,-71.5 986,-90.5"/>
<text text-anchor="middle" x="924" y="-78.5" font-family="Malgun Gothic" font-size="10.00">Level/FLevelFeature.h</text>
</a>
</g>
</g>
<!-- Node1&#45;&gt;Node3 -->
<g id="edge2_Node000001_Node000003" class="edge">
<title>Node1&#45;&gt;Node3</title>
<g id="a_edge2_Node000001_Node000003"><a xlink:title=" ">
<path fill="none" stroke="#63b8ff" d="M532.74,-139.34C607.73,-130.69 740.23,-114.52 853,-96 859.58,-94.92 866.48,-93.69 873.29,-92.41"/>
<polygon fill="#63b8ff" stroke="#63b8ff" points="873.99,-95.84 883.16,-90.52 872.68,-88.96 873.99,-95.84"/>
</a>
</g>
</g>
<!-- Node8 -->
<g id="Node000008" class="node">
<title>Node8</title>
<g id="a_Node000008"><a xlink:href="FScreenshotFeature_8h.html" target="_top" xlink:title="툴바의 스크린샷 워크플로우 버튼을 위한 헬퍼를 선언합니다.">
<polygon fill="white" stroke="#666666" points="653.5,-90.5 474.5,-90.5 474.5,-71.5 653.5,-71.5 653.5,-90.5"/>
<text text-anchor="middle" x="564" y="-78.5" font-family="Malgun Gothic" font-size="10.00">Screenshot/FScreenshotFeature.h</text>
</a>
</g>
</g>
<!-- Node1&#45;&gt;Node8 -->
<g id="edge7_Node000001_Node000008" class="edge">
<title>Node1&#45;&gt;Node8</title>
<g id="a_edge7_Node000001_Node000008"><a xlink:title=" ">
<path fill="none" stroke="#63b8ff" d="M493.2,-131.8C508.03,-121.37 528.11,-107.24 543.11,-96.69"/>
<polygon fill="#63b8ff" stroke="#63b8ff" points="545.52,-99.27 551.69,-90.66 541.5,-93.55 545.52,-99.27"/>
</a>
</g>
</g>
<!-- Node9 -->
<g id="Node000009" class="node">
<title>Node9</title>
<g id="a_Node000009"><a xlink:href="FCommandFeature_8h.html" target="_top" xlink:title="명령형 버튼을 담당하는 툴바 기능을 선언합니다.">
<polygon fill="white" stroke="#666666" points="844,-90.5 672,-90.5 672,-71.5 844,-71.5 844,-90.5"/>
<text text-anchor="middle" x="758" y="-78.5" font-family="Malgun Gothic" font-size="10.00">Command/FCommandFeature.h</text>
</a>
</g>
</g>
<!-- Node1&#45;&gt;Node9 -->
<g id="edge10_Node000001_Node000009" class="edge">
<title>Node1&#45;&gt;Node9</title>
<g id="a_edge10_Node000001_Node000009"><a xlink:title=" ">
<path fill="none" stroke="#63b8ff" d="M532.75,-132.58C585.47,-120.74 661.33,-103.71 710.14,-92.75"/>
<polygon fill="#63b8ff" stroke="#63b8ff" points="711.14,-96.11 720.13,-90.5 709.6,-89.28 711.14,-96.11"/>
</a>
</g>
</g>
<!-- Node10 -->
<g id="Node000010" class="node">
<title>Node10</title>
<g id="a_Node000010"><a xlink:href="FolderFeature_8h.html" target="_top" xlink:title=" ">
<polygon fill="white" stroke="#666666" points="291.5,-90.5 166.5,-90.5 166.5,-71.5 291.5,-71.5 291.5,-90.5"/>
<text text-anchor="middle" x="229" y="-78.5" font-family="Malgun Gothic" font-size="10.00">Folder/FolderFeature.h</text>
</a>
</g>
</g>
<!-- Node1&#45;&gt;Node10 -->
<g id="edge14_Node000001_Node000010" class="edge">
<title>Node1&#45;&gt;Node10</title>
<g id="a_edge14_Node000001_Node000010"><a xlink:title=" ">
<path fill="none" stroke="#63b8ff" d="M419.45,-131.95C374.87,-120.26 312.26,-103.84 271.17,-93.06"/>
<polygon fill="#63b8ff" stroke="#63b8ff" points="272.03,-89.67 261.47,-90.52 270.26,-96.44 272.03,-89.67"/>
</a>
</g>
</g>
<!-- Node11 -->
<g id="Node000011" class="node">
<title>Node11</title>
<g id="a_Node000011"><a xlink:href="FNetworkTestFeature_8h.html" target="_top" xlink:title="네트워크 API 테스트 기능을 제공합니다.">
<polygon fill="white" stroke="#666666" points="456.5,-96 309.5,-96 309.5,-66 456.5,-66 456.5,-96"/>
<text text-anchor="start" x="317.5" y="-84" font-family="Malgun Gothic" font-size="10.00">NetworkTest/FNetworkTest</text>
<text text-anchor="middle" x="383" y="-73" font-family="Malgun Gothic" font-size="10.00">Feature.h</text>
</a>
</g>
</g>
<!-- Node1&#45;&gt;Node11 -->
<g id="edge16_Node000001_Node000011" class="edge">
<title>Node1&#45;&gt;Node11</title>
<g id="a_edge16_Node000001_Node000011"><a xlink:title=" ">
<path fill="none" stroke="#63b8ff" d="M453.03,-131.8C440.79,-123.1 424.94,-111.82 411.41,-102.2"/>
<polygon fill="#63b8ff" stroke="#63b8ff" points="413.1,-99.11 402.92,-96.16 409.04,-104.81 413.1,-99.11"/>
</a>
</g>
</g>
<!-- Node4 -->
<g id="Node000004" class="node">
<title>Node4</title>
<g id="a_Node000004"><a xlink:title=" ">
<polygon fill="#e0e0e0" stroke="#999999" points="608,-24.5 520,-24.5 520,-5.5 608,-5.5 608,-24.5"/>
<text text-anchor="middle" x="564" y="-12.5" font-family="Malgun Gothic" font-size="10.00">CoreMinimal.h</text>
</a>
</g>
</g>
<!-- Node3&#45;&gt;Node4 -->
<g id="edge3_Node000003_Node000004" class="edge">
<title>Node3&#45;&gt;Node4</title>
<g id="a_edge3_Node000003_Node000004"><a xlink:title=" ">
<path fill="none" stroke="#63b8ff" d="M881.61,-71.47C872.2,-69.63 862.27,-67.71 853,-66 771.29,-50.88 676.31,-34.72 618.18,-24.99"/>
<polygon fill="#63b8ff" stroke="#63b8ff" points="618.56,-21.5 608.12,-23.3 617.41,-28.4 618.56,-21.5"/>
</a>
</g>
</g>
<!-- Node5 -->
<g id="Node000005" class="node">
<title>Node5</title>
<g id="a_Node000005"><a xlink:title=" ">
<polygon fill="#e0e0e0" stroke="#999999" points="773.5,-24.5 664.5,-24.5 664.5,-5.5 773.5,-5.5 773.5,-24.5"/>
<text text-anchor="middle" x="719" y="-12.5" font-family="Malgun Gothic" font-size="10.00">Widgets/SWidget.h</text>
</a>
</g>
</g>
<!-- Node3&#45;&gt;Node5 -->
<g id="edge4_Node000003_Node000005" class="edge">
<title>Node3&#45;&gt;Node5</title>
<g id="a_edge4_Node000003_Node000005"><a xlink:title=" ">
<path fill="none" stroke="#63b8ff" d="M896.35,-71.37C860.18,-60.08 796.67,-40.25 756.28,-27.64"/>
<polygon fill="#63b8ff" stroke="#63b8ff" points="757.12,-24.24 746.54,-24.6 755.04,-30.92 757.12,-24.24"/>
</a>
</g>
</g>
<!-- Node6 -->
<g id="Node000006" class="node">
<title>Node6</title>
<g id="a_Node000006"><a xlink:title=" ">
<polygon fill="#e0e0e0" stroke="#999999" points="922,-30 792,-30 792,0 922,0 922,-30"/>
<text text-anchor="start" x="800" y="-18" font-family="Malgun Gothic" font-size="10.00">Framework/Commands</text>
<text text-anchor="middle" x="857" y="-7" font-family="Malgun Gothic" font-size="10.00">/UIAction.h</text>
</a>
</g>
</g>
<!-- Node3&#45;&gt;Node6 -->
<g id="edge5_Node000003_Node000006" class="edge">
<title>Node3&#45;&gt;Node6</title>
<g id="a_edge5_Node000003_Node000006"><a xlink:title=" ">
<path fill="none" stroke="#63b8ff" d="M914.96,-71.37C905.79,-62.61 891.25,-48.71 879.02,-37.04"/>
<polygon fill="#63b8ff" stroke="#63b8ff" points="881.43,-34.49 871.78,-30.12 876.59,-39.55 881.43,-34.49"/>
</a>
</g>
</g>
<!-- Node7 -->
<g id="Node000007" class="node">
<title>Node7</title>
<g id="a_Node000007"><a xlink:title=" ">
<polygon fill="#e0e0e0" stroke="#999999" points="1086,-24.5 940,-24.5 940,-5.5 1086,-5.5 1086,-24.5"/>
<text text-anchor="middle" x="1013" y="-12.5" font-family="Malgun Gothic" font-size="10.00">AssetRegistry/AssetData.h</text>
</a>
</g>
</g>
<!-- Node3&#45;&gt;Node7 -->
<g id="edge6_Node000003_Node000007" class="edge">
<title>Node3&#45;&gt;Node7</title>
<g id="a_edge6_Node000003_Node000007"><a xlink:title=" ">
<path fill="none" stroke="#63b8ff" d="M936,-71.37C950.47,-60.97 975.01,-43.32 992.49,-30.75"/>
<polygon fill="#63b8ff" stroke="#63b8ff" points="994.83,-33.38 1000.9,-24.7 990.74,-27.7 994.83,-33.38"/>
</a>
</g>
</g>
<!-- Node8&#45;&gt;Node4 -->
<g id="edge8_Node000008_Node000004" class="edge">
<title>Node8&#45;&gt;Node4</title>
<g id="a_edge8_Node000008_Node000004"><a xlink:title=" ">
<path fill="none" stroke="#63b8ff" d="M564,-71.37C564,-62.16 564,-47.29 564,-35.27"/>
<polygon fill="#63b8ff" stroke="#63b8ff" points="567.5,-34.91 564,-24.91 560.5,-34.91 567.5,-34.91"/>
</a>
</g>
</g>
<!-- Node8&#45;&gt;Node5 -->
<g id="edge9_Node000008_Node000005" class="edge">
<title>Node8&#45;&gt;Node5</title>
<g id="a_edge9_Node000008_Node000005"><a xlink:title=" ">
<path fill="none" stroke="#63b8ff" d="M584.9,-71.37C611.6,-60.35 657.99,-41.19 688.59,-28.55"/>
<polygon fill="#63b8ff" stroke="#63b8ff" points="690.02,-31.75 697.93,-24.7 687.35,-25.28 690.02,-31.75"/>
</a>
</g>
</g>
<!-- Node9&#45;&gt;Node4 -->
<g id="edge11_Node000009_Node000004" class="edge">
<title>Node9&#45;&gt;Node4</title>
<g id="a_edge11_Node000009_Node000004"><a xlink:title=" ">
<path fill="none" stroke="#63b8ff" d="M731.84,-71.37C697.75,-60.12 638.01,-40.42 599.76,-27.8"/>
<polygon fill="#63b8ff" stroke="#63b8ff" points="600.65,-24.41 590.06,-24.6 598.46,-31.05 600.65,-24.41"/>
</a>
</g>
</g>
<!-- Node9&#45;&gt;Node5 -->
<g id="edge12_Node000009_Node000005" class="edge">
<title>Node9&#45;&gt;Node5</title>
<g id="a_edge12_Node000009_Node000005"><a xlink:title=" ">
<path fill="none" stroke="#63b8ff" d="M752.74,-71.37C746.9,-61.78 737.31,-46.05 729.85,-33.8"/>
<polygon fill="#63b8ff" stroke="#63b8ff" points="732.62,-31.62 724.43,-24.91 726.64,-35.27 732.62,-31.62"/>
</a>
</g>
</g>
<!-- Node9&#45;&gt;Node6 -->
<g id="edge13_Node000009_Node000006" class="edge">
<title>Node9&#45;&gt;Node6</title>
<g id="a_edge13_Node000009_Node000006"><a xlink:title=" ">
<path fill="none" stroke="#63b8ff" d="M771.35,-71.37C785.48,-62.24 808.23,-47.53 826.74,-35.56"/>
<polygon fill="#63b8ff" stroke="#63b8ff" points="828.67,-38.48 835.16,-30.12 824.87,-32.61 828.67,-38.48"/>
</a>
</g>
</g>
<!-- Node10&#45;&gt;Node4 -->
<g id="edge15_Node000010_Node000004" class="edge">
<title>Node10&#45;&gt;Node4</title>
<g id="a_edge15_Node000010_Node000004"><a xlink:title=" ">
<path fill="none" stroke="#63b8ff" d="M272.17,-71.43C281.35,-69.63 291,-67.74 300,-66 372.5,-51.99 456.28,-36.19 509.67,-26.17"/>
<polygon fill="#63b8ff" stroke="#63b8ff" points="510.42,-29.59 519.61,-24.3 509.13,-22.71 510.42,-29.59"/>
</a>
</g>
</g>
<!-- Node11&#45;&gt;Node4 -->
<g id="edge17_Node000011_Node000004" class="edge">
<title>Node11&#45;&gt;Node4</title>
<g id="a_edge17_Node000011_Node000004"><a xlink:title=" ">
<path fill="none" stroke="#63b8ff" d="M422.72,-65.95C454.88,-54.58 499.7,-38.74 530.17,-27.96"/>
<polygon fill="#63b8ff" stroke="#63b8ff" points="531.65,-31.15 539.91,-24.52 529.32,-24.55 531.65,-31.15"/>
</a>
</g>
</g>
</g>
</svg>
