<?xml version="1.0" encoding="UTF-8" standalone="no"?>
<!DOCTYPE svg PUBLIC "-//W3C//DTD SVG 1.1//EN"
 "http://www.w3.org/Graphics/SVG/1.1/DTD/svg11.dtd">
<!-- Generated by graphviz version 2.43.0 (0)
 -->
<!-- Title: Source/CoffeeToolbar/Public/Settings/FToolbarButtonInfo.h Pages: 1 -->
<!--zoomable 181 -->

<svg id="main" version="1.1" xmlns="http://www.w3.org/2000/svg" xmlns:xlink="http://www.w3.org/1999/xlink" xml:space="preserve" onload="init(evt)">
<style type="text/css"><![CDATA[
.node, .edge {opacity: 0.7;}
.node.selected, .edge.selected {opacity: 1;}
.edge:hover path { stroke: red; }
.edge:hover polygon { stroke: red; fill: red; }
]]></style>

<defs>
  <circle id="rim" cx="0" cy="0" r="7"/>
  <circle id="rim2" cx="0" cy="0" r="3.5"/>
  <g id="zoomPlus">
    <use xlink:href="#rim" fill="#404040"><set attributeName="fill" to="#808080" begin="zoomplus.mouseover" end="zoomplus.mouseout"/></use>
    <path d="M-4,0h8M0,-4v8" fill="none" stroke="white" stroke-width="1.5" pointer-events="none"/>
  </g>
  <g id="zoomMin">
    <use xlink:href="#rim" fill="#404040"><set attributeName="fill" to="#808080" begin="zoomminus.mouseover" end="zoomminus.mouseout"/></use>
    <path d="M-4,0h8" fill="none" stroke="white" stroke-width="1.5" pointer-events="none"/>
  </g>
  <g id="arrowUp" transform="translate(30 24)">
    <use xlink:href="#rim"/>
    <path pointer-events="none" fill="none" stroke="white" stroke-width="1.5" d="M0,-3.0v7 M-2.5,-0.5L0,-3.0L2.5,-0.5"/>
  </g>
  <g id="arrowRight" transform="rotate(90) translate(36 -43)">
    <use xlink:href="#rim"/>
    <path pointer-events="none" fill="none" stroke="white" stroke-width="1.5" d="M0,-3.0v7 M-2.5,-0.5L0,-3.0L2.5,-0.5"/>
  </g>
  <g id="arrowDown" transform="rotate(180) translate(-30 -48)">
    <use xlink:href="#rim"/>
    <path pointer-events="none" fill="none" stroke="white" stroke-width="1.5" d="M0,-3.0v7 M-2.5,-0.5L0,-3.0L2.5,-0.5"/>
  </g>
  <g id="arrowLeft" transform="rotate(270) translate(-36 17)">
    <use xlink:href="#rim"/>
    <path pointer-events="none" fill="none" stroke="white" stroke-width="1.5" d="M0,-3.0v7 M-2.5,-0.5L0,-3.0L2.5,-0.5"/>
  </g>
  <g id="resetDef">
    <use xlink:href="#rim2" fill="#404040"><set attributeName="fill" to="#808080" begin="reset.mouseover" end="reset.mouseout"/></use>
  </g>
</defs>
<script type="application/ecmascript">
var viewWidth = 1202;
var viewHeight = 181;
var sectionId = 'dynsection-1';
</script>
<script type="application/ecmascript" xlink:href="svg.min.js"/>
<svg id="graph" class="graph">
<g id="viewport">
<title>Source/CoffeeToolbar/Public/Settings/FToolbarButtonInfo.h</title>
<!-- Node1 -->
<g id="Node000001" class="node">
<title>Node1</title>
<g id="a_Node000001"><a xlink:title="커스터마이즈 가능한 Coffee Toolbar 버튼 정보를 선언합니다.">
<polygon fill="#999999" stroke="#666666" points="413,-173 246,-173 246,-132 413,-132 413,-173"/>
<text text-anchor="start" x="254" y="-161" font-family="Malgun Gothic" font-size="10.00">Source/CoffeeToolbar</text>
<text text-anchor="start" x="254" y="-150" font-family="Malgun Gothic" font-size="10.00">/Public/Settings/FToolbarButton</text>
<text text-anchor="middle" x="329.5" y="-139" font-family="Malgun Gothic" font-size="10.00">Info.h</text>
</a>
</g>
</g>
<!-- Node2 -->
<g id="Node000002" class="node">
<title>Node2</title>
<g id="a_Node000002"><a xlink:href="UToolbarSettings_8cpp.html" target="_top" xlink:title="Coffee Toolbar 플러그인의 설정 헬퍼 기능을 구현합니다.">
<polygon fill="white" stroke="#666666" points="203,-30 0,-30 0,0 203,0 203,-30"/>
<text text-anchor="start" x="8" y="-18" font-family="Malgun Gothic" font-size="10.00">Source/CoffeeToolbar</text>
<text text-anchor="middle" x="101.5" y="-7" font-family="Malgun Gothic" font-size="10.00">/Private/Settings/UToolbarSettings.cpp</text>
</a>
</g>
</g>
<!-- Node1&#45;&gt;Node2 -->
<g id="edge1_Node000001_Node000002" class="edge">
<title>Node1&#45;&gt;Node2</title>
<g id="a_edge1_Node000001_Node000002"><a xlink:title=" ">
<path fill="none" stroke="#63b8ff" d="M287.5,-126.54C239.81,-98.2 163.68,-52.95 125.28,-30.13"/>
<polygon fill="#63b8ff" stroke="#63b8ff" points="285.96,-129.7 296.35,-131.8 289.54,-123.68 285.96,-129.7"/>
</a>
</g>
</g>
<!-- Node3 -->
<g id="Node000003" class="node">
<title>Node3</title>
<g id="a_Node000003"><a xlink:href="UToolbarSettings_8h.html" target="_top" xlink:title="Coffee Toolbar 플러그인을 구성하기 위한 개발자 설정을 선언합니다.">
<polygon fill="white" stroke="#666666" points="650.5,-96 464.5,-96 464.5,-66 650.5,-66 650.5,-96"/>
<text text-anchor="start" x="472.5" y="-84" font-family="Malgun Gothic" font-size="10.00">Source/CoffeeToolbar</text>
<text text-anchor="middle" x="557.5" y="-73" font-family="Malgun Gothic" font-size="10.00">/Public/Settings/UToolbarSettings.h</text>
</a>
</g>
</g>
<!-- Node1&#45;&gt;Node3 -->
<g id="edge2_Node000001_Node000003" class="edge">
<title>Node1&#45;&gt;Node3</title>
<g id="a_edge2_Node000001_Node000003"><a xlink:title=" ">
<path fill="none" stroke="#63b8ff" d="M403.48,-128.95C439.06,-118.1 480.59,-105.44 511.56,-96"/>
<polygon fill="#63b8ff" stroke="#63b8ff" points="402.16,-125.69 393.62,-131.96 404.2,-132.39 402.16,-125.69"/>
</a>
</g>
</g>
<!-- Node3&#45;&gt;Node2 -->
<g id="edge8_Node000003_Node000002" class="edge">
<title>Node3&#45;&gt;Node2</title>
<g id="a_edge8_Node000003_Node000002"><a xlink:title=" ">
<path fill="none" stroke="#63b8ff" d="M454.37,-65.53C378.71,-54.91 276.53,-40.57 201.59,-30.05"/>
<polygon fill="#63b8ff" stroke="#63b8ff" points="454.01,-69.01 464.4,-66.93 454.98,-62.08 454.01,-69.01"/>
</a>
</g>
</g>
<!-- Node4 -->
<g id="Node000004" class="node">
<title>Node4</title>
<g id="a_Node000004"><a xlink:href="FCommandFeature_8cpp.html" target="_top" xlink:title="Coffee Toolbar용 명령 실행 보조 기능을 구현합니다.">
<polygon fill="white" stroke="#666666" points="444.5,-30 220.5,-30 220.5,0 444.5,0 444.5,-30"/>
<text text-anchor="start" x="228.5" y="-18" font-family="Malgun Gothic" font-size="10.00">Source/CoffeeToolbar</text>
<text text-anchor="middle" x="332.5" y="-7" font-family="Malgun Gothic" font-size="10.00">/Private/Command/FCommandFeature.cpp</text>
</a>
</g>
</g>
<!-- Node3&#45;&gt;Node4 -->
<g id="edge3_Node000003_Node000004" class="edge">
<title>Node3&#45;&gt;Node4</title>
<g id="a_edge3_Node000003_Node000004"><a xlink:title=" ">
<path fill="none" stroke="#63b8ff" d="M498.16,-63.12C461.88,-52.8 416.03,-39.76 381.76,-30.01"/>
<polygon fill="#63b8ff" stroke="#63b8ff" points="497.55,-66.59 508.12,-65.95 499.46,-59.85 497.55,-66.59"/>
</a>
</g>
</g>
<!-- Node5 -->
<g id="Node000005" class="node">
<title>Node5</title>
<g id="a_Node000005"><a xlink:href="FToolbarStyle_8cpp.html" target="_top" xlink:title="Coffee Toolbar 플러그인의 Slate 스타일 등록을 구현합니다.">
<polygon fill="white" stroke="#666666" points="652.5,-30 462.5,-30 462.5,0 652.5,0 652.5,-30"/>
<text text-anchor="start" x="470.5" y="-18" font-family="Malgun Gothic" font-size="10.00">Source/CoffeeToolbar</text>
<text text-anchor="middle" x="557.5" y="-7" font-family="Malgun Gothic" font-size="10.00">/Private/Common/FToolbarStyle.cpp</text>
</a>
</g>
</g>
<!-- Node3&#45;&gt;Node5 -->
<g id="edge4_Node000003_Node000005" class="edge">
<title>Node3&#45;&gt;Node5</title>
<g id="a_edge4_Node000003_Node000005"><a xlink:title=" ">
<path fill="none" stroke="#63b8ff" d="M557.5,-55.54C557.5,-46.96 557.5,-37.61 557.5,-30.16"/>
<polygon fill="#63b8ff" stroke="#63b8ff" points="554,-55.8 557.5,-65.8 561,-55.8 554,-55.8"/>
</a>
</g>
</g>
<!-- Node6 -->
<g id="Node000006" class="node">
<title>Node6</title>
<g id="a_Node000006"><a xlink:href="FolderFeature_8cpp.html" target="_top" xlink:title=" ">
<polygon fill="white" stroke="#666666" points="862,-30 671,-30 671,0 862,0 862,-30"/>
<text text-anchor="start" x="679" y="-18" font-family="Malgun Gothic" font-size="10.00">Source/CoffeeToolbar</text>
<text text-anchor="middle" x="766.5" y="-7" font-family="Malgun Gothic" font-size="10.00">/Private/Common/FolderFeature.cpp</text>
</a>
</g>
</g>
<!-- Node3&#45;&gt;Node6 -->
<g id="edge5_Node000003_Node000006" class="edge">
<title>Node3&#45;&gt;Node6</title>
<g id="a_edge5_Node000003_Node000006"><a xlink:title=" ">
<path fill="none" stroke="#63b8ff" d="M613.05,-62.99C646.68,-52.69 689.05,-39.72 720.74,-30.01"/>
<polygon fill="#63b8ff" stroke="#63b8ff" points="611.9,-59.68 603.37,-65.95 613.95,-66.37 611.9,-59.68"/>
</a>
</g>
</g>
<!-- Node7 -->
<g id="Node000007" class="node">
<title>Node7</title>
<g id="a_Node000007"><a xlink:href="FToolbar_8cpp.html" target="_top" xlink:title="Coffee Toolbar 모듈의 라이프사이클과 메뉴 등록 로직을 구현합니다.">
<polygon fill="white" stroke="#666666" points="999,-30 880,-30 880,0 999,0 999,-30"/>
<text text-anchor="start" x="888" y="-18" font-family="Malgun Gothic" font-size="10.00">Source/CoffeeToolbar</text>
<text text-anchor="middle" x="939.5" y="-7" font-family="Malgun Gothic" font-size="10.00">/Private/FToolbar.cpp</text>
</a>
</g>
</g>
<!-- Node3&#45;&gt;Node7 -->
<g id="edge6_Node000003_Node000007" class="edge">
<title>Node3&#45;&gt;Node7</title>
<g id="a_edge6_Node000003_Node000007"><a xlink:title=" ">
<path fill="none" stroke="#63b8ff" d="M660.85,-64.74C722.18,-55.39 801.41,-42.79 871.5,-30 874.23,-29.5 877.01,-28.98 879.83,-28.44"/>
<polygon fill="#63b8ff" stroke="#63b8ff" points="660.13,-61.31 650.77,-66.28 661.19,-68.23 660.13,-61.31"/>
</a>
</g>
</g>
<!-- Node8 -->
<g id="Node000008" class="node">
<title>Node8</title>
<g id="a_Node000008"><a xlink:href="FLevelFeature_8cpp.html" target="_top" xlink:title="Coffee Toolbar에서 레벨 선택을 돕는 헬퍼 기능을 구현합니다.">
<polygon fill="white" stroke="#666666" points="1193.5,-30 1017.5,-30 1017.5,0 1193.5,0 1193.5,-30"/>
<text text-anchor="start" x="1025.5" y="-18" font-family="Malgun Gothic" font-size="10.00">Source/CoffeeToolbar</text>
<text text-anchor="middle" x="1105.5" y="-7" font-family="Malgun Gothic" font-size="10.00">/Private/Level/FLevelFeature.cpp</text>
</a>
</g>
</g>
<!-- Node3&#45;&gt;Node8 -->
<g id="edge7_Node000003_Node000008" class="edge">
<title>Node3&#45;&gt;Node8</title>
<g id="a_edge7_Node000003_Node000008"><a xlink:title=" ">
<path fill="none" stroke="#63b8ff" d="M660.99,-69.51C752.47,-59.99 889.49,-45.18 1008.5,-30 1011.45,-29.62 1014.46,-29.23 1017.49,-28.83"/>
<polygon fill="#63b8ff" stroke="#63b8ff" points="660.48,-66.04 650.89,-70.55 661.2,-73 660.48,-66.04"/>
</a>
</g>
</g>
</g>
</svg>

<g id="navigator" transform="translate(0 0)" fill="#404254">
  <rect fill="#f2f5e9" fill-opacity="0.5" stroke="#606060" stroke-width=".5" x="0" y="0" width="60" height="60"/>
  <use id="zoomplus" xlink:href="#zoomPlus" x="17" y="9" onmousedown="handleZoom(evt,'in')"/>
  <use id="zoomminus" xlink:href="#zoomMin" x="42" y="9" onmousedown="handleZoom(evt,'out')"/>
  <use id="reset" xlink:href="#resetDef" x="30" y="36" onmousedown="handleReset()"/>
   <use id="arrowup" xlink:href="#arrowUp" x="0" y="0" onmousedown="handlePan(0,-1)"/>
  <use id="arrowright" xlink:href="#arrowRight" x="0" y="0" onmousedown="handlePan(1,0)"/>
  <use id="arrowdown" xlink:href="#arrowDown" x="0" y="0" onmousedown="handlePan(0,1)"/>
  <use id="arrowleft" xlink:href="#arrowLeft" x="0" y="0" onmousedown="handlePan(-1,0)"/>
</g>
<svg viewBox="0 0 15 15" width="100%" height="30px" preserveAspectRatio="xMaxYMin meet">
 <g id="arrow_out" transform="scale(0.3 0.3)">
  <a xlink:href="FToolbarButtonInfo_8h__dep__incl_org.svg" target="_base">
   <rect id="button" ry="5" rx="5" y="6" x="6" height="38" width="38"
        fill="#f2f5e9" fill-opacity="0.5" stroke="#606060" stroke-width="1.0"/>
   <path id="arrow"
     d="M 11.500037,31.436501 C 11.940474,20.09759 22.043105,11.32322 32.158766,21.979434 L 37.068811,17.246167 C 37.068811,17.246167 37.088388,32 37.088388,32 L 22.160133,31.978069 C 22.160133,31.978069 26.997745,27.140456 26.997745,27.140456 C 18.528582,18.264221 13.291696,25.230495 11.500037,31.436501 z"
     style="fill:#404040;"/>
  </a>
 </g>
</svg>

<style type='text/css'>
<![CDATA[
[data-mouse-over-selected='false'] { opacity: 0.7; }
[data-mouse-over-selected='true']  { opacity: 1.0; }
]]>
</style>
<script type="application/ecmascript"><![CDATA[
document.addEventListener('DOMContentLoaded', (event) => {
  highlightEdges();
  highlightAdjacentNodes();
});
]]></script>
</svg>
