<?xml version="1.0" encoding="UTF-8" standalone="no"?>
<!DOCTYPE svg PUBLIC "-//W3C//DTD SVG 1.1//EN"
 "http://www.w3.org/Graphics/SVG/1.1/DTD/svg11.dtd">
<!-- Generated by graphviz version 2.43.0 (0)
 -->
<!-- Title: Source/CoffeeToolbar/Private/Common/FToolbarStyle.cpp Pages: 1 -->
<svg width="1024pt" height="159pt"
 viewBox="0.00 0.00 1023.50 159.00" xmlns="http://www.w3.org/2000/svg" xmlns:xlink="http://www.w3.org/1999/xlink">
<g id="graph0" class="graph" transform="scale(1 1) rotate(0) translate(4 155)">
<title>Source/CoffeeToolbar/Private/Common/FToolbarStyle.cpp</title>
<!-- Node1 -->
<g id="Node000001" class="node">
<title>Node1</title>
<g id="a_Node000001"><a xlink:title="Coffee Toolbar 플러그인의 Slate 스타일 등록을 구현합니다.">
<polygon fill="#999999" stroke="#666666" points="620,-151 430,-151 430,-121 620,-121 620,-151"/>
<text text-anchor="start" x="438" y="-139" font-family="Malgun Gothic" font-size="10.00">Source/CoffeeToolbar</text>
<text text-anchor="middle" x="525" y="-128" font-family="Malgun Gothic" font-size="10.00">/Private/Common/FToolbarStyle.cpp</text>
</a>
</g>
</g>
<!-- Node2 -->
<g id="Node000002" class="node">
<title>Node2</title>
<g id="a_Node000002"><a xlink:href="FToolbarStyle_8h.html" target="_top" xlink:title="Coffee Toolbar 플러그인이 사용하는 Slate 스타일 세트를 선언합니다.">
<polygon fill="white" stroke="#666666" points="171,-79.5 33,-79.5 33,-60.5 171,-60.5 171,-79.5"/>
<text text-anchor="middle" x="102" y="-67.5" font-family="Malgun Gothic" font-size="10.00">Common/FToolbarStyle.h</text>
</a>
</g>
</g>
<!-- Node1&#45;&gt;Node2 -->
<g id="edge1_Node000001_Node000002" class="edge">
<title>Node1&#45;&gt;Node2</title>
<g id="a_edge1_Node000001_Node000002"><a xlink:title=" ">
<path fill="none" stroke="#63b8ff" d="M432.43,-120.99C352.71,-108.93 239.59,-91.82 168.53,-81.07"/>
<polygon fill="#63b8ff" stroke="#63b8ff" points="168.78,-77.56 158.37,-79.53 167.73,-84.48 168.78,-77.56"/>
</a>
</g>
</g>
<!-- Node4 -->
<g id="Node000004" class="node">
<title>Node4</title>
<g id="a_Node000004"><a xlink:href="UToolbarSettings_8h.html" target="_top" xlink:title="Coffee Toolbar 플러그인을 구성하기 위한 개발자 설정을 선언합니다.">
<polygon fill="white" stroke="#666666" points="363.5,-79.5 212.5,-79.5 212.5,-60.5 363.5,-60.5 363.5,-79.5"/>
<text text-anchor="middle" x="288" y="-67.5" font-family="Malgun Gothic" font-size="10.00">Settings/UToolbarSettings.h</text>
</a>
</g>
</g>
<!-- Node1&#45;&gt;Node4 -->
<g id="edge3_Node000001_Node000004" class="edge">
<title>Node1&#45;&gt;Node4</title>
<g id="a_edge3_Node000001_Node000004"><a xlink:title=" ">
<path fill="none" stroke="#63b8ff" d="M472.99,-120.95C429.78,-109.29 369.13,-92.91 329.22,-82.13"/>
<polygon fill="#63b8ff" stroke="#63b8ff" points="330.11,-78.75 319.54,-79.52 328.28,-85.5 330.11,-78.75"/>
</a>
</g>
</g>
<!-- Node8 -->
<g id="Node000008" class="node">
<title>Node8</title>
<g id="a_Node000008"><a xlink:title=" ">
<polygon fill="#e0e0e0" stroke="#999999" points="510.5,-85 381.5,-85 381.5,-55 510.5,-55 510.5,-85"/>
<text text-anchor="start" x="389.5" y="-73" font-family="Malgun Gothic" font-size="10.00">Framework/Application</text>
<text text-anchor="middle" x="446" y="-62" font-family="Malgun Gothic" font-size="10.00">/SlateApplication.h</text>
</a>
</g>
</g>
<!-- Node1&#45;&gt;Node8 -->
<g id="edge7_Node000001_Node000008" class="edge">
<title>Node1&#45;&gt;Node8</title>
<g id="a_edge7_Node000001_Node000008"><a xlink:title=" ">
<path fill="none" stroke="#63b8ff" d="M507.47,-120.8C496.83,-112.18 483.08,-101.04 471.28,-91.48"/>
<polygon fill="#63b8ff" stroke="#63b8ff" points="473.46,-88.74 463.48,-85.16 469.05,-94.18 473.46,-88.74"/>
</a>
</g>
</g>
<!-- Node9 -->
<g id="Node000009" class="node">
<title>Node9</title>
<g id="a_Node000009"><a xlink:title=" ">
<polygon fill="#e0e0e0" stroke="#999999" points="679.5,-79.5 528.5,-79.5 528.5,-60.5 679.5,-60.5 679.5,-79.5"/>
<text text-anchor="middle" x="604" y="-67.5" font-family="Malgun Gothic" font-size="10.00">Styling/SlateStyleRegistry.h</text>
</a>
</g>
</g>
<!-- Node1&#45;&gt;Node9 -->
<g id="edge8_Node000001_Node000009" class="edge">
<title>Node1&#45;&gt;Node9</title>
<g id="a_edge8_Node000001_Node000009"><a xlink:title=" ">
<path fill="none" stroke="#63b8ff" d="M542.53,-120.8C555.21,-110.53 572.32,-96.67 585.26,-86.18"/>
<polygon fill="#63b8ff" stroke="#63b8ff" points="587.52,-88.86 593.08,-79.84 583.11,-83.42 587.52,-88.86"/>
</a>
</g>
</g>
<!-- Node10 -->
<g id="Node000010" class="node">
<title>Node10</title>
<g id="a_Node000010"><a xlink:title=" ">
<polygon fill="#e0e0e0" stroke="#999999" points="850,-79.5 698,-79.5 698,-60.5 850,-60.5 850,-79.5"/>
<text text-anchor="middle" x="774" y="-67.5" font-family="Malgun Gothic" font-size="10.00">Interfaces/IPluginManager.h</text>
</a>
</g>
</g>
<!-- Node1&#45;&gt;Node10 -->
<g id="edge9_Node000001_Node000010" class="edge">
<title>Node1&#45;&gt;Node10</title>
<g id="a_edge9_Node000001_Node000010"><a xlink:title=" ">
<path fill="none" stroke="#63b8ff" d="M579.64,-120.95C625.14,-109.26 689.04,-92.84 730.96,-82.06"/>
<polygon fill="#63b8ff" stroke="#63b8ff" points="732.05,-85.4 740.86,-79.52 730.31,-78.62 732.05,-85.4"/>
</a>
</g>
</g>
<!-- Node11 -->
<g id="Node000011" class="node">
<title>Node11</title>
<g id="a_Node000011"><a xlink:title=" ">
<polygon fill="#e0e0e0" stroke="#999999" points="1015.5,-79.5 868.5,-79.5 868.5,-60.5 1015.5,-60.5 1015.5,-79.5"/>
<text text-anchor="middle" x="942" y="-67.5" font-family="Malgun Gothic" font-size="10.00">Styling/SlateStyleMacros.h</text>
</a>
</g>
</g>
<!-- Node1&#45;&gt;Node11 -->
<g id="edge10_Node000001_Node000011" class="edge">
<title>Node1&#45;&gt;Node11</title>
<g id="a_edge10_Node000001_Node000011"><a xlink:title=" ">
<path fill="none" stroke="#63b8ff" d="M620.09,-121.24C686.96,-111.45 778.51,-97.81 859,-85 866.61,-83.79 874.61,-82.48 882.51,-81.17"/>
<polygon fill="#63b8ff" stroke="#63b8ff" points="883.14,-84.61 892.43,-79.52 881.99,-77.71 883.14,-84.61"/>
</a>
</g>
</g>
<!-- Node3 -->
<g id="Node000003" class="node">
<title>Node3</title>
<g id="a_Node000003"><a xlink:title=" ">
<polygon fill="#e0e0e0" stroke="#999999" points="112,-19 0,-19 0,0 112,0 112,-19"/>
<text text-anchor="middle" x="56" y="-7" font-family="Malgun Gothic" font-size="10.00">Styling/SlateStyle.h</text>
</a>
</g>
</g>
<!-- Node2&#45;&gt;Node3 -->
<g id="edge2_Node000002_Node000003" class="edge">
<title>Node2&#45;&gt;Node3</title>
<g id="a_edge2_Node000002_Node000003"><a xlink:title=" ">
<path fill="none" stroke="#63b8ff" d="M95.21,-60.37C88.35,-51.64 77.57,-37.93 69.05,-27.09"/>
<polygon fill="#63b8ff" stroke="#63b8ff" points="71.75,-24.86 62.82,-19.17 66.25,-29.19 71.75,-24.86"/>
</a>
</g>
</g>
<!-- Node5 -->
<g id="Node000005" class="node">
<title>Node5</title>
<g id="a_Node000005"><a xlink:title=" ">
<polygon fill="#e0e0e0" stroke="#999999" points="218,-19 130,-19 130,0 218,0 218,-19"/>
<text text-anchor="middle" x="174" y="-7" font-family="Malgun Gothic" font-size="10.00">CoreMinimal.h</text>
</a>
</g>
</g>
<!-- Node4&#45;&gt;Node5 -->
<g id="edge4_Node000004_Node000005" class="edge">
<title>Node4&#45;&gt;Node5</title>
<g id="a_edge4_Node000004_Node000005"><a xlink:title=" ">
<path fill="none" stroke="#63b8ff" d="M271.18,-60.37C252.4,-50.73 221.8,-35.03 199.95,-23.81"/>
<polygon fill="#63b8ff" stroke="#63b8ff" points="201.39,-20.62 190.89,-19.17 198.19,-26.85 201.39,-20.62"/>
</a>
</g>
</g>
<!-- Node6 -->
<g id="Node000006" class="node">
<title>Node6</title>
<g id="a_Node000006"><a xlink:title=" ">
<polygon fill="#e0e0e0" stroke="#999999" points="388,-19 236,-19 236,0 388,0 388,-19"/>
<text text-anchor="middle" x="312" y="-7" font-family="Malgun Gothic" font-size="10.00">Engine/DeveloperSettings.h</text>
</a>
</g>
</g>
<!-- Node4&#45;&gt;Node6 -->
<g id="edge5_Node000004_Node000006" class="edge">
<title>Node4&#45;&gt;Node6</title>
<g id="a_edge5_Node000004_Node000006"><a xlink:title=" ">
<path fill="none" stroke="#63b8ff" d="M291.54,-60.37C294.94,-52.07 300.19,-39.28 304.52,-28.72"/>
<polygon fill="#63b8ff" stroke="#63b8ff" points="307.89,-29.75 308.44,-19.17 301.41,-27.09 307.89,-29.75"/>
</a>
</g>
</g>
<!-- Node7 -->
<g id="Node000007" class="node">
<title>Node7</title>
<g id="a_Node000007"><a xlink:title=" ">
<polygon fill="#e0e0e0" stroke="#999999" points="567.5,-19 406.5,-19 406.5,0 567.5,0 567.5,-19"/>
<text text-anchor="middle" x="487" y="-7" font-family="Malgun Gothic" font-size="10.00">UToolbarSettings.generated.h</text>
</a>
</g>
</g>
<!-- Node4&#45;&gt;Node7 -->
<g id="edge6_Node000004_Node000007" class="edge">
<title>Node4&#45;&gt;Node7</title>
<g id="a_edge6_Node000004_Node000007"><a xlink:title=" ">
<path fill="none" stroke="#63b8ff" d="M316.94,-60.49C351.57,-50.31 409.7,-33.22 448.21,-21.9"/>
<polygon fill="#63b8ff" stroke="#63b8ff" points="449.42,-25.2 458.03,-19.02 447.45,-18.48 449.42,-25.2"/>
</a>
</g>
</g>
</g>
</svg>
