<?xml version="1.0" encoding="UTF-8" standalone="no"?>
<!DOCTYPE svg PUBLIC "-//W3C//DTD SVG 1.1//EN"
 "http://www.w3.org/Graphics/SVG/1.1/DTD/svg11.dtd">
<!-- Generated by graphviz version 2.43.0 (0)
 -->
<!-- Title: Source/CoffeeToolbar/Private/FToolbar.cpp Pages: 1 -->
<svg width="2144pt" height="225pt"
 viewBox="0.00 0.00 2144.00 225.00" xmlns="http://www.w3.org/2000/svg" xmlns:xlink="http://www.w3.org/1999/xlink">
<g id="graph0" class="graph" transform="scale(1 1) rotate(0) translate(4 221)">
<title>Source/CoffeeToolbar/Private/FToolbar.cpp</title>
<!-- Node1 -->
<g id="Node000001" class="node">
<title>Node1</title>
<g id="a_Node000001"><a xlink:title="Coffee Toolbar 모듈의 라이프사이클과 메뉴 등록 로직을 구현합니다.">
<polygon fill="#999999" stroke="#666666" points="1321.5,-217 1202.5,-217 1202.5,-187 1321.5,-187 1321.5,-217"/>
<text text-anchor="start" x="1210.5" y="-205" font-family="Malgun Gothic" font-size="10.00">Source/CoffeeToolbar</text>
<text text-anchor="middle" x="1262" y="-194" font-family="Malgun Gothic" font-size="10.00">/Private/FToolbar.cpp</text>
</a>
</g>
</g>
<!-- Node2 -->
<g id="Node000002" class="node">
<title>Node2</title>
<g id="a_Node000002"><a xlink:href="FToolbar_8h.html" target="_top" xlink:title="CoffeeToolbar 플러그인의 주요 모듈 구현을 선언합니다.">
<polygon fill="white" stroke="#666666" points="604.5,-151 539.5,-151 539.5,-132 604.5,-132 604.5,-151"/>
<text text-anchor="middle" x="572" y="-139" font-family="Malgun Gothic" font-size="10.00">FToolbar.h</text>
</a>
</g>
</g>
<!-- Node1&#45;&gt;Node2 -->
<g id="edge1_Node000001_Node000002" class="edge">
<title>Node1&#45;&gt;Node2</title>
<g id="a_edge1_Node000001_Node000002"><a xlink:title=" ">
<path fill="none" stroke="#63b8ff" d="M1202.27,-195.94C1065.78,-184.36 733.66,-156.21 615.01,-146.15"/>
<polygon fill="#63b8ff" stroke="#63b8ff" points="615.13,-142.64 604.87,-145.29 614.54,-149.62 615.13,-142.64"/>
</a>
</g>
</g>
<!-- Node3 -->
<g id="Node000003" class="node">
<title>Node3</title>
<g id="a_Node000003"><a xlink:title=" ">
<polygon fill="#e0e0e0" stroke="#999999" points="148,-90.5 0,-90.5 0,-71.5 148,-71.5 148,-90.5"/>
<text text-anchor="middle" x="74" y="-78.5" font-family="Malgun Gothic" font-size="10.00">Modules/ModuleManager.h</text>
</a>
</g>
</g>
<!-- Node1&#45;&gt;Node3 -->
<g id="edge39_Node000001_Node000003" class="edge">
<title>Node1&#45;&gt;Node3</title>
<g id="a_edge39_Node000001_Node000003"><a xlink:title=" ">
<path fill="none" stroke="#63b8ff" d="M1202.36,-200.77C1060.97,-199.54 694.62,-192.27 392,-151 291.46,-137.29 175.47,-108.85 115.19,-93.1"/>
<polygon fill="#63b8ff" stroke="#63b8ff" points="115.87,-89.66 105.3,-90.5 114.09,-96.43 115.87,-89.66"/>
</a>
</g>
</g>
<!-- Node4 -->
<g id="Node000004" class="node">
<title>Node4</title>
<g id="a_Node000004"><a xlink:href="FLevelFeature_8h.html" target="_top" xlink:title="툴바에 레벨 선택 컨트롤을 제공하는 기능을 선언합니다.">
<polygon fill="white" stroke="#666666" points="290,-90.5 166,-90.5 166,-71.5 290,-71.5 290,-90.5"/>
<text text-anchor="middle" x="228" y="-78.5" font-family="Malgun Gothic" font-size="10.00">Level/FLevelFeature.h</text>
</a>
</g>
</g>
<!-- Node1&#45;&gt;Node4 -->
<g id="edge42_Node000001_Node000004" class="edge">
<title>Node1&#45;&gt;Node4</title>
<g id="a_edge42_Node000001_Node000004"><a xlink:title=" ">
<path fill="none" stroke="#63b8ff" d="M1202.18,-201.3C1070.63,-201.07 746.68,-195.56 480,-151 400.64,-137.74 310.27,-109.73 262.25,-93.77"/>
<polygon fill="#63b8ff" stroke="#63b8ff" points="263.26,-90.42 252.66,-90.56 261.03,-97.06 263.26,-90.42"/>
</a>
</g>
</g>
<!-- Node9 -->
<g id="Node000009" class="node">
<title>Node9</title>
<g id="a_Node000009"><a xlink:href="FScreenshotFeature_8h.html" target="_top" xlink:title="툴바의 스크린샷 워크플로우 버튼을 위한 헬퍼를 선언합니다.">
<polygon fill="white" stroke="#666666" points="985.5,-90.5 806.5,-90.5 806.5,-71.5 985.5,-71.5 985.5,-90.5"/>
<text text-anchor="middle" x="896" y="-78.5" font-family="Malgun Gothic" font-size="10.00">Screenshot/FScreenshotFeature.h</text>
</a>
</g>
</g>
<!-- Node1&#45;&gt;Node9 -->
<g id="edge43_Node000001_Node000009" class="edge">
<title>Node1&#45;&gt;Node9</title>
<g id="a_edge43_Node000001_Node000009"><a xlink:title=" ">
<path fill="none" stroke="#63b8ff" d="M1218.94,-187C1146.15,-163.33 1000.08,-115.84 932.2,-93.77"/>
<polygon fill="#63b8ff" stroke="#63b8ff" points="932.98,-90.34 922.39,-90.58 930.82,-97 932.98,-90.34"/>
</a>
</g>
</g>
<!-- Node10 -->
<g id="Node000010" class="node">
<title>Node10</title>
<g id="a_Node000010"><a xlink:href="FCommandFeature_8h.html" target="_top" xlink:title="명령형 버튼을 담당하는 툴바 기능을 선언합니다.">
<polygon fill="white" stroke="#666666" points="480,-90.5 308,-90.5 308,-71.5 480,-71.5 480,-90.5"/>
<text text-anchor="middle" x="394" y="-78.5" font-family="Malgun Gothic" font-size="10.00">Command/FCommandFeature.h</text>
</a>
</g>
</g>
<!-- Node1&#45;&gt;Node10 -->
<g id="edge41_Node000001_Node000010" class="edge">
<title>Node1&#45;&gt;Node10</title>
<g id="a_edge41_Node000001_Node000010"><a xlink:title=" ">
<path fill="none" stroke="#63b8ff" d="M1202.24,-199.98C1050.99,-196.92 656.1,-185.75 530,-151 486.81,-139.1 441.29,-112.78 415.4,-96.31"/>
<polygon fill="#63b8ff" stroke="#63b8ff" points="417.08,-93.23 406.79,-90.73 413.28,-99.1 417.08,-93.23"/>
</a>
</g>
</g>
<!-- Node13 -->
<g id="Node000013" class="node">
<title>Node13</title>
<g id="a_Node000013"><a xlink:href="FToolbarStyle_8h.html" target="_top" xlink:title="Coffee Toolbar 플러그인이 사용하는 Slate 스타일 세트를 선언합니다.">
<polygon fill="white" stroke="#666666" points="1988,-90.5 1850,-90.5 1850,-71.5 1988,-71.5 1988,-90.5"/>
<text text-anchor="middle" x="1919" y="-78.5" font-family="Malgun Gothic" font-size="10.00">Common/FToolbarStyle.h</text>
</a>
</g>
</g>
<!-- Node1&#45;&gt;Node13 -->
<g id="edge19_Node000001_Node000013" class="edge">
<title>Node1&#45;&gt;Node13</title>
<g id="a_edge19_Node000001_Node000013"><a xlink:title=" ">
<path fill="none" stroke="#63b8ff" d="M1271.63,-186.91C1283.77,-170.45 1306.33,-143.94 1333,-132 1436.29,-85.76 1728.7,-110.02 1841,-96 1849.15,-94.98 1857.75,-93.68 1866.13,-92.28"/>
<polygon fill="#63b8ff" stroke="#63b8ff" points="1866.96,-95.68 1876.21,-90.53 1865.76,-88.79 1866.96,-95.68"/>
</a>
</g>
</g>
<!-- Node15 -->
<g id="Node000015" class="node">
<title>Node15</title>
<g id="a_Node000015"><a xlink:href="FToolbarCommands_8h.html" target="_top" xlink:title="Coffee Toolbar 플러그인에서 사용하는 명령 바인딩을 선언합니다.">
<polygon fill="white" stroke="#666666" points="1510.5,-151 1341.5,-151 1341.5,-132 1510.5,-132 1510.5,-151"/>
<text text-anchor="middle" x="1426" y="-139" font-family="Malgun Gothic" font-size="10.00">Common/FToolbarCommands.h</text>
</a>
</g>
</g>
<!-- Node1&#45;&gt;Node15 -->
<g id="edge21_Node000001_Node000015" class="edge">
<title>Node1&#45;&gt;Node15</title>
<g id="a_edge21_Node000001_Node000015"><a xlink:title=" ">
<path fill="none" stroke="#63b8ff" d="M1301.28,-186.99C1329.01,-177.1 1365.78,-163.98 1392.2,-154.56"/>
<polygon fill="#63b8ff" stroke="#63b8ff" points="1393.54,-157.8 1401.78,-151.14 1391.19,-151.2 1393.54,-157.8"/>
</a>
</g>
</g>
<!-- Node17 -->
<g id="Node000017" class="node">
<title>Node17</title>
<g id="a_Node000017"><a xlink:href="UToolbarSettings_8h.html" target="_top" xlink:title="Coffee Toolbar 플러그인을 구성하기 위한 개발자 설정을 선언합니다.">
<polygon fill="white" stroke="#666666" points="1285.5,-151 1134.5,-151 1134.5,-132 1285.5,-132 1285.5,-151"/>
<text text-anchor="middle" x="1210" y="-139" font-family="Malgun Gothic" font-size="10.00">Settings/UToolbarSettings.h</text>
</a>
</g>
</g>
<!-- Node1&#45;&gt;Node17 -->
<g id="edge24_Node000001_Node000017" class="edge">
<title>Node1&#45;&gt;Node17</title>
<g id="a_edge24_Node000001_Node000017"><a xlink:title=" ">
<path fill="none" stroke="#63b8ff" d="M1249.41,-186.84C1241.94,-178.43 1232.44,-167.74 1224.63,-158.96"/>
<polygon fill="#63b8ff" stroke="#63b8ff" points="1227.05,-156.41 1217.79,-151.27 1221.82,-161.07 1227.05,-156.41"/>
</a>
</g>
</g>
<!-- Node26 -->
<g id="Node000026" class="node">
<title>Node26</title>
<g id="a_Node000026"><a xlink:title=" ">
<polygon fill="#e0e0e0" stroke="#999999" points="1605.5,-151 1528.5,-151 1528.5,-132 1605.5,-132 1605.5,-151"/>
<text text-anchor="middle" x="1567" y="-139" font-family="Malgun Gothic" font-size="10.00">ToolMenus.h</text>
</a>
</g>
</g>
<!-- Node1&#45;&gt;Node26 -->
<g id="edge37_Node000001_Node000026" class="edge">
<title>Node1&#45;&gt;Node26</title>
<g id="a_edge37_Node000001_Node000026"><a xlink:title=" ">
<path fill="none" stroke="#63b8ff" d="M1321.53,-189.58C1379.02,-178.55 1465.02,-162.06 1518.48,-151.81"/>
<polygon fill="#63b8ff" stroke="#63b8ff" points="1519.23,-155.23 1528.39,-149.91 1517.91,-148.35 1519.23,-155.23"/>
</a>
</g>
</g>
<!-- Node27 -->
<g id="Node000027" class="node">
<title>Node27</title>
<g id="a_Node000027"><a xlink:title=" ">
<polygon fill="#e0e0e0" stroke="#999999" points="1750,-151 1624,-151 1624,-132 1750,-132 1750,-151"/>
<text text-anchor="middle" x="1687" y="-139" font-family="Malgun Gothic" font-size="10.00">Misc/MessageDialog.h</text>
</a>
</g>
</g>
<!-- Node1&#45;&gt;Node27 -->
<g id="edge38_Node000001_Node000027" class="edge">
<title>Node1&#45;&gt;Node27</title>
<g id="a_edge38_Node000001_Node000027"><a xlink:title=" ">
<path fill="none" stroke="#63b8ff" d="M1321.54,-192.8C1398.52,-182.21 1532.46,-163.77 1615.04,-152.4"/>
<polygon fill="#63b8ff" stroke="#63b8ff" points="1615.67,-155.85 1625.1,-151.02 1614.72,-148.92 1615.67,-155.85"/>
</a>
</g>
</g>
<!-- Node28 -->
<g id="Node000028" class="node">
<title>Node28</title>
<g id="a_Node000028"><a xlink:title=" ">
<polygon fill="#e0e0e0" stroke="#999999" points="1898,-151 1768,-151 1768,-132 1898,-132 1898,-151"/>
<text text-anchor="middle" x="1833" y="-139" font-family="Malgun Gothic" font-size="10.00">Camera/CameraActor.h</text>
</a>
</g>
</g>
<!-- Node1&#45;&gt;Node28 -->
<g id="edge40_Node000001_Node000028" class="edge">
<title>Node1&#45;&gt;Node28</title>
<g id="a_edge40_Node000001_Node000028"><a xlink:title=" ">
<path fill="none" stroke="#63b8ff" d="M1321.7,-195.27C1413.13,-186.43 1593.62,-168.74 1757.37,-151.16"/>
<polygon fill="#63b8ff" stroke="#63b8ff" points="1758.07,-154.61 1767.64,-150.06 1757.32,-147.65 1758.07,-154.61"/>
</a>
</g>
</g>
<!-- Node29 -->
<g id="Node000029" class="node">
<title>Node29</title>
<g id="a_Node000029"><a xlink:title=" ">
<polygon fill="#e0e0e0" stroke="#999999" points="2053.5,-151 1916.5,-151 1916.5,-132 2053.5,-132 2053.5,-151"/>
<text text-anchor="middle" x="1985" y="-139" font-family="Malgun Gothic" font-size="10.00">Styling/SlateIconFinder.h</text>
</a>
</g>
</g>
<!-- Node1&#45;&gt;Node29 -->
<g id="edge44_Node000001_Node000029" class="edge">
<title>Node1&#45;&gt;Node29</title>
<g id="a_edge44_Node000001_Node000029"><a xlink:title=" ">
<path fill="none" stroke="#63b8ff" d="M1321.63,-197C1433.78,-189.35 1684,-171.62 1905.9,-151.07"/>
<polygon fill="#63b8ff" stroke="#63b8ff" points="1906.48,-154.54 1916.11,-150.13 1905.83,-147.57 1906.48,-154.54"/>
</a>
</g>
</g>
<!-- Node2&#45;&gt;Node3 -->
<g id="edge2_Node000002_Node000003" class="edge">
<title>Node2&#45;&gt;Node3</title>
<g id="a_edge2_Node000002_Node000003"><a xlink:title=" ">
<path fill="none" stroke="#63b8ff" d="M539.37,-137.68C469.23,-131.46 298.95,-115.56 157,-96 148.87,-94.88 140.31,-93.58 131.9,-92.23"/>
<polygon fill="#63b8ff" stroke="#63b8ff" points="132.2,-88.73 121.76,-90.56 131.07,-95.63 132.2,-88.73"/>
</a>
</g>
</g>
<!-- Node2&#45;&gt;Node4 -->
<g id="edge3_Node000002_Node000004" class="edge">
<title>Node2&#45;&gt;Node4</title>
<g id="a_edge3_Node000002_Node000004"><a xlink:title=" ">
<path fill="none" stroke="#63b8ff" d="M539.16,-135.51C487.83,-127.62 385.49,-111.57 299,-96 292.83,-94.89 286.37,-93.68 279.97,-92.45"/>
<polygon fill="#63b8ff" stroke="#63b8ff" points="280.49,-88.99 270.01,-90.52 279.16,-95.86 280.49,-88.99"/>
</a>
</g>
</g>
<!-- Node2&#45;&gt;Node9 -->
<g id="edge8_Node000002_Node000009" class="edge">
<title>Node2&#45;&gt;Node9</title>
<g id="a_edge8_Node000002_Node000009"><a xlink:title=" ">
<path fill="none" stroke="#63b8ff" d="M604.55,-134.62C659.35,-124.73 770.69,-104.63 838.78,-92.33"/>
<polygon fill="#63b8ff" stroke="#63b8ff" points="839.69,-95.72 848.91,-90.5 838.45,-88.83 839.69,-95.72"/>
</a>
</g>
</g>
<!-- Node2&#45;&gt;Node10 -->
<g id="edge11_Node000002_Node000010" class="edge">
<title>Node2&#45;&gt;Node10</title>
<g id="a_edge11_Node000002_Node000010"><a xlink:title=" ">
<path fill="none" stroke="#63b8ff" d="M546.12,-131.99C515.4,-121.9 464.02,-105.01 429.58,-93.69"/>
<polygon fill="#63b8ff" stroke="#63b8ff" points="430.51,-90.31 419.91,-90.52 428.32,-96.96 430.51,-90.31"/>
</a>
</g>
</g>
<!-- Node11 -->
<g id="Node000011" class="node">
<title>Node11</title>
<g id="a_Node000011"><a xlink:href="FolderFeature_8h.html" target="_top" xlink:title=" ">
<polygon fill="white" stroke="#666666" points="788.5,-90.5 663.5,-90.5 663.5,-71.5 788.5,-71.5 788.5,-90.5"/>
<text text-anchor="middle" x="726" y="-78.5" font-family="Malgun Gothic" font-size="10.00">Folder/FolderFeature.h</text>
</a>
</g>
</g>
<!-- Node2&#45;&gt;Node11 -->
<g id="edge15_Node000002_Node000011" class="edge">
<title>Node2&#45;&gt;Node11</title>
<g id="a_edge15_Node000002_Node000011"><a xlink:title=" ">
<path fill="none" stroke="#63b8ff" d="M594.39,-131.99C620.62,-122.03 664.28,-105.45 694.06,-94.13"/>
<polygon fill="#63b8ff" stroke="#63b8ff" points="695.47,-97.34 703.58,-90.52 692.99,-90.8 695.47,-97.34"/>
</a>
</g>
</g>
<!-- Node12 -->
<g id="Node000012" class="node">
<title>Node12</title>
<g id="a_Node000012"><a xlink:href="FNetworkTestFeature_8h.html" target="_top" xlink:title="네트워크 API 테스트 기능을 제공합니다.">
<polygon fill="white" stroke="#666666" points="645.5,-96 498.5,-96 498.5,-66 645.5,-66 645.5,-96"/>
<text text-anchor="start" x="506.5" y="-84" font-family="Malgun Gothic" font-size="10.00">NetworkTest/FNetworkTest</text>
<text text-anchor="middle" x="572" y="-73" font-family="Malgun Gothic" font-size="10.00">Feature.h</text>
</a>
</g>
</g>
<!-- Node2&#45;&gt;Node12 -->
<g id="edge17_Node000002_Node000012" class="edge">
<title>Node2&#45;&gt;Node12</title>
<g id="a_edge17_Node000002_Node000012"><a xlink:title=" ">
<path fill="none" stroke="#63b8ff" d="M572,-131.87C572,-125.11 572,-115.35 572,-106.26"/>
<polygon fill="#63b8ff" stroke="#63b8ff" points="575.5,-106.11 572,-96.11 568.5,-106.11 575.5,-106.11"/>
</a>
</g>
</g>
<!-- Node5 -->
<g id="Node000005" class="node">
<title>Node5</title>
<g id="a_Node000005"><a xlink:title=" ">
<polygon fill="#e0e0e0" stroke="#999999" points="940,-24.5 852,-24.5 852,-5.5 940,-5.5 940,-24.5"/>
<text text-anchor="middle" x="896" y="-12.5" font-family="Malgun Gothic" font-size="10.00">CoreMinimal.h</text>
</a>
</g>
</g>
<!-- Node4&#45;&gt;Node5 -->
<g id="edge4_Node000004_Node000005" class="edge">
<title>Node4&#45;&gt;Node5</title>
<g id="a_edge4_Node000004_Node000005"><a xlink:title=" ">
<path fill="none" stroke="#63b8ff" d="M267.3,-71.44C277.58,-69.43 288.67,-67.45 299,-66 498.12,-38.12 736.94,-23.83 841.96,-18.51"/>
<polygon fill="#63b8ff" stroke="#63b8ff" points="842.19,-22 852,-18.01 841.84,-15.01 842.19,-22"/>
</a>
</g>
</g>
<!-- Node6 -->
<g id="Node000006" class="node">
<title>Node6</title>
<g id="a_Node000006"><a xlink:title=" ">
<polygon fill="#e0e0e0" stroke="#999999" points="512.5,-24.5 403.5,-24.5 403.5,-5.5 512.5,-5.5 512.5,-24.5"/>
<text text-anchor="middle" x="458" y="-12.5" font-family="Malgun Gothic" font-size="10.00">Widgets/SWidget.h</text>
</a>
</g>
</g>
<!-- Node4&#45;&gt;Node6 -->
<g id="edge5_Node000004_Node000006" class="edge">
<title>Node4&#45;&gt;Node6</title>
<g id="a_edge5_Node000004_Node000006"><a xlink:title=" ">
<path fill="none" stroke="#63b8ff" d="M259.02,-71.37C299.94,-59.98 372.07,-39.91 417.32,-27.32"/>
<polygon fill="#63b8ff" stroke="#63b8ff" points="418.41,-30.65 427.11,-24.6 416.53,-23.91 418.41,-30.65"/>
</a>
</g>
</g>
<!-- Node7 -->
<g id="Node000007" class="node">
<title>Node7</title>
<g id="a_Node000007"><a xlink:title=" ">
<polygon fill="#e0e0e0" stroke="#999999" points="385,-30 255,-30 255,0 385,0 385,-30"/>
<text text-anchor="start" x="263" y="-18" font-family="Malgun Gothic" font-size="10.00">Framework/Commands</text>
<text text-anchor="middle" x="320" y="-7" font-family="Malgun Gothic" font-size="10.00">/UIAction.h</text>
</a>
</g>
</g>
<!-- Node4&#45;&gt;Node7 -->
<g id="edge6_Node000004_Node000007" class="edge">
<title>Node4&#45;&gt;Node7</title>
<g id="a_edge6_Node000004_Node000007"><a xlink:title=" ">
<path fill="none" stroke="#63b8ff" d="M240.41,-71.37C253.36,-62.36 274.11,-47.92 291.18,-36.05"/>
<polygon fill="#63b8ff" stroke="#63b8ff" points="293.5,-38.7 299.71,-30.12 289.5,-32.95 293.5,-38.7"/>
</a>
</g>
</g>
<!-- Node8 -->
<g id="Node000008" class="node">
<title>Node8</title>
<g id="a_Node000008"><a xlink:title=" ">
<polygon fill="#e0e0e0" stroke="#999999" points="237,-24.5 91,-24.5 91,-5.5 237,-5.5 237,-24.5"/>
<text text-anchor="middle" x="164" y="-12.5" font-family="Malgun Gothic" font-size="10.00">AssetRegistry/AssetData.h</text>
</a>
</g>
</g>
<!-- Node4&#45;&gt;Node8 -->
<g id="edge7_Node000004_Node000008" class="edge">
<title>Node4&#45;&gt;Node8</title>
<g id="a_edge7_Node000004_Node000008"><a xlink:title=" ">
<path fill="none" stroke="#63b8ff" d="M219.37,-71.37C209.31,-61.31 192.48,-44.48 180.01,-32.01"/>
<polygon fill="#63b8ff" stroke="#63b8ff" points="182.45,-29.5 172.91,-24.91 177.5,-34.45 182.45,-29.5"/>
</a>
</g>
</g>
<!-- Node9&#45;&gt;Node5 -->
<g id="edge9_Node000009_Node000005" class="edge">
<title>Node9&#45;&gt;Node5</title>
<g id="a_edge9_Node000009_Node000005"><a xlink:title=" ">
<path fill="none" stroke="#63b8ff" d="M896,-71.37C896,-62.16 896,-47.29 896,-35.27"/>
<polygon fill="#63b8ff" stroke="#63b8ff" points="899.5,-34.91 896,-24.91 892.5,-34.91 899.5,-34.91"/>
</a>
</g>
</g>
<!-- Node9&#45;&gt;Node6 -->
<g id="edge10_Node000009_Node000006" class="edge">
<title>Node9&#45;&gt;Node6</title>
<g id="a_edge10_Node000009_Node000006"><a xlink:title=" ">
<path fill="none" stroke="#63b8ff" d="M837.38,-71.44C755.62,-59.49 607.84,-37.89 522.86,-25.48"/>
<polygon fill="#63b8ff" stroke="#63b8ff" points="523.22,-21.99 512.82,-24.01 522.21,-28.92 523.22,-21.99"/>
</a>
</g>
</g>
<!-- Node10&#45;&gt;Node5 -->
<g id="edge12_Node000010_Node000005" class="edge">
<title>Node10&#45;&gt;Node5</title>
<g id="a_edge12_Node000010_Node000005"><a xlink:title=" ">
<path fill="none" stroke="#63b8ff" d="M450.23,-71.48C462.97,-69.62 476.44,-67.7 489,-66 615.26,-48.94 763.89,-31.3 841.92,-22.22"/>
<polygon fill="#63b8ff" stroke="#63b8ff" points="842.46,-25.68 851.99,-21.05 841.65,-18.73 842.46,-25.68"/>
</a>
</g>
</g>
<!-- Node10&#45;&gt;Node6 -->
<g id="edge13_Node000010_Node000006" class="edge">
<title>Node10&#45;&gt;Node6</title>
<g id="a_edge13_Node000010_Node000006"><a xlink:title=" ">
<path fill="none" stroke="#63b8ff" d="M402.63,-71.37C412.69,-61.31 429.52,-44.48 441.99,-32.01"/>
<polygon fill="#63b8ff" stroke="#63b8ff" points="444.5,-34.45 449.09,-24.91 439.55,-29.5 444.5,-34.45"/>
</a>
</g>
</g>
<!-- Node10&#45;&gt;Node7 -->
<g id="edge14_Node000010_Node000007" class="edge">
<title>Node10&#45;&gt;Node7</title>
<g id="a_edge14_Node000010_Node000007"><a xlink:title=" ">
<path fill="none" stroke="#63b8ff" d="M384.02,-71.37C373.8,-62.53 357.52,-48.45 343.94,-36.71"/>
<polygon fill="#63b8ff" stroke="#63b8ff" points="346.17,-34.01 336.32,-30.12 341.6,-39.3 346.17,-34.01"/>
</a>
</g>
</g>
<!-- Node11&#45;&gt;Node5 -->
<g id="edge16_Node000011_Node000005" class="edge">
<title>Node11&#45;&gt;Node5</title>
<g id="a_edge16_Node000011_Node000005"><a xlink:title=" ">
<path fill="none" stroke="#63b8ff" d="M748.93,-71.37C778.54,-60.22 830.25,-40.75 863.8,-28.12"/>
<polygon fill="#63b8ff" stroke="#63b8ff" points="865.04,-31.4 873.17,-24.6 862.57,-24.84 865.04,-31.4"/>
</a>
</g>
</g>
<!-- Node12&#45;&gt;Node5 -->
<g id="edge18_Node000012_Node000005" class="edge">
<title>Node12&#45;&gt;Node5</title>
<g id="a_edge18_Node000012_Node000005"><a xlink:title=" ">
<path fill="none" stroke="#63b8ff" d="M643.1,-65.95C703.3,-54.06 788.26,-37.28 842.74,-26.52"/>
<polygon fill="#63b8ff" stroke="#63b8ff" points="843.75,-29.89 852.88,-24.52 842.39,-23.02 843.75,-29.89"/>
</a>
</g>
</g>
<!-- Node14 -->
<g id="Node000014" class="node">
<title>Node14</title>
<g id="a_Node000014"><a xlink:title=" ">
<polygon fill="#e0e0e0" stroke="#999999" points="1975,-24.5 1863,-24.5 1863,-5.5 1975,-5.5 1975,-24.5"/>
<text text-anchor="middle" x="1919" y="-12.5" font-family="Malgun Gothic" font-size="10.00">Styling/SlateStyle.h</text>
</a>
</g>
</g>
<!-- Node13&#45;&gt;Node14 -->
<g id="edge20_Node000013_Node000014" class="edge">
<title>Node13&#45;&gt;Node14</title>
<g id="a_edge20_Node000013_Node000014"><a xlink:title=" ">
<path fill="none" stroke="#63b8ff" d="M1919,-71.37C1919,-62.16 1919,-47.29 1919,-35.27"/>
<polygon fill="#63b8ff" stroke="#63b8ff" points="1922.5,-34.91 1919,-24.91 1915.5,-34.91 1922.5,-34.91"/>
</a>
</g>
</g>
<!-- Node15&#45;&gt;Node13 -->
<g id="edge23_Node000015_Node000013" class="edge">
<title>Node15&#45;&gt;Node13</title>
<g id="a_edge23_Node000015_Node000013"><a xlink:title=" ">
<path fill="none" stroke="#63b8ff" d="M1510.8,-132.12C1613.18,-121.88 1779.31,-104.83 1841,-96 1848.66,-94.9 1856.72,-93.61 1864.63,-92.27"/>
<polygon fill="#63b8ff" stroke="#63b8ff" points="1865.29,-95.7 1874.54,-90.54 1864.09,-88.81 1865.29,-95.7"/>
</a>
</g>
</g>
<!-- Node16 -->
<g id="Node000016" class="node">
<title>Node16</title>
<g id="a_Node000016"><a xlink:title=" ">
<polygon fill="#e0e0e0" stroke="#999999" points="2136,-96 2006,-96 2006,-66 2136,-66 2136,-96"/>
<text text-anchor="start" x="2014" y="-84" font-family="Malgun Gothic" font-size="10.00">Framework/Commands</text>
<text text-anchor="middle" x="2071" y="-73" font-family="Malgun Gothic" font-size="10.00">/Commands.h</text>
</a>
</g>
</g>
<!-- Node15&#45;&gt;Node16 -->
<g id="edge22_Node000015_Node000016" class="edge">
<title>Node15&#45;&gt;Node16</title>
<g id="a_edge22_Node000015_Node000016"><a xlink:title=" ">
<path fill="none" stroke="#63b8ff" d="M1510.55,-132.8C1513.74,-132.52 1516.9,-132.26 1520,-132 1728.56,-114.7 1784.49,-123.52 1995.53,-96.1"/>
<polygon fill="#63b8ff" stroke="#63b8ff" points="1996.23,-99.54 2005.69,-94.76 1995.32,-92.59 1996.23,-99.54"/>
</a>
</g>
</g>
<!-- Node17&#45;&gt;Node5 -->
<g id="edge25_Node000017_Node000005" class="edge">
<title>Node17&#45;&gt;Node5</title>
<g id="a_edge25_Node000017_Node000005"><a xlink:title=" ">
<path fill="none" stroke="#63b8ff" d="M1151.33,-131.97C1115.83,-125.32 1070.36,-114.09 1033,-96 1013.32,-86.47 1012.48,-77.69 994,-66 971.52,-51.79 944.51,-38.25 924.54,-28.85"/>
<polygon fill="#63b8ff" stroke="#63b8ff" points="925.9,-25.62 915.36,-24.59 922.95,-31.97 925.9,-25.62"/>
</a>
</g>
</g>
<!-- Node18 -->
<g id="Node000018" class="node">
<title>Node18</title>
<g id="a_Node000018"><a xlink:href="FToolbarButtonInfo_8h.html" target="_top" xlink:title="커스터마이즈 가능한 Coffee Toolbar 버튼 정보를 선언합니다.">
<polygon fill="white" stroke="#666666" points="1509.5,-90.5 1392.5,-90.5 1392.5,-71.5 1509.5,-71.5 1509.5,-90.5"/>
<text text-anchor="middle" x="1451" y="-78.5" font-family="Malgun Gothic" font-size="10.00">FToolbarButtonInfo.h</text>
</a>
</g>
</g>
<!-- Node17&#45;&gt;Node18 -->
<g id="edge26_Node000017_Node000018" class="edge">
<title>Node17&#45;&gt;Node18</title>
<g id="a_edge26_Node000017_Node000018"><a xlink:title=" ">
<path fill="none" stroke="#63b8ff" d="M1245.04,-131.99C1287.61,-121.66 1359.49,-104.21 1406.09,-92.9"/>
<polygon fill="#63b8ff" stroke="#63b8ff" points="1407.02,-96.28 1415.91,-90.52 1405.37,-89.47 1407.02,-96.28"/>
</a>
</g>
</g>
<!-- Node20 -->
<g id="Node000020" class="node">
<title>Node20</title>
<g id="a_Node000020"><a xlink:title=" ">
<polygon fill="#e0e0e0" stroke="#999999" points="1832,-90.5 1680,-90.5 1680,-71.5 1832,-71.5 1832,-90.5"/>
<text text-anchor="middle" x="1756" y="-78.5" font-family="Malgun Gothic" font-size="10.00">Engine/DeveloperSettings.h</text>
</a>
</g>
</g>
<!-- Node17&#45;&gt;Node20 -->
<g id="edge29_Node000017_Node000020" class="edge">
<title>Node17&#45;&gt;Node20</title>
<g id="a_edge29_Node000017_Node000020"><a xlink:title=" ">
<path fill="none" stroke="#63b8ff" d="M1285.58,-133.34C1411.47,-121.39 1652.23,-98.45 1671,-96 1679.62,-94.88 1688.71,-93.54 1697.61,-92.15"/>
<polygon fill="#63b8ff" stroke="#63b8ff" points="1698.22,-95.59 1707.54,-90.56 1697.11,-88.68 1698.22,-95.59"/>
</a>
</g>
</g>
<!-- Node21 -->
<g id="Node000021" class="node">
<title>Node21</title>
<g id="a_Node000021"><a xlink:href="FFolderPathInfo_8h.html" target="_top" xlink:title=" ">
<polygon fill="white" stroke="#666666" points="1662,-90.5 1528,-90.5 1528,-71.5 1662,-71.5 1662,-90.5"/>
<text text-anchor="middle" x="1595" y="-78.5" font-family="Malgun Gothic" font-size="10.00">Folder/FFolderPathInfo.h</text>
</a>
</g>
</g>
<!-- Node17&#45;&gt;Node21 -->
<g id="edge30_Node000017_Node000021" class="edge">
<title>Node17&#45;&gt;Node21</title>
<g id="a_edge30_Node000017_Node000021"><a xlink:title=" ">
<path fill="none" stroke="#63b8ff" d="M1274.32,-131.98C1336.91,-123.52 1434.63,-109.84 1519,-96 1525.85,-94.88 1533.03,-93.64 1540.14,-92.37"/>
<polygon fill="#63b8ff" stroke="#63b8ff" points="1541.22,-95.73 1550.44,-90.51 1539.98,-88.84 1541.22,-95.73"/>
</a>
</g>
</g>
<!-- Node23 -->
<g id="Node000023" class="node">
<title>Node23</title>
<g id="a_Node000023"><a xlink:href="FApiSendInfo_8h.html" target="_top" xlink:title="HTTP API 요청 정보를 정의합니다.">
<polygon fill="white" stroke="#666666" points="1374,-90.5 1222,-90.5 1222,-71.5 1374,-71.5 1374,-90.5"/>
<text text-anchor="middle" x="1298" y="-78.5" font-family="Malgun Gothic" font-size="10.00">NetworkTest/FApiSendInfo.h</text>
</a>
</g>
</g>
<!-- Node17&#45;&gt;Node23 -->
<g id="edge33_Node000017_Node000023" class="edge">
<title>Node17&#45;&gt;Node23</title>
<g id="a_edge33_Node000017_Node000023"><a xlink:title=" ">
<path fill="none" stroke="#63b8ff" d="M1222.98,-131.87C1237.02,-122.54 1259.63,-107.51 1276.36,-96.38"/>
<polygon fill="#63b8ff" stroke="#63b8ff" points="1278.57,-99.12 1284.96,-90.67 1274.7,-93.29 1278.57,-99.12"/>
</a>
</g>
</g>
<!-- Node25 -->
<g id="Node000025" class="node">
<title>Node25</title>
<g id="a_Node000025"><a xlink:title=" ">
<polygon fill="#e0e0e0" stroke="#999999" points="1203.5,-90.5 1042.5,-90.5 1042.5,-71.5 1203.5,-71.5 1203.5,-90.5"/>
<text text-anchor="middle" x="1123" y="-78.5" font-family="Malgun Gothic" font-size="10.00">UToolbarSettings.generated.h</text>
</a>
</g>
</g>
<!-- Node17&#45;&gt;Node25 -->
<g id="edge36_Node000017_Node000025" class="edge">
<title>Node17&#45;&gt;Node25</title>
<g id="a_edge36_Node000017_Node000025"><a xlink:title=" ">
<path fill="none" stroke="#63b8ff" d="M1197.16,-131.87C1183.28,-122.54 1160.93,-107.51 1144.39,-96.38"/>
<polygon fill="#63b8ff" stroke="#63b8ff" points="1146.14,-93.34 1135.89,-90.67 1142.24,-99.15 1146.14,-93.34"/>
</a>
</g>
</g>
<!-- Node18&#45;&gt;Node5 -->
<g id="edge27_Node000018_Node000005" class="edge">
<title>Node18&#45;&gt;Node5</title>
<g id="a_edge27_Node000018_Node000005"><a xlink:title=" ">
<path fill="none" stroke="#63b8ff" d="M1413,-71.47C1403.26,-69.48 1392.77,-67.5 1383,-66 1226.69,-41.95 1040.31,-26.44 950.16,-19.77"/>
<polygon fill="#63b8ff" stroke="#63b8ff" points="950.4,-16.28 940.18,-19.04 949.89,-23.26 950.4,-16.28"/>
</a>
</g>
</g>
<!-- Node19 -->
<g id="Node000019" class="node">
<title>Node19</title>
<g id="a_Node000019"><a xlink:title=" ">
<polygon fill="#e0e0e0" stroke="#999999" points="1536,-24.5 1366,-24.5 1366,-5.5 1536,-5.5 1536,-24.5"/>
<text text-anchor="middle" x="1451" y="-12.5" font-family="Malgun Gothic" font-size="10.00">FToolbarButtonInfo.generated.h</text>
</a>
</g>
</g>
<!-- Node18&#45;&gt;Node19 -->
<g id="edge28_Node000018_Node000019" class="edge">
<title>Node18&#45;&gt;Node19</title>
<g id="a_edge28_Node000018_Node000019"><a xlink:title=" ">
<path fill="none" stroke="#63b8ff" d="M1451,-71.37C1451,-62.16 1451,-47.29 1451,-35.27"/>
<polygon fill="#63b8ff" stroke="#63b8ff" points="1454.5,-34.91 1451,-24.91 1447.5,-34.91 1454.5,-34.91"/>
</a>
</g>
</g>
<!-- Node21&#45;&gt;Node5 -->
<g id="edge31_Node000021_Node000005" class="edge">
<title>Node21&#45;&gt;Node5</title>
<g id="a_edge31_Node000021_Node000005"><a xlink:title=" ">
<path fill="none" stroke="#63b8ff" d="M1552.91,-71.46C1541.91,-69.44 1530.04,-67.46 1519,-66 1309.79,-38.41 1058.91,-23.88 950.4,-18.49"/>
<polygon fill="#63b8ff" stroke="#63b8ff" points="950.51,-15 940.35,-18 950.17,-21.99 950.51,-15"/>
</a>
</g>
</g>
<!-- Node22 -->
<g id="Node000022" class="node">
<title>Node22</title>
<g id="a_Node000022"><a xlink:title=" ">
<polygon fill="#e0e0e0" stroke="#999999" points="1708,-24.5 1554,-24.5 1554,-5.5 1708,-5.5 1708,-24.5"/>
<text text-anchor="middle" x="1631" y="-12.5" font-family="Malgun Gothic" font-size="10.00">FFolderPathInfo.generated.h</text>
</a>
</g>
</g>
<!-- Node21&#45;&gt;Node22 -->
<g id="edge32_Node000021_Node000022" class="edge">
<title>Node21&#45;&gt;Node22</title>
<g id="a_edge32_Node000021_Node000022"><a xlink:title=" ">
<path fill="none" stroke="#63b8ff" d="M1599.86,-71.37C1605.25,-61.78 1614.1,-46.05 1620.99,-33.8"/>
<polygon fill="#63b8ff" stroke="#63b8ff" points="1624.14,-35.34 1625.99,-24.91 1618.04,-31.91 1624.14,-35.34"/>
</a>
</g>
</g>
<!-- Node23&#45;&gt;Node5 -->
<g id="edge34_Node000023_Node000005" class="edge">
<title>Node23&#45;&gt;Node5</title>
<g id="a_edge34_Node000023_Node000005"><a xlink:title=" ">
<path fill="none" stroke="#63b8ff" d="M1245.71,-71.45C1234.58,-69.64 1222.9,-67.75 1212,-66 1120.18,-51.26 1013.3,-34.41 950.33,-24.52"/>
<polygon fill="#63b8ff" stroke="#63b8ff" points="950.65,-21.03 940.23,-22.94 949.57,-27.94 950.65,-21.03"/>
</a>
</g>
</g>
<!-- Node24 -->
<g id="Node000024" class="node">
<title>Node24</title>
<g id="a_Node000024"><a xlink:title=" ">
<polygon fill="#e0e0e0" stroke="#999999" points="1347.5,-24.5 1206.5,-24.5 1206.5,-5.5 1347.5,-5.5 1347.5,-24.5"/>
<text text-anchor="middle" x="1277" y="-12.5" font-family="Malgun Gothic" font-size="10.00">FApiSendInfo.generated.h</text>
</a>
</g>
</g>
<!-- Node23&#45;&gt;Node24 -->
<g id="edge35_Node000023_Node000024" class="edge">
<title>Node23&#45;&gt;Node24</title>
<g id="a_edge35_Node000023_Node000024"><a xlink:title=" ">
<path fill="none" stroke="#63b8ff" d="M1295.17,-71.37C1292.09,-61.97 1287.06,-46.67 1283.08,-34.53"/>
<polygon fill="#63b8ff" stroke="#63b8ff" points="1286.37,-33.32 1279.92,-24.91 1279.71,-35.5 1286.37,-33.32"/>
</a>
</g>
</g>
</g>
</svg>
