<?xml version="1.0" encoding="UTF-8" standalone="no"?>
<!DOCTYPE svg PUBLIC "-//W3C//DTD SVG 1.1//EN"
 "http://www.w3.org/Graphics/SVG/1.1/DTD/svg11.dtd">
<!-- Generated by graphviz version 2.43.0 (0)
 -->
<!-- Title: Source/CoffeeToolbar/Public/Common/FToolbarCommands.h Pages: 1 -->
<svg width="294pt" height="159pt"
 viewBox="0.00 0.00 294.00 159.00" xmlns="http://www.w3.org/2000/svg" xmlns:xlink="http://www.w3.org/1999/xlink">
<g id="graph0" class="graph" transform="scale(1 1) rotate(0) translate(4 155)">
<title>Source/CoffeeToolbar/Public/Common/FToolbarCommands.h</title>
<!-- Node1 -->
<g id="Node000001" class="node">
<title>Node1</title>
<g id="a_Node000001"><a xlink:title="Coffee Toolbar 플러그인에서 사용하는 명령 바인딩을 선언합니다.">
<polygon fill="#999999" stroke="#666666" points="243,-151 39,-151 39,-121 243,-121 243,-151"/>
<text text-anchor="start" x="47" y="-139" font-family="Malgun Gothic" font-size="10.00">Source/CoffeeToolbar</text>
<text text-anchor="middle" x="141" y="-128" font-family="Malgun Gothic" font-size="10.00">/Public/Common/FToolbarCommands.h</text>
</a>
</g>
</g>
<!-- Node2 -->
<g id="Node000002" class="node">
<title>Node2</title>
<g id="a_Node000002"><a xlink:title=" ">
<polygon fill="#e0e0e0" stroke="#999999" points="130,-85 0,-85 0,-55 130,-55 130,-85"/>
<text text-anchor="start" x="8" y="-73" font-family="Malgun Gothic" font-size="10.00">Framework/Commands</text>
<text text-anchor="middle" x="65" y="-62" font-family="Malgun Gothic" font-size="10.00">/Commands.h</text>
</a>
</g>
</g>
<!-- Node1&#45;&gt;Node2 -->
<g id="edge1_Node000001_Node000002" class="edge">
<title>Node1&#45;&gt;Node2</title>
<g id="a_edge1_Node000001_Node000002"><a xlink:title=" ">
<path fill="none" stroke="#63b8ff" d="M124.13,-120.8C114,-112.26 100.92,-101.25 89.65,-91.75"/>
<polygon fill="#63b8ff" stroke="#63b8ff" points="91.72,-88.93 81.82,-85.16 87.21,-94.28 91.72,-88.93"/>
</a>
</g>
</g>
<!-- Node3 -->
<g id="Node000003" class="node">
<title>Node3</title>
<g id="a_Node000003"><a xlink:href="FToolbarStyle_8h.html" target="_top" xlink:title="Coffee Toolbar 플러그인이 사용하는 Slate 스타일 세트를 선언합니다.">
<polygon fill="white" stroke="#666666" points="286,-79.5 148,-79.5 148,-60.5 286,-60.5 286,-79.5"/>
<text text-anchor="middle" x="217" y="-67.5" font-family="Malgun Gothic" font-size="10.00">Common/FToolbarStyle.h</text>
</a>
</g>
</g>
<!-- Node1&#45;&gt;Node3 -->
<g id="edge2_Node000001_Node000003" class="edge">
<title>Node1&#45;&gt;Node3</title>
<g id="a_edge2_Node000001_Node000003"><a xlink:title=" ">
<path fill="none" stroke="#63b8ff" d="M157.87,-120.8C169.95,-110.62 186.21,-96.93 198.62,-86.48"/>
<polygon fill="#63b8ff" stroke="#63b8ff" points="201.1,-88.96 206.5,-79.84 196.59,-83.61 201.1,-88.96"/>
</a>
</g>
</g>
<!-- Node4 -->
<g id="Node000004" class="node">
<title>Node4</title>
<g id="a_Node000004"><a xlink:title=" ">
<polygon fill="#e0e0e0" stroke="#999999" points="273,-19 161,-19 161,0 273,0 273,-19"/>
<text text-anchor="middle" x="217" y="-7" font-family="Malgun Gothic" font-size="10.00">Styling/SlateStyle.h</text>
</a>
</g>
</g>
<!-- Node3&#45;&gt;Node4 -->
<g id="edge3_Node000003_Node000004" class="edge">
<title>Node3&#45;&gt;Node4</title>
<g id="a_edge3_Node000003_Node000004"><a xlink:title=" ">
<path fill="none" stroke="#63b8ff" d="M217,-60.37C217,-52.25 217,-39.81 217,-29.39"/>
<polygon fill="#63b8ff" stroke="#63b8ff" points="220.5,-29.17 217,-19.17 213.5,-29.17 220.5,-29.17"/>
</a>
</g>
</g>
</g>
</svg>
