<?xml version="1.0" encoding="UTF-8" standalone="no"?>
<!DOCTYPE svg PUBLIC "-//W3C//DTD SVG 1.1//EN"
 "http://www.w3.org/Graphics/SVG/1.1/DTD/svg11.dtd">
<!-- Generated by graphviz version 2.43.0 (0)
 -->
<!-- Title: Icon20x20 Pages: 1 -->
<svg width="567pt" height="27pt"
 viewBox="0.00 0.00 567.00 27.00" xmlns="http://www.w3.org/2000/svg" xmlns:xlink="http://www.w3.org/1999/xlink">
<g id="graph0" class="graph" transform="scale(1 1) rotate(0) translate(4 23)">
<title>Icon20x20</title>
<!-- Node1 -->
<g id="Node000001" class="node">
<title>Node1</title>
<g id="a_Node000001"><a xlink:title=" ">
<polygon fill="#999999" stroke="#666666" points="559,-19 492,-19 492,0 559,0 559,-19"/>
<text text-anchor="middle" x="525.5" y="-7" font-family="Malgun Gothic" font-size="10.00">Icon20x20</text>
</a>
</g>
</g>
<!-- Node2 -->
<g id="Node000002" class="node">
<title>Node2</title>
<g id="a_Node000002"><a xlink:href="classFToolbarStyle.html#ac15dcbb37ede65f4c248c0f10b71893c" target="_top" xlink:title="기본 이미지와 아이콘 등록을 포함한 스타일 세트를 생성합니다.">
<polygon fill="white" stroke="#666666" points="456,-19 336,-19 336,0 456,0 456,-19"/>
<text text-anchor="middle" x="396" y="-7" font-family="Malgun Gothic" font-size="10.00">FToolbarStyle::Create</text>
</a>
</g>
</g>
<!-- Node1&#45;&gt;Node2 -->
<g id="edge1_Node000001_Node000002" class="edge">
<title>Node1&#45;&gt;Node2</title>
<g id="a_edge1_Node000001_Node000002"><a xlink:title=" ">
<path fill="none" stroke="#63b8ff" d="M481.89,-9.5C473.65,-9.5 464.88,-9.5 456.22,-9.5"/>
<polygon fill="#63b8ff" stroke="#63b8ff" points="482,-13 492,-9.5 482,-6 482,-13"/>
</a>
</g>
</g>
<!-- Node3 -->
<g id="Node000003" class="node">
<title>Node3</title>
<g id="a_Node000003"><a xlink:href="classFToolbarStyle.html#a5b48d0a9f7254d082193b3932bbd55bb" target="_top" xlink:title="스타일 세트를 Slate 스타일 레지스트리에 등록합니다.">
<polygon fill="white" stroke="#666666" points="300,-19 170,-19 170,0 300,0 300,-19"/>
<text text-anchor="middle" x="235" y="-7" font-family="Malgun Gothic" font-size="10.00">FToolbarStyle::Initialize</text>
</a>
</g>
</g>
<!-- Node2&#45;&gt;Node3 -->
<g id="edge2_Node000002_Node000003" class="edge">
<title>Node2&#45;&gt;Node3</title>
<g id="a_edge2_Node000002_Node000003"><a xlink:title=" ">
<path fill="none" stroke="#63b8ff" d="M325.56,-9.5C317.08,-9.5 308.45,-9.5 300.06,-9.5"/>
<polygon fill="#63b8ff" stroke="#63b8ff" points="325.79,-13 335.79,-9.5 325.79,-6 325.79,-13"/>
</a>
</g>
</g>
<!-- Node4 -->
<g id="Node000004" class="node">
<title>Node4</title>
<g id="a_Node000004"><a xlink:href="classFToolbar.html#a29b321398a59346e3df4870366f89245" target="_top" xlink:title="툴바 기능을 초기화하고 Slate 메뉴 확장을 등록합니다.">
<polygon fill="white" stroke="#666666" points="134,-19 0,-19 0,0 134,0 134,-19"/>
<text text-anchor="middle" x="67" y="-7" font-family="Malgun Gothic" font-size="10.00">FToolbar::StartupModule</text>
</a>
</g>
</g>
<!-- Node3&#45;&gt;Node4 -->
<g id="edge3_Node000003_Node000004" class="edge">
<title>Node3&#45;&gt;Node4</title>
<g id="a_edge3_Node000003_Node000004"><a xlink:title=" ">
<path fill="none" stroke="#63b8ff" d="M159.59,-9.5C151.13,-9.5 142.55,-9.5 134.2,-9.5"/>
<polygon fill="#63b8ff" stroke="#63b8ff" points="159.82,-13 169.82,-9.5 159.82,-6 159.82,-13"/>
</a>
</g>
</g>
</g>
</svg>
