<?xml version="1.0" encoding="UTF-8" standalone="no"?>
<!DOCTYPE svg PUBLIC "-//W3C//DTD SVG 1.1//EN"
 "http://www.w3.org/Graphics/SVG/1.1/DTD/svg11.dtd">
<!-- Generated by graphviz version 2.43.0 (0)
 -->
<!-- Title: Source/CoffeeToolbar/Private/Common/FToolbarStyle.cpp Pages: 1 -->
<svg width="1253pt" height="214pt"
 viewBox="0.00 0.00 1252.50 214.00" xmlns="http://www.w3.org/2000/svg" xmlns:xlink="http://www.w3.org/1999/xlink">
<g id="graph0" class="graph" transform="scale(1 1) rotate(0) translate(4 210)">
<title>Source/CoffeeToolbar/Private/Common/FToolbarStyle.cpp</title>
<!-- Node1 -->
<g id="Node000001" class="node">
<title>Node1</title>
<g id="a_Node000001"><a xlink:title="Coffee Toolbar 플러그인의 Slate 스타일 등록을 구현합니다.">
<polygon fill="#999999" stroke="#666666" points="849,-206 659,-206 659,-176 849,-176 849,-206"/>
<text text-anchor="start" x="667" y="-194" font-family="Malgun Gothic" font-size="10.00">Source/CoffeeToolbar</text>
<text text-anchor="middle" x="754" y="-183" font-family="Malgun Gothic" font-size="10.00">/Private/Common/FToolbarStyle.cpp</text>
</a>
</g>
</g>
<!-- Node2 -->
<g id="Node000002" class="node">
<title>Node2</title>
<g id="a_Node000002"><a xlink:href="FToolbarStyle_8h.html" target="_top" xlink:title="Coffee Toolbar 플러그인이 사용하는 Slate 스타일 세트를 선언합니다.">
<polygon fill="white" stroke="#666666" points="274,-134.5 136,-134.5 136,-115.5 274,-115.5 274,-134.5"/>
<text text-anchor="middle" x="205" y="-122.5" font-family="Malgun Gothic" font-size="10.00">Common/FToolbarStyle.h</text>
</a>
</g>
</g>
<!-- Node1&#45;&gt;Node2 -->
<g id="edge1_Node000001_Node000002" class="edge">
<title>Node1&#45;&gt;Node2</title>
<g id="a_edge1_Node000001_Node000002"><a xlink:title=" ">
<path fill="none" stroke="#63b8ff" d="M659,-178.93C552.93,-166.56 383.17,-146.77 284.06,-135.22"/>
<polygon fill="#63b8ff" stroke="#63b8ff" points="284.44,-131.74 274.1,-134.06 283.63,-138.69 284.44,-131.74"/>
</a>
</g>
</g>
<!-- Node4 -->
<g id="Node000004" class="node">
<title>Node4</title>
<g id="a_Node000004"><a xlink:href="UToolbarSettings_8h.html" target="_top" xlink:title="Coffee Toolbar 플러그인을 구성하기 위한 개발자 설정을 선언합니다.">
<polygon fill="white" stroke="#666666" points="592.5,-134.5 441.5,-134.5 441.5,-115.5 592.5,-115.5 592.5,-134.5"/>
<text text-anchor="middle" x="517" y="-122.5" font-family="Malgun Gothic" font-size="10.00">Settings/UToolbarSettings.h</text>
</a>
</g>
</g>
<!-- Node1&#45;&gt;Node4 -->
<g id="edge3_Node000001_Node000004" class="edge">
<title>Node1&#45;&gt;Node4</title>
<g id="a_edge3_Node000001_Node000004"><a xlink:title=" ">
<path fill="none" stroke="#63b8ff" d="M701.99,-175.95C658.78,-164.29 598.13,-147.91 558.22,-137.13"/>
<polygon fill="#63b8ff" stroke="#63b8ff" points="559.11,-133.75 548.54,-134.52 557.28,-140.5 559.11,-133.75"/>
</a>
</g>
</g>
<!-- Node14 -->
<g id="Node000014" class="node">
<title>Node14</title>
<g id="a_Node000014"><a xlink:title=" ">
<polygon fill="#e0e0e0" stroke="#999999" points="739.5,-140 610.5,-140 610.5,-110 739.5,-110 739.5,-140"/>
<text text-anchor="start" x="618.5" y="-128" font-family="Malgun Gothic" font-size="10.00">Framework/Application</text>
<text text-anchor="middle" x="675" y="-117" font-family="Malgun Gothic" font-size="10.00">/SlateApplication.h</text>
</a>
</g>
</g>
<!-- Node1&#45;&gt;Node14 -->
<g id="edge16_Node000001_Node000014" class="edge">
<title>Node1&#45;&gt;Node14</title>
<g id="a_edge16_Node000001_Node000014"><a xlink:title=" ">
<path fill="none" stroke="#63b8ff" d="M736.47,-175.8C725.83,-167.18 712.08,-156.04 700.28,-146.48"/>
<polygon fill="#63b8ff" stroke="#63b8ff" points="702.46,-143.74 692.48,-140.16 698.05,-149.18 702.46,-143.74"/>
</a>
</g>
</g>
<!-- Node15 -->
<g id="Node000015" class="node">
<title>Node15</title>
<g id="a_Node000015"><a xlink:title=" ">
<polygon fill="#e0e0e0" stroke="#999999" points="908.5,-134.5 757.5,-134.5 757.5,-115.5 908.5,-115.5 908.5,-134.5"/>
<text text-anchor="middle" x="833" y="-122.5" font-family="Malgun Gothic" font-size="10.00">Styling/SlateStyleRegistry.h</text>
</a>
</g>
</g>
<!-- Node1&#45;&gt;Node15 -->
<g id="edge17_Node000001_Node000015" class="edge">
<title>Node1&#45;&gt;Node15</title>
<g id="a_edge17_Node000001_Node000015"><a xlink:title=" ">
<path fill="none" stroke="#63b8ff" d="M771.53,-175.8C784.21,-165.53 801.32,-151.67 814.26,-141.18"/>
<polygon fill="#63b8ff" stroke="#63b8ff" points="816.52,-143.86 822.08,-134.84 812.11,-138.42 816.52,-143.86"/>
</a>
</g>
</g>
<!-- Node16 -->
<g id="Node000016" class="node">
<title>Node16</title>
<g id="a_Node000016"><a xlink:title=" ">
<polygon fill="#e0e0e0" stroke="#999999" points="1079,-134.5 927,-134.5 927,-115.5 1079,-115.5 1079,-134.5"/>
<text text-anchor="middle" x="1003" y="-122.5" font-family="Malgun Gothic" font-size="10.00">Interfaces/IPluginManager.h</text>
</a>
</g>
</g>
<!-- Node1&#45;&gt;Node16 -->
<g id="edge18_Node000001_Node000016" class="edge">
<title>Node1&#45;&gt;Node16</title>
<g id="a_edge18_Node000001_Node000016"><a xlink:title=" ">
<path fill="none" stroke="#63b8ff" d="M808.64,-175.95C854.14,-164.26 918.04,-147.84 959.96,-137.06"/>
<polygon fill="#63b8ff" stroke="#63b8ff" points="961.05,-140.4 969.86,-134.52 959.31,-133.62 961.05,-140.4"/>
</a>
</g>
</g>
<!-- Node17 -->
<g id="Node000017" class="node">
<title>Node17</title>
<g id="a_Node000017"><a xlink:title=" ">
<polygon fill="#e0e0e0" stroke="#999999" points="1244.5,-134.5 1097.5,-134.5 1097.5,-115.5 1244.5,-115.5 1244.5,-134.5"/>
<text text-anchor="middle" x="1171" y="-122.5" font-family="Malgun Gothic" font-size="10.00">Styling/SlateStyleMacros.h</text>
</a>
</g>
</g>
<!-- Node1&#45;&gt;Node17 -->
<g id="edge19_Node000001_Node000017" class="edge">
<title>Node1&#45;&gt;Node17</title>
<g id="a_edge19_Node000001_Node000017"><a xlink:title=" ">
<path fill="none" stroke="#63b8ff" d="M849.09,-176.24C915.96,-166.45 1007.51,-152.81 1088,-140 1095.61,-138.79 1103.61,-137.48 1111.51,-136.17"/>
<polygon fill="#63b8ff" stroke="#63b8ff" points="1112.14,-139.61 1121.43,-134.52 1110.99,-132.71 1112.14,-139.61"/>
</a>
</g>
</g>
<!-- Node3 -->
<g id="Node000003" class="node">
<title>Node3</title>
<g id="a_Node000003"><a xlink:title=" ">
<polygon fill="#e0e0e0" stroke="#999999" points="112,-74 0,-74 0,-55 112,-55 112,-74"/>
<text text-anchor="middle" x="56" y="-62" font-family="Malgun Gothic" font-size="10.00">Styling/SlateStyle.h</text>
</a>
</g>
</g>
<!-- Node2&#45;&gt;Node3 -->
<g id="edge2_Node000002_Node000003" class="edge">
<title>Node2&#45;&gt;Node3</title>
<g id="a_edge2_Node000002_Node000003"><a xlink:title=" ">
<path fill="none" stroke="#63b8ff" d="M183.33,-115.49C158.06,-105.57 116.09,-89.09 87.28,-77.78"/>
<polygon fill="#63b8ff" stroke="#63b8ff" points="88.28,-74.41 77.69,-74.02 85.72,-80.93 88.28,-74.41"/>
</a>
</g>
</g>
<!-- Node5 -->
<g id="Node000005" class="node">
<title>Node5</title>
<g id="a_Node000005"><a xlink:title=" ">
<polygon fill="#e0e0e0" stroke="#999999" points="648,-19 560,-19 560,0 648,0 648,-19"/>
<text text-anchor="middle" x="604" y="-7" font-family="Malgun Gothic" font-size="10.00">CoreMinimal.h</text>
</a>
</g>
</g>
<!-- Node4&#45;&gt;Node5 -->
<g id="edge4_Node000004_Node000005" class="edge">
<title>Node4&#45;&gt;Node5</title>
<g id="a_edge4_Node000004_Node000005"><a xlink:title=" ">
<path fill="none" stroke="#63b8ff" d="M548.76,-115.47C569.32,-108.13 594.49,-95.26 607,-74 614.96,-60.47 613.15,-42.38 609.97,-28.97"/>
<polygon fill="#63b8ff" stroke="#63b8ff" points="613.24,-27.68 607.16,-19.01 606.51,-29.59 613.24,-27.68"/>
</a>
</g>
</g>
<!-- Node6 -->
<g id="Node000006" class="node">
<title>Node6</title>
<g id="a_Node000006"><a xlink:href="FToolbarButtonInfo_8h.html" target="_top" xlink:title="커스터마이즈 가능한 Coffee Toolbar 버튼 정보를 선언합니다.">
<polygon fill="white" stroke="#666666" points="247.5,-74 130.5,-74 130.5,-55 247.5,-55 247.5,-74"/>
<text text-anchor="middle" x="189" y="-62" font-family="Malgun Gothic" font-size="10.00">FToolbarButtonInfo.h</text>
</a>
</g>
</g>
<!-- Node4&#45;&gt;Node6 -->
<g id="edge5_Node000004_Node000006" class="edge">
<title>Node4&#45;&gt;Node6</title>
<g id="a_edge5_Node000004_Node000006"><a xlink:title=" ">
<path fill="none" stroke="#63b8ff" d="M469.31,-115.49C410.4,-104.99 310.25,-87.12 246.96,-75.84"/>
<polygon fill="#63b8ff" stroke="#63b8ff" points="247.21,-72.33 236.75,-74.02 245.98,-79.22 247.21,-72.33"/>
</a>
</g>
</g>
<!-- Node8 -->
<g id="Node000008" class="node">
<title>Node8</title>
<g id="a_Node000008"><a xlink:title=" ">
<polygon fill="#e0e0e0" stroke="#999999" points="418,-74 266,-74 266,-55 418,-55 418,-74"/>
<text text-anchor="middle" x="342" y="-62" font-family="Malgun Gothic" font-size="10.00">Engine/DeveloperSettings.h</text>
</a>
</g>
</g>
<!-- Node4&#45;&gt;Node8 -->
<g id="edge8_Node000004_Node000008" class="edge">
<title>Node4&#45;&gt;Node8</title>
<g id="a_edge8_Node000004_Node000008"><a xlink:title=" ">
<path fill="none" stroke="#63b8ff" d="M491.55,-115.49C461.36,-105.4 410.84,-88.51 376.98,-77.19"/>
<polygon fill="#63b8ff" stroke="#63b8ff" points="378.07,-73.87 367.48,-74.02 375.85,-80.51 378.07,-73.87"/>
</a>
</g>
</g>
<!-- Node9 -->
<g id="Node000009" class="node">
<title>Node9</title>
<g id="a_Node000009"><a xlink:href="FFolderPathInfo_8h.html" target="_top" xlink:title=" ">
<polygon fill="white" stroke="#666666" points="788,-74 654,-74 654,-55 788,-55 788,-74"/>
<text text-anchor="middle" x="721" y="-62" font-family="Malgun Gothic" font-size="10.00">Folder/FFolderPathInfo.h</text>
</a>
</g>
</g>
<!-- Node4&#45;&gt;Node9 -->
<g id="edge9_Node000004_Node000009" class="edge">
<title>Node4&#45;&gt;Node9</title>
<g id="a_edge9_Node000004_Node000009"><a xlink:title=" ">
<path fill="none" stroke="#63b8ff" d="M546.66,-115.49C582.24,-105.29 642.02,-88.15 681.48,-76.83"/>
<polygon fill="#63b8ff" stroke="#63b8ff" points="682.65,-80.14 691.3,-74.02 680.72,-73.41 682.65,-80.14"/>
</a>
</g>
</g>
<!-- Node11 -->
<g id="Node000011" class="node">
<title>Node11</title>
<g id="a_Node000011"><a xlink:href="FApiSendInfo_8h.html" target="_top" xlink:title="HTTP API 요청 정보를 정의합니다.">
<polygon fill="white" stroke="#666666" points="958,-74 806,-74 806,-55 958,-55 958,-74"/>
<text text-anchor="middle" x="882" y="-62" font-family="Malgun Gothic" font-size="10.00">NetworkTest/FApiSendInfo.h</text>
</a>
</g>
</g>
<!-- Node4&#45;&gt;Node11 -->
<g id="edge12_Node000004_Node000011" class="edge">
<title>Node4&#45;&gt;Node11</title>
<g id="a_edge12_Node000004_Node000011"><a xlink:title=" ">
<path fill="none" stroke="#63b8ff" d="M568.68,-115.44C579.68,-113.63 591.22,-111.74 602,-110 676.03,-98.02 761.11,-84.54 817.88,-75.59"/>
<polygon fill="#63b8ff" stroke="#63b8ff" points="818.45,-79.04 827.78,-74.02 817.36,-72.12 818.45,-79.04"/>
</a>
</g>
</g>
<!-- Node13 -->
<g id="Node000013" class="node">
<title>Node13</title>
<g id="a_Node000013"><a xlink:title=" ">
<polygon fill="#e0e0e0" stroke="#999999" points="597.5,-74 436.5,-74 436.5,-55 597.5,-55 597.5,-74"/>
<text text-anchor="middle" x="517" y="-62" font-family="Malgun Gothic" font-size="10.00">UToolbarSettings.generated.h</text>
</a>
</g>
</g>
<!-- Node4&#45;&gt;Node13 -->
<g id="edge15_Node000004_Node000013" class="edge">
<title>Node4&#45;&gt;Node13</title>
<g id="a_edge15_Node000004_Node000013"><a xlink:title=" ">
<path fill="none" stroke="#63b8ff" d="M517,-115.37C517,-107.25 517,-94.81 517,-84.39"/>
<polygon fill="#63b8ff" stroke="#63b8ff" points="520.5,-84.17 517,-74.17 513.5,-84.17 520.5,-84.17"/>
</a>
</g>
</g>
<!-- Node6&#45;&gt;Node5 -->
<g id="edge6_Node000006_Node000005" class="edge">
<title>Node6&#45;&gt;Node5</title>
<g id="a_edge6_Node000006_Node000005"><a xlink:title=" ">
<path fill="none" stroke="#63b8ff" d="M247.58,-56.02C328.09,-45.74 471.8,-27.38 549.89,-17.41"/>
<polygon fill="#63b8ff" stroke="#63b8ff" points="550.52,-20.86 560,-16.12 549.64,-13.91 550.52,-20.86"/>
</a>
</g>
</g>
<!-- Node7 -->
<g id="Node000007" class="node">
<title>Node7</title>
<g id="a_Node000007"><a xlink:title=" ">
<polygon fill="#e0e0e0" stroke="#999999" points="274,-19 104,-19 104,0 274,0 274,-19"/>
<text text-anchor="middle" x="189" y="-7" font-family="Malgun Gothic" font-size="10.00">FToolbarButtonInfo.generated.h</text>
</a>
</g>
</g>
<!-- Node6&#45;&gt;Node7 -->
<g id="edge7_Node000006_Node000007" class="edge">
<title>Node6&#45;&gt;Node7</title>
<g id="a_edge7_Node000006_Node000007"><a xlink:title=" ">
<path fill="none" stroke="#63b8ff" d="M189,-54.75C189,-47.8 189,-37.85 189,-29.13"/>
<polygon fill="#63b8ff" stroke="#63b8ff" points="192.5,-29.09 189,-19.09 185.5,-29.09 192.5,-29.09"/>
</a>
</g>
</g>
<!-- Node9&#45;&gt;Node5 -->
<g id="edge10_Node000009_Node000005" class="edge">
<title>Node9&#45;&gt;Node5</title>
<g id="a_edge10_Node000009_Node000005"><a xlink:title=" ">
<path fill="none" stroke="#63b8ff" d="M702.2,-54.98C683.38,-46.46 654.18,-33.23 632.5,-23.41"/>
<polygon fill="#63b8ff" stroke="#63b8ff" points="633.69,-20.11 623.14,-19.17 630.8,-26.48 633.69,-20.11"/>
</a>
</g>
</g>
<!-- Node10 -->
<g id="Node000010" class="node">
<title>Node10</title>
<g id="a_Node000010"><a xlink:title=" ">
<polygon fill="#e0e0e0" stroke="#999999" points="820,-19 666,-19 666,0 820,0 820,-19"/>
<text text-anchor="middle" x="743" y="-7" font-family="Malgun Gothic" font-size="10.00">FFolderPathInfo.generated.h</text>
</a>
</g>
</g>
<!-- Node9&#45;&gt;Node10 -->
<g id="edge11_Node000009_Node000010" class="edge">
<title>Node9&#45;&gt;Node10</title>
<g id="a_edge11_Node000009_Node000010"><a xlink:title=" ">
<path fill="none" stroke="#63b8ff" d="M724.63,-54.75C727.58,-47.65 731.83,-37.4 735.51,-28.56"/>
<polygon fill="#63b8ff" stroke="#63b8ff" points="738.83,-29.67 739.43,-19.09 732.37,-26.98 738.83,-29.67"/>
</a>
</g>
</g>
<!-- Node11&#45;&gt;Node5 -->
<g id="edge13_Node000011_Node000005" class="edge">
<title>Node11&#45;&gt;Node5</title>
<g id="a_edge13_Node000011_Node000005"><a xlink:title=" ">
<path fill="none" stroke="#63b8ff" d="M837.33,-54.98C788.56,-45.68 710.43,-30.79 658.18,-20.83"/>
<polygon fill="#63b8ff" stroke="#63b8ff" points="658.57,-17.34 648.1,-18.91 657.26,-24.22 658.57,-17.34"/>
</a>
</g>
</g>
<!-- Node12 -->
<g id="Node000012" class="node">
<title>Node12</title>
<g id="a_Node000012"><a xlink:title=" ">
<polygon fill="#e0e0e0" stroke="#999999" points="979.5,-19 838.5,-19 838.5,0 979.5,0 979.5,-19"/>
<text text-anchor="middle" x="909" y="-7" font-family="Malgun Gothic" font-size="10.00">FApiSendInfo.generated.h</text>
</a>
</g>
</g>
<!-- Node11&#45;&gt;Node12 -->
<g id="edge14_Node000011_Node000012" class="edge">
<title>Node11&#45;&gt;Node12</title>
<g id="a_edge14_Node000011_Node000012"><a xlink:title=" ">
<path fill="none" stroke="#63b8ff" d="M886.46,-54.75C890.12,-47.57 895.41,-37.18 899.95,-28.27"/>
<polygon fill="#63b8ff" stroke="#63b8ff" points="903.2,-29.59 904.62,-19.09 896.97,-26.41 903.2,-29.59"/>
</a>
</g>
</g>
</g>
</svg>
