<?xml version="1.0" encoding="UTF-8" standalone="no"?>
<!DOCTYPE svg PUBLIC "-//W3C//DTD SVG 1.1//EN"
 "http://www.w3.org/Graphics/SVG/1.1/DTD/svg11.dtd">
<!-- Generated by graphviz version 2.43.0 (0)
 -->
<!-- Title: Source/CoffeeToolbar/Private/Common/FToolbarStyle.cpp Pages: 1 -->
<!--zoomable 214 -->

<svg id="main" version="1.1" xmlns="http://www.w3.org/2000/svg" xmlns:xlink="http://www.w3.org/1999/xlink" xml:space="preserve" onload="init(evt)">
<style type="text/css"><![CDATA[
.node, .edge {opacity: 0.7;}
.node.selected, .edge.selected {opacity: 1;}
.edge:hover path { stroke: red; }
.edge:hover polygon { stroke: red; fill: red; }
]]></style>

<defs>
  <circle id="rim" cx="0" cy="0" r="7"/>
  <circle id="rim2" cx="0" cy="0" r="3.5"/>
  <g id="zoomPlus">
    <use xlink:href="#rim" fill="#404040"><set attributeName="fill" to="#808080" begin="zoomplus.mouseover" end="zoomplus.mouseout"/></use>
    <path d="M-4,0h8M0,-4v8" fill="none" stroke="white" stroke-width="1.5" pointer-events="none"/>
  </g>
  <g id="zoomMin">
    <use xlink:href="#rim" fill="#404040"><set attributeName="fill" to="#808080" begin="zoomminus.mouseover" end="zoomminus.mouseout"/></use>
    <path d="M-4,0h8" fill="none" stroke="white" stroke-width="1.5" pointer-events="none"/>
  </g>
  <g id="arrowUp" transform="translate(30 24)">
    <use xlink:href="#rim"/>
    <path pointer-events="none" fill="none" stroke="white" stroke-width="1.5" d="M0,-3.0v7 M-2.5,-0.5L0,-3.0L2.5,-0.5"/>
  </g>
  <g id="arrowRight" transform="rotate(90) translate(36 -43)">
    <use xlink:href="#rim"/>
    <path pointer-events="none" fill="none" stroke="white" stroke-width="1.5" d="M0,-3.0v7 M-2.5,-0.5L0,-3.0L2.5,-0.5"/>
  </g>
  <g id="arrowDown" transform="rotate(180) translate(-30 -48)">
    <use xlink:href="#rim"/>
    <path pointer-events="none" fill="none" stroke="white" stroke-width="1.5" d="M0,-3.0v7 M-2.5,-0.5L0,-3.0L2.5,-0.5"/>
  </g>
  <g id="arrowLeft" transform="rotate(270) translate(-36 17)">
    <use xlink:href="#rim"/>
    <path pointer-events="none" fill="none" stroke="white" stroke-width="1.5" d="M0,-3.0v7 M-2.5,-0.5L0,-3.0L2.5,-0.5"/>
  </g>
  <g id="resetDef">
    <use xlink:href="#rim2" fill="#404040"><set attributeName="fill" to="#808080" begin="reset.mouseover" end="reset.mouseout"/></use>
  </g>
</defs>
<script type="application/ecmascript">
var viewWidth = 972;
var viewHeight = 214;
var sectionId = 'dynsection-0';
</script>
<script type="application/ecmascript" xlink:href="svg.min.js"/>
<svg id="graph" class="graph">
<g id="viewport">
<title>Source/CoffeeToolbar/Private/Common/FToolbarStyle.cpp</title>
<!-- Node1 -->
<g id="Node000001" class="node">
<title>Node1</title>
<g id="a_Node000001"><a xlink:title="Coffee Toolbar 플러그인의 Slate 스타일 등록을 구현합니다.">
<polygon fill="#999999" stroke="#666666" points="568,-206 378,-206 378,-176 568,-176 568,-206"/>
<text text-anchor="start" x="386" y="-194" font-family="Malgun Gothic" font-size="10.00">Source/CoffeeToolbar</text>
<text text-anchor="middle" x="473" y="-183" font-family="Malgun Gothic" font-size="10.00">/Private/Common/FToolbarStyle.cpp</text>
</a>
</g>
</g>
<!-- Node2 -->
<g id="Node000002" class="node">
<title>Node2</title>
<g id="a_Node000002"><a xlink:href="FToolbarStyle_8h.html" target="_top" xlink:title="Coffee Toolbar 플러그인이 사용하는 Slate 스타일 세트를 선언합니다.">
<polygon fill="white" stroke="#666666" points="138,-134.5 0,-134.5 0,-115.5 138,-115.5 138,-134.5"/>
<text text-anchor="middle" x="69" y="-122.5" font-family="Malgun Gothic" font-size="10.00">Common/FToolbarStyle.h</text>
</a>
</g>
</g>
<!-- Node1&#45;&gt;Node2 -->
<g id="edge1_Node000001_Node000002" class="edge">
<title>Node1&#45;&gt;Node2</title>
<g id="a_edge1_Node000001_Node000002"><a xlink:title=" ">
<path fill="none" stroke="#63b8ff" d="M380.94,-175.97C316.74,-166.12 229.11,-152.51 152,-140 144.58,-138.8 136.79,-137.51 129.07,-136.22"/>
<polygon fill="#63b8ff" stroke="#63b8ff" points="129.46,-132.74 119.02,-134.54 128.3,-139.64 129.46,-132.74"/>
</a>
</g>
</g>
<!-- Node4 -->
<g id="Node000004" class="node">
<title>Node4</title>
<g id="a_Node000004"><a xlink:href="UToolbarSettings_8h.html" target="_top" xlink:title="Coffee Toolbar 플러그인을 구성하기 위한 개발자 설정을 선언합니다.">
<polygon fill="white" stroke="#666666" points="311.5,-134.5 160.5,-134.5 160.5,-115.5 311.5,-115.5 311.5,-134.5"/>
<text text-anchor="middle" x="236" y="-122.5" font-family="Malgun Gothic" font-size="10.00">Settings/UToolbarSettings.h</text>
</a>
</g>
</g>
<!-- Node1&#45;&gt;Node4 -->
<g id="edge3_Node000001_Node000004" class="edge">
<title>Node1&#45;&gt;Node4</title>
<g id="a_edge3_Node000001_Node000004"><a xlink:title=" ">
<path fill="none" stroke="#63b8ff" d="M420.99,-175.95C377.78,-164.29 317.13,-147.91 277.22,-137.13"/>
<polygon fill="#63b8ff" stroke="#63b8ff" points="278.11,-133.75 267.54,-134.52 276.28,-140.5 278.11,-133.75"/>
</a>
</g>
</g>
<!-- Node10 -->
<g id="Node000010" class="node">
<title>Node10</title>
<g id="a_Node000010"><a xlink:title=" ">
<polygon fill="#e0e0e0" stroke="#999999" points="458.5,-140 329.5,-140 329.5,-110 458.5,-110 458.5,-140"/>
<text text-anchor="start" x="337.5" y="-128" font-family="Malgun Gothic" font-size="10.00">Framework/Application</text>
<text text-anchor="middle" x="394" y="-117" font-family="Malgun Gothic" font-size="10.00">/SlateApplication.h</text>
</a>
</g>
</g>
<!-- Node1&#45;&gt;Node10 -->
<g id="edge10_Node000001_Node000010" class="edge">
<title>Node1&#45;&gt;Node10</title>
<g id="a_edge10_Node000001_Node000010"><a xlink:title=" ">
<path fill="none" stroke="#63b8ff" d="M455.47,-175.8C444.83,-167.18 431.08,-156.04 419.28,-146.48"/>
<polygon fill="#63b8ff" stroke="#63b8ff" points="421.46,-143.74 411.48,-140.16 417.05,-149.18 421.46,-143.74"/>
</a>
</g>
</g>
<!-- Node11 -->
<g id="Node000011" class="node">
<title>Node11</title>
<g id="a_Node000011"><a xlink:title=" ">
<polygon fill="#e0e0e0" stroke="#999999" points="627.5,-134.5 476.5,-134.5 476.5,-115.5 627.5,-115.5 627.5,-134.5"/>
<text text-anchor="middle" x="552" y="-122.5" font-family="Malgun Gothic" font-size="10.00">Styling/SlateStyleRegistry.h</text>
</a>
</g>
</g>
<!-- Node1&#45;&gt;Node11 -->
<g id="edge11_Node000001_Node000011" class="edge">
<title>Node1&#45;&gt;Node11</title>
<g id="a_edge11_Node000001_Node000011"><a xlink:title=" ">
<path fill="none" stroke="#63b8ff" d="M490.53,-175.8C503.21,-165.53 520.32,-151.67 533.26,-141.18"/>
<polygon fill="#63b8ff" stroke="#63b8ff" points="535.52,-143.86 541.08,-134.84 531.11,-138.42 535.52,-143.86"/>
</a>
</g>
</g>
<!-- Node12 -->
<g id="Node000012" class="node">
<title>Node12</title>
<g id="a_Node000012"><a xlink:title=" ">
<polygon fill="#e0e0e0" stroke="#999999" points="798,-134.5 646,-134.5 646,-115.5 798,-115.5 798,-134.5"/>
<text text-anchor="middle" x="722" y="-122.5" font-family="Malgun Gothic" font-size="10.00">Interfaces/IPluginManager.h</text>
</a>
</g>
</g>
<!-- Node1&#45;&gt;Node12 -->
<g id="edge12_Node000001_Node000012" class="edge">
<title>Node1&#45;&gt;Node12</title>
<g id="a_edge12_Node000001_Node000012"><a xlink:title=" ">
<path fill="none" stroke="#63b8ff" d="M527.64,-175.95C573.14,-164.26 637.04,-147.84 678.96,-137.06"/>
<polygon fill="#63b8ff" stroke="#63b8ff" points="680.05,-140.4 688.86,-134.52 678.31,-133.62 680.05,-140.4"/>
</a>
</g>
</g>
<!-- Node13 -->
<g id="Node000013" class="node">
<title>Node13</title>
<g id="a_Node000013"><a xlink:title=" ">
<polygon fill="#e0e0e0" stroke="#999999" points="963.5,-134.5 816.5,-134.5 816.5,-115.5 963.5,-115.5 963.5,-134.5"/>
<text text-anchor="middle" x="890" y="-122.5" font-family="Malgun Gothic" font-size="10.00">Styling/SlateStyleMacros.h</text>
</a>
</g>
</g>
<!-- Node1&#45;&gt;Node13 -->
<g id="edge13_Node000001_Node000013" class="edge">
<title>Node1&#45;&gt;Node13</title>
<g id="a_edge13_Node000001_Node000013"><a xlink:title=" ">
<path fill="none" stroke="#63b8ff" d="M568.09,-176.24C634.96,-166.45 726.51,-152.81 807,-140 814.61,-138.79 822.61,-137.48 830.51,-136.17"/>
<polygon fill="#63b8ff" stroke="#63b8ff" points="831.14,-139.61 840.43,-134.52 829.99,-132.71 831.14,-139.61"/>
</a>
</g>
</g>
<!-- Node3 -->
<g id="Node000003" class="node">
<title>Node3</title>
<g id="a_Node000003"><a xlink:title=" ">
<polygon fill="#e0e0e0" stroke="#999999" points="121,-74 9,-74 9,-55 121,-55 121,-74"/>
<text text-anchor="middle" x="65" y="-62" font-family="Malgun Gothic" font-size="10.00">Styling/SlateStyle.h</text>
</a>
</g>
</g>
<!-- Node2&#45;&gt;Node3 -->
<g id="edge2_Node000002_Node000003" class="edge">
<title>Node2&#45;&gt;Node3</title>
<g id="a_edge2_Node000002_Node000003"><a xlink:title=" ">
<path fill="none" stroke="#63b8ff" d="M68.41,-115.37C67.85,-107.25 67,-94.81 66.29,-84.39"/>
<polygon fill="#63b8ff" stroke="#63b8ff" points="69.77,-83.91 65.59,-74.17 62.78,-84.38 69.77,-83.91"/>
</a>
</g>
</g>
<!-- Node5 -->
<g id="Node000005" class="node">
<title>Node5</title>
<g id="a_Node000005"><a xlink:title=" ">
<polygon fill="#e0e0e0" stroke="#999999" points="193,-19 105,-19 105,0 193,0 193,-19"/>
<text text-anchor="middle" x="149" y="-7" font-family="Malgun Gothic" font-size="10.00">CoreMinimal.h</text>
</a>
</g>
</g>
<!-- Node4&#45;&gt;Node5 -->
<g id="edge4_Node000004_Node000005" class="edge">
<title>Node4&#45;&gt;Node5</title>
<g id="a_edge4_Node000004_Node000005"><a xlink:title=" ">
<path fill="none" stroke="#63b8ff" d="M219.02,-115.36C203.84,-106.8 182.02,-92.34 169,-74 159.49,-60.6 154.37,-42.5 151.7,-29.05"/>
<polygon fill="#63b8ff" stroke="#63b8ff" points="155.13,-28.32 149.99,-19.05 148.23,-29.5 155.13,-28.32"/>
</a>
</g>
</g>
<!-- Node6 -->
<g id="Node000006" class="node">
<title>Node6</title>
<g id="a_Node000006"><a xlink:href="FToolbarButtonInfo_8h.html" target="_top" xlink:title="커스터마이즈 가능한 Coffee Toolbar 버튼 정보를 선언합니다.">
<polygon fill="white" stroke="#666666" points="294.5,-74 177.5,-74 177.5,-55 294.5,-55 294.5,-74"/>
<text text-anchor="middle" x="236" y="-62" font-family="Malgun Gothic" font-size="10.00">FToolbarButtonInfo.h</text>
</a>
</g>
</g>
<!-- Node4&#45;&gt;Node6 -->
<g id="edge5_Node000004_Node000006" class="edge">
<title>Node4&#45;&gt;Node6</title>
<g id="a_edge5_Node000004_Node000006"><a xlink:title=" ">
<path fill="none" stroke="#63b8ff" d="M236,-115.37C236,-107.25 236,-94.81 236,-84.39"/>
<polygon fill="#63b8ff" stroke="#63b8ff" points="239.5,-84.17 236,-74.17 232.5,-84.17 239.5,-84.17"/>
</a>
</g>
</g>
<!-- Node8 -->
<g id="Node000008" class="node">
<title>Node8</title>
<g id="a_Node000008"><a xlink:title=" ">
<polygon fill="#e0e0e0" stroke="#999999" points="465,-74 313,-74 313,-55 465,-55 465,-74"/>
<text text-anchor="middle" x="389" y="-62" font-family="Malgun Gothic" font-size="10.00">Engine/DeveloperSettings.h</text>
</a>
</g>
</g>
<!-- Node4&#45;&gt;Node8 -->
<g id="edge8_Node000004_Node000008" class="edge">
<title>Node4&#45;&gt;Node8</title>
<g id="a_edge8_Node000004_Node000008"><a xlink:title=" ">
<path fill="none" stroke="#63b8ff" d="M258.25,-115.49C284.31,-105.53 327.68,-88.95 357.27,-77.63"/>
<polygon fill="#63b8ff" stroke="#63b8ff" points="358.64,-80.86 366.73,-74.02 356.14,-74.32 358.64,-80.86"/>
</a>
</g>
</g>
<!-- Node9 -->
<g id="Node000009" class="node">
<title>Node9</title>
<g id="a_Node000009"><a xlink:title=" ">
<polygon fill="#e0e0e0" stroke="#999999" points="644.5,-74 483.5,-74 483.5,-55 644.5,-55 644.5,-74"/>
<text text-anchor="middle" x="564" y="-62" font-family="Malgun Gothic" font-size="10.00">UToolbarSettings.generated.h</text>
</a>
</g>
</g>
<!-- Node4&#45;&gt;Node9 -->
<g id="edge9_Node000004_Node000009" class="edge">
<title>Node4&#45;&gt;Node9</title>
<g id="a_edge9_Node000004_Node000009"><a xlink:title=" ">
<path fill="none" stroke="#63b8ff" d="M283.69,-115.49C342.6,-104.99 442.75,-87.12 506.04,-75.84"/>
<polygon fill="#63b8ff" stroke="#63b8ff" points="507.02,-79.22 516.25,-74.02 505.79,-72.33 507.02,-79.22"/>
</a>
</g>
</g>
<!-- Node6&#45;&gt;Node5 -->
<g id="edge6_Node000006_Node000005" class="edge">
<title>Node6&#45;&gt;Node5</title>
<g id="a_edge6_Node000006_Node000005"><a xlink:title=" ">
<path fill="none" stroke="#63b8ff" d="M222.02,-54.98C208.53,-46.77 187.87,-34.18 171.96,-24.49"/>
<polygon fill="#63b8ff" stroke="#63b8ff" points="173.59,-21.38 163.23,-19.17 169.95,-27.36 173.59,-21.38"/>
</a>
</g>
</g>
<!-- Node7 -->
<g id="Node000007" class="node">
<title>Node7</title>
<g id="a_Node000007"><a xlink:title=" ">
<polygon fill="#e0e0e0" stroke="#999999" points="381,-19 211,-19 211,0 381,0 381,-19"/>
<text text-anchor="middle" x="296" y="-7" font-family="Malgun Gothic" font-size="10.00">FToolbarButtonInfo.generated.h</text>
</a>
</g>
</g>
<!-- Node6&#45;&gt;Node7 -->
<g id="edge7_Node000006_Node000007" class="edge">
<title>Node6&#45;&gt;Node7</title>
<g id="a_edge7_Node000006_Node000007"><a xlink:title=" ">
<path fill="none" stroke="#63b8ff" d="M245.64,-54.98C254.51,-47.15 267.87,-35.34 278.61,-25.86"/>
<polygon fill="#63b8ff" stroke="#63b8ff" points="281.01,-28.41 286.18,-19.17 276.37,-23.17 281.01,-28.41"/>
</a>
</g>
</g>
</g>
</svg>

<g id="navigator" transform="translate(0 0)" fill="#404254">
  <rect fill="#f2f5e9" fill-opacity="0.5" stroke="#606060" stroke-width=".5" x="0" y="0" width="60" height="60"/>
  <use id="zoomplus" xlink:href="#zoomPlus" x="17" y="9" onmousedown="handleZoom(evt,'in')"/>
  <use id="zoomminus" xlink:href="#zoomMin" x="42" y="9" onmousedown="handleZoom(evt,'out')"/>
  <use id="reset" xlink:href="#resetDef" x="30" y="36" onmousedown="handleReset()"/>
   <use id="arrowup" xlink:href="#arrowUp" x="0" y="0" onmousedown="handlePan(0,-1)"/>
  <use id="arrowright" xlink:href="#arrowRight" x="0" y="0" onmousedown="handlePan(1,0)"/>
  <use id="arrowdown" xlink:href="#arrowDown" x="0" y="0" onmousedown="handlePan(0,1)"/>
  <use id="arrowleft" xlink:href="#arrowLeft" x="0" y="0" onmousedown="handlePan(-1,0)"/>
</g>
<svg viewBox="0 0 15 15" width="100%" height="30px" preserveAspectRatio="xMaxYMin meet">
 <g id="arrow_out" transform="scale(0.3 0.3)">
  <a xlink:href="FToolbarStyle_8cpp__incl_org.svg" target="_base">
   <rect id="button" ry="5" rx="5" y="6" x="6" height="38" width="38"
        fill="#f2f5e9" fill-opacity="0.5" stroke="#606060" stroke-width="1.0"/>
   <path id="arrow"
     d="M 11.500037,31.436501 C 11.940474,20.09759 22.043105,11.32322 32.158766,21.979434 L 37.068811,17.246167 C 37.068811,17.246167 37.088388,32 37.088388,32 L 22.160133,31.978069 C 22.160133,31.978069 26.997745,27.140456 26.997745,27.140456 C 18.528582,18.264221 13.291696,25.230495 11.500037,31.436501 z"
     style="fill:#404040;"/>
  </a>
 </g>
</svg>

<style type='text/css'>
<![CDATA[
[data-mouse-over-selected='false'] { opacity: 0.7; }
[data-mouse-over-selected='true']  { opacity: 1.0; }
]]>
</style>
<script type="application/ecmascript"><![CDATA[
document.addEventListener('DOMContentLoaded', (event) => {
  highlightEdges();
  highlightAdjacentNodes();
});
]]></script>
</svg>
