<?xml version="1.0" encoding="UTF-8" standalone="no"?>
<!DOCTYPE svg PUBLIC "-//W3C//DTD SVG 1.1//EN"
 "http://www.w3.org/Graphics/SVG/1.1/DTD/svg11.dtd">
<!-- Generated by graphviz version 2.43.0 (0)
 -->
<!-- Title: Source/CoffeeToolbar/Public/Common/FToolbarCommands.h Pages: 1 -->
<svg width="366pt" height="104pt"
 viewBox="0.00 0.00 366.00 104.00" xmlns="http://www.w3.org/2000/svg" xmlns:xlink="http://www.w3.org/1999/xlink">
<g id="graph0" class="graph" transform="scale(1 1) rotate(0) translate(4 100)">
<title>Source/CoffeeToolbar/Public/Common/FToolbarCommands.h</title>
<!-- Node1 -->
<g id="Node000001" class="node">
<title>Node1</title>
<g id="a_Node000001"><a xlink:title="Coffee Toolbar 플러그인에서 사용하는 명령 바인딩을 선언합니다.">
<polygon fill="#999999" stroke="#666666" points="306.5,-96 102.5,-96 102.5,-66 306.5,-66 306.5,-96"/>
<text text-anchor="start" x="110.5" y="-84" font-family="Malgun Gothic" font-size="10.00">Source/CoffeeToolbar</text>
<text text-anchor="middle" x="204.5" y="-73" font-family="Malgun Gothic" font-size="10.00">/Public/Common/FToolbarCommands.h</text>
</a>
</g>
</g>
<!-- Node2 -->
<g id="Node000002" class="node">
<title>Node2</title>
<g id="a_Node000002"><a xlink:href="FToolbarCommands_8cpp.html" target="_top" xlink:title="Coffee Toolbar 플러그인의 Slate 명령 정의를 구현합니다.">
<polygon fill="white" stroke="#666666" points="221,-30 0,-30 0,0 221,0 221,-30"/>
<text text-anchor="start" x="8" y="-18" font-family="Malgun Gothic" font-size="10.00">Source/CoffeeToolbar</text>
<text text-anchor="middle" x="110.5" y="-7" font-family="Malgun Gothic" font-size="10.00">/Private/Common/FToolbarCommands.cpp</text>
</a>
</g>
</g>
<!-- Node1&#45;&gt;Node2 -->
<g id="edge1_Node000001_Node000002" class="edge">
<title>Node1&#45;&gt;Node2</title>
<g id="a_edge1_Node000001_Node000002"><a xlink:title=" ">
<path fill="none" stroke="#63b8ff" d="M175.17,-60.03C160.94,-50.34 144.19,-38.94 131.3,-30.16"/>
<polygon fill="#63b8ff" stroke="#63b8ff" points="173.4,-63.06 183.64,-65.8 177.34,-57.28 173.4,-63.06"/>
</a>
</g>
</g>
<!-- Node3 -->
<g id="Node000003" class="node">
<title>Node3</title>
<g id="a_Node000003"><a xlink:href="FToolbar_8cpp.html" target="_top" xlink:title="Coffee Toolbar 모듈의 라이프사이클과 메뉴 등록 로직을 구현합니다.">
<polygon fill="white" stroke="#666666" points="358,-30 239,-30 239,0 358,0 358,-30"/>
<text text-anchor="start" x="247" y="-18" font-family="Malgun Gothic" font-size="10.00">Source/CoffeeToolbar</text>
<text text-anchor="middle" x="298.5" y="-7" font-family="Malgun Gothic" font-size="10.00">/Private/FToolbar.cpp</text>
</a>
</g>
</g>
<!-- Node1&#45;&gt;Node3 -->
<g id="edge2_Node000001_Node000003" class="edge">
<title>Node1&#45;&gt;Node3</title>
<g id="a_edge2_Node000001_Node000003"><a xlink:title=" ">
<path fill="none" stroke="#63b8ff" d="M233.83,-60.03C248.06,-50.34 264.81,-38.94 277.7,-30.16"/>
<polygon fill="#63b8ff" stroke="#63b8ff" points="231.66,-57.28 225.36,-65.8 235.6,-63.06 231.66,-57.28"/>
</a>
</g>
</g>
</g>
</svg>
