<?xml version="1.0" encoding="UTF-8" standalone="no"?>
<!DOCTYPE svg PUBLIC "-//W3C//DTD SVG 1.1//EN"
 "http://www.w3.org/Graphics/SVG/1.1/DTD/svg11.dtd">
<!-- Generated by graphviz version 2.43.0 (0)
 -->
<!-- Title: Source/CoffeeToolbar/Private/FToolbar.cpp Pages: 1 -->
<!--zoomable 225 -->

<svg id="main" version="1.1" xmlns="http://www.w3.org/2000/svg" xmlns:xlink="http://www.w3.org/1999/xlink" xml:space="preserve" onload="init(evt)">
<style type="text/css"><![CDATA[
.node, .edge {opacity: 0.7;}
.node.selected, .edge.selected {opacity: 1;}
.edge:hover path { stroke: red; }
.edge:hover polygon { stroke: red; fill: red; }
]]></style>

<defs>
  <circle id="rim" cx="0" cy="0" r="7"/>
  <circle id="rim2" cx="0" cy="0" r="3.5"/>
  <g id="zoomPlus">
    <use xlink:href="#rim" fill="#404040"><set attributeName="fill" to="#808080" begin="zoomplus.mouseover" end="zoomplus.mouseout"/></use>
    <path d="M-4,0h8M0,-4v8" fill="none" stroke="white" stroke-width="1.5" pointer-events="none"/>
  </g>
  <g id="zoomMin">
    <use xlink:href="#rim" fill="#404040"><set attributeName="fill" to="#808080" begin="zoomminus.mouseover" end="zoomminus.mouseout"/></use>
    <path d="M-4,0h8" fill="none" stroke="white" stroke-width="1.5" pointer-events="none"/>
  </g>
  <g id="arrowUp" transform="translate(30 24)">
    <use xlink:href="#rim"/>
    <path pointer-events="none" fill="none" stroke="white" stroke-width="1.5" d="M0,-3.0v7 M-2.5,-0.5L0,-3.0L2.5,-0.5"/>
  </g>
  <g id="arrowRight" transform="rotate(90) translate(36 -43)">
    <use xlink:href="#rim"/>
    <path pointer-events="none" fill="none" stroke="white" stroke-width="1.5" d="M0,-3.0v7 M-2.5,-0.5L0,-3.0L2.5,-0.5"/>
  </g>
  <g id="arrowDown" transform="rotate(180) translate(-30 -48)">
    <use xlink:href="#rim"/>
    <path pointer-events="none" fill="none" stroke="white" stroke-width="1.5" d="M0,-3.0v7 M-2.5,-0.5L0,-3.0L2.5,-0.5"/>
  </g>
  <g id="arrowLeft" transform="rotate(270) translate(-36 17)">
    <use xlink:href="#rim"/>
    <path pointer-events="none" fill="none" stroke="white" stroke-width="1.5" d="M0,-3.0v7 M-2.5,-0.5L0,-3.0L2.5,-0.5"/>
  </g>
  <g id="resetDef">
    <use xlink:href="#rim2" fill="#404040"><set attributeName="fill" to="#808080" begin="reset.mouseover" end="reset.mouseout"/></use>
  </g>
</defs>
<script type="application/ecmascript">
var viewWidth = 1558;
var viewHeight = 225;
var sectionId = 'dynsection-0';
</script>
<script type="application/ecmascript" xlink:href="svg.min.js"/>
<svg id="graph" class="graph">
<g id="viewport">
<title>Source/CoffeeToolbar/Private/FToolbar.cpp</title>
<!-- Node1 -->
<g id="Node000001" class="node">
<title>Node1</title>
<g id="a_Node000001"><a xlink:title="Coffee Toolbar 모듈의 라이프사이클과 메뉴 등록 로직을 구현합니다.">
<polygon fill="#999999" stroke="#666666" points="817.5,-217 698.5,-217 698.5,-187 817.5,-187 817.5,-217"/>
<text text-anchor="start" x="706.5" y="-205" font-family="Malgun Gothic" font-size="10.00">Source/CoffeeToolbar</text>
<text text-anchor="middle" x="758" y="-194" font-family="Malgun Gothic" font-size="10.00">/Private/FToolbar.cpp</text>
</a>
</g>
</g>
<!-- Node2 -->
<g id="Node000002" class="node">
<title>Node2</title>
<g id="a_Node000002"><a xlink:href="FToolbar_8h.html" target="_top" xlink:title="CoffeeToolbar 플러그인의 주요 모듈 구현을 선언합니다.">
<polygon fill="white" stroke="#666666" points="426.5,-151 361.5,-151 361.5,-132 426.5,-132 426.5,-151"/>
<text text-anchor="middle" x="394" y="-139" font-family="Malgun Gothic" font-size="10.00">FToolbar.h</text>
</a>
</g>
</g>
<!-- Node1&#45;&gt;Node2 -->
<g id="edge1_Node000001_Node000002" class="edge">
<title>Node1&#45;&gt;Node2</title>
<g id="a_edge1_Node000001_Node000002"><a xlink:title=" ">
<path fill="none" stroke="#63b8ff" d="M698.3,-191.41C624.74,-179.58 501.58,-159.79 436.8,-149.38"/>
<polygon fill="#63b8ff" stroke="#63b8ff" points="436.98,-145.86 426.55,-147.73 435.86,-152.77 436.98,-145.86"/>
</a>
</g>
</g>
<!-- Node3 -->
<g id="Node000003" class="node">
<title>Node3</title>
<g id="a_Node000003"><a xlink:title=" ">
<polygon fill="#e0e0e0" stroke="#999999" points="148,-90.5 0,-90.5 0,-71.5 148,-71.5 148,-90.5"/>
<text text-anchor="middle" x="74" y="-78.5" font-family="Malgun Gothic" font-size="10.00">Modules/ModuleManager.h</text>
</a>
</g>
</g>
<!-- Node1&#45;&gt;Node3 -->
<g id="edge26_Node000001_Node000003" class="edge">
<title>Node1&#45;&gt;Node3</title>
<g id="a_edge26_Node000001_Node000003"><a xlink:title=" ">
<path fill="none" stroke="#63b8ff" d="M698.25,-197.8C611.24,-192.38 444.9,-179.1 306,-151 233.82,-136.4 151.74,-109.45 107.15,-93.91"/>
<polygon fill="#63b8ff" stroke="#63b8ff" points="108.28,-90.6 97.69,-90.59 105.96,-97.2 108.28,-90.6"/>
</a>
</g>
</g>
<!-- Node4 -->
<g id="Node000004" class="node">
<title>Node4</title>
<g id="a_Node000004"><a xlink:href="FCommandFeature_8h.html" target="_top" xlink:title="명령형 버튼을 담당하는 툴바 기능을 선언합니다.">
<polygon fill="white" stroke="#666666" points="480,-90.5 308,-90.5 308,-71.5 480,-71.5 480,-90.5"/>
<text text-anchor="middle" x="394" y="-78.5" font-family="Malgun Gothic" font-size="10.00">Command/FCommandFeature.h</text>
</a>
</g>
</g>
<!-- Node1&#45;&gt;Node4 -->
<g id="edge28_Node000001_Node000004" class="edge">
<title>Node1&#45;&gt;Node4</title>
<g id="a_edge28_Node000001_Node000004"><a xlink:title=" ">
<path fill="none" stroke="#63b8ff" d="M714.21,-186.96C683.15,-176.99 640.5,-163.24 603,-151 541.92,-131.07 470.92,-107.55 429.38,-93.76"/>
<polygon fill="#63b8ff" stroke="#63b8ff" points="430.32,-90.38 419.72,-90.55 428.11,-97.03 430.32,-90.38"/>
</a>
</g>
</g>
<!-- Node8 -->
<g id="Node000008" class="node">
<title>Node8</title>
<g id="a_Node000008"><a xlink:href="FLevelFeature_8h.html" target="_top" xlink:title="툴바에 레벨 선택 컨트롤을 제공하는 기능을 선언합니다.">
<polygon fill="white" stroke="#666666" points="290,-90.5 166,-90.5 166,-71.5 290,-71.5 290,-90.5"/>
<text text-anchor="middle" x="228" y="-78.5" font-family="Malgun Gothic" font-size="10.00">Level/FLevelFeature.h</text>
</a>
</g>
</g>
<!-- Node1&#45;&gt;Node8 -->
<g id="edge29_Node000001_Node000008" class="edge">
<title>Node1&#45;&gt;Node8</title>
<g id="a_edge29_Node000001_Node000008"><a xlink:title=" ">
<path fill="none" stroke="#63b8ff" d="M698.31,-200.75C617.75,-198.82 470.67,-189.69 352,-151 312.71,-138.19 271.67,-112.55 248.05,-96.38"/>
<polygon fill="#63b8ff" stroke="#63b8ff" points="249.81,-93.35 239.6,-90.5 245.81,-99.09 249.81,-93.35"/>
</a>
</g>
</g>
<!-- Node10 -->
<g id="Node000010" class="node">
<title>Node10</title>
<g id="a_Node000010"><a xlink:href="FScreenshotFeature_8h.html" target="_top" xlink:title="툴바의 스크린샷 워크플로우 버튼을 위한 헬퍼를 선언합니다.">
<polygon fill="white" stroke="#666666" points="677.5,-90.5 498.5,-90.5 498.5,-71.5 677.5,-71.5 677.5,-90.5"/>
<text text-anchor="middle" x="588" y="-78.5" font-family="Malgun Gothic" font-size="10.00">Screenshot/FScreenshotFeature.h</text>
</a>
</g>
</g>
<!-- Node1&#45;&gt;Node10 -->
<g id="edge30_Node000001_Node000010" class="edge">
<title>Node1&#45;&gt;Node10</title>
<g id="a_edge30_Node000001_Node000010"><a xlink:title=" ">
<path fill="none" stroke="#63b8ff" d="M698.37,-189.92C672.13,-182.55 642.46,-170.49 621,-151 606.29,-137.64 597.5,-116.31 592.74,-100.91"/>
<polygon fill="#63b8ff" stroke="#63b8ff" points="596.01,-99.62 589.95,-90.93 589.27,-101.5 596.01,-99.62"/>
</a>
</g>
</g>
<!-- Node11 -->
<g id="Node000011" class="node">
<title>Node11</title>
<g id="a_Node000011"><a xlink:href="FToolbarStyle_8h.html" target="_top" xlink:title="Coffee Toolbar 플러그인이 사용하는 Slate 스타일 세트를 선언합니다.">
<polygon fill="white" stroke="#666666" points="1222,-90.5 1084,-90.5 1084,-71.5 1222,-71.5 1222,-90.5"/>
<text text-anchor="middle" x="1153" y="-78.5" font-family="Malgun Gothic" font-size="10.00">Common/FToolbarStyle.h</text>
</a>
</g>
</g>
<!-- Node1&#45;&gt;Node11 -->
<g id="edge15_Node000001_Node000011" class="edge">
<title>Node1&#45;&gt;Node11</title>
<g id="a_edge15_Node000001_Node000011"><a xlink:title=" ">
<path fill="none" stroke="#63b8ff" d="M768,-186.96C780.35,-170.8 802.95,-144.85 829,-132 928.1,-83.12 965.94,-113.76 1075,-96 1082.1,-94.84 1089.54,-93.58 1096.9,-92.29"/>
<polygon fill="#63b8ff" stroke="#63b8ff" points="1097.61,-95.72 1106.85,-90.54 1096.39,-88.83 1097.61,-95.72"/>
</a>
</g>
</g>
<!-- Node13 -->
<g id="Node000013" class="node">
<title>Node13</title>
<g id="a_Node000013"><a xlink:href="FToolbarCommands_8h.html" target="_top" xlink:title="Coffee Toolbar 플러그인에서 사용하는 명령 바인딩을 선언합니다.">
<polygon fill="white" stroke="#666666" points="1006.5,-151 837.5,-151 837.5,-132 1006.5,-132 1006.5,-151"/>
<text text-anchor="middle" x="922" y="-139" font-family="Malgun Gothic" font-size="10.00">Common/FToolbarCommands.h</text>
</a>
</g>
</g>
<!-- Node1&#45;&gt;Node13 -->
<g id="edge17_Node000001_Node000013" class="edge">
<title>Node1&#45;&gt;Node13</title>
<g id="a_edge17_Node000001_Node000013"><a xlink:title=" ">
<path fill="none" stroke="#63b8ff" d="M797.28,-186.99C825.01,-177.1 861.78,-163.98 888.2,-154.56"/>
<polygon fill="#63b8ff" stroke="#63b8ff" points="889.54,-157.8 897.78,-151.14 887.19,-151.2 889.54,-157.8"/>
</a>
</g>
</g>
<!-- Node15 -->
<g id="Node000015" class="node">
<title>Node15</title>
<g id="a_Node000015"><a xlink:href="UToolbarSettings_8h.html" target="_top" xlink:title="Coffee Toolbar 플러그인을 구성하기 위한 개발자 설정을 선언합니다.">
<polygon fill="white" stroke="#666666" points="781.5,-151 630.5,-151 630.5,-132 781.5,-132 781.5,-151"/>
<text text-anchor="middle" x="706" y="-139" font-family="Malgun Gothic" font-size="10.00">Settings/UToolbarSettings.h</text>
</a>
</g>
</g>
<!-- Node1&#45;&gt;Node15 -->
<g id="edge20_Node000001_Node000015" class="edge">
<title>Node1&#45;&gt;Node15</title>
<g id="a_edge20_Node000001_Node000015"><a xlink:title=" ">
<path fill="none" stroke="#63b8ff" d="M745.41,-186.84C737.94,-178.43 728.44,-167.74 720.63,-158.96"/>
<polygon fill="#63b8ff" stroke="#63b8ff" points="723.05,-156.41 713.79,-151.27 717.82,-161.07 723.05,-156.41"/>
</a>
</g>
</g>
<!-- Node18 -->
<g id="Node000018" class="node">
<title>Node18</title>
<g id="a_Node000018"><a xlink:title=" ">
<polygon fill="#e0e0e0" stroke="#999999" points="1101.5,-151 1024.5,-151 1024.5,-132 1101.5,-132 1101.5,-151"/>
<text text-anchor="middle" x="1063" y="-139" font-family="Malgun Gothic" font-size="10.00">ToolMenus.h</text>
</a>
</g>
</g>
<!-- Node1&#45;&gt;Node18 -->
<g id="edge24_Node000001_Node000018" class="edge">
<title>Node1&#45;&gt;Node18</title>
<g id="a_edge24_Node000001_Node000018"><a xlink:title=" ">
<path fill="none" stroke="#63b8ff" d="M817.53,-189.58C875.02,-178.55 961.02,-162.06 1014.48,-151.81"/>
<polygon fill="#63b8ff" stroke="#63b8ff" points="1015.23,-155.23 1024.39,-149.91 1013.91,-148.35 1015.23,-155.23"/>
</a>
</g>
</g>
<!-- Node19 -->
<g id="Node000019" class="node">
<title>Node19</title>
<g id="a_Node000019"><a xlink:title=" ">
<polygon fill="#e0e0e0" stroke="#999999" points="1246,-151 1120,-151 1120,-132 1246,-132 1246,-151"/>
<text text-anchor="middle" x="1183" y="-139" font-family="Malgun Gothic" font-size="10.00">Misc/MessageDialog.h</text>
</a>
</g>
</g>
<!-- Node1&#45;&gt;Node19 -->
<g id="edge25_Node000001_Node000019" class="edge">
<title>Node1&#45;&gt;Node19</title>
<g id="a_edge25_Node000001_Node000019"><a xlink:title=" ">
<path fill="none" stroke="#63b8ff" d="M817.54,-192.8C894.52,-182.21 1028.46,-163.77 1111.04,-152.4"/>
<polygon fill="#63b8ff" stroke="#63b8ff" points="1111.67,-155.85 1121.1,-151.02 1110.72,-148.92 1111.67,-155.85"/>
</a>
</g>
</g>
<!-- Node20 -->
<g id="Node000020" class="node">
<title>Node20</title>
<g id="a_Node000020"><a xlink:title=" ">
<polygon fill="#e0e0e0" stroke="#999999" points="1394,-151 1264,-151 1264,-132 1394,-132 1394,-151"/>
<text text-anchor="middle" x="1329" y="-139" font-family="Malgun Gothic" font-size="10.00">Camera/CameraActor.h</text>
</a>
</g>
</g>
<!-- Node1&#45;&gt;Node20 -->
<g id="edge27_Node000001_Node000020" class="edge">
<title>Node1&#45;&gt;Node20</title>
<g id="a_edge27_Node000001_Node000020"><a xlink:title=" ">
<path fill="none" stroke="#63b8ff" d="M817.7,-195.27C909.13,-186.43 1089.62,-168.74 1253.37,-151.16"/>
<polygon fill="#63b8ff" stroke="#63b8ff" points="1254.07,-154.61 1263.64,-150.06 1253.32,-147.65 1254.07,-154.61"/>
</a>
</g>
</g>
<!-- Node21 -->
<g id="Node000021" class="node">
<title>Node21</title>
<g id="a_Node000021"><a xlink:title=" ">
<polygon fill="#e0e0e0" stroke="#999999" points="1549.5,-151 1412.5,-151 1412.5,-132 1549.5,-132 1549.5,-151"/>
<text text-anchor="middle" x="1481" y="-139" font-family="Malgun Gothic" font-size="10.00">Styling/SlateIconFinder.h</text>
</a>
</g>
</g>
<!-- Node1&#45;&gt;Node21 -->
<g id="edge31_Node000001_Node000021" class="edge">
<title>Node1&#45;&gt;Node21</title>
<g id="a_edge31_Node000001_Node000021"><a xlink:title=" ">
<path fill="none" stroke="#63b8ff" d="M817.63,-197C929.78,-189.35 1180,-171.62 1401.9,-151.07"/>
<polygon fill="#63b8ff" stroke="#63b8ff" points="1402.48,-154.54 1412.11,-150.13 1401.83,-147.57 1402.48,-154.54"/>
</a>
</g>
</g>
<!-- Node2&#45;&gt;Node3 -->
<g id="edge2_Node000002_Node000003" class="edge">
<title>Node2&#45;&gt;Node3</title>
<g id="a_edge2_Node000002_Node000003"><a xlink:title=" ">
<path fill="none" stroke="#63b8ff" d="M361.26,-134.51C306.94,-124.58 197.56,-104.59 130.55,-92.34"/>
<polygon fill="#63b8ff" stroke="#63b8ff" points="131.04,-88.87 120.58,-90.52 129.79,-95.76 131.04,-88.87"/>
</a>
</g>
</g>
<!-- Node2&#45;&gt;Node4 -->
<g id="edge3_Node000002_Node000004" class="edge">
<title>Node2&#45;&gt;Node4</title>
<g id="a_edge3_Node000002_Node000004"><a xlink:title=" ">
<path fill="none" stroke="#63b8ff" d="M394,-131.87C394,-123.75 394,-111.31 394,-100.89"/>
<polygon fill="#63b8ff" stroke="#63b8ff" points="397.5,-100.67 394,-90.67 390.5,-100.67 397.5,-100.67"/>
</a>
</g>
</g>
<!-- Node2&#45;&gt;Node8 -->
<g id="edge7_Node000002_Node000008" class="edge">
<title>Node2&#45;&gt;Node8</title>
<g id="a_edge7_Node000002_Node000008"><a xlink:title=" ">
<path fill="none" stroke="#63b8ff" d="M369.86,-131.99C341.46,-121.99 294.12,-105.3 262.01,-93.99"/>
<polygon fill="#63b8ff" stroke="#63b8ff" points="262.76,-90.54 252.17,-90.52 260.44,-97.14 262.76,-90.54"/>
</a>
</g>
</g>
<!-- Node2&#45;&gt;Node10 -->
<g id="edge12_Node000002_Node000010" class="edge">
<title>Node2&#45;&gt;Node10</title>
<g id="a_edge12_Node000002_Node000010"><a xlink:title=" ">
<path fill="none" stroke="#63b8ff" d="M422.21,-131.99C455.97,-121.81 512.65,-104.72 550.18,-93.4"/>
<polygon fill="#63b8ff" stroke="#63b8ff" points="551.19,-96.75 559.76,-90.52 549.17,-90.05 551.19,-96.75"/>
</a>
</g>
</g>
<!-- Node5 -->
<g id="Node000005" class="node">
<title>Node5</title>
<g id="a_Node000005"><a xlink:title=" ">
<polygon fill="#e0e0e0" stroke="#999999" points="594,-24.5 506,-24.5 506,-5.5 594,-5.5 594,-24.5"/>
<text text-anchor="middle" x="550" y="-12.5" font-family="Malgun Gothic" font-size="10.00">CoreMinimal.h</text>
</a>
</g>
</g>
<!-- Node4&#45;&gt;Node5 -->
<g id="edge4_Node000004_Node000005" class="edge">
<title>Node4&#45;&gt;Node5</title>
<g id="a_edge4_Node000004_Node000005"><a xlink:title=" ">
<path fill="none" stroke="#63b8ff" d="M415.04,-71.37C441.98,-60.32 488.86,-41.08 519.66,-28.45"/>
<polygon fill="#63b8ff" stroke="#63b8ff" points="521.12,-31.63 529.05,-24.6 518.47,-25.15 521.12,-31.63"/>
</a>
</g>
</g>
<!-- Node6 -->
<g id="Node000006" class="node">
<title>Node6</title>
<g id="a_Node000006"><a xlink:title=" ">
<polygon fill="#e0e0e0" stroke="#999999" points="467.5,-24.5 358.5,-24.5 358.5,-5.5 467.5,-5.5 467.5,-24.5"/>
<text text-anchor="middle" x="413" y="-12.5" font-family="Malgun Gothic" font-size="10.00">Widgets/SWidget.h</text>
</a>
</g>
</g>
<!-- Node4&#45;&gt;Node6 -->
<g id="edge5_Node000004_Node000006" class="edge">
<title>Node4&#45;&gt;Node6</title>
<g id="a_edge5_Node000004_Node000006"><a xlink:title=" ">
<path fill="none" stroke="#63b8ff" d="M396.56,-71.37C399.35,-61.97 403.89,-46.67 407.5,-34.53"/>
<polygon fill="#63b8ff" stroke="#63b8ff" points="410.87,-35.49 410.36,-24.91 404.15,-33.5 410.87,-35.49"/>
</a>
</g>
</g>
<!-- Node7 -->
<g id="Node000007" class="node">
<title>Node7</title>
<g id="a_Node000007"><a xlink:title=" ">
<polygon fill="#e0e0e0" stroke="#999999" points="340,-30 210,-30 210,0 340,0 340,-30"/>
<text text-anchor="start" x="218" y="-18" font-family="Malgun Gothic" font-size="10.00">Framework/Commands</text>
<text text-anchor="middle" x="275" y="-7" font-family="Malgun Gothic" font-size="10.00">/UIAction.h</text>
</a>
</g>
</g>
<!-- Node4&#45;&gt;Node7 -->
<g id="edge6_Node000004_Node000007" class="edge">
<title>Node4&#45;&gt;Node7</title>
<g id="a_edge6_Node000004_Node000007"><a xlink:title=" ">
<path fill="none" stroke="#63b8ff" d="M377.95,-71.37C360.67,-62.07 332.62,-46.99 310.17,-34.91"/>
<polygon fill="#63b8ff" stroke="#63b8ff" points="311.71,-31.77 301.25,-30.12 308.4,-37.93 311.71,-31.77"/>
</a>
</g>
</g>
<!-- Node8&#45;&gt;Node5 -->
<g id="edge8_Node000008_Node000005" class="edge">
<title>Node8&#45;&gt;Node5</title>
<g id="a_edge8_Node000008_Node000005"><a xlink:title=" ">
<path fill="none" stroke="#63b8ff" d="M271.09,-71.44C329.53,-59.82 433.85,-39.09 497.01,-26.53"/>
<polygon fill="#63b8ff" stroke="#63b8ff" points="498.04,-29.9 507.16,-24.51 496.67,-23.03 498.04,-29.9"/>
</a>
</g>
</g>
<!-- Node8&#45;&gt;Node6 -->
<g id="edge9_Node000008_Node000006" class="edge">
<title>Node8&#45;&gt;Node6</title>
<g id="a_edge9_Node000008_Node000006"><a xlink:title=" ">
<path fill="none" stroke="#63b8ff" d="M252.95,-71.37C285.31,-60.17 341.94,-40.58 378.43,-27.96"/>
<polygon fill="#63b8ff" stroke="#63b8ff" points="379.84,-31.17 388.15,-24.6 377.56,-24.56 379.84,-31.17"/>
</a>
</g>
</g>
<!-- Node8&#45;&gt;Node7 -->
<g id="edge10_Node000008_Node000007" class="edge">
<title>Node8&#45;&gt;Node7</title>
<g id="a_edge10_Node000008_Node000007"><a xlink:title=" ">
<path fill="none" stroke="#63b8ff" d="M234.34,-71.37C240.49,-62.99 250.09,-49.93 258.41,-38.59"/>
<polygon fill="#63b8ff" stroke="#63b8ff" points="261.36,-40.49 264.45,-30.36 255.71,-36.35 261.36,-40.49"/>
</a>
</g>
</g>
<!-- Node9 -->
<g id="Node000009" class="node">
<title>Node9</title>
<g id="a_Node000009"><a xlink:title=" ">
<polygon fill="#e0e0e0" stroke="#999999" points="192,-24.5 46,-24.5 46,-5.5 192,-5.5 192,-24.5"/>
<text text-anchor="middle" x="119" y="-12.5" font-family="Malgun Gothic" font-size="10.00">AssetRegistry/AssetData.h</text>
</a>
</g>
</g>
<!-- Node8&#45;&gt;Node9 -->
<g id="edge11_Node000008_Node000009" class="edge">
<title>Node8&#45;&gt;Node9</title>
<g id="a_edge11_Node000008_Node000009"><a xlink:title=" ">
<path fill="none" stroke="#63b8ff" d="M213.3,-71.37C195.18,-60.73 164.15,-42.51 142.66,-29.89"/>
<polygon fill="#63b8ff" stroke="#63b8ff" points="144.21,-26.74 133.82,-24.7 140.67,-32.78 144.21,-26.74"/>
</a>
</g>
</g>
<!-- Node10&#45;&gt;Node5 -->
<g id="edge13_Node000010_Node000005" class="edge">
<title>Node10&#45;&gt;Node5</title>
<g id="a_edge13_Node000010_Node000005"><a xlink:title=" ">
<path fill="none" stroke="#63b8ff" d="M582.88,-71.37C577.18,-61.78 567.84,-46.05 560.57,-33.8"/>
<polygon fill="#63b8ff" stroke="#63b8ff" points="563.4,-31.72 555.29,-24.91 557.38,-35.29 563.4,-31.72"/>
</a>
</g>
</g>
<!-- Node10&#45;&gt;Node6 -->
<g id="edge14_Node000010_Node000006" class="edge">
<title>Node10&#45;&gt;Node6</title>
<g id="a_edge14_Node000010_Node000006"><a xlink:title=" ">
<path fill="none" stroke="#63b8ff" d="M564.4,-71.37C533.91,-60.22 480.68,-40.75 446.15,-28.12"/>
<polygon fill="#63b8ff" stroke="#63b8ff" points="447.1,-24.74 436.51,-24.6 444.7,-31.32 447.1,-24.74"/>
</a>
</g>
</g>
<!-- Node12 -->
<g id="Node000012" class="node">
<title>Node12</title>
<g id="a_Node000012"><a xlink:title=" ">
<polygon fill="#e0e0e0" stroke="#999999" points="1209,-24.5 1097,-24.5 1097,-5.5 1209,-5.5 1209,-24.5"/>
<text text-anchor="middle" x="1153" y="-12.5" font-family="Malgun Gothic" font-size="10.00">Styling/SlateStyle.h</text>
</a>
</g>
</g>
<!-- Node11&#45;&gt;Node12 -->
<g id="edge16_Node000011_Node000012" class="edge">
<title>Node11&#45;&gt;Node12</title>
<g id="a_edge16_Node000011_Node000012"><a xlink:title=" ">
<path fill="none" stroke="#63b8ff" d="M1153,-71.37C1153,-62.16 1153,-47.29 1153,-35.27"/>
<polygon fill="#63b8ff" stroke="#63b8ff" points="1156.5,-34.91 1153,-24.91 1149.5,-34.91 1156.5,-34.91"/>
</a>
</g>
</g>
<!-- Node13&#45;&gt;Node11 -->
<g id="edge19_Node000013_Node000011" class="edge">
<title>Node13&#45;&gt;Node11</title>
<g id="a_edge19_Node000013_Node000011"><a xlink:title=" ">
<path fill="none" stroke="#63b8ff" d="M955.59,-131.99C996.31,-121.68 1065,-104.28 1109.67,-92.97"/>
<polygon fill="#63b8ff" stroke="#63b8ff" points="1110.54,-96.36 1119.37,-90.52 1108.82,-89.58 1110.54,-96.36"/>
</a>
</g>
</g>
<!-- Node14 -->
<g id="Node000014" class="node">
<title>Node14</title>
<g id="a_Node000014"><a xlink:title=" ">
<polygon fill="#e0e0e0" stroke="#999999" points="1370,-96 1240,-96 1240,-66 1370,-66 1370,-96"/>
<text text-anchor="start" x="1248" y="-84" font-family="Malgun Gothic" font-size="10.00">Framework/Commands</text>
<text text-anchor="middle" x="1305" y="-73" font-family="Malgun Gothic" font-size="10.00">/Commands.h</text>
</a>
</g>
</g>
<!-- Node13&#45;&gt;Node14 -->
<g id="edge18_Node000013_Node000014" class="edge">
<title>Node13&#45;&gt;Node14</title>
<g id="a_edge18_Node000013_Node000014"><a xlink:title=" ">
<path fill="none" stroke="#63b8ff" d="M986.93,-131.99C1047.29,-123.89 1139.94,-110.97 1229.59,-96.19"/>
<polygon fill="#63b8ff" stroke="#63b8ff" points="1230.37,-99.61 1239.66,-94.52 1229.22,-92.71 1230.37,-99.61"/>
</a>
</g>
</g>
<!-- Node15&#45;&gt;Node5 -->
<g id="edge21_Node000015_Node000005" class="edge">
<title>Node15&#45;&gt;Node5</title>
<g id="a_edge21_Node000015_Node000005"><a xlink:title=" ">
<path fill="none" stroke="#63b8ff" d="M706.12,-131.94C705.87,-116.72 703.16,-84.78 686,-66 664.92,-42.93 632.26,-30.47 604.24,-23.77"/>
<polygon fill="#63b8ff" stroke="#63b8ff" points="604.67,-20.28 594.15,-21.54 603.17,-27.11 604.67,-20.28"/>
</a>
</g>
</g>
<!-- Node16 -->
<g id="Node000016" class="node">
<title>Node16</title>
<g id="a_Node000016"><a xlink:title=" ">
<polygon fill="#e0e0e0" stroke="#999999" points="886,-90.5 734,-90.5 734,-71.5 886,-71.5 886,-90.5"/>
<text text-anchor="middle" x="810" y="-78.5" font-family="Malgun Gothic" font-size="10.00">Engine/DeveloperSettings.h</text>
</a>
</g>
</g>
<!-- Node15&#45;&gt;Node16 -->
<g id="edge22_Node000015_Node000016" class="edge">
<title>Node15&#45;&gt;Node16</title>
<g id="a_edge22_Node000015_Node000016"><a xlink:title=" ">
<path fill="none" stroke="#63b8ff" d="M721.35,-131.87C738.32,-122.32 765.9,-106.81 785.79,-95.62"/>
<polygon fill="#63b8ff" stroke="#63b8ff" points="787.59,-98.62 794.59,-90.67 784.16,-92.52 787.59,-98.62"/>
</a>
</g>
</g>
<!-- Node17 -->
<g id="Node000017" class="node">
<title>Node17</title>
<g id="a_Node000017"><a xlink:title=" ">
<polygon fill="#e0e0e0" stroke="#999999" points="1065.5,-90.5 904.5,-90.5 904.5,-71.5 1065.5,-71.5 1065.5,-90.5"/>
<text text-anchor="middle" x="985" y="-78.5" font-family="Malgun Gothic" font-size="10.00">UToolbarSettings.generated.h</text>
</a>
</g>
</g>
<!-- Node15&#45;&gt;Node17 -->
<g id="edge23_Node000015_Node000017" class="edge">
<title>Node15&#45;&gt;Node17</title>
<g id="a_edge23_Node000015_Node000017"><a xlink:title=" ">
<path fill="none" stroke="#63b8ff" d="M746.57,-131.99C796.26,-121.57 880.46,-103.92 934.36,-92.62"/>
<polygon fill="#63b8ff" stroke="#63b8ff" points="935.31,-95.99 944.38,-90.52 933.88,-89.14 935.31,-95.99"/>
</a>
</g>
</g>
</g>
</svg>

<g id="navigator" transform="translate(0 0)" fill="#404254">
  <rect fill="#f2f5e9" fill-opacity="0.5" stroke="#606060" stroke-width=".5" x="0" y="0" width="60" height="60"/>
  <use id="zoomplus" xlink:href="#zoomPlus" x="17" y="9" onmousedown="handleZoom(evt,'in')"/>
  <use id="zoomminus" xlink:href="#zoomMin" x="42" y="9" onmousedown="handleZoom(evt,'out')"/>
  <use id="reset" xlink:href="#resetDef" x="30" y="36" onmousedown="handleReset()"/>
   <use id="arrowup" xlink:href="#arrowUp" x="0" y="0" onmousedown="handlePan(0,-1)"/>
  <use id="arrowright" xlink:href="#arrowRight" x="0" y="0" onmousedown="handlePan(1,0)"/>
  <use id="arrowdown" xlink:href="#arrowDown" x="0" y="0" onmousedown="handlePan(0,1)"/>
  <use id="arrowleft" xlink:href="#arrowLeft" x="0" y="0" onmousedown="handlePan(-1,0)"/>
</g>
<svg viewBox="0 0 15 15" width="100%" height="30px" preserveAspectRatio="xMaxYMin meet">
 <g id="arrow_out" transform="scale(0.3 0.3)">
  <a xlink:href="FToolbar_8cpp__incl_org.svg" target="_base">
   <rect id="button" ry="5" rx="5" y="6" x="6" height="38" width="38"
        fill="#f2f5e9" fill-opacity="0.5" stroke="#606060" stroke-width="1.0"/>
   <path id="arrow"
     d="M 11.500037,31.436501 C 11.940474,20.09759 22.043105,11.32322 32.158766,21.979434 L 37.068811,17.246167 C 37.068811,17.246167 37.088388,32 37.088388,32 L 22.160133,31.978069 C 22.160133,31.978069 26.997745,27.140456 26.997745,27.140456 C 18.528582,18.264221 13.291696,25.230495 11.500037,31.436501 z"
     style="fill:#404040;"/>
  </a>
 </g>
</svg>

<style type='text/css'>
<![CDATA[
[data-mouse-over-selected='false'] { opacity: 0.7; }
[data-mouse-over-selected='true']  { opacity: 1.0; }
]]>
</style>
<script type="application/ecmascript"><![CDATA[
document.addEventListener('DOMContentLoaded', (event) => {
  highlightEdges();
  highlightAdjacentNodes();
});
]]></script>
</svg>
