<?xml version="1.0" encoding="UTF-8" standalone="no"?>
<!DOCTYPE svg PUBLIC "-//W3C//DTD SVG 1.1//EN"
 "http://www.w3.org/Graphics/SVG/1.1/DTD/svg11.dtd">
<!-- Generated by graphviz version 2.43.0 (0)
 -->
<!-- Title: Source/CoffeeToolbar/Public/Common/FToolbarStyle.h Pages: 1 -->
<svg width="718pt" height="170pt"
 viewBox="0.00 0.00 718.00 170.00" xmlns="http://www.w3.org/2000/svg" xmlns:xlink="http://www.w3.org/1999/xlink">
<g id="graph0" class="graph" transform="scale(1 1) rotate(0) translate(4 166)">
<title>Source/CoffeeToolbar/Public/Common/FToolbarStyle.h</title>
<!-- Node1 -->
<g id="Node000001" class="node">
<title>Node1</title>
<g id="a_Node000001"><a xlink:title="Coffee Toolbar 플러그인이 사용하는 Slate 스타일 세트를 선언합니다.">
<polygon fill="#999999" stroke="#666666" points="436,-162 263,-162 263,-132 436,-132 436,-162"/>
<text text-anchor="start" x="271" y="-150" font-family="Malgun Gothic" font-size="10.00">Source/CoffeeToolbar</text>
<text text-anchor="middle" x="349.5" y="-139" font-family="Malgun Gothic" font-size="10.00">/Public/Common/FToolbarStyle.h</text>
</a>
</g>
</g>
<!-- Node2 -->
<g id="Node000002" class="node">
<title>Node2</title>
<g id="a_Node000002"><a xlink:href="FCommon_8cpp.html" target="_top" xlink:title="Coffee Toolbar 플러그인을 위한 공용 헬퍼 유틸리티를 구현합니다.">
<polygon fill="white" stroke="#666666" points="175,-96 0,-96 0,-66 175,-66 175,-96"/>
<text text-anchor="start" x="8" y="-84" font-family="Malgun Gothic" font-size="10.00">Source/CoffeeToolbar</text>
<text text-anchor="middle" x="87.5" y="-73" font-family="Malgun Gothic" font-size="10.00">/Private/Common/FCommon.cpp</text>
</a>
</g>
</g>
<!-- Node1&#45;&gt;Node2 -->
<g id="edge1_Node000001_Node000002" class="edge">
<title>Node1&#45;&gt;Node2</title>
<g id="a_edge1_Node000001_Node000002"><a xlink:title=" ">
<path fill="none" stroke="#63b8ff" d="M282.02,-129.52C239.53,-119.14 185.27,-105.88 144.86,-96.01"/>
<polygon fill="#63b8ff" stroke="#63b8ff" points="281.46,-132.98 292,-131.95 283.12,-126.18 281.46,-132.98"/>
</a>
</g>
</g>
<!-- Node3 -->
<g id="Node000003" class="node">
<title>Node3</title>
<g id="a_Node000003"><a xlink:href="FToolbarStyle_8cpp.html" target="_top" xlink:title="Coffee Toolbar 플러그인의 Slate 스타일 등록을 구현합니다.">
<polygon fill="white" stroke="#666666" points="383.5,-96 193.5,-96 193.5,-66 383.5,-66 383.5,-96"/>
<text text-anchor="start" x="201.5" y="-84" font-family="Malgun Gothic" font-size="10.00">Source/CoffeeToolbar</text>
<text text-anchor="middle" x="288.5" y="-73" font-family="Malgun Gothic" font-size="10.00">/Private/Common/FToolbarStyle.cpp</text>
</a>
</g>
</g>
<!-- Node1&#45;&gt;Node3 -->
<g id="edge2_Node000001_Node000003" class="edge">
<title>Node1&#45;&gt;Node3</title>
<g id="a_edge2_Node000001_Node000003"><a xlink:title=" ">
<path fill="none" stroke="#63b8ff" d="M328.88,-124.37C320.01,-115.06 309.89,-104.44 302,-96.16"/>
<polygon fill="#63b8ff" stroke="#63b8ff" points="326.53,-126.97 335.96,-131.8 331.6,-122.14 326.53,-126.97"/>
</a>
</g>
</g>
<!-- Node4 -->
<g id="Node000004" class="node">
<title>Node4</title>
<g id="a_Node000004"><a xlink:href="FToolbar_8cpp.html" target="_top" xlink:title="Coffee Toolbar 모듈의 라이프사이클과 메뉴 등록 로직을 구현합니다.">
<polygon fill="white" stroke="#666666" points="471,-30 352,-30 352,0 471,0 471,-30"/>
<text text-anchor="start" x="360" y="-18" font-family="Malgun Gothic" font-size="10.00">Source/CoffeeToolbar</text>
<text text-anchor="middle" x="411.5" y="-7" font-family="Malgun Gothic" font-size="10.00">/Private/FToolbar.cpp</text>
</a>
</g>
</g>
<!-- Node1&#45;&gt;Node4 -->
<g id="edge3_Node000001_Node000004" class="edge">
<title>Node1&#45;&gt;Node4</title>
<g id="a_edge3_Node000001_Node000004"><a xlink:title=" ">
<path fill="none" stroke="#63b8ff" d="M372.14,-124.3C379.59,-116.07 387.3,-106.2 392.5,-96 403.4,-74.64 408.18,-46.86 410.17,-30.29"/>
<polygon fill="#63b8ff" stroke="#63b8ff" points="369.51,-121.99 365.16,-131.65 374.58,-126.81 369.51,-121.99"/>
</a>
</g>
</g>
<!-- Node5 -->
<g id="Node000005" class="node">
<title>Node5</title>
<g id="a_Node000005"><a xlink:href="FToolbarCommands_8h.html" target="_top" xlink:title="Coffee Toolbar 플러그인에서 사용하는 명령 바인딩을 선언합니다.">
<polygon fill="white" stroke="#666666" points="643.5,-96 439.5,-96 439.5,-66 643.5,-66 643.5,-96"/>
<text text-anchor="start" x="447.5" y="-84" font-family="Malgun Gothic" font-size="10.00">Source/CoffeeToolbar</text>
<text text-anchor="middle" x="541.5" y="-73" font-family="Malgun Gothic" font-size="10.00">/Public/Common/FToolbarCommands.h</text>
</a>
</g>
</g>
<!-- Node1&#45;&gt;Node5 -->
<g id="edge4_Node000001_Node000005" class="edge">
<title>Node1&#45;&gt;Node5</title>
<g id="a_edge4_Node000001_Node000005"><a xlink:title=" ">
<path fill="none" stroke="#63b8ff" d="M401.33,-128.72C432.09,-118.47 470.6,-105.63 499.46,-96.01"/>
<polygon fill="#63b8ff" stroke="#63b8ff" points="400.02,-125.47 391.64,-131.95 402.23,-132.11 400.02,-125.47"/>
</a>
</g>
</g>
<!-- Node5&#45;&gt;Node4 -->
<g id="edge6_Node000005_Node000004" class="edge">
<title>Node5&#45;&gt;Node4</title>
<g id="a_edge6_Node000005_Node000004"><a xlink:title=" ">
<path fill="none" stroke="#63b8ff" d="M503.95,-61.51C483.55,-51.47 458.74,-39.26 439.96,-30.01"/>
<polygon fill="#63b8ff" stroke="#63b8ff" points="502.45,-64.68 512.97,-65.95 505.55,-58.4 502.45,-64.68"/>
</a>
</g>
</g>
<!-- Node6 -->
<g id="Node000006" class="node">
<title>Node6</title>
<g id="a_Node000006"><a xlink:href="FToolbarCommands_8cpp.html" target="_top" xlink:title="Coffee Toolbar 플러그인의 Slate 명령 정의를 구현합니다.">
<polygon fill="white" stroke="#666666" points="710,-30 489,-30 489,0 710,0 710,-30"/>
<text text-anchor="start" x="497" y="-18" font-family="Malgun Gothic" font-size="10.00">Source/CoffeeToolbar</text>
<text text-anchor="middle" x="599.5" y="-7" font-family="Malgun Gothic" font-size="10.00">/Private/Common/FToolbarCommands.cpp</text>
</a>
</g>
</g>
<!-- Node5&#45;&gt;Node6 -->
<g id="edge5_Node000005_Node000006" class="edge">
<title>Node5&#45;&gt;Node6</title>
<g id="a_edge5_Node000005_Node000006"><a xlink:title=" ">
<path fill="none" stroke="#63b8ff" d="M561.1,-58.37C569.54,-49.06 579.16,-38.44 586.66,-30.16"/>
<polygon fill="#63b8ff" stroke="#63b8ff" points="558.49,-56.04 554.37,-65.8 563.68,-60.74 558.49,-56.04"/>
</a>
</g>
</g>
</g>
</svg>
