<?xml version="1.0" encoding="UTF-8" standalone="no"?>
<!DOCTYPE svg PUBLIC "-//W3C//DTD SVG 1.1//EN"
 "http://www.w3.org/Graphics/SVG/1.1/DTD/svg11.dtd">
<!-- Generated by graphviz version 2.43.0 (0)
 -->
<!-- Title: Source/CoffeeToolbar/Private/FToolbar.cpp Pages: 1 -->
<!--zoomable 225 -->

<svg id="main" version="1.1" xmlns="http://www.w3.org/2000/svg" xmlns:xlink="http://www.w3.org/1999/xlink" xml:space="preserve" onload="init(evt)">
<style type="text/css"><![CDATA[
.node, .edge {opacity: 0.7;}
.node.selected, .edge.selected {opacity: 1;}
.edge:hover path { stroke: red; }
.edge:hover polygon { stroke: red; fill: red; }
]]></style>

<defs>
  <circle id="rim" cx="0" cy="0" r="7"/>
  <circle id="rim2" cx="0" cy="0" r="3.5"/>
  <g id="zoomPlus">
    <use xlink:href="#rim" fill="#404040"><set attributeName="fill" to="#808080" begin="zoomplus.mouseover" end="zoomplus.mouseout"/></use>
    <path d="M-4,0h8M0,-4v8" fill="none" stroke="white" stroke-width="1.5" pointer-events="none"/>
  </g>
  <g id="zoomMin">
    <use xlink:href="#rim" fill="#404040"><set attributeName="fill" to="#808080" begin="zoomminus.mouseover" end="zoomminus.mouseout"/></use>
    <path d="M-4,0h8" fill="none" stroke="white" stroke-width="1.5" pointer-events="none"/>
  </g>
  <g id="arrowUp" transform="translate(30 24)">
    <use xlink:href="#rim"/>
    <path pointer-events="none" fill="none" stroke="white" stroke-width="1.5" d="M0,-3.0v7 M-2.5,-0.5L0,-3.0L2.5,-0.5"/>
  </g>
  <g id="arrowRight" transform="rotate(90) translate(36 -43)">
    <use xlink:href="#rim"/>
    <path pointer-events="none" fill="none" stroke="white" stroke-width="1.5" d="M0,-3.0v7 M-2.5,-0.5L0,-3.0L2.5,-0.5"/>
  </g>
  <g id="arrowDown" transform="rotate(180) translate(-30 -48)">
    <use xlink:href="#rim"/>
    <path pointer-events="none" fill="none" stroke="white" stroke-width="1.5" d="M0,-3.0v7 M-2.5,-0.5L0,-3.0L2.5,-0.5"/>
  </g>
  <g id="arrowLeft" transform="rotate(270) translate(-36 17)">
    <use xlink:href="#rim"/>
    <path pointer-events="none" fill="none" stroke="white" stroke-width="1.5" d="M0,-3.0v7 M-2.5,-0.5L0,-3.0L2.5,-0.5"/>
  </g>
  <g id="resetDef">
    <use xlink:href="#rim2" fill="#404040"><set attributeName="fill" to="#808080" begin="reset.mouseover" end="reset.mouseout"/></use>
  </g>
</defs>
<script type="application/ecmascript">
var viewWidth = 1601;
var viewHeight = 225;
var sectionId = 'dynsection-0';
</script>
<script type="application/ecmascript" xlink:href="svg.min.js"/>
<svg id="graph" class="graph">
<g id="viewport">
<title>Source/CoffeeToolbar/Private/FToolbar.cpp</title>
<!-- Node1 -->
<g id="Node000001" class="node">
<title>Node1</title>
<g id="a_Node000001"><a xlink:title="Coffee Toolbar 모듈의 라이프사이클과 메뉴 등록 로직을 구현합니다.">
<polygon fill="#999999" stroke="#666666" points="860.5,-217 741.5,-217 741.5,-187 860.5,-187 860.5,-217"/>
<text text-anchor="start" x="749.5" y="-205" font-family="Malgun Gothic" font-size="10.00">Source/CoffeeToolbar</text>
<text text-anchor="middle" x="801" y="-194" font-family="Malgun Gothic" font-size="10.00">/Private/FToolbar.cpp</text>
</a>
</g>
</g>
<!-- Node2 -->
<g id="Node000002" class="node">
<title>Node2</title>
<g id="a_Node000002"><a xlink:href="FToolbar_8h.html" target="_top" xlink:title="CoffeeToolbar 플러그인의 주요 모듈 구현을 선언합니다.">
<polygon fill="white" stroke="#666666" points="426.5,-151 361.5,-151 361.5,-132 426.5,-132 426.5,-151"/>
<text text-anchor="middle" x="394" y="-139" font-family="Malgun Gothic" font-size="10.00">FToolbar.h</text>
</a>
</g>
</g>
<!-- Node1&#45;&gt;Node2 -->
<g id="edge1_Node000001_Node000002" class="edge">
<title>Node1&#45;&gt;Node2</title>
<g id="a_edge1_Node000001_Node000002"><a xlink:title=" ">
<path fill="none" stroke="#63b8ff" d="M741.38,-192.43C658.36,-180.5 509.93,-159.16 436.93,-148.67"/>
<polygon fill="#63b8ff" stroke="#63b8ff" points="437.12,-145.16 426.73,-147.2 436.13,-152.09 437.12,-145.16"/>
</a>
</g>
</g>
<!-- Node3 -->
<g id="Node000003" class="node">
<title>Node3</title>
<g id="a_Node000003"><a xlink:title=" ">
<polygon fill="#e0e0e0" stroke="#999999" points="148,-90.5 0,-90.5 0,-71.5 148,-71.5 148,-90.5"/>
<text text-anchor="middle" x="74" y="-78.5" font-family="Malgun Gothic" font-size="10.00">Modules/ModuleManager.h</text>
</a>
</g>
</g>
<!-- Node1&#45;&gt;Node3 -->
<g id="edge29_Node000001_Node000003" class="edge">
<title>Node1&#45;&gt;Node3</title>
<g id="a_edge29_Node000001_Node000003"><a xlink:title=" ">
<path fill="none" stroke="#63b8ff" d="M741.42,-198.61C647.9,-194.04 461.29,-181.65 306,-151 233.56,-136.7 151.27,-109.53 106.77,-93.88"/>
<polygon fill="#63b8ff" stroke="#63b8ff" points="107.94,-90.59 97.34,-90.54 105.6,-97.18 107.94,-90.59"/>
</a>
</g>
</g>
<!-- Node4 -->
<g id="Node000004" class="node">
<title>Node4</title>
<g id="a_Node000004"><a xlink:href="FCommandFeature_8h.html" target="_top" xlink:title="명령형 버튼을 담당하는 툴바 기능을 선언합니다.">
<polygon fill="white" stroke="#666666" points="480,-90.5 308,-90.5 308,-71.5 480,-71.5 480,-90.5"/>
<text text-anchor="middle" x="394" y="-78.5" font-family="Malgun Gothic" font-size="10.00">Command/FCommandFeature.h</text>
</a>
</g>
</g>
<!-- Node1&#45;&gt;Node4 -->
<g id="edge31_Node000001_Node000004" class="edge">
<title>Node1&#45;&gt;Node4</title>
<g id="a_edge31_Node000001_Node000004"><a xlink:title=" ">
<path fill="none" stroke="#63b8ff" d="M753.12,-187C671.73,-163.2 508,-115.33 433.06,-93.42"/>
<polygon fill="#63b8ff" stroke="#63b8ff" points="433.67,-89.95 423.09,-90.51 431.71,-96.67 433.67,-89.95"/>
</a>
</g>
</g>
<!-- Node8 -->
<g id="Node000008" class="node">
<title>Node8</title>
<g id="a_Node000008"><a xlink:href="FLevelFeature_8h.html" target="_top" xlink:title="툴바에 레벨 선택 컨트롤을 제공하는 기능을 선언합니다.">
<polygon fill="white" stroke="#666666" points="290,-90.5 166,-90.5 166,-71.5 290,-71.5 290,-90.5"/>
<text text-anchor="middle" x="228" y="-78.5" font-family="Malgun Gothic" font-size="10.00">Level/FLevelFeature.h</text>
</a>
</g>
</g>
<!-- Node1&#45;&gt;Node8 -->
<g id="edge32_Node000001_Node000008" class="edge">
<title>Node1&#45;&gt;Node8</title>
<g id="a_edge32_Node000001_Node000008"><a xlink:title=" ">
<path fill="none" stroke="#63b8ff" d="M741.34,-201.76C653.83,-201.24 486.48,-193.98 352,-151 312.64,-138.42 271.62,-112.7 248.02,-96.46"/>
<polygon fill="#63b8ff" stroke="#63b8ff" points="249.78,-93.43 239.59,-90.55 245.76,-99.16 249.78,-93.43"/>
</a>
</g>
</g>
<!-- Node10 -->
<g id="Node000010" class="node">
<title>Node10</title>
<g id="a_Node000010"><a xlink:href="FScreenshotFeature_8h.html" target="_top" xlink:title="툴바의 스크린샷 워크플로우 버튼을 위한 헬퍼를 선언합니다.">
<polygon fill="white" stroke="#666666" points="677.5,-90.5 498.5,-90.5 498.5,-71.5 677.5,-71.5 677.5,-90.5"/>
<text text-anchor="middle" x="588" y="-78.5" font-family="Malgun Gothic" font-size="10.00">Screenshot/FScreenshotFeature.h</text>
</a>
</g>
</g>
<!-- Node1&#45;&gt;Node10 -->
<g id="edge33_Node000001_Node000010" class="edge">
<title>Node1&#45;&gt;Node10</title>
<g id="a_edge33_Node000001_Node000010"><a xlink:title=" ">
<path fill="none" stroke="#63b8ff" d="M748.1,-186.96C721.73,-178.68 690,-166.71 664,-151 640.06,-136.54 616.91,-113.87 602.58,-98.5"/>
<polygon fill="#63b8ff" stroke="#63b8ff" points="604.9,-95.85 595.58,-90.81 599.72,-100.56 604.9,-95.85"/>
</a>
</g>
</g>
<!-- Node11 -->
<g id="Node000011" class="node">
<title>Node11</title>
<g id="a_Node000011"><a xlink:href="FToolbarStyle_8h.html" target="_top" xlink:title="Coffee Toolbar 플러그인이 사용하는 Slate 스타일 세트를 선언합니다.">
<polygon fill="white" stroke="#666666" points="1358,-90.5 1220,-90.5 1220,-71.5 1358,-71.5 1358,-90.5"/>
<text text-anchor="middle" x="1289" y="-78.5" font-family="Malgun Gothic" font-size="10.00">Common/FToolbarStyle.h</text>
</a>
</g>
</g>
<!-- Node1&#45;&gt;Node11 -->
<g id="edge15_Node000001_Node000011" class="edge">
<title>Node1&#45;&gt;Node11</title>
<g id="a_edge15_Node000001_Node000011"><a xlink:title=" ">
<path fill="none" stroke="#63b8ff" d="M810.91,-186.78C823.18,-170.45 845.7,-144.33 872,-132 1009.18,-67.68 1061,-117.4 1211,-96 1218.66,-94.91 1226.72,-93.62 1234.64,-92.27"/>
<polygon fill="#63b8ff" stroke="#63b8ff" points="1235.29,-95.71 1244.54,-90.55 1234.09,-88.82 1235.29,-95.71"/>
</a>
</g>
</g>
<!-- Node13 -->
<g id="Node000013" class="node">
<title>Node13</title>
<g id="a_Node000013"><a xlink:href="FToolbarCommands_8h.html" target="_top" xlink:title="Coffee Toolbar 플러그인에서 사용하는 명령 바인딩을 선언합니다.">
<polygon fill="white" stroke="#666666" points="1049.5,-151 880.5,-151 880.5,-132 1049.5,-132 1049.5,-151"/>
<text text-anchor="middle" x="965" y="-139" font-family="Malgun Gothic" font-size="10.00">Common/FToolbarCommands.h</text>
</a>
</g>
</g>
<!-- Node1&#45;&gt;Node13 -->
<g id="edge17_Node000001_Node000013" class="edge">
<title>Node1&#45;&gt;Node13</title>
<g id="a_edge17_Node000001_Node000013"><a xlink:title=" ">
<path fill="none" stroke="#63b8ff" d="M840.28,-186.99C868.01,-177.1 904.78,-163.98 931.2,-154.56"/>
<polygon fill="#63b8ff" stroke="#63b8ff" points="932.54,-157.8 940.78,-151.14 930.19,-151.2 932.54,-157.8"/>
</a>
</g>
</g>
<!-- Node15 -->
<g id="Node000015" class="node">
<title>Node15</title>
<g id="a_Node000015"><a xlink:href="UToolbarSettings_8h.html" target="_top" xlink:title="Coffee Toolbar 플러그인을 구성하기 위한 개발자 설정을 선언합니다.">
<polygon fill="white" stroke="#666666" points="824.5,-151 673.5,-151 673.5,-132 824.5,-132 824.5,-151"/>
<text text-anchor="middle" x="749" y="-139" font-family="Malgun Gothic" font-size="10.00">Settings/UToolbarSettings.h</text>
</a>
</g>
</g>
<!-- Node1&#45;&gt;Node15 -->
<g id="edge20_Node000001_Node000015" class="edge">
<title>Node1&#45;&gt;Node15</title>
<g id="a_edge20_Node000001_Node000015"><a xlink:title=" ">
<path fill="none" stroke="#63b8ff" d="M788.41,-186.84C780.94,-178.43 771.44,-167.74 763.63,-158.96"/>
<polygon fill="#63b8ff" stroke="#63b8ff" points="766.05,-156.41 756.79,-151.27 760.82,-161.07 766.05,-156.41"/>
</a>
</g>
</g>
<!-- Node20 -->
<g id="Node000020" class="node">
<title>Node20</title>
<g id="a_Node000020"><a xlink:title=" ">
<polygon fill="#e0e0e0" stroke="#999999" points="1144.5,-151 1067.5,-151 1067.5,-132 1144.5,-132 1144.5,-151"/>
<text text-anchor="middle" x="1106" y="-139" font-family="Malgun Gothic" font-size="10.00">ToolMenus.h</text>
</a>
</g>
</g>
<!-- Node1&#45;&gt;Node20 -->
<g id="edge27_Node000001_Node000020" class="edge">
<title>Node1&#45;&gt;Node20</title>
<g id="a_edge27_Node000001_Node000020"><a xlink:title=" ">
<path fill="none" stroke="#63b8ff" d="M860.53,-189.58C918.02,-178.55 1004.02,-162.06 1057.48,-151.81"/>
<polygon fill="#63b8ff" stroke="#63b8ff" points="1058.23,-155.23 1067.39,-149.91 1056.91,-148.35 1058.23,-155.23"/>
</a>
</g>
</g>
<!-- Node21 -->
<g id="Node000021" class="node">
<title>Node21</title>
<g id="a_Node000021"><a xlink:title=" ">
<polygon fill="#e0e0e0" stroke="#999999" points="1289,-151 1163,-151 1163,-132 1289,-132 1289,-151"/>
<text text-anchor="middle" x="1226" y="-139" font-family="Malgun Gothic" font-size="10.00">Misc/MessageDialog.h</text>
</a>
</g>
</g>
<!-- Node1&#45;&gt;Node21 -->
<g id="edge28_Node000001_Node000021" class="edge">
<title>Node1&#45;&gt;Node21</title>
<g id="a_edge28_Node000001_Node000021"><a xlink:title=" ">
<path fill="none" stroke="#63b8ff" d="M860.54,-192.8C937.52,-182.21 1071.46,-163.77 1154.04,-152.4"/>
<polygon fill="#63b8ff" stroke="#63b8ff" points="1154.67,-155.85 1164.1,-151.02 1153.72,-148.92 1154.67,-155.85"/>
</a>
</g>
</g>
<!-- Node22 -->
<g id="Node000022" class="node">
<title>Node22</title>
<g id="a_Node000022"><a xlink:title=" ">
<polygon fill="#e0e0e0" stroke="#999999" points="1437,-151 1307,-151 1307,-132 1437,-132 1437,-151"/>
<text text-anchor="middle" x="1372" y="-139" font-family="Malgun Gothic" font-size="10.00">Camera/CameraActor.h</text>
</a>
</g>
</g>
<!-- Node1&#45;&gt;Node22 -->
<g id="edge30_Node000001_Node000022" class="edge">
<title>Node1&#45;&gt;Node22</title>
<g id="a_edge30_Node000001_Node000022"><a xlink:title=" ">
<path fill="none" stroke="#63b8ff" d="M860.7,-195.27C952.13,-186.43 1132.62,-168.74 1296.37,-151.16"/>
<polygon fill="#63b8ff" stroke="#63b8ff" points="1297.07,-154.61 1306.64,-150.06 1296.32,-147.65 1297.07,-154.61"/>
</a>
</g>
</g>
<!-- Node23 -->
<g id="Node000023" class="node">
<title>Node23</title>
<g id="a_Node000023"><a xlink:title=" ">
<polygon fill="#e0e0e0" stroke="#999999" points="1592.5,-151 1455.5,-151 1455.5,-132 1592.5,-132 1592.5,-151"/>
<text text-anchor="middle" x="1524" y="-139" font-family="Malgun Gothic" font-size="10.00">Styling/SlateIconFinder.h</text>
</a>
</g>
</g>
<!-- Node1&#45;&gt;Node23 -->
<g id="edge34_Node000001_Node000023" class="edge">
<title>Node1&#45;&gt;Node23</title>
<g id="a_edge34_Node000001_Node000023"><a xlink:title=" ">
<path fill="none" stroke="#63b8ff" d="M860.63,-197C972.78,-189.35 1223,-171.62 1444.9,-151.07"/>
<polygon fill="#63b8ff" stroke="#63b8ff" points="1445.48,-154.54 1455.11,-150.13 1444.83,-147.57 1445.48,-154.54"/>
</a>
</g>
</g>
<!-- Node2&#45;&gt;Node3 -->
<g id="edge2_Node000002_Node000003" class="edge">
<title>Node2&#45;&gt;Node3</title>
<g id="a_edge2_Node000002_Node000003"><a xlink:title=" ">
<path fill="none" stroke="#63b8ff" d="M361.26,-134.51C306.94,-124.58 197.56,-104.59 130.55,-92.34"/>
<polygon fill="#63b8ff" stroke="#63b8ff" points="131.04,-88.87 120.58,-90.52 129.79,-95.76 131.04,-88.87"/>
</a>
</g>
</g>
<!-- Node2&#45;&gt;Node4 -->
<g id="edge3_Node000002_Node000004" class="edge">
<title>Node2&#45;&gt;Node4</title>
<g id="a_edge3_Node000002_Node000004"><a xlink:title=" ">
<path fill="none" stroke="#63b8ff" d="M394,-131.87C394,-123.75 394,-111.31 394,-100.89"/>
<polygon fill="#63b8ff" stroke="#63b8ff" points="397.5,-100.67 394,-90.67 390.5,-100.67 397.5,-100.67"/>
</a>
</g>
</g>
<!-- Node2&#45;&gt;Node8 -->
<g id="edge7_Node000002_Node000008" class="edge">
<title>Node2&#45;&gt;Node8</title>
<g id="a_edge7_Node000002_Node000008"><a xlink:title=" ">
<path fill="none" stroke="#63b8ff" d="M369.86,-131.99C341.46,-121.99 294.12,-105.3 262.01,-93.99"/>
<polygon fill="#63b8ff" stroke="#63b8ff" points="262.76,-90.54 252.17,-90.52 260.44,-97.14 262.76,-90.54"/>
</a>
</g>
</g>
<!-- Node2&#45;&gt;Node10 -->
<g id="edge12_Node000002_Node000010" class="edge">
<title>Node2&#45;&gt;Node10</title>
<g id="a_edge12_Node000002_Node000010"><a xlink:title=" ">
<path fill="none" stroke="#63b8ff" d="M422.21,-131.99C455.97,-121.81 512.65,-104.72 550.18,-93.4"/>
<polygon fill="#63b8ff" stroke="#63b8ff" points="551.19,-96.75 559.76,-90.52 549.17,-90.05 551.19,-96.75"/>
</a>
</g>
</g>
<!-- Node5 -->
<g id="Node000005" class="node">
<title>Node5</title>
<g id="a_Node000005"><a xlink:title=" ">
<polygon fill="#e0e0e0" stroke="#999999" points="632,-24.5 544,-24.5 544,-5.5 632,-5.5 632,-24.5"/>
<text text-anchor="middle" x="588" y="-12.5" font-family="Malgun Gothic" font-size="10.00">CoreMinimal.h</text>
</a>
</g>
</g>
<!-- Node4&#45;&gt;Node5 -->
<g id="edge4_Node000004_Node000005" class="edge">
<title>Node4&#45;&gt;Node5</title>
<g id="a_edge4_Node000004_Node000005"><a xlink:title=" ">
<path fill="none" stroke="#63b8ff" d="M420.16,-71.37C454.25,-60.12 513.99,-40.42 552.24,-27.8"/>
<polygon fill="#63b8ff" stroke="#63b8ff" points="553.54,-31.05 561.94,-24.6 551.35,-24.41 553.54,-31.05"/>
</a>
</g>
</g>
<!-- Node6 -->
<g id="Node000006" class="node">
<title>Node6</title>
<g id="a_Node000006"><a xlink:title=" ">
<polygon fill="#e0e0e0" stroke="#999999" points="486.5,-24.5 377.5,-24.5 377.5,-5.5 486.5,-5.5 486.5,-24.5"/>
<text text-anchor="middle" x="432" y="-12.5" font-family="Malgun Gothic" font-size="10.00">Widgets/SWidget.h</text>
</a>
</g>
</g>
<!-- Node4&#45;&gt;Node6 -->
<g id="edge5_Node000004_Node000006" class="edge">
<title>Node4&#45;&gt;Node6</title>
<g id="a_edge5_Node000004_Node000006"><a xlink:title=" ">
<path fill="none" stroke="#63b8ff" d="M399.12,-71.37C404.82,-61.78 414.16,-46.05 421.43,-33.8"/>
<polygon fill="#63b8ff" stroke="#63b8ff" points="424.62,-35.29 426.71,-24.91 418.6,-31.72 424.62,-35.29"/>
</a>
</g>
</g>
<!-- Node7 -->
<g id="Node000007" class="node">
<title>Node7</title>
<g id="a_Node000007"><a xlink:title=" ">
<polygon fill="#e0e0e0" stroke="#999999" points="359,-30 229,-30 229,0 359,0 359,-30"/>
<text text-anchor="start" x="237" y="-18" font-family="Malgun Gothic" font-size="10.00">Framework/Commands</text>
<text text-anchor="middle" x="294" y="-7" font-family="Malgun Gothic" font-size="10.00">/UIAction.h</text>
</a>
</g>
</g>
<!-- Node4&#45;&gt;Node7 -->
<g id="edge6_Node000004_Node000007" class="edge">
<title>Node4&#45;&gt;Node7</title>
<g id="a_edge6_Node000004_Node000007"><a xlink:title=" ">
<path fill="none" stroke="#63b8ff" d="M380.51,-71.37C366.25,-62.24 343.26,-47.53 324.56,-35.56"/>
<polygon fill="#63b8ff" stroke="#63b8ff" points="326.37,-32.56 316.06,-30.12 322.59,-38.45 326.37,-32.56"/>
</a>
</g>
</g>
<!-- Node8&#45;&gt;Node5 -->
<g id="edge8_Node000008_Node000005" class="edge">
<title>Node8&#45;&gt;Node5</title>
<g id="a_edge8_Node000008_Node000005"><a xlink:title=" ">
<path fill="none" stroke="#63b8ff" d="M270.39,-71.47C279.8,-69.63 289.73,-67.71 299,-66 380.71,-50.88 475.69,-34.72 533.82,-24.99"/>
<polygon fill="#63b8ff" stroke="#63b8ff" points="534.59,-28.4 543.88,-23.3 533.44,-21.5 534.59,-28.4"/>
</a>
</g>
</g>
<!-- Node8&#45;&gt;Node6 -->
<g id="edge9_Node000008_Node000006" class="edge">
<title>Node8&#45;&gt;Node6</title>
<g id="a_edge9_Node000008_Node000006"><a xlink:title=" ">
<path fill="none" stroke="#63b8ff" d="M255.51,-71.37C291.51,-60.08 354.71,-40.25 394.91,-27.64"/>
<polygon fill="#63b8ff" stroke="#63b8ff" points="396.1,-30.93 404.6,-24.6 394.01,-24.25 396.1,-30.93"/>
</a>
</g>
</g>
<!-- Node8&#45;&gt;Node7 -->
<g id="edge10_Node000008_Node000007" class="edge">
<title>Node8&#45;&gt;Node7</title>
<g id="a_edge10_Node000008_Node000007"><a xlink:title=" ">
<path fill="none" stroke="#63b8ff" d="M236.9,-71.37C245.85,-62.69 259.99,-48.98 271.97,-37.37"/>
<polygon fill="#63b8ff" stroke="#63b8ff" points="274.7,-39.59 279.44,-30.12 269.83,-34.56 274.7,-39.59"/>
</a>
</g>
</g>
<!-- Node9 -->
<g id="Node000009" class="node">
<title>Node9</title>
<g id="a_Node000009"><a xlink:title=" ">
<polygon fill="#e0e0e0" stroke="#999999" points="211,-24.5 65,-24.5 65,-5.5 211,-5.5 211,-24.5"/>
<text text-anchor="middle" x="138" y="-12.5" font-family="Malgun Gothic" font-size="10.00">AssetRegistry/AssetData.h</text>
</a>
</g>
</g>
<!-- Node8&#45;&gt;Node9 -->
<g id="edge11_Node000008_Node000009" class="edge">
<title>Node8&#45;&gt;Node9</title>
<g id="a_edge11_Node000008_Node000009"><a xlink:title=" ">
<path fill="none" stroke="#63b8ff" d="M215.86,-71.37C201.23,-60.97 176.42,-43.32 158.74,-30.75"/>
<polygon fill="#63b8ff" stroke="#63b8ff" points="160.41,-27.64 150.23,-24.7 156.35,-33.35 160.41,-27.64"/>
</a>
</g>
</g>
<!-- Node10&#45;&gt;Node5 -->
<g id="edge13_Node000010_Node000005" class="edge">
<title>Node10&#45;&gt;Node5</title>
<g id="a_edge13_Node000010_Node000005"><a xlink:title=" ">
<path fill="none" stroke="#63b8ff" d="M588,-71.37C588,-62.16 588,-47.29 588,-35.27"/>
<polygon fill="#63b8ff" stroke="#63b8ff" points="591.5,-34.91 588,-24.91 584.5,-34.91 591.5,-34.91"/>
</a>
</g>
</g>
<!-- Node10&#45;&gt;Node6 -->
<g id="edge14_Node000010_Node000006" class="edge">
<title>Node10&#45;&gt;Node6</title>
<g id="a_edge14_Node000010_Node000006"><a xlink:title=" ">
<path fill="none" stroke="#63b8ff" d="M566.96,-71.37C540.02,-60.32 493.14,-41.08 462.34,-28.45"/>
<polygon fill="#63b8ff" stroke="#63b8ff" points="463.53,-25.15 452.95,-24.6 460.88,-31.63 463.53,-25.15"/>
</a>
</g>
</g>
<!-- Node12 -->
<g id="Node000012" class="node">
<title>Node12</title>
<g id="a_Node000012"><a xlink:title=" ">
<polygon fill="#e0e0e0" stroke="#999999" points="1345,-24.5 1233,-24.5 1233,-5.5 1345,-5.5 1345,-24.5"/>
<text text-anchor="middle" x="1289" y="-12.5" font-family="Malgun Gothic" font-size="10.00">Styling/SlateStyle.h</text>
</a>
</g>
</g>
<!-- Node11&#45;&gt;Node12 -->
<g id="edge16_Node000011_Node000012" class="edge">
<title>Node11&#45;&gt;Node12</title>
<g id="a_edge16_Node000011_Node000012"><a xlink:title=" ">
<path fill="none" stroke="#63b8ff" d="M1289,-71.37C1289,-62.16 1289,-47.29 1289,-35.27"/>
<polygon fill="#63b8ff" stroke="#63b8ff" points="1292.5,-34.91 1289,-24.91 1285.5,-34.91 1292.5,-34.91"/>
</a>
</g>
</g>
<!-- Node13&#45;&gt;Node11 -->
<g id="edge19_Node000013_Node000011" class="edge">
<title>Node13&#45;&gt;Node11</title>
<g id="a_edge19_Node000013_Node000011"><a xlink:title=" ">
<path fill="none" stroke="#63b8ff" d="M1012.11,-131.99C1070.3,-121.49 1169.23,-103.62 1231.74,-92.34"/>
<polygon fill="#63b8ff" stroke="#63b8ff" points="1232.61,-95.74 1241.83,-90.52 1231.37,-88.85 1232.61,-95.74"/>
</a>
</g>
</g>
<!-- Node14 -->
<g id="Node000014" class="node">
<title>Node14</title>
<g id="a_Node000014"><a xlink:title=" ">
<polygon fill="#e0e0e0" stroke="#999999" points="1506,-96 1376,-96 1376,-66 1506,-66 1506,-96"/>
<text text-anchor="start" x="1384" y="-84" font-family="Malgun Gothic" font-size="10.00">Framework/Commands</text>
<text text-anchor="middle" x="1441" y="-73" font-family="Malgun Gothic" font-size="10.00">/Commands.h</text>
</a>
</g>
</g>
<!-- Node13&#45;&gt;Node14 -->
<g id="edge18_Node000013_Node000014" class="edge">
<title>Node13&#45;&gt;Node14</title>
<g id="a_edge18_Node000013_Node000014"><a xlink:title=" ">
<path fill="none" stroke="#63b8ff" d="M1048.89,-131.98C1143.55,-122.24 1292.81,-106.46 1365.52,-96.12"/>
<polygon fill="#63b8ff" stroke="#63b8ff" points="1366.29,-99.55 1375.68,-94.64 1365.28,-92.62 1366.29,-99.55"/>
</a>
</g>
</g>
<!-- Node15&#45;&gt;Node5 -->
<g id="edge21_Node000015_Node000005" class="edge">
<title>Node15&#45;&gt;Node5</title>
<g id="a_edge21_Node000015_Node000005"><a xlink:title=" ">
<path fill="none" stroke="#63b8ff" d="M743.31,-131.71C733.23,-116.69 710.95,-85.78 686,-66 666.06,-50.19 640.34,-37.3 620.25,-28.57"/>
<polygon fill="#63b8ff" stroke="#63b8ff" points="621.47,-25.28 610.89,-24.62 618.75,-31.73 621.47,-25.28"/>
</a>
</g>
</g>
<!-- Node16 -->
<g id="Node000016" class="node">
<title>Node16</title>
<g id="a_Node000016"><a xlink:href="FToolbarButtonInfo_8h.html" target="_top" xlink:title="커스터마이즈 가능한 Coffee Toolbar 버튼 정보를 선언합니다.">
<polygon fill="white" stroke="#666666" points="851.5,-90.5 734.5,-90.5 734.5,-71.5 851.5,-71.5 851.5,-90.5"/>
<text text-anchor="middle" x="793" y="-78.5" font-family="Malgun Gothic" font-size="10.00">FToolbarButtonInfo.h</text>
</a>
</g>
</g>
<!-- Node15&#45;&gt;Node16 -->
<g id="edge22_Node000015_Node000016" class="edge">
<title>Node15&#45;&gt;Node16</title>
<g id="a_edge22_Node000015_Node000016"><a xlink:title=" ">
<path fill="none" stroke="#63b8ff" d="M755.49,-131.87C761.99,-123.23 772.16,-109.7 780.28,-98.92"/>
<polygon fill="#63b8ff" stroke="#63b8ff" points="783.27,-100.76 786.48,-90.67 777.67,-96.56 783.27,-100.76"/>
</a>
</g>
</g>
<!-- Node18 -->
<g id="Node000018" class="node">
<title>Node18</title>
<g id="a_Node000018"><a xlink:title=" ">
<polygon fill="#e0e0e0" stroke="#999999" points="1022,-90.5 870,-90.5 870,-71.5 1022,-71.5 1022,-90.5"/>
<text text-anchor="middle" x="946" y="-78.5" font-family="Malgun Gothic" font-size="10.00">Engine/DeveloperSettings.h</text>
</a>
</g>
</g>
<!-- Node15&#45;&gt;Node18 -->
<g id="edge25_Node000015_Node000018" class="edge">
<title>Node15&#45;&gt;Node18</title>
<g id="a_edge25_Node000015_Node000018"><a xlink:title=" ">
<path fill="none" stroke="#63b8ff" d="M777.65,-131.99C811.93,-121.81 869.48,-104.72 907.6,-93.4"/>
<polygon fill="#63b8ff" stroke="#63b8ff" points="908.73,-96.72 917.32,-90.52 906.74,-90.01 908.73,-96.72"/>
</a>
</g>
</g>
<!-- Node19 -->
<g id="Node000019" class="node">
<title>Node19</title>
<g id="a_Node000019"><a xlink:title=" ">
<polygon fill="#e0e0e0" stroke="#999999" points="1201.5,-90.5 1040.5,-90.5 1040.5,-71.5 1201.5,-71.5 1201.5,-90.5"/>
<text text-anchor="middle" x="1121" y="-78.5" font-family="Malgun Gothic" font-size="10.00">UToolbarSettings.generated.h</text>
</a>
</g>
</g>
<!-- Node15&#45;&gt;Node19 -->
<g id="edge26_Node000015_Node000019" class="edge">
<title>Node15&#45;&gt;Node19</title>
<g id="a_edge26_Node000015_Node000019"><a xlink:title=" ">
<path fill="none" stroke="#63b8ff" d="M803.09,-131.99C870.31,-121.42 984.9,-103.4 1056.59,-92.13"/>
<polygon fill="#63b8ff" stroke="#63b8ff" points="1057.51,-95.53 1066.84,-90.52 1056.42,-88.61 1057.51,-95.53"/>
</a>
</g>
</g>
<!-- Node16&#45;&gt;Node5 -->
<g id="edge23_Node000016_Node000005" class="edge">
<title>Node16&#45;&gt;Node5</title>
<g id="a_edge23_Node000016_Node000005"><a xlink:title=" ">
<path fill="none" stroke="#63b8ff" d="M765.35,-71.37C729.18,-60.08 665.67,-40.25 625.28,-27.64"/>
<polygon fill="#63b8ff" stroke="#63b8ff" points="626.12,-24.24 615.54,-24.6 624.04,-30.92 626.12,-24.24"/>
</a>
</g>
</g>
<!-- Node17 -->
<g id="Node000017" class="node">
<title>Node17</title>
<g id="a_Node000017"><a xlink:title=" ">
<polygon fill="#e0e0e0" stroke="#999999" points="878,-24.5 708,-24.5 708,-5.5 878,-5.5 878,-24.5"/>
<text text-anchor="middle" x="793" y="-12.5" font-family="Malgun Gothic" font-size="10.00">FToolbarButtonInfo.generated.h</text>
</a>
</g>
</g>
<!-- Node16&#45;&gt;Node17 -->
<g id="edge24_Node000016_Node000017" class="edge">
<title>Node16&#45;&gt;Node17</title>
<g id="a_edge24_Node000016_Node000017"><a xlink:title=" ">
<path fill="none" stroke="#63b8ff" d="M793,-71.37C793,-62.16 793,-47.29 793,-35.27"/>
<polygon fill="#63b8ff" stroke="#63b8ff" points="796.5,-34.91 793,-24.91 789.5,-34.91 796.5,-34.91"/>
</a>
</g>
</g>
</g>
</svg>

<g id="navigator" transform="translate(0 0)" fill="#404254">
  <rect fill="#f2f5e9" fill-opacity="0.5" stroke="#606060" stroke-width=".5" x="0" y="0" width="60" height="60"/>
  <use id="zoomplus" xlink:href="#zoomPlus" x="17" y="9" onmousedown="handleZoom(evt,'in')"/>
  <use id="zoomminus" xlink:href="#zoomMin" x="42" y="9" onmousedown="handleZoom(evt,'out')"/>
  <use id="reset" xlink:href="#resetDef" x="30" y="36" onmousedown="handleReset()"/>
   <use id="arrowup" xlink:href="#arrowUp" x="0" y="0" onmousedown="handlePan(0,-1)"/>
  <use id="arrowright" xlink:href="#arrowRight" x="0" y="0" onmousedown="handlePan(1,0)"/>
  <use id="arrowdown" xlink:href="#arrowDown" x="0" y="0" onmousedown="handlePan(0,1)"/>
  <use id="arrowleft" xlink:href="#arrowLeft" x="0" y="0" onmousedown="handlePan(-1,0)"/>
</g>
<svg viewBox="0 0 15 15" width="100%" height="30px" preserveAspectRatio="xMaxYMin meet">
 <g id="arrow_out" transform="scale(0.3 0.3)">
  <a xlink:href="FToolbar_8cpp__incl_org.svg" target="_base">
   <rect id="button" ry="5" rx="5" y="6" x="6" height="38" width="38"
        fill="#f2f5e9" fill-opacity="0.5" stroke="#606060" stroke-width="1.0"/>
   <path id="arrow"
     d="M 11.500037,31.436501 C 11.940474,20.09759 22.043105,11.32322 32.158766,21.979434 L 37.068811,17.246167 C 37.068811,17.246167 37.088388,32 37.088388,32 L 22.160133,31.978069 C 22.160133,31.978069 26.997745,27.140456 26.997745,27.140456 C 18.528582,18.264221 13.291696,25.230495 11.500037,31.436501 z"
     style="fill:#404040;"/>
  </a>
 </g>
</svg>

<style type='text/css'>
<![CDATA[
[data-mouse-over-selected='false'] { opacity: 0.7; }
[data-mouse-over-selected='true']  { opacity: 1.0; }
]]>
</style>
<script type="application/ecmascript"><![CDATA[
document.addEventListener('DOMContentLoaded', (event) => {
  highlightEdges();
  highlightAdjacentNodes();
});
]]></script>
</svg>
