<?xml version="1.0" encoding="UTF-8" standalone="no"?>
<!DOCTYPE svg PUBLIC "-//W3C//DTD SVG 1.1//EN"
 "http://www.w3.org/Graphics/SVG/1.1/DTD/svg11.dtd">
<!-- Generated by graphviz version 2.43.0 (0)
 -->
<!-- Title: Source/CoffeeToolbar/Public/FToolbar.h Pages: 1 -->
<svg width="963pt" height="159pt"
 viewBox="0.00 0.00 963.00 159.00" xmlns="http://www.w3.org/2000/svg" xmlns:xlink="http://www.w3.org/1999/xlink">
<g id="graph0" class="graph" transform="scale(1 1) rotate(0) translate(4 155)">
<title>Source/CoffeeToolbar/Public/FToolbar.h</title>
<!-- Node1 -->
<g id="Node000001" class="node">
<title>Node1</title>
<g id="a_Node000001"><a xlink:title="CoffeeToolbar 플러그인의 주요 모듈 구현을 선언합니다.">
<polygon fill="#999999" stroke="#666666" points="473.5,-151 354.5,-151 354.5,-121 473.5,-121 473.5,-151"/>
<text text-anchor="start" x="362.5" y="-139" font-family="Malgun Gothic" font-size="10.00">Source/CoffeeToolbar</text>
<text text-anchor="middle" x="414" y="-128" font-family="Malgun Gothic" font-size="10.00">/Public/FToolbar.h</text>
</a>
</g>
</g>
<!-- Node2 -->
<g id="Node000002" class="node">
<title>Node2</title>
<g id="a_Node000002"><a xlink:title=" ">
<polygon fill="#e0e0e0" stroke="#999999" points="148,-85 0,-85 0,-66 148,-66 148,-85"/>
<text text-anchor="middle" x="74" y="-73" font-family="Malgun Gothic" font-size="10.00">Modules/ModuleManager.h</text>
</a>
</g>
</g>
<!-- Node1&#45;&gt;Node2 -->
<g id="edge1_Node000001_Node000002" class="edge">
<title>Node1&#45;&gt;Node2</title>
<g id="a_edge1_Node000001_Node000002"><a xlink:title=" ">
<path fill="none" stroke="#63b8ff" d="M354.39,-124.74C292.33,-114.07 195.69,-97.44 133.62,-86.76"/>
<polygon fill="#63b8ff" stroke="#63b8ff" points="134.04,-83.28 123.59,-85.03 132.85,-90.18 134.04,-83.28"/>
</a>
</g>
</g>
<!-- Node3 -->
<g id="Node000003" class="node">
<title>Node3</title>
<g id="a_Node000003"><a xlink:href="FLevelFeature_8h.html" target="_top" xlink:title="툴바에 레벨 선택 컨트롤을 제공하는 기능을 선언합니다.">
<polygon fill="white" stroke="#666666" points="836,-85 712,-85 712,-66 836,-66 836,-85"/>
<text text-anchor="middle" x="774" y="-73" font-family="Malgun Gothic" font-size="10.00">Level/FLevelFeature.h</text>
</a>
</g>
</g>
<!-- Node1&#45;&gt;Node3 -->
<g id="edge2_Node000001_Node000003" class="edge">
<title>Node1&#45;&gt;Node3</title>
<g id="a_edge2_Node000001_Node000003"><a xlink:title=" ">
<path fill="none" stroke="#63b8ff" d="M473.85,-125.27C539.65,-114.58 644.87,-97.48 711.65,-86.63"/>
<polygon fill="#63b8ff" stroke="#63b8ff" points="712.31,-90.07 721.62,-85.01 711.19,-83.16 712.31,-90.07"/>
</a>
</g>
</g>
<!-- Node8 -->
<g id="Node000008" class="node">
<title>Node8</title>
<g id="a_Node000008"><a xlink:href="FScreenshotFeature_8h.html" target="_top" xlink:title="툴바의 스크린샷 워크플로우 버튼을 위한 헬퍼를 선언합니다.">
<polygon fill="white" stroke="#666666" points="503.5,-85 324.5,-85 324.5,-66 503.5,-66 503.5,-85"/>
<text text-anchor="middle" x="414" y="-73" font-family="Malgun Gothic" font-size="10.00">Screenshot/FScreenshotFeature.h</text>
</a>
</g>
</g>
<!-- Node1&#45;&gt;Node8 -->
<g id="edge7_Node000001_Node000008" class="edge">
<title>Node1&#45;&gt;Node8</title>
<g id="a_edge7_Node000001_Node000008"><a xlink:title=" ">
<path fill="none" stroke="#63b8ff" d="M414,-120.84C414,-113.21 414,-103.7 414,-95.45"/>
<polygon fill="#63b8ff" stroke="#63b8ff" points="417.5,-95.27 414,-85.27 410.5,-95.27 417.5,-95.27"/>
</a>
</g>
</g>
<!-- Node9 -->
<g id="Node000009" class="node">
<title>Node9</title>
<g id="a_Node000009"><a xlink:href="FCommandFeature_8h.html" target="_top" xlink:title="명령형 버튼을 담당하는 툴바 기능을 선언합니다.">
<polygon fill="white" stroke="#666666" points="694,-85 522,-85 522,-66 694,-66 694,-85"/>
<text text-anchor="middle" x="608" y="-73" font-family="Malgun Gothic" font-size="10.00">Command/FCommandFeature.h</text>
</a>
</g>
</g>
<!-- Node1&#45;&gt;Node9 -->
<g id="edge10_Node000001_Node000009" class="edge">
<title>Node1&#45;&gt;Node9</title>
<g id="a_edge10_Node000001_Node000009"><a xlink:title=" ">
<path fill="none" stroke="#63b8ff" d="M460.47,-120.99C493.95,-110.89 538.57,-97.44 569.94,-87.98"/>
<polygon fill="#63b8ff" stroke="#63b8ff" points="571.07,-91.29 579.63,-85.05 569.05,-84.59 571.07,-91.29"/>
</a>
</g>
</g>
<!-- Node10 -->
<g id="Node000010" class="node">
<title>Node10</title>
<g id="a_Node000010"><a xlink:href="FolderFeature_8h.html" target="_top" xlink:title=" ">
<polygon fill="white" stroke="#666666" points="306,-85 166,-85 166,-66 306,-66 306,-85"/>
<text text-anchor="middle" x="236" y="-73" font-family="Malgun Gothic" font-size="10.00">Common/FolderFeature.h</text>
</a>
</g>
</g>
<!-- Node1&#45;&gt;Node10 -->
<g id="edge14_Node000001_Node000010" class="edge">
<title>Node1&#45;&gt;Node10</title>
<g id="a_edge14_Node000001_Node000010"><a xlink:title=" ">
<path fill="none" stroke="#63b8ff" d="M371.36,-120.99C340.91,-110.98 300.41,-97.67 271.67,-88.22"/>
<polygon fill="#63b8ff" stroke="#63b8ff" points="272.62,-84.85 262.03,-85.05 270.43,-91.5 272.62,-84.85"/>
</a>
</g>
</g>
<!-- Node4 -->
<g id="Node000004" class="node">
<title>Node4</title>
<g id="a_Node000004"><a xlink:title=" ">
<polygon fill="#e0e0e0" stroke="#999999" points="496,-24.5 408,-24.5 408,-5.5 496,-5.5 496,-24.5"/>
<text text-anchor="middle" x="452" y="-12.5" font-family="Malgun Gothic" font-size="10.00">CoreMinimal.h</text>
</a>
</g>
</g>
<!-- Node3&#45;&gt;Node4 -->
<g id="edge3_Node000003_Node000004" class="edge">
<title>Node3&#45;&gt;Node4</title>
<g id="a_edge3_Node000003_Node000004"><a xlink:title=" ">
<path fill="none" stroke="#63b8ff" d="M725.3,-65.98C675.08,-57.16 594.52,-42.88 525,-30 518.84,-28.86 512.39,-27.65 505.98,-26.43"/>
<polygon fill="#63b8ff" stroke="#63b8ff" points="506.47,-22.96 495.99,-24.53 505.16,-29.84 506.47,-22.96"/>
</a>
</g>
</g>
<!-- Node5 -->
<g id="Node000005" class="node">
<title>Node5</title>
<g id="a_Node000005"><a xlink:title=" ">
<polygon fill="#e0e0e0" stroke="#999999" points="642.5,-24.5 533.5,-24.5 533.5,-5.5 642.5,-5.5 642.5,-24.5"/>
<text text-anchor="middle" x="588" y="-12.5" font-family="Malgun Gothic" font-size="10.00">Widgets/SWidget.h</text>
</a>
</g>
</g>
<!-- Node3&#45;&gt;Node5 -->
<g id="edge4_Node000003_Node000005" class="edge">
<title>Node3&#45;&gt;Node5</title>
<g id="a_edge4_Node000003_Node000005"><a xlink:title=" ">
<path fill="none" stroke="#63b8ff" d="M746.95,-65.99C714.72,-55.86 660.71,-38.87 624.72,-27.55"/>
<polygon fill="#63b8ff" stroke="#63b8ff" points="625.67,-24.18 615.08,-24.52 623.57,-30.86 625.67,-24.18"/>
</a>
</g>
</g>
<!-- Node6 -->
<g id="Node000006" class="node">
<title>Node6</title>
<g id="a_Node000006"><a xlink:title=" ">
<polygon fill="#e0e0e0" stroke="#999999" points="791,-30 661,-30 661,0 791,0 791,-30"/>
<text text-anchor="start" x="669" y="-18" font-family="Malgun Gothic" font-size="10.00">Framework/Commands</text>
<text text-anchor="middle" x="726" y="-7" font-family="Malgun Gothic" font-size="10.00">/UIAction.h</text>
</a>
</g>
</g>
<!-- Node3&#45;&gt;Node6 -->
<g id="edge5_Node000003_Node000006" class="edge">
<title>Node3&#45;&gt;Node6</title>
<g id="a_edge5_Node000003_Node000006"><a xlink:title=" ">
<path fill="none" stroke="#63b8ff" d="M766.92,-65.87C760.89,-58.52 751.96,-47.63 743.98,-37.91"/>
<polygon fill="#63b8ff" stroke="#63b8ff" points="746.63,-35.63 737.58,-30.11 741.22,-40.07 746.63,-35.63"/>
</a>
</g>
</g>
<!-- Node7 -->
<g id="Node000007" class="node">
<title>Node7</title>
<g id="a_Node000007"><a xlink:title=" ">
<polygon fill="#e0e0e0" stroke="#999999" points="955,-24.5 809,-24.5 809,-5.5 955,-5.5 955,-24.5"/>
<text text-anchor="middle" x="882" y="-12.5" font-family="Malgun Gothic" font-size="10.00">AssetRegistry/AssetData.h</text>
</a>
</g>
</g>
<!-- Node3&#45;&gt;Node7 -->
<g id="edge6_Node000003_Node000007" class="edge">
<title>Node3&#45;&gt;Node7</title>
<g id="a_edge6_Node000003_Node000007"><a xlink:title=" ">
<path fill="none" stroke="#63b8ff" d="M789.94,-65.87C807.64,-56.28 836.46,-40.67 857.14,-29.47"/>
<polygon fill="#63b8ff" stroke="#63b8ff" points="858.87,-32.51 866,-24.67 855.54,-26.35 858.87,-32.51"/>
</a>
</g>
</g>
<!-- Node8&#45;&gt;Node4 -->
<g id="edge8_Node000008_Node000004" class="edge">
<title>Node8&#45;&gt;Node4</title>
<g id="a_edge8_Node000008_Node000004"><a xlink:title=" ">
<path fill="none" stroke="#63b8ff" d="M419.61,-65.87C425.16,-57.31 433.83,-43.97 440.8,-33.24"/>
<polygon fill="#63b8ff" stroke="#63b8ff" points="443.86,-34.96 446.37,-24.67 437.99,-31.15 443.86,-34.96"/>
</a>
</g>
</g>
<!-- Node8&#45;&gt;Node5 -->
<g id="edge9_Node000008_Node000005" class="edge">
<title>Node8&#45;&gt;Node5</title>
<g id="a_edge9_Node000008_Node000005"><a xlink:title=" ">
<path fill="none" stroke="#63b8ff" d="M439.3,-65.99C469.2,-55.94 519.12,-39.16 552.78,-27.84"/>
<polygon fill="#63b8ff" stroke="#63b8ff" points="554.31,-31.02 562.67,-24.52 552.07,-24.39 554.31,-31.02"/>
</a>
</g>
</g>
<!-- Node9&#45;&gt;Node4 -->
<g id="edge11_Node000009_Node000004" class="edge">
<title>Node9&#45;&gt;Node4</title>
<g id="a_edge11_Node000009_Node000004"><a xlink:title=" ">
<path fill="none" stroke="#63b8ff" d="M585.32,-65.99C558.74,-56.03 514.52,-39.45 484.36,-28.13"/>
<polygon fill="#63b8ff" stroke="#63b8ff" points="485.3,-24.75 474.71,-24.52 482.85,-31.31 485.3,-24.75"/>
</a>
</g>
</g>
<!-- Node9&#45;&gt;Node5 -->
<g id="edge12_Node000009_Node000005" class="edge">
<title>Node9&#45;&gt;Node5</title>
<g id="a_edge12_Node000009_Node000005"><a xlink:title=" ">
<path fill="none" stroke="#63b8ff" d="M605.05,-65.87C602.21,-57.57 597.84,-44.78 594.23,-34.22"/>
<polygon fill="#63b8ff" stroke="#63b8ff" points="597.51,-33 590.96,-24.67 590.89,-35.26 597.51,-33"/>
</a>
</g>
</g>
<!-- Node9&#45;&gt;Node6 -->
<g id="edge13_Node000009_Node000006" class="edge">
<title>Node9&#45;&gt;Node6</title>
<g id="a_edge13_Node000009_Node000006"><a xlink:title=" ">
<path fill="none" stroke="#63b8ff" d="M625.16,-65.99C641.64,-57.82 667.1,-45.2 688.31,-34.69"/>
<polygon fill="#63b8ff" stroke="#63b8ff" points="690,-37.76 697.4,-30.18 686.89,-31.48 690,-37.76"/>
</a>
</g>
</g>
<!-- Node10&#45;&gt;Node4 -->
<g id="edge15_Node000010_Node000004" class="edge">
<title>Node10&#45;&gt;Node4</title>
<g id="a_edge15_Node000010_Node000004"><a xlink:title=" ">
<path fill="none" stroke="#63b8ff" d="M267.41,-65.99C305.24,-55.75 368.91,-38.5 410.69,-27.19"/>
<polygon fill="#63b8ff" stroke="#63b8ff" points="411.82,-30.51 420.55,-24.52 409.99,-23.75 411.82,-30.51"/>
</a>
</g>
</g>
</g>
</svg>
