<?xml version="1.0" encoding="UTF-8" standalone="no"?>
<!DOCTYPE svg PUBLIC "-//W3C//DTD SVG 1.1//EN"
 "http://www.w3.org/Graphics/SVG/1.1/DTD/svg11.dtd">
<!-- Generated by graphviz version 2.43.0 (0)
 -->
<!-- Title: FToolbarButtonInfo Pages: 1 -->
<svg width="110pt" height="132pt"
 viewBox="0.00 0.00 110.00 132.00" xmlns="http://www.w3.org/2000/svg" xmlns:xlink="http://www.w3.org/1999/xlink">
<g id="graph0" class="graph" transform="scale(1 1) rotate(0) translate(4 128)">
<title>FToolbarButtonInfo</title>
<!-- Node1 -->
<g id="Node000001" class="node">
<title>Node1</title>
<g id="a_Node000001"><a xlink:title=" ">
<polygon fill="#999999" stroke="transparent" points="102,-124 0,-124 0,0 102,0 102,-124"/>
<text text-anchor="start" x="5" y="-112" font-family="Malgun Gothic" font-size="10.00">FToolbarButtonInfo</text>
<text text-anchor="start" x="4.5" y="-97" font-family="Malgun Gothic" font-size="10.00">+</text>
<text text-anchor="start" x="18" y="-97" font-family="Malgun Gothic" font-size="10.00">bIsToggleButton</text>
<text text-anchor="start" x="4.5" y="-82" font-family="Malgun Gothic" font-size="10.00">+</text>
<text text-anchor="start" x="18" y="-82" font-family="Malgun Gothic" font-size="10.00">Command</text>
<text text-anchor="start" x="4.5" y="-67" font-family="Malgun Gothic" font-size="10.00">+</text>
<text text-anchor="start" x="18" y="-67" font-family="Malgun Gothic" font-size="10.00">Icon</text>
<text text-anchor="start" x="4.5" y="-52" font-family="Malgun Gothic" font-size="10.00">+</text>
<text text-anchor="start" x="18" y="-52" font-family="Malgun Gothic" font-size="10.00">Id</text>
<text text-anchor="start" x="4.5" y="-37" font-family="Malgun Gothic" font-size="10.00">+</text>
<text text-anchor="start" x="18" y="-37" font-family="Malgun Gothic" font-size="10.00">Label</text>
<text text-anchor="start" x="4.5" y="-22" font-family="Malgun Gothic" font-size="10.00">+</text>
<text text-anchor="start" x="18" y="-22" font-family="Malgun Gothic" font-size="10.00">Tooltip</text>
<text text-anchor="start" x="49" y="-7" font-family="Malgun Gothic" font-size="10.00"> </text>
<polygon fill="#666666" stroke="#666666" points="0,-107 0,-107 102,-107 102,-107 0,-107"/>
<polygon fill="#666666" stroke="#666666" points="0,-17 0,-17 16,-17 16,-17 0,-17"/>
<polygon fill="#666666" stroke="#666666" points="16,-17 16,-17 102,-17 102,-17 16,-17"/>
<polygon fill="none" stroke="#666666" points="0,0 0,-124 102,-124 102,0 0,0"/>
</a>
</g>
</g>
</g>
</svg>
