<?xml version="1.0" encoding="UTF-8" standalone="no"?>
<!DOCTYPE svg PUBLIC "-//W3C//DTD SVG 1.1//EN"
 "http://www.w3.org/Graphics/SVG/1.1/DTD/svg11.dtd">
<!-- Generated by graphviz version 2.43.0 (0)
 -->
<!-- Title: Source/CoffeeToolbar/Private/Settings/UToolbarSettings.cpp Pages: 1 -->
<svg width="870pt" height="159pt"
 viewBox="0.00 0.00 869.50 159.00" xmlns="http://www.w3.org/2000/svg" xmlns:xlink="http://www.w3.org/1999/xlink">
<g id="graph0" class="graph" transform="scale(1 1) rotate(0) translate(4 155)">
<title>Source/CoffeeToolbar/Private/Settings/UToolbarSettings.cpp</title>
<!-- Node1 -->
<g id="Node000001" class="node">
<title>Node1</title>
<g id="a_Node000001"><a xlink:title="Coffee Toolbar 플러그인의 설정 헬퍼 기능을 구현합니다.">
<polygon fill="#999999" stroke="#666666" points="614.5,-151 411.5,-151 411.5,-121 614.5,-121 614.5,-151"/>
<text text-anchor="start" x="419.5" y="-139" font-family="Malgun Gothic" font-size="10.00">Source/CoffeeToolbar</text>
<text text-anchor="middle" x="513" y="-128" font-family="Malgun Gothic" font-size="10.00">/Private/Settings/UToolbarSettings.cpp</text>
</a>
</g>
</g>
<!-- Node2 -->
<g id="Node000002" class="node">
<title>Node2</title>
<g id="a_Node000002"><a xlink:href="UToolbarSettings_8h.html" target="_top" xlink:title="Coffee Toolbar 플러그인을 구성하기 위한 개발자 설정을 선언합니다.">
<polygon fill="white" stroke="#666666" points="326.5,-79.5 175.5,-79.5 175.5,-60.5 326.5,-60.5 326.5,-79.5"/>
<text text-anchor="middle" x="251" y="-67.5" font-family="Malgun Gothic" font-size="10.00">Settings/UToolbarSettings.h</text>
</a>
</g>
</g>
<!-- Node1&#45;&gt;Node2 -->
<g id="edge1_Node000001_Node000002" class="edge">
<title>Node1&#45;&gt;Node2</title>
<g id="a_edge1_Node000001_Node000002"><a xlink:title=" ">
<path fill="none" stroke="#63b8ff" d="M455.5,-120.95C407.43,-109.21 339.83,-92.7 295.73,-81.93"/>
<polygon fill="#63b8ff" stroke="#63b8ff" points="296.41,-78.49 285.87,-79.52 294.75,-85.29 296.41,-78.49"/>
</a>
</g>
</g>
<!-- Node6 -->
<g id="Node000006" class="node">
<title>Node6</title>
<g id="a_Node000006"><a xlink:href="FToolbarButtonInfo_8h.html" target="_top" xlink:title="커스터마이즈 가능한 Coffee Toolbar 버튼 정보를 선언합니다.">
<polygon fill="white" stroke="#666666" points="505,-79.5 345,-79.5 345,-60.5 505,-60.5 505,-79.5"/>
<text text-anchor="middle" x="425" y="-67.5" font-family="Malgun Gothic" font-size="10.00">Settings/FToolbarButtonInfo.h</text>
</a>
</g>
</g>
<!-- Node1&#45;&gt;Node6 -->
<g id="edge5_Node000001_Node000006" class="edge">
<title>Node1&#45;&gt;Node6</title>
<g id="a_edge5_Node000001_Node000006"><a xlink:title=" ">
<path fill="none" stroke="#63b8ff" d="M493.47,-120.8C479.13,-110.37 459.7,-96.24 445.21,-85.69"/>
<polygon fill="#63b8ff" stroke="#63b8ff" points="447.05,-82.71 436.91,-79.66 442.93,-88.37 447.05,-82.71"/>
</a>
</g>
</g>
<!-- Node8 -->
<g id="Node000008" class="node">
<title>Node8</title>
<g id="a_Node000008"><a xlink:title=" ">
<polygon fill="#e0e0e0" stroke="#999999" points="678.5,-85 523.5,-85 523.5,-55 678.5,-55 678.5,-85"/>
<text text-anchor="start" x="531.5" y="-73" font-family="Malgun Gothic" font-size="10.00">AssetRegistry/AssetRegistry</text>
<text text-anchor="middle" x="601" y="-62" font-family="Malgun Gothic" font-size="10.00">Module.h</text>
</a>
</g>
</g>
<!-- Node1&#45;&gt;Node8 -->
<g id="edge8_Node000001_Node000008" class="edge">
<title>Node1&#45;&gt;Node8</title>
<g id="a_edge8_Node000001_Node000008"><a xlink:title=" ">
<path fill="none" stroke="#63b8ff" d="M532.53,-120.8C544.49,-112.1 559.99,-100.82 573.22,-91.2"/>
<polygon fill="#63b8ff" stroke="#63b8ff" points="575.5,-93.88 581.52,-85.16 571.38,-88.22 575.5,-93.88"/>
</a>
</g>
</g>
<!-- Node9 -->
<g id="Node000009" class="node">
<title>Node9</title>
<g id="a_Node000009"><a xlink:title=" ">
<polygon fill="#e0e0e0" stroke="#999999" points="861.5,-79.5 696.5,-79.5 696.5,-60.5 861.5,-60.5 861.5,-79.5"/>
<text text-anchor="middle" x="779" y="-67.5" font-family="Malgun Gothic" font-size="10.00">AssetRegistry/IAssetRegistry.h</text>
</a>
</g>
</g>
<!-- Node1&#45;&gt;Node9 -->
<g id="edge9_Node000001_Node000009" class="edge">
<title>Node1&#45;&gt;Node9</title>
<g id="a_edge9_Node000001_Node000009"><a xlink:title=" ">
<path fill="none" stroke="#63b8ff" d="M571.37,-120.95C620.28,-109.19 689.1,-92.63 733.87,-81.86"/>
<polygon fill="#63b8ff" stroke="#63b8ff" points="734.7,-85.26 743.6,-79.52 733.06,-78.45 734.7,-85.26"/>
</a>
</g>
</g>
<!-- Node3 -->
<g id="Node000003" class="node">
<title>Node3</title>
<g id="a_Node000003"><a xlink:title=" ">
<polygon fill="#e0e0e0" stroke="#999999" points="438,-19 350,-19 350,0 438,0 438,-19"/>
<text text-anchor="middle" x="394" y="-7" font-family="Malgun Gothic" font-size="10.00">CoreMinimal.h</text>
</a>
</g>
</g>
<!-- Node2&#45;&gt;Node3 -->
<g id="edge2_Node000002_Node000003" class="edge">
<title>Node2&#45;&gt;Node3</title>
<g id="a_edge2_Node000002_Node000003"><a xlink:title=" ">
<path fill="none" stroke="#63b8ff" d="M271.79,-60.49C295.94,-50.62 335.98,-34.23 363.62,-22.93"/>
<polygon fill="#63b8ff" stroke="#63b8ff" points="365.25,-26.04 373.18,-19.02 362.6,-19.56 365.25,-26.04"/>
</a>
</g>
</g>
<!-- Node4 -->
<g id="Node000004" class="node">
<title>Node4</title>
<g id="a_Node000004"><a xlink:title=" ">
<polygon fill="#e0e0e0" stroke="#999999" points="152,-19 0,-19 0,0 152,0 152,-19"/>
<text text-anchor="middle" x="76" y="-7" font-family="Malgun Gothic" font-size="10.00">Engine/DeveloperSettings.h</text>
</a>
</g>
</g>
<!-- Node2&#45;&gt;Node4 -->
<g id="edge3_Node000002_Node000004" class="edge">
<title>Node2&#45;&gt;Node4</title>
<g id="a_edge3_Node000002_Node000004"><a xlink:title=" ">
<path fill="none" stroke="#63b8ff" d="M225.55,-60.49C195.36,-50.4 144.84,-33.51 110.98,-22.19"/>
<polygon fill="#63b8ff" stroke="#63b8ff" points="112.07,-18.87 101.48,-19.02 109.85,-25.51 112.07,-18.87"/>
</a>
</g>
</g>
<!-- Node5 -->
<g id="Node000005" class="node">
<title>Node5</title>
<g id="a_Node000005"><a xlink:title=" ">
<polygon fill="#e0e0e0" stroke="#999999" points="331.5,-19 170.5,-19 170.5,0 331.5,0 331.5,-19"/>
<text text-anchor="middle" x="251" y="-7" font-family="Malgun Gothic" font-size="10.00">UToolbarSettings.generated.h</text>
</a>
</g>
</g>
<!-- Node2&#45;&gt;Node5 -->
<g id="edge4_Node000002_Node000005" class="edge">
<title>Node2&#45;&gt;Node5</title>
<g id="a_edge4_Node000002_Node000005"><a xlink:title=" ">
<path fill="none" stroke="#63b8ff" d="M251,-60.37C251,-52.25 251,-39.81 251,-29.39"/>
<polygon fill="#63b8ff" stroke="#63b8ff" points="254.5,-29.17 251,-19.17 247.5,-29.17 254.5,-29.17"/>
</a>
</g>
</g>
<!-- Node6&#45;&gt;Node3 -->
<g id="edge6_Node000006_Node000003" class="edge">
<title>Node6&#45;&gt;Node3</title>
<g id="a_edge6_Node000006_Node000003"><a xlink:title=" ">
<path fill="none" stroke="#63b8ff" d="M420.43,-60.37C415.94,-51.9 408.97,-38.74 403.31,-28.07"/>
<polygon fill="#63b8ff" stroke="#63b8ff" points="406.37,-26.36 398.59,-19.17 400.18,-29.64 406.37,-26.36"/>
</a>
</g>
</g>
<!-- Node7 -->
<g id="Node000007" class="node">
<title>Node7</title>
<g id="a_Node000007"><a xlink:title=" ">
<polygon fill="#e0e0e0" stroke="#999999" points="626,-19 456,-19 456,0 626,0 626,-19"/>
<text text-anchor="middle" x="541" y="-7" font-family="Malgun Gothic" font-size="10.00">FToolbarButtonInfo.generated.h</text>
</a>
</g>
</g>
<!-- Node6&#45;&gt;Node7 -->
<g id="edge7_Node000006_Node000007" class="edge">
<title>Node6&#45;&gt;Node7</title>
<g id="a_edge7_Node000006_Node000007"><a xlink:title=" ">
<path fill="none" stroke="#63b8ff" d="M442.12,-60.37C461.22,-50.73 492.37,-35.03 514.6,-23.81"/>
<polygon fill="#63b8ff" stroke="#63b8ff" points="516.46,-26.8 523.81,-19.17 513.31,-20.55 516.46,-26.8"/>
</a>
</g>
</g>
</g>
</svg>
