<?xml version="1.0" encoding="UTF-8" standalone="no"?>
<!DOCTYPE svg PUBLIC "-//W3C//DTD SVG 1.1//EN"
 "http://www.w3.org/Graphics/SVG/1.1/DTD/svg11.dtd">
<!-- Generated by graphviz version 2.43.0 (0)
 -->
<!-- Title: Source/CoffeeToolbar/Private/Settings/UToolbarSettings.cpp Pages: 1 -->
<!--zoomable 214 -->

<svg id="main" version="1.1" xmlns="http://www.w3.org/2000/svg" xmlns:xlink="http://www.w3.org/1999/xlink" xml:space="preserve" onload="init(evt)">
<style type="text/css"><![CDATA[
.node, .edge {opacity: 0.7;}
.node.selected, .edge.selected {opacity: 1;}
.edge:hover path { stroke: red; }
.edge:hover polygon { stroke: red; fill: red; }
]]></style>

<defs>
  <circle id="rim" cx="0" cy="0" r="7"/>
  <circle id="rim2" cx="0" cy="0" r="3.5"/>
  <g id="zoomPlus">
    <use xlink:href="#rim" fill="#404040"><set attributeName="fill" to="#808080" begin="zoomplus.mouseover" end="zoomplus.mouseout"/></use>
    <path d="M-4,0h8M0,-4v8" fill="none" stroke="white" stroke-width="1.5" pointer-events="none"/>
  </g>
  <g id="zoomMin">
    <use xlink:href="#rim" fill="#404040"><set attributeName="fill" to="#808080" begin="zoomminus.mouseover" end="zoomminus.mouseout"/></use>
    <path d="M-4,0h8" fill="none" stroke="white" stroke-width="1.5" pointer-events="none"/>
  </g>
  <g id="arrowUp" transform="translate(30 24)">
    <use xlink:href="#rim"/>
    <path pointer-events="none" fill="none" stroke="white" stroke-width="1.5" d="M0,-3.0v7 M-2.5,-0.5L0,-3.0L2.5,-0.5"/>
  </g>
  <g id="arrowRight" transform="rotate(90) translate(36 -43)">
    <use xlink:href="#rim"/>
    <path pointer-events="none" fill="none" stroke="white" stroke-width="1.5" d="M0,-3.0v7 M-2.5,-0.5L0,-3.0L2.5,-0.5"/>
  </g>
  <g id="arrowDown" transform="rotate(180) translate(-30 -48)">
    <use xlink:href="#rim"/>
    <path pointer-events="none" fill="none" stroke="white" stroke-width="1.5" d="M0,-3.0v7 M-2.5,-0.5L0,-3.0L2.5,-0.5"/>
  </g>
  <g id="arrowLeft" transform="rotate(270) translate(-36 17)">
    <use xlink:href="#rim"/>
    <path pointer-events="none" fill="none" stroke="white" stroke-width="1.5" d="M0,-3.0v7 M-2.5,-0.5L0,-3.0L2.5,-0.5"/>
  </g>
  <g id="resetDef">
    <use xlink:href="#rim2" fill="#404040"><set attributeName="fill" to="#808080" begin="reset.mouseover" end="reset.mouseout"/></use>
  </g>
</defs>
<script type="application/ecmascript">
var viewWidth = 894;
var viewHeight = 214;
var sectionId = 'dynsection-0';
</script>
<script type="application/ecmascript" xlink:href="svg.min.js"/>
<svg id="graph" class="graph">
<g id="viewport">
<title>Source/CoffeeToolbar/Private/Settings/UToolbarSettings.cpp</title>
<!-- Node1 -->
<g id="Node000001" class="node">
<title>Node1</title>
<g id="a_Node000001"><a xlink:title="Coffee Toolbar 플러그인의 설정 헬퍼 기능을 구현합니다.">
<polygon fill="#999999" stroke="#666666" points="599.5,-206 396.5,-206 396.5,-176 599.5,-176 599.5,-206"/>
<text text-anchor="start" x="404.5" y="-194" font-family="Malgun Gothic" font-size="10.00">Source/CoffeeToolbar</text>
<text text-anchor="middle" x="498" y="-183" font-family="Malgun Gothic" font-size="10.00">/Private/Settings/UToolbarSettings.cpp</text>
</a>
</g>
</g>
<!-- Node2 -->
<g id="Node000002" class="node">
<title>Node2</title>
<g id="a_Node000002"><a xlink:href="UToolbarSettings_8h.html" target="_top" xlink:title="Coffee Toolbar 플러그인을 구성하기 위한 개발자 설정을 선언합니다.">
<polygon fill="white" stroke="#666666" points="488.5,-134.5 337.5,-134.5 337.5,-115.5 488.5,-115.5 488.5,-134.5"/>
<text text-anchor="middle" x="413" y="-122.5" font-family="Malgun Gothic" font-size="10.00">Settings/UToolbarSettings.h</text>
</a>
</g>
</g>
<!-- Node1&#45;&gt;Node2 -->
<g id="edge1_Node000001_Node000002" class="edge">
<title>Node1&#45;&gt;Node2</title>
<g id="a_edge1_Node000001_Node000002"><a xlink:title=" ">
<path fill="none" stroke="#63b8ff" d="M479.14,-175.8C465.36,-165.43 446.74,-151.4 432.76,-140.88"/>
<polygon fill="#63b8ff" stroke="#63b8ff" points="434.84,-138.06 424.75,-134.84 430.63,-143.66 434.84,-138.06"/>
</a>
</g>
</g>
<!-- Node4 -->
<g id="Node000004" class="node">
<title>Node4</title>
<g id="a_Node000004"><a xlink:href="FToolbarButtonInfo_8h.html" target="_top" xlink:title="커스터마이즈 가능한 Coffee Toolbar 버튼 정보를 선언합니다.">
<polygon fill="white" stroke="#666666" points="143.5,-74 26.5,-74 26.5,-55 143.5,-55 143.5,-74"/>
<text text-anchor="middle" x="85" y="-62" font-family="Malgun Gothic" font-size="10.00">FToolbarButtonInfo.h</text>
</a>
</g>
</g>
<!-- Node1&#45;&gt;Node4 -->
<g id="edge14_Node000001_Node000004" class="edge">
<title>Node1&#45;&gt;Node4</title>
<g id="a_edge14_Node000001_Node000004"><a xlink:title=" ">
<path fill="none" stroke="#63b8ff" d="M449.59,-175.92C415.55,-165.98 368.95,-152.3 328,-140 255.01,-118.08 169.9,-91.83 122.25,-77.06"/>
<polygon fill="#63b8ff" stroke="#63b8ff" points="123.25,-73.71 112.67,-74.09 121.18,-80.4 123.25,-73.71"/>
</a>
</g>
</g>
<!-- Node12 -->
<g id="Node000012" class="node">
<title>Node12</title>
<g id="a_Node000012"><a xlink:title=" ">
<polygon fill="#e0e0e0" stroke="#999999" points="661.5,-140 506.5,-140 506.5,-110 661.5,-110 661.5,-140"/>
<text text-anchor="start" x="514.5" y="-128" font-family="Malgun Gothic" font-size="10.00">AssetRegistry/AssetRegistry</text>
<text text-anchor="middle" x="584" y="-117" font-family="Malgun Gothic" font-size="10.00">Module.h</text>
</a>
</g>
</g>
<!-- Node1&#45;&gt;Node12 -->
<g id="edge15_Node000001_Node000012" class="edge">
<title>Node1&#45;&gt;Node12</title>
<g id="a_edge15_Node000001_Node000012"><a xlink:title=" ">
<path fill="none" stroke="#63b8ff" d="M517.09,-175.8C528.78,-167.1 543.93,-155.82 556.85,-146.2"/>
<polygon fill="#63b8ff" stroke="#63b8ff" points="559.03,-148.94 564.97,-140.16 554.86,-143.33 559.03,-148.94"/>
</a>
</g>
</g>
<!-- Node13 -->
<g id="Node000013" class="node">
<title>Node13</title>
<g id="a_Node000013"><a xlink:title=" ">
<polygon fill="#e0e0e0" stroke="#999999" points="844.5,-134.5 679.5,-134.5 679.5,-115.5 844.5,-115.5 844.5,-134.5"/>
<text text-anchor="middle" x="762" y="-122.5" font-family="Malgun Gothic" font-size="10.00">AssetRegistry/IAssetRegistry.h</text>
</a>
</g>
</g>
<!-- Node1&#45;&gt;Node13 -->
<g id="edge16_Node000001_Node000013" class="edge">
<title>Node1&#45;&gt;Node13</title>
<g id="a_edge16_Node000001_Node000013"><a xlink:title=" ">
<path fill="none" stroke="#63b8ff" d="M555.94,-175.95C604.38,-164.21 672.49,-147.7 716.93,-136.93"/>
<polygon fill="#63b8ff" stroke="#63b8ff" points="717.97,-140.27 726.87,-134.52 716.32,-133.47 717.97,-140.27"/>
</a>
</g>
</g>
<!-- Node3 -->
<g id="Node000003" class="node">
<title>Node3</title>
<g id="a_Node000003"><a xlink:title=" ">
<polygon fill="#e0e0e0" stroke="#999999" points="714,-19 626,-19 626,0 714,0 714,-19"/>
<text text-anchor="middle" x="670" y="-7" font-family="Malgun Gothic" font-size="10.00">CoreMinimal.h</text>
</a>
</g>
</g>
<!-- Node2&#45;&gt;Node3 -->
<g id="edge2_Node000002_Node000003" class="edge">
<title>Node2&#45;&gt;Node3</title>
<g id="a_edge2_Node000002_Node000003"><a xlink:title=" ">
<path fill="none" stroke="#63b8ff" d="M461.42,-115.49C535.7,-102.32 669.62,-78.09 673,-74 683.31,-61.52 680.82,-42.51 676.82,-28.54"/>
<polygon fill="#63b8ff" stroke="#63b8ff" points="680.13,-27.41 673.65,-19.03 673.49,-29.62 680.13,-27.41"/>
</a>
</g>
</g>
<!-- Node2&#45;&gt;Node4 -->
<g id="edge3_Node000002_Node000004" class="edge">
<title>Node2&#45;&gt;Node4</title>
<g id="a_edge3_Node000002_Node000004"><a xlink:title=" ">
<path fill="none" stroke="#63b8ff" d="M365.31,-115.49C306.4,-104.99 206.25,-87.12 142.96,-75.84"/>
<polygon fill="#63b8ff" stroke="#63b8ff" points="143.21,-72.33 132.75,-74.02 141.98,-79.22 143.21,-72.33"/>
</a>
</g>
</g>
<!-- Node6 -->
<g id="Node000006" class="node">
<title>Node6</title>
<g id="a_Node000006"><a xlink:title=" ">
<polygon fill="#e0e0e0" stroke="#999999" points="314,-74 162,-74 162,-55 314,-55 314,-74"/>
<text text-anchor="middle" x="238" y="-62" font-family="Malgun Gothic" font-size="10.00">Engine/DeveloperSettings.h</text>
</a>
</g>
</g>
<!-- Node2&#45;&gt;Node6 -->
<g id="edge6_Node000002_Node000006" class="edge">
<title>Node2&#45;&gt;Node6</title>
<g id="a_edge6_Node000002_Node000006"><a xlink:title=" ">
<path fill="none" stroke="#63b8ff" d="M387.55,-115.49C357.36,-105.4 306.84,-88.51 272.98,-77.19"/>
<polygon fill="#63b8ff" stroke="#63b8ff" points="274.07,-73.87 263.48,-74.02 271.85,-80.51 274.07,-73.87"/>
</a>
</g>
</g>
<!-- Node7 -->
<g id="Node000007" class="node">
<title>Node7</title>
<g id="a_Node000007"><a xlink:href="FFolderPathInfo_8h.html" target="_top" xlink:title=" ">
<polygon fill="white" stroke="#666666" points="854,-74 720,-74 720,-55 854,-55 854,-74"/>
<text text-anchor="middle" x="787" y="-62" font-family="Malgun Gothic" font-size="10.00">Folder/FFolderPathInfo.h</text>
</a>
</g>
</g>
<!-- Node2&#45;&gt;Node7 -->
<g id="edge7_Node000002_Node000007" class="edge">
<title>Node2&#45;&gt;Node7</title>
<g id="a_edge7_Node000002_Node000007"><a xlink:title=" ">
<path fill="none" stroke="#63b8ff" d="M463.62,-115.45C474.62,-113.63 486.2,-111.73 497,-110 573.43,-97.77 661.3,-84.38 720.11,-75.51"/>
<polygon fill="#63b8ff" stroke="#63b8ff" points="720.65,-78.97 730.01,-74.02 719.6,-72.05 720.65,-78.97"/>
</a>
</g>
</g>
<!-- Node9 -->
<g id="Node000009" class="node">
<title>Node9</title>
<g id="a_Node000009"><a xlink:href="FApiSendInfo_8h.html" target="_top" xlink:title="HTTP API 요청 정보를 정의합니다.">
<polygon fill="white" stroke="#666666" points="664,-74 512,-74 512,-55 664,-55 664,-74"/>
<text text-anchor="middle" x="588" y="-62" font-family="Malgun Gothic" font-size="10.00">NetworkTest/FApiSendInfo.h</text>
</a>
</g>
</g>
<!-- Node2&#45;&gt;Node9 -->
<g id="edge10_Node000002_Node000009" class="edge">
<title>Node2&#45;&gt;Node9</title>
<g id="a_edge10_Node000002_Node000009"><a xlink:title=" ">
<path fill="none" stroke="#63b8ff" d="M438.45,-115.49C468.64,-105.4 519.16,-88.51 553.02,-77.19"/>
<polygon fill="#63b8ff" stroke="#63b8ff" points="554.15,-80.51 562.52,-74.02 551.93,-73.87 554.15,-80.51"/>
</a>
</g>
</g>
<!-- Node11 -->
<g id="Node000011" class="node">
<title>Node11</title>
<g id="a_Node000011"><a xlink:title=" ">
<polygon fill="#e0e0e0" stroke="#999999" points="493.5,-74 332.5,-74 332.5,-55 493.5,-55 493.5,-74"/>
<text text-anchor="middle" x="413" y="-62" font-family="Malgun Gothic" font-size="10.00">UToolbarSettings.generated.h</text>
</a>
</g>
</g>
<!-- Node2&#45;&gt;Node11 -->
<g id="edge13_Node000002_Node000011" class="edge">
<title>Node2&#45;&gt;Node11</title>
<g id="a_edge13_Node000002_Node000011"><a xlink:title=" ">
<path fill="none" stroke="#63b8ff" d="M413,-115.37C413,-107.25 413,-94.81 413,-84.39"/>
<polygon fill="#63b8ff" stroke="#63b8ff" points="416.5,-84.17 413,-74.17 409.5,-84.17 416.5,-84.17"/>
</a>
</g>
</g>
<!-- Node4&#45;&gt;Node3 -->
<g id="edge4_Node000004_Node000003" class="edge">
<title>Node4&#45;&gt;Node3</title>
<g id="a_edge4_Node000004_Node000003"><a xlink:title=" ">
<path fill="none" stroke="#63b8ff" d="M143.59,-56C146.77,-55.65 149.92,-55.31 153,-55 355.14,-34.52 409.33,-42.8 615.88,-18.9"/>
<polygon fill="#63b8ff" stroke="#63b8ff" points="616.31,-22.38 625.83,-17.74 615.5,-15.42 616.31,-22.38"/>
</a>
</g>
</g>
<!-- Node5 -->
<g id="Node000005" class="node">
<title>Node5</title>
<g id="a_Node000005"><a xlink:title=" ">
<polygon fill="#e0e0e0" stroke="#999999" points="170,-19 0,-19 0,0 170,0 170,-19"/>
<text text-anchor="middle" x="85" y="-7" font-family="Malgun Gothic" font-size="10.00">FToolbarButtonInfo.generated.h</text>
</a>
</g>
</g>
<!-- Node4&#45;&gt;Node5 -->
<g id="edge5_Node000004_Node000005" class="edge">
<title>Node4&#45;&gt;Node5</title>
<g id="a_edge5_Node000004_Node000005"><a xlink:title=" ">
<path fill="none" stroke="#63b8ff" d="M85,-54.75C85,-47.8 85,-37.85 85,-29.13"/>
<polygon fill="#63b8ff" stroke="#63b8ff" points="88.5,-29.09 85,-19.09 81.5,-29.09 88.5,-29.09"/>
</a>
</g>
</g>
<!-- Node7&#45;&gt;Node3 -->
<g id="edge8_Node000007_Node000003" class="edge">
<title>Node7&#45;&gt;Node3</title>
<g id="a_edge8_Node000007_Node000003"><a xlink:title=" ">
<path fill="none" stroke="#63b8ff" d="M768.2,-54.98C749.38,-46.46 720.18,-33.23 698.5,-23.41"/>
<polygon fill="#63b8ff" stroke="#63b8ff" points="699.69,-20.11 689.14,-19.17 696.8,-26.48 699.69,-20.11"/>
</a>
</g>
</g>
<!-- Node8 -->
<g id="Node000008" class="node">
<title>Node8</title>
<g id="a_Node000008"><a xlink:title=" ">
<polygon fill="#e0e0e0" stroke="#999999" points="886,-19 732,-19 732,0 886,0 886,-19"/>
<text text-anchor="middle" x="809" y="-7" font-family="Malgun Gothic" font-size="10.00">FFolderPathInfo.generated.h</text>
</a>
</g>
</g>
<!-- Node7&#45;&gt;Node8 -->
<g id="edge9_Node000007_Node000008" class="edge">
<title>Node7&#45;&gt;Node8</title>
<g id="a_edge9_Node000007_Node000008"><a xlink:title=" ">
<path fill="none" stroke="#63b8ff" d="M790.63,-54.75C793.58,-47.65 797.83,-37.4 801.51,-28.56"/>
<polygon fill="#63b8ff" stroke="#63b8ff" points="804.83,-29.67 805.43,-19.09 798.37,-26.98 804.83,-29.67"/>
</a>
</g>
</g>
<!-- Node9&#45;&gt;Node3 -->
<g id="edge11_Node000009_Node000003" class="edge">
<title>Node9&#45;&gt;Node3</title>
<g id="a_edge11_Node000009_Node000003"><a xlink:title=" ">
<path fill="none" stroke="#63b8ff" d="M601.17,-54.98C613.77,-46.84 633,-34.41 647.94,-24.76"/>
<polygon fill="#63b8ff" stroke="#63b8ff" points="650.09,-27.54 656.59,-19.17 646.29,-21.66 650.09,-27.54"/>
</a>
</g>
</g>
<!-- Node10 -->
<g id="Node000010" class="node">
<title>Node10</title>
<g id="a_Node000010"><a xlink:title=" ">
<polygon fill="#e0e0e0" stroke="#999999" points="607.5,-19 466.5,-19 466.5,0 607.5,0 607.5,-19"/>
<text text-anchor="middle" x="537" y="-7" font-family="Malgun Gothic" font-size="10.00">FApiSendInfo.generated.h</text>
</a>
</g>
</g>
<!-- Node9&#45;&gt;Node10 -->
<g id="edge12_Node000009_Node000010" class="edge">
<title>Node9&#45;&gt;Node10</title>
<g id="a_edge12_Node000009_Node000010"><a xlink:title=" ">
<path fill="none" stroke="#63b8ff" d="M579.58,-54.75C572.23,-47.11 561.37,-35.82 552.46,-26.56"/>
<polygon fill="#63b8ff" stroke="#63b8ff" points="554.72,-23.87 545.26,-19.09 549.68,-28.72 554.72,-23.87"/>
</a>
</g>
</g>
</g>
</svg>

<g id="navigator" transform="translate(0 0)" fill="#404254">
  <rect fill="#f2f5e9" fill-opacity="0.5" stroke="#606060" stroke-width=".5" x="0" y="0" width="60" height="60"/>
  <use id="zoomplus" xlink:href="#zoomPlus" x="17" y="9" onmousedown="handleZoom(evt,'in')"/>
  <use id="zoomminus" xlink:href="#zoomMin" x="42" y="9" onmousedown="handleZoom(evt,'out')"/>
  <use id="reset" xlink:href="#resetDef" x="30" y="36" onmousedown="handleReset()"/>
   <use id="arrowup" xlink:href="#arrowUp" x="0" y="0" onmousedown="handlePan(0,-1)"/>
  <use id="arrowright" xlink:href="#arrowRight" x="0" y="0" onmousedown="handlePan(1,0)"/>
  <use id="arrowdown" xlink:href="#arrowDown" x="0" y="0" onmousedown="handlePan(0,1)"/>
  <use id="arrowleft" xlink:href="#arrowLeft" x="0" y="0" onmousedown="handlePan(-1,0)"/>
</g>
<svg viewBox="0 0 15 15" width="100%" height="30px" preserveAspectRatio="xMaxYMin meet">
 <g id="arrow_out" transform="scale(0.3 0.3)">
  <a xlink:href="UToolbarSettings_8cpp__incl_org.svg" target="_base">
   <rect id="button" ry="5" rx="5" y="6" x="6" height="38" width="38"
        fill="#f2f5e9" fill-opacity="0.5" stroke="#606060" stroke-width="1.0"/>
   <path id="arrow"
     d="M 11.500037,31.436501 C 11.940474,20.09759 22.043105,11.32322 32.158766,21.979434 L 37.068811,17.246167 C 37.068811,17.246167 37.088388,32 37.088388,32 L 22.160133,31.978069 C 22.160133,31.978069 26.997745,27.140456 26.997745,27.140456 C 18.528582,18.264221 13.291696,25.230495 11.500037,31.436501 z"
     style="fill:#404040;"/>
  </a>
 </g>
</svg>

<style type='text/css'>
<![CDATA[
[data-mouse-over-selected='false'] { opacity: 0.7; }
[data-mouse-over-selected='true']  { opacity: 1.0; }
]]>
</style>
<script type="application/ecmascript"><![CDATA[
document.addEventListener('DOMContentLoaded', (event) => {
  highlightEdges();
  highlightAdjacentNodes();
});
]]></script>
</svg>
