<?xml version="1.0" encoding="UTF-8" standalone="no"?>
<!DOCTYPE svg PUBLIC "-//W3C//DTD SVG 1.1//EN"
 "http://www.w3.org/Graphics/SVG/1.1/DTD/svg11.dtd">
<!-- Generated by graphviz version 2.43.0 (0)
 -->
<!-- Title: Source/CoffeeToolbar/Public/Settings/UToolbarSettings.h Pages: 1 -->
<svg width="922pt" height="148pt"
 viewBox="0.00 0.00 921.50 148.00" xmlns="http://www.w3.org/2000/svg" xmlns:xlink="http://www.w3.org/1999/xlink">
<g id="graph0" class="graph" transform="scale(1 1) rotate(0) translate(4 144)">
<title>Source/CoffeeToolbar/Public/Settings/UToolbarSettings.h</title>
<!-- Node1 -->
<g id="Node000001" class="node">
<title>Node1</title>
<g id="a_Node000001"><a xlink:title="Coffee Toolbar 플러그인을 구성하기 위한 개발자 설정을 선언합니다.">
<polygon fill="#999999" stroke="#666666" points="500,-140 314,-140 314,-110 500,-110 500,-140"/>
<text text-anchor="start" x="322" y="-128" font-family="Malgun Gothic" font-size="10.00">Source/CoffeeToolbar</text>
<text text-anchor="middle" x="407" y="-117" font-family="Malgun Gothic" font-size="10.00">/Public/Settings/UToolbarSettings.h</text>
</a>
</g>
</g>
<!-- Node2 -->
<g id="Node000002" class="node">
<title>Node2</title>
<g id="a_Node000002"><a xlink:title=" ">
<polygon fill="#e0e0e0" stroke="#999999" points="276,-19 188,-19 188,0 276,0 276,-19"/>
<text text-anchor="middle" x="232" y="-7" font-family="Malgun Gothic" font-size="10.00">CoreMinimal.h</text>
</a>
</g>
</g>
<!-- Node1&#45;&gt;Node2 -->
<g id="edge1_Node000001_Node000002" class="edge">
<title>Node1&#45;&gt;Node2</title>
<g id="a_edge1_Node000001_Node000002"><a xlink:title=" ">
<path fill="none" stroke="#63b8ff" d="M313.83,-109.98C290.81,-102.57 267.93,-91.26 251,-74 239.3,-62.07 234.76,-43.25 233.02,-29.19"/>
<polygon fill="#63b8ff" stroke="#63b8ff" points="236.5,-28.81 232.15,-19.16 229.53,-29.42 236.5,-28.81"/>
</a>
</g>
</g>
<!-- Node3 -->
<g id="Node000003" class="node">
<title>Node3</title>
<g id="a_Node000003"><a xlink:href="FToolbarButtonInfo_8h.html" target="_top" xlink:title="커스터마이즈 가능한 Coffee Toolbar 버튼 정보를 선언합니다.">
<polygon fill="white" stroke="#666666" points="203.5,-74 86.5,-74 86.5,-55 203.5,-55 203.5,-74"/>
<text text-anchor="middle" x="145" y="-62" font-family="Malgun Gothic" font-size="10.00">FToolbarButtonInfo.h</text>
</a>
</g>
</g>
<!-- Node1&#45;&gt;Node3 -->
<g id="edge2_Node000001_Node000003" class="edge">
<title>Node1&#45;&gt;Node3</title>
<g id="a_edge2_Node000001_Node000003"><a xlink:title=" ">
<path fill="none" stroke="#63b8ff" d="M344.24,-109.99C297.85,-99.63 235.62,-85.73 193.13,-76.25"/>
<polygon fill="#63b8ff" stroke="#63b8ff" points="193.83,-72.82 183.31,-74.05 192.31,-79.65 193.83,-72.82"/>
</a>
</g>
</g>
<!-- Node5 -->
<g id="Node000005" class="node">
<title>Node5</title>
<g id="a_Node000005"><a xlink:title=" ">
<polygon fill="#e0e0e0" stroke="#999999" points="734,-74 582,-74 582,-55 734,-55 734,-74"/>
<text text-anchor="middle" x="658" y="-62" font-family="Malgun Gothic" font-size="10.00">Engine/DeveloperSettings.h</text>
</a>
</g>
</g>
<!-- Node1&#45;&gt;Node5 -->
<g id="edge5_Node000001_Node000005" class="edge">
<title>Node1&#45;&gt;Node5</title>
<g id="a_edge5_Node000001_Node000005"><a xlink:title=" ">
<path fill="none" stroke="#63b8ff" d="M467.12,-109.99C511.38,-99.67 570.68,-85.85 611.37,-76.37"/>
<polygon fill="#63b8ff" stroke="#63b8ff" points="612.36,-79.73 621.3,-74.05 610.77,-72.91 612.36,-79.73"/>
</a>
</g>
</g>
<!-- Node6 -->
<g id="Node000006" class="node">
<title>Node6</title>
<g id="a_Node000006"><a xlink:href="FFolderPathInfo_8h.html" target="_top" xlink:title=" ">
<polygon fill="white" stroke="#666666" points="394,-74 260,-74 260,-55 394,-55 394,-74"/>
<text text-anchor="middle" x="327" y="-62" font-family="Malgun Gothic" font-size="10.00">Folder/FFolderPathInfo.h</text>
</a>
</g>
</g>
<!-- Node1&#45;&gt;Node6 -->
<g id="edge6_Node000001_Node000006" class="edge">
<title>Node1&#45;&gt;Node6</title>
<g id="a_edge6_Node000001_Node000006"><a xlink:title=" ">
<path fill="none" stroke="#63b8ff" d="M387.63,-109.84C375.43,-100.91 359.69,-89.41 347.31,-80.35"/>
<polygon fill="#63b8ff" stroke="#63b8ff" points="349.13,-77.34 338.99,-74.27 344.99,-82.99 349.13,-77.34"/>
</a>
</g>
</g>
<!-- Node8 -->
<g id="Node000008" class="node">
<title>Node8</title>
<g id="a_Node000008"><a xlink:href="FApiSendInfo_8h.html" target="_top" xlink:title="HTTP API 요청 정보를 정의합니다.">
<polygon fill="white" stroke="#666666" points="564,-74 412,-74 412,-55 564,-55 564,-74"/>
<text text-anchor="middle" x="488" y="-62" font-family="Malgun Gothic" font-size="10.00">NetworkTest/FApiSendInfo.h</text>
</a>
</g>
</g>
<!-- Node1&#45;&gt;Node8 -->
<g id="edge9_Node000001_Node000008" class="edge">
<title>Node1&#45;&gt;Node8</title>
<g id="a_edge9_Node000001_Node000008"><a xlink:title=" ">
<path fill="none" stroke="#63b8ff" d="M426.61,-109.84C438.97,-100.91 454.9,-89.41 467.43,-80.35"/>
<polygon fill="#63b8ff" stroke="#63b8ff" points="469.8,-82.96 475.86,-74.27 465.71,-77.28 469.8,-82.96"/>
</a>
</g>
</g>
<!-- Node10 -->
<g id="Node000010" class="node">
<title>Node10</title>
<g id="a_Node000010"><a xlink:title=" ">
<polygon fill="#e0e0e0" stroke="#999999" points="913.5,-74 752.5,-74 752.5,-55 913.5,-55 913.5,-74"/>
<text text-anchor="middle" x="833" y="-62" font-family="Malgun Gothic" font-size="10.00">UToolbarSettings.generated.h</text>
</a>
</g>
</g>
<!-- Node1&#45;&gt;Node10 -->
<g id="edge12_Node000001_Node000010" class="edge">
<title>Node1&#45;&gt;Node10</title>
<g id="a_edge12_Node000001_Node000010"><a xlink:title=" ">
<path fill="none" stroke="#63b8ff" d="M500.22,-111.2C578.53,-100.45 688.83,-85.3 760.61,-75.44"/>
<polygon fill="#63b8ff" stroke="#63b8ff" points="761.49,-78.85 770.92,-74.03 760.53,-71.92 761.49,-78.85"/>
</a>
</g>
</g>
<!-- Node3&#45;&gt;Node2 -->
<g id="edge3_Node000003_Node000002" class="edge">
<title>Node3&#45;&gt;Node2</title>
<g id="a_edge3_Node000003_Node000002"><a xlink:title=" ">
<path fill="none" stroke="#63b8ff" d="M158.98,-54.98C172.47,-46.77 193.13,-34.18 209.04,-24.49"/>
<polygon fill="#63b8ff" stroke="#63b8ff" points="211.05,-27.36 217.77,-19.17 207.41,-21.38 211.05,-27.36"/>
</a>
</g>
</g>
<!-- Node4 -->
<g id="Node000004" class="node">
<title>Node4</title>
<g id="a_Node000004"><a xlink:title=" ">
<polygon fill="#e0e0e0" stroke="#999999" points="170,-19 0,-19 0,0 170,0 170,-19"/>
<text text-anchor="middle" x="85" y="-7" font-family="Malgun Gothic" font-size="10.00">FToolbarButtonInfo.generated.h</text>
</a>
</g>
</g>
<!-- Node3&#45;&gt;Node4 -->
<g id="edge4_Node000003_Node000004" class="edge">
<title>Node3&#45;&gt;Node4</title>
<g id="a_edge4_Node000003_Node000004"><a xlink:title=" ">
<path fill="none" stroke="#63b8ff" d="M135.36,-54.98C126.49,-47.15 113.13,-35.34 102.39,-25.86"/>
<polygon fill="#63b8ff" stroke="#63b8ff" points="104.63,-23.17 94.82,-19.17 99.99,-28.41 104.63,-23.17"/>
</a>
</g>
</g>
<!-- Node6&#45;&gt;Node2 -->
<g id="edge7_Node000006_Node000002" class="edge">
<title>Node6&#45;&gt;Node2</title>
<g id="a_edge7_Node000006_Node000002"><a xlink:title=" ">
<path fill="none" stroke="#63b8ff" d="M311.74,-54.98C296.87,-46.69 274.02,-33.94 256.58,-24.22"/>
<polygon fill="#63b8ff" stroke="#63b8ff" points="257.98,-20.99 247.54,-19.17 254.57,-27.1 257.98,-20.99"/>
</a>
</g>
</g>
<!-- Node7 -->
<g id="Node000007" class="node">
<title>Node7</title>
<g id="a_Node000007"><a xlink:title=" ">
<polygon fill="#e0e0e0" stroke="#999999" points="448,-19 294,-19 294,0 448,0 448,-19"/>
<text text-anchor="middle" x="371" y="-7" font-family="Malgun Gothic" font-size="10.00">FFolderPathInfo.generated.h</text>
</a>
</g>
</g>
<!-- Node6&#45;&gt;Node7 -->
<g id="edge8_Node000006_Node000007" class="edge">
<title>Node6&#45;&gt;Node7</title>
<g id="a_edge8_Node000006_Node000007"><a xlink:title=" ">
<path fill="none" stroke="#63b8ff" d="M334.27,-54.75C340.54,-47.18 349.79,-36.05 357.43,-26.84"/>
<polygon fill="#63b8ff" stroke="#63b8ff" points="360.17,-29.02 363.87,-19.09 354.79,-24.55 360.17,-29.02"/>
</a>
</g>
</g>
<!-- Node8&#45;&gt;Node2 -->
<g id="edge10_Node000008_Node000002" class="edge">
<title>Node8&#45;&gt;Node2</title>
<g id="a_edge10_Node000008_Node000002"><a xlink:title=" ">
<path fill="none" stroke="#63b8ff" d="M446.87,-54.98C402.4,-45.78 331.45,-31.09 283.35,-21.13"/>
<polygon fill="#63b8ff" stroke="#63b8ff" points="283.96,-17.68 273.45,-19.08 282.54,-24.54 283.96,-17.68"/>
</a>
</g>
</g>
<!-- Node9 -->
<g id="Node000009" class="node">
<title>Node9</title>
<g id="a_Node000009"><a xlink:title=" ">
<polygon fill="#e0e0e0" stroke="#999999" points="607.5,-19 466.5,-19 466.5,0 607.5,0 607.5,-19"/>
<text text-anchor="middle" x="537" y="-7" font-family="Malgun Gothic" font-size="10.00">FApiSendInfo.generated.h</text>
</a>
</g>
</g>
<!-- Node8&#45;&gt;Node9 -->
<g id="edge11_Node000008_Node000009" class="edge">
<title>Node8&#45;&gt;Node9</title>
<g id="a_edge11_Node000008_Node000009"><a xlink:title=" ">
<path fill="none" stroke="#63b8ff" d="M496.09,-54.75C503.16,-47.11 513.59,-35.82 522.15,-26.56"/>
<polygon fill="#63b8ff" stroke="#63b8ff" points="524.84,-28.81 529.06,-19.09 519.7,-24.06 524.84,-28.81"/>
</a>
</g>
</g>
</g>
</svg>
