<?xml version="1.0" encoding="UTF-8" standalone="no"?>
<!DOCTYPE svg PUBLIC "-//W3C//DTD SVG 1.1//EN"
 "http://www.w3.org/Graphics/SVG/1.1/DTD/svg11.dtd">
<!-- Generated by graphviz version 2.43.0 (0)
 -->
<!-- Title: Source/CoffeeToolbar/Private/Settings/UToolbarSettings.cpp Pages: 1 -->
<svg width="730pt" height="214pt"
 viewBox="0.00 0.00 729.50 214.00" xmlns="http://www.w3.org/2000/svg" xmlns:xlink="http://www.w3.org/1999/xlink">
<g id="graph0" class="graph" transform="scale(1 1) rotate(0) translate(4 210)">
<title>Source/CoffeeToolbar/Private/Settings/UToolbarSettings.cpp</title>
<!-- Node1 -->
<g id="Node000001" class="node">
<title>Node1</title>
<g id="a_Node000001"><a xlink:title="Coffee Toolbar 플러그인의 설정 헬퍼 기능을 구현합니다.">
<polygon fill="#999999" stroke="#666666" points="476.5,-206 273.5,-206 273.5,-176 476.5,-176 476.5,-206"/>
<text text-anchor="start" x="281.5" y="-194" font-family="Malgun Gothic" font-size="10.00">Source/CoffeeToolbar</text>
<text text-anchor="middle" x="375" y="-183" font-family="Malgun Gothic" font-size="10.00">/Private/Settings/UToolbarSettings.cpp</text>
</a>
</g>
</g>
<!-- Node2 -->
<g id="Node000002" class="node">
<title>Node2</title>
<g id="a_Node000002"><a xlink:href="UToolbarSettings_8h.html" target="_top" xlink:title="Coffee Toolbar 플러그인을 구성하기 위한 개발자 설정을 선언합니다.">
<polygon fill="white" stroke="#666666" points="365.5,-134.5 214.5,-134.5 214.5,-115.5 365.5,-115.5 365.5,-134.5"/>
<text text-anchor="middle" x="290" y="-122.5" font-family="Malgun Gothic" font-size="10.00">Settings/UToolbarSettings.h</text>
</a>
</g>
</g>
<!-- Node1&#45;&gt;Node2 -->
<g id="edge1_Node000001_Node000002" class="edge">
<title>Node1&#45;&gt;Node2</title>
<g id="a_edge1_Node000001_Node000002"><a xlink:title=" ">
<path fill="none" stroke="#63b8ff" d="M356.14,-175.8C342.36,-165.43 323.74,-151.4 309.76,-140.88"/>
<polygon fill="#63b8ff" stroke="#63b8ff" points="311.84,-138.06 301.75,-134.84 307.63,-143.66 311.84,-138.06"/>
</a>
</g>
</g>
<!-- Node4 -->
<g id="Node000004" class="node">
<title>Node4</title>
<g id="a_Node000004"><a xlink:href="FToolbarButtonInfo_8h.html" target="_top" xlink:title="커스터마이즈 가능한 Coffee Toolbar 버튼 정보를 선언합니다.">
<polygon fill="white" stroke="#666666" points="143.5,-74 26.5,-74 26.5,-55 143.5,-55 143.5,-74"/>
<text text-anchor="middle" x="85" y="-62" font-family="Malgun Gothic" font-size="10.00">FToolbarButtonInfo.h</text>
</a>
</g>
</g>
<!-- Node1&#45;&gt;Node4 -->
<g id="edge11_Node000001_Node000004" class="edge">
<title>Node1&#45;&gt;Node4</title>
<g id="a_edge11_Node000001_Node000004"><a xlink:title=" ">
<path fill="none" stroke="#63b8ff" d="M312.59,-175.95C279.8,-167.51 239.4,-155.4 205,-140 167.46,-123.2 127.6,-96.43 104.57,-79.97"/>
<polygon fill="#63b8ff" stroke="#63b8ff" points="106.49,-77.04 96.34,-74.01 102.38,-82.71 106.49,-77.04"/>
</a>
</g>
</g>
<!-- Node10 -->
<g id="Node000010" class="node">
<title>Node10</title>
<g id="a_Node000010"><a xlink:title=" ">
<polygon fill="#e0e0e0" stroke="#999999" points="538.5,-140 383.5,-140 383.5,-110 538.5,-110 538.5,-140"/>
<text text-anchor="start" x="391.5" y="-128" font-family="Malgun Gothic" font-size="10.00">AssetRegistry/AssetRegistry</text>
<text text-anchor="middle" x="461" y="-117" font-family="Malgun Gothic" font-size="10.00">Module.h</text>
</a>
</g>
</g>
<!-- Node1&#45;&gt;Node10 -->
<g id="edge12_Node000001_Node000010" class="edge">
<title>Node1&#45;&gt;Node10</title>
<g id="a_edge12_Node000001_Node000010"><a xlink:title=" ">
<path fill="none" stroke="#63b8ff" d="M394.09,-175.8C405.78,-167.1 420.93,-155.82 433.85,-146.2"/>
<polygon fill="#63b8ff" stroke="#63b8ff" points="436.03,-148.94 441.97,-140.16 431.86,-143.33 436.03,-148.94"/>
</a>
</g>
</g>
<!-- Node11 -->
<g id="Node000011" class="node">
<title>Node11</title>
<g id="a_Node000011"><a xlink:title=" ">
<polygon fill="#e0e0e0" stroke="#999999" points="721.5,-134.5 556.5,-134.5 556.5,-115.5 721.5,-115.5 721.5,-134.5"/>
<text text-anchor="middle" x="639" y="-122.5" font-family="Malgun Gothic" font-size="10.00">AssetRegistry/IAssetRegistry.h</text>
</a>
</g>
</g>
<!-- Node1&#45;&gt;Node11 -->
<g id="edge13_Node000001_Node000011" class="edge">
<title>Node1&#45;&gt;Node11</title>
<g id="a_edge13_Node000001_Node000011"><a xlink:title=" ">
<path fill="none" stroke="#63b8ff" d="M432.94,-175.95C481.38,-164.21 549.49,-147.7 593.93,-136.93"/>
<polygon fill="#63b8ff" stroke="#63b8ff" points="594.97,-140.27 603.87,-134.52 593.32,-133.47 594.97,-140.27"/>
</a>
</g>
</g>
<!-- Node3 -->
<g id="Node000003" class="node">
<title>Node3</title>
<g id="a_Node000003"><a xlink:title=" ">
<polygon fill="#e0e0e0" stroke="#999999" points="386,-19 298,-19 298,0 386,0 386,-19"/>
<text text-anchor="middle" x="342" y="-7" font-family="Malgun Gothic" font-size="10.00">CoreMinimal.h</text>
</a>
</g>
</g>
<!-- Node2&#45;&gt;Node3 -->
<g id="edge2_Node000002_Node000003" class="edge">
<title>Node2&#45;&gt;Node3</title>
<g id="a_edge2_Node000002_Node000003"><a xlink:title=" ">
<path fill="none" stroke="#63b8ff" d="M296.93,-115.26C304.27,-105.63 315.78,-89.45 323,-74 329.78,-59.49 334.81,-41.98 337.98,-29.03"/>
<polygon fill="#63b8ff" stroke="#63b8ff" points="341.45,-29.54 340.29,-19 334.63,-27.96 341.45,-29.54"/>
</a>
</g>
</g>
<!-- Node2&#45;&gt;Node4 -->
<g id="edge3_Node000002_Node000004" class="edge">
<title>Node2&#45;&gt;Node4</title>
<g id="a_edge3_Node000002_Node000004"><a xlink:title=" ">
<path fill="none" stroke="#63b8ff" d="M260.19,-115.49C224.44,-105.29 164.37,-88.15 124.71,-76.83"/>
<polygon fill="#63b8ff" stroke="#63b8ff" points="125.42,-73.4 114.84,-74.02 123.5,-80.13 125.42,-73.4"/>
</a>
</g>
</g>
<!-- Node6 -->
<g id="Node000006" class="node">
<title>Node6</title>
<g id="a_Node000006"><a xlink:title=" ">
<polygon fill="#e0e0e0" stroke="#999999" points="314,-74 162,-74 162,-55 314,-55 314,-74"/>
<text text-anchor="middle" x="238" y="-62" font-family="Malgun Gothic" font-size="10.00">Engine/DeveloperSettings.h</text>
</a>
</g>
</g>
<!-- Node2&#45;&gt;Node6 -->
<g id="edge6_Node000002_Node000006" class="edge">
<title>Node2&#45;&gt;Node6</title>
<g id="a_edge6_Node000002_Node000006"><a xlink:title=" ">
<path fill="none" stroke="#63b8ff" d="M282.33,-115.37C274.49,-106.55 262.14,-92.66 252.46,-81.77"/>
<polygon fill="#63b8ff" stroke="#63b8ff" points="254.96,-79.32 245.7,-74.17 249.73,-83.97 254.96,-79.32"/>
</a>
</g>
</g>
<!-- Node7 -->
<g id="Node000007" class="node">
<title>Node7</title>
<g id="a_Node000007"><a xlink:href="FFolderPathInfo_8h.html" target="_top" xlink:title=" ">
<polygon fill="white" stroke="#666666" points="650.5,-74 549.5,-74 549.5,-55 650.5,-55 650.5,-74"/>
<text text-anchor="middle" x="600" y="-62" font-family="Malgun Gothic" font-size="10.00">FFolderPathInfo.h</text>
</a>
</g>
</g>
<!-- Node2&#45;&gt;Node7 -->
<g id="edge7_Node000002_Node000007" class="edge">
<title>Node2&#45;&gt;Node7</title>
<g id="a_edge7_Node000002_Node000007"><a xlink:title=" ">
<path fill="none" stroke="#63b8ff" d="M335.08,-115.49C390.64,-105.01 485.02,-87.2 544.85,-75.91"/>
<polygon fill="#63b8ff" stroke="#63b8ff" points="545.69,-79.31 554.87,-74.02 544.39,-72.43 545.69,-79.31"/>
</a>
</g>
</g>
<!-- Node9 -->
<g id="Node000009" class="node">
<title>Node9</title>
<g id="a_Node000009"><a xlink:title=" ">
<polygon fill="#e0e0e0" stroke="#999999" points="531.5,-74 370.5,-74 370.5,-55 531.5,-55 531.5,-74"/>
<text text-anchor="middle" x="451" y="-62" font-family="Malgun Gothic" font-size="10.00">UToolbarSettings.generated.h</text>
</a>
</g>
</g>
<!-- Node2&#45;&gt;Node9 -->
<g id="edge10_Node000002_Node000009" class="edge">
<title>Node2&#45;&gt;Node9</title>
<g id="a_edge10_Node000002_Node000009"><a xlink:title=" ">
<path fill="none" stroke="#63b8ff" d="M313.41,-115.49C340.95,-105.49 386.87,-88.8 418.01,-77.49"/>
<polygon fill="#63b8ff" stroke="#63b8ff" points="419.36,-80.72 427.56,-74.02 416.97,-74.14 419.36,-80.72"/>
</a>
</g>
</g>
<!-- Node4&#45;&gt;Node3 -->
<g id="edge4_Node000004_Node000003" class="edge">
<title>Node4&#45;&gt;Node3</title>
<g id="a_edge4_Node000004_Node000003"><a xlink:title=" ">
<path fill="none" stroke="#63b8ff" d="M126.29,-54.98C170.93,-45.78 242.16,-31.09 290.45,-21.13"/>
<polygon fill="#63b8ff" stroke="#63b8ff" points="291.3,-24.53 300.38,-19.08 289.88,-17.67 291.3,-24.53"/>
</a>
</g>
</g>
<!-- Node5 -->
<g id="Node000005" class="node">
<title>Node5</title>
<g id="a_Node000005"><a xlink:title=" ">
<polygon fill="#e0e0e0" stroke="#999999" points="170,-19 0,-19 0,0 170,0 170,-19"/>
<text text-anchor="middle" x="85" y="-7" font-family="Malgun Gothic" font-size="10.00">FToolbarButtonInfo.generated.h</text>
</a>
</g>
</g>
<!-- Node4&#45;&gt;Node5 -->
<g id="edge5_Node000004_Node000005" class="edge">
<title>Node4&#45;&gt;Node5</title>
<g id="a_edge5_Node000004_Node000005"><a xlink:title=" ">
<path fill="none" stroke="#63b8ff" d="M85,-54.75C85,-47.8 85,-37.85 85,-29.13"/>
<polygon fill="#63b8ff" stroke="#63b8ff" points="88.5,-29.09 85,-19.09 81.5,-29.09 88.5,-29.09"/>
</a>
</g>
</g>
<!-- Node7&#45;&gt;Node3 -->
<g id="edge8_Node000007_Node000003" class="edge">
<title>Node7&#45;&gt;Node3</title>
<g id="a_edge8_Node000007_Node000003"><a xlink:title=" ">
<path fill="none" stroke="#63b8ff" d="M558.55,-54.98C513.73,-45.78 442.23,-31.09 393.75,-21.13"/>
<polygon fill="#63b8ff" stroke="#63b8ff" points="394.28,-17.67 383.78,-19.08 392.87,-24.52 394.28,-17.67"/>
</a>
</g>
</g>
<!-- Node8 -->
<g id="Node000008" class="node">
<title>Node8</title>
<g id="a_Node000008"><a xlink:title=" ">
<polygon fill="#e0e0e0" stroke="#999999" points="677,-19 523,-19 523,0 677,0 677,-19"/>
<text text-anchor="middle" x="600" y="-7" font-family="Malgun Gothic" font-size="10.00">FFolderPathInfo.generated.h</text>
</a>
</g>
</g>
<!-- Node7&#45;&gt;Node8 -->
<g id="edge9_Node000007_Node000008" class="edge">
<title>Node7&#45;&gt;Node8</title>
<g id="a_edge9_Node000007_Node000008"><a xlink:title=" ">
<path fill="none" stroke="#63b8ff" d="M600,-54.75C600,-47.8 600,-37.85 600,-29.13"/>
<polygon fill="#63b8ff" stroke="#63b8ff" points="603.5,-29.09 600,-19.09 596.5,-29.09 603.5,-29.09"/>
</a>
</g>
</g>
</g>
</svg>
